<svg xmlns="http://www.w3.org/2000/svg" width="154" height="154" viewBox="0 0 154 154">
  <g id="Grupo_1179421" data-name="Grupo 1179421" transform="translate(-713 -6983.191)">
    <g id="Grupo_1177911" data-name="Grupo 1177911" transform="translate(402.942 -387.809)">
      <circle id="Elipse_13624" data-name="Elipse 13624" cx="77" cy="77" r="77" transform="translate(310.059 7371)" fill="#fff"/>
    </g>
    <g id="Grupo_1178859" data-name="Grupo 1178859" transform="translate(674.755 7000.032)">
      <path id="Trazado_996366" data-name="Trazado 996366" d="M157.318,221.613l-4.583-7.939a9.745,9.745,0,0,1-1.305-4.872V172.5a24.577,24.577,0,0,0-24.577-24.577H115.478A24.577,24.577,0,0,0,90.9,172.5v36.3a9.746,9.746,0,0,1-1.305,4.872l-4.583,7.939a1.332,1.332,0,0,0,1.154,2h70A1.332,1.332,0,0,0,157.318,221.613Z" transform="translate(-5.919 -116.524)" fill="#ffd064"/>
      <path id="Trazado_996367" data-name="Trazado 996367" d="M157.318,224.867l-4.583-7.939a9.745,9.745,0,0,1-1.305-4.872v-36.3a24.588,24.588,0,0,0-18.048-23.7,24.536,24.536,0,0,1,9.557,19.455v35.2a13.85,13.85,0,0,0,1.856,6.925l.478.828a5.438,5.438,0,0,1-4.709,8.156H86.309l-1.3,2.247a1.332,1.332,0,0,0,1.154,2h70a1.332,1.332,0,0,0,1.154-2Z" transform="translate(-5.918 -119.778)" fill="#ffc250"/>
      <path id="Trazado_996368" data-name="Trazado 996368" d="M214.153,26.442l-4.8-17.9a.527.527,0,0,1,.734-.613l3.794,1.791a.626.626,0,0,0,.535,0l4.6-2.17a.527.527,0,0,1,.45,0l4.6,2.17a.626.626,0,0,0,.535,0L228.4,7.933a.527.527,0,0,1,.734.613l-4.8,17.895Z" transform="translate(-103.998 -5.912)" fill="#ffd064"/>
      <path id="Trazado_996369" data-name="Trazado 996369" d="M243.1,9.338,239.3,11.128a.626.626,0,0,1-.535,0l-2.2-1.037-2.88,10.749a5.157,5.157,0,0,1-4.981,3.822H228l.853,3.184h10.182l4.8-17.895A.527.527,0,0,0,243.1,9.338Z" transform="translate(-118.698 -7.316)" fill="#ffc250"/>
      <g id="Grupo_1178858" data-name="Grupo 1178858" transform="translate(96.186 53.275)">
        <circle id="Elipse_13669" data-name="Elipse 13669" cx="5.376" cy="5.376" r="5.376" transform="translate(13.684 13.686)" fill="#617881"/>
        <path id="Trazado_996370" data-name="Trazado 996370" d="M220.929,259.22a10.764,10.764,0,0,1,5.227,1.347.217.217,0,0,0,.294-.08l3.9-6.754a.22.22,0,0,0-.082-.3,19.087,19.087,0,0,0-18.68,0,.22.22,0,0,0-.082.3l3.9,6.754a.217.217,0,0,0,.294.08A10.763,10.763,0,0,1,220.929,259.22Z" transform="translate(-201.869 -250.989)" fill="#617881"/>
        <path id="Trazado_996371" data-name="Trazado 996371" d="M287.214,341a10.836,10.836,0,0,1-5.23,9.053.218.218,0,0,0-.077.3l3.9,6.756a.219.219,0,0,0,.3.079,19.052,19.052,0,0,0,9.336-16.176.221.221,0,0,0-.22-.222H287.43A.218.218,0,0,0,287.214,341Z" transform="translate(-257.325 -321.728)" fill="#617881"/>
        <path id="Trazado_996372" data-name="Trazado 996372" d="M174.223,340.789h-7.794a.221.221,0,0,0-.22.222,19.053,19.053,0,0,0,9.336,16.176.221.221,0,0,0,.3-.08l3.9-6.755a.217.217,0,0,0-.077-.295A10.837,10.837,0,0,1,174.44,341,.218.218,0,0,0,174.223,340.789Z" transform="translate(-166.209 -321.728)" fill="#617881"/>
      </g>
      <path id="Trazado_996373" data-name="Trazado 996373" d="M224.116,127.919H208.071a2.731,2.731,0,1,1,0-5.462h16.045a2.731,2.731,0,0,1,0,5.462Z" transform="translate(-100.848 -96.465)" fill="#f1f4f6"/>
      <path id="Trazado_996374" data-name="Trazado 996374" d="M230.965,102.187H219.972a2.731,2.731,0,1,1,0-5.462h10.993a2.731,2.731,0,0,1,0,5.462Z" transform="translate(-110.223 -76.195)" fill="#dfeaef"/>
      <path id="Trazado_996375" data-name="Trazado 996375" d="M237.112,314.932a6.968,6.968,0,1,0-6.968,6.968A6.975,6.975,0,0,0,237.112,314.932Zm-10.751,0a3.784,3.784,0,1,1,3.784,3.784A3.788,3.788,0,0,1,226.361,314.932Z" transform="translate(-114.899 -242.595)"/>
      <path id="Trazado_996376" data-name="Trazado 996376" d="M210.571,256.052a9.226,9.226,0,0,1,8.913,0,1.819,1.819,0,0,0,2.444-.677l3.9-6.754a1.823,1.823,0,0,0-.679-2.485,20.679,20.679,0,0,0-20.243,0,1.823,1.823,0,0,0-.679,2.485l3.9,6.754A1.818,1.818,0,0,0,210.571,256.052Zm11.778-7.774-2.54,4.4a12.414,12.414,0,0,0-9.562,0l-2.541-4.4A17.51,17.51,0,0,1,222.349,248.278Z" transform="translate(-99.782 -191.807)"/>
      <path id="Trazado_996377" data-name="Trazado 996377" d="M278.532,352a1.828,1.828,0,0,0,2.494.651,20.52,20.52,0,0,0,10.115-17.525,1.825,1.825,0,0,0-1.812-1.833h-7.794a1.82,1.82,0,0,0-1.809,1.775h0a9.2,9.2,0,0,1-4.464,7.723,1.82,1.82,0,0,0-.631,2.453Zm4.278-15.524h5.077a17.322,17.322,0,0,1-7.32,12.681l-2.541-4.4A12.348,12.348,0,0,0,282.81,336.472Z" transform="translate(-155.243 -262.543)"/>
      <path id="Trazado_996378" data-name="Trazado 996378" d="M166.981,347.206a1.592,1.592,0,1,0-2.256,2.247,20.744,20.744,0,0,0,4.1,3.191,1.83,1.83,0,0,0,2.5-.652l3.9-6.755a1.819,1.819,0,0,0-.63-2.452,9.2,9.2,0,0,1-4.464-7.722,1.82,1.82,0,0,0-1.809-1.777h-7.794a1.825,1.825,0,0,0-1.812,1.832,20.534,20.534,0,0,0,1.581,7.7,1.592,1.592,0,0,0,2.939-1.225,17.3,17.3,0,0,1-1.266-5.124h5.076a12.346,12.346,0,0,0,4.784,8.279l-2.54,4.4A17.523,17.523,0,0,1,166.981,347.206Z" transform="translate(-64.112 -262.542)"/>
      <path id="Trazado_996379" data-name="Trazado 996379" d="M80.246,108.68h70a2.924,2.924,0,0,0,2.532-4.386l-4.583-7.939a8.164,8.164,0,0,1-1.092-4.076v-36.3a25.957,25.957,0,0,0-5.162-15.608,1.592,1.592,0,0,0-2.555,1.9,22.794,22.794,0,0,1,4.533,13.707v36.3a11.351,11.351,0,0,0,1.519,5.668l4.358,7.549H80.7l4.358-7.549a11.351,11.351,0,0,0,1.519-5.668v-36.3a23.023,23.023,0,0,1,18.949-22.63,23.315,23.315,0,0,0-4.3,7.8,1.592,1.592,0,1,0,3.006,1.05c1.865-5.338,4.644-8.685,7.542-9.153h6.946c2.9.468,5.677,3.815,7.542,9.153a1.592,1.592,0,1,0,3.006-1.05,23.307,23.307,0,0,0-4.3-7.809,22.781,22.781,0,0,1,9.4,3.981,1.592,1.592,0,0,0,1.863-2.582,25.977,25.977,0,0,0-9.044-4.185,4.322,4.322,0,0,0-2.361-5.865,4.324,4.324,0,0,0-2.493-5.449L126.67,3.047A2.119,2.119,0,0,0,123.718.582l-3.381,1.6L116.152.2a2.112,2.112,0,0,0-1.809,0l-4.186,1.976-3.382-1.6a2.1,2.1,0,0,0-2.263.29,2.126,2.126,0,0,0-.689,2.175l1.567,5.847a1.592,1.592,0,0,0,3.076-.824l-.972-3.628,1.717.81a2.213,2.213,0,0,0,1.894,0L115.247,3.3l4.143,1.956a2.211,2.211,0,0,0,1.894,0L123,4.442l-3.884,14.5h-2.277V12.324a1.592,1.592,0,0,0-3.184,0v6.615h-2.277l-.943-3.52a1.592,1.592,0,0,0-3.076.824l.8,3a4.324,4.324,0,0,0-2.493,5.449,4.322,4.322,0,0,0-2.359,5.87A26.216,26.216,0,0,0,83.39,55.975v36.3A8.162,8.162,0,0,1,82.3,96.355l-4.583,7.939a2.924,2.924,0,0,0,2.533,4.386ZM108.61,23.261a1.14,1.14,0,0,1,1.139-1.139h10.993a1.139,1.139,0,0,1,0,2.278H109.749A1.14,1.14,0,0,1,108.61,23.261Zm-1.387,6.6a1.139,1.139,0,1,1,0-2.278h16.045a1.139,1.139,0,1,1,0,2.278Z"/>
    </g>
  </g>
</svg>
