<svg xmlns="http://www.w3.org/2000/svg" width="84" height="84" viewBox="0 0 84 84">
  <g id="Grupo_1179001" data-name="Grupo 1179001" transform="translate(4404.629 11325.08)">
    <g id="Grupo_1177229" data-name="Grupo 1177229" transform="translate(-5110.629 -13004)" style="isolation: isolate">
      <g id="Grupo_1119665" data-name="Grupo 1119665" transform="translate(534.111 -3840.08)">
        <rect id="Rectángulo_402006" data-name="Rectángulo 402006" width="84" height="84" rx="5" transform="translate(171.889 5519)" fill="#2c2e8c"/>
      </g>
    </g>
    <g id="Grupo_1178747" data-name="Grupo 1178747" transform="translate(-4400.402 -11312.976)">
      <g id="Grupo_1178746" data-name="Grupo 1178746" transform="translate(5.038 0)">
        <path id="Trazado_996192" data-name="Trazado 996192" d="M60.563,47.135a1.129,1.129,0,0,0-1.129,1.129v6.769a.5.5,0,0,1-.5.5H21.679a.5.5,0,0,1-.5-.5v-13.7l.766-.766a1.129,1.129,0,0,0,0-1.6l-.276-.276,2.571-2.571A11.681,11.681,0,0,0,37.39,33.862a11.487,11.487,0,0,0,3.387-8.176,11.563,11.563,0,0,0-19.6-8.316V7.647a.5.5,0,0,1,.5-.5H25.9V8.5a3.4,3.4,0,0,0,3.364,3.365H51.353A3.4,3.4,0,0,0,54.718,8.5V7.146h4.215a.5.5,0,0,1,.5.5V38.341a1.129,1.129,0,0,0,2.257,0V7.647a2.762,2.762,0,0,0-2.759-2.759l-10.024,0V4.11A4.115,4.115,0,0,0,44.8,0H35.815A4.115,4.115,0,0,0,31.7,4.11v.776l-10.025,0a2.762,2.762,0,0,0-2.759,2.759V20.413a11.618,11.618,0,0,0-.1,10.341L16.27,33.3l-.252-.252a1.129,1.129,0,0,0-1.6,0L6.574,40.9A5.319,5.319,0,1,0,14.1,48.419l4.825-4.825V55.032a2.762,2.762,0,0,0,2.759,2.759H58.933a2.762,2.762,0,0,0,2.759-2.759V48.264A1.128,1.128,0,0,0,60.563,47.135ZM32.833,7.144a1.129,1.129,0,0,0,1.129-1.129V4.11a1.855,1.855,0,0,1,1.853-1.853H44.8A1.855,1.855,0,0,1,46.651,4.11V6.015A1.129,1.129,0,0,0,47.78,7.144h4.679V8.5a1.116,1.116,0,0,1-1.1,1.1H29.26a1.117,1.117,0,0,1-1.106-1.1V7.144ZM22.365,31.986a9.3,9.3,0,1,1,14.078-.442A9.4,9.4,0,0,1,22.365,31.986Zm-2.327.74a13.545,13.545,0,0,0,2.214,2.195L20.071,37.1l-2.2-2.2ZM12.5,46.823a3.061,3.061,0,1,1-4.329-4.329l7.049-7.05,4.329,4.328Z" transform="translate(-5.038 0)" fill="#bfc0dc"/>
        <path id="Trazado_996193" data-name="Trazado 996193" d="M294.623,42.537h-.006c-.6,0-3.514,0-4.112,0H290.5a1.129,1.129,0,0,0-.005,2.257h4.134a1.129,1.129,0,0,0-.005-2.257Z" transform="translate(-257.278 -37.736)" fill="#bfc0dc"/>
        <path id="Trazado_996194" data-name="Trazado 996194" d="M196.995,352.753a6.035,6.035,0,1,0,5.578,8.341,1.129,1.129,0,1,0-2.086-.863,3.778,3.778,0,1,1-3.492-5.22,1.129,1.129,0,0,0,0-2.258Z" transform="translate(-169.974 -312.937)" fill="#bfc0dc"/>
        <path id="Trazado_996195" data-name="Trazado 996195" d="M348.217,190.943h-9.273a1.129,1.129,0,0,0,0,2.257h9.273a1.129,1.129,0,0,0,0-2.257Z" transform="translate(-300.253 -169.391)" fill="#bfc0dc"/>
        <path id="Trazado_996196" data-name="Trazado 996196" d="M344.706,240.647a1.129,1.129,0,0,0,0-2.257h-5.762a1.129,1.129,0,0,0,0,2.257Z" transform="translate(-300.253 -211.482)" fill="#bfc0dc"/>
        <path id="Trazado_996197" data-name="Trazado 996197" d="M343.261,372.643a1.129,1.129,0,0,0-1.129-1.129H332.085a1.129,1.129,0,1,0,0,2.257h10.048A1.129,1.129,0,0,0,343.261,372.643Z" transform="translate(-294.169 -329.58)" fill="#bfc0dc"/>
        <path id="Trazado_996198" data-name="Trazado 996198" d="M332.084,418.96a1.129,1.129,0,0,0,0,2.257h6.536a1.129,1.129,0,1,0,0-2.257Z" transform="translate(-294.168 -371.671)" fill="#bfc0dc"/>
        <path id="Trazado_996199" data-name="Trazado 996199" d="M226.494,369.222a1.129,1.129,0,1,0-1.6,1.6l1.54,1.54a1.145,1.145,0,0,0,1.6,0l4.107-4.107a1.129,1.129,0,0,0-1.6-1.6l-3.309,3.309Z" transform="translate(-199.788 -324.977)" fill="#bfc0dc"/>
        <path id="Trazado_996200" data-name="Trazado 996200" d="M489.169,374.513a1.128,1.128,0,1,0-.611,1.474A1.139,1.139,0,0,0,489.169,374.513Z" transform="translate(-432.6 -331.624)" fill="#bfc0dc"/>
        <path id="Trazado_996201" data-name="Trazado 996201" d="M173.95,202.594a1.145,1.145,0,0,0,1.6,0l5.911-5.911a1.129,1.129,0,1,0-1.6-1.6l-5.113,5.113-2.094-2.094a1.129,1.129,0,0,0-1.6,1.6Z" transform="translate(-152.025 -172.774)" fill="#bfc0dc"/>
      </g>
    </g>
  </g>
</svg>
