<svg xmlns="http://www.w3.org/2000/svg" width="84" height="84" viewBox="0 0 84 84">
  <g id="Grupo_1179412" data-name="Grupo 1179412" transform="translate(-187 -1604.825)">
    <g id="Grupo_1177230" data-name="Grupo 1177230" transform="translate(-519 -74.095)">
      <g id="Grupo_1119665" data-name="Grupo 1119665" transform="translate(534.111 -3840.08)">
        <rect id="Rectángulo_402006" data-name="Rectángulo 402006" width="84" height="84" rx="5" transform="translate(171.889 5519)" fill="#cdbfdc"/>
      </g>
    </g>
    <g id="documento" transform="translate(196.711 1616)">
      <g id="Grupo_1179029" data-name="Grupo 1179029">
        <g id="Grupo_1179024" data-name="Grupo 1179024">
          <path id="Trazado_996955" data-name="Trazado 996955" d="M50.66,10a4,4,0,0,1-2.83-1.17L46,7H43a3.992,3.992,0,0,1-3.87-3H17V54H53V10Z" fill="#e6e9ed"/>
        </g>
        <g id="Grupo_1179025" data-name="Grupo 1179025">
          <path id="Trazado_996956" data-name="Trazado 996956" d="M21,8H37V20H21Z" fill="#b4dd7f"/>
        </g>
        <g id="Grupo_1179026" data-name="Grupo 1179026">
          <path id="Trazado_996957" data-name="Trazado 996957" d="M33,36H49V50H33Z" fill="#bfc0dc"/>
        </g>
        <g id="Grupo_1179027" data-name="Grupo 1179027">
          <path id="Trazado_996958" data-name="Trazado 996958" d="M30,58a2.015,2.015,0,0,1,2,2,2.006,2.006,0,0,1-2,2H10.89a8.081,8.081,0,0,1-3.58-.84L3,59H2V44H3l3.48-2.32A9.951,9.951,0,0,1,12.03,40H24a1,1,0,0,1,1,1,4,4,0,0,1-4,4H17v9H32a2.006,2.006,0,0,1,2,2,2.015,2.015,0,0,1-2,2Z" fill="#f0d0b4"/>
        </g>
        <g id="Grupo_1179028" data-name="Grupo 1179028">
          <path id="Trazado_996959" data-name="Trazado 996959" d="M62,6V20H61l-4.31,2.16a8.081,8.081,0,0,1-3.58.84H53V10H50.66a4,4,0,0,1-2.83-1.17L46,7H43a3.992,3.992,0,0,1-3.87-3A3.657,3.657,0,0,1,39,3a1,1,0,0,1,1-1H51.97a9.951,9.951,0,0,1,5.55,1.68L61,6Z" fill="#f0d0b4"/>
        </g>
      </g>
      <g id="Grupo_1179030" data-name="Grupo 1179030">
        <path id="Trazado_996960" data-name="Trazado 996960" d="M61.3,5,58.074,2.848A10.96,10.96,0,0,0,51.973,1H40a2,2,0,0,0-2,2H16V39H12.027a10.964,10.964,0,0,0-6.1,1.848L2.7,43H1V60H2.764l4.1,2.05a9.05,9.05,0,0,0,4.025.95H30a2.99,2.99,0,0,0,2.78-4.116A2.95,2.95,0,0,0,34.816,55H54V23.956a9.058,9.058,0,0,0,3.137-.906l4.1-2.05H63V5ZM33,56a1,1,0,0,1-1,1H20v2H30a1,1,0,0,1,0,2H10.889a7.031,7.031,0,0,1-3.131-.739L3.236,58H3V45h.3l3.732-2.488A8.973,8.973,0,0,1,12.027,41H24a3,3,0,0,1-3,3H16.586l-1.535,1.535A4.97,4.97,0,0,1,11.515,47H11v2h.515A6.946,6.946,0,0,0,16,47.371V55H32A1,1,0,0,1,33,56Zm19-3H18V46h3a5.006,5.006,0,0,0,5-5,2,2,0,0,0-2-2H18V5H38.424A5,5,0,0,0,43,8h2.586l1.535,1.536A4.968,4.968,0,0,0,50.657,11H52Zm9-34h-.236l-4.521,2.261A7.022,7.022,0,0,1,54,21.943V9H50.658a2.982,2.982,0,0,1-2.122-.878L46.414,6H43a3,3,0,0,1-3-3H51.973a8.971,8.971,0,0,1,4.992,1.512L60.7,7H61Z"/>
        <path id="Trazado_996961" data-name="Trazado 996961" d="M32,51H50V35H32Zm2-14H48V49H34Z"/>
        <path id="Trazado_996962" data-name="Trazado 996962" d="M39,44.586l-1.293-1.293-1.414,1.414L39,47.414l7.707-7.707-1.414-1.414Z"/>
        <path id="Trazado_996963" data-name="Trazado 996963" d="M20,49H30v2H20Z"/>
        <path id="Trazado_996964" data-name="Trazado 996964" d="M28,45h2v2H28Z"/>
        <path id="Trazado_996965" data-name="Trazado 996965" d="M28,41h2v2H28Z"/>
        <path id="Trazado_996966" data-name="Trazado 996966" d="M38,7H20V21H38ZM36,19H22V9H36Z"/>
        <path id="Trazado_996967" data-name="Trazado 996967" d="M40,19H50v2H40Z"/>
        <path id="Trazado_996968" data-name="Trazado 996968" d="M40,15H50v2H40Z"/>
        <path id="Trazado_996969" data-name="Trazado 996969" d="M40,11h2v2H40Z"/>
        <path id="Trazado_996970" data-name="Trazado 996970" d="M44,11h6v2H44Z"/>
        <path id="Trazado_996971" data-name="Trazado 996971" d="M20,23h2v2H20Z"/>
        <path id="Trazado_996972" data-name="Trazado 996972" d="M24,23H50v2H24Z"/>
        <path id="Trazado_996973" data-name="Trazado 996973" d="M20,27H50v2H20Z"/>
        <path id="Trazado_996974" data-name="Trazado 996974" d="M20,31h2v2H20Z"/>
        <path id="Trazado_996975" data-name="Trazado 996975" d="M28,31h2v2H28Z"/>
        <path id="Trazado_996976" data-name="Trazado 996976" d="M24,31h2v2H24Z"/>
        <path id="Trazado_996977" data-name="Trazado 996977" d="M32,31H50v2H32Z"/>
        <path id="Trazado_996978" data-name="Trazado 996978" d="M20,35H30v2H20Z"/>
      </g>
    </g>
  </g>
</svg>
