<svg xmlns="http://www.w3.org/2000/svg" xmlns:xlink="http://www.w3.org/1999/xlink" width="292" height="347.272" viewBox="0 0 292 347.272">
  <defs>
    <clipPath id="clip-path">
      <rect id="Rectángulo_455350" data-name="Rectángulo 455350" width="285.311" height="285.311" transform="translate(0 0)" fill="none"/>
    </clipPath>
  </defs>
  <g id="Grupo_1177240" data-name="Grupo 1177240" transform="translate(-35.841)">
    <rect id="Rectángulo_454756" data-name="Rectángulo 454756" width="292" height="347.273" transform="translate(35.841)" fill="#bfc0dc"/>
    <g id="Grupo_1179032" data-name="Grupo 1179032">
      <ellipse id="Elipse_13683" data-name="Elipse 13683" cx="94" cy="16" rx="94" ry="16" transform="translate(95.552 273.145)" fill="#b3b4db"/>
      <g id="Grupo_1178745" data-name="Grupo 1178745" transform="translate(70.13 65.27)">
        <path id="Trazado_996126" data-name="Trazado 996126" d="M1213.015,1392.769h12.034v-4.994H1209.8Z" transform="translate(-1077.631 -1235.36)" fill="#ffed00"/>
        <g id="Grupo_1178744" data-name="Grupo 1178744" transform="translate(-34.289 -34.289)">
          <g id="Grupo_1178743" data-name="Grupo 1178743" transform="translate(0 0)" clip-path="url(#clip-path)">
            <path id="Trazado_996127" data-name="Trazado 996127" d="M924.3,1394.022h3.736l4.017-6.247H920.537a36.374,36.374,0,0,1,3.762,6.247" transform="translate(-789.258 -1190.024)" fill="#ffed00"/>
            <path id="Trazado_996128" data-name="Trazado 996128" d="M326.734,210.371a9.459,9.459,0,0,0-15.743,0L207.408,365.8a9.459,9.459,0,0,0,7.872,14.705h30.161a36.353,36.353,0,0,1,3.761-6.247H225.948a8.485,8.485,0,0,1-7.061-13.191L311.8,221.648a8.485,8.485,0,0,1,14.122,0L418.837,361.07a8.485,8.485,0,0,1-7.061,13.191h-20.8v6.247h31.466a9.459,9.459,0,0,0,7.872-14.705Z" transform="translate(-176.207 -176.51)" fill="#ffed00"/>
            <path id="Trazado_996129" data-name="Trazado 996129" d="M1187.138,1285.975l3.224,5.015h19.069v-16.053c-2.967,4.064-10.381,12.05-22.294,11.038" transform="translate(-1017.93 -1093.239)" fill="#f2da03"/>
            <path id="Trazado_996130" data-name="Trazado 996130" d="M396.131,292.256a8.485,8.485,0,0,0-14.122,0L289.1,431.678a8.485,8.485,0,0,0,7.061,13.191H319.41a36.408,36.408,0,0,1,20-13.448V423c-.17-.318-.338-.641-.505-.971,0,0,.175.181.505.494v-11.74a3.636,3.636,0,0,0-3.636-3.636,3.636,3.636,0,0,1-3.636-3.636v-.239a26.331,26.331,0,0,0,.4,12.513s-18.715-28.7,23.512-43.027c0,0-11.059-44.272,28.585-43.027,0,0-22.99,6.328-21.513,25.1s17.928,24.045,23.834,24.256c0,0-9.28,5.906-9.7,14.764,0,0-11.178-16.452-27-9.913-6.445,2.664-11.139,6.343-14.211,10.625h21.629a18.985,18.985,0,0,1,.043-1.947,2.946,2.946,0,0,1,4.155-2.441l.157.071a3,3,0,0,1,1.735,2.823,14.681,14.681,0,0,0,.195,2.628,3.623,3.623,0,0,1,1,2.5v1.213a22.52,22.52,0,0,0,2.022,4.143s3.078,5.193,8.026,7.475a3,3,0,0,1,1.78,2.794l0,.172a2.946,2.946,0,0,1-4.011,2.671c-3.01-1.2-7.262-3.819-10.926-9.556a3.652,3.652,0,0,1-.522.038h0a3.636,3.636,0,0,0-3.636,3.636V431.42q1.29.334,2.54.76a19.475,19.475,0,0,0,11.015-3.287c15.77-10.289,12.517-27.256,9.873-32.541,0,0,9.63,5.317,17.608,1.443a27.39,27.39,0,0,0-1.424,3.555h16.206a19.138,19.138,0,0,0,2.012-8.279,3,3,0,0,1,1.735-2.823l.157-.071a2.945,2.945,0,0,1,4.155,2.441,21.812,21.812,0,0,1-1.846,10.2,3.618,3.618,0,0,1,.717,2.168V410.3a3.636,3.636,0,0,1-3.636,3.636,3.636,3.636,0,0,0-3.636,3.636l-.112,14.565a24.352,24.352,0,0,0,24.856-4.274,2.385,2.385,0,0,0-2.382-2.285,2.388,2.388,0,0,1-2.388-2.387v-7.81a2.388,2.388,0,0,1,2.388-2.388H446.2c1.935-11.691-3.668-22.995-18.32-29.051-15.819-6.538-27,9.913-27,9.913-.422-8.859-9.7-14.764-9.7-14.764,5.906-.211,22.357-5.484,23.834-24.256s-21.513-25.1-21.513-25.1c39.644-1.245,28.585,43.027,28.585,43.027,34.229,11.611,28.415,32.669,24.985,40.23h16.5a2.388,2.388,0,0,1,2.388,2.388v7.81a2.388,2.388,0,0,1-2.388,2.387h0a2.387,2.387,0,0,0-2.387,2.388v16.9h20.8a8.485,8.485,0,0,0,7.061-13.191Zm7.21,69.127a2.946,2.946,0,0,1-.135,4.817l-.143.1a3,3,0,0,1-3.313-.027c-4.559-2.984-10.594-2.838-10.594-2.838s-6.035-.146-10.594,2.838a3,3,0,0,1-3.313.027l-.143-.1a2.946,2.946,0,0,1-.136-4.817c2.647-1.944,7.216-4.194,14.186-4.194s11.539,2.25,14.186,4.194" transform="translate(-246.415 -247.117)" fill="#f2da03"/>
            <path id="Trazado_996131" data-name="Trazado 996131" d="M890.8,1258.745s-8.757,8.065-19.71,11.24a36.588,36.588,0,0,1,7.034,7.116h11.515l5.821-9.053-.041-5.355q-2.252-1.776-4.619-3.949" transform="translate(-746.847 -1079.35)" fill="#f2da03"/>
            <path id="Trazado_996132" data-name="Trazado 996132" d="M1046.241,621.368s11.059-44.272-28.585-43.027c0,0,22.99,6.328,21.514,25.1s-17.928,24.044-23.834,24.256c0,0,9.281,5.905,9.7,14.764,0,0,11.179-16.452,27-9.913,14.652,6.056,20.255,17.36,18.321,29.051h.87c3.43-7.561,9.244-28.619-24.985-40.23" transform="translate(-870.57 -495.722)"/>
            <path id="Trazado_996133" data-name="Trazado 996133" d="M622.964,642.46c.422-8.859,9.7-14.764,9.7-14.764-5.906-.211-22.357-5.484-23.834-24.255s21.514-25.1,21.514-25.1c-39.644-1.245-28.585,43.027-28.585,43.027C559.535,635.693,578.25,664.4,578.25,664.4a26.332,26.332,0,0,1-.4-12.513v-5.075a3.636,3.636,0,0,1,3.636-3.636h.271c3.072-4.281,7.766-7.96,14.211-10.625,15.819-6.538,27,9.913,27,9.913" transform="translate(-492.122 -495.722)"/>
            <path id="Trazado_996134" data-name="Trazado 996134" d="M647.9,1227.266c.167.33.336.653.505.971v-.477c-.33-.313-.505-.494-.505-.494" transform="translate(-555.41 -1052.35)"/>
            <path id="Trazado_996135" data-name="Trazado 996135" d="M1168.916,1272.518l-.028,3.678,2.6,4.037c11.912,1.012,19.327-6.974,22.294-11.038v-.849c0-.035,0-.069-.005-.1a24.352,24.352,0,0,1-24.856,4.275" transform="translate(-1002.277 -1087.497)"/>
            <path id="Trazado_996136" data-name="Trazado 996136" d="M818.672,1046.755c2.644,5.285,5.9,22.252-9.873,32.541a19.473,19.473,0,0,1-11.015,3.286,36.274,36.274,0,0,1,10.429,5.573c10.953-3.175,19.71-11.241,19.71-11.241q2.367,2.18,4.619,3.949l-.1-12.888a3.636,3.636,0,0,0-3.636-3.636,3.636,3.636,0,0,1-3.636-3.636v-5.314a3.636,3.636,0,0,1,3.636-3.636h6.049a27.319,27.319,0,0,1,1.424-3.555c-7.978,3.873-17.608-1.444-17.608-1.444" transform="translate(-683.967 -897.519)"/>
            <path id="Trazado_996137" data-name="Trazado 996137" d="M894.236,775.654a2.945,2.945,0,0,0,.135,4.817l.144.1a3,3,0,0,0,3.313-.027c4.56-2.984,10.594-2.838,10.594-2.838s6.035-.147,10.594,2.838a3,3,0,0,0,3.313.027l.143-.1a2.945,2.945,0,0,0,.136-4.817c-2.647-1.945-7.216-4.194-14.187-4.194s-11.539,2.25-14.186,4.194" transform="translate(-765.682 -661.389)"/>
            <path id="Trazado_996138" data-name="Trazado 996138" d="M1178.491,1014.406a21.815,21.815,0,0,0,1.846-10.2,2.946,2.946,0,0,0-4.155-2.441l-.157.071a3,3,0,0,0-1.735,2.823,19.142,19.142,0,0,1-2.012,8.28h3.294a3.63,3.63,0,0,1,2.919,1.468" transform="translate(-1005.185 -858.703)"/>
            <path id="Trazado_996139" data-name="Trazado 996139" d="M814.291,1072.422a22.522,22.522,0,0,1-2.022-4.142v4.1a3.636,3.636,0,0,1-3.114,3.6c3.664,5.737,7.916,8.361,10.926,9.556a2.946,2.946,0,0,0,4.011-2.671l0-.172a3,3,0,0,0-1.78-2.794c-4.949-2.282-8.026-7.475-8.026-7.475" transform="translate(-693.722 -915.982)"/>
            <path id="Trazado_996140" data-name="Trazado 996140" d="M786.078,1007.286a14.684,14.684,0,0,1-.195-2.628,3,3,0,0,0-1.735-2.823l-.157-.071a2.946,2.946,0,0,0-4.155,2.441,19.046,19.046,0,0,0-.043,1.946h3.648a3.625,3.625,0,0,1,2.637,1.134" transform="translate(-668.53 -858.703)"/>
            <path id="Trazado_996141" data-name="Trazado 996141" d="M541.987,1532.746l-4.891-1.808a16.657,16.657,0,0,0-14.808,1.63,16.66,16.66,0,0,1-13.813,1.962l-10.108-3.028a30.922,30.922,0,0,0,28.292,30.808,31.728,31.728,0,0,0,12.674-3.768,8.046,8.046,0,0,1,1.2-3.115l14.374-22.355c.019-.162.037-.315.051-.452l-3.723.792a16.666,16.666,0,0,1-9.244-.667m-19.812,26.364c-12.032-2.984-17.527-12.37-19.741-17.732a1.932,1.932,0,0,1,2.585-2.491c12.182,5.551,32.538,24.037,17.156,20.223" transform="translate(-427.148 -1311.934)" fill="#fd8a8a"/>
            <path id="Trazado_996142" data-name="Trazado 996142" d="M744.623,1446.119c3.464.272,3.719-2.155,3.508-3.787a2.636,2.636,0,1,0-3.508,3.787m2.424-4.373c-3.462-.122-3.055,3.3-3.055,3.3-.9-4.155,3.055-3.3,3.055-3.3" transform="translate(-637.276 -1235.869)" fill="#fd8a8a"/>
            <path id="Trazado_996143" data-name="Trazado 996143" d="M617.845,1403.265c2.8.031,3.306-1.719,3.274-3.086a2.329,2.329,0,1,0-3.274,3.086m2.674-3.489c-3.476-1-3.069,2.77-3.069,2.77-.951-4.752,3.069-2.77,3.069-2.77" transform="translate(-528.679 -1199.612)" fill="#fd8a8a"/>
            <path id="Trazado_996144" data-name="Trazado 996144" d="M695.323,1335.639c1.548-.347,1.94-1.272,1.966-2.067a1.513,1.513,0,1,0-1.966,2.067m1.418-2.42c-2.251-.387-1.859,1.694-1.833,1.825-.675-2.879,1.833-1.825,1.833-1.825" transform="translate(-595.316 -1142.822)" fill="#fd8a8a"/>
            <path id="Trazado_996145" data-name="Trazado 996145" d="M563.023,1505.983a2.008,2.008,0,0,0,1.781-1.551,1.273,1.273,0,1,0-1.781,1.551m1.379-1.944c-1.9-.212-1.682,1.238-1.682,1.238-.425-2.009,1.682-1.238,1.682-1.238" transform="translate(-482.009 -1289.349)" fill="#fd8a8a"/>
            <path id="Trazado_996146" data-name="Trazado 996146" d="M825.682,1515.493c2.239-.051,1.554-1.979,1.554-1.979h0a1.274,1.274,0,1,0-1.555,1.979m.833-2.23a1.644,1.644,0,0,0-1.346,1.32c.088-1.525,1.346-1.32,1.346-1.32" transform="translate(-707.336 -1297.523)" fill="#fd8a8a"/>
            <path id="Trazado_996147" data-name="Trazado 996147" d="M799.745,1370.452a3.49,3.49,0,0,0,1.493-.657,2.48,2.48,0,0,0,.9-1.891,1.883,1.883,0,1,0-2.4,2.548m1.466-3.162c-2.73-.347-2.134,2.432-2.134,2.432-.819-3.449,2.134-2.432,2.134-2.432" transform="translate(-684.624 -1172.044)" fill="#fd8a8a"/>
            <path id="Trazado_996148" data-name="Trazado 996148" d="M895.771,1549.089l.329-.512-.278.059c-.014.137-.032.29-.051.452" transform="translate(-768.015 -1327.949)" fill="#ef7f7f"/>
            <path id="Trazado_996149" data-name="Trazado 996149" d="M697.237,1734.968q1.3.109,2.625.11a30.881,30.881,0,0,0,10.019-1.66,7.885,7.885,0,0,1,.031-2.217,31.729,31.729,0,0,1-12.674,3.768" transform="translate(-597.726 -1484.591)" fill="#ef7f7f"/>
            <path id="Trazado_996150" data-name="Trazado 996150" d="M831.181,1515.984s.686,1.928-1.553,1.979a1.275,1.275,0,0,0,1.555-1.979Z" transform="translate(-711.281 -1299.993)" fill="#ef7f7f"/>
            <path id="Trazado_996151" data-name="Trazado 996151" d="M756.316,1450.542a2.615,2.615,0,0,0-.489-1.528c.211,1.632-.044,4.059-3.508,3.787a2.637,2.637,0,0,0,4-2.259" transform="translate(-644.971 -1242.551)" fill="#ef7f7f"/>
            <path id="Trazado_996152" data-name="Trazado 996152" d="M808.451,1376.375a3.487,3.487,0,0,1-1.493.657,1.884,1.884,0,0,0,2.4-2.548,2.48,2.48,0,0,1-.9,1.891" transform="translate(-691.837 -1178.623)" fill="#ef7f7f"/>
            <path id="Trazado_996153" data-name="Trazado 996153" d="M702.848,1339.247a1.5,1.5,0,0,0-.164-.684c-.026.8-.418,1.72-1.966,2.067a1.514,1.514,0,0,0,2.13-1.383" transform="translate(-600.712 -1147.813)" fill="#ef7f7f"/>
            <path id="Trazado_996154" data-name="Trazado 996154" d="M624.518,1410.65a2.33,2.33,0,0,0,3.273-3.086c.033,1.367-.471,3.117-3.273,3.086" transform="translate(-535.352 -1206.997)" fill="#ef7f7f"/>
            <path id="Trazado_996155" data-name="Trazado 996155" d="M567.217,1511.155a1.274,1.274,0,0,0,1.851-1.135,1.256,1.256,0,0,0-.07-.416,2.007,2.007,0,0,1-1.781,1.551" transform="translate(-486.203 -1294.521)" fill="#ef7f7f"/>
            <path id="Trazado_996156" data-name="Trazado 996156" d="M528.63,1591.959a1.932,1.932,0,0,0-2.585,2.492c2.214,5.361,7.709,14.747,19.741,17.731,15.381,3.815-4.974-14.672-17.156-20.223" transform="translate(-450.759 -1365.006)" fill="#ffaeae"/>
            <path id="Trazado_996157" data-name="Trazado 996157" d="M826.024,1515.484a1.644,1.644,0,0,1,1.346-1.32s-1.257-.205-1.346,1.32" transform="translate(-708.191 -1298.423)" fill="#ffaeae"/>
            <path id="Trazado_996158" data-name="Trazado 996158" d="M747.085,1447.757s-.407-3.422,3.055-3.3c0,0-3.951-.855-3.055,3.3" transform="translate(-640.368 -1238.58)" fill="#ffaeae"/>
            <path id="Trazado_996159" data-name="Trazado 996159" d="M801.393,1371.754s-.6-2.779,2.134-2.432c0,0-2.953-1.017-2.134,2.432" transform="translate(-686.941 -1174.075)" fill="#ffaeae"/>
            <path id="Trazado_996160" data-name="Trazado 996160" d="M697.1,1336.771c-.027-.131-.419-2.211,1.833-1.825,0,0-2.508-1.055-1.833,1.825" transform="translate(-597.513 -1144.549)" fill="#ffaeae"/>
            <path id="Trazado_996161" data-name="Trazado 996161" d="M623.934,1402.259s-4.019-1.982-3.069,2.77c0,0-.407-3.775,3.069-2.77" transform="translate(-532.094 -1202.096)" fill="#ffaeae"/>
            <path id="Trazado_996162" data-name="Trazado 996162" d="M566.43,1505.962s-2.107-.771-1.682,1.238c0,0-.216-1.45,1.682-1.238" transform="translate(-484.037 -1291.272)" fill="#ffaeae"/>
            <path id="Trazado_996163" data-name="Trazado 996163" d="M878.169,1384.148l-.263-.444a5.632,5.632,0,0,0-4.639.922l-1.529,1.113a5.629,5.629,0,0,1-7.958.09l-.093-.09-3.034,4.656-8.143,12.5-5.914,9.076-12.589,19.318-.7,1.072a2.234,2.234,0,0,0,1.871,3.454H893.8c6.083-9.209-5.042-32.532-12.087-45.416-1.4-2.558-2.637-4.7-3.547-6.247m-27.318,47.44c-3.573-.325-4.809-2.278-4.622-5.058.232-3.46,2.666-8.2,5.536-12.685,2.386-3.726,5.073-7.274,7.048-9.758a1.823,1.823,0,0,1,3.246,1.036c.486,8.847.177,27.5-11.208,26.466" transform="translate(-714.125 -1186.397)" fill="#fce360"/>
            <path id="Trazado_996164" data-name="Trazado 996164" d="M1060.638,1363.623a2.336,2.336,0,0,0,2.253-1.711h0a1.506,1.506,0,1,0-2.253,1.713m1.16-2.435a1.59,1.59,0,0,0-1.528,1.542c-.186-1.995,1.528-1.542,1.528-1.542" transform="translate(-908.835 -1166.932)" fill="#fce360"/>
            <path id="Trazado_996165" data-name="Trazado 996165" d="M1098.41,1316.994c2.247.133,3.339-.54,3.813-1.47a4.528,4.528,0,0,0,.058-3.144,3.025,3.025,0,1,0-3.871,4.614m-.632-1.436a4.14,4.14,0,0,1-.059-2.066c.529-1.909,2.9-1.673,2.9-1.673a2.95,2.95,0,0,0-2.639,1.811,3.911,3.911,0,0,0-.205,1.928" transform="translate(-940.7 -1124.578)" fill="#fce360"/>
            <path id="Trazado_996166" data-name="Trazado 996166" d="M1176.718,1425.893l-21.593-34.548-2.91-4.656-.625-.6a5.688,5.688,0,0,0-2.592-1.43l.263.444c.911,1.543,2.148,3.689,3.547,6.247,7.045,12.884,18.169,36.207,12.087,45.416h13.028a11.584,11.584,0,0,1-1.206-5.158Z" transform="translate(-985.217 -1187.348)" fill="#edd056"/>
            <path id="Trazado_996167" data-name="Trazado 996167" d="M1110.131,1320.987c-.474.93-1.567,1.6-3.813,1.47a3.025,3.025,0,0,0,3.871-4.614,4.53,4.53,0,0,1-.058,3.144" transform="translate(-948.609 -1130.041)" fill="#edd056"/>
            <path id="Trazado_996168" data-name="Trazado 996168" d="M1064.8,1370.005a1.507,1.507,0,0,0,2.253-1.711,2.336,2.336,0,0,1-2.253,1.711" transform="translate(-912.995 -1173.314)" fill="#edd056"/>
            <path id="Trazado_996169" data-name="Trazado 996169" d="M938.81,1523.76c-1.975,2.484-4.662,6.032-7.048,9.759-2.871,4.483-5.3,9.225-5.536,12.685-.187,2.78,1.049,4.733,4.622,5.058,11.386,1.035,11.695-17.619,11.209-26.466a1.823,1.823,0,0,0-3.246-1.036" transform="translate(-794.121 -1306.07)" fill="#ffea92"/>
            <path id="Trazado_996170" data-name="Trazado 996170" d="M1100.833,1315.515a4.133,4.133,0,0,0,.059,2.066,3.911,3.911,0,0,1,.205-1.928,2.949,2.949,0,0,1,2.639-1.812s-2.375-.236-2.9,1.674" transform="translate(-943.815 -1126.6)" fill="#ffea92"/>
            <path id="Trazado_996171" data-name="Trazado 996171" d="M1062.13,1364.488a1.59,1.59,0,0,1,1.528-1.542s-1.714-.452-1.528,1.542" transform="translate(-910.694 -1168.689)" fill="#ffea92"/>
            <path id="Trazado_996172" data-name="Trazado 996172" d="M611.417,1052.622H583.371a2.388,2.388,0,0,0-2.387,2.388v7.81a2.387,2.387,0,0,0,2.387,2.387,2.386,2.386,0,0,1,2.382,2.285c0,.034.005.068.005.1v46.558l-15.052-23.409-4.017-6.247-3.225-5.015-2.6-4.037.029-3.678.112-14.565a3.636,3.636,0,0,1,3.636-3.636,3.636,3.636,0,0,0,3.636-3.636v-5.314a3.636,3.636,0,0,0-3.636-3.636H539.1a3.636,3.636,0,0,0-3.636,3.636v5.314a3.636,3.636,0,0,0,3.636,3.636,3.636,3.636,0,0,1,3.636,3.636l.1,12.888.041,5.355-5.821,9.052-4.017,6.247-2.284,3.552a36.187,36.187,0,0,0-5.215-9.8,36.472,36.472,0,0,0-17.464-12.688q-1.251-.424-2.54-.76v-20.633a3.636,3.636,0,0,1,3.636-3.636h0a3.637,3.637,0,0,0,3.636-3.636v-5.314a3.639,3.639,0,0,0-3.636-3.636H483.62a3.636,3.636,0,0,0-3.636,3.636v5.314a3.636,3.636,0,0,0,3.636,3.636,3.636,3.636,0,0,1,3.636,3.636v20.633a36.38,36.38,0,1,0,21.615,69.389,7.922,7.922,0,0,0,5.536,2.2h74.93a8.01,8.01,0,0,0,3.657-.864A11.636,11.636,0,0,0,609.03,1131v-63.406a2.388,2.388,0,0,1,2.387-2.388h0a2.387,2.387,0,0,0,2.388-2.387v-7.81a2.388,2.388,0,0,0-2.388-2.388m-8.764,17.089a.827.827,0,0,1,.721.424.823.823,0,1,1-.721-.424m0,4.092a1.433,1.433,0,0,1,0,2.865,1.431,1.431,0,0,1-1.433-1.433,1.433,1.433,0,0,1,1.433-1.433m-5.258-9.013a.925.925,0,1,1-.926.925.925.925,0,0,1,.926-.925m-3.032,5.622a1.646,1.646,0,1,1-1.349-.7,1.639,1.639,0,0,1,1.349.7m-12.7-13.459c0-3.385,7.03-3.822,10.824-3.812a.964.964,0,0,1,.6,1.715c-4.257,3.411-11.426,6.1-11.426,2.1m-27.985,16.688a3.027,3.027,0,1,1-2.775,1.822,3.011,3.011,0,0,1,2.775-1.822m-17.021-26.811c0-2.816,4.027-3.943,8.031-4.368a47.692,47.692,0,0,1,5.044-.237,1.165,1.165,0,0,1,.728,2.072,27.55,27.55,0,0,1-6.833,3.969c-3.708,1.455-6.97,1.532-6.97-1.436m11.72,35.342a1.5,1.5,0,1,1-.067-.448h0a1.491,1.491,0,0,1,.067.447m-35.159,20.155a1.275,1.275,0,1,1-1.273,1.275,1.27,1.27,0,0,1,1.273-1.275m-3.157-20.812a1.883,1.883,0,1,1-1.884,1.885,1.884,1.884,0,0,1,1.884-1.885m-7.1,10.586a2.637,2.637,0,1,1-2.638,2.636,2.63,2.63,0,0,1,2.638-2.636M496.23,1077.5a1.512,1.512,0,1,1-1.349-.828,1.5,1.5,0,0,1,1.349.828m-15.045-37.687c0-4.089,8.493-4.618,13.076-4.6a1.165,1.165,0,0,1,.728,2.072c-5.143,4.12-13.8,7.37-13.8,2.533m-12.475,50.935a31.206,31.206,0,0,1,4.82-6.247,41.425,41.425,0,0,1,14.326-9.251A52.17,52.17,0,0,0,476.1,1084.5a62.584,62.584,0,0,0-5.257,6.247,54.865,54.865,0,0,0-5.4,8.8,27.251,27.251,0,0,1,3.263-8.8m18.263-2.329a2.323,2.323,0,1,1-.276-1.1,2.328,2.328,0,0,1,.276,1.1m-9.85,13.83a1.273,1.273,0,1,1-.07-.415,1.253,1.253,0,0,1,.07.415m30.517,28a8.046,8.046,0,0,0-1.2,3.114,7.893,7.893,0,0,0-.031,2.217,30.876,30.876,0,0,1-10.018,1.66q-1.328,0-2.625-.11a30.921,30.921,0,0,1-28.292-30.808l10.108,3.028a16.662,16.662,0,0,0,13.813-1.962,16.657,16.657,0,0,1,14.808-1.63l4.891,1.808a16.665,16.665,0,0,0,9.245.667l3.723-.792.278-.059-.329.511Zm66.3,5.919H515.313a2.234,2.234,0,0,1-1.871-3.454l.7-1.071,12.589-19.318,5.914-9.076,8.143-12.5,3.034-4.656.093.09a5.629,5.629,0,0,0,7.958-.09l1.529-1.113a5.636,5.636,0,0,1,7.232.508l.625.6,2.91,4.656,21.593,34.547V1131a11.585,11.585,0,0,0,1.206,5.158Zm33.191-51.663v45.571a9.385,9.385,0,0,1-9.385,9.385h-.47a9.5,9.5,0,0,1-1.443-.11,9.314,9.314,0,0,1-2.814-.908,9.4,9.4,0,0,1-5.129-8.367v-53.4l2.17,1.226a3.455,3.455,0,0,0,4.322-.755,3.46,3.46,0,0,1,4.774-.451l.618.492a3.455,3.455,0,0,0,3.042.636l2.868-.762,1.447-.385Z" transform="translate(-394.258 -886.746)" fill="#efefef"/>
            <path id="Trazado_996173" data-name="Trazado 996173" d="M1376.6,1328.72l-2.868.762a3.455,3.455,0,0,1-3.042-.636l-.617-.492a3.46,3.46,0,0,0-4.775.451,3.455,3.455,0,0,1-4.322.756l-2.17-1.226v53.4a9.4,9.4,0,0,0,5.129,8.367,8.666,8.666,0,0,0,4.29-2.68c7.2-7.794,8.622-29.649,8.674-45.01.008-2.242-.014-4.345-.051-6.247-.061-3.119-.164-5.7-.248-7.443m-11.02,36.467a2.314,2.314,0,1,1-4.628,0v-27.154a2.314,2.314,0,0,1,4.628,0v27.154Z" transform="translate(-1165.173 -1138.412)" fill="#c9f4aa"/>
            <path id="Trazado_996174" data-name="Trazado 996174" d="M1457.159,1285.336a1.483,1.483,0,0,0,1.2-1.068.823.823,0,0,0-1.543.4.818.818,0,0,0,.346.67m.65-1.383a1.029,1.029,0,0,0-.845.977.752.752,0,0,1,.845-.977" transform="translate(-1249.24 -1100.878)" fill="#c9f4aa"/>
            <path id="Trazado_996175" data-name="Trazado 996175" d="M1384.559,1287.092a2.547,2.547,0,0,0,1.717-2.548,1.646,1.646,0,1,0-1.717,2.548m.84-3.011a1.837,1.837,0,0,0-1.632,2.314c-.951-2.631,1.632-2.314,1.632-2.314" transform="translate(-1186.171 -1100.878)" fill="#c9f4aa"/>
            <path id="Trazado_996176" data-name="Trazado 996176" d="M1419.624,1251a1.54,1.54,0,0,0,1.209-1.313.926.926,0,1,0-1.209,1.313m.859-1.56a1.043,1.043,0,0,0-1.151,1.158c-.37-1.569,1.151-1.158,1.151-1.158" transform="translate(-1216.912 -1071.209)" fill="#c9f4aa"/>
            <path id="Trazado_996177" data-name="Trazado 996177" d="M1453.508,1315.4a1.9,1.9,0,0,0,1.565-2.258,1.433,1.433,0,1,0-1.565,2.258m.62-2.607a2.18,2.18,0,0,0-1.322,1.731,1.33,1.33,0,0,1,1.322-1.731" transform="translate(-1245.559 -1125.547)" fill="#c9f4aa"/>
            <path id="Trazado_996178" data-name="Trazado 996178" d="M501.419,1338.244a27.244,27.244,0,0,0-3.263,8.8,54.853,54.853,0,0,1,5.4-8.8,62.58,62.58,0,0,1,5.257-6.247,52.173,52.173,0,0,1,11.754-9.251A41.422,41.422,0,0,0,506.239,1332a31.2,31.2,0,0,0-4.82,6.247" transform="translate(-426.967 -1134.246)" fill="#f9f9f9"/>
            <path id="Trazado_996179" data-name="Trazado 996179" d="M621.858,1041.286c-4.583-.013-13.076.516-13.076,4.605,0,4.837,8.661,1.587,13.8-2.533a1.165,1.165,0,0,0-.728-2.072" transform="translate(-521.855 -892.828)" fill="#f9f9f9"/>
            <path id="Trazado_996180" data-name="Trazado 996180" d="M1011.8,1090.645a47.724,47.724,0,0,0-5.044.237c-4,.425-8.032,1.552-8.032,4.368,0,2.968,3.262,2.891,6.97,1.436a27.551,27.551,0,0,0,6.833-3.969,1.165,1.165,0,0,0-.728-2.072" transform="translate(-856.325 -935.165)" fill="#f9f9f9"/>
            <path id="Trazado_996181" data-name="Trazado 996181" d="M1325.9,1167.375c-3.794-.011-10.823.427-10.823,3.812,0,4,7.169,1.314,11.426-2.1a.964.964,0,0,0-.6-1.715" transform="translate(-1127.668 -1000.979)" fill="#f9f9f9"/>
            <path id="Trazado_996182" data-name="Trazado 996182" d="M1407.765,1340.573c.037,1.9.059,4,.051,6.247-.052,15.362-1.477,37.217-8.674,45.01a8.666,8.666,0,0,1-4.289,2.68,9.318,9.318,0,0,0,2.814.908,9.474,9.474,0,0,0,1.442.11h.47a9.385,9.385,0,0,0,9.385-9.385v-53.4l-1.447.386c.084,1.748.187,4.324.248,7.443" transform="translate(-1196.094 -1142.822)" fill="#bbe59a"/>
            <path id="Trazado_996183" data-name="Trazado 996183" d="M1459.453,1318.632a1.454,1.454,0,0,0,.447.071,1.433,1.433,0,0,0,1.118-2.329,1.9,1.9,0,0,1-1.565,2.258" transform="translate(-1251.505 -1128.781)" fill="#bbe59a"/>
            <path id="Trazado_996184" data-name="Trazado 996184" d="M1460.543,1287.222a.817.817,0,0,0-.1-.4,1.483,1.483,0,0,1-1.2,1.068.811.811,0,0,0,.477.154.823.823,0,0,0,.824-.824" transform="translate(-1251.324 -1103.434)" fill="#bbe59a"/>
            <path id="Trazado_996185" data-name="Trazado 996185" d="M1394.267,1289.718a1.64,1.64,0,0,0-.3-.945,2.547,2.547,0,0,1-1.717,2.548,1.647,1.647,0,0,0,2.014-1.6" transform="translate(-1193.865 -1105.106)" fill="#bbe59a"/>
            <path id="Trazado_996186" data-name="Trazado 996186" d="M1423.993,1252.795a.921.921,0,0,0-.141-.491,1.54,1.54,0,0,1-1.209,1.313.926.926,0,0,0,1.35-.822" transform="translate(-1219.931 -1073.826)" fill="#bbe59a"/>
            <path id="Trazado_996187" data-name="Trazado 996187" d="M1377.558,1385.1a2.314,2.314,0,0,0-3.673,1.87v27.154a2.314,2.314,0,0,0,4.628,0v-27.154a2.308,2.308,0,0,0-.955-1.87" transform="translate(-1178.11 -1187.347)" fill="#e1ffca"/>
            <path id="Trazado_996188" data-name="Trazado 996188" d="M1454.265,1315.647a2.18,2.18,0,0,1,1.322-1.731,1.33,1.33,0,0,0-1.322,1.731" transform="translate(-1247.018 -1126.672)" fill="#e1ffca"/>
            <path id="Trazado_996189" data-name="Trazado 996189" d="M1457.759,1285.57a1.029,1.029,0,0,1,.844-.978.752.752,0,0,0-.844.978" transform="translate(-1250.034 -1101.517)" fill="#e1ffca"/>
            <path id="Trazado_996190" data-name="Trazado 996190" d="M1387.048,1285.447s-2.583-.317-1.632,2.314a1.837,1.837,0,0,1,1.632-2.314" transform="translate(-1187.82 -1102.243)" fill="#e1ffca"/>
            <path id="Trazado_996191" data-name="Trazado 996191" d="M1420.248,1251.435a1.043,1.043,0,0,1,1.151-1.158s-1.521-.411-1.151,1.158" transform="translate(-1217.827 -1072.045)" fill="#e1ffca"/>
          </g>
        </g>
      </g>
    </g>
  </g>
</svg>
