<svg xmlns="http://www.w3.org/2000/svg" width="84" height="84" viewBox="0 0 84 84">
  <g id="Grupo_1179413" data-name="Grupo 1179413" transform="translate(-186 -9164.342)">
    <g id="Grupo_1178996" data-name="Grupo 1178996" transform="translate(-519 8836.253)">
      <g id="Grupo_1177230" data-name="Grupo 1177230" transform="translate(-1 -1350.831)">
        <g id="Grupo_1119665" data-name="Grupo 1119665" transform="translate(534.111 -3840.08)">
          <rect id="Rectángulo_402006" data-name="Rectángulo 402006" width="84" height="84" rx="5" transform="translate(171.889 5519)" fill="#cdbfdc"/>
        </g>
      </g>
      <g id="documentos" transform="translate(682.897 333.793)">
        <g id="Grupo_1178998" data-name="Grupo 1178998" transform="translate(33.47 1.057)">
          <path id="Trazado_996510" data-name="Trazado 996510" d="M424.985,136.5h-.01l-.422.248v7.3h6.4l.35-.3v-.935A6.335,6.335,0,0,0,424.985,136.5Z" transform="translate(-370.023 -118.206)" fill="#8a2c8c"/>
          <path id="Trazado_996511" data-name="Trazado 996511" d="M163.356,8.473,162.9,7.457h-31A2.342,2.342,0,0,0,129.559,9.8v4.043l.974.8h25.991l8.533,8.294V33.5h6.073l.676-.493V16.359l-1.054-.466Z" transform="translate(-116.853 -7.457)" fill="#dcbfdc"/>
          <path id="Trazado_996513" data-name="Trazado 996513" d="M46.271,136.5h-.13a6.215,6.215,0,0,0-6.2,6.2v1.055l.612.169h6.191V136.9Z" transform="translate(-39.945 -118.206)" fill="#8a2c8c"/>
          <path id="Trazado_996514" data-name="Trazado 996514" d="M364.741,7.457v6.56a2.342,2.342,0,0,0,2.342,2.342h6.56Z" transform="translate(-318.691 -7.457)" fill="#dcbfdc"/>
          <path id="Trazado_996515" data-name="Trazado 996515" d="M118.454,53.84l-.546-1.342h-31a2.342,2.342,0,0,0-2.342,2.342V71.66l.919.919h38.805l2.523-.919V61.4l-1.314-.613Z" transform="translate(-78.238 -46.112)" fill="#fff"/>
          <path id="Trazado_996517" data-name="Trazado 996517" d="M319.746,52.5v6.56a2.342,2.342,0,0,0,2.342,2.342h6.56Z" transform="translate(-280.075 -46.112)" fill="#fff"/>
          <path id="Trazado_996520" data-name="Trazado 996520" d="M101.224,187.649H39.945v43.035a1.883,1.883,0,0,0,1.883,1.883H99.34a1.883,1.883,0,0,0,1.883-1.883Z" transform="translate(-39.945 -162.101)" fill="#bfc0dc"/>
          <path id="Trazado_996522" data-name="Trazado 996522" d="M279.817,320H257.251a1.205,1.205,0,0,0-1.205,1.205V338.97a1.205,1.205,0,0,0,1.205,1.205h22.566a1.205,1.205,0,0,0,1.205-1.205V321.207A1.205,1.205,0,0,0,279.817,320Z" transform="translate(-225.407 -275.689)" fill="#fff"/>
        </g>
        <g id="Grupo_1178999" data-name="Grupo 1178999" transform="translate(32.4 0)">
          <path id="Trazado_996524" data-name="Trazado 996524" d="M38.726,18.358a7.269,7.269,0,0,0-6.326,7.2v44.09a2.95,2.95,0,0,0,2.946,2.947H92.859a2.95,2.95,0,0,0,2.947-2.947V50.4a1.063,1.063,0,1,0-2.127,0V69.646a.821.821,0,0,1-.82.82H35.346a.821.821,0,0,1-.82-.82V27.675H93.679V45.437a1.063,1.063,0,0,0,2.127,0V25.676a7.39,7.39,0,0,0-6.326-7.3V9.965a1.069,1.069,0,0,0-.311-.752l-8.9-8.9A1.074,1.074,0,0,0,79.514,0h-31a3.41,3.41,0,0,0-3.406,3.406v2.98H42.132a3.41,3.41,0,0,0-3.406,3.406Zm0,7.19h-4.2a5.142,5.142,0,0,1,4.2-5.04Zm50.753-5.019a5.262,5.262,0,0,1,4.2,5.019h-4.2Zm-8.9-16.9L85.848,8.9H81.856a1.281,1.281,0,0,1-1.279-1.279ZM47.232,3.406a1.28,1.28,0,0,1,1.279-1.279H78.45v5.5a3.41,3.41,0,0,0,3.406,3.406h5.5V25.548H83.1v-9.2a1.069,1.069,0,0,0-.311-.752l-8.9-8.9a1.076,1.076,0,0,0-.752-.311h-25.9ZM79.469,15.288H75.476A1.281,1.281,0,0,1,74.2,14.009V10.016Zm-38.616-5.5a1.28,1.28,0,0,1,1.279-1.279H72.071v5.5a3.41,3.41,0,0,0,3.406,3.406h5.5v8.133H40.853Z" transform="translate(-32.4 0)"/>
          <path id="Trazado_996525" data-name="Trazado 996525" d="M299.673,425.126H284.644a1.063,1.063,0,1,0,0,2.127h15.029a1.063,1.063,0,1,0,0-2.127Z" transform="translate(-247.968 -364.851)"/>
          <path id="Trazado_996526" data-name="Trazado 996526" d="M299.673,397.5H284.644a1.063,1.063,0,1,0,0,2.127h15.029a1.063,1.063,0,0,0,0-2.127Z" transform="translate(-247.968 -341.141)"/>
          <path id="Trazado_996527" data-name="Trazado 996527" d="M299.673,369.873H284.644a1.063,1.063,0,1,0,0,2.127h15.029a1.063,1.063,0,0,0,0-2.127Z" transform="translate(-247.968 -317.432)"/>
          <path id="Trazado_996528" data-name="Trazado 996528" d="M299.673,342.246H284.644a1.063,1.063,0,1,0,0,2.127h15.029a1.063,1.063,0,1,0,0-2.127Z" transform="translate(-247.968 -293.722)"/>
          <path id="Trazado_996529" data-name="Trazado 996529" d="M148.906,149.617H119.653a1.063,1.063,0,1,0,0,2.127h29.252a1.063,1.063,0,0,0,0-2.127Z" transform="translate(-106.37 -128.404)"/>
          <path id="Trazado_996530" data-name="Trazado 996530" d="M119.652,124.118h24.621a1.063,1.063,0,1,0,0-2.127H119.652a1.063,1.063,0,0,0,0,2.127Z" transform="translate(-106.369 -104.695)"/>
          <path id="Trazado_996531" data-name="Trazado 996531" d="M259.57,312.545h-8.8a2.271,2.271,0,0,0-2.269,2.269v17.763a2.271,2.271,0,0,0,2.269,2.269h22.566a2.271,2.271,0,0,0,2.268-2.269V314.814a2.271,2.271,0,0,0-2.268-2.269h-8.8a1.063,1.063,0,1,0,0,2.127h8.8a.142.142,0,0,1,.142.142v17.763a.142.142,0,0,1-.142.142H250.769a.142.142,0,0,1-.142-.142V314.814a.142.142,0,0,1,.142-.142h8.8a1.063,1.063,0,0,0,0-2.127Z" transform="translate(-217.861 -268.232)"/>
        </g>
      </g>
    </g>
  </g>
</svg>
