<svg xmlns="http://www.w3.org/2000/svg" xmlns:xlink="http://www.w3.org/1999/xlink" width="500" height="163" viewBox="0 0 500 163">
  <defs>
    <clipPath id="clip-path">
      <rect id="Rectángulo_455563" data-name="Rectángulo 455563" width="316.401" height="162.545" fill="none"/>
    </clipPath>
    <clipPath id="clip-path-3">
      <rect id="Rectángulo_455442" data-name="Rectángulo 455442" width="250.393" height="7.102" transform="translate(24.194 155.443)" fill="none"/>
    </clipPath>
    <clipPath id="clip-path-5">
      <rect id="Rectángulo_455459" data-name="Rectángulo 455459" width="3.346" height="2.059" transform="translate(213.747 95.304)" fill="none"/>
    </clipPath>
    <clipPath id="clip-path-6">
      <rect id="Rectángulo_455460" data-name="Rectángulo 455460" width="2.639" height="1.963" transform="translate(210.862 95.034)" fill="none"/>
    </clipPath>
    <clipPath id="clip-path-7">
      <rect id="Rectángulo_455477" data-name="Rectángulo 455477" width="23.417" height="3.118" transform="translate(95.133 132.574)" fill="none"/>
    </clipPath>
    <clipPath id="clip-path-8">
      <rect id="Rectángulo_455557" data-name="Rectángulo 455557" width="3.532" height="2.231" transform="translate(13.049 95.78)" fill="none"/>
    </clipPath>
    <clipPath id="clip-path-9">
      <rect id="Rectángulo_455558" data-name="Rectángulo 455558" width="2.793" height="2.221" transform="translate(16.69 94.89)" fill="none"/>
    </clipPath>
    <clipPath id="clip-path-10">
      <rect id="Rectángulo_455560" data-name="Rectángulo 455560" width="27.993" height="27.993" transform="translate(25.615 48.442)" fill="none"/>
    </clipPath>
    <clipPath id="clip-path-11">
      <rect id="Rectángulo_455561" data-name="Rectángulo 455561" width="17.926" height="20.691" transform="translate(33.256 50.894)" fill="none"/>
    </clipPath>
  </defs>
  <g id="Grupo_1179414" data-name="Grupo 1179414" transform="translate(-913.711 -9755)">
    <rect id="Rectángulo_455441" data-name="Rectángulo 455441" width="500" height="163" transform="translate(913.711 9755)" fill="#dcbfdc"/>
    <g id="Grupo_1179078" data-name="Grupo 1179078" transform="translate(993.599 9755)">
      <g id="Grupo_1179077" data-name="Grupo 1179077" clip-path="url(#clip-path)">
        <g id="Grupo_1179053" data-name="Grupo 1179053">
          <g id="Grupo_1179052" data-name="Grupo 1179052" clip-path="url(#clip-path)">
            <g id="Grupo_1179051" data-name="Grupo 1179051" opacity="0.07">
              <g id="Grupo_1179050" data-name="Grupo 1179050">
                <g id="Grupo_1179049" data-name="Grupo 1179049" clip-path="url(#clip-path-3)">
                  <path id="Trazado_996988" data-name="Trazado 996988" d="M272.409,155.443H26.373a2.185,2.185,0,0,0-2.179,2.179v2.744a2.185,2.185,0,0,0,2.179,2.179H272.409a2.184,2.184,0,0,0,2.178-2.179v-2.744a2.185,2.185,0,0,0-2.178-2.179" fill="#1a1818"/>
                </g>
              </g>
            </g>
          </g>
        </g>
        <rect id="Rectángulo_455444" data-name="Rectángulo 455444" width="23.187" height="96.951" transform="translate(229.642 61.133)" fill="#2e99ba"/>
        <rect id="Rectángulo_455445" data-name="Rectángulo 455445" width="11.596" height="96.951" transform="translate(241.233 61.133)" fill="#168aab"/>
        <rect id="Rectángulo_455446" data-name="Rectángulo 455446" width="16.294" height="55.46" transform="translate(233.087 69.894)" fill="#fff"/>
        <rect id="Rectángulo_455447" data-name="Rectángulo 455447" width="16.294" height="0.684" transform="translate(233.087 74.142)" fill="#2e99ba"/>
        <g id="Grupo_1179076" data-name="Grupo 1179076">
          <g id="Grupo_1179075" data-name="Grupo 1179075" clip-path="url(#clip-path)">
            <path id="Trazado_996989" data-name="Trazado 996989" d="M246.47,144.665a5.237,5.237,0,1,1-5.237-5.241,5.238,5.238,0,0,1,5.237,5.241" fill="#fff"/>
            <path id="Trazado_996990" data-name="Trazado 996990" d="M245.753,144.665a4.518,4.518,0,1,1-4.52-4.52,4.518,4.518,0,0,1,4.52,4.52" fill="#464749"/>
            <rect id="Rectángulo_455448" data-name="Rectángulo 455448" width="23.184" height="96.951" transform="translate(252.829 61.133)" fill="#2e99ba"/>
            <rect id="Rectángulo_455449" data-name="Rectángulo 455449" width="11.592" height="96.951" transform="translate(264.421 61.133)" fill="#168aab"/>
            <rect id="Rectángulo_455450" data-name="Rectángulo 455450" width="16.293" height="55.46" transform="translate(256.274 69.894)" fill="#fff"/>
            <rect id="Rectángulo_455451" data-name="Rectángulo 455451" width="16.293" height="0.684" transform="translate(256.274 74.141)" fill="#2e99ba"/>
            <path id="Trazado_996991" data-name="Trazado 996991" d="M269.66,144.665a5.238,5.238,0,1,1-5.238-5.241,5.24,5.24,0,0,1,5.238,5.241" fill="#fff"/>
            <path id="Trazado_996992" data-name="Trazado 996992" d="M268.94,144.665a4.52,4.52,0,1,1-4.519-4.52,4.519,4.519,0,0,1,4.519,4.52" fill="#464749"/>
            <rect id="Rectángulo_455452" data-name="Rectángulo 455452" width="23.19" height="96.952" transform="translate(276.013 62.741) rotate(-10.45)" fill="#2e99ba"/>
            <rect id="Rectángulo_455453" data-name="Rectángulo 455453" width="11.594" height="96.952" transform="translate(287.415 60.638) rotate(-10.45)" fill="#168aab"/>
            <rect id="Rectángulo_455454" data-name="Rectángulo 455454" width="16.296" height="55.46" transform="translate(280.992 70.732) rotate(-10.451)" fill="#fff"/>
            <rect id="Rectángulo_455455" data-name="Rectángulo 455455" width="16.296" height="0.684" transform="translate(281.763 74.909) rotate(-10.451)" fill="#2e99ba"/>
            <path id="Trazado_996993" data-name="Trazado 996993" d="M307.717,141.835a5.237,5.237,0,1,1-6.1-4.2,5.24,5.24,0,0,1,6.1,4.2" fill="#fff"/>
            <path id="Trazado_996994" data-name="Trazado 996994" d="M307.011,141.965a4.52,4.52,0,1,1-5.265-3.625,4.521,4.521,0,0,1,5.265,3.625" fill="#464749"/>
            <path id="Trazado_996995" data-name="Trazado 996995" d="M260.862,72.29l-.112,3.723,2.134.136.453-3.956Z" fill="#1e1c1d"/>
            <path id="Trazado_996996" data-name="Trazado 996996" d="M263.367,75.227s2.519,2.141,3.392,2.157c.549.109,1.842-.213,1.585,1.217-.42.388-3.954.124-4.689.111-.365-.155-.679-.606-1.149-.022-.46.041-2.2-.09-2.2-.09a3.417,3.417,0,0,1,.254-2.964,3.154,3.154,0,0,0,2.811-.409" fill="#361b17"/>
            <path id="Trazado_996997" data-name="Trazado 996997" d="M268.126,79.142l-4.247-.079a.346.346,0,0,1-.339-.352h0a.346.346,0,0,1,.352-.339l4.247.079a.346.346,0,1,1-.013.692" fill="#2a0f12"/>
            <path id="Trazado_996998" data-name="Trazado 996998" d="M262.29,79.033l-1.9-.035a.363.363,0,0,1,.013-.726l1.9.036a.363.363,0,0,1-.014.725" fill="#2a0f12"/>
            <path id="Trazado_996999" data-name="Trazado 996999" d="M264.225,75.763l-.731.672a.082.082,0,0,1-.121-.01l-.087-.11a.08.08,0,0,1,.008-.108l.731-.671a.082.082,0,0,1,.122.009l.087.11a.081.081,0,0,1-.009.108" fill="#25100e"/>
            <path id="Trazado_997000" data-name="Trazado 997000" d="M264.836,76.244l-.731.672a.082.082,0,0,1-.121-.01l-.087-.11a.08.08,0,0,1,.008-.108l.731-.671a.082.082,0,0,1,.122.009l.087.11a.081.081,0,0,1-.009.108" fill="#25100e"/>
            <path id="Trazado_997001" data-name="Trazado 997001" d="M265.483,76.689l-.586.538a.081.081,0,0,1-.121-.009l-.087-.11A.08.08,0,0,1,264.7,77l.586-.538a.082.082,0,0,1,.122.009l.087.11a.081.081,0,0,1-.009.108" fill="#25100e"/>
            <path id="Trazado_997002" data-name="Trazado 997002" d="M246.726,55.875c.012-.236-.514-.973-.547-1.2a12.565,12.565,0,0,1,2.356-.186c2.277.149,14.718,1.343,16.737,3.745a1.165,1.165,0,0,1,.266.651c.276,3.1-1.114,13.439-1.187,14.369,0,.029-.111,1.069-.129,1.091-.583.758-4.467.135-4.284-.227-.467-.862.743-10.614.9-12.2a.184.184,0,0,0-.172-.2c-1.062-.073-6.26-.465-8.634-1.274a7.039,7.039,0,0,1-3.757-3.786.187.187,0,0,0-.126-.108c.111-.361-1.448-.282-1.428-.671" fill="#674732"/>
            <path id="Trazado_997003" data-name="Trazado 997003" d="M255.038,72.688l-.112,3.723,2.134.136.453-3.956Z" fill="#1e1c1d"/>
            <path id="Trazado_997004" data-name="Trazado 997004" d="M257.489,75.594s2.519,2.141,3.392,2.157c.549.109,1.842-.213,1.586,1.217-.421.388-3.955.124-4.69.111-.365-.155-.679-.606-1.149-.022-.46.041-2.2-.09-2.2-.09A3.417,3.417,0,0,1,254.678,76a3.154,3.154,0,0,0,2.811-.409" fill="#3c201b"/>
            <path id="Trazado_997005" data-name="Trazado 997005" d="M262.248,79.509,258,79.43a.346.346,0,0,1,.013-.692l4.247.079a.346.346,0,1,1-.013.692" fill="#2a0f12"/>
            <path id="Trazado_997006" data-name="Trazado 997006" d="M256.412,79.4l-1.9-.035a.363.363,0,0,1,.013-.726l1.9.036a.363.363,0,1,1-.013.725" fill="#2a0f12"/>
            <path id="Trazado_997007" data-name="Trazado 997007" d="M258.347,76.13l-.731.672a.082.082,0,0,1-.121-.01l-.087-.109a.081.081,0,0,1,.008-.109l.731-.671a.082.082,0,0,1,.122.009l.087.11a.081.081,0,0,1-.009.108" fill="#25100e"/>
            <path id="Trazado_997008" data-name="Trazado 997008" d="M258.958,76.611l-.731.672a.082.082,0,0,1-.121-.01l-.087-.11a.08.08,0,0,1,.008-.108l.731-.671a.082.082,0,0,1,.122.009l.087.11a.081.081,0,0,1-.009.108" fill="#25100e"/>
            <path id="Trazado_997009" data-name="Trazado 997009" d="M259.605,77.056l-.586.538a.081.081,0,0,1-.121-.009l-.087-.11a.08.08,0,0,1,.008-.108l.586-.538a.082.082,0,0,1,.122.009l.087.11a.081.081,0,0,1-.009.108" fill="#25100e"/>
            <path id="Trazado_997010" data-name="Trazado 997010" d="M240.286,56.09a1,1,0,0,0-.023.135c-.061.6-.384,4.711,2.191,5.047,2.044.268,7.323.4,9.968.448a1.617,1.617,0,0,1,1.586,1.591c.055,3.331.17,10.571.369,11.238-.081.294,3.933.372,3.956-.094.114-2.322.946-12.388.174-15.008a.973.973,0,0,0-.112-.248c-1.615-2.566-10.838-4.408-11.447-4.527l-.063-.01-5.172-.671a1,1,0,0,0-1.1.759Z" fill="#855c41"/>
            <path id="Trazado_997011" data-name="Trazado 997011" d="M252.044,34.981s4.381-4.368,4.442-5.483c.05-.9.627-6.71.788-8.321A.59.59,0,0,0,257,20.6a2.343,2.343,0,0,1-.6-1.168c-.1-.3-.789-.851-.413-1.362.3-.406.509-.125.514-.134.243-.428.891-.033.885-.029s.068-.076.306-.037a9.338,9.338,0,0,0,1.077.132c.612-.113.964,1.336.641,1.921-.33.6-.351.188-.368,1.171.007,1,.633,6.777.237,9.184-.239,1.452-4.6,7.148-7.506,10.042-.127-.544-.252-4.824.266-5.338" fill="#e4b384"/>
            <path id="Trazado_997012" data-name="Trazado 997012" d="M256.944,19.478a1.494,1.494,0,0,0-.545-.833.808.808,0,0,0,.08-.862c.03.019-.1-.2-.2-.108a2.356,2.356,0,0,0-.531.761c.021.052.521-.593.556-.549a.781.781,0,0,1-.006.8,1.446,1.446,0,0,1,.649.791" fill="#ba865e"/>
            <path id="Trazado_997013" data-name="Trazado 997013" d="M256.936,19.571c.149-.027.218-.256,0-.681.022.005.317.547.128.673a.276.276,0,0,1-.12.046l-.008-.038" fill="#ba865e"/>
            <path id="Trazado_997014" data-name="Trazado 997014" d="M255.752,18.37s-.082.895.471,1.26a1.589,1.589,0,0,1-.384-1.326c-.021-.034-.087.066-.087.066" fill="#ba865e"/>
            <path id="Trazado_997015" data-name="Trazado 997015" d="M256.105,29.717a13.249,13.249,0,0,1-5.076,5.145c-.492.161.336,6.9.336,6.9s5.606-5.06,7.425-9.332a7.905,7.905,0,0,0,.789-2.7l-3.328-.372Z" fill="#1d2c3c"/>
            <path id="Trazado_997016" data-name="Trazado 997016" d="M259.837,28.336c.074-.02.026.617-.045.811s.355.743-.019.806a8.569,8.569,0,0,1-3.756-.3c-.366-.482.208-.916.208-.916s-.156-.466.012-.546,2.286.5,3.6.144" fill="#2c3f54"/>
            <path id="Trazado_997017" data-name="Trazado 997017" d="M245.618,32.471s.15,1.427.482,1.643a10.768,10.768,0,0,0,1.054.539,4.6,4.6,0,0,1-2.979,2.253c-1.885.243-2.668-1.773-2.668-1.773s1.5-.737,1.49-1.106-.671-2.967-.671-2.967Z" fill="#cfa479"/>
            <path id="Trazado_997018" data-name="Trazado 997018" d="M246.276,32.484s-.028,1.487.491,1.714l.9.362-.41.538s-1.09-.2-1.3-.782-.488-1.806-.488-1.806Z" fill="#c39972"/>
            <path id="Trazado_997019" data-name="Trazado 997019" d="M251.029,34.862s2.1,12.461.715,18.934c-.1.46-9.587-.337-10.465-.487-.444-.168-1.035-9.451-1.054-9.912s-1.174-6.828-.862-7.4c.655-1.19,2.8-1.582,3.058-1.592s3.283,2.13,4.925-.209c.99.112,2.707.1,3.683.661" fill="#243546"/>
            <path id="Trazado_997020" data-name="Trazado 997020" d="M245.8,24.456a3.527,3.527,0,0,1,.912,2.121c.034.389-.085.664.111,1.052a6.527,6.527,0,0,1,.372,1.884c.063.728.065,2.971-1.588,3.424a4.763,4.763,0,0,1-2.69.019c-.421-.139-.7-.243-1.309-1.287a.934.934,0,0,0-.825-.549,1.7,1.7,0,0,1-1.139-1.331c-.13-1.117.865-.381.865-.381l-.4-.54s-.713-2.507-.2-3.078c.489-.548,4.556-3.039,5.894-1.334" fill="#e4b384"/>
            <path id="Trazado_997021" data-name="Trazado 997021" d="M240.25,30.168c.135.2.306.317.381.266s.027-.254-.108-.452-.306-.317-.381-.266-.027.254.108.452" fill="#ba865e"/>
            <path id="Trazado_997022" data-name="Trazado 997022" d="M245.12,30.172h0a.675.675,0,0,0,.546-.347.377.377,0,0,0-.063-.37c-.178-.243-.728-1.051-.733-1.059a.074.074,0,0,0-.1-.019.072.072,0,0,0-.02.1c.006.009.557.819.736,1.064a.237.237,0,0,1,.045.23.551.551,0,0,1-.436.256.073.073,0,0,0,.023.145" fill="#ba865e"/>
            <path id="Trazado_997023" data-name="Trazado 997023" d="M242.492,28.507a.151.151,0,0,0,.078-.066c.271-.448,1.162-.606,1.17-.608.08-.017.134-.166.078-.293a.163.163,0,0,0-.173-.116,2.133,2.133,0,0,0-1.332.874.146.146,0,0,0,.058.2.14.14,0,0,0,.121.01" fill="#663e20"/>
            <path id="Trazado_997024" data-name="Trazado 997024" d="M246.7,27.484a.159.159,0,0,0,.106-.061.124.124,0,0,0-.041-.184,1.81,1.81,0,0,0-1.249-.222.267.267,0,0,0-.113.266.221.221,0,0,0,.188.134,1.2,1.2,0,0,1,1.009.048.166.166,0,0,0,.1.019" fill="#663e20"/>
            <path id="Trazado_997025" data-name="Trazado 997025" d="M243.855,33.316a3.469,3.469,0,0,0,2.557-.556,3.22,3.22,0,0,0,.8-2.264c-.034.226-.271,1.053-.395,1.012,0,0,.189-1.8-.086-1.768a10.551,10.551,0,0,1-3.47.8c-.313.184.312,1.19.324,1.4.03.5-1.127.255-1.386.112-.475-.263-1.007-1.591-1.007-1.591a4.041,4.041,0,0,0,.768,2.1,2.555,2.555,0,0,0,1.892.76m-.367-2.583a7.752,7.752,0,0,0,3.182-.744,4.9,4.9,0,0,1-.307,1.746c-.257.484-.455.038-.755.122s-.537.386-.862.44a1.62,1.62,0,0,1-1.258-1.564" fill="#402811"/>
            <path id="Trazado_997026" data-name="Trazado 997026" d="M246.51,30.211a5.451,5.451,0,0,1-2.688.652c-.134.163.8,1.191,1.722.888a1.414,1.414,0,0,0,.966-1.54" fill="#fff"/>
            <path id="Trazado_997027" data-name="Trazado 997027" d="M245.965,28.718a.1.1,0,0,0,.074-.077c.023-.089.065-.2.14-.224s.215.063.244.088a.106.106,0,1,0,.14-.158.5.5,0,0,0-.447-.132.466.466,0,0,0-.282.376.106.106,0,0,0,.131.127" fill="#221204"/>
            <path id="Trazado_997028" data-name="Trazado 997028" d="M243.434,29.446a.119.119,0,0,0,.085-.088c.025-.1.073-.23.16-.257s.246.073.279.1a.121.121,0,0,0,.161-.181.574.574,0,0,0-.512-.152.532.532,0,0,0-.322.431.12.12,0,0,0,.088.146.115.115,0,0,0,.061,0" fill="#221204"/>
            <path id="Trazado_997029" data-name="Trazado 997029" d="M246.64,27.088s.055.275.089.194c.226-.531.889-3.1-.624-3.645a.488.488,0,0,0,.115-.535,1.171,1.171,0,0,1-.845.36s.719-.45.266-1.076a1.391,1.391,0,0,1-1.236.838.558.558,0,0,0,.266-.744,2.6,2.6,0,0,1-1.266.484c-.661.133-1.809-.072-2.115.706-.126.02-.3-.366-.3-.366l-.034.467-.279-.185.147.336v-.01s-1.958-.2-1.875,2.058a5.773,5.773,0,0,0,1.165,3.229,3.279,3.279,0,0,1,.971,1.128s-.969-3.251.137-4.425c.37-.391,1.149.093,2.579-.092a2.671,2.671,0,0,0,1.6-.8s1.123-.391,1.238,2.074" fill="#36200b"/>
            <path id="Trazado_997030" data-name="Trazado 997030" d="M241.143,24.512a1.686,1.686,0,0,1,1.538-.584,4.4,4.4,0,0,0,2.08-.206c.6-.269-.373.725-1.286.776a15.492,15.492,0,0,0-2.332.014" fill="#52341a"/>
            <path id="Trazado_997031" data-name="Trazado 997031" d="M240.823,24.6s-1.741.009-1.066,1.869a1.625,1.625,0,0,1,1.066-1.869" fill="#52341a"/>
            <path id="Trazado_997032" data-name="Trazado 997032" d="M243.958,39.783l-2.582-.55a.2.2,0,0,0-.085.4l2.582.55a.2.2,0,0,0,.085-.4" fill="#2c3f54"/>
            <path id="Trazado_997033" data-name="Trazado 997033" d="M242.62,34.191a4.791,4.791,0,0,0-1.284.388,5.715,5.715,0,0,0,3.134,2.506,4.028,4.028,0,0,1,1.144-1.676l1.439,1.258a5.031,5.031,0,0,0,1.357-2.278c-.067-.037-.971-.336-.971-.336s-1.568,2.241-4.819.138" fill="#2c3f54"/>
            <path id="Trazado_997034" data-name="Trazado 997034" d="M246.178,37.409c.014.2-.071.364-.191.372s-.228-.144-.242-.341.071-.364.191-.372.228.144.242.341" fill="#2c3f54"/>
            <path id="Trazado_997035" data-name="Trazado 997035" d="M246.494,40.421c.014.2-.071.364-.191.372s-.228-.144-.242-.341.071-.364.191-.372.228.144.242.341" fill="#2c3f54"/>
            <path id="Trazado_997036" data-name="Trazado 997036" d="M246.942,43.364c.014.2-.071.364-.191.372s-.228-.144-.242-.341.071-.364.191-.372.228.144.242.341" fill="#2c3f54"/>
            <path id="Trazado_997037" data-name="Trazado 997037" d="M247.229,46.451c.014.2-.071.364-.191.372s-.228-.144-.242-.341.071-.364.191-.372.228.144.242.341" fill="#2c3f54"/>
            <path id="Trazado_997038" data-name="Trazado 997038" d="M247.379,50.145c.014.2-.071.364-.191.372s-.228-.144-.242-.341.071-.364.191-.372.228.144.242.341" fill="#2c3f54"/>
            <path id="Trazado_997039" data-name="Trazado 997039" d="M248.872,5.667l13.359-2.282C262.854,2.2,263.637.95,264.219.85l4.914-.84a.719.719,0,0,1,.826.584l2.686,15.722a.719.719,0,0,1-.585.827l-20.626,3.522a.715.715,0,0,1-.825-.584L248.287,6.493a.718.718,0,0,1,.585-.826" fill="#f3b50a"/>
            <rect id="Rectángulo_455456" data-name="Rectángulo 455456" width="20.491" height="13.021" transform="translate(249.214 6.591) rotate(-9.693)" fill="#fff"/>
            <path id="Trazado_997040" data-name="Trazado 997040" d="M270.577,3.558l-14.3,2.279c-1.029-.814-2.252-1.628-2.881-1.529l-5.31.843a.674.674,0,0,0-.625.757L250.535,20.1a.73.73,0,0,0,.844.519l20.648-3.41a.736.736,0,0,0,.639-.758L271.4,4.08a.669.669,0,0,0-.821-.522" fill="#ffd12b"/>
            <path id="Trazado_997041" data-name="Trazado 997041" d="M256.272,18.689a4.273,4.273,0,0,0,.54,1.74c.213.235.72-.118.71-.456-.011-.385-.575-.826-.575-.826a1.752,1.752,0,0,1-.165-.548,1.1,1.1,0,0,0-.312-.679c-.038-.023-.267-.107-.3-.023a5.483,5.483,0,0,0,.1.792" fill="#e4b384"/>
            <path id="Trazado_997042" data-name="Trazado 997042" d="M251.8,53.727l-.144,1.145s-7.787-.09-10.548-.78c-.023-.078.056-.947.056-.947s4.918.32,10.636.582" fill="#4f3625"/>
            <path id="Trazado_997043" data-name="Trazado 997043" d="M244.708,43.727s-.784,1-5.06,2.33c-.457.142.06-6.9.06-6.9l-1.524-1.031s-3.018,8.722-.747,10.355c2.5.263,5.846-1.454,8.556-3.629-.069.112-.11-1.094-1.285-1.12" fill="#e4b384"/>
            <path id="Trazado_997044" data-name="Trazado 997044" d="M246.41,43.41c-.563.035-.587.279-.4.455s1.61.373,1.568-.187-1.17-.268-1.17-.268" fill="#e4b384"/>
            <path id="Trazado_997045" data-name="Trazado 997045" d="M246.4,44.014c-.563.035-.587.279-.4.455s1.545.353,1.568-.187c.028-.652-1.17-.268-1.17-.268" fill="#e4b384"/>
            <path id="Trazado_997046" data-name="Trazado 997046" d="M246.317,42.831c-.563.035-.588.279-.4.455s1.545.353,1.568-.187c.028-.652-1.17-.268-1.17-.268" fill="#e4b384"/>
            <path id="Trazado_997047" data-name="Trazado 997047" d="M246.372,44.59c-.468-.017-.438.137-.263.32s1.179.282,1.233-.084c.1-.665-.97-.236-.97-.236" fill="#e4b384"/>
            <path id="Trazado_997048" data-name="Trazado 997048" d="M245.762,45.066a.294.294,0,0,1-.091.034,7.867,7.867,0,0,0-1.068-.867c-.077-.529.3-.845.561-1.542.149-.4.151-1.669.336-1.722.137-.04.622.073.384,1.428-.042.235.153.358.6.319.532-.046.519.079.59.264.133.34.028,2.031-.214,2.068-.285.043-.822-.152-1.1.018" fill="#e4b384"/>
            <path id="Trazado_997049" data-name="Trazado 997049" d="M240.052,42.212c-.286,1.1-.381,1.525-.381,1.525l-.112,2.071-2.732,1.781c-.316.133-.277-4.133-.237-4.209.147-6.453,2.944-7.631,2.944-7.631s.4,5.8.518,6.463" fill="#1d2c3c"/>
            <path id="Trazado_997050" data-name="Trazado 997050" d="M236.989,48.12c-.043.061-.271-.627-.34-.816s-.325-.6-.086-.879a5.339,5.339,0,0,1,3.058-1.623c.143.053,0,.7,0,.7s.252.231.177.4-2.055,1.131-2.812,2.22" fill="#2c3f54"/>
            <rect id="Rectángulo_455457" data-name="Rectángulo 455457" width="2.23" height="0.371" transform="matrix(0.986, -0.168, 0.168, 0.986, 264.172, 1.996)" fill="#4e5153"/>
            <rect id="Rectángulo_455458" data-name="Rectángulo 455458" width="2.23" height="0.371" transform="matrix(0.986, -0.168, 0.168, 0.986, 266.867, 1.538)" fill="#4e5153"/>
            <path id="Trazado_997051" data-name="Trazado 997051" d="M209.236,103.39s-.312-.129-.68.533c-.713,1.284-1.447,6.513-1.6,7.091-.222.85-1.819,2.209-1.819,2.3a28.372,28.372,0,0,0,4.053,1.238c.435,0,.044-11.158.044-11.158" fill="#e96537"/>
            <path id="Trazado_997052" data-name="Trazado 997052" d="M224.078,156.137l.61,2.732-1.989.287-.7-3.088Z" fill="#e4b384"/>
            <path id="Trazado_997053" data-name="Trazado 997053" d="M214.285,155.965l.7,2.592-2.075.08-.758-2.792Z" fill="#e4b384"/>
            <path id="Trazado_997054" data-name="Trazado 997054" d="M222.48,158.279a2.286,2.286,0,0,1,2.081-.1,2.7,2.7,0,0,1,1.072,2.242.016.016,0,0,1-.016.015c-.247.012-3.471.164-3.564.119,0,0-.2-.032-.2-.036a2.65,2.65,0,0,1,.63-2.243" fill="#0b1d30"/>
            <path id="Trazado_997055" data-name="Trazado 997055" d="M222.846,158.467l1.378.008a.14.14,0,0,1,.14.142.142.142,0,0,1-.142.141l-1.378-.008a.142.142,0,0,1-.14-.142h0a.141.141,0,0,1,.142-.14" fill="#fff"/>
            <path id="Trazado_997056" data-name="Trazado 997056" d="M222.921,159.066l1.5.008a.142.142,0,1,1,0,.283l-1.5-.008a.148.148,0,0,1-.153-.142h0a.149.149,0,0,1,.155-.14" fill="#fff"/>
            <path id="Trazado_997057" data-name="Trazado 997057" d="M222.991,159.692l1.592.008a.154.154,0,0,1,.162.142.155.155,0,0,1-.164.141l-1.592-.008a.154.154,0,0,1-.162-.142h0a.154.154,0,0,1,.164-.14" fill="#fff"/>
            <path id="Trazado_997058" data-name="Trazado 997058" d="M221.894,161.289a.338.338,0,0,1-.331-.412c.056-.246.137-.47.251-.51a21.328,21.328,0,0,1,3.756-.034c.3.06.334.294.4.538a.338.338,0,0,1-.33.418Z" fill="#fff"/>
            <path id="Trazado_997059" data-name="Trazado 997059" d="M212.433,157.823s-2.521,2.327-3.407,2.382c-.553.135-1.88-.136-1.557,1.3.444.375,4.021-.047,4.767-.092.363-.174,3.4-.641,3.4-.641s.726-.742-.567-2.732a2.712,2.712,0,0,1-2.631-.222" fill="#0b1d30"/>
            <path id="Trazado_997060" data-name="Trazado 997060" d="M215.9,160.135s.093.835-.128.9-1.368.044-2.987.3c-1.906.3-4.712.823-5.49.069a.876.876,0,0,1,.151-.8,6.029,6.029,0,0,0,2.879.306c2.08-.261,5.575-.771,5.575-.771" fill="#fff"/>
            <path id="Trazado_997061" data-name="Trazado 997061" d="M211.924,158.1l.766.657a.133.133,0,0,1-.018.18c-.053.062-.132.083-.175.046l-.765-.657a.133.133,0,0,1,.017-.18h0c.052-.062.131-.083.174-.046" fill="#fff"/>
            <path id="Trazado_997062" data-name="Trazado 997062" d="M211.276,158.636l.766.657a.133.133,0,0,1-.018.18c-.053.062-.132.083-.175.046l-.765-.657a.133.133,0,0,1,.017-.18h0c.052-.063.131-.083.174-.046" fill="#fff"/>
            <path id="Trazado_997063" data-name="Trazado 997063" d="M210.691,159.223l.7.6c.04.034.029.113-.024.175s-.128.085-.168.051l-.7-.6c-.04-.034-.029-.113.024-.175s.128-.085.168-.051" fill="#fff"/>
            <path id="Trazado_997064" data-name="Trazado 997064" d="M213.678,99.662s.018,1.6-.322,1.881a11.864,11.864,0,0,1-1.1.732,5.134,5.134,0,0,0,3.588,2.11,4.582,4.582,0,0,0,3.456-2.079s-2.06-.932-2.094-1.341.184-3.381.184-3.381Z" fill="#cfa479"/>
            <path id="Trazado_997065" data-name="Trazado 997065" d="M213.4,99.818a2.637,2.637,0,0,1-.3,1.772,2.958,2.958,0,0,1-1.157.569l.717.677s1.179-.368,1.335-1.032.308-2.063.308-2.063Z" fill="#c39972"/>
            <path id="Trazado_997066" data-name="Trazado 997066" d="M211.542,91.59a12.628,12.628,0,0,0-.188,2.511c.132.412-.028.705-.146,1.172a7.218,7.218,0,0,0,.058,2.129c.107.8.653,3.23,2.551,3.317a5.289,5.289,0,0,0,2.915-.633c.422-.254.7-.436,1.1-1.713.166-.531.42-.476.666-.506A2.2,2.2,0,0,0,219.253,96c-.088-.972-.912.045-.912.045l.61-1.077s.866-2.223-.708-3.373c-.658-.481-5.671-2.178-6.7-.008" fill="#e4b384"/>
            <path id="Trazado_997067" data-name="Trazado 997067" d="M215.554,96.186c-.021.235-.156.415-.3.4s-.247-.214-.226-.449.156-.415.3-.4.247.214.226.449" fill="#160000"/>
            <path id="Trazado_997068" data-name="Trazado 997068" d="M218.765,96.77c-.1.247-.253.418-.347.38s-.091-.267.006-.515.254-.417.348-.38.091.268-.007.515" fill="#d4986a"/>
            <path id="Trazado_997069" data-name="Trazado 997069" d="M212.441,95.823c-.022.235-.156.415-.3.4s-.246-.214-.226-.449.155-.415.3-.4.248.214.227.449" fill="#160000"/>
            <path id="Trazado_997070" data-name="Trazado 997070" d="M213.68,97.657h0a.75.75,0,0,1-.622-.358.417.417,0,0,1,.051-.413c.185-.278.753-1.2.759-1.21a.081.081,0,0,1,.139.085c-.006.009-.576.935-.763,1.215a.265.265,0,0,0-.038.257.616.616,0,0,0,.5.262.082.082,0,0,1-.018.162" fill="#ba865e"/>
            <path id="Trazado_997071" data-name="Trazado 997071" d="M212.561,98.109a18.268,18.268,0,0,0,2.425.174c.175.179-.546,1.17-1.356,1.1a1.17,1.17,0,0,1-1.069-1.272" fill="#fff"/>
            <path id="Trazado_997072" data-name="Trazado 997072" d="M216.7,95.234a.169.169,0,0,1-.1-.049,2.25,2.25,0,0,0-1.426-.318c-.092.005-.192-.14-.168-.292.015-.089.063-.167.152-.173a2.361,2.361,0,0,1,1.677.557.163.163,0,0,1-.132.275" fill="#40240f"/>
            <path id="Trazado_997073" data-name="Trazado 997073" d="M211.9,94.816a.158.158,0,0,1-.118-.066.165.165,0,0,1,.038-.229,1.612,1.612,0,0,1,1.392-.237.163.163,0,0,1,.1.207.255.255,0,0,1-.2.175,1.208,1.208,0,0,0-1.1.12.152.152,0,0,1-.109.03" fill="#40240f"/>
            <path id="Trazado_997074" data-name="Trazado 997074" d="M217.39,92.342s1.225,1.053.8,4.038a1.859,1.859,0,0,1,.63-.761s.973-2.925-.021-3.59c-.156-.1-1.192-1.324-1.406.313" fill="#654222"/>
            <path id="Trazado_997075" data-name="Trazado 997075" d="M212.4,92.015a4.7,4.7,0,0,0,2.791.4,3.1,3.1,0,0,1,2.412.323c.216.13.4-.569,1.276-.35.162.038-.291-.416-.506-.546s.254-.038.615.493a1.735,1.735,0,0,0-.822-1.569c-2.52-2.225-4.163-1.11-4.1-1,.016.026-.035-.261.081-.378-.21.214-.424.278-.25,0,.13-.245-.566.242-.785.348s.07-.272.07-.272a1.24,1.24,0,0,0-.788.37c-.288.309-.454.361-.306.14s-.318.053-.381.261a2.79,2.79,0,0,0-.337,2.456c.132.143.169-.331.259-.488.127-.223.318-.461.768-.179" fill="#3c2408"/>
            <path id="Trazado_997076" data-name="Trazado 997076" d="M212,90.911a4.536,4.536,0,0,1,4.829-.328,4.267,4.267,0,0,0-1.542-.116c-.562.113-2.285,1.125-3.287.444" fill="#482d0e"/>
            <path id="Trazado_997077" data-name="Trazado 997077" d="M216.842,95.675h1.834l-.123.152-1.591.2Z" fill="#160000"/>
            <path id="Trazado_997078" data-name="Trazado 997078" d="M213.266,95.4a1.038,1.038,0,0,0,.807.16c.159,0-.194.711-.194.711s-.224-.859-.456-.255c-.066.173-.157-.616-.157-.616" fill="#160000"/>
            <g id="Grupo_1179056" data-name="Grupo 1179056" opacity="0.97">
              <g id="Grupo_1179055" data-name="Grupo 1179055">
                <g id="Grupo_1179054" data-name="Grupo 1179054" clip-path="url(#clip-path-5)">
                  <path id="Trazado_997079" data-name="Trazado 997079" d="M214.877,97.352a2.736,2.736,0,0,1-.342-.052.972.972,0,0,1-.776-.881.938.938,0,0,1,.3-.92,3.758,3.758,0,0,1,1.607-.177,4.394,4.394,0,0,1,1.2.279.622.622,0,0,1,.223.425,1.04,1.04,0,0,1-.286.808,2.676,2.676,0,0,1-1.924.518m.767-1.788a3.66,3.66,0,0,0-1.486.157.79.79,0,0,0-.157.666.743.743,0,0,0,.586.675,2.442,2.442,0,0,0,.312.047,2.492,2.492,0,0,0,1.723-.442c.39-.462.175-.789.13-.847a4.2,4.2,0,0,0-1.108-.256" fill="#1a1818"/>
                </g>
              </g>
            </g>
            <g id="Grupo_1179059" data-name="Grupo 1179059" opacity="0.97">
              <g id="Grupo_1179058" data-name="Grupo 1179058">
                <g id="Grupo_1179057" data-name="Grupo 1179057" clip-path="url(#clip-path-6)">
                  <path id="Trazado_997080" data-name="Trazado 997080" d="M212.335,96.991A1.809,1.809,0,0,1,211,96.273a1.084,1.084,0,0,1-.075-.9.377.377,0,0,1,.185-.227,1.829,1.829,0,0,1,.863-.1,4.9,4.9,0,0,1,1.452.4.121.121,0,0,1,.074.108,1.977,1.977,0,0,1-.539,1.266.721.721,0,0,1-.626.168m-.382-1.7a1.6,1.6,0,0,0-.738.078.734.734,0,0,0,0,.792,1.6,1.6,0,0,0,1.14.59.534.534,0,0,0,.42-.085,1.866,1.866,0,0,0,.476-1.022,4.542,4.542,0,0,0-1.3-.353" fill="#1a1818"/>
                </g>
              </g>
            </g>
            <path id="Trazado_997081" data-name="Trazado 997081" d="M221.135,120.471s.24,7.087.231,9.5a71.209,71.209,0,0,0,.351,8.84c.87,7.2,2.4,16.229,2.73,17.55a5.444,5.444,0,0,1-2.866.469c-.414-.137-4.024-15.485-4.258-16.653-.457-2.283-1.616-9.21-1.874-9.479-.73-.763-1.1,10.021-1.1,10.692s.292,15.352.292,15.352a12.06,12.06,0,0,1-2.675.088c-.4-.145-2.343-14.982-2.337-16.592s-.149-18.081.482-20.224,10.457.184,10.457.184Z" fill="#243546"/>
            <path id="Trazado_997082" data-name="Trazado 997082" d="M217.724,101.718s5.07,1.157,5.291,1.653a53.331,53.331,0,0,0-.827,9.287c.221,3.141.606,9.838-.771,12.483-.827.716-10.114,1.268-11.987.5-.993-1.516-.662-9.121-.331-10.775s-.449-7.171.065-11.48c.4-.176,3.324-1.333,3.324-1.333s.937,1.322,1.948,1.469c.889.13,2.112-.6,3.288-1.8" fill="#e96537"/>
            <path id="Trazado_997083" data-name="Trazado 997083" d="M217.834,101.314c-.143.011-2.131,1.8-3.38,2.2.312.146,4.592.128,6.062-1.121a5.959,5.959,0,0,0-2.682-1.084" fill="#c75830"/>
            <path id="Trazado_997084" data-name="Trazado 997084" d="M214.325,103.537l-1.635-1.709a4.969,4.969,0,0,0-2.333,1.029c.184.68,3.784.68,3.968.68" fill="#c75830"/>
            <path id="Trazado_997085" data-name="Trazado 997085" d="M214.768,108.31a.109.109,0,0,0,.092-.049,1.3,1.3,0,0,0-.031-1.221c-.042-.092-.089-.183-.136-.274a1.662,1.662,0,0,1-.126-1.669c.028-.088.056-.176.08-.264a1.357,1.357,0,0,0-.142-1.283.11.11,0,0,0-.155-.013.111.111,0,0,0-.012.156,1.205,1.205,0,0,1,.1,1.081c-.024.085-.051.171-.078.257a1.86,1.86,0,0,0,.14,1.835c.045.088.091.177.132.266a1.1,1.1,0,0,1,.047,1.007.111.111,0,0,0,.031.153.114.114,0,0,0,.061.018" fill="#c75830"/>
            <path id="Trazado_997086" data-name="Trazado 997086" d="M213.047,109.9a.111.111,0,0,0,.1-.06,2.133,2.133,0,0,0,.139-1.22c-.007-.065-.014-.13-.022-.195a3.161,3.161,0,0,1-.022-.95,3.1,3.1,0,0,1,.373-.9,2.733,2.733,0,0,0,.448-1.639c0-.113,0-.226.012-.339a1.342,1.342,0,0,1,.337-.915.11.11,0,0,0-.153-.159,1.549,1.549,0,0,0-.4,1.06c-.008.116-.01.232-.012.349a2.535,2.535,0,0,1-.422,1.538,2.537,2.537,0,0,0-.376,1.979c.008.064.015.128.022.192a1.946,1.946,0,0,1-.116,1.1.11.11,0,0,0,.048.149.112.112,0,0,0,.05.012" fill="#c75830"/>
            <path id="Trazado_997087" data-name="Trazado 997087" d="M209.089,103.4a83.424,83.424,0,0,0-.156,8.6c.165,2.755-.882,12.648.5,13.64a1.019,1.019,0,0,0,.358.055,30.319,30.319,0,0,1-.468-7.964c.248-5.07.238-14.485.238-14.485Z" fill="#c75830"/>
            <rect id="Rectángulo_455461" data-name="Rectángulo 455461" width="10.168" height="12.161" transform="translate(196.957 108.783)" fill="#e3b628"/>
            <rect id="Rectángulo_455462" data-name="Rectángulo 455462" width="4.455" height="12.161" transform="translate(207.125 108.783)" fill="#cf9b0b"/>
            <rect id="Rectángulo_455463" data-name="Rectángulo 455463" width="15.114" height="0.754" transform="translate(196.712 108.303)" fill="#8a7133"/>
            <rect id="Rectángulo_455464" data-name="Rectángulo 455464" width="3.545" height="1.412" transform="translate(200.379 110.465)" fill="#fff"/>
            <rect id="Rectángulo_455465" data-name="Rectángulo 455465" width="1.757" height="0.282" transform="translate(197.774 119.344)" fill="#636568"/>
            <rect id="Rectángulo_455466" data-name="Rectángulo 455466" width="0.827" height="0.282" transform="translate(197.775 119.991)" fill="#636568"/>
            <rect id="Rectángulo_455467" data-name="Rectángulo 455467" width="0.827" height="0.282" transform="translate(198.928 119.991)" fill="#636568"/>
            <rect id="Rectángulo_455468" data-name="Rectángulo 455468" width="8.201" height="9.809" transform="translate(198.277 98.494)" fill="#e3b628"/>
            <rect id="Rectángulo_455469" data-name="Rectángulo 455469" width="3.594" height="9.809" transform="translate(206.478 98.494)" fill="#cf9b0b"/>
            <rect id="Rectángulo_455470" data-name="Rectángulo 455470" width="12.191" height="0.608" transform="translate(198.079 98.107)" fill="#8a7133"/>
            <rect id="Rectángulo_455471" data-name="Rectángulo 455471" width="2.86" height="1.139" transform="translate(201.036 99.85)" fill="#fff"/>
            <rect id="Rectángulo_455472" data-name="Rectángulo 455472" width="1.13" height="0.228" transform="translate(198.937 107.012)" fill="#636568"/>
            <rect id="Rectángulo_455473" data-name="Rectángulo 455473" width="1.607" height="0.228" transform="translate(198.936 107.534)" fill="#636568"/>
            <path id="Trazado_997088" data-name="Trazado 997088" d="M212.147,120.831s-.529.854-1.215.953a7.413,7.413,0,0,1-2.021.05c-.455-.007-.867-.1-.653-.823.2-.676.858-.517,1.175-.549,1.179-.12.715-.926,1.892-1.152.182-.035,3.208-1.149,3.324-1.1.431.17.295,1.442.264,1.828a16.472,16.472,0,0,1-2.766.795" fill="#cfa479"/>
            <path id="Trazado_997089" data-name="Trazado 997089" d="M222.725,103.248s-.768-.326-.767.611A98.723,98.723,0,0,1,218.8,114.4c-.413.839-4.572,3.508-6.718,4.162-.548.4-.146,1.633.58,2.039,1.562.768,8.286-1.437,9.6-3.5,1.195-1.874,2.677-5.122,2.6-7.334-.2-6.059-2.142-6.522-2.142-6.522" fill="#ec7648"/>
            <path id="Trazado_997090" data-name="Trazado 997090" d="M199.906,120.943s-.631-.749-.851-.943c-.111-.1-.381-.256-.507-.136-.012.011-.281-.315-.491-.077-.01.012-.294-.284-.481.016-.005.01-.174-.049-.239-.017a.277.277,0,0,0-.155.221,1.571,1.571,0,0,0,.425,1.155,5.217,5.217,0,0,0,2.453.192.743.743,0,0,0,.288-.411s-.162,0-.442,0" fill="#cfa479"/>
            <rect id="Rectángulo_455474" data-name="Rectángulo 455474" width="23.417" height="24.228" transform="translate(95.133 132.574)" fill="#c2c4c6"/>
            <rect id="Rectángulo_455475" data-name="Rectángulo 455475" width="72.382" height="3.898" transform="translate(70.65 154.186)" fill="#313133"/>
            <g id="Grupo_1179062" data-name="Grupo 1179062" opacity="0.2">
              <g id="Grupo_1179061" data-name="Grupo 1179061">
                <g id="Grupo_1179060" data-name="Grupo 1179060" clip-path="url(#clip-path-7)">
                  <rect id="Rectángulo_455476" data-name="Rectángulo 455476" width="23.417" height="3.118" transform="translate(95.133 132.574)" fill="#1a1818"/>
                </g>
              </g>
            </g>
            <rect id="Rectángulo_455478" data-name="Rectángulo 455478" width="160.261" height="106.904" rx="4.078" transform="translate(26.711 25.67)" fill="#313133"/>
            <path id="Trazado_997091" data-name="Trazado 997091" d="M165.3,126.818a1.743,1.743,0,1,1-1.743-1.744,1.743,1.743,0,0,1,1.743,1.744" fill="#505153"/>
            <path id="Trazado_997092" data-name="Trazado 997092" d="M171.092,126.818a1.744,1.744,0,1,1-1.744-1.744,1.744,1.744,0,0,1,1.744,1.744" fill="#505153"/>
            <path id="Trazado_997093" data-name="Trazado 997093" d="M176.887,126.818a1.744,1.744,0,1,1-1.744-1.744,1.744,1.744,0,0,1,1.744,1.744" fill="#505153"/>
            <rect id="Rectángulo_455479" data-name="Rectángulo 455479" width="151.821" height="92.912" transform="translate(30.931 28.494)" fill="#fff"/>
            <rect id="Rectángulo_455480" data-name="Rectángulo 455480" width="151.821" height="13.405" transform="translate(30.931 28.494)" fill="#e0e1e3"/>
            <rect id="Rectángulo_455481" data-name="Rectángulo 455481" width="126.735" height="3.306" transform="translate(39.895 34.712)" fill="#fff"/>
            <path id="Trazado_997094" data-name="Trazado 997094" d="M168.291,31.665a1.394,1.394,0,1,1-1.391-1.317,1.355,1.355,0,0,1,1.391,1.317" fill="#00aae7"/>
            <path id="Trazado_997095" data-name="Trazado 997095" d="M173.29,31.665a1.393,1.393,0,1,1-1.391-1.317,1.355,1.355,0,0,1,1.391,1.317" fill="#00aae7"/>
            <path id="Trazado_997096" data-name="Trazado 997096" d="M178.29,31.665a1.394,1.394,0,1,1-1.391-1.317,1.355,1.355,0,0,1,1.391,1.317" fill="#00aae7"/>
            <path id="Trazado_997097" data-name="Trazado 997097" d="M36.665,36.971a1.465,1.465,0,0,0,.342-.934,1.479,1.479,0,1,0-1.479,1.478,1.464,1.464,0,0,0,.934-.341l.955.955a.144.144,0,0,0,.2-.2Zm-1.137.258a1.192,1.192,0,1,1,1.192-1.192,1.194,1.194,0,0,1-1.192,1.192" fill="#fff"/>
            <rect id="Rectángulo_455482" data-name="Rectángulo 455482" width="3.199" height="3.199" transform="translate(169.827 34.712)" fill="#fff"/>
            <rect id="Rectángulo_455483" data-name="Rectángulo 455483" width="3.199" height="3.199" transform="translate(175.034 34.765)" fill="#fff"/>
            <rect id="Rectángulo_455484" data-name="Rectángulo 455484" width="12.864" height="1.177" transform="translate(48.025 47.381)" fill="#008fd3"/>
            <rect id="Rectángulo_455485" data-name="Rectángulo 455485" width="19.123" height="1.177" transform="translate(64.422 47.381)" fill="#008fd3"/>
            <rect id="Rectángulo_455486" data-name="Rectángulo 455486" width="7.982" height="1.177" transform="translate(87.643 47.381)" fill="#008fd3"/>
            <rect id="Rectángulo_455487" data-name="Rectángulo 455487" width="11.362" height="1.177" transform="translate(99.409 47.381)" fill="#008fd3"/>
            <rect id="Rectángulo_455488" data-name="Rectángulo 455488" width="69.17" height="60.726" transform="translate(110.364 53.496)" fill="#e0e1e3"/>
            <rect id="Rectángulo_455489" data-name="Rectángulo 455489" width="32.552" height="17.134" transform="translate(111.369 74.736)" fill="#008fd3"/>
            <path id="Trazado_997098" data-name="Trazado 997098" d="M129.205,81.419l-1.122,2.192-1.973-3.853-3.942,7.7H132.3Z" fill="#fff"/>
            <path id="Trazado_997099" data-name="Trazado 997099" d="M131.594,79.459a.96.96,0,1,0,.96-.966.962.962,0,0,0-.96.966" fill="#fff"/>
            <rect id="Rectángulo_455490" data-name="Rectángulo 455490" width="32.552" height="17.134" transform="translate(145.893 74.736)" fill="#008fd3"/>
            <path id="Trazado_997100" data-name="Trazado 997100" d="M163.729,81.419l-1.122,2.192-1.973-3.853-3.942,7.7h10.129Z" fill="#fff"/>
            <path id="Trazado_997101" data-name="Trazado 997101" d="M166.118,79.459a.96.96,0,1,0,.96-.966.962.962,0,0,0-.96.966" fill="#fff"/>
            <rect id="Rectángulo_455491" data-name="Rectángulo 455491" width="17.18" height="4.294" transform="translate(114.653 67.697)" fill="#00aae7"/>
            <rect id="Rectángulo_455492" data-name="Rectángulo 455492" width="12.22" height="1.41" transform="translate(117.133 69.14)" fill="#fff"/>
            <rect id="Rectángulo_455493" data-name="Rectángulo 455493" width="14.502" height="1.176" transform="translate(114.653 55.867)" fill="#00aae7"/>
            <rect id="Rectángulo_455494" data-name="Rectángulo 455494" width="9.493" height="0.85" transform="translate(114.654 59.329)" fill="#00aae7"/>
            <rect id="Rectángulo_455495" data-name="Rectángulo 455495" width="12.86" height="0.85" transform="translate(126.688 59.329)" fill="#00aae7"/>
            <rect id="Rectángulo_455496" data-name="Rectángulo 455496" width="7.702" height="0.85" transform="translate(157.781 59.329)" fill="#00aae7"/>
            <rect id="Rectángulo_455497" data-name="Rectángulo 455497" width="12.633" height="0.85" transform="translate(142.385 59.329)" fill="#00aae7"/>
            <rect id="Rectángulo_455498" data-name="Rectángulo 455498" width="12.86" height="0.85" transform="translate(114.653 64.295)" fill="#00aae7"/>
            <rect id="Rectángulo_455499" data-name="Rectángulo 455499" width="7.702" height="0.85" transform="translate(145.746 64.295)" fill="#00aae7"/>
            <rect id="Rectángulo_455500" data-name="Rectángulo 455500" width="12.633" height="0.85" transform="translate(130.351 64.295)" fill="#00aae7"/>
            <rect id="Rectángulo_455501" data-name="Rectángulo 455501" width="11.254" height="0.85" transform="translate(163.661 61.746)" fill="#00aae7"/>
            <rect id="Rectángulo_455502" data-name="Rectángulo 455502" width="15.247" height="0.85" transform="translate(145.401 61.746)" fill="#00aae7"/>
            <rect id="Rectángulo_455503" data-name="Rectángulo 455503" width="9.132" height="0.85" transform="translate(114.653 61.747)" fill="#00aae7"/>
            <rect id="Rectángulo_455504" data-name="Rectángulo 455504" width="16.52" height="0.85" transform="translate(126.314 61.746)" fill="#00aae7"/>
            <rect id="Rectángulo_455505" data-name="Rectángulo 455505" width="14.501" height="1.176" transform="translate(150.982 55.867)" fill="#00aae7"/>
            <rect id="Rectángulo_455506" data-name="Rectángulo 455506" width="9.86" height="1.176" transform="translate(134.618 55.867)" fill="#00aae7"/>
            <rect id="Rectángulo_455507" data-name="Rectángulo 455507" width="8.111" height="3.726" transform="translate(112.867 106.978)" fill="#00aae7"/>
            <rect id="Rectángulo_455508" data-name="Rectángulo 455508" width="5.769" height="1.223" transform="translate(114.038 108.23)" fill="#fff"/>
            <rect id="Rectángulo_455509" data-name="Rectángulo 455509" width="6.846" height="1.021" transform="translate(112.867 97.733)" fill="#00aae7"/>
            <rect id="Rectángulo_455510" data-name="Rectángulo 455510" width="4.482" height="0.737" transform="translate(112.867 100.738)" fill="#00aae7"/>
            <rect id="Rectángulo_455511" data-name="Rectángulo 455511" width="6.071" height="0.737" transform="translate(118.549 100.738)" fill="#00aae7"/>
            <rect id="Rectángulo_455512" data-name="Rectángulo 455512" width="3.636" height="0.737" transform="translate(133.229 100.738)" fill="#00aae7"/>
            <rect id="Rectángulo_455513" data-name="Rectángulo 455513" width="5.965" height="0.737" transform="translate(125.959 100.738)" fill="#00aae7"/>
            <rect id="Rectángulo_455514" data-name="Rectángulo 455514" width="6.071" height="0.737" transform="translate(112.867 105.046)" fill="#00aae7"/>
            <rect id="Rectángulo_455515" data-name="Rectángulo 455515" width="3.636" height="0.737" transform="translate(127.547 105.046)" fill="#00aae7"/>
            <rect id="Rectángulo_455516" data-name="Rectángulo 455516" width="5.964" height="0.737" transform="translate(120.278 105.046)" fill="#00aae7"/>
            <rect id="Rectángulo_455517" data-name="Rectángulo 455517" width="5.314" height="0.737" transform="translate(136.004 102.835)" fill="#00aae7"/>
            <rect id="Rectángulo_455518" data-name="Rectángulo 455518" width="7.198" height="0.737" transform="translate(127.383 102.835)" fill="#00aae7"/>
            <rect id="Rectángulo_455519" data-name="Rectángulo 455519" width="4.311" height="0.737" transform="translate(112.867 102.835)" fill="#00aae7"/>
            <rect id="Rectángulo_455520" data-name="Rectángulo 455520" width="7.799" height="0.737" transform="translate(118.372 102.835)" fill="#00aae7"/>
            <rect id="Rectángulo_455521" data-name="Rectángulo 455521" width="6.846" height="1.021" transform="translate(130.019 97.733)" fill="#00aae7"/>
            <rect id="Rectángulo_455522" data-name="Rectángulo 455522" width="4.655" height="1.021" transform="translate(122.293 97.733)" fill="#00aae7"/>
            <rect id="Rectángulo_455523" data-name="Rectángulo 455523" width="8.111" height="3.726" transform="translate(147.483 106.978)" fill="#00aae7"/>
            <rect id="Rectángulo_455524" data-name="Rectángulo 455524" width="5.769" height="1.223" transform="translate(148.654 108.23)" fill="#fff"/>
            <rect id="Rectángulo_455525" data-name="Rectángulo 455525" width="6.846" height="1.021" transform="translate(147.483 97.733)" fill="#00aae7"/>
            <rect id="Rectángulo_455526" data-name="Rectángulo 455526" width="4.482" height="0.737" transform="translate(147.483 100.738)" fill="#00aae7"/>
            <rect id="Rectángulo_455527" data-name="Rectángulo 455527" width="6.072" height="0.737" transform="translate(153.164 100.738)" fill="#00aae7"/>
            <rect id="Rectángulo_455528" data-name="Rectángulo 455528" width="3.636" height="0.737" transform="translate(167.845 100.738)" fill="#00aae7"/>
            <rect id="Rectángulo_455529" data-name="Rectángulo 455529" width="5.964" height="0.737" transform="translate(160.576 100.738)" fill="#00aae7"/>
            <rect id="Rectángulo_455530" data-name="Rectángulo 455530" width="6.071" height="0.737" transform="translate(147.483 105.046)" fill="#00aae7"/>
            <rect id="Rectángulo_455531" data-name="Rectángulo 455531" width="3.636" height="0.737" transform="translate(162.163 105.046)" fill="#00aae7"/>
            <rect id="Rectángulo_455532" data-name="Rectángulo 455532" width="5.964" height="0.737" transform="translate(154.894 105.046)" fill="#00aae7"/>
            <rect id="Rectángulo_455533" data-name="Rectángulo 455533" width="5.314" height="0.737" transform="translate(170.62 102.835)" fill="#00aae7"/>
            <rect id="Rectángulo_455534" data-name="Rectángulo 455534" width="7.198" height="0.737" transform="translate(162 102.835)" fill="#00aae7"/>
            <rect id="Rectángulo_455535" data-name="Rectángulo 455535" width="4.311" height="0.737" transform="translate(147.483 102.835)" fill="#00aae7"/>
            <rect id="Rectángulo_455536" data-name="Rectángulo 455536" width="7.799" height="0.737" transform="translate(152.989 102.835)" fill="#00aae7"/>
            <rect id="Rectángulo_455537" data-name="Rectángulo 455537" width="6.847" height="1.021" transform="translate(164.634 97.733)" fill="#00aae7"/>
            <rect id="Rectángulo_455538" data-name="Rectángulo 455538" width="4.655" height="1.021" transform="translate(156.909 97.733)" fill="#00aae7"/>
            <path id="Trazado_997102" data-name="Trazado 997102" d="M37.9,59.257l9.691-.01c.582-.763,1.284-1.549,1.706-1.55l3.564,0a.514.514,0,0,1,.513.511L53.39,69.61a.513.513,0,0,1-.511.512l-14.964.016a.514.514,0,0,1-.512-.511l-.01-9.858a.513.513,0,0,1,.511-.512" fill="#f3b50a"/>
            <rect id="Rectángulo_455539" data-name="Rectángulo 455539" width="14.653" height="9.312" transform="translate(38.035 59.95) rotate(-0.059)" fill="#fff"/>
            <path id="Trazado_997103" data-name="Trazado 997103" d="M53.459,60.368l-10.356-.1c-.628-.7-1.393-1.417-1.848-1.422L37.41,58.8a.483.483,0,0,0-.531.459l.471,10.373a.521.521,0,0,0,.533.467l14.964.067a.528.528,0,0,0,.542-.458l.586-8.873a.477.477,0,0,0-.516-.466" fill="#ffd12b"/>
            <path id="Trazado_997104" data-name="Trazado 997104" d="M62.348,59.257l9.691-.01c.582-.763,1.284-1.549,1.706-1.55l3.564,0a.514.514,0,0,1,.513.511l.012,11.406a.513.513,0,0,1-.512.512l-14.963.016a.514.514,0,0,1-.512-.511l-.01-9.858a.513.513,0,0,1,.511-.512" fill="#f3b50a"/>
            <rect id="Rectángulo_455540" data-name="Rectángulo 455540" width="14.653" height="9.312" transform="translate(62.479 59.95) rotate(-0.059)" fill="#fff"/>
            <path id="Trazado_997105" data-name="Trazado 997105" d="M77.9,60.368l-10.356-.1c-.628-.7-1.393-1.417-1.848-1.422L61.854,58.8a.483.483,0,0,0-.531.459l.471,10.373a.521.521,0,0,0,.533.467l14.964.067a.528.528,0,0,0,.542-.458l.586-8.873a.477.477,0,0,0-.516-.466" fill="#ffd12b"/>
            <path id="Trazado_997106" data-name="Trazado 997106" d="M86.792,59.257l9.691-.01c.582-.763,1.284-1.549,1.706-1.55l3.564,0a.514.514,0,0,1,.513.511l.012,11.406a.513.513,0,0,1-.512.512L86.8,70.138a.514.514,0,0,1-.512-.511l-.01-9.858a.513.513,0,0,1,.511-.512" fill="#f3b50a"/>
            <rect id="Rectángulo_455541" data-name="Rectángulo 455541" width="14.653" height="9.312" transform="translate(86.923 59.95) rotate(-0.059)" fill="#fff"/>
            <path id="Trazado_997107" data-name="Trazado 997107" d="M102.347,60.368l-10.356-.1c-.628-.7-1.393-1.417-1.848-1.422L86.3,58.8a.483.483,0,0,0-.531.459l.471,10.373a.521.521,0,0,0,.533.467l14.964.067a.528.528,0,0,0,.542-.458l.586-8.873a.477.477,0,0,0-.516-.466" fill="#ffd12b"/>
            <path id="Trazado_997108" data-name="Trazado 997108" d="M37.9,80.511,47.6,80.5c.582-.763,1.284-1.549,1.706-1.55l3.564,0a.514.514,0,0,1,.513.511l.012,11.406a.513.513,0,0,1-.511.512l-14.964.016a.514.514,0,0,1-.512-.511l-.01-9.858a.513.513,0,0,1,.511-.512" fill="#f3b50a"/>
            <rect id="Rectángulo_455542" data-name="Rectángulo 455542" width="14.653" height="9.312" transform="translate(38.035 81.204) rotate(-0.059)" fill="#fff"/>
            <path id="Trazado_997109" data-name="Trazado 997109" d="M53.459,81.622,43.1,81.517c-.628-.7-1.393-1.417-1.848-1.422l-3.845-.042a.483.483,0,0,0-.531.459l.471,10.373a.521.521,0,0,0,.533.467l14.964.067a.528.528,0,0,0,.542-.458l.586-8.873a.477.477,0,0,0-.516-.466" fill="#ffd12b"/>
            <path id="Trazado_997110" data-name="Trazado 997110" d="M62.348,80.511l9.691-.01c.582-.763,1.284-1.549,1.706-1.55l3.564,0a.514.514,0,0,1,.513.511l.012,11.406a.513.513,0,0,1-.512.512l-14.963.016a.514.514,0,0,1-.512-.511l-.01-9.858a.513.513,0,0,1,.511-.512" fill="#f3b50a"/>
            <rect id="Rectángulo_455543" data-name="Rectángulo 455543" width="14.653" height="9.312" transform="translate(62.479 81.204) rotate(-0.059)" fill="#fff"/>
            <path id="Trazado_997111" data-name="Trazado 997111" d="M77.9,81.622l-10.356-.105c-.628-.7-1.393-1.417-1.848-1.422l-3.845-.042a.483.483,0,0,0-.531.459l.471,10.373a.521.521,0,0,0,.533.467l14.964.067a.528.528,0,0,0,.542-.458l.586-8.873a.477.477,0,0,0-.516-.466" fill="#ffd12b"/>
            <path id="Trazado_997112" data-name="Trazado 997112" d="M86.792,80.511l9.691-.01c.582-.763,1.284-1.549,1.706-1.55l3.564,0a.514.514,0,0,1,.513.511l.012,11.406a.513.513,0,0,1-.512.512L86.8,91.392a.514.514,0,0,1-.512-.511l-.01-9.858a.513.513,0,0,1,.511-.512" fill="#f3b50a"/>
            <rect id="Rectángulo_455544" data-name="Rectángulo 455544" width="14.653" height="9.312" transform="translate(86.923 81.204) rotate(-0.059)" fill="#fff"/>
            <path id="Trazado_997113" data-name="Trazado 997113" d="M102.347,81.622l-10.356-.105c-.628-.7-1.393-1.417-1.848-1.422L86.3,80.053a.483.483,0,0,0-.531.459l.471,10.373a.521.521,0,0,0,.533.467l14.964.067a.528.528,0,0,0,.542-.458l.586-8.873a.477.477,0,0,0-.516-.466" fill="#ffd12b"/>
            <path id="Trazado_997114" data-name="Trazado 997114" d="M37.9,101.766l9.691-.01c.582-.763,1.284-1.549,1.706-1.55l3.564,0a.514.514,0,0,1,.513.511l.012,11.406a.513.513,0,0,1-.511.512l-14.964.016a.514.514,0,0,1-.512-.511l-.01-9.858a.513.513,0,0,1,.511-.512" fill="#f3b50a"/>
            <rect id="Rectángulo_455545" data-name="Rectángulo 455545" width="14.653" height="9.312" transform="translate(38.035 102.459) rotate(-0.059)" fill="#fff"/>
            <path id="Trazado_997115" data-name="Trazado 997115" d="M53.459,102.877l-10.356-.1c-.628-.7-1.393-1.417-1.848-1.422l-3.845-.042a.483.483,0,0,0-.531.459l.471,10.373a.521.521,0,0,0,.533.467l14.964.067a.528.528,0,0,0,.542-.458l.586-8.873a.477.477,0,0,0-.516-.466" fill="#ffd12b"/>
            <path id="Trazado_997116" data-name="Trazado 997116" d="M62.348,101.766l9.691-.01c.582-.763,1.284-1.549,1.706-1.55l3.564,0a.514.514,0,0,1,.513.511l.012,11.406a.513.513,0,0,1-.512.512l-14.963.016a.514.514,0,0,1-.512-.511l-.01-9.858a.513.513,0,0,1,.511-.512" fill="#f3b50a"/>
            <rect id="Rectángulo_455546" data-name="Rectángulo 455546" width="14.653" height="9.312" transform="translate(62.479 102.459) rotate(-0.059)" fill="#fff"/>
            <path id="Trazado_997117" data-name="Trazado 997117" d="M77.9,102.877l-10.356-.1c-.628-.7-1.393-1.417-1.848-1.422l-3.845-.042a.483.483,0,0,0-.531.459l.471,10.373a.521.521,0,0,0,.533.467l14.964.067a.528.528,0,0,0,.542-.458l.586-8.873a.477.477,0,0,0-.516-.466" fill="#ffd12b"/>
            <path id="Trazado_997118" data-name="Trazado 997118" d="M86.792,101.766l9.691-.01c.582-.763,1.284-1.549,1.706-1.55l3.564,0a.514.514,0,0,1,.513.511l.012,11.406a.513.513,0,0,1-.512.512l-14.963.016a.514.514,0,0,1-.512-.511l-.01-9.858a.513.513,0,0,1,.511-.512" fill="#f3b50a"/>
            <rect id="Rectángulo_455547" data-name="Rectángulo 455547" width="14.653" height="9.312" transform="translate(86.923 102.459) rotate(-0.059)" fill="#fff"/>
            <path id="Trazado_997119" data-name="Trazado 997119" d="M102.347,102.877l-10.356-.1c-.628-.7-1.393-1.417-1.848-1.422l-3.845-.042a.483.483,0,0,0-.531.459l.471,10.373a.521.521,0,0,0,.533.467l14.964.067a.528.528,0,0,0,.542-.458l.586-8.873a.477.477,0,0,0-.516-.466" fill="#ffd12b"/>
            <path id="Trazado_997120" data-name="Trazado 997120" d="M45.894,48.558a3.267,3.267,0,1,1-3.268-3.268,3.268,3.268,0,0,1,3.268,3.268" fill="#e0e1e3"/>
            <path id="Trazado_997121" data-name="Trazado 997121" d="M43.817,47.413a1.192,1.192,0,1,1-1.191-1.191,1.191,1.191,0,0,1,1.191,1.191" fill="#008fd3"/>
            <path id="Trazado_997122" data-name="Trazado 997122" d="M44.6,51.163q-.2-.73-.4-1.46c-.376-1.364-2.83-1.364-3.147,0q-.2.729-.4,1.46a3.269,3.269,0,0,0,3.947,0" fill="#008fd3"/>
            <rect id="Rectángulo_455548" data-name="Rectángulo 455548" width="8.231" height="1.089" transform="translate(40.871 72.055)" fill="#e0e1e3"/>
            <rect id="Rectángulo_455549" data-name="Rectángulo 455549" width="8.231" height="1.089" transform="translate(65.613 72.055)" fill="#e0e1e3"/>
            <rect id="Rectángulo_455550" data-name="Rectángulo 455550" width="8.231" height="1.089" transform="translate(90.252 72.055)" fill="#e0e1e3"/>
            <rect id="Rectángulo_455551" data-name="Rectángulo 455551" width="8.231" height="1.089" transform="translate(40.871 93.373)" fill="#e0e1e3"/>
            <rect id="Rectángulo_455552" data-name="Rectángulo 455552" width="8.231" height="1.089" transform="translate(65.613 93.373)" fill="#e0e1e3"/>
            <rect id="Rectángulo_455553" data-name="Rectángulo 455553" width="8.231" height="1.089" transform="translate(90.252 93.373)" fill="#e0e1e3"/>
            <rect id="Rectángulo_455554" data-name="Rectángulo 455554" width="8.231" height="1.089" transform="translate(40.871 114.691)" fill="#e0e1e3"/>
            <rect id="Rectángulo_455555" data-name="Rectángulo 455555" width="8.231" height="1.089" transform="translate(65.613 114.691)" fill="#e0e1e3"/>
            <rect id="Rectángulo_455556" data-name="Rectángulo 455556" width="8.231" height="1.089" transform="translate(90.252 114.691)" fill="#e0e1e3"/>
            <path id="Trazado_997123" data-name="Trazado 997123" d="M12.029,96.456s-1.188-.169-1.459.484.163.455.2.315.1-.644,1.41-.526c.066,0,.118-.251-.151-.273" fill="#1a1818"/>
            <path id="Trazado_997124" data-name="Trazado 997124" d="M13.24,96.515l-1.906.333.155.136L13.18,96.9Z" fill="#160000"/>
            <path id="Trazado_997125" data-name="Trazado 997125" d="M16.907,95.578a1.1,1.1,0,0,1-.81.313c-.164.029.331.7.331.7s.077-.933.428-.347c.1.167.051-.669.051-.669" fill="#160000"/>
            <g id="Grupo_1179065" data-name="Grupo 1179065" opacity="0.97">
              <g id="Grupo_1179064" data-name="Grupo 1179064">
                <g id="Grupo_1179063" data-name="Grupo 1179063" clip-path="url(#clip-path-8)">
                  <path id="Trazado_997126" data-name="Trazado 997126" d="M13.493,97.711a1.093,1.093,0,0,1-.444-.787.655.655,0,0,1,.154-.483,4.7,4.7,0,0,1,1.195-.508,4,4,0,0,1,1.7-.108.993.993,0,0,1,.479.9,1.029,1.029,0,0,1-.647,1.058,3.054,3.054,0,0,1-2.439-.074m-.134-1.063c-.036.069-.2.448.289.857a2.637,2.637,0,0,0,1.872.147,2.708,2.708,0,0,0,.315-.106.782.782,0,0,0,.486-.808.831.831,0,0,0-.284-.664,3.856,3.856,0,0,0-1.573.108,4.423,4.423,0,0,0-1.1.466" fill="#1a1818"/>
                </g>
              </g>
            </g>
            <g id="Grupo_1179068" data-name="Grupo 1179068" opacity="0.97">
              <g id="Grupo_1179067" data-name="Grupo 1179067">
                <g id="Grupo_1179066" data-name="Grupo 1179066" clip-path="url(#clip-path-9)">
                  <path id="Trazado_997127" data-name="Trazado 997127" d="M17.482,97a2.089,2.089,0,0,1-.791-1.218.129.129,0,0,1,.058-.125,5.145,5.145,0,0,1,1.435-.684,1.93,1.93,0,0,1,.916-.054.4.4,0,0,1,.232.2,1.138,1.138,0,0,1,.087.951,1.906,1.906,0,0,1-1.256.987.756.756,0,0,1-.681-.06m-.518-1.176a1.97,1.97,0,0,0,.68.976.568.568,0,0,0,.453.013A1.691,1.691,0,0,0,19.174,96a.775.775,0,0,0-.142-.823,1.687,1.687,0,0,0-.782.053,4.8,4.8,0,0,0-1.286.6" fill="#1a1818"/>
                </g>
              </g>
            </g>
            <path id="Trazado_997128" data-name="Trazado 997128" d="M30.639,85.956a.8.8,0,0,0-.066-.266c-.015-.013-.213-.1-.227-.11-.173-.092-.047-.171-.174-.321l0,.021s-.37-.285-.562.077a.436.436,0,0,0-.593.1.465.465,0,0,0-.523.2c-.024-.029-.482.517-.406.786s-.2,1.321.229,1.821a1.318,1.318,0,0,1,.2.742,2.482,2.482,0,0,0,.345.962l1.676-.23-.2-1.662.129-.481.211-.671Z" fill="#e4b384"/>
            <path id="Trazado_997129" data-name="Trazado 997129" d="M30.124,85.3a.839.839,0,0,0,.394.509c.1.047-.1.859-.254,1.065s-.39.455-.459.586.132.561.038.468c-.246-.241-.871-.083-1.059.081s.639-.632.678-.816-1.074-.4-1.145-.589.178-.885.513-.914a8.675,8.675,0,0,0,1.294-.39" fill="#d7aa7d"/>
            <rect id="Rectángulo_455559" data-name="Rectángulo 455559" width="24.786" height="3.439" transform="translate(20.861 98.123) rotate(-64.881)" fill="#2a292a"/>
            <g id="Grupo_1179071" data-name="Grupo 1179071" opacity="0.12">
              <g id="Grupo_1179070" data-name="Grupo 1179070">
                <g id="Grupo_1179069" data-name="Grupo 1179069" clip-path="url(#clip-path-10)">
                  <path id="Trazado_997130" data-name="Trazado 997130" d="M25.841,59.951A13.994,13.994,0,1,0,42.1,48.667,13.995,13.995,0,0,0,25.841,59.951" fill="#d993a7"/>
                </g>
              </g>
            </g>
            <g id="Grupo_1179074" data-name="Grupo 1179074" opacity="0.31">
              <g id="Grupo_1179073" data-name="Grupo 1179073">
                <g id="Grupo_1179072" data-name="Grupo 1179072" clip-path="url(#clip-path-11)">
                  <path id="Trazado_997131" data-name="Trazado 997131" d="M45.942,56.257c-3.509-3.888-8.714-5.134-12.686-3.37,4.054-3.328,10.52-2.406,14.644,2.162,4.229,4.685,4.392,11.43.365,15.066A8.551,8.551,0,0,1,46,71.585c.1-.085.205-.172.306-.262,4.027-3.636,3.864-10.381-.365-15.066" fill="#fff"/>
                </g>
              </g>
            </g>
            <path id="Trazado_997132" data-name="Trazado 997132" d="M45.918,48.988a14.856,14.856,0,1,0,7.144,19.758,14.856,14.856,0,0,0-7.144-19.758M34.065,74.269a13.066,13.066,0,1,1,17.377-6.283,13.065,13.065,0,0,1-17.377,6.283" fill="#2a292a"/>
            <path id="Trazado_997133" data-name="Trazado 997133" d="M35.543,78.322,30,75.725a.485.485,0,0,1-.234-.647l.3-.649a.488.488,0,0,1,.648-.234l5.539,2.6a.486.486,0,0,1,.234.647l-.3.648a.486.486,0,0,1-.647.234" fill="#636568"/>
            <path id="Trazado_997134" data-name="Trazado 997134" d="M30.393,85.5a3.553,3.553,0,0,1,.263,1.488c-.067.254-.575.186-.7-.067-.139-.288.11-.827.11-.827a1.456,1.456,0,0,0-.087-.467.916.916,0,0,1-.028-.619c.019-.031.156-.179.209-.129a4.583,4.583,0,0,1,.229.621" fill="#e4b384"/>
            <path id="Trazado_997135" data-name="Trazado 997135" d="M6.335,125.948l-1.154.9s-.547,2.685.523,2.6a3.457,3.457,0,0,0,1.821-.677c.084-.1.054-.327-.037-.6a2.265,2.265,0,0,0,.154-.665c-.074-.235-.736-.493-1.009-.729a2.822,2.822,0,0,1-.3-.831" fill="#e4b384"/>
            <path id="Trazado_997136" data-name="Trazado 997136" d="M1.921,140.271l10.117-1.079a.706.706,0,0,0,.561-.817l-.173-8.494c-.048-.407-1.225-.893-1.58-.852L.923,130.224c-.356.041-1.01.415-.913,1.025L.844,138.8c.047.408.722,1.516,1.077,1.474" fill="#2b1800"/>
            <path id="Trazado_997137" data-name="Trazado 997137" d="M2.419,140.321,12.852,139.1a.681.681,0,0,0,.595-.754L12.48,130.1a.682.682,0,0,0-.753-.6L1.294,130.731a.681.681,0,0,0-.6.753l.967,8.242a.681.681,0,0,0,.754.6" fill="#3d250a"/>
            <path id="Trazado_997138" data-name="Trazado 997138" d="M1.326,130.727s-.677-.047-.661.53c.02.7.895,8.334,1.094,8.688.231.407.472.28.533.332a58.9,58.9,0,0,1-.966-9.55" fill="#331d00"/>
            <path id="Trazado_997139" data-name="Trazado 997139" d="M7.863,129.845l1.519-.178a.132.132,0,0,0,.115-.144l-.005-.036a.129.129,0,0,0-.144-.113l-1.52.178a.132.132,0,0,0-.114.144l.006.036a.129.129,0,0,0,.143.113" fill="#564a00"/>
            <path id="Trazado_997140" data-name="Trazado 997140" d="M3.146,130.362l1.547-.181a.116.116,0,0,0,.1-.128l-.008-.063a.116.116,0,0,0-.128-.1l-1.547.181a.116.116,0,0,0-.1.13l.007.063a.115.115,0,0,0,.129.1" fill="#564a00"/>
            <path id="Trazado_997141" data-name="Trazado 997141" d="M8.576,129.662h.005a.3.3,0,0,0,.28-.308c0-.018-.273-1.8-2.85-1.576l-.021,0c-2.083.3-2.463,1.33-2.414,2.14a.291.291,0,0,0,.334.244.3.3,0,0,0,.3-.292c-.051-.871.537-1.367,1.851-1.56,1.97-.169,2.159,1.071,2.166,1.124a.3.3,0,0,0,.348.226" fill="#8b7510"/>
            <path id="Trazado_997142" data-name="Trazado 997142" d="M6.79,126.345l.15.514a2.96,2.96,0,0,1-1.95.31c0,.015-.064-.606-.064-.606Z" fill="#d6d7d9"/>
            <path id="Trazado_997143" data-name="Trazado 997143" d="M7.809,105.161s-1-.445-1.906,3.1c-.837,3.267-2.887,8.649-2.938,9.275s.1,3.259,1.677,9.325a3.082,3.082,0,0,0,2.316-.383c.117-.463-1.081-7.071-.563-8.6.374-1.107,2.116-5.325,2.116-5.325Z" fill="#2d2c2d"/>
            <path id="Trazado_997144" data-name="Trazado 997144" d="M28.545,89.425l-.048-.543a3.622,3.622,0,0,1,2.188.231c0-.014-.067.608-.067.608Z" fill="#d6d7d9"/>
            <path id="Trazado_997145" data-name="Trazado 997145" d="M22.91,110.022s.6.178,2.212-2.816c1.6-2.969,4.844-7.726,5.041-8.323s.67-3.191.567-9.458a3.083,3.083,0,0,0-2.341-.172c-.222.422-.615,7.126-1.479,8.5-.624.986-3.4,5.305-3.4,5.305Z" fill="#2d2c2d"/>
            <path id="Trazado_997146" data-name="Trazado 997146" d="M6.1,155.147l-.634,2.841,2.067.3.726-3.211Z" fill="#1e1c1d"/>
            <path id="Trazado_997147" data-name="Trazado 997147" d="M16.158,155.019l-.731,2.7,2.157.082.789-2.9Z" fill="#1e1c1d"/>
            <path id="Trazado_997148" data-name="Trazado 997148" d="M9.035,122.528s-.25,6.483-.24,8.692a57.4,57.4,0,0,1-.365,8.086c-.905,6.583-3.124,16.024-3.471,17.232.434.734,3.1.625,3.529.5s3.943-15.6,4.186-16.67c.476-2.089,2.106-10.391,2.374-10.638.759-.7,1.454,11.111,1.457,11.724s-.916,15.4-.916,15.4,2.942.076,3.5-.361c.329-.256,1.917-14.411,1.91-15.884s.155-16.539-.5-18.5-10.872.168-10.872.168Z" fill="#282628"/>
            <path id="Trazado_997149" data-name="Trazado 997149" d="M18.177,156.82s2.76,2.238,3.7,2.233c.593.1,1.974-.275,1.734,1.269-.442.427-4.247.232-5.037.236-.4-.158-.744-.635-1.235.005-.494.056-2.371-.042-2.371-.042a3.673,3.673,0,0,1,.2-3.191,3.393,3.393,0,0,0,3.011-.51" fill="#3c201b"/>
            <path id="Trazado_997150" data-name="Trazado 997150" d="M23.529,160.907l-4.845.022a.232.232,0,0,1-.233-.231l0-.279a.235.235,0,0,1,.232-.234l4.844-.023a.233.233,0,0,1,.234.232l0,.279a.235.235,0,0,1-.232.234" fill="#2a0f12"/>
            <path id="Trazado_997151" data-name="Trazado 997151" d="M17.266,160.936l-2.346.011a.24.24,0,0,1-.24-.238l0-.3a.24.24,0,0,1,.238-.24l2.346-.011a.238.238,0,0,1,.24.238l0,.3a.241.241,0,0,1-.238.24" fill="#2a0f12"/>
            <path id="Trazado_997152" data-name="Trazado 997152" d="M19.14,157.348l-.427.434c-.021.022-.067.007-.1-.033l-.1-.115c-.029-.033-.037-.075-.02-.092l.427-.435c.021-.021.067-.006.1.034l.1.114c.029.033.038.075.02.093" fill="#25100e"/>
            <path id="Trazado_997153" data-name="Trazado 997153" d="M19.81,157.85l-.416.425c-.021.021-.066.006-.1-.034l-.1-.115c-.028-.033-.038-.074-.021-.092l.417-.425c.021-.021.066-.006.1.035l.1.114c.029.033.038.075.021.092" fill="#25100e"/>
            <path id="Trazado_997154" data-name="Trazado 997154" d="M20.518,158.31l-.321.329c-.02.021-.064,0-.1-.035l-.1-.115c-.028-.033-.038-.074-.022-.091l.321-.329c.02-.02.064,0,.1.036l.1.114c.029.033.038.074.022.091" fill="#25100e"/>
            <path id="Trazado_997155" data-name="Trazado 997155" d="M4.488,158.925a2.089,2.089,0,0,1,.88-1.736c.216-.139.376.124.46.179a1.5,1.5,0,0,0,1.289.191c.194-.038.376-.3.614-.24.2.049.249.3.316.418a1.846,1.846,0,0,1,.116,1.711.854.854,0,0,1-.5.511c-.16.05-2.5.223-2.693-.038a1,1,0,0,1-.485-1" fill="#3c201b"/>
            <path id="Trazado_997156" data-name="Trazado 997156" d="M7.671,160.6l-2.646.012a.189.189,0,0,1-.19-.188v-.3a.19.19,0,0,1,.188-.191l2.646-.012a.19.19,0,0,1,.19.189l0,.3a.191.191,0,0,1-.189.19" fill="#2a0f12"/>
            <path id="Trazado_997157" data-name="Trazado 997157" d="M9.656,127.192s-.195,10.051-.3,10.4S7.708,147.565,7.19,149.28c-.18.859-1.806,7.577-1.806,7.577s-.48-.1-.551-.277c-.033-.138,2.387-11.306,2.387-11.306s1.324-7.526,1.332-7.82.346-10.577.346-10.577Z" fill="#232122"/>
            <path id="Trazado_997158" data-name="Trazado 997158" d="M16.789,101.064s-.019,1.663.335,1.956a12.46,12.46,0,0,0,1.14.761s-1.529,2.167-3.73,2.194-2.833-2.4-2.833-2.4,1.73-.627,1.765-1.052-.443-3.533-.443-3.533Z" fill="#cfa479"/>
            <path id="Trazado_997159" data-name="Trazado 997159" d="M17.85,91.379a13.291,13.291,0,0,1,.689,2.525c-.055.447.167.714.379,1.168a7.548,7.548,0,0,1,.363,2.185c.048.841-.029,3.426-1.95,3.89a6.393,6.393,0,0,1-3.092.187c-.48-.175-.812-.563-1.472-1.788-.275-.509-.347-.838-.6-.82s-.811-.335-1.313-1.319c-.461-.9.94-.134.94-.134l-.835-.979s-.536-2.392.055-3.583c.377-.759,5.358-3.344,6.84-1.332" fill="#e4b384"/>
            <path id="Trazado_997160" data-name="Trazado 997160" d="M21.56,121.143c.032-.778,2.181-16.873,2-18.047-.033-.217-1.483.33-5.278.33a5.478,5.478,0,0,1-4.17.678,6.993,6.993,0,0,1-1.34-.406,1.522,1.522,0,0,0-1.028-.23,20.338,20.338,0,0,0-4.313,1.784c-.3.492,1.626,14.264,1.688,15.711.053,1.238-.777,6.457-.575,6.777,1.916,1.26,12.676,1.142,13.238.5.3-.518-.256-6.319-.224-7.1" fill="#2d2c2d"/>
            <path id="Trazado_997161" data-name="Trazado 997161" d="M8.65,104.606a7.38,7.38,0,0,0,.025,2.986C8.815,108.785,9.907,120.6,9.868,121c-.044.433-.69,7.076-.69,7.076l-.543-.243a.307.307,0,0,1-.174-.257c.074-.959.54-5.969.572-6.513-.052-.989-1.021-8.492-1.021-8.492a66.051,66.051,0,0,1-.562-7.376,3.023,3.023,0,0,1,1.2-.587" fill="#2a292a"/>
            <path id="Trazado_997162" data-name="Trazado 997162" d="M11.738,103.449l1.412-.715a5.67,5.67,0,0,0,4.016-.017c.1.068,1.259.9,1.259.9a8.568,8.568,0,0,1-6.687-.17" fill="#ccedfc"/>
            <path id="Trazado_997163" data-name="Trazado 997163" d="M12.4,102.972s2.926,1.31,5.411-.034a12.532,12.532,0,0,1,2.131.609s-5.211,3.219-9.686.4a7.081,7.081,0,0,1,2.144-.97" fill="#2d2c2d"/>
            <path id="Trazado_997164" data-name="Trazado 997164" d="M17.4,90.023c-.107-.2-.649-.384-.451-.189s.014.176-.348-.081a1.337,1.337,0,0,0-.9-.216s.377.327.126.263-1.076-.418-.892-.195c.239.252,0,.231-.26.055.113.075.139.278.151.347-.13-.171-1.991-.774-4.09,1.88a1.791,1.791,0,0,0-.554,1.77c.274-.616.748-.806.548-.629s-.586.733-.423.661a1.379,1.379,0,0,1,.4-.12,1.585,1.585,0,0,0-.163.075c-.507.293-.276,1.742.243,3.508,2.043,3.489,3.663,3.819,4.152,3.758a2.494,2.494,0,0,0,1.938-.924,9.441,9.441,0,0,0,1.505-3.976,14.471,14.471,0,0,0-.157-3.124c.33-2.22-.724-2.672-.827-2.863" fill="#1f1000"/>
            <path id="Trazado_997165" data-name="Trazado 997165" d="M26.333,86.1l.318.194a.154.154,0,0,0,.217-.071.185.185,0,0,0-.058-.239l-.416-.253a.154.154,0,0,0-.217.071c-.044.085.032.242.156.3" fill="#e4b384" fill-rule="evenodd"/>
            <path id="Trazado_997166" data-name="Trazado 997166" d="M26.887,85l.4.231c.089.051.186.049.217,0l.057-.1c.031-.054-.016-.139-.1-.19l-.4-.232c-.314-.17-.514.071-.17.294" fill="#e4b384" fill-rule="evenodd"/>
            <path id="Trazado_997167" data-name="Trazado 997167" d="M26.759,85.4l.384.222c.115.066.238.07.273.009l.065-.113c.036-.061-.029-.166-.144-.232l-.384-.222c-.452-.261-.54.136-.194.336" fill="#e4b384" fill-rule="evenodd"/>
            <path id="Trazado_997168" data-name="Trazado 997168" d="M26.516,85.735l.384.222c.115.066.238.07.273.009l.065-.113c.036-.061-.029-.166-.144-.232l-.3-.172c-.445-.285-.733.024-.28.286" fill="#e4b384" fill-rule="evenodd"/>
            <path id="Trazado_997169" data-name="Trazado 997169" d="M19.066,94.929s-1.188-.169-1.459.484.163.455.2.315.1-.644,1.41-.527c.066,0,.119-.25-.151-.272" fill="#1a1818"/>
            <path id="Trazado_997170" data-name="Trazado 997170" d="M19.048,95.847a1.757,1.757,0,0,1-.2,1.18.3.3,0,0,1-.52,0c-.279-.522-.647-1.439-.115-1.938.645-.6.76.321.84.758" fill="#e4b384"/>
          </g>
        </g>
      </g>
    </g>
  </g>
</svg>
