<svg xmlns="http://www.w3.org/2000/svg" width="84" height="84" viewBox="0 0 84 84">
  <g id="Grupo_1179413" data-name="Grupo 1179413" transform="translate(-186 -496.137)">
    <g id="Grupo_1177230" data-name="Grupo 1177230" transform="translate(-520 -1182.783)">
      <g id="Grupo_1119665" data-name="Grupo 1119665" transform="translate(534.111 -3840.08)">
        <rect id="Rectángulo_402006" data-name="Rectángulo 402006" width="84" height="84" rx="5" transform="translate(171.889 5519)" fill="#cdbfdc"/>
      </g>
    </g>
    <g id="Grupo_1178667" data-name="Grupo 1178667" transform="translate(196 506.13)">
      <g id="Grupo_1178690" data-name="Grupo 1178690">
        <g id="Grupo_1178667-2" data-name="Grupo 1178667">
          <path id="Trazado_995996" data-name="Trazado 995996" d="M21,40h1a4,4,0,0,0,0,8V58a4,4,0,0,0,4,4H7a5,5,0,0,1-.67-9.95,2.6,2.6,0,0,1,.13-.36A6.014,6.014,0,0,1,12,48a3.979,3.979,0,0,0-1.98-3.45c-.01-.18-.02-.36-.02-.55a6,6,0,0,1,6-6,5.323,5.323,0,0,1,1.07.1h.01A4.969,4.969,0,0,0,21,40Z" fill="#e6e9ed"/>
        </g>
        <g id="Grupo_1178668" data-name="Grupo 1178668">
          <path id="Trazado_995997" data-name="Trazado 995997" d="M32,33v3H21a1,1,0,0,0-1,1v2a1,1,0,0,0,1,1,5,5,0,1,1,1.78-9.68,5.376,5.376,0,0,1,.9-1.06A5,5,0,0,1,32,33Z" fill="#e6e9ed"/>
        </g>
        <g id="Grupo_1178669" data-name="Grupo 1178669">
          <path id="Trazado_995998" data-name="Trazado 995998" d="M38,22a4,4,0,0,1,2.32,7.26A5,5,0,0,0,32,33a5,5,0,0,0-8.32-3.74A4,4,0,0,1,26,22v1H38Z" fill="#e6e9ed"/>
        </g>
        <g id="Grupo_1178670" data-name="Grupo 1178670">
          <path id="Trazado_995999" data-name="Trazado 995999" d="M43,36H32V33a5,5,0,0,1,8.32-3.74,5.376,5.376,0,0,1,.9,1.06A5.017,5.017,0,0,1,48,35a5.006,5.006,0,0,1-5,5,1,1,0,0,0,1-1V37A1,1,0,0,0,43,36Z" fill="#e6e9ed"/>
        </g>
        <g id="Grupo_1178671" data-name="Grupo 1178671">
          <path id="Trazado_996000" data-name="Trazado 996000" d="M57.67,52.05A5,5,0,0,1,57,62H38a4,4,0,0,0,4-4V48a4,4,0,0,0,0-8h1a4.969,4.969,0,0,0,3.92-1.9h.01A5.323,5.323,0,0,1,48,38a6,6,0,0,1,6,6c0,.19-.01.37-.02.55A3.979,3.979,0,0,0,52,48a6.014,6.014,0,0,1,5.54,3.69A2.6,2.6,0,0,1,57.67,52.05Z" fill="#e6e9ed"/>
        </g>
        <g id="Grupo_1178672" data-name="Grupo 1178672">
          <path id="Trazado_996001" data-name="Trazado 996001" d="M22,44v4a4,4,0,0,1,0-8Z" fill="#d2e6bd"/>
        </g>
        <g id="Grupo_1178673" data-name="Grupo 1178673">
          <path id="Trazado_996002" data-name="Trazado 996002" d="M10.02,44.55A3.979,3.979,0,0,1,12,48a6.014,6.014,0,0,0-5.54,3.69,4,4,0,1,1,3.56-7.14Z" fill="#d2e6bd"/>
        </g>
        <g id="Grupo_1178674" data-name="Grupo 1178674">
          <circle id="Elipse_13646" data-name="Elipse 13646" cx="6" cy="6" r="6" transform="translate(4 18)" fill="#d2e6bd"/>
        </g>
        <g id="Grupo_1178675" data-name="Grupo 1178675">
          <circle id="Elipse_13647" data-name="Elipse 13647" cx="2" cy="2" r="2" transform="translate(46 22)" fill="#d2e6bd"/>
        </g>
        <g id="Grupo_1178676" data-name="Grupo 1178676">
          <circle id="Elipse_13648" data-name="Elipse 13648" cx="4" cy="4" r="4" transform="translate(54 29)" fill="#d2e6bd"/>
        </g>
        <g id="Grupo_1178677" data-name="Grupo 1178677">
          <path id="Trazado_996003" data-name="Trazado 996003" d="M52,48a4,4,0,1,1,5.54,3.69A6.014,6.014,0,0,0,52,48Z" fill="#d2e6bd"/>
        </g>
        <g id="Grupo_1178678" data-name="Grupo 1178678">
          <path id="Trazado_996004" data-name="Trazado 996004" d="M42,40a4,4,0,0,1,0,8Z" fill="#d2e6bd"/>
        </g>
        <g id="Grupo_1178679" data-name="Grupo 1178679">
          <circle id="Elipse_13649" data-name="Elipse 13649" cx="2" cy="2" r="2" transform="translate(14 54)" fill="#d2e6bd"/>
        </g>
        <g id="Grupo_1178680" data-name="Grupo 1178680">
          <circle id="Elipse_13650" data-name="Elipse 13650" cx="2" cy="2" r="2" transform="translate(46 54)" fill="#d2e6bd"/>
        </g>
        <g id="Grupo_1178681" data-name="Grupo 1178681">
          <path id="Trazado_996005" data-name="Trazado 996005" d="M44,37v2a1,1,0,0,1-1,1H21a1,1,0,0,1-1-1V37a1,1,0,0,1,1-1H43A1,1,0,0,1,44,37Z" fill="#aab2bd"/>
        </g>
        <g id="Grupo_1178682" data-name="Grupo 1178682">
          <path id="Trazado_996006" data-name="Trazado 996006" d="M22,56V40H42V58a4,4,0,0,1-4,4H26a4,4,0,0,1-4-4Z" fill="#ffeaa7"/>
        </g>
        <g id="Grupo_1178683" data-name="Grupo 1178683">
          <circle id="Elipse_13651" data-name="Elipse 13651" cx="2" cy="2" r="2" transform="translate(32 54)" fill="#d2e6bd"/>
        </g>
        <g id="Grupo_1178684" data-name="Grupo 1178684">
          <circle id="Elipse_13652" data-name="Elipse 13652" cx="2" cy="2" r="2" transform="translate(34 44)" fill="#d2e6bd"/>
        </g>
        <g id="Grupo_1178685" data-name="Grupo 1178685">
          <path id="Trazado_996007" data-name="Trazado 996007" d="M20,6h4v8H6A4,4,0,0,1,6,6H20Z" fill="#ffeaa7"/>
        </g>
        <g id="Grupo_1178686" data-name="Grupo 1178686">
          <path id="Trazado_996008" data-name="Trazado 996008" d="M28,14v1a1,1,0,0,1-1,1H25a1,1,0,0,1-1-1V5a1,1,0,0,1,1-1h2a1,1,0,0,1,1,1Z" fill="#fcd770"/>
        </g>
        <g id="Grupo_1178687" data-name="Grupo 1178687">
          <path id="Trazado_996009" data-name="Trazado 996009" d="M40,14v1a1,1,0,0,1-1,1H37a1,1,0,0,1-1-1V7a1,1,0,0,1,1-1h2a1,1,0,0,1,1,1v7Z" fill="#b4dd7f"/>
        </g>
        <g id="Grupo_1178688" data-name="Grupo 1178688">
          <path id="Trazado_996010" data-name="Trazado 996010" d="M48,14H40V8h8l8.17-5.45a3.319,3.319,0,0,1,3.66,0l1.28.86A1.981,1.981,0,0,1,62,5.07V12c-2.33,0-2.33,2-4.66,2S55,12,52.67,12,50.33,14,48,14Z" fill="#e6e9ed"/>
        </g>
        <g id="Grupo_1178689" data-name="Grupo 1178689">
          <path id="Trazado_996011" data-name="Trazado 996011" d="M62,12v4.93a1.981,1.981,0,0,1-.89,1.66l-1.28.86a3.319,3.319,0,0,1-3.66,0L48,14c2.33,0,2.33-2,4.67-2s2.33,2,4.67,2,2.33-2,4.66-2Z" fill="#d2e6bd"/>
        </g>
      </g>
      <g id="Grupo_1178691" data-name="Grupo 1178691">
        <path id="Trazado_996012" data-name="Trazado 996012" d="M61.664,2.574l-1.277-.852a4.372,4.372,0,0,0-4.773,0L47.7,7H41a2,2,0,0,0-2-2H37a2,2,0,0,0-2,2v6.184A3,3,0,0,0,33,16v7h2V16a.985.985,0,0,1,.1-.416A2,2,0,0,0,37,17h2a2,2,0,0,0,2-2h6.7l7.916,5.277a4.3,4.3,0,0,0,4.774,0l1.277-.852A2.993,2.993,0,0,0,63,16.93V5.07a3,3,0,0,0-1.336-2.5ZM39,15H37V7h2Zm2-2V9h2v2h2V9h2v2h2V8.535l7.723-5.148a2.34,2.34,0,0,1,2.555,0l1.277.852A1,1,0,0,1,61,5.07v6.042a4.517,4.517,0,0,0-1.983,1.129,2.244,2.244,0,0,1-3.365,0,4.209,4.209,0,0,0-5.969,0A2.261,2.261,0,0,1,48,13Zm19.555,4.762-1.277.852a2.34,2.34,0,0,1-2.555,0l-6.446-4.3a8.27,8.27,0,0,0,.709-.556,2.243,2.243,0,0,1,3.365,0,4.207,4.207,0,0,0,5.967,0A4.44,4.44,0,0,1,61,13.248V16.93A1,1,0,0,1,60.555,17.762Z"/>
        <path id="Trazado_996013" data-name="Trazado 996013" d="M6,15H23a2,2,0,0,0,2,2h2a2,2,0,0,0,1.9-1.416A.985.985,0,0,1,29,16v7h2V16a3,3,0,0,0-2-2.816V5a2,2,0,0,0-2-2H25a2,2,0,0,0-2,2H6A5,5,0,0,0,6,15ZM25,5h2V15H25ZM6,7H7v4H9V7h2V9h2V7h2v4h2V7h2V9h2V7h2v6H6A3,3,0,0,1,6,7Z"/>
        <path id="Trazado_996014" data-name="Trazado 996014" d="M34,53a3,3,0,1,0,3,3A3,3,0,0,0,34,53Zm0,4a1,1,0,1,1,1-1A1,1,0,0,1,34,57Z"/>
        <path id="Trazado_996015" data-name="Trazado 996015" d="M36,43a3,3,0,1,0,3,3A3,3,0,0,0,36,43Zm0,4a1,1,0,1,1,1-1A1,1,0,0,1,36,47Z"/>
        <path id="Trazado_996016" data-name="Trazado 996016" d="M3,24a7,7,0,1,0,7-7A7.008,7.008,0,0,0,3,24Zm12,0a5,5,0,1,1-5-5A5.006,5.006,0,0,1,15,24Z"/>
        <path id="Trazado_996017" data-name="Trazado 996017" d="M10,23a1,1,0,0,1,1,1h2a3,3,0,0,0-3-3Z"/>
        <path id="Trazado_996018" data-name="Trazado 996018" d="M16,53a3,3,0,1,0,3,3A3,3,0,0,0,16,53Zm0,4a1,1,0,1,1,1-1A1,1,0,0,1,16,57Z"/>
        <path id="Trazado_996019" data-name="Trazado 996019" d="M59.49,51.566a4.985,4.985,0,0,0-4.552-8.447,7.008,7.008,0,0,0-6.3-6.087A5.982,5.982,0,0,0,43,29a6.054,6.054,0,0,0-1.087.1A4.987,4.987,0,0,0,39,21.1V19H37v6h2V23.184a2.986,2.986,0,0,1,1.26,4.786A5.982,5.982,0,0,0,32,29.69a5.982,5.982,0,0,0-8.26-1.72A2.986,2.986,0,0,1,25,23.184V25h2V19H25v2.1a4.987,4.987,0,0,0-2.913,8A6.006,6.006,0,0,0,15,35a5.958,5.958,0,0,0,.362,2.032,7.006,7.006,0,0,0-6.3,6.087A4.988,4.988,0,0,0,4.51,51.566,5.985,5.985,0,0,0,7,63H57a5.985,5.985,0,0,0,2.49-11.434ZM59,48a2.991,2.991,0,0,1-1.07,2.3A7,7,0,0,0,53.152,47.1,2.991,2.991,0,0,1,59,48ZM37,29a4,4,0,0,1,4,4h2a5.944,5.944,0,0,0-.339-1.969c.113-.01.224-.031.339-.031a3.987,3.987,0,0,1,2,7.444V37a2,2,0,0,0-2-2H33V33A4,4,0,0,1,37,29ZM21,41.184v5.631a2.982,2.982,0,0,1,0-5.631ZM21,39V37H43v2H21Zm22,2.184a2.982,2.982,0,0,1,0,5.632ZM21,31c.115,0,.226.021.339.031A5.944,5.944,0,0,0,21,33h2a4,4,0,0,1,8,0v2H21a2,2,0,0,0-2,2v1.444A3.987,3.987,0,0,1,21,31ZM8,45a2.98,2.98,0,0,1,2.837,2.1A7,7,0,0,0,6.07,50.3,3,3,0,0,1,8,45ZM3,57a4.008,4.008,0,0,1,2.024-3.47C5.013,53.686,5,53.841,5,54a7.075,7.075,0,0,0,.1,1.166l1.973-.332A4.924,4.924,0,0,1,7,54a5,5,0,0,1,7.5-4.332l1-1.73a6.982,6.982,0,0,0-2.6-.878A4.988,4.988,0,0,0,11,44.027c0-.009,0-.018,0-.027a4.868,4.868,0,0,1,5.588-4.948,6.034,6.034,0,0,0,1.905,1.392A4.994,4.994,0,0,0,21,48.9V58a4.948,4.948,0,0,0,1.026,3H7a4,4,0,0,1-4-4Zm23,4a3,3,0,0,1-3-3V57h4V55H23V53h6V51H23V49h4V47H23V45h6V43H23V41H41V58a3,3,0,0,1-3,3Zm31,0H41.974A4.948,4.948,0,0,0,43,58V48.9a4.994,4.994,0,0,0,2.507-8.455,6,6,0,0,0,1.9-1.392A4.868,4.868,0,0,1,53,44c0,.009,0,.018,0,.027a4.992,4.992,0,0,0-1.9,3.033,6.982,6.982,0,0,0-2.6.878l1,1.73a5,5,0,0,1,7.43,5.166l1.973.332A7.185,7.185,0,0,0,59,54c0-.159-.013-.314-.024-.47A4,4,0,0,1,57,61Z"/>
        <path id="Trazado_996020" data-name="Trazado 996020" d="M48,53a3,3,0,1,0,3,3A3,3,0,0,0,48,53Zm0,4a1,1,0,1,1,1-1A1,1,0,0,1,48,57Z"/>
        <path id="Trazado_996021" data-name="Trazado 996021" d="M58,28a5,5,0,1,0,5,5A5.006,5.006,0,0,0,58,28Zm0,8a3,3,0,1,1,3-3A3,3,0,0,1,58,36Z"/>
        <path id="Trazado_996022" data-name="Trazado 996022" d="M51,24a3,3,0,1,0-3,3A3,3,0,0,0,51,24Zm-4,0a1,1,0,1,1,1,1A1,1,0,0,1,47,24Z"/>
      </g>
    </g>
  </g>
</svg>
