<svg xmlns="http://www.w3.org/2000/svg" xmlns:xlink="http://www.w3.org/1999/xlink" width="69" height="69" viewBox="0 0 69 69">
  <defs>
    <clipPath id="clip-path">
      <path id="Trazado_996464" data-name="Trazado 996464" d="M14.168,23.122l4.008,1.935a.781.781,0,0,1,.222.163,1.085,1.085,0,0,1,.161.227c.024.042.046.088.067.135a4.487,4.487,0,0,0,.984,1.737c.063.061.131.12.2.18a1.1,1.1,0,0,0,.7.246h0a1.249,1.249,0,0,0,.255-.027,1.187,1.187,0,0,0,.994-1.053.982.982,0,0,0-.084-.392,1.313,1.313,0,0,0-.08-.153c-.058-.1-.122-.176-.171-.249-.076-.108-.122-.2-.077-.293a.17.17,0,0,1,.063-.071c.158-.1.5.005.864-.169a1.013,1.013,0,0,0,.18-.112.84.84,0,0,0,.2-.22,1.3,1.3,0,0,0-.1-1.375,1.1,1.1,0,0,0-.658-.454,3.061,3.061,0,0,0-.522-.073,3.667,3.667,0,0,0-1.339.221,4,4,0,0,1-.527.143.868.868,0,0,1-.544-.058l-2.319-1.12a6.006,6.006,0,0,1-2.484.831m-8.65.289c-.348.169-.711.026-1.173-.117a3.193,3.193,0,0,0-1.759-.117,1.235,1.235,0,0,0-.56,2.049c.479.375.986.1,1.107.352s-.407.477-.412,1.087a1.226,1.226,0,0,0,1.25,1.08h0a1.1,1.1,0,0,0,.7-.246c1.18-.948.944-2.106,1.639-2.442l4.01-1.937a5.972,5.972,0,0,1-2.48-.834Zm10.733-2.756-.174.133v-.942a.321.321,0,0,0-.045-.151.6.6,0,0,0-1.042,0,.321.321,0,0,0-.045.151v.942h-.5v-.942a.4.4,0,0,0-.112-.232.6.6,0,0,0-.454-.225.623.623,0,0,0-.522.306.328.328,0,0,0-.044.151v.942h-.5v-.942a.328.328,0,0,0-.044-.151.624.624,0,0,0-.522-.306l-.01,0a.571.571,0,0,0-.556.455v.942h-.5v-.942a.578.578,0,0,0-1.131,0v.942h-.5v-.942a.578.578,0,0,0-1.131,0v.942l-.175-.133-.349-5.3-.384.233L7.374,20.33c-.056,1.117,1.847,1.988,4.865,1.989h.012c.377,0,.739-.014,1.08-.04.191-.014.376-.034.555-.055q.411-.051.778-.128c.164-.034.324-.071.473-.112a3.528,3.528,0,0,0,1.677-.873c.012-.014.02-.028.032-.041a1.056,1.056,0,0,0,.281-.742l-.142-4.745-.385-.233Zm-15.2-5.773c.005.609.533.837.412,1.086s-.627-.023-1.107.352a1.017,1.017,0,0,0-.353.8v.027a1.227,1.227,0,0,0,.913,1.22,3.18,3.18,0,0,0,1.759-.117c.462-.142.825-.285,1.173-.117L6.7,19.513l.061-2L4.641,16.489c-.7-.336-.46-1.495-1.639-2.443a1.109,1.109,0,0,0-.7-.245,1.225,1.225,0,0,0-1.251,1.08m20.44-.835c-.074.06-.142.12-.2.18A5.331,5.331,0,0,0,20.232,16.1a.875.875,0,0,1-.384.39l-2.1,1.015.061,2,2.838-1.371a1.13,1.13,0,0,1,.843.015,3.666,3.666,0,0,0,2.089.219,1.1,1.1,0,0,0,.328-.131,1.285,1.285,0,0,0,.586-1.092v-.02a1.13,1.13,0,0,0-.158-.586.85.85,0,0,0-.195-.22c-.48-.375-.987-.1-1.107-.352s.407-.477.412-1.086A1.225,1.225,0,0,0,22.19,13.8a1.109,1.109,0,0,0-.7.245m-11.48,1c0-.538,1.433-2.273,1.874-2.273v2.273c0,.385-.368.534-.779.534-.514,0-1.1-.235-1.1-.534m2.6,0V12.777c.441,0,1.874,1.736,1.874,2.273,0,.3-.581.534-1.1.534-.411,0-.779-.149-.779-.534M6.933,13.487c-1.444-.284-2.34-2.418-2.1-4.575.186-1.673,1.407-1.434,3.6-1.037,2.426.44,3.441.131,2.774,3.272-.232,1.1-3.25,2.349-4.153,2.35a.655.655,0,0,1-.122-.01m9.989-.066c-.186-.044-.4-.107-.62-.183a10.088,10.088,0,0,1-1.055-.438c-.95-.458-1.842-1.078-1.964-1.653-.668-3.141.348-2.832,2.774-3.272,2.194-.4,3.415-.636,3.6,1.037a6.313,6.313,0,0,1-.023,1.585,5.824,5.824,0,0,1-.137.665,4.762,4.762,0,0,1-.333.89,2.429,2.429,0,0,1-1.606,1.435.655.655,0,0,1-.122.01,2.383,2.383,0,0,1-.514-.076M12.239,0C7.747,0,4.915,1.131,3.656,3.155c-1.061,1.706-.881,4.082-.881,6.612,0,3.265,1.956,5.572,3.432,5.572,1.044,0,1.616-.506,1.867-.449.274.061.339.417.339.928h.013v2.475a.578.578,0,0,0,1.131,0v-.942h.5v.942a.578.578,0,0,0,1.131,0v-.942h.5v.942a.572.572,0,0,0,.554.454h.012a.613.613,0,0,0,.4-.158.444.444,0,0,0,.166-.3v-.942h.5v.942a.441.441,0,0,0,.166.3.612.612,0,0,0,.4.158.574.574,0,0,0,.566-.457v-.942h.5v.942a.444.444,0,0,0,.166.3.585.585,0,0,0,.8,0,.444.444,0,0,0,.166-.3V15.818a1.336,1.336,0,0,1,.17-.829.317.317,0,0,1,.169-.1.482.482,0,0,1,.25.047,3.955,3.955,0,0,0,1.617.4c1.015,0,2.256-1.09,2.933-2.833.061-.159.118-.322.17-.491a7.5,7.5,0,0,0,.241-1.072,7.957,7.957,0,0,0,.087-1.177c0-.632.011-1.255.012-1.861a10.81,10.81,0,0,0-.549-4.081,4.716,4.716,0,0,0-.343-.67C19.575,1.131,16.742,0,12.251,0Z"/>
    </clipPath>
  </defs>
  <g id="Grupo_1178964" data-name="Grupo 1178964" transform="translate(-240.945 -2810.438)">
    <g id="Rectángulo_455408" data-name="Rectángulo 455408" transform="translate(275.445 2810.438) rotate(45)" fill="#fff" stroke="#f21616" stroke-width="4">
      <rect width="48.79" height="48.79" stroke="none"/>
      <rect x="2" y="2" width="44.79" height="44.79" fill="none"/>
    </g>
    <g id="Grupo_1178963" data-name="Grupo 1178963" transform="translate(263.384 2831.065)">
      <g id="Grupo_1178960" data-name="Grupo 1178960" clip-path="url(#clip-path)">
        <rect id="Rectángulo_455407" data-name="Rectángulo 455407" width="24.49" height="27.746" transform="translate(0 0)"/>
      </g>
    </g>
  </g>
</svg>
