<svg xmlns="http://www.w3.org/2000/svg" xmlns:xlink="http://www.w3.org/1999/xlink" width="69" height="69" viewBox="0 0 69 69">
  <defs>
    <clipPath id="clip-path">
      <rect id="Rectángulo_455412" data-name="Rectángulo 455412" width="27.241" height="36.979" transform="translate(0 0)"/>
    </clipPath>
  </defs>
  <g id="Grupo_1178976" data-name="Grupo 1178976" transform="translate(-240.945 -2810.438)">
    <g id="Rectángulo_455408" data-name="Rectángulo 455408" transform="translate(275.445 2810.438) rotate(45)" fill="#fff" stroke="#f21616" stroke-width="4">
      <rect width="48.79" height="48.79" stroke="none"/>
      <rect x="2" y="2" width="44.79" height="44.79" fill="none"/>
    </g>
    <g id="Grupo_1178978" data-name="Grupo 1178978" transform="translate(262.385 2827.449)">
      <g id="Grupo_1178977" data-name="Grupo 1178977" transform="translate(0 -0.001)" clip-path="url(#clip-path)">
        <path id="Trazado_996468" data-name="Trazado 996468" d="M15.466,21.99a.426.426,0,0,0-.216.06.324.324,0,1,0-.316.4.314.314,0,0,0,.1-.018.428.428,0,1,0,.428-.439m-1.561,6.672a.413.413,0,0,0-.17-.145.325.325,0,1,0-.505-.041.3.3,0,0,0,.073.076.428.428,0,1,0,.6.11M10.69,21.457a.428.428,0,1,1-.467-.385.429.429,0,0,1,.467.385m.767,1.55a.428.428,0,0,0-.467-.385.413.413,0,0,0-.209.079.325.325,0,1,0-.276.427.307.307,0,0,0,.1-.028.428.428,0,0,0,.851-.092m-.816,2.5a.3.3,0,1,1-.329-.271.3.3,0,0,1,.329.271m2.59-4.5a.3.3,0,1,1-.329-.271.3.3,0,0,1,.329.271M12.8,25.129a.426.426,0,1,1-.486.356.426.426,0,0,1,.486-.356M22.863,28.5a.466.466,0,0,1-.362.094.471.471,0,0,1-.392-.537.408.408,0,0,1,.039-.125c-.16.166-.538.1-.861-.164a.957.957,0,0,1-.388-.617.535.535,0,0,1-.648.043.651.651,0,0,1-.374-.4,1.019,1.019,0,0,1-.665-.073,1.3,1.3,0,0,1-.449-.28.373.373,0,0,1-.355.144.354.354,0,0,1,.063-.7.49.49,0,0,1-.1-.388c0-.021.008-.04.014-.061a.5.5,0,0,1-.479-.124.393.393,0,1,1-.452-.485.394.394,0,0,1-.126-.352.458.458,0,0,1,.026-.091.732.732,0,0,1-.247,0,.668.668,0,0,1-.094-.021.359.359,0,1,1-.5-.477.733.733,0,0,1-.032-.356A.746.746,0,0,1,17.1,22.9c0-.019,0-.037.007-.055a.748.748,0,0,1,.772-.633.777.777,0,0,1,0-.188.893.893,0,0,1,1.058-.684,1.109,1.109,0,0,1,.17.042.43.43,0,0,1,.362-.2.492.492,0,0,1,.119.016,1.114,1.114,0,0,1,.2-.7,1.046,1.046,0,0,1,1.153-.444.713.713,0,0,1,0-.185.824.824,0,0,1,.975-.63.957.957,0,0,1,.257.078.427.427,0,0,1,.423-.362.442.442,0,0,1,.189.044.444.444,0,0,1,.439-.409l2.1.749a3.025,3.025,0,0,1,1.905,2.666v2.513ZM10.157,24.312a.3.3,0,0,1-.025-.254.37.37,0,0,0-.091-.735h-.009a.356.356,0,0,0,.053-.224.364.364,0,0,0-.355-.327.709.709,0,0,0,.007-.181.674.674,0,0,0-.725-.619.636.636,0,0,0-.3.106.545.545,0,0,0-.256-.448.572.572,0,0,0-.427-.093.7.7,0,0,0,.033-.29.675.675,0,0,0-.726-.619.637.637,0,0,0-.284.1.6.6,0,0,0-.172-.171.588.588,0,0,0-.3-.1.613.613,0,0,0-.669-.7.583.583,0,0,0,0-.128.619.619,0,0,0-.673-.555.606.606,0,0,0-.166.04.614.614,0,0,0-.579-.283.673.673,0,0,0-.126.025.615.615,0,0,0-.569-.269.563.563,0,0,0-.184.047L1.9,19.261A2.938,2.938,0,0,0,0,21.824v2.417l4.149,4.1.02.02.008.008h0a.45.45,0,0,0,.7-.146.974.974,0,0,0,.715-.135.9.9,0,0,0,.474-.689h.49a.458.458,0,0,0,.225.033.476.476,0,0,0,.43-.519.487.487,0,0,0-.1-.245l.289-.265a.451.451,0,1,0,.6-.669.329.329,0,0,1,.51-.178c.1.082.1.151.16.353a.47.47,0,1,0,.843-.365l-.087-.391s-.121-.4.3-.392a.339.339,0,1,0,.424-.451m6.013.282a.426.426,0,0,0-.463.58.324.324,0,1,0,.345.371.332.332,0,0,0,0-.1.428.428,0,0,0,.12-.847m5.421,4.092a.481.481,0,0,0-.239.023.49.49,0,0,0-.768-.266.306.306,0,0,1-.168-.1.723.723,0,0,0-.615-.724.763.763,0,0,0-.291.012.49.49,0,0,0-.974-.073.466.466,0,0,0,.007.185.081.081,0,0,1-.081.021.607.607,0,0,0-.754-.29.564.564,0,0,0,.032-.121.608.608,0,0,0-.508-.7.615.615,0,0,0-.261.018.525.525,0,0,0-1.008-.1.744.744,0,0,0-.078-.018.5.5,0,0,0-.135,0,.524.524,0,0,0-1.023.061.5.5,0,0,0,.036.283.535.535,0,0,0-.109-.028.524.524,0,0,0-.278,1,.711.711,0,0,0-.075.225.619.619,0,0,0,.311.664.757.757,0,0,0-.183.4.7.7,0,0,0,.294.713.43.43,0,0,0-.057.374.239.239,0,0,1-.308.115.428.428,0,1,0-.67-.051.187.187,0,0,0,.03.036l-.016.011a.563.563,0,0,0,.178,1.014.955.955,0,0,0-.119.522.9.9,0,0,0,.348.678,1.006,1.006,0,0,0-.446.79,1.021,1.021,0,0,0,.269.837.443.443,0,0,0-.051.031.562.562,0,0,0-.156.78.7.7,0,0,0,.061.076l-.048.025a.423.423,0,0,0-.024.692.306.306,0,0,0-.037.385.449.449,0,0,0,.04.048.318.318,0,0,0-.038.021.247.247,0,0,0-.068.344l.005.008a.435.435,0,0,0,.048.366l8.154-7.422A.484.484,0,0,0,22,29.246a.49.49,0,0,0-.409-.559M12.8,36.945c-.029-.028-.305-.291-.34-.326l-7.25-7.166h0a.648.648,0,0,1-.184-.558.674.674,0,0,1,.778-.547.721.721,0,0,1,.19.056.847.847,0,0,1,.75-.5,1.019,1.019,0,0,1,.692.141c0-.027,0-.055.01-.084a.661.661,0,0,1,.7-.605.52.52,0,0,1,.291.149.724.724,0,0,1,.4-.409.617.617,0,0,1,.721.063.66.66,0,0,1,.355-.264.632.632,0,0,1,.507.034c.092.011.2.009.192-.074a.388.388,0,0,1-.186-.392.395.395,0,0,1,.748-.1.4.4,0,0,1,.26-.051c.015,0,.027.007.042.011a.391.391,0,0,1,.574.2.442.442,0,0,1,.774.242.436.436,0,0,1-.182.394.655.655,0,0,1,.144.356.583.583,0,0,1-.246.562.723.723,0,0,1,.3.453.6.6,0,0,1-.235.691.432.432,0,0,1,.2.16.42.42,0,0,1-.119.587.427.427,0,0,1-.268.068.124.124,0,0,0-.035.087.378.378,0,0,1,.059.068.362.362,0,0,1-.066.479.061.061,0,0,0,.047.076.463.463,0,0,1,.534.177.451.451,0,0,1-.048.567.47.47,0,0,1,.07.081.453.453,0,0,1-.04.558.78.78,0,0,1,.46.663.77.77,0,0,1-.359.745,1.1,1.1,0,0,1,.19.876,1.056,1.056,0,0,1-.536.81.4.4,0,0,1,.184.146.378.378,0,0,1-.079.511.3.3,0,0,1,.03.508.276.276,0,0,1,.091.085.248.248,0,0,1-.008.31.639.639,0,0,1-.077.168s-.007.025-.038-.005m8.936-18.7a.252.252,0,0,0-.159-.175l-4.95-1.525V14.589A13.872,13.872,0,0,0,19.347,6.8c0-3.753-2.694-6.8-6.017-6.8S7.312,3.043,7.312,6.8a13.879,13.879,0,0,0,2.724,7.793v1.953L5.472,17.934a.4.4,0,0,0,.144.778.388.388,0,0,0,.162-.052.384.384,0,0,0,.259.1.753.753,0,0,0,.8.553.567.567,0,0,0,.108-.02.353.353,0,0,0,0,.065.606.606,0,0,0,.95.442.558.558,0,0,0,.605.476.542.542,0,0,0,.181-.05.239.239,0,0,0,.008.046.713.713,0,0,0,.859.526.694.694,0,0,0,.437-.336.7.7,0,0,0,.62.145.684.684,0,0,0,.225-.1c0,.016.007.034.011.052a.721.721,0,0,0,.54.531.393.393,0,0,0,0,.043.3.3,0,0,0,.6-.057.259.259,0,0,0-.026-.092c.021,0,.04-.007.059-.012a.713.713,0,0,0,.509-.87.727.727,0,0,0-.18-.326l.034-.006a.354.354,0,0,0,.066-.663.668.668,0,0,0,.247-.645.668.668,0,0,0,.326-1.079.183.183,0,0,0,.035-.006.386.386,0,0,0-.19-.747.408.408,0,0,0-.153.08c-.1.023-.209.033-.216-.057a.979.979,0,0,0,.211-.461,1.091,1.091,0,0,0-.072-.659.594.594,0,0,0,.515-.487.582.582,0,0,0-.162-.619.662.662,0,0,0,.355-.439.527.527,0,0,0-.19-.616.858.858,0,0,1-.007-.119s-.019-.362.242-.362c0,0,.21-.015.214.319a3.156,3.156,0,0,0,.1.543.654.654,0,0,0,.029.267.606.606,0,0,0,.393.408.836.836,0,0,0-.023.485.817.817,0,0,0,.28.451.824.824,0,0,0-.246.444.61.61,0,0,0,.35.765l.015,0a.427.427,0,0,0,.218.69l.033.9a.387.387,0,1,0-.236.709.428.428,0,0,0-.027.286.424.424,0,0,0,.145.227,1.144,1.144,0,0,0-.1.613,1.037,1.037,0,0,0,.305.69.5.5,0,1,0,.9.4.479.479,0,0,0,.246,0,.51.51,0,0,0,.25-.149.376.376,0,1,0,.487-.5.377.377,0,0,0,.051-.3.009.009,0,0,1,0-.007.383.383,0,0,0,.2.008.5.5,0,0,0,.062-.022.585.585,0,0,0,.693.33.62.62,0,0,0,.249-.126.452.452,0,0,0,.778.1.584.584,0,0,0,.413.045.571.571,0,0,0,.426-.689.527.527,0,0,0-.019-.063.613.613,0,0,0,.119-.018.584.584,0,0,0,.42-.4.665.665,0,0,0,1.075-.432.458.458,0,0,0,.235-.325.246.246,0,0,0,.134,0,.252.252,0,0,0,.184-.307m-8.3.805a.429.429,0,0,0-.2.715.324.324,0,1,0,.464.209.319.319,0,0,0-.044-.1.428.428,0,0,0-.22-.827" transform="translate(0 0)"/>
      </g>
    </g>
  </g>
</svg>
