<svg xmlns="http://www.w3.org/2000/svg" width="84" height="84" viewBox="0 0 84 84">
  <g id="Grupo_1179411" data-name="Grupo 1179411" transform="translate(-186 -4438.849)">
    <g id="Grupo_1179408" data-name="Grupo 1179408" transform="translate(-520 2759.929)">
      <g id="Grupo_1119665" data-name="Grupo 1119665" transform="translate(534.111 -3840.08)">
        <rect id="Rectángulo_402006" data-name="Rectángulo 402006" width="84" height="84" rx="5" transform="translate(171.889 5519)" fill="#cdbfdc"/>
      </g>
    </g>
    <g id="reglamento" transform="translate(195.172 4443.667)">
      <g id="Grupo_1179410" data-name="Grupo 1179410" transform="translate(9.204 9.505)">
        <path id="Trazado_997818" data-name="Trazado 997818" d="M84.565,24.11l.056.008.017,0c.022,0,.043.01.064.016l.007,0c.021.007.042.014.063.023l.006,0c.019.008.038.017.057.027l.01,0c.017.009.033.019.049.029l.014.009c.015.01.029.021.043.032l.016.012c.016.013.031.027.046.042l.008.007,7.722,7.722.007.008c.015.015.029.03.042.046l.012.016c.011.014.022.028.032.043l.009.014c.01.016.02.032.029.049l0,.01c.01.019.019.037.027.057l0,.006c.008.021.016.042.023.063l0,.007c.006.021.012.043.016.064,0,.006,0,.011,0,.017s.007.037.008.056a.747.747,0,0,1,0,.075v7.891L97.1,42.858q0-5.739,0-11.476,0-5.692,0-11.383H61.168l0,4.107H84.489a.748.748,0,0,1,.075,0Z" transform="translate(-59.202 -19.999)" fill="#6e2370"/>
        <path id="Trazado_997819" data-name="Trazado 997819" d="M45.514,115.241H62.819v3.06H45.514Z" transform="translate(-45.514 -103.296)" fill="#bfc0dc"/>
        <path id="Trazado_997820" data-name="Trazado 997820" d="M258.3,78.389l-5.153-5.153v5.153Z" transform="translate(-227.107 -66.559)" fill="#6e2370"/>
        <path id="Trazado_997821" data-name="Trazado 997821" d="M174.344,463.764h21.983v3.541H174.344Z" transform="translate(-158.187 -408.11)" fill="#6e2370"/>
        <path id="Trazado_997822" data-name="Trazado 997822" d="M315.132,331.4l.263.152a2.488,2.488,0,0,1,.909,3.392l-.4.692a2.47,2.47,0,0,1-1.186,1.045v.108h4.124q0-2.828,0-5.656l-2.67-1.542-1.045,1.81Z" transform="translate(-280.957 -290.768)" fill="#bfc0dc"/>
        <path id="Trazado_997823" data-name="Trazado 997823" d="M0,0H4.3V16.311H0Z" transform="matrix(0.5, -0.866, 0.866, 0.5, 35.972, 37.525)" fill="#bfc0dc"/>
        <path id="Trazado_997824" data-name="Trazado 997824" d="M257.588,229.743h0l1.421-2.461-7.8-4.5-5.746,9.953,7.8,4.5,4.325-7.491Z" transform="translate(-220.391 -197.349)" fill="#bfc0dc"/>
      </g>
      <path id="Trazado_997825" data-name="Trazado 997825" d="M39.185,224.522a.752.752,0,0,0,0,1.5h22.5a.752.752,0,1,0,0-1.5Z" transform="translate(-30.117 -189.367)"/>
      <path id="Trazado_997826" data-name="Trazado 997826" d="M59.4,265.139H39.185a.752.752,0,0,0,0,1.5H59.4a.752.752,0,0,0,0-1.5Z" transform="translate(-30.117 -224.89)"/>
      <path id="Trazado_997827" data-name="Trazado 997827" d="M4.749,62.663H27.339v.99H24.608a.753.753,0,0,0-.752.752v5.046a.753.753,0,0,0,.752.752H48.1a.753.753,0,0,0,.752-.752V64.406a.753.753,0,0,0-.752-.752H45.366V59.416a.753.753,0,0,0-.752-.752H42.966V57.035h4.876a.752.752,0,0,0,.752-.752q0-2.771,0-5.541l10.028,5.79a2.485,2.485,0,0,0,1.156,2.786l.692.4a2.46,2.46,0,0,0,1.234.332,2.511,2.511,0,0,0,.65-.086,2.466,2.466,0,0,0,1.508-1.155l3.008-5.21a2.486,2.486,0,0,0-.909-3.391l-.692-.4a2.485,2.485,0,0,0-2.99.392L48.6,42.3V41.094l.522-.9.263.152a2.484,2.484,0,0,0,3.392-.909l.4-.692a2.486,2.486,0,0,0-.909-3.391L48.6,33.233q0-6.173,0-12.345,0-6.068,0-12.135A.753.753,0,0,0,47.849,8H10.418a.752.752,0,0,0-.752.752l0,4.86H4.749A.753.753,0,0,0,4,14.365V61.911a.753.753,0,0,0,.752.752Zm42.595,2.5V68.7H25.361V65.159Zm-3.483-4.991v3.486H28.844V60.168Zm-1.012-6.544a.977.977,0,0,1-.708.478l-.013,0a.972.972,0,0,1-.615-.121l-10.929-6.31a.979.979,0,0,1-.358-1.336l.4-.692a.979.979,0,0,1,1.336-.358l.915.528h0L42.89,51.6a.979.979,0,0,1,.358,1.336Zm-8.568-8.736,5.746-9.953,7.8,4.5L46.4,41.9h0l-4.325,7.491-7.8-4.5ZM47.09,55.53H42.966v-.108a2.469,2.469,0,0,0,1.186-1.045l.4-.692a2.488,2.488,0,0,0-.909-3.392l-.263-.152,1.045-1.81,2.67,1.542q0,2.828,0,5.656Zm16.1-4.061a.979.979,0,0,1,1.336-.358l.692.4a.979.979,0,0,1,.358,1.336l-3.008,5.21a.983.983,0,0,1-1.336.358l-.692-.4a.983.983,0,0,1-.358-1.336l3.008-5.21Zm-1.732-.011L59.3,55.184,45.177,47.029,47.328,43.3ZM51.518,36.653a.979.979,0,0,1,.358,1.336l-.4.692a.979.979,0,0,1-1.336.358l-.915-.528h0L39.213,32.728a.983.983,0,0,1-.358-1.336l.4-.692a.978.978,0,0,1,1.336-.358l1.159.669a.749.749,0,0,0,.187.108l9.583,5.533ZM11.17,9.505H47.1q0,5.691,0,11.383,0,5.737,0,11.476l-4.133-2.386V22.087a.747.747,0,0,0,0-.075c0-.019-.005-.037-.008-.056s0-.011,0-.017c0-.022-.01-.043-.016-.064l0-.007c-.007-.021-.014-.042-.023-.063l0-.006c-.008-.019-.017-.038-.027-.057l0-.01c-.009-.017-.019-.033-.029-.049l-.009-.014c-.01-.015-.021-.029-.032-.043l-.012-.016c-.013-.016-.027-.031-.042-.046l-.007-.008-7.722-7.722-.008-.007c-.015-.015-.03-.029-.046-.042l-.016-.012c-.014-.011-.028-.022-.043-.032l-.014-.009-.049-.029-.01,0c-.019-.01-.037-.019-.057-.027l-.006,0c-.021-.008-.042-.016-.063-.023l-.007,0c-.021-.006-.043-.012-.064-.016l-.017,0c-.018,0-.037-.007-.056-.008a.748.748,0,0,0-.075,0H11.167l0-4.107ZM40.4,21.334H35.244V16.181ZM5.5,15.117H33.739v6.969a.753.753,0,0,0,.752.752h6.969v6.269l-.119-.069a2.486,2.486,0,0,0-3.391.909l-.4.692a2.488,2.488,0,0,0,.909,3.392l.263.152-5.746,9.953-.263-.152a2.485,2.485,0,0,0-3.391.909l-.4.692a2.486,2.486,0,0,0,.909,3.392l10.929,6.31a2.471,2.471,0,0,0,.7.272v3.105H28.091a.753.753,0,0,0-.752.752v1.743H5.5Z" transform="translate(0 0)"/>
      <path id="Trazado_997828" data-name="Trazado 997828" d="M60.488,360.309c-.174.009-.41.038-.709.074a9.194,9.194,0,0,1-2.391.088A2.025,2.025,0,0,0,55.5,359.2a2.637,2.637,0,0,0-1.139.4,2.576,2.576,0,0,1-.284.146,1.481,1.481,0,0,1-.315-.384,2.136,2.136,0,0,0-1.595-1.147,2.618,2.618,0,0,0-2.012,1.224c-.009-.049-.017-.1-.026-.159a2.4,2.4,0,0,0-1.291-2.072,2.774,2.774,0,0,0-2.677.744,7.34,7.34,0,0,0-2.427,3.085.757.757,0,0,0,.6.883.748.748,0,0,0,.877-.6,6.962,6.962,0,0,1,1.864-2.176c.694-.531,1.081-.591,1.2-.543.09.036.269.268.366.9.118.776.3,1.621,1.019,1.823.695.2,1.179-.373,1.606-.875.172-.2.627-.738.8-.738h0s.158.036.429.458c1.039,1.617,2.1,1.021,2.6.735a1.4,1.4,0,0,1,.5-.212c.081,0,.3.109.468.5.283.638.986.835,1.949.835a16.777,16.777,0,0,0,1.945-.156c.248-.03.483-.059.6-.065a.753.753,0,0,0-.077-1.5Z" transform="translate(-34.742 -305.31)"/>
      <path id="Trazado_997829" data-name="Trazado 997829" d="M54.771,307.26a.753.753,0,0,0,0-1.505H39.185a.753.753,0,0,0,0,1.505Z" transform="translate(-30.117 -260.413)"/>
      <path id="Trazado_997830" data-name="Trazado 997830" d="M38.433,184.658a.753.753,0,0,0,.752.752H61.363a.752.752,0,1,0,0-1.5H39.185A.753.753,0,0,0,38.433,184.658Z" transform="translate(-30.117 -153.845)"/>
      <path id="Trazado_997831" data-name="Trazado 997831" d="M53.077,109.31a.753.753,0,0,0,.752-.752v-4.565a.753.753,0,0,0-.752-.752H34.266a.753.753,0,0,0-.752.752v4.565a.753.753,0,0,0,.752.752Zm-18.058-4.565H52.324v3.06H35.019Z" transform="translate(-25.815 -83.297)"/>
    </g>
  </g>
</svg>
