<svg xmlns="http://www.w3.org/2000/svg" width="84" height="84" viewBox="0 0 84 84">
  <g id="Grupo_1179409" data-name="Grupo 1179409" transform="translate(-706 -1693.849)">
    <g id="Grupo_1177942" data-name="Grupo 1177942" transform="translate(0 14.929)">
      <g id="Grupo_1119665" data-name="Grupo 1119665" transform="translate(534.111 -3840.08)">
        <rect id="Rectángulo_402006" data-name="Rectángulo 402006" width="84" height="84" rx="5" transform="translate(171.889 5519)" fill="#cdbfdc"/>
      </g>
    </g>
    <g id="quimico_4_" data-name="quimico (4)" transform="translate(712.098 1640.3)">
      <path id="Trazado_997811" data-name="Trazado 997811" d="M77.2,212.906a.413.413,0,0,0-.413-.413H68.777a2.541,2.541,0,0,1-2.541-2.541v-5.6a7.153,7.153,0,0,0-7.153-7.153V200.7a3.647,3.647,0,0,1,3.647,3.647v5.6a2.541,2.541,0,0,1-2.541,2.541H7.913a.413.413,0,0,0-.413.413v.429a5.276,5.276,0,0,0,5.276,5.276H15.9a2.618,2.618,0,0,1,2.618,2.618v2.38a2.648,2.648,0,0,0,5.3,0v-2.38a2.618,2.618,0,0,1,5.236,0v6.859a1.844,1.844,0,0,0,3.688,0v-6.859a2.618,2.618,0,0,1,2.618-2.618H71.925a5.276,5.276,0,0,0,5.276-5.276Z" transform="translate(-6.448 -106.029)" fill="#bfc0dc"/>
      <path id="Trazado_997812" data-name="Trazado 997812" d="M351.151,165.406a1.821,1.821,0,0,1-1.821-1.822V155.9a1.821,1.821,0,1,1,3.643,0v7.685A1.821,1.821,0,0,1,351.151,165.406Z" transform="translate(-300.339 -68.958)" fill="#ecf9f9"/>
      <path id="Trazado_997813" data-name="Trazado 997813" d="M62.03,93.344H48.649a3.316,3.316,0,0,1-3.075-2.082,15.773,15.773,0,0,0-30.409,5.883q0,.236.007.471H62.03V93.344Z" transform="translate(-13.038 -6.45)" fill="#fff"/>
      <path id="Trazado_997814" data-name="Trazado 997814" d="M15.215,197.2a15.774,15.774,0,0,0,30.333,5.575,3.332,3.332,0,0,1,3.071-2.069H62.073V197.2Z" transform="translate(-13.081 -106.029)" fill="#8a2c8c"/>
      <path id="Trazado_997815" data-name="Trazado 997815" d="M92.062,197.2a3.649,3.649,0,0,1-2.157.7H80.117a3.332,3.332,0,0,0-3.071,2.069,15.8,15.8,0,0,1-18.67,9.185,15.776,15.776,0,0,0,24.28-6.38,3.332,3.332,0,0,1,3.071-2.069H99.18V197.2Z" transform="translate(-50.189 -106.029)" fill="#bfc0dc"/>
      <path id="Trazado_997816" data-name="Trazado 997816" d="M300.077,166.735v1.307a3.66,3.66,0,0,1-1.509,2.964h7.119v-4.272h-5.61Z" transform="translate(-256.696 -79.84)" fill="#d3effb"/>
      <path id="Trazado_997817" data-name="Trazado 997817" d="M70.34,105.413H62.329a1.491,1.491,0,0,1-1.489-1.489v-5.6a8.217,8.217,0,0,0-7.153-8.138V86.941a2.873,2.873,0,0,0-5.529-1.1H35.611a2.255,2.255,0,0,1-2.1-1.423A16.8,16.8,0,0,0,8.895,76.5a1.052,1.052,0,1,0,1.131,1.774,14.615,14.615,0,0,1,7.562-2.292,14.8,14.8,0,0,1,13.971,9.227,4.349,4.349,0,0,0,4.051,2.741H47.939v2.168H3.19a14.736,14.736,0,0,1,3.368-8.778A1.052,1.052,0,1,0,4.937,80a16.8,16.8,0,0,0,4.8,25.416H1.465A1.466,1.466,0,0,0,0,106.877v.429a6.335,6.335,0,0,0,6.328,6.328H9.447a1.568,1.568,0,0,1,1.566,1.566v2.38a3.7,3.7,0,1,0,7.4,0V115.2a1.566,1.566,0,1,1,3.132,0v1.755a1.052,1.052,0,1,0,2.1,0V115.2a3.67,3.67,0,0,0-7.34,0v2.38a1.6,1.6,0,1,1-3.193,0V115.2a3.674,3.674,0,0,0-3.67-3.67H6.328a4.23,4.23,0,0,1-4.219-4.014H53.741a3.6,3.6,0,0,0,3.593-3.593v-5.6a4.707,4.707,0,0,0-3.647-4.58v-1.43a6.111,6.111,0,0,1,5.05,6.011v5.6a3.6,3.6,0,0,0,3.593,3.593H69.7a4.23,4.23,0,0,1-4.219,4.014H28.9a3.674,3.674,0,0,0-3.67,3.67v6.859a.792.792,0,0,1-1.585,0v-.2a1.052,1.052,0,1,0-2.1,0v.2a2.9,2.9,0,1,0,5.792,0V115.2a1.568,1.568,0,0,1,1.566-1.566H65.477a6.335,6.335,0,0,0,6.328-6.328v-.429a1.466,1.466,0,0,0-1.465-1.465ZM50.813,86.171a.771.771,0,0,1,.77.77v7.685a.77.77,0,0,1-1.539,0V86.941A.771.771,0,0,1,50.813,86.171ZM55.23,98.32v5.6a1.491,1.491,0,0,1-1.489,1.489H26.064a16.8,16.8,0,0,0,7.374-8.267,2.278,2.278,0,0,1,2.1-1.421h6.4a1.052,1.052,0,0,0,0-2.1h-6.4A4.375,4.375,0,0,0,31.5,96.338a14.723,14.723,0,0,1-28.24-4.12H47.94v1.4h-1.1a1.052,1.052,0,0,0,0,2.1h1.315a2.873,2.873,0,0,0,5.257.12A2.6,2.6,0,0,1,55.23,98.32Z"/>
      <circle id="Elipse_13684" data-name="Elipse 13684" cx="1.052" cy="1.052" r="1.052" transform="translate(13.964 95.195)"/>
      <circle id="Elipse_13685" data-name="Elipse 13685" cx="1.052" cy="1.052" r="1.052" transform="translate(19.488 99.887)"/>
      <circle id="Elipse_13686" data-name="Elipse 13686" cx="1.052" cy="1.052" r="1.052" transform="translate(23.459 95.848)"/>
      <circle id="Elipse_13687" data-name="Elipse 13687" cx="1.052" cy="1.052" r="1.052" transform="translate(7.846 96.9)"/>
    </g>
  </g>
</svg>
