<svg xmlns="http://www.w3.org/2000/svg" xmlns:xlink="http://www.w3.org/1999/xlink" width="261.059" height="156" viewBox="0 0 261.059 156">
  <defs>
    <clipPath id="clip-path">
      <rect id="Rectángulo_454803" data-name="Rectángulo 454803" width="237.157" height="121.594" fill="none"/>
    </clipPath>
  </defs>
  <g id="Grupo_1177288" data-name="Grupo 1177288" transform="translate(-1018 -5183)">
    <rect id="Rectángulo_454804" data-name="Rectángulo 454804" width="261" height="145" rx="25" transform="translate(1018.059 5183)" fill="#cdbfdc"/>
    <g id="Grupo_1177284" data-name="Grupo 1177284" transform="translate(1031.5 5196.407)">
      <path id="Trazado_995025" data-name="Trazado 995025" d="M0,289.687v10.766l24.3-9.845v-1Z" transform="translate(0 -260.638)" fill="#d3eaf8"/>
      <path id="Trazado_995026" data-name="Trazado 995026" d="M2139.722,452.718l19.34,17.7,3.755-10.09-22.747-8.547Z" transform="translate(-1925.66 -406.587)" fill="#d3eaf8"/>
      <path id="Trazado_995027" data-name="Trazado 995027" d="M1141.561,878.575l-5.869,33.7h10.766l-3.9-33.7Z" transform="translate(-1022.075 -790.682)" fill="#d3eaf8"/>
      <path id="Trazado_995028" data-name="Trazado 995028" d="M657.469,336.975l3.3,43.437h2.442l2.492-34.7,3.476,34.7h2.474l3.3-45.98Z" transform="translate(-591.695 -300.976)" fill="#fefbfd"/>
      <g id="Grupo_1177283" data-name="Grupo 1177283" transform="translate(0 -0.001)">
        <g id="Grupo_1177282" data-name="Grupo 1177282" transform="translate(0 0)" clip-path="url(#clip-path)">
          <path id="Trazado_995029" data-name="Trazado 995029" d="M704.465,794.037l-2.685.05s-6.944.138-8.161,3.741c2.3,1.45,10.906-.58,10.906-.58Z" transform="translate(-624.228 -714.6)" fill="#17100d"/>
          <path id="Trazado_995030" data-name="Trazado 995030" d="M619.646,787.152l-2.685.051s-6.944.138-8.161,3.742c2.3,1.45,10.906-.58,10.906-.58Z" transform="translate(-547.894 -708.404)" fill="#17100d"/>
          <path id="Trazado_995031" data-name="Trazado 995031" d="M505.736,170.383s-12.918.868-16.137-2.52l.592-8.322,12.553-.48,8.506-6.8,5.67,12.9Z" transform="translate(-440.619 -137.026)" fill="#fefbfd"/>
          <path id="Trazado_995032" data-name="Trazado 995032" d="M514.9,252.633l.068.154-11.183,5.23s-9.311.625-14.093-1.259l-.095,1.33c3.218,3.388,16.137,2.52,16.137,2.52l11.184-5.23-1.26-2.866Z" transform="translate(-440.618 -227.249)" fill="#c2e3f6"/>
          <path id="Trazado_995033" data-name="Trazado 995033" d="M373.514,226.405l-5.663,3.156a1.435,1.435,0,0,0,2.153.81l3.133-1.378a18.259,18.259,0,0,0,6.894,4.384l.592-8.323Z" transform="translate(-331.05 -202.541)" fill="#0069af"/>
          <path id="Trazado_995034" data-name="Trazado 995034" d="M450.266,280.464h0a1,1,0,0,1-.8-1.162l.479-2.58a1,1,0,0,1,1.96.365l-.479,2.579a1,1,0,0,1-1.162.8" transform="translate(-404.487 -248.305)" fill="#0069af"/>
          <path id="Trazado_995035" data-name="Trazado 995035" d="M448.821,279.017l.029-.158a.84.84,0,0,1-.683-.823l.014-.152.479-2.58a.84.84,0,0,1,.823-.683l.151.014h0a.84.84,0,0,1,.683.823l-.014.152-.479,2.579a.84.84,0,0,1-.822.683l-.153-.014-.04-.007.04.007-.029.158-.029.158a1.173,1.173,0,0,0,.21.019,1.161,1.161,0,0,0,1.138-.946l.479-2.579a1.158,1.158,0,0,0-.926-1.35h0a1.131,1.131,0,0,0-.211-.02,1.161,1.161,0,0,0-1.139.946l-.479,2.58a1.14,1.14,0,0,0-.019.21,1.161,1.161,0,0,0,.946,1.139l.032.006-.031-.006Z" transform="translate(-403.043 -246.858)" fill="#17100d"/>
          <path id="Trazado_995036" data-name="Trazado 995036" d="M472.331,288.226h0a.772.772,0,0,1-.771-.769l0-2.027a.77.77,0,1,1,1.54,0l0,2.027a.772.772,0,0,1-.769.771" transform="translate(-424.382 -256.181)" fill="#0069af"/>
          <path id="Trazado_995037" data-name="Trazado 995037" d="M470.885,286.778v-.161h0a.613.613,0,0,1-.609-.608l0-2.027a.613.613,0,0,1,.609-.611h.032l.029-.012-.06-.146v.158l.06-.012-.06-.146v.158a.613.613,0,0,1,.609.609l0,2.027a.612.612,0,0,1-.609.61h0v.321a.933.933,0,0,0,.929-.931l0-2.027a.933.933,0,0,0-.93-.93l-.062.012.061.149v-.161a.933.933,0,0,0-.93.932l0,2.027a.933.933,0,0,0,.931.929h0Z" transform="translate(-422.936 -254.733)" fill="#17100d"/>
          <path id="Trazado_995038" data-name="Trazado 995038" d="M666.5,107.193c-12.91,2.3-10.549,24.55-10.549,24.55l17.422-1.069.887-24.288Z" transform="translate(-590.173 -95.742)" fill="#fefbfd"/>
          <path id="Trazado_995039" data-name="Trazado 995039" d="M701.911,136.846a52.785,52.785,0,0,0-3.188,16.831c0,4.755.964,9.663,3.977,13.424a.161.161,0,0,0,.251-.2c-2.948-3.677-3.907-8.508-3.907-13.223a48.125,48.125,0,0,1,1.584-11.575c.4-1.554.792-2.84,1.089-3.737.148-.448.272-.8.358-1.038s.135-.364.135-.364a.16.16,0,1,0-.3-.116Z" transform="translate(-628.82 -123.063)" fill="#17100d"/>
          <path id="Trazado_995040" data-name="Trazado 995040" d="M725.55,315.825l-11.714-3.614s5.546,6.142,7.825,7.294,2.832,11.389,2.832,11.389Z" transform="translate(-642.422 -280.977)" fill="#8ecef0"/>
          <path id="Trazado_995041" data-name="Trazado 995041" d="M740.9,22.687l-1.17,2.685v1.643s2.042,3.888,3.878,2.637,2.645-4.9,2.645-4.9-3.7-2.2-5.353-2.065" transform="translate(-665.727 -20.411)" fill="#d66638"/>
          <path id="Trazado_995042" data-name="Trazado 995042" d="M748.129,11.821l2.74-3.763s2.943-3.924-2.41-5.783c1.1-1.583,3.064-3.029,5.353-1.836s4.466,8.418,4.3,10.313-9.978,1.068-9.978,1.068" transform="translate(-673.285 0)" fill="#fefbfd"/>
          <path id="Trazado_995043" data-name="Trazado 995043" d="M729.718,51.392s-4.579,1.65-4.212-1.81c-1.974,1.04-2.52,6.149.84,6.86,2.969.18,3.372-5.05,3.372-5.05" transform="translate(-651.502 -44.622)" fill="#0069af"/>
          <path id="Trazado_995044" data-name="Trazado 995044" d="M723.382,55.915c-.018.028-.065.108-.137.255a5.884,5.884,0,0,0-.606,2.476A3.877,3.877,0,0,0,724.7,62.1l.083-.138-.14-.079-1.2,2.134a.161.161,0,0,0,.214.221s.235-.122.614-.306c.568-.277,1.458-.692,2.351-1.043a8.364,8.364,0,0,1,2.344-.649.16.16,0,0,0-.01-.321,11.427,11.427,0,0,0-3.341,1.039c-1.152.5-2.1.993-2.105.994l.074.143.14.079,1.2-2.134a.161.161,0,0,0-.057-.216,3.549,3.549,0,0,1-1.907-3.179,5.263,5.263,0,0,1,.335-1.774,5.865,5.865,0,0,1,.238-.561c.033-.068.062-.122.082-.16l.025-.045.007-.012,0,0-.027-.017.026.017h0l-.027-.017.026.017a.161.161,0,0,0-.267-.178Z" transform="translate(-650.344 -50.256)" fill="#17100d"/>
          <path id="Trazado_995045" data-name="Trazado 995045" d="M729.461,78.76a2.848,2.848,0,0,0,1.911.5,7.147,7.147,0,0,0,1.022-.079.161.161,0,1,0-.046-.318,6.831,6.831,0,0,1-.976.075,3.583,3.583,0,0,1-1.334-.217,1.636,1.636,0,0,1-.283-.143l-.061-.043-.012-.01h0a.161.161,0,1,0-.221.234Z" transform="translate(-656.438 -70.631)" fill="#17100d"/>
          <path id="Trazado_995046" data-name="Trazado 995046" d="M730.534,91.229a2.846,2.846,0,0,0,1.911.5,7.154,7.154,0,0,0,1.022-.079.16.16,0,1,0-.046-.318,6.852,6.852,0,0,1-.976.075,3.581,3.581,0,0,1-1.334-.217,1.648,1.648,0,0,1-.283-.143l-.061-.043-.012-.01h0a.161.161,0,1,0-.22.234Z" transform="translate(-657.405 -81.853)" fill="#17100d"/>
          <path id="Trazado_995047" data-name="Trazado 995047" d="M817.992,70.954l.062.071a8.505,8.505,0,0,1,.812,1.142,3.7,3.7,0,0,1,.59,1.74,1.469,1.469,0,0,1-.054.405.161.161,0,0,0,.309.088,1.8,1.8,0,0,0,.066-.494A4.311,4.311,0,0,0,819,71.77a8.587,8.587,0,0,0-.769-1.031.161.161,0,1,0-.239.215Z" transform="translate(-736.121 -63.614)" fill="#17100d"/>
          <path id="Trazado_995048" data-name="Trazado 995048" d="M780.955,114.917s-1.171-12.562,3.832-17.065,12.1,10.18,7.235,26.835c-7.979,6.834-11.066-9.769-11.066-9.769" transform="translate(-702.72 -87.322)" fill="#17100d"/>
          <path id="Trazado_995049" data-name="Trazado 995049" d="M775.381,361.229h0a5.658,5.658,0,0,1-2.857-7.45l4.831-10.842a5.642,5.642,0,0,1,10.307,4.593l-4.831,10.842a5.659,5.659,0,0,1-7.45,2.857" transform="translate(-694.802 -305.621)" fill="#0069af"/>
          <path id="Trazado_995050" data-name="Trazado 995050" d="M886.2,318.494l-2.458-1.207a1.768,1.768,0,1,1,1.559-3.174l2.458,1.207a1.768,1.768,0,0,1-1.559,3.174" transform="translate(-794.444 -282.526)" fill="#0069af"/>
          <path id="Trazado_995051" data-name="Trazado 995051" d="M901.211,319.08l-3.234-1.667a.4.4,0,1,1,.374-.718l3.234,1.667a.4.4,0,0,1-.374.718" transform="translate(-807.946 -284.971)" fill="#17100d"/>
          <path id="Trazado_995052" data-name="Trazado 995052" d="M875.8,346.59a1.56,1.56,0,0,1-1.427.649,4.078,4.078,0,0,1-1.985-.581,3.2,3.2,0,0,1-1.794-2.411,1.135,1.135,0,0,1,.148-.577.161.161,0,0,0-.278-.161,1.457,1.457,0,0,0-.191.738,3.5,3.5,0,0,0,1.954,2.69,4.395,4.395,0,0,0,2.146.624,1.874,1.874,0,0,0,1.7-.81.161.161,0,1,0-.278-.16Z" transform="translate(-783.207 -309.072)" fill="#17100d"/>
          <path id="Trazado_995053" data-name="Trazado 995053" d="M785.939,370.008l-5.7,12.75-.014.063v.01a6.033,6.033,0,0,0,3.752,5.359.161.161,0,0,0,.126-.3,5.712,5.712,0,0,1-3.557-5.063v0l-.161,0,.147.065,5.7-12.75a.161.161,0,1,0-.293-.131Z" transform="translate(-702.173 -332.906)" fill="#17100d"/>
          <path id="Trazado_995054" data-name="Trazado 995054" d="M741.19,22.209h-.642l-.528,2.685s-1.882,4,4.016,1.875l.2-2.678Z" transform="translate(-665.73 -19.987)" fill="#fff"/>
          <path id="Trazado_995055" data-name="Trazado 995055" d="M739.744,20.763V20.6H739.1a.161.161,0,0,0-.158.13l-.528,2.685.158.031-.145-.068a3.451,3.451,0,0,0-.3,1.291,1.389,1.389,0,0,0,.348.985,1.767,1.767,0,0,0,1.338.45,8.77,8.77,0,0,0,2.83-.632.161.161,0,0,0,.106-.14l.2-2.678a.16.16,0,0,0-.076-.148l-3.042-1.882-.085-.024v.161l-.085.136,2.959,1.831-.189,2.581.16.012-.055-.151a8.48,8.48,0,0,1-2.721.613,1.456,1.456,0,0,1-1.106-.35,1.071,1.071,0,0,1-.259-.764,2.76,2.76,0,0,1,.136-.795c.034-.11.068-.2.094-.264s.041-.1.041-.1l.012-.037.5-2.555h.51v-.161l-.085.136Z" transform="translate(-664.284 -18.541)" fill="#17100d"/>
          <path id="Trazado_995056" data-name="Trazado 995056" d="M747.813,31.309h-.44l-.362,1.838s-1.289,2.741,2.75,1.284L749.9,32.6Z" transform="translate(-672.103 -28.177)" fill="#d66638"/>
          <path id="Trazado_995057" data-name="Trazado 995057" d="M746.369,29.863V29.7h-.44a.161.161,0,0,0-.157.13l-.362,1.838.158.031-.145-.068a2.409,2.409,0,0,0-.211.906,1,1,0,0,0,.253.71,1.26,1.26,0,0,0,.953.324,6.054,6.054,0,0,0,1.955-.436.161.161,0,0,0,.106-.139l.134-1.834a.16.16,0,0,0-.076-.148l-2.083-1.289-.085-.024v.161l-.085.136,2,1.237-.127,1.737.16.012-.054-.151a5.764,5.764,0,0,1-1.846.417.949.949,0,0,1-.721-.224.685.685,0,0,1-.164-.488,1.843,1.843,0,0,1,.091-.529c.023-.073.046-.135.063-.177l.027-.063.012-.037.336-1.709h.308v-.161l-.085.136Z" transform="translate(-670.659 -26.73)" fill="#17100d"/>
          <line id="Línea_3225" data-name="Línea 3225" y1="1.729" x2="0.888" transform="translate(75.605 4.218)" fill="#d66638"/>
          <path id="Trazado_995058" data-name="Trazado 995058" d="M754.432,42.521l.888-1.729a.161.161,0,0,0-.286-.147l-.888,1.729a.161.161,0,0,0,.286.147" transform="translate(-678.684 -36.5)" fill="#17100d"/>
          <line id="Línea_3226" data-name="Línea 3226" y1="0.864" x2="0.444" transform="translate(76.049 5.404)" fill="#d66638"/>
          <path id="Trazado_995059" data-name="Trazado 995059" d="M758.869,53.5l.444-.864a.161.161,0,0,0-.286-.147l-.444.864a.161.161,0,0,0,.286.147" transform="translate(-682.677 -47.163)" fill="#17100d"/>
          <rect id="Rectángulo_454801" data-name="Rectángulo 454801" width="5.564" height="0.972" transform="translate(78.502 4.421)" fill="#17100d"/>
          <path id="Trazado_995060" data-name="Trazado 995060" d="M282.593,215.517l-45.025,7.4a.707.707,0,1,0,.23,1.4l45.025-7.4a.707.707,0,0,0-.23-1.4" transform="translate(-213.268 -193.947)" fill="#8096a8"/>
          <path id="Trazado_995061" data-name="Trazado 995061" d="M414.017,265.121h0a1,1,0,0,1-.8-1.162l.479-2.58a1,1,0,0,1,1.96.364l-.479,2.579a1,1,0,0,1-1.162.8" transform="translate(-371.865 -234.497)" fill="#0069af"/>
          <path id="Trazado_995062" data-name="Trazado 995062" d="M412.572,263.672l.029-.158a.84.84,0,0,1-.684-.823l.014-.151.479-2.58a.84.84,0,0,1,.822-.684l.151.014h0a.839.839,0,0,1,.683.822l-.014.152-.479,2.579a.84.84,0,0,1-.822.683l-.153-.014h0l-.029.158-.029.158a1.177,1.177,0,0,0,.21.019,1.161,1.161,0,0,0,1.138-.946l.479-2.58a1.158,1.158,0,0,0-.927-1.349h0a1.124,1.124,0,0,0-.212-.02,1.161,1.161,0,0,0-1.138.946l-.479,2.58a1.148,1.148,0,0,0-.019.21,1.161,1.161,0,0,0,.946,1.139h0Z" transform="translate(-370.419 -233.049)" fill="#17100d"/>
          <path id="Trazado_995063" data-name="Trazado 995063" d="M431.5,272.075h0a1,1,0,0,1-.8-1.162l.479-2.579a1,1,0,0,1,1.96.364l-.479,2.579a1,1,0,0,1-1.162.8" transform="translate(-387.594 -240.755)" fill="#0069af"/>
          <path id="Trazado_995064" data-name="Trazado 995064" d="M430.051,270.626l.029-.158a.841.841,0,0,1-.684-.823l.014-.152.479-2.579a.84.84,0,0,1,.822-.684l.151.014h0a.839.839,0,0,1,.683.822l-.014.152-.479,2.579a.84.84,0,0,1-.823.683l-.153-.014h0l-.029.158-.028.158a1.178,1.178,0,0,0,.21.019,1.161,1.161,0,0,0,1.139-.946l.479-2.579a1.157,1.157,0,0,0-.927-1.349h0a1.124,1.124,0,0,0-.212-.02,1.161,1.161,0,0,0-1.138.946l-.479,2.579a1.15,1.15,0,0,0-.019.211,1.162,1.162,0,0,0,.946,1.139h0Z" transform="translate(-386.149 -239.307)" fill="#17100d"/>
          <path id="Trazado_995065" data-name="Trazado 995065" d="M589.828,215.8l-8.574,1.232a1.393,1.393,0,0,1-.4-2.759l8.573-1.232a1.393,1.393,0,1,1,.4,2.758" transform="translate(-521.672 -191.72)" fill="#17100d"/>
          <path id="Trazado_995066" data-name="Trazado 995066" d="M230.024,281.517l-6.521.937-.3-2.1,6.521-.937a1.06,1.06,0,1,1,.3,2.1" transform="translate(-200.872 -251.456)" fill="#17100d"/>
          <path id="Trazado_995067" data-name="Trazado 995067" d="M604.776,211.586l-4.658-1.344-5.978.5-2.531,1.023,6.419.592-3.127,1.487-.516.256a.779.779,0,1,0,.693,1.4l.063-.031a.776.776,0,0,0,1.063,1h1.087a.777.777,0,0,0,.955,1.18l.952-.472,3.674,2.3Z" transform="translate(-532.424 -189.209)" fill="#0069af"/>
          <path id="Trazado_995068" data-name="Trazado 995068" d="M796.675,121.711s-1.156-10.664,2.757-14.589,9.838,8.433,6.247,22.692c-6.247,5.964-9-8.1-9-8.1" transform="translate(-716.83 -95.742)" fill="#fefbfd"/>
          <path id="Trazado_995069" data-name="Trazado 995069" d="M719.73,236.848s-12.893-1.189-15.534-5.044l1.9-8.124,12.47,1.515Z" transform="translate(-633.747 -201.302)" fill="#fefbfd"/>
          <path id="Trazado_995070" data-name="Trazado 995070" d="M723.137,299.8a3.243,3.243,0,0,1-1.218.445v0H721.9a2.668,2.668,0,0,1-.729,0c-2.355-.033-12.2-.293-16.812-2.186l-.16.683c2.257,3.295,12,4.642,14.787,4.964a2.712,2.712,0,0,0,.725.078l.022,0v0a4.5,4.5,0,0,0,2.866-1.47q.319-1.267.539-2.511" transform="translate(-633.748 -268.238)" fill="#c2e3f6"/>
          <path id="Trazado_995071" data-name="Trazado 995071" d="M715.449,223.382l-5.952-.723-3.352-.407-1.472-.179a.161.161,0,0,0-.176.123l-1.9,8.124a.161.161,0,0,0,.05.157c.016.014,5.671,5.034,15.64,5.085h.02l-.017-.151v.152h.017l-.017-.151v.152a4.368,4.368,0,0,0,2.988-1.532.161.161,0,1,0-.248-.2l-.051.057a3.99,3.99,0,0,1-2.689,1.357h-.019l.017.151v-.152h-.017l.017.151v-.152h0a26.852,26.852,0,0,1-11.416-2.525,21.835,21.835,0,0,1-2.994-1.71c-.338-.232-.593-.426-.764-.56-.085-.067-.149-.12-.192-.156l-.062-.053-.107.12.156.037,1.9-8.124-.156-.037-.019.16,10.775,1.309a.161.161,0,0,0,.039-.319Z" transform="translate(-632.302 -199.855)" fill="#17100d"/>
          <path id="Trazado_995072" data-name="Trazado 995072" d="M661.862,365.415H676.03a.161.161,0,1,0,0-.321H661.862a.161.161,0,1,0,0,.321" transform="translate(-595.503 -328.569)" fill="#17100d"/>
          <path id="Trazado_995073" data-name="Trazado 995073" d="M1448,75.684h.212V72.415a1.242,1.242,0,0,1,2.484,0v3.269h2.817a3.555,3.555,0,0,1,3.555,3.555v21.07a3.555,3.555,0,0,1-3.555,3.555H1448a3.555,3.555,0,0,1-3.555-3.555V79.238A3.555,3.555,0,0,1,1448,75.684" transform="translate(-1299.943 -64.053)" fill="#0069af"/>
          <path id="Trazado_995074" data-name="Trazado 995074" d="M1447.711,139.929a3.555,3.555,0,0,0,3.555-3.555V116.26h2.249a3.555,3.555,0,0,1,3.555,3.555v21.07a3.555,3.555,0,0,1-3.555,3.555H1448a3.555,3.555,0,0,1-3.555-3.555v-.955Z" transform="translate(-1299.943 -104.629)" fill="#005a97"/>
          <path id="Trazado_995075" data-name="Trazado 995075" d="M1477.7,91.787h2.545V91.3l-.112.476.006,0a8.41,8.41,0,0,1,2.319,1.046,6.324,6.324,0,0,1,2.822,3.764.489.489,0,0,0,.948-.241,7.343,7.343,0,0,0-3.363-4.423,9.225,9.225,0,0,0-2.509-1.1l-.112-.013H1477.7a.489.489,0,1,0,0,.978Z" transform="translate(-1329.428 -81.724)" fill="#17100d"/>
          <path id="Trazado_995076" data-name="Trazado 995076" d="M1484.658,140.808V159.8a.163.163,0,0,0,.326,0V140.808a.163.163,0,1,0-.326,0" transform="translate(-1336.13 -126.575)" fill="#17100d"/>
          <path id="Trazado_995077" data-name="Trazado 995077" d="M1466.412,331.516l.115.115,1.123-1.123a.657.657,0,0,0-.929-.929L1465.6,330.7a.657.657,0,0,0,.929.929l-.115-.115-.115-.116a.331.331,0,0,1-.469-.468l1.123-1.123a.331.331,0,0,1,.468.468L1466.3,331.4Z" transform="translate(-1318.804 -296.434)" fill="#17100d"/>
          <path id="Trazado_995078" data-name="Trazado 995078" d="M1445.386,349.034h-2.4a.163.163,0,1,0,0,.326h2.4a.163.163,0,0,0,0-.326" transform="translate(-1298.477 -314.116)" fill="#17100d"/>
          <path id="Trazado_995079" data-name="Trazado 995079" d="M1560.565,329.793l-3.343,44.061h-2.477l-2.528-35.195-3.526,35.195h-2.509l-3.343-46.64Z" transform="translate(-1388.49 -294.479)" fill="#fefbfd"/>
          <path id="Trazado_995080" data-name="Trazado 995080" d="M1572.837,793.418l2.723.051s7.044.14,8.278,3.8c-2.33,1.471-11.063-.588-11.063-.588Z" transform="translate(-1415.432 -714.043)" fill="#17100d"/>
          <path id="Trazado_995081" data-name="Trazado 995081" d="M1658.875,786.435l2.723.052s7.043.14,8.278,3.8c-2.329,1.471-11.063-.589-11.063-.589Z" transform="translate(-1492.862 -707.758)" fill="#17100d"/>
          <path id="Trazado_995082" data-name="Trazado 995082" d="M1643.01,197.048s12.305,4.591,16.416,2.231l1.838-8.26L1649.2,186.91l-6.294-9.08-9.251,10.89Z" transform="translate(-1470.222 -160.039)" fill="#fefbfd"/>
          <path id="Trazado_995083" data-name="Trazado 995083" d="M1636.414,262.831l-.111.13,9.354,8.327s8.869,3.308,14.063,2.864l-.294,1.32c-4.111,2.36-16.416-2.231-16.416-2.231l-9.353-8.328,2.056-2.42Z" transform="translate(-1470.222 -236.233)" fill="#c2e3f6"/>
          <path id="Trazado_995084" data-name="Trazado 995084" d="M1692.143,139.828c1.019-1.256,2.225-1.572,3.391-.6,4.067,3.4,3.893,13.649,3.893,13.649s-1,9.728-5.21,9.651Z" transform="translate(-1522.858 -124.786)" fill="#17100d"/>
          <path id="Trazado_995085" data-name="Trazado 995085" d="M1899.6,313.026l4.589,4.71a1.455,1.455,0,0,1-2.327.163l-2.646-2.247a18.526,18.526,0,0,1-7.973,2.261l1.839-8.26Z" transform="translate(-1702.036 -278.674)" fill="#0069af"/>
          <path id="Trazado_995086" data-name="Trazado 995086" d="M1910.385,372.4h0a1.014,1.014,0,0,0,1.113-.9l.282-2.646a1.011,1.011,0,0,0-2.011-.215l-.282,2.646a1.014,1.014,0,0,0,.9,1.113" transform="translate(-1718.453 -330.949)" fill="#0069af"/>
          <path id="Trazado_995087" data-name="Trazado 995087" d="M1908.919,370.934l-.017.162.124.006a1.177,1.177,0,0,0,1.167-1.049l.282-2.646.007-.125a1.177,1.177,0,0,0-1.05-1.167l-.125-.007a1.177,1.177,0,0,0-1.167,1.049l-.282,2.646-.007.125a1.178,1.178,0,0,0,1.049,1.167l.018-.162.017-.162a.853.853,0,0,1-.758-.844l0-.09.282-2.646a.852.852,0,0,1,.843-.758l.09,0a.852.852,0,0,1,.758.843l-.005.09-.282,2.646a.852.852,0,0,1-.843.758l-.091,0Z" transform="translate(-1716.987 -329.482)" fill="#17100d"/>
          <path id="Trazado_995088" data-name="Trazado 995088" d="M1892.749,375.476h0a.783.783,0,0,0,.973-.524l.59-1.969a.781.781,0,0,0-1.5-.449l-.59,1.969a.783.783,0,0,0,.524.972" transform="translate(-1702.894 -334.764)" fill="#0069af"/>
          <path id="Trazado_995089" data-name="Trazado 995089" d="M1891.283,374.006l-.047.156a.945.945,0,0,0,1.176-.633l.59-1.969a.944.944,0,0,0-.633-1.175.932.932,0,0,0-.27-.04.946.946,0,0,0-.906.673l-.59,1.969a.937.937,0,0,0-.04.27.947.947,0,0,0,.673.906l.047-.156.047-.156a.621.621,0,0,1-.44-.593.611.611,0,0,1,.026-.176l.59-1.969a.621.621,0,0,1,.594-.44.6.6,0,0,1,.176.026.618.618,0,0,1,.415.77l-.59,1.969a.619.619,0,0,1-.77.414Z" transform="translate(-1701.427 -333.295)" fill="#17100d"/>
          <path id="Trazado_995090" data-name="Trazado 995090" d="M1560.423,97.274c11.881,5.981,3.133,26.922,3.133,26.922l-16.624-6.092,6.183-23.865Z" transform="translate(-1392.175 -84.81)" fill="#fefbfd"/>
          <path id="Trazado_995091" data-name="Trazado 995091" d="M1617.971,155.3s.024.293.048.826.048,1.306.048,2.26a52.369,52.369,0,0,1-1.569,13.026c-1.317,4.949-3.7,9.846-7.929,12.772a.163.163,0,1,0,.185.268c4.327-3,6.731-7.968,8.059-12.956a52.7,52.7,0,0,0,1.58-13.11c0-1.919-.1-3.109-.1-3.113a.163.163,0,1,0-.325.027Z" transform="translate(-1447.58 -139.603)" fill="#17100d"/>
          <path id="Trazado_995092" data-name="Trazado 995092" d="M1542.839,306.926l12.006-2.255s-5.626,6.231-7.937,7.4-2.873,11.552-2.873,11.552Z" transform="translate(-1388.49 -274.191)" fill="#8ecef0"/>
          <path id="Trazado_995093" data-name="Trazado 995093" d="M1667.17,37.063l.359,2.949-.477,1.6s-3.112,3.187-4.534,1.438-1.15-5.53-1.15-5.53,4.236-1.068,5.8-.455" transform="translate(-1495.143 -33.184)" fill="#d66638"/>
          <path id="Trazado_995094" data-name="Trazado 995094" d="M1610.521,17.429l-1.572-4.453s-1.722-4.668,4.02-4.921c-.611-1.859-2.1-3.833-4.67-3.337s-6.782,6.887-7.167,8.778,9.389,3.933,9.389,3.933" transform="translate(-1440.941 -4.176)" fill="#fefbfd"/>
          <path id="Trazado_995095" data-name="Trazado 995095" d="M1675.059,68.785s3.972,2.933,4.619-.538c1.617,1.584.666,6.708-2.807,6.425-2.938-.687-1.813-5.887-1.813-5.887" transform="translate(-1507.292 -61.419)" fill="#0069af"/>
          <path id="Trazado_995096" data-name="Trazado 995096" d="M1663.848,76.892V76.9a5.611,5.611,0,0,1,.127,1.223,4.582,4.582,0,0,1-.54,2.257A3.7,3.7,0,0,1,1661,82.112a.163.163,0,0,0-.118.194l.548,2.422.159-.036.113-.117s-.783-.756-1.758-1.576a11.611,11.611,0,0,0-2.946-1.98.163.163,0,1,0-.1.309,11.452,11.452,0,0,1,2.839,1.92c.483.406.918.8,1.233,1.086s.508.475.508.476a.163.163,0,0,0,.272-.153l-.548-2.422-.159.036.041.158a4.028,4.028,0,0,0,2.638-1.889,4.9,4.9,0,0,0,.582-2.419,6.512,6.512,0,0,0-.065-.915,3.672,3.672,0,0,0-.077-.407.163.163,0,1,0-.312.095Z" transform="translate(-1491.036 -69.01)" fill="#17100d"/>
          <path id="Trazado_995097" data-name="Trazado 995097" d="M1695.747,94.84l.024.047-.022-.047h0l.024.047-.022-.047a1.6,1.6,0,0,1-.63.1,4.975,4.975,0,0,1-2.062-.542.163.163,0,1,0-.137.3,5.294,5.294,0,0,0,2.2.572,1.835,1.835,0,0,0,.775-.132.163.163,0,1,0-.146-.291Z" transform="translate(-1523.472 -84.938)" fill="#17100d"/>
          <path id="Trazado_995098" data-name="Trazado 995098" d="M1691.086,106.65l.023.045-.021-.045h0l.023.045-.021-.045a1.588,1.588,0,0,1-.629.1,4.974,4.974,0,0,1-2.062-.542.163.163,0,0,0-.137.3,5.289,5.289,0,0,0,2.2.572,1.831,1.831,0,0,0,.774-.132.163.163,0,1,0-.146-.291Z" transform="translate(-1519.278 -95.567)" fill="#17100d"/>
          <path id="Trazado_995099" data-name="Trazado 995099" d="M1615.606,65.563a8.77,8.77,0,0,0-1.231.944,3.371,3.371,0,0,0-1.271,2.186.163.163,0,0,0,.326,0,3.086,3.086,0,0,1,1.166-1.951,8.536,8.536,0,0,1,.813-.659c.111-.079.2-.141.267-.183s.1-.063.1-.063a.163.163,0,1,0-.17-.278Z" transform="translate(-1451.727 -58.982)" fill="#17100d"/>
          <path id="Trazado_995100" data-name="Trazado 995100" d="M1526,87.228a1.129,1.129,0,0,1,.073-.211c1.4-3,4.882-1.639,5.817-.085,3.158,5.246-1,15.381-1.363,16.249l-.058.118c-.392.7-4.279,7.416-8.352,8.035a1.393,1.393,0,0,1-1.633-1.6Z" transform="translate(-1368.342 -76.706)" fill="#17100d"/>
          <path id="Trazado_995101" data-name="Trazado 995101" d="M1680.152,37.425l.625.186-.266,2.763s.668,4.436-4.447.657l.586-2.66Z" transform="translate(-1508.387 -33.681)" fill="#fff"/>
          <path id="Trazado_995102" data-name="Trazado 995102" d="M1678.686,36.009l-.047.156.5.148-.253,2.63v.04s.006.042.013.119.014.187.014.316a2.353,2.353,0,0,1-.2,1.027.926.926,0,0,1-.9.533,6.026,6.026,0,0,1-3.111-1.492l-.1.131.159.035.565-2.563,3.407-.921-.042-.157-.047.156.047-.156-.043-.157-3.5.946a.163.163,0,0,0-.116.122l-.586,2.66a.163.163,0,0,0,.062.166,6.275,6.275,0,0,0,3.3,1.556,1.258,1.258,0,0,0,1.193-.71,2.666,2.666,0,0,0,.238-1.175,3.6,3.6,0,0,0-.03-.483l-.161.024.162.015.266-2.763a.163.163,0,0,0-.116-.172l-.624-.186h-.089Z" transform="translate(-1506.921 -32.265)" fill="#17100d"/>
          <path id="Trazado_995103" data-name="Trazado 995103" d="M1686.675,45.543l.428.127-.182,1.892s.458,3.038-3.046.451l.4-1.822Z" transform="translate(-1515.417 -40.987)" fill="#d66638"/>
          <path id="Trazado_995104" data-name="Trazado 995104" d="M1685.208,44.127l-.046.156.3.089-.169,1.758v.04l.009.078c0,.052.009.125.009.212a1.565,1.565,0,0,1-.133.68.582.582,0,0,1-.573.337,4.088,4.088,0,0,1-2.1-1.012l-.1.131.159.035.38-1.725,2.3-.622-.043-.157-.046.156.046-.156-.042-.157-2.4.648a.162.162,0,0,0-.117.122l-.4,1.822a.163.163,0,0,0,.062.166,4.34,4.34,0,0,0,2.294,1.075.914.914,0,0,0,.863-.515,1.875,1.875,0,0,0,.168-.828,2.546,2.546,0,0,0-.021-.339l-.161.024.162.016.182-1.892a.163.163,0,0,0-.115-.172l-.428-.127h-.089Z" transform="translate(-1513.95 -39.571)" fill="#17100d"/>
          <line id="Línea_3227" data-name="Línea 3227" x1="0.362" y1="1.937" transform="translate(170.182 5.385)" fill="#d66638"/>
          <path id="Trazado_995105" data-name="Trazado 995105" d="M1700.164,54.269l-.362-1.937a.163.163,0,1,0-.32.06l.362,1.937a.163.163,0,1,0,.32-.06" transform="translate(-1529.46 -46.976)" fill="#17100d"/>
          <line id="Línea_3228" data-name="Línea 3228" x1="0.181" y1="0.969" transform="translate(169.839 6.537)" fill="#d66638"/>
          <path id="Trazado_995106" data-name="Trazado 995106" d="M1696.547,64.811l-.181-.969a.163.163,0,0,0-.32.06l.181.969a.163.163,0,1,0,.32-.06" transform="translate(-1526.367 -57.335)" fill="#17100d"/>
          <rect id="Rectángulo_454802" data-name="Rectángulo 454802" width="0.985" height="5.644" transform="translate(162.481 4.33) rotate(-73.382)" fill="#17100d"/>
          <path id="Trazado_995107" data-name="Trazado 995107" d="M1711.171,242.545l41.617,20.257a.717.717,0,0,1-.628,1.29l-41.617-20.257a.717.717,0,1,1,.628-1.29" transform="translate(-1539.054 -218.215)" fill="#8096a8"/>
          <path id="Trazado_995108" data-name="Trazado 995108" d="M1950.07,368h0a1.014,1.014,0,0,0,1.113-.9l.283-2.646a1.011,1.011,0,0,0-2.011-.214l-.283,2.646a1.015,1.015,0,0,0,.9,1.113" transform="translate(-1754.167 -326.989)" fill="#0069af"/>
          <path id="Trazado_995109" data-name="Trazado 995109" d="M1948.6,366.534l-.017.162.124.006a1.178,1.178,0,0,0,1.167-1.049l.282-2.646.007-.124a1.177,1.177,0,0,0-1.05-1.167l-.125-.007a1.177,1.177,0,0,0-1.167,1.05l-.283,2.646-.007.124a1.178,1.178,0,0,0,1.049,1.168l.018-.162.017-.162a.853.853,0,0,1-.758-.844l0-.09.283-2.646a.852.852,0,0,1,.843-.759l.09,0a.852.852,0,0,1,.758.843l0,.09-.283,2.646a.852.852,0,0,1-.843.758l-.091,0Z" transform="translate(-1752.701 -325.522)" fill="#17100d"/>
          <path id="Trazado_995110" data-name="Trazado 995110" d="M1931.063,369.688h0a1.014,1.014,0,0,0,1.113-.9l.282-2.646a1.011,1.011,0,1,0-2.011-.215l-.282,2.646a1.014,1.014,0,0,0,.9,1.112" transform="translate(-1737.062 -328.508)" fill="#0069af"/>
          <path id="Trazado_995111" data-name="Trazado 995111" d="M1929.6,368.22l-.017.162.124.007a1.177,1.177,0,0,0,1.167-1.049l.282-2.646.007-.125a1.177,1.177,0,0,0-1.05-1.167l-.125-.007a1.177,1.177,0,0,0-1.167,1.05l-.282,2.646-.007.124a1.178,1.178,0,0,0,1.049,1.167l.018-.162.017-.162a.853.853,0,0,1-.759-.843l.005-.09.282-2.646a.852.852,0,0,1,.843-.759l.09,0a.851.851,0,0,1,.758.843l0,.09-.282,2.646a.852.852,0,0,1-.843.758l-.091,0Z" transform="translate(-1735.596 -327.039)" fill="#17100d"/>
          <path id="Trazado_995112" data-name="Trazado 995112" d="M1717.134,246.767l7.976,3.685a1.413,1.413,0,1,0,1.185-2.566l-7.976-3.684a1.413,1.413,0,1,0-1.186,2.566" transform="translate(-1544.611 -219.654)" fill="#17100d"/>
          <path id="Trazado_995113" data-name="Trazado 995113" d="M2080.527,423.73l6.066,2.8.9-1.952-6.067-2.8a1.075,1.075,0,1,0-.9,1.952" transform="translate(-1871.826 -379.494)" fill="#17100d"/>
          <path id="Trazado_995114" data-name="Trazado 995114" d="M1583.512,366.445l-14.355-.7a.163.163,0,1,0-.016.325l14.355.7a.163.163,0,1,0,.016-.326" transform="translate(-1412.021 -329.157)" fill="#17100d"/>
          <path id="Trazado_995115" data-name="Trazado 995115" d="M1537.31,254.866c-.01-.005-.921-.5-2.134-1a11.643,11.643,0,0,0-4-1.012,2.621,2.621,0,0,0-1.664.486,1.807,1.807,0,0,0-.542.726,2.582,2.582,0,0,0-.181,1,5.186,5.186,0,0,0,.175,1.253,32.6,32.6,0,0,0,1.855,4.682c1.326,2.91,3.087,6.495,4.512,9.8.713,1.651,1.341,3.232,1.788,4.613a12.044,12.044,0,0,1,.706,3.384,1.71,1.71,0,0,1-.225,1,.566.566,0,0,1-.231.188,1.01,1.01,0,0,1-.419.076,3.733,3.733,0,0,1-1.291-.3,13.693,13.693,0,0,1-2.022-1.03,38.554,38.554,0,0,0-5.915-3.016,10.434,10.434,0,0,0-3.687-.81,6.752,6.752,0,0,0-2.888.707,5.637,5.637,0,0,1-2.428.627,6.442,6.442,0,0,1-1.523-.2,2.78,2.78,0,0,1-1.487-.948,7.1,7.1,0,0,1-1.322-3.158,22.467,22.467,0,0,1-.372-4.368,49.09,49.09,0,0,1,.435-6.137c.109-.838.218-1.537.3-2.024.041-.244.075-.435.1-.565s.037-.2.037-.2a.489.489,0,0,0-.96-.187,54.454,54.454,0,0,0-.887,9.11,19.741,19.741,0,0,0,.745,5.918,6.635,6.635,0,0,0,1.181,2.24,3.762,3.762,0,0,0,2,1.266,7.425,7.425,0,0,0,1.754.229,6.59,6.59,0,0,0,2.816-.707,5.784,5.784,0,0,1,2.5-.627,9.477,9.477,0,0,1,3.339.746,37.622,37.622,0,0,1,5.76,2.941,14.653,14.653,0,0,0,2.171,1.1,4.657,4.657,0,0,0,1.645.37,1.978,1.978,0,0,0,.821-.162,1.606,1.606,0,0,0,.812-.843,3.072,3.072,0,0,0,.218-1.231,16.69,16.69,0,0,0-1.271-5.167c-1.138-3.064-2.856-6.692-4.386-9.945-.765-1.626-1.482-3.157-2.055-4.469a22.87,22.87,0,0,1-1.18-3.134,4.252,4.252,0,0,1-.145-1.015,1.618,1.618,0,0,1,.105-.624.832.832,0,0,1,.434-.452,2.037,2.037,0,0,1,.869-.158,10.818,10.818,0,0,1,3.633.939c.581.238,1.094.478,1.459.657.183.09.329.164.429.216l.114.06.037.02a.489.489,0,1,0,.466-.859Z" transform="translate(-1361.668 -227.56)" fill="#17100d"/>
          <path id="Trazado_995116" data-name="Trazado 995116" d="M1684.759,242.263l4.917.044,5.665,2.222,2.163,1.729-6.412-1.286,2.609,2.352.427.4a.79.79,0,0,1-1.079,1.155l-.052-.049a.787.787,0,0,1-1.321.659l-1.056-.316a.788.788,0,0,1-1.271.87l-.788-.735-4.239,1.17Z" transform="translate(-1515.819 -218.026)" fill="#0069af"/>
          <path id="Trazado_995117" data-name="Trazado 995117" d="M1505.6,109.382s4.218-10.03,1.552-14.98-12.009,5.343-12.655,20.244c4.343,7.609,11.1-5.264,11.1-5.264" transform="translate(-1344.984 -83.827)" fill="#fefbfd"/>
          <path id="Trazado_995118" data-name="Trazado 995118" d="M1518.073,231.813s12.877,2.584,16.562-.4l.507-8.448-12.561-2.145Z" transform="translate(-1366.202 -198.73)" fill="#fefbfd"/>
          <path id="Trazado_995119" data-name="Trazado 995119" d="M1494.7,282.094a3.3,3.3,0,0,0,1.055.786l0,0,.021.006a2.741,2.741,0,0,0,.71.207c2.3.65,11.943,3.254,16.975,2.751l-.043.71c-3.15,2.548-13.014,1.031-15.813.536a2.721,2.721,0,0,1-.727-.134l-.022,0v0a4.56,4.56,0,0,1-2.36-2.26c.038-.883.108-1.749.2-2.6" transform="translate(-1344.984 -253.873)" fill="#c2e3f6"/>
          <path id="Trazado_995120" data-name="Trazado 995120" d="M1501.577,222.43l10.854,1.853.027-.161-.162-.01-.507,8.448.163.01-.069-.148s-.048.023-.148.064a22.636,22.636,0,0,1-8.4,1.479,28.043,28.043,0,0,1-7.9-1.154h0a3.454,3.454,0,0,1-1.7-1.254,5.032,5.032,0,0,1-.42-.645c-.046-.084-.08-.153-.1-.2l-.032-.071a.163.163,0,1,0-.3.127,4.431,4.431,0,0,0,2.462,2.357h0a28.362,28.362,0,0,0,7.987,1.168,22.255,22.255,0,0,0,8.689-1.574.163.163,0,0,0,.094-.138l.507-8.448a.163.163,0,0,0-.135-.17l-4.859-.83-5.995-1.024a.163.163,0,1,0-.055.321Z" transform="translate(-1343.518 -199.886)" fill="#17100d"/>
          <path id="Trazado_995121" data-name="Trazado 995121" d="M1117.681,793.15a1.759,1.759,0,0,0-2.063,1.39,9.076,9.076,0,0,0-.047,2.331,1.759,1.759,0,0,0,3.489.034s-.117-1.391-.095-2.712c.014-.852-.445-.878-1.282-1.042Z" transform="translate(-1003.928 -713.772)" fill="#17100d"/>
          <path id="Trazado_995122" data-name="Trazado 995122" d="M1219.02,848.623c-.954-.187-1.928.692-2.176,1.961a15.81,15.81,0,0,0-.193,3.079c.031,2.695,3.115,2.531,3.53-.173,0,0-.031-1.829.073-3.573.068-1.126-.4-1.131-1.233-1.295Z" transform="translate(-1094.933 -763.703)" fill="#17100d"/>
          <path id="Trazado_995123" data-name="Trazado 995123" d="M1094.86,160.783h-10.807c-6.675,3.051-5.008,27.994-5.008,27.994h20.823s1.667-24.943-5.008-27.994" transform="translate(-970.929 -144.698)" fill="#fefbfd"/>
          <path id="Trazado_995124" data-name="Trazado 995124" d="M1177.033,194.927s-.683,8.747-.683,16c0,3.628.167,6.868.691,8.5a.161.161,0,0,0,.306-.1c-.5-1.542-.677-4.788-.675-8.4s.171-7.608.341-10.7c.085-1.545.171-2.863.234-3.8s.106-1.476.107-1.478a.161.161,0,0,0-.32-.025Z" transform="translate(-1058.666 -175.293)" fill="#17100d"/>
          <path id="Trazado_995125" data-name="Trazado 995125" d="M1079.2,392.667a23.41,23.41,0,0,0,8.814,1.83,14.632,14.632,0,0,0,10-3.6.16.16,0,1,0-.214-.239,14.311,14.311,0,0,1-9.79,3.514,22.64,22.64,0,0,1-6.13-.9c-.788-.225-1.427-.451-1.868-.62-.221-.084-.392-.155-.507-.2s-.174-.076-.174-.076a.161.161,0,0,0-.134.292Z" transform="translate(-971.148 -351.543)" fill="#17100d"/>
          <path id="Trazado_995126" data-name="Trazado 995126" d="M1236.44,212.9s-.146,7.352,1.689,9.438c1.751,1.99-1.689,6.159-1.689,6.159s8.425-4.379,8.319-6.814-6.749-8.782-8.319-8.782" transform="translate(-1112.742 -191.605)" fill="#c2e3f6"/>
          <path id="Trazado_995127" data-name="Trazado 995127" d="M1091.121,440.6h-10.411l4,35.94,2.453-.022Z" transform="translate(-972.593 -396.522)" fill="#fefbfd"/>
          <path id="Trazado_995128" data-name="Trazado 995128" d="M1199.062,439.091l-9.981.167,3.632,41.885,2.454-.116Z" transform="translate(-1070.123 -395.164)" fill="#fefbfd"/>
          <path id="Trazado_995129" data-name="Trazado 995129" d="M1125.059,606.739s-.415,4.9-3.376,5.715c-3.774.642,2.369,3.284,2.083,6.037s1.293-11.751,1.293-11.751" transform="translate(-1008.361 -546.04)" fill="#8ecef0"/>
          <path id="Trazado_995130" data-name="Trazado 995130" d="M1241.312,176.558s-6.141-8.795-4.6-14.118,12.681,2.665,16.388,16.895c-2.611,8.232-11.791-2.776-11.791-2.776" transform="translate(-1112.768 -144.697)" fill="#fefbfd"/>
          <path id="Trazado_995131" data-name="Trazado 995131" d="M1251.3,286.01s-8.426,9.737-12.6,7.626l-2.237-8.038,8.212-9.249Z" transform="translate(-1112.766 -248.703)" fill="#fefbfd"/>
          <path id="Trazado_995132" data-name="Trazado 995132" d="M976.109,337.306s.577,11.374-1.35,16.262h-7.605l-.714-14.848Z" transform="translate(-869.755 -303.561)" fill="#fefbfd"/>
          <path id="Trazado_995133" data-name="Trazado 995133" d="M1270.8,321.62a3.241,3.241,0,0,1-.854.976l0,0-.019.011a2.69,2.69,0,0,1-.641.346c-2.081,1.1-7.388,10.19-12.342,10.747l.188.676c5.826.782,12.36-7.492,12.575-7.618l.02-.009,0,0a4.5,4.5,0,0,0,1.807-2.667c-.219-.844-.466-1.664-.734-2.462" transform="translate(-1131.201 -289.444)" fill="#c2e3f6"/>
          <path id="Trazado_995134" data-name="Trazado 995134" d="M1240.508,305.689l-5.554,6.158-.036.151,2.237,8.038.063.089a2.4,2.4,0,0,0,1.3.292c1.78,0,5.41-1.15,11.5-7.943l-.12-.107.077.141a3.722,3.722,0,0,0,1.514-1.7,4.914,4.914,0,0,0,.372-1.076.161.161,0,1,0-.316-.06l-.016.075a3.991,3.991,0,0,1-1.708,2.484l-.042.034c-6.064,6.765-9.631,7.84-11.263,7.837a2.762,2.762,0,0,1-.868-.124,1.468,1.468,0,0,1-.2-.082l-.045-.024-.009-.006h0l-.091.132.155-.043L1235.251,312l5.5-6.093a.161.161,0,1,0-.239-.215Z" transform="translate(-1111.374 -275.06)" fill="#17100d"/>
          <path id="Trazado_995135" data-name="Trazado 995135" d="M978.237,174.082s6.141-8.795,4.6-14.118-12.681,3.57-16.388,17.8c2.611,8.232,11.792-3.682,11.792-3.682" transform="translate(-869.76 -142.557)" fill="#fefbfd"/>
          <path id="Trazado_995136" data-name="Trazado 995136" d="M979.914,503.127l-5.641.272-.361-3.54h6.952Z" transform="translate(-876.48 -449.851)" fill="#0069af"/>
          <path id="Trazado_995137" data-name="Trazado 995137" d="M978.663,502l-.006-.126-5.521.266-.335-3.283h6.645l-.9,3.108.121.035-.006-.126.006.126.121.035,1-3.43h-7.259l.387,3.8,5.85-.282.025-.086Z" transform="translate(-875.229 -448.72)" fill="#17100d"/>
          <path id="Trazado_995138" data-name="Trazado 995138" d="M959.679,586.888h0a4.8,4.8,0,0,1-5.01-4.547l-.488-10.054a4.784,4.784,0,0,1,9.557-.464l.488,10.054a4.8,4.8,0,0,1-4.547,5.01" transform="translate(-858.718 -510.52)" fill="#0069af"/>
          <path id="Trazado_995139" data-name="Trazado 995139" d="M981.4,544.331l-2.319.118a1.5,1.5,0,0,1-.151-3l2.319-.118a1.5,1.5,0,0,1,.151,3" transform="translate(-879.711 -487.178)" fill="#0069af"/>
          <path id="Trazado_995140" data-name="Trazado 995140" d="M989.029,545.137l-3.084.1a.343.343,0,0,1-.018-.686l3.084-.1a.343.343,0,0,1,.018.686" transform="translate(-886.992 -489.982)" fill="#17100d"/>
          <path id="Trazado_995141" data-name="Trazado 995141" d="M981.978,577.374a1.272,1.272,0,0,1-.7,1.014,3.354,3.354,0,0,1-1.736.442h-.07v.136l0-.136a3.4,3.4,0,0,1-1.759-.481,1.3,1.3,0,0,1-.692-1.041v-.014a.136.136,0,0,0-.272-.006v.02a1.564,1.564,0,0,0,.818,1.271,3.673,3.673,0,0,0,1.9.525h.073a3.621,3.621,0,0,0,1.879-.483,1.539,1.539,0,0,0,.825-1.242.136.136,0,1,0-.272,0Z" transform="translate(-879.038 -519.414)" fill="#17100d"/>
          <path id="Trazado_995142" data-name="Trazado 995142" d="M962.591,609.862l.561,11.829.014.053a4.91,4.91,0,0,0,1.048,1.323,5.022,5.022,0,0,0,3.46,1.318q.188,0,.384-.012a.136.136,0,1,0-.016-.272q-.189.011-.368.011a4.746,4.746,0,0,1-3.276-1.247,5.078,5.078,0,0,1-.753-.858c-.081-.117-.14-.214-.179-.281l-.043-.077-.013-.025-.122.06.136-.006-.561-11.829a.136.136,0,1,0-.272.013Z" transform="translate(-866.291 -548.722)" fill="#17100d"/>
          <path id="Trazado_995143" data-name="Trazado 995143" d="M1011.075,523.217l.238,1.806a.793.793,0,0,0,.863.7c.39-.073.5-.432.555-.963l.144-1.588" transform="translate(-909.925 -470.832)" fill="#0069af"/>
          <path id="Trazado_995144" data-name="Trazado 995144" d="M1009.828,523.131l.238,1.809v0a.943.943,0,0,0,.874.813l.135-.012h0a.667.667,0,0,0,.493-.376,2.042,2.042,0,0,0,.164-.7l.144-1.589-.251-.023-.144,1.588a1.81,1.81,0,0,1-.138.608.411.411,0,0,1-.314.243h0l-.09.008a.7.7,0,0,1-.627-.607l-.124.023.125-.016-.238-1.806-.25.033Z" transform="translate(-908.803 -470.729)" fill="#17100d"/>
          <path id="Trazado_995145" data-name="Trazado 995145" d="M999.3,522.855l.238,1.806a.793.793,0,0,0,.863.7c.39-.073.5-.432.555-.963l.144-1.588" transform="translate(-899.329 -470.506)" fill="#0069af"/>
          <path id="Trazado_995146" data-name="Trazado 995146" d="M998.055,522.77l.238,1.809v0a.943.943,0,0,0,.875.813l.135-.012h0a.667.667,0,0,0,.493-.376,2.038,2.038,0,0,0,.164-.7l.144-1.589-.251-.023-.144,1.588a1.811,1.811,0,0,1-.138.608.411.411,0,0,1-.314.243h0l-.09.008a.7.7,0,0,1-.627-.607l-.124.023.125-.017-.238-1.806-.25.033Z" transform="translate(-898.208 -470.404)" fill="#17100d"/>
          <path id="Trazado_995147" data-name="Trazado 995147" d="M987.528,522.494l.238,1.806a.793.793,0,0,0,.863.7c.39-.073.5-.432.555-.963l.144-1.588" transform="translate(-888.734 -470.181)" fill="#0069af"/>
          <path id="Trazado_995148" data-name="Trazado 995148" d="M986.281,522.408l.238,1.809v0a.944.944,0,0,0,.875.813l.135-.012h0a.667.667,0,0,0,.493-.377,2.036,2.036,0,0,0,.164-.7l.144-1.589-.25-.023-.144,1.588a1.814,1.814,0,0,1-.138.608.411.411,0,0,1-.315.243h0l-.09.008a.7.7,0,0,1-.627-.607l-.124.023.125-.017-.238-1.806-.25.033Z" transform="translate(-887.611 -470.079)" fill="#17100d"/>
          <path id="Trazado_995149" data-name="Trazado 995149" d="M975.9,505.465l-.144,1.588c-.054.532-.165.89-.555.963a.793.793,0,0,1-.864-.7l-.422-3.7" transform="translate(-876.48 -453.234)" fill="#0069af"/>
          <path id="Trazado_995150" data-name="Trazado 995150" d="M974.647,505.325l-.144,1.588a1.816,1.816,0,0,1-.138.608.411.411,0,0,1-.314.242h0l-.09.008a.7.7,0,0,1-.627-.607l-.124.023.125-.014-.422-3.7-.25.029.422,3.7v0a.944.944,0,0,0,.875.812l.135-.012h0a.666.666,0,0,0,.493-.377,2.034,2.034,0,0,0,.164-.7l.144-1.589-.251-.023Z" transform="translate(-875.356 -453.105)" fill="#17100d"/>
          <path id="Trazado_995151" data-name="Trazado 995151" d="M1026.3,499.859l-.8,4.416-1.1.369.264-2.942" transform="translate(-921.915 -449.852)" fill="#0069af"/>
          <path id="Trazado_995152" data-name="Trazado 995152" d="M1024.891,499.634l-.79,4.343-.845.284.247-2.75-.251-.022-.281,3.134,1.352-.454.817-4.489-.248-.045Z" transform="translate(-920.631 -449.649)" fill="#17100d"/>
          <path id="Trazado_995153" data-name="Trazado 995153" d="M1122.608,56.6c-.467-1.428,1.266-6.664,3.746-10.014a3.774,3.774,0,0,1,5.8.121c2,2.728,4,8.085,3.808,9.98s-12.409,2.817-13.359-.087" transform="translate(-1010.231 -40.748)" fill="#fefbfd"/>
          <path id="Trazado_995154" data-name="Trazado 995154" d="M1152.55,73.6c-.259-.657.7-3.065,2.075-4.606a2.378,2.378,0,0,1,3.216.056c1.109,1.255,2.214,3.718,2.11,4.59s-6.874,1.3-7.4-.04" transform="translate(-1037.208 -61.551)" fill="#d66638"/>
          <path id="Trazado_995155" data-name="Trazado 995155" d="M1124.687,158.354s1.152.831,2.463,1.662c.656.416,1.352.832,1.967,1.146a4.057,4.057,0,0,0,1.522.535,7.342,7.342,0,0,0,1.583-.35,22.674,22.674,0,0,0,3.676-1.454,7.654,7.654,0,0,0,1.475-.951,1.528,1.528,0,0,0,.637-1.06l0-.075a.161.161,0,1,0-.32.031l0,.044a.86.86,0,0,1-.234.521,9.844,9.844,0,0,1-3.537,2.021c-.734.285-1.458.524-2.049.691a6.127,6.127,0,0,1-1.23.26,3.892,3.892,0,0,1-1.375-.5,31.709,31.709,0,0,1-2.873-1.737c-.436-.29-.815-.552-1.085-.74s-.43-.3-.431-.3a.161.161,0,1,0-.188.261Z" transform="translate(-1012.111 -141.889)" fill="#17100d"/>
          <path id="Trazado_995156" data-name="Trazado 995156" d="M1185.932,47.18l-.245.964a.161.161,0,0,0,.312.079l.245-.964a.161.161,0,0,0-.311-.079" transform="translate(-1067.064 -42.351)" fill="#17100d"/>
          <path id="Trazado_995157" data-name="Trazado 995157" d="M1147.586,111.886c-.293.589.795,2.748,2.352,4.129a3.238,3.238,0,0,0,3.645-.05c1.257-1.124,2.509-3.334,2.391-4.116s-7.791-1.161-8.388.036" transform="translate(-1032.736 -100.004)" fill="#0069af"/>
          <path id="Trazado_995158" data-name="Trazado 995158" d="M1157.462,119.183s.074-.023.216-.058a11.514,11.514,0,0,1,2.685-.319,9,9,0,0,1,2.988.478.161.161,0,0,0,.107-.3,9.328,9.328,0,0,0-3.1-.5,11.363,11.363,0,0,0-2.994.391.161.161,0,0,0,.093.308Z" transform="translate(-1041.481 -106.631)" fill="#17100d"/>
          <path id="Trazado_995159" data-name="Trazado 995159" d="M1169.373,133.243s.045-.014.134-.036a7.237,7.237,0,0,1,1.687-.2,5.644,5.644,0,0,1,1.874.3.161.161,0,0,0,.107-.3,5.963,5.963,0,0,0-1.981-.318,7.254,7.254,0,0,0-1.914.251.161.161,0,0,0,.094.308Z" transform="translate(-1052.2 -119.411)" fill="#17100d"/>
          <path id="Trazado_995160" data-name="Trazado 995160" d="M1171.393,148.981s.04-.012.119-.032a6.452,6.452,0,0,1,1.5-.179,5.031,5.031,0,0,1,1.669.267.161.161,0,0,0,.107-.3,5.353,5.353,0,0,0-1.776-.285,6.5,6.5,0,0,0-1.715.224.161.161,0,0,0,.093.308Z" transform="translate(-1054.017 -133.598)" fill="#17100d"/>
          <path id="Trazado_995161" data-name="Trazado 995161" d="M1000.052,334.412l.017-.013a9,9,0,0,1,1.221-.807,4.7,4.7,0,0,1,2.109-.663,1.646,1.646,0,0,1,1.053.338,2.623,2.623,0,0,1,.817,1.36,42.2,42.2,0,0,0,2.072,5.335,15.865,15.865,0,0,0,1.375,2.421,4.36,4.36,0,0,0,.725.8,1.433,1.433,0,0,0,.893.372,1,1,0,0,0,.5-.136,1.55,1.55,0,0,0,.595-.708,6.453,6.453,0,0,0,.466-1.92,27.75,27.75,0,0,0,.159-3.277c0-1.392-.059-3.077-.187-5.1v0c-.116-1.687-.17-3.312-.17-4.865a43.849,43.849,0,0,1,1.677-13.027,11.8,11.8,0,0,1,1.729-3.565,3.629,3.629,0,0,1,.925-.868,1.636,1.636,0,0,1,.863-.266,1.85,1.85,0,0,1,1.108.423,7.374,7.374,0,0,1,1.949,2.672,29.413,29.413,0,0,1,1.917,5.476.482.482,0,1,0,.933-.243,24.975,24.975,0,0,0-2.7-6.943,6.491,6.491,0,0,0-1.522-1.735,2.81,2.81,0,0,0-1.684-.614,2.6,2.6,0,0,0-1.367.408,5.952,5.952,0,0,0-1.955,2.293,22.435,22.435,0,0,0-2.054,6.482,53.451,53.451,0,0,0-.782,9.507c0,1.575.055,3.222.172,4.93v0c.127,2.009.185,3.676.185,5.04a18.889,18.889,0,0,1-.333,4.2,2.3,2.3,0,0,1-.311.781.34.34,0,0,1-.093.093l-.022.007a.554.554,0,0,1-.282-.154,5.42,5.42,0,0,1-1.031-1.354,36.478,36.478,0,0,1-2.829-6.74,3.569,3.569,0,0,0-1.143-1.839,2.616,2.616,0,0,0-1.648-.544,5.766,5.766,0,0,0-2.713.861,9.663,9.663,0,0,0-1.248.844.482.482,0,0,0,.614.743Z" transform="translate(-899.294 -277.96)" fill="#17100d"/>
          <path id="Trazado_995162" data-name="Trazado 995162" d="M1211.932,376.77l-2.732,2.319,1.406,1.655s-2.683,4.557,2.74,3.228,1.48-6.812-1.414-7.2" transform="translate(-1088.229 -339.077)" fill="#0069af"/>
          <path id="Trazado_995163" data-name="Trazado 995163" d="M1196.749,413.491l-2.421,45.565a.707.707,0,1,0,1.412.075l2.421-45.565a.707.707,0,1,0-1.412-.075" transform="translate(-1074.844 -371.521)" fill="#8096a8"/>
          <path id="Trazado_995164" data-name="Trazado 995164" d="M1211.976,404.414l-.635,8.638a1.393,1.393,0,0,1-2.779-.2l.635-8.639a1.393,1.393,0,1,1,2.779.2" transform="translate(-1087.651 -362.609)" fill="#17100d"/>
          <path id="Trazado_995165" data-name="Trazado 995165" d="M1192,819.7l-.483,6.57-2.114-.155.483-6.571a1.06,1.06,0,1,1,2.114.156" transform="translate(-1070.416 -736.675)" fill="#17100d"/>
          <path id="Trazado_995166" data-name="Trazado 995166" d="M1192.181,68.821l-.609.2-.262,2.653s.111,4.453,5.022.556l-.669-2.6Z" transform="translate(-1072.129 -61.936)" fill="#fff"/>
          <path id="Trazado_995167" data-name="Trazado 995167" d="M1190.736,67.413l-.051-.152-.609.2a.161.161,0,0,0-.108.136l-.262,2.653v.02a3.521,3.521,0,0,0,.25,1.135,2.063,2.063,0,0,0,.564.8,1.645,1.645,0,0,0,1.086.374,5.974,5.974,0,0,0,3.383-1.634.161.161,0,0,0,.056-.166l-.669-2.6a.16.16,0,0,0-.119-.117l-3.483-.813-.088,0,.051.152-.037.156,3.388.791.644,2.506.156-.04-.1-.126a5.7,5.7,0,0,1-3.183,1.564,1.321,1.321,0,0,1-.88-.3,2.03,2.03,0,0,1-.6-1.053,3.387,3.387,0,0,1-.086-.461c-.007-.059-.01-.106-.013-.138l0-.047-.161,0,.16.016.251-2.55.51-.172-.051-.152-.037.156Z" transform="translate(-1070.684 -60.527)" fill="#17100d"/>
          <path id="Trazado_995168" data-name="Trazado 995168" d="M1199.875,76.647l-.417.14-.184,1.819s.081,3.048,3.444.379l-.458-1.781Z" transform="translate(-1079.296 -68.979)" fill="#d66638"/>
          <path id="Trazado_995169" data-name="Trazado 995169" d="M1198.431,75.239l-.051-.152-.417.14a.161.161,0,0,0-.109.136l-.184,1.819v.02a2.456,2.456,0,0,0,.176.795,1.467,1.467,0,0,0,.4.568,1.18,1.18,0,0,0,.776.267,4.136,4.136,0,0,0,2.349-1.13.16.16,0,0,0,.056-.166l-.458-1.781a.161.161,0,0,0-.119-.117l-2.385-.557-.088,0,.051.152-.036.156,2.29.535.433,1.687.156-.04-.1-.126a3.864,3.864,0,0,1-2.15,1.06.857.857,0,0,1-.571-.193,1.343,1.343,0,0,1-.395-.695,2.33,2.33,0,0,1-.058-.308l-.009-.092,0-.03-.161,0,.16.016.173-1.716.319-.107-.051-.152-.036.156Z" transform="translate(-1077.852 -67.571)" fill="#17100d"/>
          <line id="Línea_3229" data-name="Línea 3229" y1="1.922" x2="0.29" transform="translate(121.377 8.448)" fill="#d66638"/>
          <path id="Trazado_995170" data-name="Trazado 995170" d="M1211.976,84.939l.29-1.922a.161.161,0,0,0-.318-.048l-.29,1.922a.161.161,0,1,0,.318.048" transform="translate(-1090.44 -74.546)" fill="#17100d"/>
          <line id="Línea_3230" data-name="Línea 3230" y1="0.961" x2="0.145" transform="translate(121.9 9.571)" fill="#d66638"/>
          <path id="Trazado_995171" data-name="Trazado 995171" d="M1217.2,95.207l.145-.961a.161.161,0,0,0-.318-.048l-.145.961a.161.161,0,1,0,.318.048" transform="translate(-1095.144 -84.651)" fill="#17100d"/>
          <path id="Trazado_995172" data-name="Trazado 995172" d="M1145.3,68.04l.583.27-.028,2.666s-.595,4.415-5.053.006l.947-2.513Z" transform="translate(-1026.677 -61.233)" fill="#fff"/>
          <path id="Trazado_995173" data-name="Trazado 995173" d="M1143.858,66.605l-.068.146.489.227-.027,2.562.161,0-.159-.022-.013.076a3.147,3.147,0,0,1-.388,1.025,1.379,1.379,0,0,1-1.2.723c-.675,0-1.706-.455-3.176-1.911l-.113.114.15.057.913-2.422,3.454-.417-.019-.16-.068.146.068-.146-.019-.159-3.551.429a.16.16,0,0,0-.131.1l-.948,2.513a.161.161,0,0,0,.037.171c1.5,1.479,2.58,2,3.4,2a1.6,1.6,0,0,0,1.007-.341,2.989,2.989,0,0,0,.916-1.762v-.02l.028-2.666a.16.16,0,0,0-.093-.147l-.583-.27-.087-.014Z" transform="translate(-1025.232 -59.799)" fill="#17100d"/>
          <path id="Trazado_995174" data-name="Trazado 995174" d="M1151.966,75.247l.4.185-.015,1.828s-.412,3.021-3.465,0l.649-1.72Z" transform="translate(-1033.949 -67.719)" fill="#d66638"/>
          <path id="Trazado_995175" data-name="Trazado 995175" d="M1150.521,73.812l-.067.146.305.141-.014,1.725h.161l-.159-.022-.008.049a2.1,2.1,0,0,1-.26.684.9.9,0,0,1-.783.471c-.44,0-1.138-.3-2.142-1.295l-.113.114.151.057.614-1.629,2.335-.283-.019-.159-.067.146.067-.146-.019-.16-2.432.294a.16.16,0,0,0-.131.1l-.649,1.72a.161.161,0,0,0,.037.171,3.769,3.769,0,0,0,2.368,1.388,1.148,1.148,0,0,0,.721-.244,2.092,2.092,0,0,0,.648-1.238v-.02l.015-1.828a.161.161,0,0,0-.093-.147l-.4-.185-.087-.014Z" transform="translate(-1032.504 -66.284)" fill="#17100d"/>
          <line id="Línea_3231" data-name="Línea 3231" x1="0.079" y1="1.942" transform="translate(116.851 8.185)" fill="#d66638"/>
          <path id="Trazado_995176" data-name="Trazado 995176" d="M1166.811,82.3l-.079-1.942a.161.161,0,0,0-.321.013l.079,1.942a.161.161,0,0,0,.321-.013" transform="translate(-1049.72 -72.18)" fill="#17100d"/>
          <line id="Línea_3232" data-name="Línea 3232" x1="0.04" y1="0.971" transform="translate(116.353 9.26)" fill="#d66638"/>
          <path id="Trazado_995177" data-name="Trazado 995177" d="M1161.793,92.082l-.04-.971a.161.161,0,0,0-.321.013l.04.971a.161.161,0,1,0,.321-.013" transform="translate(-1045.241 -81.858)" fill="#17100d"/>
        </g>
      </g>
    </g>
    <g id="Grupo_1177285" data-name="Grupo 1177285" transform="translate(1018 5262.053)" opacity="0.37">
      <g id="Grupo_1177267" data-name="Grupo 1177267" transform="translate(51.756 0)">
        <path id="Polígono_14" data-name="Polígono 14" d="M24.733,0l8.244,15.115L24.733,30.229H8.244L0,15.115,8.244,0Z" transform="translate(0 46.718)" fill="#2c2e8c" opacity="0.36"/>
        <path id="Polígono_15" data-name="Polígono 15" d="M24.733,0l8.244,15.115L24.733,30.229H8.244L0,15.115,8.244,0Z" transform="translate(0 15.573)" fill="#2c2e8c" opacity="0.36"/>
        <g id="Grupo_1177266" data-name="Grupo 1177266" transform="translate(26.107)" opacity="0.36">
          <path id="Polígono_16" data-name="Polígono 16" d="M24.733,0l8.244,15.115L24.733,30.229H8.244L0,15.115,8.244,0Z" transform="translate(0 31.145)" fill="#2c2e8c" opacity="0.56"/>
          <path id="Polígono_17" data-name="Polígono 17" d="M24.733,0l8.244,15.115L24.733,30.229H8.244L0,15.115,8.244,0Z" transform="translate(0)" fill="#2c2e8c" opacity="0.56"/>
        </g>
      </g>
      <g id="Grupo_1177268" data-name="Grupo 1177268" transform="translate(0 0)">
        <path id="Polígono_14-2" data-name="Polígono 14" d="M24.733,0l8.244,15.115L24.733,30.229H8.244L0,15.115,8.244,0Z" transform="translate(0 46.718)" fill="#2c2e8c" opacity="0.36"/>
        <path id="Polígono_15-2" data-name="Polígono 15" d="M24.733,0l8.244,15.115L24.733,30.229H8.244L0,15.115,8.244,0Z" transform="translate(0 15.573)" fill="#2c2e8c" opacity="0.36"/>
        <g id="Grupo_1177266-2" data-name="Grupo 1177266" transform="translate(26.107)" opacity="0.36">
          <path id="Polígono_16-2" data-name="Polígono 16" d="M24.733,0l8.244,15.115L24.733,30.229H8.244L0,15.115,8.244,0Z" transform="translate(0 31.145)" fill="#2c2e8c" opacity="0.56"/>
          <path id="Polígono_17-2" data-name="Polígono 17" d="M24.733,0l8.244,15.115L24.733,30.229H8.244L0,15.115,8.244,0Z" transform="translate(0)" fill="#2c2e8c" opacity="0.56"/>
        </g>
      </g>
    </g>
  </g>
</svg>
