<svg xmlns="http://www.w3.org/2000/svg" width="107" height="107" viewBox="0 0 107 107">
  <g id="Grupo_1179412" data-name="Grupo 1179412" transform="translate(-1006.508 -783.763)">
    <path id="Elipse_5845" data-name="Elipse 5845" d="M53.5,0A53.5,53.5,0,1,1,0,53.5,53.5,53.5,0,0,1,53.5,0Z" transform="translate(1006.508 783.763)" fill="#dcbfdc"/>
    <g id="Grupo_1178841" data-name="Grupo 1178841" transform="translate(1023.227 800.483)">
      <g id="Grupo_1178802" data-name="Grupo 1178802" transform="translate(0.002 16.857)">
        <g id="Grupo_1178801" data-name="Grupo 1178801">
          <path id="Trazado_996321" data-name="Trazado 996321" d="M41.718,162.541,26.055,138.328V118.866a1.533,1.533,0,0,0-1.533-1.533H16.86a1.533,1.533,0,0,0-1.533,1.533v19.505L1.046,162.648a7.555,7.555,0,0,0,6.511,11.386H35.464a7.449,7.449,0,0,0,6.254-11.494Zm-6.254,8.429H7.558A4.49,4.49,0,0,1,3.681,164.2l14.5-24.638a1.532,1.532,0,0,0,.211-.777V120.4h4.6v18.39a1.532,1.532,0,0,0,.245.832l15.907,24.585a4.383,4.383,0,0,1-3.678,6.764Z" transform="translate(-0.003 -117.333)" fill="#8a2c8c"/>
        </g>
      </g>
      <g id="Grupo_1178804" data-name="Grupo 1178804" transform="translate(6.211 43.001)">
        <g id="Grupo_1178803" data-name="Grupo 1178803">
          <path id="Trazado_996322" data-name="Trazado 996322" d="M59.088,300.859l-2.642-1.552L43.434,321.425a1.532,1.532,0,0,0,1.322,2.309H55.4V320.67H47.433Z" transform="translate(-43.222 -299.307)" fill="#8a2c8c"/>
        </g>
      </g>
      <g id="Grupo_1178806" data-name="Grupo 1178806" transform="translate(39.846 35.247)">
        <g id="Grupo_1178805" data-name="Grupo 1178805">
          <path id="Trazado_996323" data-name="Trazado 996323" d="M307.35,245.333H283.465a6.13,6.13,0,0,0-6.13,6.13v24.52A7.671,7.671,0,0,0,285,283.645H298.79a7.671,7.671,0,0,0,7.662-7.662v-20.82l3.515-3.514a3.7,3.7,0,0,0-2.617-6.315Zm.449,4.148-3.963,3.963a1.533,1.533,0,0,0-.449,1.083v21.455a4.6,4.6,0,0,1-4.6,4.6H285a4.6,4.6,0,0,1-4.6-4.6V251.463a3.065,3.065,0,0,1,3.065-3.065H307.35a.634.634,0,0,1,.449,1.083Z" transform="translate(-277.335 -245.333)" fill="#8a2c8c"/>
        </g>
      </g>
      <g id="Grupo_1178808" data-name="Grupo 1178808" transform="translate(55.171 44.442)">
        <g id="Grupo_1178807" data-name="Grupo 1178807">
          <path id="Trazado_996324" data-name="Trazado 996324" d="M388.6,309.333v19.922H384v3.065h6.13a1.533,1.533,0,0,0,1.533-1.533V309.333Z" transform="translate(-384.002 -309.333)" fill="#8a2c8c"/>
        </g>
      </g>
      <g id="Grupo_1178810" data-name="Grupo 1178810" transform="translate(23.755)">
        <g id="Grupo_1178809" data-name="Grupo 1178809">
          <path id="Trazado_996325" data-name="Trazado 996325" d="M184.491,22.2V1.533A1.532,1.532,0,0,0,182.958,0H172.231A1.533,1.533,0,0,0,170.7,1.533v21.1a26.013,26.013,0,0,0-5.364,2.34l1.533,2.653a22.967,22.967,0,0,1,5.747-2.349,1.533,1.533,0,0,0,1.149-1.485V3.065h7.662V23.433a1.533,1.533,0,0,0,1.246,1.5,23.008,23.008,0,0,1,13.628,8.2l2.389-1.919A26.091,26.091,0,0,0,184.491,22.2Z" transform="translate(-165.335 0)" fill="#8a2c8c"/>
        </g>
      </g>
      <g id="Grupo_1178812" data-name="Grupo 1178812" transform="translate(59.768 21.455)">
        <g id="Grupo_1178811" data-name="Grupo 1178811">
          <path id="Trazado_996326" data-name="Trazado 996326" d="M421.366,149.333a5.364,5.364,0,1,0,5.364,5.364A5.364,5.364,0,0,0,421.366,149.333Zm0,7.662a2.3,2.3,0,1,1,2.3-2.3A2.3,2.3,0,0,1,421.366,157Z" transform="translate(-416.002 -149.333)" fill="#8a2c8c"/>
        </g>
      </g>
      <g id="Grupo_1178814" data-name="Grupo 1178814" transform="translate(55.171 10.727)">
        <g id="Grupo_1178813" data-name="Grupo 1178813">
          <path id="Trazado_996327" data-name="Trazado 996327" d="M388.6,74.667a4.6,4.6,0,1,0,4.6,4.6A4.6,4.6,0,0,0,388.6,74.667Zm0,6.13a1.532,1.532,0,1,1,1.533-1.532A1.533,1.533,0,0,1,388.6,80.8Z" transform="translate(-384.002 -74.667)" fill="#8a2c8c"/>
        </g>
      </g>
      <g id="Grupo_1178816" data-name="Grupo 1178816" transform="translate(0.002 12.26)">
        <g id="Grupo_1178815" data-name="Grupo 1178815">
          <path id="Trazado_996328" data-name="Trazado 996328" d="M5.366,85.333A5.364,5.364,0,1,0,10.729,90.7,5.364,5.364,0,0,0,5.366,85.333Zm0,7.662a2.3,2.3,0,1,1,2.3-2.3A2.3,2.3,0,0,1,5.366,93Z" transform="translate(-0.002 -85.333)" fill="#8a2c8c"/>
        </g>
      </g>
      <g id="Grupo_1178818" data-name="Grupo 1178818" transform="translate(7.664 1.533)">
        <g id="Grupo_1178817" data-name="Grupo 1178817">
          <path id="Trazado_996329" data-name="Trazado 996329" d="M57.932,10.667a4.6,4.6,0,1,0,4.6,4.6A4.6,4.6,0,0,0,57.932,10.667Zm0,6.13a1.532,1.532,0,1,1,1.533-1.532A1.533,1.533,0,0,1,57.932,16.8Z" transform="translate(-53.335 -10.667)" fill="#8a2c8c"/>
        </g>
      </g>
      <g id="Grupo_1178820" data-name="Grupo 1178820" transform="translate(45.976 44.442)">
        <g id="Grupo_1178819" data-name="Grupo 1178819">
          <rect id="Rectángulo_455360" data-name="Rectángulo 455360" width="4.597" height="3.065" fill="#8a2c8c"/>
        </g>
      </g>
      <g id="Grupo_1178822" data-name="Grupo 1178822" transform="translate(45.976 50.572)">
        <g id="Grupo_1178821" data-name="Grupo 1178821">
          <rect id="Rectángulo_455361" data-name="Rectángulo 455361" width="3.065" height="3.065" fill="#8a2c8c"/>
        </g>
      </g>
      <g id="Grupo_1178824" data-name="Grupo 1178824" transform="translate(45.976 56.701)">
        <g id="Grupo_1178823" data-name="Grupo 1178823">
          <rect id="Rectángulo_455362" data-name="Rectángulo 455362" width="4.597" height="3.065" fill="#8a2c8c"/>
        </g>
      </g>
      <g id="Grupo_1178826" data-name="Grupo 1178826" transform="translate(45.976 62.831)">
        <g id="Grupo_1178825" data-name="Grupo 1178825">
          <rect id="Rectángulo_455363" data-name="Rectángulo 455363" width="3.065" height="3.065" fill="#8a2c8c"/>
        </g>
      </g>
      <g id="Grupo_1178828" data-name="Grupo 1178828" transform="translate(3.067 27.584)">
        <g id="Grupo_1178827" data-name="Grupo 1178827">
          <rect id="Rectángulo_455364" data-name="Rectángulo 455364" width="3.065" height="3.065" fill="#8a2c8c"/>
        </g>
      </g>
      <g id="Grupo_1178830" data-name="Grupo 1178830" transform="translate(7.664 35.247)">
        <g id="Grupo_1178829" data-name="Grupo 1178829">
          <rect id="Rectángulo_455365" data-name="Rectángulo 455365" width="3.065" height="3.065" fill="#8a2c8c"/>
        </g>
      </g>
      <g id="Grupo_1178832" data-name="Grupo 1178832" transform="translate(33.716 41.377)">
        <g id="Grupo_1178831" data-name="Grupo 1178831">
          <rect id="Rectángulo_455366" data-name="Rectángulo 455366" width="3.065" height="3.065" fill="#8a2c8c"/>
        </g>
      </g>
      <g id="Grupo_1178834" data-name="Grupo 1178834" transform="translate(30.651 35.247)">
        <g id="Grupo_1178833" data-name="Grupo 1178833">
          <rect id="Rectángulo_455367" data-name="Rectángulo 455367" width="3.065" height="3.065" fill="#8a2c8c"/>
        </g>
      </g>
      <g id="Grupo_1178836" data-name="Grupo 1178836" transform="translate(29.119 29.117)">
        <g id="Grupo_1178835" data-name="Grupo 1178835">
          <rect id="Rectángulo_455368" data-name="Rectángulo 455368" width="3.065" height="3.065" fill="#8a2c8c"/>
        </g>
      </g>
      <g id="Grupo_1178838" data-name="Grupo 1178838" transform="translate(30.651 62.831)">
        <g id="Grupo_1178837" data-name="Grupo 1178837">
          <rect id="Rectángulo_455369" data-name="Rectángulo 455369" width="3.065" height="3.065" fill="#8a2c8c"/>
        </g>
      </g>
      <g id="Grupo_1178840" data-name="Grupo 1178840" transform="translate(26.054 56.701)">
        <g id="Grupo_1178839" data-name="Grupo 1178839">
          <rect id="Rectángulo_455370" data-name="Rectángulo 455370" width="3.065" height="3.065" fill="#8a2c8c"/>
        </g>
      </g>
    </g>
  </g>
</svg>
