<svg xmlns="http://www.w3.org/2000/svg" width="61.899" height="61.899" viewBox="0 0 61.899 61.899">
  <g id="Grupo_1072055" data-name="Grupo 1072055" transform="translate(0.001 0)">
    <g id="Grupo_1072053" data-name="Grupo 1072053" transform="translate(-0.001 0)">
      <ellipse id="Elipse_4742" data-name="Elipse 4742" cx="30.949" cy="30.949" rx="30.949" ry="30.949" transform="translate(0)" fill="#6cac25"/>
    </g>
    <g id="disnea_1_" data-name="disnea (1)" transform="translate(3.833 0.361)">
      <path id="Trazado_997296" data-name="Trazado 997296" d="M45.3,26.9a6.931,6.931,0,1,0-10.535-6.7,2.53,2.53,0,0,0-2.812,2.5v3.52l-.036-.023a4.243,4.243,0,0,1-1.929-3.56V9.5a.833.833,0,1,0-1.667,0V22.638A6.331,6.331,0,0,0,31.95,28.21v1.812l-3.916-2.83a.835.835,0,0,0-.957-.014l-4.354,2.963V28.21a6.329,6.329,0,0,0,3.632-5.572V9.5a.833.833,0,1,0-1.667,0V22.638A4.244,4.244,0,0,1,22.76,26.2c-.1.185-.006-3.534-.038-3.5a2.52,2.52,0,0,0-1.105-2.084,2.489,2.489,0,0,0-2.313-.262C8.544,24.6,3.412,32.431,4.052,43.632c.255,4.577,6.779,5.1,9.127,1.842a1.54,1.54,0,0,1,1.436-.549c4.6.691,7.606-.882,8.107-4.323V32.159l4.808-3.273,4.419,3.193v8.526c.5,3.446,3.507,5.02,8.113,4.319a1.539,1.539,0,0,1,1.434.545,5.474,5.474,0,0,0,4.416,2.09,4.3,4.3,0,0,0,4.707-3.93c.387-6.789-1.4-12.412-5.323-16.731ZM14.863,43.275a3.23,3.23,0,0,0-2.977,1.147c-1.331,2-5.938,2.209-6.17-.885-.593-10.4,4.184-17.681,14.2-21.632a.849.849,0,0,1,1.139.8v6.794c-1.059.5-2.125,1.036-3.174,1.65-.184-.084-.376-.181-.591-.3a9.116,9.116,0,0,0-4.226-1.239.833.833,0,0,0-.075,1.665,7.179,7.179,0,0,1,3.26.91c-.449.312-.892.642-1.327,1a19.126,19.126,0,0,0-3.185,3.327c-.321-.017-4.813-.243-4.267,1.523a.836.836,0,0,0,1.066.5,7.043,7.043,0,0,1,2.1-.38.887.887,0,0,0,.16,1.365.834.834,0,0,0,1.14-.3A17.148,17.148,0,0,1,14.846,35.5a9.5,9.5,0,0,1-.09,1.922.833.833,0,1,0,1.649.241,9.489,9.489,0,0,0-.073-3.461,27.642,27.642,0,0,1,4.724-2.851v9.172c-.578,2.956-3.68,3.131-6.192,2.752ZM41.645,15.745a5.275,5.275,0,0,1,5.269,5.269c-.214,6.8-9.958,7.02-10.522.306a5.267,5.267,0,0,1,5.253-5.575Zm7.311,27.793c-.231,3.091-4.837,2.889-6.168.879a3.235,3.235,0,0,0-2.976-1.139c-2.515.383-5.618.21-6.2-2.749V31.251a28.088,28.088,0,0,1,4.733,2.911,9.434,9.434,0,0,0-.082,3.5.833.833,0,1,0,1.649-.241,9.446,9.446,0,0,1-.089-1.956,17.771,17.771,0,0,1,2.91,3.754.847.847,0,1,0,1.3-1.066,7.03,7.03,0,0,1,2.1.38.836.836,0,0,0,1.066-.5c.541-1.77-3.948-1.54-4.263-1.524a19.393,19.393,0,0,0-4.474-4.345,7.156,7.156,0,0,1,3.218-.888.833.833,0,0,0,.8-.87c-.166-1.971-4.915.278-5.1.444-.188.1-.361.189-.524.267-1.019-.611-2.1-1.175-3.24-1.719V22.7a.847.847,0,0,1,.378-.711.817.817,0,0,1,.781-.078A6.93,6.93,0,0,0,43.7,27.639c3.857,4.027,5.63,9.37,5.258,15.9Z" transform="translate(0)" fill="#12263f"/>
      <path id="Trazado_997297" data-name="Trazado 997297" d="M49,23.491a.833.833,0,0,0,.833-.833V19.539a.833.833,0,1,0-1.667,0v3.119a.833.833,0,0,0,.833.833Z" transform="translate(-7.358 -1.672)" fill="#12263f"/>
      <path id="Trazado_997298" data-name="Trazado 997298" d="M49.011,25.352a.794.794,0,1,0,.794.794.794.794,0,0,0-.794-.794Z" transform="translate(-7.366 -2.779)" fill="#12263f"/>
    </g>
  </g>
</svg>
