<svg xmlns="http://www.w3.org/2000/svg" width="107" height="107" viewBox="0 0 107 107">
  <g id="Grupo_1119617" data-name="Grupo 1119617" transform="translate(-340.5 -8693)">
    <g id="Grupo_156312" data-name="Grupo 156312" transform="translate(51.832 4244.563)">
      <path id="Elipse_5845" data-name="Elipse 5845" d="M53.5,0A53.5,53.5,0,1,1,0,53.5,53.5,53.5,0,0,1,53.5,0Z" transform="translate(288.668 4448.437)" fill="#241138"/>
    </g>
    <g id="Grupo_1179082" data-name="Grupo 1179082">
      <g id="_12_Corrosive_Substance" data-name="12 Corrosive Substance" transform="translate(360.516 8713.992)">
        <path id="Trazado_997175" data-name="Trazado 997175" d="M50.315,47H44a2.1,2.1,0,0,0-2.1,1.964,4.773,4.773,0,0,1-4.732,4.345,4.708,4.708,0,0,1-4-2.19,2.1,2.1,0,0,0-3.049-.548,3.109,3.109,0,0,1-1.893.635,2.944,2.944,0,0,1-3.091-2.523A2.108,2.108,0,0,0,23.083,47H5.1A2.1,2.1,0,0,0,3,49.1V59.617a2.1,2.1,0,0,0,2.1,2.1H51.367a1.051,1.051,0,0,0,1.051-1.051V49.1A2.1,2.1,0,0,0,50.315,47Zm0,12.617H5.1V49.1h17.98a5.027,5.027,0,0,0,5.152,4.206A5.2,5.2,0,0,0,31.4,52.245a6.8,6.8,0,0,0,5.768,3.167A6.9,6.9,0,0,0,44,49.1h6.315Z" transform="translate(0 2.264)" fill="#fff"/>
        <path id="Trazado_997176" data-name="Trazado 997176" d="M56.235,5.1H33.1V4.051a1.051,1.051,0,0,0-2.1,0v14.72a1.051,1.051,0,0,0,2.1,0V17.72H56.235a6.309,6.309,0,0,0,0-12.617Zm0,10.515H33.1V7.206H56.235a4.206,4.206,0,0,1,0,8.412Z" transform="translate(1.441)" fill="#fff"/>
        <path id="Trazado_997177" data-name="Trazado 997177" d="M53.566,9H43.051a1.051,1.051,0,1,0,0,2.1H53.566a1.051,1.051,0,1,0,0-2.1Z" transform="translate(2.007 0.309)" fill="#fff"/>
        <path id="Trazado_997178" data-name="Trazado 997178" d="M31.257,48.718a5.264,5.264,0,0,0,5.257-5.257c0-2.53-1.668-4.921-3.007-6.843a18.861,18.861,0,0,1-1.3-2.039,1.1,1.1,0,0,0-1.882,0,18.861,18.861,0,0,1-1.309,2.039C27.668,38.54,26,40.931,26,43.461a5.264,5.264,0,0,0,5.257,5.257Zm-.526-10.9c.181-.258.357-.511.526-.759.168.248.345.5.526.759,1.231,1.767,2.629,3.772,2.629,5.64a3.154,3.154,0,0,1-6.309,0C28.1,41.592,29.5,39.588,30.732,37.821Z" transform="translate(1.183 1.597)" fill="#fff"/>
        <path id="Trazado_997179" data-name="Trazado 997179" d="M31.206,32.564a4.12,4.12,0,0,0,4.206-4.206c0-1.811-1.319-3.785-2.378-5.362a15.921,15.921,0,0,1-.886-1.414,1.1,1.1,0,0,0-1.882,0A15.922,15.922,0,0,1,29.378,23C28.319,24.573,27,26.547,27,28.358a4.12,4.12,0,0,0,4.206,4.206Zm-.08-8.4.08-.116.08.12c.854,1.272,2.023,3.02,2.023,4.191a2.1,2.1,0,1,1-4.206,0C29.1,27.186,30.272,25.439,31.126,24.162Z" transform="translate(1.235 0.929)" fill="#fff"/>
      </g>
      <rect id="Rectángulo_455565" data-name="Rectángulo 455565" width="67" height="75" transform="translate(360.008 8709.484)" fill="none"/>
    </g>
  </g>
</svg>
