<svg xmlns="http://www.w3.org/2000/svg" width="107" height="107" viewBox="0 0 107 107">
  <g id="Grupo_1179081" data-name="Grupo 1179081" transform="translate(-340.5 -8693)">
    <g id="Grupo_156312" data-name="Grupo 156312" transform="translate(51.832 4244.563)">
      <path id="Elipse_5845" data-name="Elipse 5845" d="M53.5,0A53.5,53.5,0,1,1,0,53.5,53.5,53.5,0,0,1,53.5,0Z" transform="translate(288.668 4448.437)" fill="#241138"/>
    </g>
    <g id="Grupo_1179085" data-name="Grupo 1179085" transform="translate(0 0.475)">
      <rect id="Rectángulo_455565" data-name="Rectángulo 455565" width="67" height="75" transform="translate(360.008 8709.484)" fill="none"/>
      <g id="quimico_3_" data-name="quimico (3)" transform="translate(291.256 8712.875)">
        <path id="Trazado_997171" data-name="Trazado 997171" d="M122.678,41.1l-7.409-3.371V33.216a15.868,15.868,0,0,0,4.272-10.855V12.748A12.762,12.762,0,0,0,106.794,0h-6.408A12.762,12.762,0,0,0,87.637,12.748V22.36A15.869,15.869,0,0,0,91.91,33.216v4.517L84.5,41.1a7.424,7.424,0,0,0-4.339,6.742V67.219a1,1,0,0,0,2,0V47.846a5.421,5.421,0,0,1,3.169-4.923l6.913-3.146A3.12,3.12,0,0,0,94.189,41.4a34.821,34.821,0,0,0,8.4,1.174V67.219a1,1,0,0,0,2,0V42.571a34.826,34.826,0,0,0,8.4-1.174,3.12,3.12,0,0,0,1.948-1.621l6.913,3.146a5.421,5.421,0,0,1,3.169,4.923V67.219a1,1,0,1,0,2,0V47.846A7.423,7.423,0,0,0,122.678,41.1Zm-8.377-9.81a2.052,2.052,0,0,0-1.1-.32H111.47a11.651,11.651,0,0,0,3.8-8.613V19.087h2.274V22.36A13.87,13.87,0,0,1,114.3,31.293ZM93.908,22.36v-.144a5.245,5.245,0,0,0,3.273,1.144h1.877a4.176,4.176,0,0,0,2.972-1.231l.755-.755a1.137,1.137,0,0,1,1.608,0l.755.755a4.176,4.176,0,0,0,2.972,1.231H110a5.244,5.244,0,0,0,3.273-1.144v.144a9.681,9.681,0,1,1-19.362,0Zm-4.272-7.545H91.91v2.274H89.636Zm27.907,0v2.274h-2.274V14.815ZM100.385,2h6.408a10.761,10.761,0,0,1,10.749,10.749v.069h-5.409a1,1,0,1,0,0,2h1.137v3.273A3.277,3.277,0,0,1,110,21.361h-1.877a2.191,2.191,0,0,1-1.559-.646l-.755-.755a3.135,3.135,0,0,0-4.434,0l-.755.755a2.19,2.19,0,0,1-1.559.646H97.181a3.277,3.277,0,0,1-3.273-3.273V14.815h13.953a1,1,0,1,0,0-2H89.636v-.069A10.761,10.761,0,0,1,100.385,2ZM89.636,19.087H91.91V22.36a11.651,11.651,0,0,0,3.8,8.613H93.977a2.053,2.053,0,0,0-1.1.32,13.871,13.871,0,0,1-3.241-8.933V19.087Zm4.272,19.288V33.041a.069.069,0,0,1,.069-.069h4.341v7.246a28.684,28.684,0,0,1-3.591-.745A1.136,1.136,0,0,1,93.908,38.375Zm19.362,0a1.136,1.136,0,0,1-.819,1.1,33.537,33.537,0,0,1-8.863,1.113c-1.111,0-2.206-.048-3.273-.139V33.573a11.677,11.677,0,0,0,8.149-.6H113.2a.069.069,0,0,1,.069.069Z" fill="#fff"/>
        <path id="Trazado_997172" data-name="Trazado 997172" d="M137.273,384.774a1,1,0,0,0-1,1v14.953a1,1,0,1,0,2,0V385.773A1,1,0,0,0,137.273,384.774Z" transform="translate(-48.637 -333.507)" fill="#fff"/>
        <path id="Trazado_997173" data-name="Trazado 997173" d="M361.725,384.774a1,1,0,0,0-1,1v14.953a1,1,0,0,0,2,0V385.773A1,1,0,0,0,361.725,384.774Z" transform="translate(-243.183 -333.507)" fill="#fff"/>
        <path id="Trazado_997174" data-name="Trazado 997174" d="M174.678,370.878h-1.137v-1.137a1,1,0,0,0-2,0v1.137h-1.137a2.07,2.07,0,0,0-2.067,2.067v2.136a2.07,2.07,0,0,0,2.067,2.067h4.272a2.07,2.07,0,0,0,2.067-2.067v-2.136A2.07,2.07,0,0,0,174.678,370.878Zm.069,4.2a.069.069,0,0,1-.069.069h-4.272a.069.069,0,0,1-.069-.069v-2.136a.069.069,0,0,1,.069-.069h4.272a.069.069,0,0,1,.069.069Z" transform="translate(-76.429 -319.611)" fill="#fff"/>
      </g>
    </g>
  </g>
</svg>
