<svg xmlns="http://www.w3.org/2000/svg" xmlns:xlink="http://www.w3.org/1999/xlink" width="291.159" height="501.474" viewBox="0 0 291.159 501.474">
  <defs>
    <clipPath id="clip-path">
      <rect id="Rectángulo_455582" data-name="Rectángulo 455582" width="391.29" height="188" fill="#2c2e8c"/>
    </clipPath>
    <clipPath id="clip-path-2">
      <rect id="Rectángulo_455571" data-name="Rectángulo 455571" width="291.159" height="501.474" fill="none"/>
    </clipPath>
    <clipPath id="clip-path-3">
      <rect id="Rectángulo_455572" data-name="Rectángulo 455572" width="125.784" height="191.631" fill="none"/>
    </clipPath>
    <clipPath id="clip-path-4">
      <path id="Trazado_997295" data-name="Trazado 997295" d="M62.893,0a62.892,62.892,0,0,1,62.892,62.892v50.785A62.892,62.892,0,0,1,0,113.676V62.893A62.893,62.893,0,0,1,62.893,0Z" fill="#dcbfdc"/>
    </clipPath>
    <clipPath id="clip-path-6">
      <path id="Trazado_997278" data-name="Trazado 997278" d="M92.985,257.6a1.491,1.491,0,0,0-1.485,1.493v157.95a1.5,1.5,0,0,0,1.485,1.5h108.5a1.5,1.5,0,0,0,1.485-1.5V259.1a1.5,1.5,0,0,0-1.485-1.5Z" transform="translate(-91.5 -257.6)" fill="none"/>
    </clipPath>
    <linearGradient id="linear-gradient" x1="0.033" y1="1.017" x2="0.033" y2="1.017" gradientUnits="objectBoundingBox">
      <stop offset="0" stop-color="#e8e5e5"/>
      <stop offset="1" stop-color="#fff"/>
    </linearGradient>
  </defs>
  <g id="Grupo_1179101" data-name="Grupo 1179101" transform="translate(-1018.841 -1441.09)">
    <g id="Grupo_1179100" data-name="Grupo 1179100" transform="translate(1309.999 1450.669) rotate(90)">
      <g id="Grupo_1179099" data-name="Grupo 1179099" transform="translate(0 -0.001)" clip-path="url(#clip-path)">
        <path id="Trazado_997294" data-name="Trazado 997294" d="M147.114,10.964c38.821,11.343,50.626,22.313,85.058,3.291C330.2-39.965,437.437,72.532,370.385,149.572,356.27,165.8,335.966,178.581,311.99,188H107.331c-190-63.508-93.823-216.083,39.783-177.035" transform="translate(0 0.001)" fill="#2c2e8c"/>
      </g>
    </g>
    <g id="Grupo_1179087" data-name="Grupo 1179087" transform="translate(1018.841 1441.09)">
      <g id="Grupo_1179086" data-name="Grupo 1179086" clip-path="url(#clip-path-2)">
        <path id="Trazado_997189" data-name="Trazado 997189" d="M3.26,2431.6H240.366c1.78,0,3.26,3.613,3.26,8.044s-1.472,8.044-3.26,8.044H3.26c-1.8,0-3.26-3.613-3.26-8.044s1.464-8.044,3.26-8.044" transform="translate(0 -1946.215)" fill="#77a8e8"/>
        <path id="Trazado_997190" data-name="Trazado 997190" d="M275.757,752.189c3.154-4.332,18.944-26.03,20.92-31.4,4.551-12.217-12.516-23.155-19-13.215l-22.237,34.074c-4.751,7.326,13.953,19.2,20.321,10.54" transform="translate(-203.836 -563.233)" fill="#f0875c"/>
        <path id="Trazado_997191" data-name="Trazado 997191" d="M393.629,536.811c9.941-17.107,1.477-28.505-8.643-26.908-7.007,3.134-15.75,5.689-21.319,16.728l-17.726,30.142c-1.737,2.954,4.671,7.745,10.739,11.9,6.687,4.611,12.676,7.885,16.828,1.377Z" transform="translate(-276.655 -407.999)" fill="#4286f5"/>
        <path id="Trazado_997192" data-name="Trazado 997192" d="M220.66,882.272h0a5.935,5.935,0,0,0-5.29,6.508l6.208,62.4a5.928,5.928,0,1,0,11.8-1.178l-6.208-62.4a5.965,5.965,0,0,0-6.507-5.33" transform="translate(-172.353 -706.132)" fill="#0b355d"/>
        <path id="Trazado_997193" data-name="Trazado 997193" d="M245.994,929.095a.913.913,0,1,0,1.816-.18l-3.573-36.031a4.313,4.313,0,0,0-4.711-3.873.923.923,0,1,0,.18,1.836,2.541,2.541,0,0,1,1.836.539,2.59,2.59,0,0,1,.9,1.677Z" transform="translate(-191.04 -711.534)" fill="#4286f5"/>
        <path id="Trazado_997194" data-name="Trazado 997194" d="M382.447,2378.8l-.6,14.292a2.078,2.078,0,0,1-1.318,1.836,2.13,2.13,0,0,1-1.657-1.537l-3.373-13.913Z" transform="translate(-300.544 -1903.955)" fill="#0b355d"/>
        <path id="Trazado_997195" data-name="Trazado 997195" d="M339.954,2238.208l3.553-.359a3.1,3.1,0,0,0,1.138-2.116c.22-1.417,1.6-34.074,1.6-34.074l-10-.759-9.641,2.715s7.765,31.719,8.244,33.116a3.252,3.252,0,0,0,1.537,1.837Z" transform="translate(-261.406 -1761.566)" fill="#eee"/>
        <path id="Trazado_997196" data-name="Trazado 997196" d="M333.4,2236.637c2.256,9.123,6.567,26.609,6.927,27.627a3.251,3.251,0,0,0,1.537,1.836l3.373-.359c.459-8.823,1.377-30.441,1.377-30.441Z" transform="translate(-266.848 -1789.1)" fill="#e2e2e0"/>
        <path id="Trazado_997197" data-name="Trazado 997197" d="M252.852,1032.527a3.936,3.936,0,0,0-4.571,6.408l11.1,7.885.479.279s3.793,1.856,4.252,7.566v.06l5.05,51.062a3.955,3.955,0,0,0,4.332,3.513,3.914,3.914,0,0,0,3.513-4.312l-5.09-51.062a17.2,17.2,0,0,0-8.184-13.634Z" transform="translate(-197.419 -825.845)" fill="#77a8e8"/>
        <path id="Trazado_997198" data-name="Trazado 997198" d="M252.852,1032.527a3.936,3.936,0,0,0-4.571,6.408l11.1,7.885.479.279a7.636,7.636,0,0,1,2.655,2.615l-1.078-11.079Z" transform="translate(-197.419 -825.845)" fill="#5189d0"/>
        <path id="Trazado_997199" data-name="Trazado 997199" d="M225.349,1016.039l-11.658,1.178a3.532,3.532,0,0,0-3.154,3.853l16.708,168a3.532,3.532,0,0,0,3.853,3.154l11.658-1.138a3.555,3.555,0,0,0,3.154-3.853L229.2,1019.192a3.57,3.57,0,0,0-3.853-3.154" transform="translate(-168.499 -813.209)" fill="#e6e6e6"/>
        <path id="Trazado_997200" data-name="Trazado 997200" d="M211.5,1046.076l16.528,166.28a3.532,3.532,0,0,0,3.853,3.154l9.182-.9-16.528-166.32a3.532,3.532,0,0,0-3.853-3.154Z" transform="translate(-169.281 -836.5)" fill="#fff"/>
        <path id="Trazado_997201" data-name="Trazado 997201" d="M296.452,1800.808l-14.871,1.477a4.088,4.088,0,0,0-3.673,4.491l7.426,74.9a4.139,4.139,0,0,0,4.491,3.673l14.891-1.477a4.14,4.14,0,0,0,3.673-4.491l-7.466-74.9a4.058,4.058,0,0,0-4.471-3.673" transform="translate(-222.415 -1441.32)" fill="#5189d0"/>
        <path id="Trazado_997202" data-name="Trazado 997202" d="M279.2,1837.345l7.186,72.58a4.139,4.139,0,0,0,4.491,3.673l12.556-1.238-7.186-72.58a4.111,4.111,0,0,0-4.491-3.673Z" transform="translate(-223.467 -1469.574)" fill="#77a8e8"/>
        <path id="Trazado_997203" data-name="Trazado 997203" d="M984.32,756.456c-3.034-4.132-14.771-20.461-16.708-25.591-4.332-11.618,12.037-22.117,18.125-12.576l17.945,28.126c4.471,7.046-13.274,18.3-19.363,10.041" transform="translate(-773.885 -571.932)" fill="#f0875c"/>
        <path id="Trazado_997204" data-name="Trazado 997204" d="M832.185,536.811c-9.941-17.107-1.5-28.505,8.643-26.908,7.006,3.134,15.75,5.689,21.319,16.728l17.706,30.142c1.737,2.954-4.631,7.745-10.719,11.9-6.707,4.611-12.676,7.885-16.867,1.377Z" transform="translate(-662.512 -407.999)" fill="#4286f5"/>
        <path id="Trazado_997205" data-name="Trazado 997205" d="M545.856,1113.4c-24.114,0-43.656,17.127-43.656,38.286s19.542,38.286,43.656,38.286c24.074,0,43.616-17.127,43.616-38.286s-19.522-38.286-43.616-38.286" transform="translate(-401.953 -891.148)" fill="#5b637d"/>
        <path id="Trazado_997206" data-name="Trazado 997206" d="M845.6,2412l40.043,6.827c.818.06,10.659,1.836,10.659,1.836v7.346c-8.224-.1-17.127.958-25.231-.18a51.843,51.843,0,0,1-9-2.076c-5.15-1.677-16.189-6.468-16.189-6.468Z" transform="translate(-676.805 -1930.528)" fill="#575757"/>
        <path id="Trazado_997207" data-name="Trazado 997207" d="M843.4,2204.9l20.4.639,1.6,24.473s8.7,9.821,13.214,13.374c4.511,3.513,12.376,4.192,14.153,6.927a10.972,10.972,0,0,1,1.777,5.449v2.416h-18.5s-10.779-.339-17.846-3.254c-7.066-2.894-14.332-5.41-14.332-5.41s-.359-9.182.22-12.4c.539-3.214.818-4.851.818-4.851Z" transform="translate(-675.044 -1764.768)" fill="#191919"/>
        <path id="Trazado_997208" data-name="Trazado 997208" d="M722.4,1209.29l13.873,102.4s1.2,20.2,17.187,20.72c15.949.519,15.41-15.59,15.41-15.59l-1.3-102.343-.3-8.783c-1.278-36.011-44.654-31.18-44.874,3.593" transform="translate(-578.198 -945.139)" fill="#5b637d"/>
        <path id="Trazado_997209" data-name="Trazado 997209" d="M824.6,1841.51,792,1836.4l2.315,79.587a15.777,15.777,0,0,0,5.39,6.048l25.671.639c3.513-.958,4.731-5.27,5.05-8.9Z" transform="translate(-633.905 -1469.826)" fill="#5b637d"/>
        <path id="Trazado_997210" data-name="Trazado 997210" d="M807.5,1742.2l.818,35.572a53.424,53.424,0,0,0,10.919,1.078,46.736,46.736,0,0,0,17.826-3.194l-2.3-34.553a49.224,49.224,0,0,1-15.53,2.355A53.3,53.3,0,0,1,807.5,1742.2" transform="translate(-646.311 -1393.549)" fill="#e6e6e6"/>
        <path id="Trazado_997211" data-name="Trazado 997211" d="M390.5,2412l-40.043,6.827c-.818.06-10.659,1.836-10.659,1.836v7.346c8.184-.1,17.127.958,25.231-.18a52.677,52.677,0,0,0,9-2.076c5.15-1.677,16.169-6.468,16.169-6.468Z" transform="translate(-271.971 -1930.528)" fill="#575757"/>
        <path id="Trazado_997212" data-name="Trazado 997212" d="M391,2204.9l-20.381.639L369,2230.011s-8.663,9.821-13.195,13.374c-4.511,3.513-12.4,4.192-14.173,6.927a11.159,11.159,0,0,0-1.737,5.449v2.416h18.484s10.779-.339,17.885-3.254c7.066-2.894,14.332-5.41,14.332-5.41s.359-9.182-.22-12.4-.818-4.851-.818-4.851Z" transform="translate(-272.051 -1764.768)" fill="#191919"/>
        <path id="Trazado_997213" data-name="Trazado 997213" d="M530.542,1209.29l-13.873,102.4s-1.178,20.2-17.167,20.72c-15.949.519-15.41-15.59-15.41-15.59l1.258-102.343.339-8.783c1.278-36.011,44.674-31.18,44.854,3.593" transform="translate(-387.457 -945.139)" fill="#5b637d"/>
        <path id="Trazado_997214" data-name="Trazado 997214" d="M460.829,1841.51l32.577-5.11-2.3,79.587a15.642,15.642,0,0,1-5.41,6.048l-25.651.639c-3.553-.958-4.731-5.27-5.05-8.9Z" transform="translate(-364.175 -1469.826)" fill="#5b637d"/>
        <path id="Trazado_997215" data-name="Trazado 997215" d="M515.56,1741.2l-.9,35.671a54.816,54.816,0,0,1-14.931,1.936,56.6,56.6,0,0,1-15.33-2.016L486.815,1742a57.463,57.463,0,0,0,12.915,1.377,54.656,54.656,0,0,0,15.829-2.176" transform="translate(-387.706 -1393.63)" fill="#e6e6e6"/>
        <path id="Trazado_997216" data-name="Trazado 997216" d="M583.531,1185.6H497.776a2.1,2.1,0,0,0-2.076,2.116v10.6a2.1,2.1,0,0,0,2.076,2.116h85.755a2.1,2.1,0,0,0,2.116-2.116v-10.6a2.13,2.13,0,0,0-2.116-2.116" transform="translate(-396.751 -948.936)" fill="#424242"/>
        <path id="Trazado_997217" data-name="Trazado 997217" d="M615.785,1185.6h-4.731v14.812h4.731Zm-20.381,0h-4.691v14.812H595.4Zm-24.433,0h-4.731v14.812h4.731Zm-20.381,0H545.9v14.812h4.691Z" transform="translate(-436.93 -948.936)" fill="#e6e6e6"/>
        <path id="Trazado_997218" data-name="Trazado 997218" d="M518.126,487.1l32.118,4.072s11.6,1.956,13.314,11.957l4.99,113.1s2.076,12.2-9.6,13.913H477.3c-11.717-1.717-9.6-13.913-9.6-13.913l4.97-113.1c1.717-10,13.334-11.957,13.334-11.957Z" transform="translate(-374.223 -389.867)" fill="#fdb722"/>
        <path id="Trazado_997219" data-name="Trazado 997219" d="M603.585,502.42l7.865,1a20.857,20.857,0,0,1,3.194.938v75.495H603.605V502.42ZM544,504.336a19.514,19.514,0,0,1,3.194-.938l7.825-1v77.431H544Z" transform="translate(-435.409 -402.113)" fill="#fff"/>
        <path id="Trazado_997220" data-name="Trazado 997220" d="M567.89,882.8l.659,14.572H470.837l.639-14.572Zm1.337,30.4.639,14.572H469.5l.639-14.572Z" transform="translate(-375.781 -706.58)" fill="#e6e6e6"/>
        <rect id="Rectángulo_455566" data-name="Rectángulo 455566" width="26.17" height="35.412" transform="translate(130.808 82.481)" fill="#f0875c"/>
        <path id="Trazado_997221" data-name="Trazado 997221" d="M681.55,394.7H655.4v14.392c5.929,6.168,20.221,6.168,26.15,0Z" transform="translate(-524.572 -315.912)" fill="#955235"/>
        <path id="Trazado_997222" data-name="Trazado 997222" d="M740.486,471.989s-11.358,11.438-14.233,15.75a21.533,21.533,0,0,0-3.453,8.044h12.077s12.077-14.652,13.394-15.929c1.357-1.3,1.537-2.375.419-3.553-1.118-1.2-5.27-4.392-5.27-4.392a3.388,3.388,0,0,0-2.934.08" transform="translate(-578.518 -377.471)" fill="#fdb722"/>
        <path id="Trazado_997223" data-name="Trazado 997223" d="M593.281,471.989s11.378,11.438,14.273,15.75a21.669,21.669,0,0,1,3.433,8.044H598.91s-12.077-14.652-13.394-15.929c-1.317-1.3-1.5-2.375-.4-3.553a67.293,67.293,0,0,1,5.23-4.392,3.388,3.388,0,0,1,2.934.08" transform="translate(-467.743 -377.471)" fill="#fdb722"/>
        <rect id="Rectángulo_455567" data-name="Rectángulo 455567" width="9.661" height="121.945" transform="translate(139.052 118.312)" fill="#fd951c"/>
        <path id="Trazado_997224" data-name="Trazado 997224" d="M710.2,624.536a2.136,2.136,0,1,1,2.136,2.136,2.138,2.138,0,0,1-2.136-2.136m0,82.062a2.136,2.136,0,1,1,2.136,2.136A2.138,2.138,0,0,1,710.2,706.6m0-27.367a2.136,2.136,0,1,1,2.136,2.136,2.121,2.121,0,0,1-2.136-2.136m0-27.327a2.136,2.136,0,1,1,2.136,2.116A2.126,2.126,0,0,1,710.2,651.9" transform="translate(-568.433 -498.159)" fill="#fff"/>
        <path id="Trazado_997225" data-name="Trazado 997225" d="M631.381,1485.656a.347.347,0,0,0,.359-.4.4.4,0,0,0-.4-.4l-23.155,1.058-25.291-2.116a.4.4,0,0,0-.419.359.357.357,0,0,0,.339.419l25.311,2.116Z" transform="translate(-466.199 -1187.611)" fill="#424242"/>
        <path id="Trazado_997226" data-name="Trazado 997226" d="M776.433,1506.642a.367.367,0,0,0,.519.12.39.39,0,0,0,.12-.539l-8.883-14.153a.363.363,0,0,0-.519-.12.39.39,0,0,0-.12.539Z" transform="translate(-614.286 -1194.084)" fill="#424242"/>
        <path id="Trazado_997227" data-name="Trazado 997227" d="M518.749,1282.438a.383.383,0,1,0-.6-.479l-21.459,27.607a.4.4,0,0,0,.06.539.369.369,0,0,0,.539-.1Z" transform="translate(-397.482 -1025.932)" fill="#424242"/>
        <path id="Trazado_997228" data-name="Trazado 997228" d="M847.307,1310.248a.382.382,0,0,0,.639-.419l-20.66-31.459a.39.39,0,0,0-.539-.12.4.4,0,0,0-.1.539Z" transform="translate(-661.584 -1023.042)" fill="#424242"/>
        <path id="Trazado_997229" data-name="Trazado 997229" d="M624.53,1500.962a.446.446,0,0,0,.22.519.374.374,0,0,0,.519-.22l4.851-11.3a.374.374,0,0,0-.22-.519.336.336,0,0,0-.479.219Z" transform="translate(-499.85 -1192.097)" fill="#424242"/>
        <path id="Trazado_997230" data-name="Trazado 997230" d="M554.454,1797.28a.384.384,0,0,0-.18-.539.4.4,0,0,0-.519.18l-9.881,19.782a.378.378,0,0,0,.16.539.388.388,0,0,0,.519-.18Z" transform="translate(-435.264 -1438.052)" fill="#5b637d"/>
        <path id="Trazado_997231" data-name="Trazado 997231" d="M895.544,1787.868a.385.385,0,0,0,.22.519.467.467,0,0,0,.519-.22l4.851-11.318a.385.385,0,0,0-.22-.519.468.468,0,0,0-.519.219Z" transform="translate(-716.749 -1421.733)" fill="#5b637d"/>
        <path id="Trazado_997232" data-name="Trazado 997232" d="M711.857,1319.8a.381.381,0,0,0-.359-.4.4.4,0,0,0-.419.359l-.779,34.953a.418.418,0,0,0,.4.419.4.4,0,0,0,.4-.4Z" transform="translate(-568.513 -1056.027)" fill="#424242"/>
        <path id="Trazado_997233" data-name="Trazado 997233" d="M562.677,973.1a.383.383,0,0,0,.479-.6L545.63,958.991a.383.383,0,1,0-.479.6Z" transform="translate(-436.221 -767.5)" fill="#f36d15"/>
        <path id="Trazado_997234" data-name="Trazado 997234" d="M771.138,612.477a.369.369,0,0,1-.539-.1.33.33,0,0,1,.06-.519l8.763-6.767a.383.383,0,0,1,.479.6Z" transform="translate(-616.695 -484.244)" fill="#f36d15"/>
        <path id="Trazado_997235" data-name="Trazado 997235" d="M505.222,989.869a.4.4,0,0,0,.539-.06.369.369,0,0,0-.1-.539l-8.723-6.767a.369.369,0,0,0-.539.1.352.352,0,0,0,.06.539Z" transform="translate(-397.23 -786.321)" fill="#f36d15"/>
        <path id="Trazado_997236" data-name="Trazado 997236" d="M540.6,289.075s-3.314,8.044-11.358,4.751c-8.064-3.314-7.925-15.271-1.178-18.265,6.727-3.014,12.636,5.27,12.536,13.514" transform="translate(-418.674 -220.048)" fill="#f0875c"/>
        <path id="Trazado_997237" data-name="Trazado 997237" d="M577.344,289.613s-1.657,4.032-5.509,5.21c-1.9-1.477-2.316-5.469-1.258-4.851a4.323,4.323,0,0,0,2.775.459l.04-.818-2.795-2.056A93.115,93.115,0,0,1,569,275.6c4.791,1.038,8.4,7.545,8.344,14.013" transform="translate(-455.419 -220.586)" fill="#955235"/>
        <path id="Trazado_997238" data-name="Trazado 997238" d="M539.383,304.968c-.1-.06-.18-.16-.279-.22a11.449,11.449,0,0,1-2.076-3.393c-.938-2.056-1.9-4.092-3.733-4.671a3.233,3.233,0,0,0-2.375.1,3.544,3.544,0,0,0-1.357,1.078,4.454,4.454,0,0,0-.838,1.717,5.85,5.85,0,0,0,.24,3.513,18.769,18.769,0,0,1,.818-3.453c.04-.1.06-.16.1-.24a3.615,3.615,0,0,1,.459-.818,2.471,2.471,0,0,1,1-.759,2.2,2.2,0,0,1,1.717-.06c1.417.419,2.256,2.256,3.094,4.072a12.775,12.775,0,0,0,2.316,3.773,2.875,2.875,0,0,0,4.451-.24s-2.575.639-3.533-.4" transform="translate(-423.047 -237.318)" fill="#955235"/>
        <path id="Trazado_997239" data-name="Trazado 997239" d="M834.293,289.075s3.274,8.044,11.358,4.751c8.045-3.314,7.885-15.271,1.178-18.265-6.747-3.014-12.656,5.27-12.536,13.514" transform="translate(-667.754 -220.048)" fill="#f0875c"/>
        <path id="Trazado_997240" data-name="Trazado 997240" d="M834.295,289.613s1.657,4.032,5.469,5.21c1.9-1.477,2.315-5.469,1.3-4.851a4.379,4.379,0,0,1-2.795.459v-.818l2.775-2.056a86.565,86.565,0,0,0,1.6-11.957c-4.811,1.038-8.424,7.545-8.344,14.013" transform="translate(-667.756 -220.586)" fill="#955235"/>
        <path id="Trazado_997241" data-name="Trazado 997241" d="M848.233,304.968a1.133,1.133,0,0,1,.279-.22,11.86,11.86,0,0,0,2.056-3.393c.938-2.056,1.9-4.092,3.733-4.671a3.217,3.217,0,0,1,2.375.1,3.606,3.606,0,0,1,1.377,1.078,5.073,5.073,0,0,1,.818,1.717,5.992,5.992,0,0,1-.22,3.513,16.97,16.97,0,0,0-.838-3.453c-.04-.1-.06-.16-.1-.24a3.615,3.615,0,0,0-.459-.818,2.647,2.647,0,0,0-.958-.759,2.261,2.261,0,0,0-1.737-.06c-1.417.419-2.256,2.256-3.094,4.072a11.312,11.312,0,0,1-2.315,3.773,2.875,2.875,0,0,1-4.451-.24s2.535.639,3.533-.4" transform="translate(-676.085 -237.318)" fill="#955235"/>
        <path id="Trazado_997242" data-name="Trazado 997242" d="M635.363,124.051l-1.956,32.837a14.254,14.254,0,0,0-1,2.016c-10.12,24.173-44.794,26.429-53.737.539a7.929,7.929,0,0,1-.339-1.717c-2.355-15.47-2.735-32.7,2.076-44.574,4.871-11.917,48.546-13.793,54.954,10.9" transform="translate(-461.538 -83.769)" fill="#f0875c"/>
        <path id="Trazado_997243" data-name="Trazado 997243" d="M635.387,124.051l-.838,14.033-.419,7.366s-5.849-6.507-6.288-15.031c-.459-8.524-.4-12.556-.4-12.556s-3.613,12.456-23.894,6.827l-4.571-2.894-10.52-4.431-4.911.938-4.631,5.849L576.84,140.1l-.12-.06c-.279-9.9.719-19.443,3.733-26.888,4.851-11.917,48.526-13.793,54.934,10.9" transform="translate(-461.562 -83.769)" fill="#cb7044"/>
        <path id="Trazado_997244" data-name="Trazado 997244" d="M831.666,143.4a36.378,36.378,0,0,1-3.952-13.095c-.719-7.426-.4-18.724-3.094-20.52-2.735-1.836.3-7.685.3-7.685s10.659,2.555,11.5,15.949c.779,12.3,1.018,16.408-4.751,25.351" transform="translate(-659.098 -81.719)" fill="#474747"/>
        <path id="Trazado_997245" data-name="Trazado 997245" d="M557,126.4l11.618,3.573-1.2,3.573-5.469.659-5.589,6.388s-1.078,16.428-.878,19.542c0,0-1.777-4.611-5.33-3.673-.02,0-1.916-24.054,6.847-30.062" transform="translate(-440.185 -101.169)" fill="#474747"/>
        <path id="Trazado_997246" data-name="Trazado 997246" d="M711.818,297.7a8.658,8.658,0,0,0,3.334,6.028,5.19,5.19,0,0,1,2.076,3.334,3.2,3.2,0,0,1,0,1.377,3.314,3.314,0,0,1-.419,1.178,3.126,3.126,0,0,1-2.116,1.417A3.473,3.473,0,0,1,710.6,308.9c0,1.8.759,2.535,1.2,2.795a4.518,4.518,0,0,0,3.074.4,4.118,4.118,0,0,0,2.735-1.856,4.776,4.776,0,0,0,.579-1.6,5.077,5.077,0,0,0,0-1.737,6.208,6.208,0,0,0-2.5-4.032,7.114,7.114,0,0,1-1.856-2.076h-.04c.02-.02-.918-1.537-1.976-3.094" transform="translate(-568.753 -238.275)" fill="#955235"/>
        <path id="Trazado_997247" data-name="Trazado 997247" d="M643.841,232.992s-5.909-2.894-9.641,1.317c0,0,0-5.909,8.284-3.972l1.3.4s1.437,1.258.06,2.256" transform="translate(-507.604 -184.047)" fill="#474747"/>
        <path id="Trazado_997248" data-name="Trazado 997248" d="M765.915,229.062s5.909-2.894,9.6,1.3c0,0,.04-5.869-8.244-3.972l-1.318.4c0-.02-1.457,1.258-.04,2.276" transform="translate(-612.531 -180.895)" fill="#474747"/>
        <path id="Trazado_997249" data-name="Trazado 997249" d="M779.4,271.772c.04-2.2.359-3.972,1.956-3.972,1.617,0,2.375,1.777,2.355,3.972-.06,2.176-.838,3.972-2.475,3.972-1.617.02-1.856-1.757-1.836-3.972" transform="translate(-623.815 -214.343)" fill="#231f20"/>
        <path id="Trazado_997250" data-name="Trazado 997250" d="M654.759,271.772c-.04-2.2-.339-3.972-1.956-3.972s-2.375,1.777-2.316,3.972c.04,2.176.838,3.972,2.435,3.972,1.637.02,1.9-1.757,1.836-3.972" transform="translate(-520.637 -214.343)" fill="#231f20"/>
        <path id="Trazado_997251" data-name="Trazado 997251" d="M667.493,378.8s10.38,3.334,20.441,2.3c0,0-2.555,8.883-11.039,7.925-7.985-.918-9.462-8.444-9.4-10.22" transform="translate(-534.25 -303.186)" fill="#a32a28"/>
        <path id="Trazado_997252" data-name="Trazado 997252" d="M691.088,401.361a9.288,9.288,0,0,1-8.583,3.433,10.039,10.039,0,0,1-8-5.27,18.986,18.986,0,0,1,8.524-.878,19.393,19.393,0,0,1,8.064,2.715" transform="translate(-539.859 -318.96)" fill="#d6584b"/>
        <path id="Trazado_997253" data-name="Trazado 997253" d="M679.482,384.95c6.507.719,8.663-1.777,9.6-3.154-7.8.4-13.873-1.138-19.183-2.2.459,1.717,3.433,4.671,9.582,5.35" transform="translate(-536.178 -303.826)" fill="#fff"/>
        <path id="Trazado_997254" data-name="Trazado 997254" d="M582.174,2.4h0A34.473,34.473,0,0,0,547.8,36.754v3.693h68.728V36.754A34.456,34.456,0,0,0,582.174,2.4" transform="translate(-438.451 -1.921)" fill="#ffb401"/>
        <path id="Trazado_997255" data-name="Trazado 997255" d="M555.844,64.4A34.2,34.2,0,0,0,547.8,86.378v3.693h8.044Zm52.678,25.671h8V86.378a34.167,34.167,0,0,0-8-21.978Z" transform="translate(-438.451 -51.545)" fill="#ff9201"/>
        <path id="Trazado_997256" data-name="Trazado 997256" d="M607.44,184.3H536.277a1.472,1.472,0,0,0-1.377,1.537v5.969a1.478,1.478,0,0,0,1.377,1.557H607.44a1.478,1.478,0,0,0,1.377-1.557v-5.969a1.486,1.486,0,0,0-1.377-1.537" transform="translate(-428.126 -147.511)" fill="#ffb401"/>
        <path id="Trazado_997257" data-name="Trazado 997257" d="M697.073,0H683.7a.76.76,0,0,0-.7.838V24.852a.753.753,0,0,0,.7.818h13.374a.75.75,0,0,0,.659-.818V.838A.758.758,0,0,0,697.073,0" transform="translate(-546.663)" fill="#ff9201"/>
        <rect id="Rectángulo_455568" data-name="Rectángulo 455568" width="52.679" height="2.715" transform="translate(117.394 34.074)" fill="#ff9201"/>
        <path id="Trazado_997258" data-name="Trazado 997258" d="M607.44,206.9H536.277c-.759,0-1.377.359-1.377.779v2.974c0,.419.639.779,1.377.779H607.44c.759,0,1.377-.359,1.377-.779v-2.974c0-.419-.639-.779-1.377-.779" transform="translate(-428.126 -165.6)" fill="#ff9201"/>
        <rect id="Rectángulo_455569" data-name="Rectángulo 455569" width="8.044" height="2.715" transform="translate(109.349 34.074)" fill="#ff6a01"/>
        <rect id="Rectángulo_455570" data-name="Rectángulo 455570" width="8.005" height="2.715" transform="translate(170.072 34.074)" fill="#ff6a01"/>
        <path id="Trazado_997259" data-name="Trazado 997259" d="M619.615,195.6h0a1.121,1.121,0,0,0-1.058,1.178v3.194a1.073,1.073,0,1,0,2.136,0v-3.194a1.124,1.124,0,0,0-1.078-1.178m-20.141,0h0a1.124,1.124,0,0,0-1.078,1.178v3.194a1.073,1.073,0,1,0,2.136,0v-3.194a1.134,1.134,0,0,0-1.058-1.178m-23.535,0h0a1.121,1.121,0,0,0-1.058,1.178v3.194a1.073,1.073,0,1,0,2.136,0v-3.194a1.124,1.124,0,0,0-1.078-1.178m-20.181,0h0a1.121,1.121,0,0,0-1.058,1.178v3.194a1.073,1.073,0,1,0,2.136,0v-3.194a1.124,1.124,0,0,0-1.078-1.178" transform="translate(-443.973 -156.555)" fill="#ff6a01"/>
        <path id="Trazado_997260" data-name="Trazado 997260" d="M703.841,0h-9.462c-.279,0-.479.359-.479.779V23c0,.419.22.779.479.779h9.462c.24,0,.459-.359.459-.779V.779c0-.419-.219-.779-.459-.779" transform="translate(-555.387)" fill="#ffa601"/>
        <path id="Trazado_997261" data-name="Trazado 997261" d="M606.345,193.323h28.365c-9.841-12.1-46.87-12.1-56.711,0Z" transform="translate(-462.622 -147.471)" fill="#ffc901"/>
        <path id="Trazado_997262" data-name="Trazado 997262" d="M606.425,222.1h28.365a16.58,16.58,0,0,0-1.856-1.9H579.956a13.808,13.808,0,0,0-1.856,1.9Z" transform="translate(-462.702 -176.245)" fill="#ff6a01"/>
        <path id="Trazado_997263" data-name="Trazado 997263" d="M678.45,44.2h0a1.174,1.174,0,0,0-1.118,1.2V65.439a1.119,1.119,0,1,0,2.236,0V45.4a1.174,1.174,0,0,0-1.118-1.2m-24.633,0h0a1.174,1.174,0,0,0-1.118,1.2V65.439a1.119,1.119,0,1,0,2.236,0V45.4a1.161,1.161,0,0,0-1.118-1.2" transform="translate(-522.411 -35.377)" fill="#ff9201"/>
        <path id="Trazado_997264" data-name="Trazado 997264" d="M1102.474,673.582c-14.093,18.005-26.589,30.441-34.553,39.863-10.8,12.755-29.323.639-20.46-11.777,9.7-12.456,29.523-23.754,43.736-37.787,5.929-5.869,17.606,1.6,11.278,9.7" transform="translate(-836.506 -529.68)" fill="#f0875c"/>
        <path id="Trazado_997265" data-name="Trazado 997265" d="M1280.666,593.77c-8.184,7.745-9.2,19.962-19.842,18.9-9.242-.9-8.484-10-7.166-15.331,1.357-5.33,5.809-13.554,5.809-13.554s6.767-2.236,10.739-.539a20.429,20.429,0,0,0,7.006,1.9c1.3.2,11.079,1.5,3.453,8.623" transform="translate(-1002.781 -466.315)" fill="#f0875c"/>
        <path id="Trazado_997266" data-name="Trazado 997266" d="M1375.925,555.96l8.124-4.212s2-1.018,2.475-2.315c.459-1.3,2.116-6.448,2.116-6.448l.878-5.988-1.078-1.6-1.3-.3a14.58,14.58,0,0,0-2.415,2.894,24.827,24.827,0,0,0-1.178,3.972l-2.2,4.731-5.909,1.357c-4.571,4.97-3.972,6.188.479,7.9" transform="translate(-1098.359 -428.286)" fill="#f0875c"/>
        <path id="Trazado_997267" data-name="Trazado 997267" d="M1429.882,548.454c.659-1.936,1.8-5.47,1.8-5.47l.878-5.988-1.078-1.6-1.3-.3a14.581,14.581,0,0,0-2.415,2.894,26.911,26.911,0,0,0-1.058,3.453l.779.659a12.476,12.476,0,0,1-1.078,2.914c-.778,1.477.1,1.717.1,1.717Z" transform="translate(-1141.418 -428.286)" fill="#cb7044"/>
        <path id="Trazado_997268" data-name="Trazado 997268" d="M1354.835,512.346l2.076-1.657,3.673-9.422-.4-11.079-1.537-5.689h-3.154s-.758,4.192-.818,5.789a11.038,11.038,0,0,0,.479,3.274l-.779,5.789-3.693,10.2s-.3,2.2,4.152,2.795" transform="translate(-1081.063 -387.786)" fill="#f0875c"/>
        <path id="Trazado_997269" data-name="Trazado 997269" d="M1376.549,500.429l-.359-10.24-1.537-5.689H1371.5s-.758,4.192-.818,5.789a10.177,10.177,0,0,0,.339,2.735l.958.22.639,6.288Z" transform="translate(-1097.068 -387.786)" fill="#cb7044"/>
        <path id="Trazado_997270" data-name="Trazado 997270" d="M1322.089,508.968l2.735-11.218.359-9.462-.04-5.39-2.775-.7s-1.058,3.693-1.737,5.929a18.809,18.809,0,0,0-.818,4.012l-1.3,8-2.116,6.527c.04.02.5,2.056,5.689,2.3" transform="translate(-1053.626 -385.945)" fill="#f0875c"/>
        <path id="Trazado_997271" data-name="Trazado 997271" d="M1338.87,496.932l.339-8.544-.04-5.39-2.775-.7s-1.058,3.693-1.737,5.929a17.188,17.188,0,0,0-.758,3.493l.778,4.691Z" transform="translate(-1067.633 -386.025)" fill="#cb7044"/>
        <path id="Trazado_997272" data-name="Trazado 997272" d="M1288.289,518.92l1.6-7.925.1-5.41,1.178-6.747-3.473-.539-2.2,7.426-.359,4.691L1282.7,517.7s3.393,3.952,5.589,1.218" transform="translate(-1026.653 -398.832)" fill="#f0875c"/>
        <path id="Trazado_997273" data-name="Trazado 997273" d="M1301.331,510.337l.1-4.751,1.158-6.747-3.453-.539L1297,505.546l1.2,3.254Z" transform="translate(-1038.099 -398.832)" fill="#cb7044"/>
        <path id="Trazado_997274" data-name="Trazado 997274" d="M161.6,876.473l.12-7.565s.838-1.717,7.046-2.535A66.846,66.846,0,0,0,182.52,862.4l9.023,3.673s4.671,7.166,2.675,11.8a57.205,57.205,0,0,1-4.072,7.885l-5.589-.459s-.7.659-3.254.958a9.287,9.287,0,0,1-4.871-.958s-2,1.357-3.314,1.3a9.225,9.225,0,0,1-2.615-.579s-3.733,1.317-5.23.639c-1.537-.7-3.453-7.805-3.453-7.805Z" transform="translate(-129.342 -690.252)" fill="#f0875c"/>
        <path id="Trazado_997275" data-name="Trazado 997275" d="M210.788,908.141h-.12a2.583,2.583,0,0,1-.9.459l1.058-15.83.779-1.477s2.016,5.509,1.9,7.306a97.606,97.606,0,0,1-2.715,9.542m-7.326.419c-.4-.16-.7-.3-.818-.359l-.359-16.368s.579-1.058,1.058-.9c0,0,.7,6.527.759,8.6.02,1.677-.459,6.947-.639,9.023m-5.529.7a10.792,10.792,0,0,1-1.317-.4l-.04.04L194.2,893.27a20.5,20.5,0,0,1,2.435,6.208c.3,2.3,1.058,7.865,1.3,9.781" transform="translate(-155.435 -713.077)" fill="#955235"/>
      </g>
    </g>
    <g id="Grupo_1179098" data-name="Grupo 1179098" transform="translate(1191.801 1667.384) rotate(20)">
      <g id="Grupo_1179089" data-name="Grupo 1179089">
        <g id="Enmascarar_grupo_1179088" data-name="Enmascarar grupo 1179088" clip-path="url(#clip-path-3)">
          <path id="Trazado_997276" data-name="Trazado 997276" d="M7.981,192.7H117.8a8.01,8.01,0,0,1,7.981,7.981V361.288a8.01,8.01,0,0,1-7.981,7.981H7.981A8.01,8.01,0,0,1,0,361.288V200.681A8.01,8.01,0,0,1,7.981,192.7" transform="translate(0 -177.637)" fill="#8a2c8c"/>
        </g>
      </g>
      <g id="Grupo_1179093" data-name="Grupo 1179093">
        <g id="Grupo_1179092" data-name="Grupo 1179092" clip-path="url(#clip-path-3)">
          <path id="Trazado_997277" data-name="Trazado 997277" d="M123.79,287.3H231.682a1.8,1.8,0,0,1,1.79,1.79V446.43a1.79,1.79,0,0,1-1.79,1.79H123.79a1.79,1.79,0,0,1-1.79-1.79V289.09a1.8,1.8,0,0,1,1.79-1.79" transform="translate(-112.464 -264.843)" fill="#fc7411"/>
        </g>
      </g>
      <g id="Grupo_1179095" data-name="Grupo 1179095" transform="translate(7.152 20.136)">
        <g id="Grupo_1179094" data-name="Grupo 1179094" clip-path="url(#clip-path-6)">
          <rect id="Rectángulo_455576" data-name="Rectángulo 455576" width="134.551" height="175.963" transform="matrix(0.988, -0.151, 0.151, 0.988, -24.083, 3.688)" fill="url(#linear-gradient)"/>
        </g>
      </g>
      <g id="Grupo_1179097" data-name="Grupo 1179097">
        <g id="Grupo_1179096" data-name="Grupo 1179096" clip-path="url(#clip-path-3)">
          <path id="Trazado_997279" data-name="Trazado 997279" d="M510.9,157.6h48.557v13.788l-46.915.328Z" transform="translate(-470.965 -145.281)" fill="#cc7639"/>
          <path id="Trazado_997280" data-name="Trazado 997280" d="M522.5,257.6h47.65v5.972l-46.915.328Z" transform="translate(-481.658 -237.465)" fill="#ccc"/>
          <path id="Trazado_997281" data-name="Trazado 997281" d="M513.293,8.653h12.444a8.653,8.653,0,1,1,17.306,0H555.48a2.5,2.5,0,0,1,2.486,2.5v13.14H510.8V11.146a2.505,2.505,0,0,1,2.493-2.493" transform="translate(-470.873)" fill="#636363"/>
          <path id="Trazado_997282" data-name="Trazado 997282" d="M766.516,60.8a3.908,3.908,0,1,1-3.916,3.9,3.9,3.9,0,0,1,3.916-3.9" transform="translate(-702.991 -56.048)" fill="#0b355d"/>
          <rect id="Rectángulo_455577" data-name="Rectángulo 455577" width="47.165" height="2.322" transform="translate(39.935 17.196)" fill="#00529c"/>
          <rect id="Rectángulo_455578" data-name="Rectángulo 455578" width="47.165" height="1.157" transform="translate(39.935 18.361)" fill="#96beff"/>
          <rect id="Rectángulo_455579" data-name="Rectángulo 455579" width="22.387" height="3.666" transform="translate(75.203 44.758)" fill="#78a7e8"/>
          <rect id="Rectángulo_455580" data-name="Rectángulo 455580" width="45.766" height="3.666" transform="translate(28.21 44.758)" fill="#78a7e8"/>
          <path id="Trazado_997283" data-name="Trazado 997283" d="M644.8,834.123h20.464V832.2H644.8Zm0,16.931h25.287v-1.923H644.8Zm0-3.392h24.826v-1.907H644.8Zm0-3.385h25.287v-1.907H644.8Zm0-3.385h23.207v-1.907H644.8Zm0-3.385h25.287V835.6H644.8Z" transform="translate(-594.399 -767.15)" fill="#bcd0f0"/>
          <path id="Trazado_997284" data-name="Trazado 997284" d="M106.7,726.2H215.8v.586H106.7Zm0,110.894H215.8v.586H106.7Zm0-36.972H215.8v.586H106.7Zm0-36.949H215.8v.586H106.7Z" transform="translate(-98.36 -669.436)" fill="#bcd0f0"/>
          <path id="Trazado_997285" data-name="Trazado 997285" d="M566.886,837.672H566.3V726.2h.586Zm36.668,0h-.586V726.2h.586Z" transform="translate(-522.035 -669.436)" fill="#bcd0f0"/>
          <path id="Trazado_997286" data-name="Trazado 997286" d="M1113.8,834.123h20.464V832.2H1113.8Zm0,16.931h8.356v-1.923H1113.8Zm0-3.392h24.826v-1.907H1113.8Zm0-3.385h25.295v-1.907H1113.8Zm0-3.385h23.223v-1.907H1113.8Zm0-3.385h25.295V835.6H1113.8Z" transform="translate(-1026.739 -767.15)" fill="#bcd0f0"/>
          <path id="Trazado_997287" data-name="Trazado 997287" d="M1113.8,1264.823h20.464V1262.9H1113.8Zm0,20.1h20.464v-1.915H1113.8Zm0,6.777h23.223v-1.923H1113.8Zm0-3.4h25.295V1286.4H1113.8Zm0-6.566h25.295v-1.907H1113.8Zm0-3.377h24.826v-1.915H1113.8Zm0-3.385h25.295v-1.907H1113.8Zm0-3.385h23.223v-1.923H1113.8Zm0-3.385h25.295v-1.923H1113.8Z" transform="translate(-1026.739 -1164.184)" fill="#bcd0f0"/>
          <path id="Trazado_997288" data-name="Trazado 997288" d="M644.8,1264.823h20.464V1262.9H644.8Zm0,16.915h8.356v-1.907H644.8Zm0-3.377h24.826v-1.915H644.8Zm0-3.385h25.287v-1.907H644.8Zm0-3.385h23.207v-1.923H644.8Zm0-3.385h25.287v-1.923H644.8Z" transform="translate(-594.399 -1164.184)" fill="#bcd0f0"/>
          <path id="Trazado_997289" data-name="Trazado 997289" d="M1113.8,1741.007h20.464V1739.1H1113.8Zm0,16.923h8.356v-1.907H1113.8Zm0-3.385h24.826v-1.907H1113.8Zm0-3.377h25.295v-1.907H1113.8Zm0-3.385h23.223v-1.923H1113.8Zm0-3.385h25.295v-1.923H1113.8Z" transform="translate(-1026.739 -1603.162)" fill="#bcd0f0"/>
          <path id="Trazado_997290" data-name="Trazado 997290" d="M644.8,1728.115h20.464V1726.2H644.8Zm0,20.1h20.464V1746.3H644.8Zm0,6.769h23.207v-1.907H644.8Zm0-3.385h25.287V1749.7H644.8Zm0-6.566h25.287v-1.907H644.8Zm0-3.385h24.826v-1.923H644.8Zm0-3.392h25.287v-1.907H644.8Zm0-3.385h23.207v-1.907H644.8Zm0-3.385h25.287v-1.907H644.8Z" transform="translate(-594.399 -1591.27)" fill="#bcd0f0"/>
          <path id="Trazado_997291" data-name="Trazado 997291" d="M239.446,899.788l.532-1.071s.3-.414.993,0l3.6,2.619,4.682-5.886c1.087-1.352,2.181-.461,1.3,1.04l-4.94,8.4s-.422.61-.922.3l-5.057-4.041a.876.876,0,0,1-.188-1.352" transform="translate(-220.515 -824.843)" fill="#4e9c3e"/>
          <path id="Trazado_997292" data-name="Trazado 997292" d="M239.446,1355.5l.532-1.087s.3-.4.993,0l3.6,2.626,4.682-5.894c1.087-1.352,2.181-.461,1.3,1.04l-4.94,8.4s-.422.6-.922.3l-5.057-4.041a.868.868,0,0,1-.188-1.344" transform="translate(-220.515 -1244.923)" fill="#4e9c3e"/>
          <path id="Trazado_997293" data-name="Trazado 997293" d="M239.446,1811.388l.532-1.071s.3-.4.993,0l3.6,2.626,4.682-5.894c1.087-1.352,2.181-.461,1.3,1.04l-4.94,8.4s-.422.6-.922.281l-5.057-4.041a.868.868,0,0,1-.188-1.344" transform="translate(-220.515 -1665.187)" fill="#4e9c3e"/>
        </g>
      </g>
    </g>
  </g>
</svg>
