<svg xmlns="http://www.w3.org/2000/svg" width="84" height="84" viewBox="0 0 84 84">
  <g id="Grupo_1179418" data-name="Grupo 1179418" transform="translate(-186 -2209.58)">
    <g id="Grupo_1177769" data-name="Grupo 1177769" transform="translate(-520 530.66)" style="isolation: isolate">
      <g id="Grupo_1119665" data-name="Grupo 1119665" transform="translate(534.111 -3840.08)">
        <rect id="Rectángulo_402006" data-name="Rectángulo 402006" width="84" height="84" rx="5" transform="translate(171.889 5519)" fill="#2c2e8c"/>
      </g>
    </g>
    <path id="Trazado_996330" data-name="Trazado 996330" d="M61.7,86.448a3.915,3.915,0,0,0-5.226-.112l-3.686,2.918-.319-.344a9.3,9.3,0,0,0-3.126-2.256L34.892,80.441a7.123,7.123,0,0,0-5.92,0L14.524,86.654A9.3,9.3,0,0,0,11.4,88.91l-.319.344L7.391,86.336a3.914,3.914,0,0,0-5.225.112A6.888,6.888,0,0,0,0,91.729v5.986c0,3.689,1.19,7.632,4.112,10.062l5.751,4.784.044.075a10.212,10.212,0,0,0,4.617,4.259l14.448,6.214a7.121,7.121,0,0,0,5.92,0L49.34,116.9a10.207,10.207,0,0,0,4.616-4.259l.045-.075,5.751-4.784c2.921-2.43,4.111-6.373,4.111-10.062V91.729A6.888,6.888,0,0,0,61.7,86.448Zm-.877,11.267c0,2.769-.8,5.883-3.013,7.724l-1.83,1.523.1-1.206a20.042,20.042,0,0,0,.065-2.071V99.863a17.446,17.446,0,0,0-1.52-7.688l-.169-.363,3.9-3.09a.924.924,0,0,1,1.366.041,3.952,3.952,0,0,1,1.1,2.967ZM6.056,105.439c-2.213-1.839-3.015-4.955-3.015-7.724V91.729a3.948,3.948,0,0,1,1.1-2.967A.923.923,0,0,1,5.5,88.721l3.906,3.09-.169.363a17.4,17.4,0,0,0-1.52,7.688v3.824a19.1,19.1,0,0,0,.065,2.068l.1,1.208-1.834-1.524Zm11.12-12.254a1.525,1.525,0,0,1,1.978-.844,34.127,34.127,0,0,0,25.556,0,1.52,1.52,0,1,1,1.132,2.822,36.97,36.97,0,0,1-27.822,0,1.525,1.525,0,0,1-.844-1.978ZM46.687,99.9a1.525,1.525,0,0,1-.845,1.977,36.954,36.954,0,0,1-27.822,0,1.52,1.52,0,1,1,1.134-2.821,34.132,34.132,0,0,0,25.556,0A1.524,1.524,0,0,1,46.687,99.9Zm0,6.72a1.525,1.525,0,0,1-.845,1.977,36.971,36.971,0,0,1-27.822,0,1.521,1.521,0,1,1,1.134-2.823,34.122,34.122,0,0,0,25.556,0,1.525,1.525,0,0,1,1.977.845Z" transform="translate(196.069 2149.805)" fill="#bfc0dc" fill-rule="evenodd"/>
  </g>
</svg>
