<svg xmlns="http://www.w3.org/2000/svg" width="92" height="92" viewBox="0 0 92 92">
  <g id="Grupo_1178890" data-name="Grupo 1178890" transform="translate(-0.333 -0.333)">
    <circle id="Elipse_13677" data-name="Elipse 13677" cx="46" cy="46" r="46" transform="translate(0.333 0.333)" fill="#232470"/>
    <path id="Trazado_996396" data-name="Trazado 996396" d="M110.289,70.24c0,22.68-17.077,40.036-39.758,40.036-15.373,0-28.537-7.452-35.576-19.958a40.2,40.2,0,0,1-2.511-4.249A41.076,41.076,0,0,1,106.21,50.262c1.048,2.775,2.071,5.016,2.919,7.624C110.431,61.889,110.289,65.8,110.289,70.24Z" transform="translate(-24.002 -24.002)" fill="#d2e6bd"/>
    <path id="Trazado_996397" data-name="Trazado 996397" d="M124.922,163.122a41.073,41.073,0,0,1-79.161,15.366,41.077,41.077,0,0,0,73.655-35.92A40.87,40.87,0,0,1,124.922,163.122Z" transform="translate(-37.431 -116.697)" fill="#d2e6bd"/>
    <path id="Trazado_996398" data-name="Trazado 996398" d="M194.851,176.5a17.385,17.385,0,0,1-12.141,16.575c-1.652.521-3.412-2.2-5.236-2.2-1.469,0-2.895,2.82-4.257,2.477a17.4,17.4,0,0,1-12.169-22.538c.362-1.046,3.143-1.2,3.688-2.146.568-.983-1.094-2.751-.351-3.6a17.378,17.378,0,0,1,25.961-.243c.831.916-.512,2.7.11,3.773.688,1.192,3.316,1.7,3.708,3.046A17.376,17.376,0,0,1,194.851,176.5Z" transform="translate(-131.049 -130.251)" fill="#d2e6bd"/>
    <path id="Trazado_996399" data-name="Trazado 996399" d="M125.57,93.611a17.768,17.768,0,0,0-11.35-2.225.187.187,0,0,1-.174-.3,17.848,17.848,0,0,0-4.592-26.047.278.278,0,0,0-.331.444,13.86,13.86,0,1,1-18.35,0,.278.278,0,0,0-.333-.443,17.849,17.849,0,0,0-4.59,26.046.187.187,0,0,1-.174.3,17.848,17.848,0,0,0-20.262,17,.278.278,0,0,0,.55.068,13.86,13.86,0,1,1,9.175,15.89.278.278,0,0,0-.217.51A17.848,17.848,0,0,0,99.775,115.8a.187.187,0,0,1,.347,0,17.848,17.848,0,0,0,24.852,9.048.278.278,0,0,0-.216-.51,13.86,13.86,0,1,1,9.173-15.891.278.278,0,0,0,.55-.067,17.831,17.831,0,0,0-8.911-14.773Z" transform="translate(-53.525 -53.177)" fill="#0f1031"/>
    <circle id="Elipse_13678" data-name="Elipse 13678" cx="4.2" cy="4.2" r="4.2" transform="translate(42.224 42.038)" fill="#d2e6bd"/>
  </g>
</svg>
