<svg xmlns="http://www.w3.org/2000/svg" width="84" height="84" viewBox="0 0 84 84">
  <g id="Grupo_1178893" data-name="Grupo 1178893" transform="translate(-705 -328.089)">
    <g id="Grupo_1177230" data-name="Grupo 1177230" transform="translate(-1 -1350.831)">
      <g id="Grupo_1119665" data-name="Grupo 1119665" transform="translate(534.111 -3840.08)">
        <rect id="Rectángulo_402006" data-name="Rectángulo 402006" width="84" height="84" rx="5" transform="translate(171.889 5519)" fill="#cdbfdc"/>
      </g>
    </g>
    <g id="reaccion-quimica" transform="translate(709.602 337.294)">
      <g id="Grupo_1177530" data-name="Grupo 1177530" transform="translate(1.206 1.206)">
        <g id="Grupo_1177509" data-name="Grupo 1177509" transform="translate(12.064 41.017)">
          <path id="Trazado_995372" data-name="Trazado 995372" d="M20.651,36.206v2.413a1.21,1.21,0,0,1-1.206,1.206H12.206A1.21,1.21,0,0,1,11,38.619V36.206A1.21,1.21,0,0,1,12.206,35h7.238A1.21,1.21,0,0,1,20.651,36.206Z" transform="translate(-11 -35)" fill="#ccd1d9"/>
        </g>
        <g id="Grupo_1177510" data-name="Grupo 1177510" transform="translate(7.238 45.842)">
          <path id="Trazado_995373" data-name="Trazado 995373" d="M16.651,53.476a2.413,2.413,0,1,0-2.413,2.413H7a9.644,9.644,0,0,1,7.238-9.337V39h4.825v7.552a9.705,9.705,0,0,1,6.309,5.212,3.943,3.943,0,0,0-.422.362,3.61,3.61,0,0,0-1.062,2.557,3.344,3.344,0,0,0,.217,1.206H14.238A2.42,2.42,0,0,0,16.651,53.476Z" transform="translate(-7 -39)" fill="#e6e9ed"/>
        </g>
        <g id="Grupo_1177511" data-name="Grupo 1177511" transform="translate(7.238 62.731)">
          <path id="Trazado_995374" data-name="Trazado 995374" d="M24.106,53a3.541,3.541,0,0,0,1.966,2.111A9.653,9.653,0,0,1,7,53H24.094Z" transform="translate(-7 -53)" fill="#bfc0dc"/>
        </g>
        <g id="Grupo_1177512" data-name="Grupo 1177512" transform="translate(26.667 52.877)">
          <ellipse id="Elipse_13633" data-name="Elipse 13633" cx="2.288" cy="2.496" rx="2.288" ry="2.496" transform="translate(0 0)" fill="#bfc0dc"/>
        </g>
        <g id="Grupo_1177513" data-name="Grupo 1177513" transform="translate(7.114 38.732)">
          <ellipse id="Elipse_13634" data-name="Elipse 13634" cx="2.496" cy="2.288" rx="2.496" ry="2.288" transform="translate(0 0)" fill="#bfc0dc"/>
        </g>
        <g id="Grupo_1177514" data-name="Grupo 1177514" transform="translate(4.618 50.797)">
          <ellipse id="Elipse_13635" data-name="Elipse 13635" cx="2.496" cy="2.288" rx="2.496" ry="2.288" transform="translate(0 0)" fill="#bfc0dc"/>
        </g>
        <g id="Grupo_1177515" data-name="Grupo 1177515" transform="translate(12.107 57.869)">
          <ellipse id="Elipse_13636" data-name="Elipse 13636" cx="2.288" cy="2.496" rx="2.288" ry="2.496" transform="translate(0 0)" fill="#bfc0dc"/>
        </g>
        <g id="Grupo_1177516" data-name="Grupo 1177516" transform="translate(0 26.54)">
          <path id="Trazado_995375" data-name="Trazado 995375" d="M4.86,23.483a2.445,2.445,0,0,1,.965,1.93,2.413,2.413,0,1,1-.965-1.93Z" transform="translate(-1 -23)" fill="#8a2c8c"/>
        </g>
        <g id="Grupo_1177517" data-name="Grupo 1177517" transform="translate(0 7.238)">
          <path id="Trazado_995376" data-name="Trazado 995376" d="M3.413,7A2.42,2.42,0,0,1,5.825,9.413a2.413,2.413,0,0,1-2.413,2.413A2.413,2.413,0,0,1,3.413,7Z" transform="translate(-1 -7)" fill="#8a2c8c"/>
        </g>
        <g id="Grupo_1177518" data-name="Grupo 1177518" transform="translate(14.476 2.413)">
          <path id="Trazado_995377" data-name="Trazado 995377" d="M15.413,3a2.413,2.413,0,0,1,0,4.825,2.309,2.309,0,0,1-1.074-.253A2.412,2.412,0,0,1,15.413,3Z" transform="translate(-13 -3)" fill="#8a2c8c"/>
        </g>
        <g id="Grupo_1177519" data-name="Grupo 1177519" transform="translate(14.476 26.54)">
          <path id="Trazado_995378" data-name="Trazado 995378" d="M16.619,23a3.618,3.618,0,1,1-2.22.76,3.655,3.655,0,0,1,2.22-.76Z" transform="translate(-13 -23)" fill="#8a2c8c"/>
        </g>
        <g id="Grupo_1177520" data-name="Grupo 1177520" transform="translate(4.825 14.476)">
          <path id="Trazado_995379" data-name="Trazado 995379" d="M12.781,21.626a4.725,4.725,0,0,1-2.956,1.025,4.825,4.825,0,1,1,4.825-4.825A4.772,4.772,0,0,1,12.781,21.626Z" transform="translate(-5 -13)" fill="#8a2c8c"/>
        </g>
        <g id="Grupo_1177521" data-name="Grupo 1177521" transform="translate(19.302)">
          <path id="Trazado_995380" data-name="Trazado 995380" d="M27.869,15.489a8.1,8.1,0,0,0-3.631,6.756v.47l-3.39-2.835A10.674,10.674,0,0,1,27.676,1h16.7A25.7,25.7,0,0,1,70.08,26.708,24.94,24.94,0,0,1,48.366,51.45V37.191h4.415a7.661,7.661,0,0,0,7.648-7.648,6.778,6.778,0,0,0-1.617-4.415c-.133-.145-.253-.277-.386-.41a6.815,6.815,0,0,0-9.651,0l-.41.41a7.244,7.244,0,0,0-7.238-7.238H32.683a6.058,6.058,0,0,1-4.271-1.761A5.615,5.615,0,0,1,27.869,15.489Z" transform="translate(-17 -1)" fill="#b27946"/>
        </g>
        <g id="Grupo_1177522" data-name="Grupo 1177522" transform="translate(36.191 50.655)">
          <path id="Trazado_995381" data-name="Trazado 995381" d="M42.231,43c.181,0,.362,0,.543-.012V43a5.122,5.122,0,0,0-3.619,1.5L33.413,50.24H31A7.244,7.244,0,0,1,38.238,43Z" transform="translate(-31 -42.99)" fill="#e6e9ed"/>
        </g>
        <g id="Grupo_1177523" data-name="Grupo 1177523" transform="translate(36.191 55.783)">
          <path id="Trazado_995382" data-name="Trazado 995382" d="M47.889,47.24v16.6H31V59.014h5.236A4.83,4.83,0,0,0,39.65,57.6l6.744-6.744A5.122,5.122,0,0,0,47.889,47.24Z" transform="translate(-31 -47.24)" fill="#e6e9ed"/>
        </g>
        <g id="Grupo_1177524" data-name="Grupo 1177524" transform="translate(31.366 50.668)">
          <path id="Trazado_995383" data-name="Trazado 995383" d="M31.825,50.238h2.413L39.981,44.5a5.118,5.118,0,0,1,7.238,7.238l-6.744,6.744a4.83,4.83,0,0,1-3.414,1.411H28.206A1.21,1.21,0,0,1,27,58.683V50.238Z" transform="translate(-27 -43)" fill="#e6e9ed"/>
        </g>
        <g id="Grupo_1177525" data-name="Grupo 1177525" transform="translate(24.127 57.906)">
          <path id="Trazado_995384" data-name="Trazado 995384" d="M25.825,49h2.413v7.238H24.619a3.62,3.62,0,0,1-3.4-2.413A3.344,3.344,0,0,1,21,52.619a3.61,3.61,0,0,1,1.062-2.558,3.944,3.944,0,0,1,.422-.362,3.62,3.62,0,0,1,2.135-.7Z" transform="translate(-21 -49)" fill="#f0d0b4"/>
        </g>
        <g id="Grupo_1177526" data-name="Grupo 1177526" transform="translate(26.54 14.489)">
          <path id="Trazado_995385" data-name="Trazado 995385" d="M30.238,20.236A7.244,7.244,0,0,0,23,27.474V19.766a8.1,8.1,0,0,1,3.631-6.756,5.615,5.615,0,0,0,.543.639,6.058,6.058,0,0,0,4.271,1.761h8.445a7.244,7.244,0,0,1,7.238,7.238l.41-.41a6.815,6.815,0,0,1,9.651,0c.133.133.253.265.386.41a6.778,6.778,0,0,1,1.617,4.415,7.661,7.661,0,0,1-7.648,7.648H47.127V48.972a22.074,22.074,0,0,1-2.7.205c-.181.012-.362.012-.543.012H33.857a10.8,10.8,0,0,1-6.985-2.558,7.237,7.237,0,0,0,5.779-7.093H23.072A9.967,9.967,0,0,1,23,38.332V27.474a7.238,7.238,0,1,0,7.238-7.238Z" transform="translate(-23 -13.01)" fill="#f0d0b4"/>
        </g>
        <g id="Grupo_1177528" data-name="Grupo 1177528" transform="translate(26.54 21.715)">
          <path id="Trazado_995387" data-name="Trazado 995387" d="M30.238,19A7.238,7.238,0,1,1,23,26.238,7.244,7.244,0,0,1,30.238,19Z" transform="translate(-23 -19)" fill="#bfc0dc"/>
        </g>
        <g id="Grupo_1177529" data-name="Grupo 1177529" transform="translate(31.244 26.667)">
          <ellipse id="Elipse_13637" data-name="Elipse 13637" cx="2.496" cy="2.288" rx="2.496" ry="2.288" transform="translate(0 0)" fill="#d3a06c"/>
        </g>
      </g>
      <g id="Grupo_1177531" data-name="Grupo 1177531" transform="translate(0)">
        <path id="Trazado_995388" data-name="Trazado 995388" d="M74.795,26.92A26.95,26.95,0,0,0,47.875,0H31.189a11.868,11.868,0,0,0-9.651,4.974,3.609,3.609,0,1,0-6.044,3.564l-3.083,6.168a5.657,5.657,0,0,0-4.122.367L6.63,12.861a3.617,3.617,0,1,0-3.011,1.615A3.58,3.58,0,0,0,4.69,14.3l1.672,2.229a5.928,5.928,0,0,0,0,7.964L4.69,26.72a3.58,3.58,0,0,0-1.071-.18,3.627,3.627,0,1,0,3.01,1.615l1.659-2.211a5.818,5.818,0,0,0,5.231-.051L15.5,28.435a4.776,4.776,0,0,0-1.019,2.93A4.825,4.825,0,1,0,19.3,26.54a4.778,4.778,0,0,0-1.913.4L15.42,24.41a5.939,5.939,0,0,0-.853-8.622l3.091-6.181a3.5,3.5,0,0,0,.438.045,3.579,3.579,0,0,0,1.493-.332,11.837,11.837,0,0,0,3.989,11.7l2.962,2.467V41.017A12.077,12.077,0,0,0,38.6,53.08h.134a8.433,8.433,0,0,0-2.45,4.825H33.556a3.578,3.578,0,0,0,.222-1.206,3.619,3.619,0,0,0-7.238,0,3.558,3.558,0,0,0,.051.5,10.825,10.825,0,0,0-4.876-3.486V48.255a2.415,2.415,0,0,0,2.413-2.413V43.429a2.415,2.415,0,0,0-2.413-2.413H14.476c-.074,0-.144.016-.216.022a3.64,3.64,0,1,0-2.2,4.582v.222a2.415,2.415,0,0,0,2.413,2.413v5.454a10.773,10.773,0,0,0-2.482,1.262,3.617,3.617,0,1,0-3.55,2.935,3.615,3.615,0,0,0,.68-.069A10.845,10.845,0,0,0,18.1,74.795a10.935,10.935,0,0,0,10.251-7.3,4.787,4.787,0,0,0,.607.062h2.413a2.415,2.415,0,0,0,2.413,2.413h2.413v4.825h19.3V56.7h-.029a6.292,6.292,0,0,0-1.772-4.114,26.2,26.2,0,0,0,21.1-25.666ZM2.413,10.857a1.206,1.206,0,1,1,1.206,1.206A1.208,1.208,0,0,1,2.413,10.857ZM3.619,31.366a1.206,1.206,0,1,1,1.206-1.206A1.208,1.208,0,0,1,3.619,31.366Zm18.1,0A2.413,2.413,0,1,1,19.3,28.953,2.415,2.415,0,0,1,21.715,31.366Zm-9.9-11.6L9.9,21.249l2.085,2.679a3.557,3.557,0,0,1-1.132.2,3.619,3.619,0,1,1,3.619-3.619,3.586,3.586,0,0,1-.578,1.946ZM18.1,7.238A1.206,1.206,0,1,1,19.3,6.032,1.208,1.208,0,0,1,18.1,7.238ZM30.159,55.493A1.206,1.206,0,1,1,28.953,56.7,1.208,1.208,0,0,1,30.159,55.493ZM21.715,43.429v2.413H14.476V43.429Zm-10.857,0a1.206,1.206,0,1,1,1.206-1.206A1.208,1.208,0,0,1,10.857,43.429ZM15.984,55.77l.9-.234V48.255H19.3v7.282l.9.233a8.434,8.434,0,0,1,5.119,3.815,4.784,4.784,0,0,0-1.2,3.147H19.08a3.578,3.578,0,0,0,.222-1.206,3.619,3.619,0,1,0-7.238,0,3.578,3.578,0,0,0,.222,1.206H9.752A8.427,8.427,0,0,1,15.984,55.77Zm-1.508,5.754a1.206,1.206,0,1,1,1.206,1.206A1.208,1.208,0,0,1,14.476,61.525ZM7.238,54.287a1.206,1.206,0,1,1,1.206,1.206A1.208,1.208,0,0,1,7.238,54.287ZM18.1,72.382a8.451,8.451,0,0,1-8.348-7.238H24.8a4.83,4.83,0,0,0,1.285,1.444A8.484,8.484,0,0,1,18.1,72.382Zm13.27-7.238H28.953a2.413,2.413,0,1,1,0-4.825h2.413ZM25.124,19.166A9.474,9.474,0,0,1,31.189,2.413H47.876A24.534,24.534,0,0,1,72.382,26.92a23.777,23.777,0,0,1-19.3,23.316V38.6h3.205a8.868,8.868,0,0,0,8.858-8.858,7.988,7.988,0,0,0-.672-3.205h3.085V24.127H62.842a8.011,8.011,0,0,0-10.095-1.12,8.455,8.455,0,0,0-8.112-6.119H36.191a4.83,4.83,0,0,1-4.825-4.825,2.413,2.413,0,1,1,4.825,0H38.6a4.825,4.825,0,1,0-9.651,0,7.2,7.2,0,0,0,.826,3.348,9.241,9.241,0,0,0-3.038,5.1Zm3.829,3.284a6.848,6.848,0,0,1,2.292-5.115A7.207,7.207,0,0,0,36.191,19.3h8.445a6.043,6.043,0,0,1,5.91,4.825H40.884a8.419,8.419,0,0,0-11.931.133Zm12.064,7.71a6.032,6.032,0,1,1-6.032-6.032A6.039,6.039,0,0,1,41.017,30.159ZM29.27,43.429h6.8a6.051,6.051,0,0,1-4.137,4.544,9.658,9.658,0,0,1-2.661-4.544ZM38.6,50.668A9.58,9.58,0,0,1,34.215,49.6,8.461,8.461,0,0,0,38.6,42.223V41.017H28.953V36.058A8.432,8.432,0,0,0,42.6,26.54h9.77l.767-.767a5.618,5.618,0,0,1,9.591,3.973,6.453,6.453,0,0,1-6.446,6.446H50.668V50.565c-.672.057-1.346.1-2.033.1Zm5.476,2.469-4.769,4.769h-.585A6.024,6.024,0,0,1,44.08,53.137Zm-10.3,7.182h5.532l2.059,2.059,1.706-1.706-1.56-1.56L46.4,54.226a3.912,3.912,0,1,1,5.532,5.531L45.2,66.5a3.639,3.639,0,0,1-2.559,1.06H33.778ZM38.6,72.382V69.969h4.033A5.994,5.994,0,0,0,46.9,68.2l6.179-6.178V72.382Z" transform="translate(0)"/>
        <path id="Trazado_995389" data-name="Trazado 995389" d="M46.391,25.9A2.683,2.683,0,0,1,48.8,24.413V22a5.081,5.081,0,0,0-4.571,2.825l-.127.255,2.158,1.08Z" transform="translate(9.102 4.54)"/>
        <path id="Trazado_995390" data-name="Trazado 995390" d="M29.619,22a3.619,3.619,0,1,0,3.619,3.619A3.624,3.624,0,0,0,29.619,22Zm0,4.825a1.206,1.206,0,1,1,1.206-1.206A1.208,1.208,0,0,1,29.619,26.825Z" transform="translate(5.366 4.54)"/>
        <path id="Trazado_995391" data-name="Trazado 995391" d="M2.413,38.857a3.619,3.619,0,0,1,1.86-3.139l.712-.4-.123-.934a2.62,2.62,0,0,1-.036-.352,3.619,3.619,0,0,1,6.333-2.393l1.81-1.6A6.032,6.032,0,0,0,2.413,34.032v.025a5.967,5.967,0,0,0-1.185,8.419A5.987,5.987,0,0,0,0,46.1,6.089,6.089,0,0,0,.189,47.6L2.527,47a3.629,3.629,0,0,1-.115-.906,3.565,3.565,0,0,1,1.252-2.711L4.7,42.476l-1.039-.908a3.568,3.568,0,0,1-1.251-2.711Z" transform="translate(0 5.778)"/>
      </g>
    </g>
  </g>
</svg>
