<svg xmlns="http://www.w3.org/2000/svg" width="107" height="107" viewBox="0 0 107 107">
  <g id="Grupo_1102242" data-name="Grupo 1102242" transform="translate(-475.332 -7345)">
    <g id="Grupo_156312" data-name="Grupo 156312" transform="translate(186.664 2896.563)">
      <path id="Elipse_5845" data-name="Elipse 5845" d="M53.5,0A53.5,53.5,0,1,1,0,53.5,53.5,53.5,0,0,1,53.5,0Z" transform="translate(288.668 4448.437)" fill="#cdbfdc"/>
    </g>
    <g id="Grupo_1178800" data-name="Grupo 1178800" transform="translate(464.402 7347.753)">
      <path id="Trazado_996305" data-name="Trazado 996305" d="M327.165,185.654a.29.29,0,0,1-.29.29H304v2.316h22.875a2.609,2.609,0,0,0,2.606-2.606V136.163h-2.316Z" transform="translate(-232.62 -102.766)" fill="#5a2c8c"/>
      <path id="Trazado_996306" data-name="Trazado 996306" d="M176.356,16h-45.75A2.609,2.609,0,0,0,128,18.606V39.165h2.316V18.606a.29.29,0,0,1,.29-.29h8.976v3.475h-5.791a1.158,1.158,0,0,0-1.158,1.158V39.165h2.316V24.108h4.633v.869a2.609,2.609,0,0,0,2.606,2.606h22.585a2.609,2.609,0,0,0,2.606-2.606v-.869h4.633V77.386H155.8V79.7h17.373a1.158,1.158,0,0,0,1.158-1.158v-55.6a1.158,1.158,0,0,0-1.158-1.158H167.38V18.316h8.976a.29.29,0,0,1,.29.29V31.057h2.316V18.606A2.609,2.609,0,0,0,176.356,16Zm-11.293,8.976a.29.29,0,0,1-.29.29H142.188a.29.29,0,0,1-.29-.29v-6.66h23.165Z" transform="translate(-82.101)" fill="#5a2c8c"/>
      <g id="Grupo_1178799" data-name="Grupo 1178799" transform="translate(32 41.481)">
        <path id="Trazado_996307" data-name="Trazado 996307" d="M82.424,336H77.791a1.158,1.158,0,0,0-1.158,1.158v3.475H73.158A1.158,1.158,0,0,0,72,341.791v4.633a1.158,1.158,0,0,0,1.158,1.158h3.475v3.475a1.158,1.158,0,0,0,1.158,1.158h4.633a1.158,1.158,0,0,0,1.158-1.158v-3.475h3.475a1.158,1.158,0,0,0,1.158-1.158v-4.633a1.158,1.158,0,0,0-1.158-1.158H83.582v-3.475A1.158,1.158,0,0,0,82.424,336Zm3.475,6.949v2.316H82.424a1.158,1.158,0,0,0-1.158,1.158V349.9H78.949v-3.475a1.158,1.158,0,0,0-1.158-1.158H74.316v-2.316h3.475a1.158,1.158,0,0,0,1.158-1.158v-3.475h2.316v3.475a1.158,1.158,0,0,0,1.158,1.158Z" transform="translate(-66.209 -315.152)" fill="#5a2c8c"/>
        <path id="Trazado_996308" data-name="Trazado 996308" d="M63.272,219.8a8.058,8.058,0,0,0-3.475.783V209.373a1.158,1.158,0,0,0-.339-.819l-1.977-1.977v-3.011a2.61,2.61,0,0,0,2.316-2.59v-6.37A2.609,2.609,0,0,0,57.192,192H34.606A2.609,2.609,0,0,0,32,194.606v6.37a2.61,2.61,0,0,0,2.316,2.59v3.011l-1.977,1.977a1.158,1.158,0,0,0-.339.819v5.791h2.316v-5.311l1.638-1.638H51.69V205.9H36.633v-2.316H55.165v3.475a1.158,1.158,0,0,0,.339.819l1.977,1.977v12.383A8.095,8.095,0,0,0,57.6,233.7h-23a.29.29,0,0,1-.29-.29V217.481H32v15.926a2.609,2.609,0,0,0,2.606,2.606H63.272a8.108,8.108,0,1,0,0-16.215ZM34.606,201.266a.29.29,0,0,1-.29-.29v-6.37a.29.29,0,0,1,.29-.29H57.192a.29.29,0,0,1,.29.29v6.37a.29.29,0,0,1-.29.29Zm22.875,26.639a5.779,5.779,0,0,1,1.952-4.332l5.673,9.826a5.792,5.792,0,0,1-7.625-5.493Zm9.63,4.333-5.673-9.826a5.79,5.79,0,0,1,5.673,9.826Z" transform="translate(-32 -192)" fill="#5a2c8c"/>
      </g>
      <path id="Trazado_996309" data-name="Trazado 996309" d="M264.215,120.108a8.108,8.108,0,1,0-8.108,8.108A8.108,8.108,0,0,0,264.215,120.108Zm-13.9,0a5.791,5.791,0,1,1,5.791,5.791A5.791,5.791,0,0,1,250.316,120.108Z" transform="translate(-184.728 -82.101)" fill="#5a2c8c"/>
      <path id="Trazado_996310" data-name="Trazado 996310" d="M284.633,150.949v-2.316h2.316v-2.316h-2.316V144h-2.316v2.316H280v2.316h2.316v2.316Z" transform="translate(-212.095 -109.468)" fill="#5a2c8c"/>
      <path id="Trazado_996311" data-name="Trazado 996311" d="M240,256h17.373v2.316H240Z" transform="translate(-177.886 -205.253)" fill="#5a2c8c"/>
      <path id="Trazado_996312" data-name="Trazado 996312" d="M376,256h5.791v2.316H376Z" transform="translate(-294.196 -205.253)" fill="#5a2c8c"/>
      <path id="Trazado_996313" data-name="Trazado 996313" d="M256,336h15.057v2.316H256Z" transform="translate(-191.57 -273.671)" fill="#5a2c8c"/>
      <path id="Trazado_996314" data-name="Trazado 996314" d="M376,336h5.791v2.316H376Z" transform="translate(-294.196 -273.671)" fill="#5a2c8c"/>
      <path id="Trazado_996315" data-name="Trazado 996315" d="M240,296h6.949v2.316H240Z" transform="translate(-177.886 -239.462)" fill="#5a2c8c"/>
      <path id="Trazado_996316" data-name="Trazado 996316" d="M304,296h16.215v2.316H304Z" transform="translate(-232.62 -239.462)" fill="#5a2c8c"/>
      <path id="Trazado_996317" data-name="Trazado 996317" d="M240,48h2.316v2.316H240Z" transform="translate(-177.886 -27.367)" fill="#5a2c8c"/>
      <path id="Trazado_996318" data-name="Trazado 996318" d="M352,48h2.316v2.316H352Z" transform="translate(-273.671 -27.367)" fill="#5a2c8c"/>
      <path id="Trazado_996319" data-name="Trazado 996319" d="M272,48h9.266v2.316H272Z" transform="translate(-205.253 -27.367)" fill="#5a2c8c"/>
      <path id="Trazado_996320" data-name="Trazado 996320" d="M304,376h16.215v2.316H304Z" transform="translate(-232.62 -307.88)" fill="#5a2c8c"/>
    </g>
  </g>
</svg>
