<svg xmlns="http://www.w3.org/2000/svg" width="61.899" height="61.899" viewBox="0 0 61.899 61.899">
  <g id="Grupo_1179105" data-name="Grupo 1179105" transform="translate(0 0)">
    <g id="Grupo_1072053" data-name="Grupo 1072053" transform="translate(0 0)">
      <ellipse id="Elipse_4742" data-name="Elipse 4742" cx="30.949" cy="30.949" rx="30.949" ry="30.949" transform="translate(0)" fill="#6cac25"/>
    </g>
    <g id="tracto-gastrointestinal" transform="translate(-94.498 4.974)">
      <path id="Trazado_997299" data-name="Trazado 997299" d="M288.774,45.117l-6.194-1.906A.814.814,0,0,1,282,42.43V39.978a2.37,2.37,0,0,1,.471-1.413l.308-.41a7.685,7.685,0,0,0,1.527-4.582,6.117,6.117,0,0,0-.678-2.8.719.719,0,1,0-1.278.66,4.609,4.609,0,0,1,.517,2.137,6.237,6.237,0,0,1-1.24,3.719l-.307.41a3.817,3.817,0,0,0-.759,2.276V42.43a2.245,2.245,0,0,0,1.593,2.157l6.194,1.906a3.108,3.108,0,0,1,2.205,2.986v26.37a.719.719,0,1,0,1.438,0V49.478A4.54,4.54,0,0,0,288.774,45.117Z" transform="translate(-152.198 -27.473)" fill="#12263f"/>
      <path id="Trazado_997300" data-name="Trazado 997300" d="M161.042,255.376a.719.719,0,0,0-.719.719v23.168a.719.719,0,1,0,1.438,0V256.1A.719.719,0,0,0,161.042,255.376Z" transform="translate(-43.486 -230.889)" fill="#12263f"/>
      <path id="Trazado_997301" data-name="Trazado 997301" d="M337.4,255.376a.719.719,0,0,0-.719.719v23.168a.719.719,0,1,0,1.438,0V256.1A.719.719,0,0,0,337.4,255.376Z" transform="translate(-202.93 -230.889)" fill="#12263f"/>
      <path id="Trazado_997302" data-name="Trazado 997302" d="M216.436,56.832v.341a.719.719,0,1,0,1.438,0v-.341a.719.719,0,0,0-1.438,0Z" transform="translate(-94.219 -50.733)" fill="#12263f"/>
      <path id="Trazado_997303" data-name="Trazado 997303" d="M204.2,435.178h-.769a1.588,1.588,0,0,1-1.587-1.587.719.719,0,0,0-1.438,0,3.028,3.028,0,0,0,3.025,3.025h.769a.819.819,0,0,1,.818.818v2.306a.719.719,0,1,0,1.438,0v-2.306A2.259,2.259,0,0,0,204.2,435.178Z" transform="translate(-79.724 -391.366)" fill="#12263f"/>
      <path id="Trazado_997304" data-name="Trazado 997304" d="M131.287,35.512a1.48,1.48,0,0,0-.714-.156v-1.3l.387.29a.719.719,0,0,0,1.151-.575V30.7a3.8,3.8,0,0,0-3.794-3.794H126.73V10.711a2.259,2.259,0,0,0-2.256-2.256h-4.612a.05.05,0,0,1-.04-.079l1.384-1.845a.719.719,0,0,0,.144-.431V4.562a3.128,3.128,0,0,1,3.124-3.124h1.537a4.652,4.652,0,0,1,2.4.665.719.719,0,0,0,.742-1.232A6.091,6.091,0,0,0,126.011,0h-1.537a4.568,4.568,0,0,0-4.562,4.562v1.3l-1.24,1.653a1.488,1.488,0,0,0,1.19,2.38h.049v.818a2.259,2.259,0,0,0,2.256,2.256h.049v1.989a.814.814,0,0,1-.578.782l-6.194,1.906A4.54,4.54,0,0,0,112.225,22v26.37a.719.719,0,1,0,1.438,0V22a3.108,3.108,0,0,1,2.205-2.986l6.194-1.906a2.245,2.245,0,0,0,1.593-2.157V12.249a.719.719,0,0,0-.719-.719h-.769a.819.819,0,0,1-.818-.818V9.893h3.124a.819.819,0,0,1,.818.818V26.9h-4.661a.719.719,0,0,0-.719.719,4.552,4.552,0,0,0,1.552,3.424,4.565,4.565,0,0,0,7.672,2.98v2.028a6.2,6.2,0,0,1-6.219.012,1.485,1.485,0,0,0-2.236,1.28v1.806a.719.719,0,1,0,1.438,0V37.345a.036.036,0,0,1,.02-.038.052.052,0,0,1,.057,0,7.624,7.624,0,0,0,3.816,1.023,7.719,7.719,0,0,0,1.587-.164v2.52a.05.05,0,0,1-.049.049h-2.306a.049.049,0,0,1-.049-.049.719.719,0,0,0-1.438,0,1.489,1.489,0,0,0,1.488,1.488h2.306a1.489,1.489,0,0,0,1.488-1.488V37.713A7.643,7.643,0,0,0,130.6,36.8a.032.032,0,0,1,.041,0,.043.043,0,0,1,.028.045v5.382a1.589,1.589,0,0,1-1.587,1.587.719.719,0,0,0,0,1.438,3.028,3.028,0,0,0,3.025-3.025V36.843A1.48,1.48,0,0,0,131.287,35.512Zm-2.97-7.171a2.358,2.358,0,0,1,2.355,2.355v1.636l-.9-.674a4.591,4.591,0,0,0-2.737-.912h-2.562a3.129,3.129,0,0,1-3.04-2.4h6.884Zm-2.306,5.48a3.127,3.127,0,0,1-2.841-1.827,4.546,4.546,0,0,0,1.3.191h2.562a3.144,3.144,0,0,1,1.482.376A3.1,3.1,0,0,1,126.011,33.82Z" transform="translate(0 0)" fill="#12263f"/>
    </g>
  </g>
</svg>
