<svg xmlns="http://www.w3.org/2000/svg" width="61.899" height="61.899" viewBox="0 0 61.899 61.899">
  <g id="Grupo_1179110" data-name="Grupo 1179110" transform="translate(-1185.38 -2407.468)">
    <g id="Grupo_1072168" data-name="Grupo 1072168" transform="translate(1185.381 2407.468)">
      <g id="Grupo_1072053" data-name="Grupo 1072053" transform="translate(0 0)">
        <ellipse id="Elipse_4742" data-name="Elipse 4742" cx="30.949" cy="30.949" rx="30.949" ry="30.949" transform="translate(0)" fill="#6cac25"/>
      </g>
    </g>
    <g id="Layer_23" data-name="Layer 23" transform="translate(1193 2414.158)">
      <path id="Trazado_997305" data-name="Trazado 997305" d="M53.8,25.719V21.063a23.74,23.74,0,0,0-.707-5.745A10.609,10.609,0,0,0,45.2,7.535L42.38,6.867a3.8,3.8,0,0,1-2.944-3.713V1H38V3.154a5.232,5.232,0,0,0,4.049,5.112l2.82.664A9.176,9.176,0,0,1,51.7,15.664a22.289,22.289,0,0,1,.653,5l-.79.658a7.726,7.726,0,0,0-2.788,5.953,3.15,3.15,0,0,0,.928,2.241,1.723,1.723,0,0,1,.508,1.226v1.054a.574.574,0,0,1-.321.519,2.011,2.011,0,0,0-1.115,1.8,3.509,3.509,0,0,0,3.506,3.506h1.489c.02.394.032.786.032,1.18a23.229,23.229,0,0,1-.232,3.267l-.479,3.351,1.422.2.478-3.351a24.528,24.528,0,0,0-.338-8.8,35.825,35.825,0,0,1-.852-7.76ZM52.277,36.186a2.072,2.072,0,0,1-2.07-2.07.574.574,0,0,1,.321-.519,2.011,2.011,0,0,0,1.115-1.8V30.739a3.15,3.15,0,0,0-.928-2.241,1.723,1.723,0,0,1-.508-1.226,6.29,6.29,0,0,1,2.155-4.74V25.72a37.226,37.226,0,0,0,.885,8.065,23.106,23.106,0,0,1,.4,2.4Z" transform="translate(-10.149 0)" fill="#12263f"/>
      <path id="Trazado_997306" data-name="Trazado 997306" d="M45.816,39.192a59.96,59.96,0,0,1,.329-11.385.718.718,0,0,0-1.257-.557L42.5,30.035a5.745,5.745,0,0,1-5.45,1.881l-2.964-.593L33.8,32.73l2.967.594a7.192,7.192,0,0,0,6.319-1.84l-.8,1.923a14.991,14.991,0,0,0-1.161,5.8v2.756c0,.042.005.085.005.128a2.988,2.988,0,0,0-2.877,2.979.6.6,0,0,1-.6.6,2.273,2.273,0,0,0-.374,4.515l5.282.88v1.785H44V50.813a14.7,14.7,0,0,0-.755-4.654,13.251,13.251,0,0,1-.681-4.2V39.208A13.588,13.588,0,0,1,43.61,33.96l.711-1.705a61.254,61.254,0,0,0,.063,7.032,39.762,39.762,0,0,0,1.951,9.924l1.293,3.868,1.364-.454L47.7,48.756a38.33,38.33,0,0,1-1.883-9.564Zm-9,8.751a.837.837,0,0,1,.837-.837,2.037,2.037,0,0,0,2.035-2.036,1.555,1.555,0,0,1,1.529-1.555,14.659,14.659,0,0,0,.662,3.1A13.27,13.27,0,0,1,42.5,49.6l-4.985-.832A.834.834,0,0,1,36.816,47.943Z" transform="translate(-8.965 -7.33)" fill="#12263f"/>
      <path id="Trazado_997307" data-name="Trazado 997307" d="M3.436,38.8a23.178,23.178,0,0,1,.55-5.013,37.238,37.238,0,0,0,.886-8.07V21.063a22.283,22.283,0,0,1,.49-4.6l.754.628a4.927,4.927,0,0,0,3.149,1.139,2.79,2.79,0,0,0,2.788-2.788,4.144,4.144,0,0,0-.434-1.842,2.69,2.69,0,0,1-.284-1.2.634.634,0,0,1,.633-.633,2.96,2.96,0,0,0,2.957-2.957v-.49l.26-.061a5.232,5.232,0,0,0,4.049-5.109V1H17.8V3.154a3.8,3.8,0,0,1-2.944,3.713l-2.82.664a10.609,10.609,0,0,0-7.89,7.784,23.74,23.74,0,0,0-.707,5.745v4.656a35.816,35.816,0,0,1-.851,7.757,24.528,24.528,0,0,0-.338,8.8l.478,3.351,1.422-.2-.479-3.351A23.229,23.229,0,0,1,3.436,38.8ZM12.366,8.929l1.124-.264v.149a1.522,1.522,0,0,1-1.521,1.521A2.072,2.072,0,0,0,9.9,12.4a4.144,4.144,0,0,0,.434,1.842,2.69,2.69,0,0,1,.284,1.2A1.353,1.353,0,0,1,9.266,16.8a3.49,3.49,0,0,1-2.23-.807L5.758,14.926a9.171,9.171,0,0,1,6.608-6Z" transform="translate(0 0)" fill="#12263f"/>
      <path id="Trazado_997308" data-name="Trazado 997308" d="M21.267,33.324l2.969-.594-.287-1.407-2.966.593a5.745,5.745,0,0,1-5.451-1.881l-2.386-2.784a.718.718,0,0,0-1.257.557,59.96,59.96,0,0,1,.329,11.385,38.33,38.33,0,0,1-1.878,9.566L9.047,52.626l1.364.454L11.7,49.213a39.762,39.762,0,0,0,1.951-9.924,61.257,61.257,0,0,0,.063-7.032l.711,1.705a13.588,13.588,0,0,1,1.047,5.246v2.756a13.256,13.256,0,0,1-.682,4.2,14.7,14.7,0,0,0-.754,4.649v2.038h1.436V50.813a13.285,13.285,0,0,1,.367-3.088,3.15,3.15,0,0,0,2.11.817,3.11,3.11,0,0,0,1-.163l2.76-.919a2.433,2.433,0,0,0,.581-4.333l-.5-.33a1.293,1.293,0,0,1,0-2.154,3.534,3.534,0,0,0,1.58-2.944,2.979,2.979,0,0,0-2.723-2.982L16.073,34.3c-.1-.3-.2-.6-.321-.89l-.8-1.923a7.192,7.192,0,0,0,6.316,1.836Zm-.745,2.82A1.551,1.551,0,0,1,21.939,37.7,2.1,2.1,0,0,1,21,39.452,2.729,2.729,0,0,0,21,44l.494.33a1,1,0,0,1-.238,1.775l-2.761.92a1.692,1.692,0,0,1-.543.088,1.716,1.716,0,0,1-1.615-1.129,14.694,14.694,0,0,0,.574-4.017V39.208a15.019,15.019,0,0,0-.41-3.429Z" transform="translate(-1.987 -7.33)" fill="#12263f"/>
      <path id="Trazado_997309" data-name="Trazado 997309" d="M34.95,13.077l3.246-.646-.284-1.411-3.59.718a.718.718,0,0,0-.5.383L33.1,13.557l1.285.642Z" transform="translate(-8.767 -2.825)" fill="#12263f"/>
      <path id="Trazado_997310" data-name="Trazado 997310" d="M23.8,12.426l3.246.646.561,1.122,1.285-.642-.718-1.436a.718.718,0,0,0-.5-.383l-3.59-.718Z" transform="translate(-6.146 -2.823)" fill="#12263f"/>
      <rect id="Rectángulo_455584" data-name="Rectángulo 455584" width="1.436" height="1.436" transform="translate(22.825 38.341)" fill="#12263f"/>
      <path id="Trazado_997311" data-name="Trazado 997311" d="M32.936,26.617h1.013a1.8,1.8,0,0,0,1.8-1.8.359.359,0,0,1,.359-.359,8.363,8.363,0,0,0,3.723-.879,2.994,2.994,0,0,0,1.663-2.691A2.9,2.9,0,0,0,38.6,18h-.322a2.757,2.757,0,0,0-2.3,1.23,2.071,2.071,0,0,1-1.728.924,3.538,3.538,0,0,0-1.57.371l-1.056.528a2.937,2.937,0,0,0,1.313,5.564Zm-.671-4.279,1.056-.529a2.082,2.082,0,0,1,.928-.215,3.5,3.5,0,0,0,2.922-1.564,1.325,1.325,0,0,1,1.1-.594H38.6a1.458,1.458,0,0,1,1.456,1.456,1.564,1.564,0,0,1-.87,1.407,6.917,6.917,0,0,1-3.08.727,1.8,1.8,0,0,0-1.8,1.8.359.359,0,0,1-.359.359H32.936a1.5,1.5,0,0,1-.671-2.843Z" transform="translate(-7.893 -4.793)" fill="#12263f"/>
      <path id="Trazado_997312" data-name="Trazado 997312" d="M21,23.154A2.154,2.154,0,1,0,23.154,21,2.154,2.154,0,0,0,21,23.154Zm2.872,0a.718.718,0,1,1-.718-.718A.718.718,0,0,1,23.872,23.154Z" transform="translate(-5.356 -5.638)" fill="#12263f"/>
      <path id="Trazado_997313" data-name="Trazado 997313" d="M52.309,20.154a2.154,2.154,0,1,0-2.154,2.154A2.154,2.154,0,0,0,52.309,20.154Zm-2.872,0a.718.718,0,1,1,.718.718A.718.718,0,0,1,49.436,20.154Z" transform="translate(-12.968 -4.793)" fill="#12263f"/>
      <path id="Trazado_997314" data-name="Trazado 997314" d="M38.309,40.154a2.154,2.154,0,1,0-2.154,2.154A2.154,2.154,0,0,0,38.309,40.154Zm-2.872,0a.718.718,0,1,1,.718.718A.718.718,0,0,1,35.436,40.154Z" transform="translate(-9.021 -10.431)" fill="#12263f"/>
      <path id="Trazado_997315" data-name="Trazado 997315" d="M10.309,46.154a2.154,2.154,0,1,0-2.154,2.154A2.154,2.154,0,0,0,10.309,46.154Zm-2.154.718a.718.718,0,1,1,.718-.718A.718.718,0,0,1,8.154,46.872Z" transform="translate(-1.128 -12.122)" fill="#12263f"/>
    </g>
  </g>
</svg>
