<svg xmlns="http://www.w3.org/2000/svg" width="116" height="116" viewBox="0 0 116 116">
  <g id="Grupo_1177303" data-name="Grupo 1177303" transform="translate(-323.059 -6682)">
    <circle id="Elipse_11507" data-name="Elipse 11507" cx="58" cy="58" r="58" transform="translate(323.059 6682)" fill="#2c2e8c"/>
    <circle id="Elipse_13623" data-name="Elipse 13623" cx="44.5" cy="44.5" r="44.5" transform="translate(337.059 6696)" fill="#fff"/>
    <g id="cloro" transform="translate(263.385 6705.395)">
      <g id="Grupo_1178953" data-name="Grupo 1178953" transform="translate(96.052)">
        <path id="Trazado_996445" data-name="Trazado 996445" d="M136.368,9.8V8.016a2.4,2.4,0,0,0-1.513-2.224v-3.4A2.4,2.4,0,0,0,132.46,0H121.708a2.4,2.4,0,0,0-2.394,2.394v3.4A2.4,2.4,0,0,0,117.8,8.016V9.8H106.04a10,10,0,0,0-9.988,9.988V52.1a1.014,1.014,0,0,0,2.028,0V19.788a7.969,7.969,0,0,1,7.96-7.96H125.65a1.014,1.014,0,1,0,0-2.028h-5.822V8.016a.367.367,0,0,1,.366-.366c.022,0,.044,0,.066,0s.044,0,.066,0h13.513c.022,0,.044,0,.066,0s.044,0,.066,0a.367.367,0,0,1,.368.366V9.8h-4.185a1.014,1.014,0,0,0,0,2.028h6.056a1.058,1.058,0,0,1,1.057,1.057V66.127a1.058,1.058,0,0,1-1.057,1.057h-6.42V58.077a1.014,1.014,0,1,0-2.028,0v9.107h-20.18V43.053a.338.338,0,0,1,.338-.338h19.5a.338.338,0,0,1,.338.338V53.572a1.014,1.014,0,1,0,2.028,0V43.053a2.368,2.368,0,0,0-2.366-2.366h-19.5a2.368,2.368,0,0,0-2.366,2.366V67.184h-6.42a1.058,1.058,0,0,1-1.057-1.057v-9.52a1.014,1.014,0,0,0-2.028,0v9.52a3.088,3.088,0,0,0,3.085,3.085h37.074a3.088,3.088,0,0,0,3.085-3.085V12.885A3.089,3.089,0,0,0,136.368,9.8Zm-3.541-4.182H121.341V2.394a.367.367,0,0,1,.367-.367H132.46a.367.367,0,0,1,.367.367V5.622Z" transform="translate(-96.052)" fill="#2c2e8c"/>
        <path id="Trazado_996446" data-name="Trazado 996446" d="M213.288,341.535a3.358,3.358,0,0,1,1.939.612,1.014,1.014,0,1,0,1.165-1.66,5.409,5.409,0,1,0,0,8.857,1.014,1.014,0,1,0-1.165-1.66,3.381,3.381,0,1,1-1.939-6.15Z" transform="translate(-192.762 -293.612)" fill="#2c2e8c"/>
        <path id="Trazado_996447" data-name="Trazado 996447" d="M284.767,341.665a1.014,1.014,0,0,0-2.028,0v8.48a1.014,1.014,0,1,0,2.028,0Z" transform="translate(-257.503 -294.602)" fill="#2c2e8c"/>
        <path id="Trazado_996448" data-name="Trazado 996448" d="M260.659,437.358h-3.61a1.014,1.014,0,1,0,0,2.028h3.61a1.014,1.014,0,1,0,0-2.028Z" transform="translate(-234.408 -378.236)" fill="#2c2e8c"/>
        <path id="Trazado_996449" data-name="Trazado 996449" d="M208.893,464.031h10.12a1.014,1.014,0,1,0,0-2.028h-10.12a1.014,1.014,0,0,0,0,2.028Z" transform="translate(-192.762 -399.549)" fill="#2c2e8c"/>
        <path id="Trazado_996450" data-name="Trazado 996450" d="M310.063,110.272a1.014,1.014,0,1,0,0-2.028h-7.349a1.014,1.014,0,0,0,0,2.028Z" transform="translate(-273.901 -93.612)" fill="#2c2e8c"/>
        <path id="Trazado_996451" data-name="Trazado 996451" d="M133.824,136.6v-7.457h6.307a5.161,5.161,0,0,0,5.156-5.156V110.272h2.064a1.014,1.014,0,1,0,0-2.028h-10.4A5.161,5.161,0,0,0,131.8,113.4v23.2a1.014,1.014,0,0,0,2.028,0Zm0-23.2a3.131,3.131,0,0,1,3.128-3.128h6.307v13.716a3.132,3.132,0,0,1-3.128,3.128h-6.307V113.4Z" transform="translate(-126.964 -93.612)" fill="#2c2e8c"/>
      </g>
    </g>
  </g>
</svg>
