<svg xmlns="http://www.w3.org/2000/svg" width="154" height="154" viewBox="0 0 154 154">
  <g id="Grupo_1179420" data-name="Grupo 1179420" transform="translate(-150.942 -6987.191)">
    <g id="Grupo_1179419" data-name="Grupo 1179419">
      <g id="Grupo_1177912" data-name="Grupo 1177912" transform="translate(-159.117 -383.809)">
        <circle id="Elipse_13624" data-name="Elipse 13624" cx="77" cy="77" r="77" transform="translate(310.059 7371)" fill="#fff"/>
      </g>
    </g>
    <g id="Grupo_1178857" data-name="Grupo 1178857" transform="translate(186 7018.682)">
      <g id="Grupo_1178844" data-name="Grupo 1178844" transform="translate(1.895 9.744)">
        <path id="Trazado_996342" data-name="Trazado 996342" d="M89.1,51.294v55.185L82.635,95.274a4.529,4.529,0,0,0-7.845,0l-12.3,21.311H10V51.294H22.3v3.561a4.339,4.339,0,1,0,8.678,0V51.294H45.006v3.561a4.34,4.34,0,1,0,8.68,0V51.294H67.717v3.561a4.339,4.339,0,1,0,8.678,0V51.294Z" transform="translate(-10 -51.294)" fill="#f9f6f4"/>
      </g>
      <g id="Grupo_1178845" data-name="Grupo 1178845" transform="translate(12.396 35.89)">
        <path id="Trazado_996343" data-name="Trazado 996343" d="M65.4,189.232h8.364V197.6H65.4Z" transform="translate(-65.401 -189.232)" fill="#a0c8ff"/>
      </g>
      <g id="Grupo_1178846" data-name="Grupo 1178846" transform="translate(12.396 54.429)">
        <path id="Trazado_996344" data-name="Trazado 996344" d="M65.4,287.046h8.364v8.364H65.4Z" transform="translate(-65.401 -287.046)" fill="#a0c8ff"/>
      </g>
      <g id="Grupo_1178847" data-name="Grupo 1178847" transform="translate(28.858 35.89)">
        <path id="Trazado_996345" data-name="Trazado 996345" d="M152.252,189.232h8.364V197.6h-8.364Z" transform="translate(-152.252 -189.232)" fill="#a0c8ff"/>
      </g>
      <g id="Grupo_1178848" data-name="Grupo 1178848" transform="translate(45.32 35.89)">
        <path id="Trazado_996346" data-name="Trazado 996346" d="M239.1,189.232h8.364V197.6H239.1Z" transform="translate(-239.102 -189.232)" fill="#a0c8ff"/>
      </g>
      <g id="Grupo_1178849" data-name="Grupo 1178849" transform="translate(45.32 54.429)">
        <path id="Trazado_996347" data-name="Trazado 996347" d="M239.1,287.046h8.364v8.364H239.1Z" transform="translate(-239.102 -287.046)" fill="#a0c8ff"/>
      </g>
      <g id="Grupo_1178850" data-name="Grupo 1178850" transform="translate(61.782 35.89)">
        <path id="Trazado_996348" data-name="Trazado 996348" d="M325.953,189.232h8.364V197.6h-8.364Z" transform="translate(-325.953 -189.232)" fill="#a0c8ff"/>
      </g>
      <g id="Grupo_1178851" data-name="Grupo 1178851" transform="translate(14.192 1.922)">
        <path id="Trazado_996349" data-name="Trazado 996349" d="M79.212,25.75a4.345,4.345,0,0,1-4.339-4.339V14.366a4.339,4.339,0,1,1,8.679,0v7.044A4.339,4.339,0,0,1,79.212,25.75Z" transform="translate(-74.873 -10.027)" fill="#e2e7ef"/>
      </g>
      <g id="Grupo_1178852" data-name="Grupo 1178852" transform="translate(36.902 1.922)">
        <path id="Trazado_996350" data-name="Trazado 996350" d="M199.03,25.75a4.339,4.339,0,0,1-4.339-4.339V14.366a4.339,4.339,0,1,1,8.679,0v7.044A4.339,4.339,0,0,1,199.03,25.75Z" transform="translate(-194.691 -10.027)" fill="#e2e7ef"/>
      </g>
      <g id="Grupo_1178853" data-name="Grupo 1178853" transform="translate(59.613 1.922)">
        <path id="Trazado_996351" data-name="Trazado 996351" d="M318.847,25.75a4.345,4.345,0,0,1-4.339-4.339V14.366a4.339,4.339,0,0,1,8.679,0v7.044A4.339,4.339,0,0,1,318.847,25.75Z" transform="translate(-314.508 -10.027)" fill="#e2e7ef"/>
      </g>
      <g id="Grupo_1178854" data-name="Grupo 1178854" transform="translate(46.066 51.461)">
        <path id="Trazado_996352" data-name="Trazado 996352" d="M287.588,315.094a4.529,4.529,0,0,0,3.922-6.793L271.5,273.648a4.529,4.529,0,0,0-7.844,0L243.652,308.3a4.529,4.529,0,0,0,3.922,6.793h40.014Z" transform="translate(-243.038 -271.384)" fill="#ffce69"/>
      </g>
      <g id="Grupo_1178855" data-name="Grupo 1178855" transform="translate(1.895 9.744)">
        <path id="Trazado_996353" data-name="Trazado 996353" d="M34.972,67.264H89.1V51.294H76.4v3.561a4.339,4.339,0,1,1-8.678,0V51.294H53.687v3.561a4.34,4.34,0,1,1-8.68,0V51.294H30.975v3.561a4.339,4.339,0,1,1-8.678,0V51.294H10v15.97H34.972Z" transform="translate(-10 -51.294)" fill="#ff7b7b"/>
      </g>
      <g id="Grupo_1178856" data-name="Grupo 1178856" transform="translate(0 0.027)">
        <path id="Trazado_996354" data-name="Trazado 996354" d="M65.661,179.232H57.3a1.9,1.9,0,0,0-1.9,1.9v8.364a1.9,1.9,0,0,0,1.9,1.9h8.364a1.9,1.9,0,0,0,1.9-1.9v-8.364A1.9,1.9,0,0,0,65.661,179.232Zm-1.9,8.365H59.192v-4.573h4.573Z" transform="translate(-44.9 -145.265)"/>
        <path id="Trazado_996355" data-name="Trazado 996355" d="M65.661,277.046H57.3a1.9,1.9,0,0,0-1.9,1.9v8.364a1.9,1.9,0,0,0,1.9,1.9h8.364a1.9,1.9,0,0,0,1.9-1.9v-8.364A1.9,1.9,0,0,0,65.661,277.046Zm-1.9,8.364H59.192v-4.573h4.573Z" transform="translate(-44.9 -224.539)"/>
        <path id="Trazado_996356" data-name="Trazado 996356" d="M152.512,191.388a1.9,1.9,0,0,0,1.9-1.9v-8.364a1.9,1.9,0,0,0-1.9-1.9h-8.364a1.9,1.9,0,0,0-1.9,1.9v8.364a1.9,1.9,0,0,0,1.9,1.9Zm-6.469-8.365h4.573V187.6h-4.573Z" transform="translate(-115.289 -145.266)"/>
        <path id="Trazado_996357" data-name="Trazado 996357" d="M231,191.388h8.364a1.9,1.9,0,0,0,1.9-1.9v-8.364a1.9,1.9,0,0,0-1.9-1.9H231a1.9,1.9,0,0,0-1.9,1.9v8.364a1.9,1.9,0,0,0,1.9,1.9Zm1.9-8.365h4.573V187.6h-4.573Z" transform="translate(-185.677 -145.266)"/>
        <path id="Trazado_996358" data-name="Trazado 996358" d="M241.257,287.306v-8.364a1.9,1.9,0,0,0-1.9-1.9H231a1.9,1.9,0,0,0-1.9,1.9v8.364a1.9,1.9,0,0,0,1.9,1.9h8.364A1.9,1.9,0,0,0,241.257,287.306Zm-3.791-1.9h-4.573v-4.573h4.573Z" transform="translate(-185.677 -224.539)"/>
        <path id="Trazado_996359" data-name="Trazado 996359" d="M317.848,191.388h8.364a1.9,1.9,0,0,0,1.9-1.9v-8.364a1.9,1.9,0,0,0-1.9-1.9h-8.364a1.9,1.9,0,0,0-1.9,1.9v8.364A1.9,1.9,0,0,0,317.848,191.388Zm1.9-8.365h4.573V187.6h-4.573Z" transform="translate(-256.066 -145.266)"/>
        <path id="Trazado_996360" data-name="Trazado 996360" d="M96.178,87.43l-.234-.4a1.9,1.9,0,1,0-3.283,1.9l.233.4a2.656,2.656,0,0,1-2.28,3.95H50.6a2.656,2.656,0,0,1-2.28-3.95L68.328,54.673a2.633,2.633,0,0,1,4.561,0L84.346,74.518a1.9,1.9,0,1,0,3.283-1.9l-4.735-8.2V9.744a1.9,1.9,0,0,0-1.9-1.9H70.187V6.262a6.235,6.235,0,0,0-12.47,0V7.849H47.476V6.262a6.235,6.235,0,1,0-12.469,0V7.849H24.766V6.262a6.235,6.235,0,0,0-12.47,0V7.849H1.9A1.9,1.9,0,0,0,0,9.744V75.035a1.9,1.9,0,0,0,1.9,1.9H51.1l-6.062,10.5A6.479,6.479,0,0,0,50.6,97.066H90.615a6.424,6.424,0,0,0,5.563-9.636ZM61.508,6.262a2.444,2.444,0,0,1,4.888,0v7.044a2.444,2.444,0,1,1-4.888,0Zm-22.711,0a2.444,2.444,0,1,1,4.888,0v7.045a2.444,2.444,0,1,1-4.888,0ZM18.531,3.818a2.447,2.447,0,0,1,2.444,2.444v7.045a2.444,2.444,0,1,1-4.888,0V9.744s0-3.482,0-3.482a2.447,2.447,0,0,1,2.444-2.444ZM3.791,27.61H9.582a1.9,1.9,0,1,0,0-3.791H3.791V11.64H12.3v1.666a6.235,6.235,0,1,0,12.47,0V11.64h10.24v1.666a6.236,6.236,0,0,0,12.471,0V11.64h10.24v1.666A6.3,6.3,0,0,0,61.641,19.1a6.23,6.23,0,0,0,2.312.444,6.3,6.3,0,0,0,6.234-6.235V11.64H79.1V23.819H26.867a1.9,1.9,0,0,0,0,3.791H79.1V57.855l-2.932-5.078a6.36,6.36,0,0,0-5.563-3.212h0a6.36,6.36,0,0,0-5.564,3.212L53.288,73.14H3.791Z" transform="translate(0 -0.027)"/>
        <path id="Trazado_996361" data-name="Trazado 996361" d="M155.4,282.646l-4.79,5.244-1.691-1.721a1.9,1.9,0,1,0-2.7,2.657l3.093,3.147a1.9,1.9,0,0,0,1.352.567h.035a1.9,1.9,0,0,0,1.365-.617L158.2,285.2a1.9,1.9,0,0,0-2.8-2.557Z" transform="translate(-118.063 -228.578)"/>
        <path id="Trazado_996362" data-name="Trazado 996362" d="M87.382,129.375a1.895,1.895,0,1,0-1.85-1.485A1.915,1.915,0,0,0,87.382,129.375Z" transform="translate(-69.283 -101.793)"/>
        <path id="Trazado_996363" data-name="Trazado 996363" d="M367.311,335.416a1.9,1.9,0,1,0-3.791,0v15.072a1.9,1.9,0,1,0,3.791,0Z" transform="translate(-294.617 -270.31)"/>
        <path id="Trazado_996364" data-name="Trazado 996364" d="M367.023,448.4a1.895,1.895,0,1,0-.523,2.627A1.91,1.91,0,0,0,367.023,448.4Z" transform="translate(-294.65 -362.735)"/>
        <path id="Trazado_996365" data-name="Trazado 996365" d="M470.878,419.375a1.895,1.895,0,1,0-.523,2.627A1.91,1.91,0,0,0,470.878,419.375Z" transform="translate(-378.82 -339.212)"/>
      </g>
    </g>
  </g>
</svg>
