<svg xmlns="http://www.w3.org/2000/svg" width="107" height="107" viewBox="0 0 107 107">
  <g id="Grupo_1179079" data-name="Grupo 1179079" transform="translate(-340.5 -8693)">
    <g id="Grupo_156312" data-name="Grupo 156312" transform="translate(51.832 4244.563)">
      <path id="Elipse_5845" data-name="Elipse 5845" d="M53.5,0A53.5,53.5,0,1,1,0,53.5,53.5,53.5,0,0,1,53.5,0Z" transform="translate(288.668 4448.437)" fill="#241138"/>
    </g>
    <g id="Grupo_1179083" data-name="Grupo 1179083" transform="translate(0 -0.588)">
      <rect id="Rectángulo_455565" data-name="Rectángulo 455565" width="67" height="75" transform="translate(360.008 8709.484)" fill="none"/>
      <g id="Layer_22" data-name="Layer 22" transform="translate(349.862 8706.846)">
        <path id="Trazado_997182" data-name="Trazado 997182" d="M70.338,8H12.3A4.3,4.3,0,0,0,8,12.3V70.338a4.3,4.3,0,0,0,4.3,4.3h8.6a1.075,1.075,0,1,0,0-2.15H12.3a2.152,2.152,0,0,1-2.15-2.15V12.3a2.152,2.152,0,0,1,2.15-2.15H70.338a2.152,2.152,0,0,1,2.15,2.15V70.338a2.152,2.152,0,0,1-2.15,2.15H25.2a1.075,1.075,0,1,0,0,2.15H70.338a4.3,4.3,0,0,0,4.3-4.3V12.3A4.3,4.3,0,0,0,70.338,8Z" fill="#fff"/>
        <path id="Trazado_997183" data-name="Trazado 997183" d="M96.72,72a24.72,24.72,0,1,0,24.72,24.72A24.748,24.748,0,0,0,96.72,72Zm15.164,8.051L102.4,89.54l.717-2.152a1.075,1.075,0,0,0-2.039-.68l-1.425,4.275a6.391,6.391,0,0,0-5.858,0l-2.763-8.289a3.224,3.224,0,0,1,3.06-4.244h5.267a3.226,3.226,0,0,1,3.124,4.025,1.075,1.075,0,1,0,2.081.54,5.375,5.375,0,0,0-5.2-6.714H94.087a5.374,5.374,0,0,0-5.1,7.073l2.056,6.167-9.488-9.488a22.433,22.433,0,0,1,30.329,0ZM101.02,96.72a4.3,4.3,0,1,1-4.3-4.3A4.3,4.3,0,0,1,101.02,96.72ZM90.983,99.65l-8.289,2.764a3.224,3.224,0,0,1-4.244-3.06V94.087a3.224,3.224,0,0,1,4.244-3.06l8.289,2.764a6.391,6.391,0,0,0,0,5.859Zm5.738,3.519a6.4,6.4,0,0,0,2.929-.711l2.763,8.289a3.224,3.224,0,0,1-3.059,4.244H94.087a3.224,3.224,0,0,1-3.059-4.244l2.763-8.289A6.4,6.4,0,0,0,96.72,103.169Zm5.738-9.378,8.289-2.763a3.225,3.225,0,0,1,4.245,3.06v5.267a3.225,3.225,0,0,1-4.244,3.06l-8.289-2.763a6.39,6.39,0,0,0,0-5.859ZM74.15,96.72a22.456,22.456,0,0,1,5.9-15.164l9.489,9.489-6.167-2.056a5.373,5.373,0,0,0-7.074,5.1v5.267a5.358,5.358,0,0,0,7.074,5.1L89.54,102.4l-9.489,9.489A22.456,22.456,0,0,1,74.15,96.72Zm7.406,16.669,9.488-9.488-2.056,6.167a5.374,5.374,0,0,0,5.1,7.074h5.267a5.374,5.374,0,0,0,5.1-7.073L102.4,103.9l9.488,9.488a22.433,22.433,0,0,1-30.329,0Zm31.833-1.5L103.9,102.4l6.167,2.056a5.359,5.359,0,0,0,7.074-5.1V94.087a5.373,5.373,0,0,0-7.074-5.1L103.9,91.045l9.489-9.489a22.432,22.432,0,0,1,0,30.329Z" transform="translate(-55.402 -55.402)" fill="#fff"/>
        <path id="Trazado_997184" data-name="Trazado 997184" d="M69.02,98.039a29.13,29.13,0,0,0,25.13-14.5,1.075,1.075,0,1,0-1.86-1.077,26.73,26.73,0,1,1,1.895-4,1.075,1.075,0,1,0,2.012.756A29.024,29.024,0,1,0,69.02,98.039Z" transform="translate(-27.701 -27.701)" fill="#fff"/>
        <path id="Trazado_997185" data-name="Trazado 997185" d="M46.449,43.224a3.224,3.224,0,1,0-3.224,3.224A3.224,3.224,0,0,0,46.449,43.224Zm-4.3,0A1.075,1.075,0,1,1,43.224,44.3,1.075,1.075,0,0,1,42.15,43.224Z" transform="translate(-27.701 -27.701)" fill="#fff"/>
        <path id="Trazado_997186" data-name="Trazado 997186" d="M430.449,43.224a3.224,3.224,0,1,0-3.224,3.224A3.224,3.224,0,0,0,430.449,43.224Zm-4.3,0a1.075,1.075,0,1,1,1.075,1.075,1.075,1.075,0,0,1-1.075-1.075Z" transform="translate(-360.11 -27.701)" fill="#fff"/>
        <path id="Trazado_997187" data-name="Trazado 997187" d="M40,427.224A3.224,3.224,0,1,0,43.224,424,3.224,3.224,0,0,0,40,427.224Zm4.3,0a1.075,1.075,0,1,1-1.075-1.075A1.075,1.075,0,0,1,44.3,427.224Z" transform="translate(-27.701 -360.11)" fill="#fff"/>
        <path id="Trazado_997188" data-name="Trazado 997188" d="M424,427.224A3.224,3.224,0,1,0,427.224,424,3.224,3.224,0,0,0,424,427.224Zm4.3,0a1.075,1.075,0,1,1-1.075-1.075A1.075,1.075,0,0,1,428.3,427.224Z" transform="translate(-360.11 -360.11)" fill="#fff"/>
      </g>
    </g>
  </g>
</svg>
