<svg xmlns="http://www.w3.org/2000/svg" width="116" height="116" viewBox="0 0 116 116">
  <g id="Grupo_1177304" data-name="Grupo 1177304" transform="translate(-323.059 -6682)">
    <circle id="Elipse_11507" data-name="Elipse 11507" cx="58" cy="58" r="58" transform="translate(323.059 6682)" fill="#2c2e8c"/>
    <circle id="Elipse_13623" data-name="Elipse 13623" cx="44.5" cy="44.5" r="44.5" transform="translate(337.059 6696)" fill="#fff"/>
    <g id="Page-1" transform="translate(355.171 6707.734)">
      <g id="_036---Radioactive-Chemicals" data-name="036---Radioactive-Chemicals" transform="translate(0.01 0)">
        <g id="Outline">
          <path id="Shape" d="M36.148,17.779a1.076,1.076,0,0,1-.656-.99V8.454A4.3,4.3,0,0,0,34.417,0H19.359a4.3,4.3,0,0,0-1.076,8.454v8.335a1.076,1.076,0,0,1-.656.99A26.889,26.889,0,0,0,9.851,63.812a3.227,3.227,0,0,0,2.044.721H41.881a3.227,3.227,0,0,0,2.044-.721,26.889,26.889,0,0,0-7.776-46.033ZM17.208,4.3a2.151,2.151,0,0,1,2.151-2.151H34.417a2.151,2.151,0,1,1,0,4.3H19.359A2.151,2.151,0,0,1,17.208,4.3ZM42.559,62.156a1.076,1.076,0,0,1-.678.226H11.895a1.076,1.076,0,0,1-.678-.226A24.738,24.738,0,0,1,18.37,19.79a3.227,3.227,0,0,0,2.065-3V8.6H33.341v8.185a3.227,3.227,0,0,0,2.065,3,24.738,24.738,0,0,1,7.152,42.366Z" transform="translate(-0.01 0)" fill="#2c2e8c"/>
          <path id="Shape-2" data-name="Shape" d="M41.795,32.755a16.133,16.133,0,0,0-30.5.237,20.145,20.145,0,0,0-5-.129,1.076,1.076,0,0,0-.9.688A22.221,22.221,0,0,0,4,41.36,22.586,22.586,0,0,0,11.658,58.3a1.076,1.076,0,0,0,.71.269H40.805a1.076,1.076,0,0,0,.71-.269,22.522,22.522,0,0,0,6.356-24.469,1.076,1.076,0,0,0-.817-.688,22.748,22.748,0,0,0-5.259-.387Zm-15.208-8.6A13.982,13.982,0,1,1,12.6,38.133,13.982,13.982,0,0,1,26.586,24.151ZM47.022,41.36A20.435,20.435,0,0,1,40.4,56.417H12.776A20.435,20.435,0,0,1,6.151,41.36a20.005,20.005,0,0,1,1.076-6.378,18.188,18.188,0,0,1,3.56.14,16.338,16.338,0,0,0-.333,3.012,16.133,16.133,0,0,0,32.266,0,15.907,15.907,0,0,0-.323-3.227,19.725,19.725,0,0,1,3.646.237A19.865,19.865,0,0,1,47.022,41.36Z" transform="translate(0.292 1.662)" fill="#2c2e8c"/>
          <path id="Shape-3" data-name="Shape" d="M15.076,38.806h6.6a4.3,4.3,0,0,0,1.14,1.99l-3.3,5.711a1.076,1.076,0,0,0,.4,1.473,11.831,11.831,0,0,0,11.831,0,1.076,1.076,0,0,0,.4-1.473l-3.3-5.711a4.3,4.3,0,0,0,1.14-1.99h6.6a1.076,1.076,0,0,0,1.076-1.076,11.9,11.9,0,0,0-5.915-10.25,1.076,1.076,0,0,0-.817-.108,1.14,1.14,0,0,0-.656.506l-3.3,5.722a3.861,3.861,0,0,0-2.28,0l-3.3-5.722a1.14,1.14,0,0,0-.656-.506,1.076,1.076,0,0,0-.817.108A11.9,11.9,0,0,0,14,37.73a1.076,1.076,0,0,0,1.076,1.076Zm14.638,7.8a9.841,9.841,0,0,1-7.765,0l2.743-4.743a3.861,3.861,0,0,0,2.28,0Zm1.861-16.671a9.755,9.755,0,0,1,3.872,6.722H29.983a4.3,4.3,0,0,0-1.14-1.99Zm-3.592,7.8a2.151,2.151,0,1,1-2.151-2.151A2.151,2.151,0,0,1,27.982,37.73Zm-7.894-7.8,2.732,4.732a4.3,4.3,0,0,0-1.14,1.99H16.216a9.755,9.755,0,0,1,3.872-6.722Z" transform="translate(1.047 2.065)" fill="#2c2e8c"/>
        </g>
      </g>
    </g>
  </g>
</svg>
