<svg xmlns="http://www.w3.org/2000/svg" width="116" height="116" viewBox="0 0 116 116">
  <g id="Grupo_1177305" data-name="Grupo 1177305" transform="translate(-323.059 -6682)">
    <circle id="Elipse_11507" data-name="Elipse 11507" cx="58" cy="58" r="58" transform="translate(323.059 6682)" fill="#2c2e8c"/>
    <circle id="Elipse_13623" data-name="Elipse 13623" cx="44.5" cy="44.5" r="44.5" transform="translate(337.059 6696)" fill="#fff"/>
    <g id="blanqueador" transform="translate(327.656 6706.691)">
      <path id="Trazado_996423" data-name="Trazado 996423" d="M131.482,339.548h-20.5a1.588,1.588,0,0,1-1.588-1.588v-9.848a1.588,1.588,0,0,1,1.588-1.588h20.5a1.588,1.588,0,0,1,1.588,1.588v9.848A1.588,1.588,0,0,1,131.482,339.548Z" transform="translate(-71.925 -286.59)" fill="#f9f6f6"/>
      <g id="Grupo_1178947" data-name="Grupo 1178947" transform="translate(27.452 0)">
        <path id="Trazado_996427" data-name="Trazado 996427" d="M98.878,114.4a3.725,3.725,0,0,0-2.768.753l-5.68,4.392a3.748,3.748,0,0,0,4.585,5.93l5.68-4.392a3.748,3.748,0,0,0-1.817-6.682Zm.695,5.231-5.68,4.392A1.913,1.913,0,1,1,91.552,121l5.68-4.392a1.9,1.9,0,0,1,1.166-.4,1.954,1.954,0,0,1,.247.016,1.913,1.913,0,0,1,.927,3.411Z" transform="translate(-81.449 -100.383)" fill="#2c2e8c"/>
        <path id="Trazado_996428" data-name="Trazado 996428" d="M101.9,321.529v9.848a2.508,2.508,0,0,0,2.5,2.5h20.5a2.508,2.508,0,0,0,2.5-2.5v-9.848a2.508,2.508,0,0,0-2.5-2.5H104.4A2.508,2.508,0,0,0,101.9,321.529Zm23.671,0v9.848a.671.671,0,0,1-.67.67H104.4a.671.671,0,0,1-.67-.67v-9.848a.671.671,0,0,1,.67-.67h20.5A.671.671,0,0,1,125.569,321.529Z" transform="translate(-92.793 -280.008)" fill="#2c2e8c"/>
        <path id="Trazado_996429" data-name="Trazado 996429" d="M149.569,31.857a.917.917,0,0,0,.917.917H167.9a.917.917,0,0,0,0-1.834H150.486A.917.917,0,0,0,149.569,31.857Z" transform="translate(-134.634 -27.156)" fill="#2c2e8c"/>
        <path id="Trazado_996430" data-name="Trazado 996430" d="M166.442,354.264h8.108a.917.917,0,1,0,0-1.835h-8.108a.917.917,0,1,0,0,1.835Z" transform="translate(-148.639 -309.328)" fill="#2c2e8c"/>
        <path id="Trazado_996431" data-name="Trazado 996431" d="M166.442,394.04h8.108a.917.917,0,1,0,0-1.835h-8.108a.917.917,0,1,0,0,1.835Z" transform="translate(-148.639 -344.239)" fill="#2c2e8c"/>
        <path id="Trazado_996432" data-name="Trazado 996432" d="M260.254,198.206a.917.917,0,0,0,0-1.835h-9.219a.917.917,0,0,0,0,1.835Z" transform="translate(-222.885 -172.356)" fill="#2c2e8c"/>
        <path id="Trazado_996433" data-name="Trazado 996433" d="M230.117,230.868a.917.917,0,0,0,.917.917H242.7a.917.917,0,1,0,0-1.834H231.034A.917.917,0,0,0,230.117,230.868Z" transform="translate(-205.331 -201.828)" fill="#2c2e8c"/>
        <path id="Trazado_996434" data-name="Trazado 996434" d="M200.117,264.448a.917.917,0,0,0,.917.917h15.334a.917.917,0,1,0,0-1.835H201.034A.917.917,0,0,0,200.117,264.448Z" transform="translate(-179 -231.301)" fill="#2c2e8c"/>
        <path id="Trazado_996435" data-name="Trazado 996435" d="M377.242,371.091l-4.2,4.2-1.156-1.156a.917.917,0,0,0-1.3,1.3l1.8,1.8a.917.917,0,0,0,1.3,0l4.853-4.853a.917.917,0,1,0-1.3-1.3Z" transform="translate(-328.384 -325.471)" fill="#2c2e8c"/>
        <path id="Trazado_996436" data-name="Trazado 996436" d="M82.838,54.147a6.861,6.861,0,0,1-.629-1.582,2.153,2.153,0,0,1,.149-1.638l.023-.057a.917.917,0,0,0-1.7-.685l-.022.055a3.926,3.926,0,0,0-.232,2.751,8.513,8.513,0,0,0,.777,1.986c.423.833.431.849-.029,1.309-.331.331-.358.358-1.161-.064a5,5,0,0,0-2.417-.718,6.911,6.911,0,0,0-2.27.339,5.938,5.938,0,0,1-3.488,0,6.913,6.913,0,0,0-2.27-.339,5,5,0,0,0-2.417.718c-.8.422-.83.4-1.161.064s-.358-.358.064-1.161a5,5,0,0,0,.718-2.417,6.912,6.912,0,0,0-.339-2.27,5.94,5.94,0,0,1,0-3.488,6.914,6.914,0,0,0,.339-2.27,5,5,0,0,0-.718-2.417c-.422-.8-.395-.83-.064-1.161s.358-.358,1.16.064a5,5,0,0,0,2.417.718,6.912,6.912,0,0,0,2.27-.339,5.938,5.938,0,0,1,3.488,0,6.913,6.913,0,0,0,2.27.339,5,5,0,0,0,2.417-.718c.8-.422.83-.395,1.161-.064s.358.358-.064,1.161a5,5,0,0,0-.718,2.417,6.913,6.913,0,0,0,.339,2.27l.05.167a.917.917,0,0,0,1.761-.514l-.053-.18a5.135,5.135,0,0,1-.262-1.744,3.271,3.271,0,0,1,.507-1.563,2.56,2.56,0,0,0-3.575-3.574,3.272,3.272,0,0,1-1.564.507,5.132,5.132,0,0,1-1.744-.262,6.913,6.913,0,0,0-2.27-.339,7.158,7.158,0,0,0-2.414.382V18.481A7.3,7.3,0,0,0,69,13.306L64.942,9.323a2.067,2.067,0,0,0,1.505-1.986V2.065A2.067,2.067,0,0,0,64.383,0H47.089a.917.917,0,0,0,0,1.834H64.383a.23.23,0,0,1,.23.23V7.338a.23.23,0,0,1-.23.23H39.634a.23.23,0,0,1-.23-.23V2.065a.23.23,0,0,1,.23-.23h3.787a.917.917,0,1,0,0-1.834H39.634A2.067,2.067,0,0,0,37.57,2.065V7.338a2.067,2.067,0,0,0,1.513,1.987l-8.649,6.3a7.277,7.277,0,0,0-2.981,5.862V46.338a.917.917,0,1,0,1.834,0V21.492a5.437,5.437,0,0,1,2.227-4.38L42.091,9.4H62.405l5.305,5.212a5.453,5.453,0,0,1,1.621,3.866V40.036A3.7,3.7,0,0,1,68,39.543a2.56,2.56,0,0,0-3.574,3.575,3.271,3.271,0,0,1,.507,1.563,5.135,5.135,0,0,1-.262,1.744,7.772,7.772,0,0,0,0,4.54,5.137,5.137,0,0,1,.262,1.744,3.271,3.271,0,0,1-.507,1.563,2.463,2.463,0,0,0,.263,3.311,2.333,2.333,0,0,0,1.678.788A3.559,3.559,0,0,0,68,57.847a3.98,3.98,0,0,1,1.222-.477,4.363,4.363,0,0,1-4.266,3.414h-31.3a4.377,4.377,0,0,1-4.372-4.372V50a.917.917,0,0,0-1.834,0v6.406a6.214,6.214,0,0,0,6.207,6.207h31.3a6.194,6.194,0,0,0,6.1-5.088,7.379,7.379,0,0,0,2.517.411,6.915,6.915,0,0,0,2.27-.339A5.136,5.136,0,0,1,77.6,57.34a3.271,3.271,0,0,1,1.563.507,2.464,2.464,0,0,0,3.312-.263,2.515,2.515,0,0,0,.367-3.436Z" transform="translate(-27.452 0)" fill="#2c2e8c"/>
      </g>
    </g>
  </g>
</svg>
