<svg xmlns="http://www.w3.org/2000/svg" width="107" height="107" viewBox="0 0 107 107">
  <g id="Grupo_1179080" data-name="Grupo 1179080" transform="translate(-340.5 -8693)">
    <g id="Grupo_156312" data-name="Grupo 156312" transform="translate(51.832 4244.563)">
      <path id="Elipse_5845" data-name="Elipse 5845" d="M53.5,0A53.5,53.5,0,1,1,0,53.5,53.5,53.5,0,0,1,53.5,0Z" transform="translate(288.668 4448.437)" fill="#241138"/>
    </g>
    <g id="Grupo_1179084" data-name="Grupo 1179084" transform="translate(0 -0.485)">
      <rect id="Rectángulo_455565" data-name="Rectángulo 455565" width="67" height="75" transform="translate(360.008 8709.484)" fill="none"/>
      <g id="sin-comida-chatarra" transform="translate(361.008 8710.387)">
        <path id="Trazado_997180" data-name="Trazado 997180" d="M41.525,104.021a30.366,30.366,0,0,1-22.741-2.378H33.074c7.2,0,11.163-1.839,15.567-5.008a2.233,2.233,0,0,0,.28-3.392L14.784,59.106a2.233,2.233,0,0,0-3.392.28A26.5,26.5,0,0,0,6.377,74.959c0,.168,0,.342.006.515a8.716,8.716,0,0,0-3.475,1.96c-.067-.824-.1-1.651-.1-2.475a30.334,30.334,0,0,1,12.776-24.7A.956.956,0,1,0,14.478,48.7,32.2,32.2,0,0,0,1.224,79.555,8.652,8.652,0,0,0,.091,83.841v.1a2.082,2.082,0,0,0,.663,1.523,3.239,3.239,0,0,0,.227,4.4,3.525,3.525,0,0,0,.592.468,2.446,2.446,0,0,0-.254.59,2.092,2.092,0,0,0-1.227,1.9v.11A8.822,8.822,0,0,0,2.08,98.485a9.064,9.064,0,0,0,6.714,3.158h6.3a32.242,32.242,0,0,0,26.965,4.213.956.956,0,0,0-.533-1.835ZM3.136,91.627A.56.56,0,0,1,3.3,91.2a.818.818,0,0,1,.589-.255H21.481a7,7,0,0,0,.927,3.254,2.968,2.968,0,0,1-.863.29A3.534,3.534,0,0,1,18.084,92.8a.956.956,0,0,0-1.64.03,3.716,3.716,0,0,1-2.373,1.709A3.6,3.6,0,0,1,10.519,92.7a.956.956,0,0,0-1.531-.122,3.668,3.668,0,0,1-1.173.9,3.5,3.5,0,0,1-3.022.082,2.9,2.9,0,0,1-1.656-1.94Zm.751-2.589c-.824,0-1.948-.381-1.975-1.5a1.641,1.641,0,0,1,1.717-1.5l35.381,0,3,3ZM23.392,90.95h3.584L31.2,95.1a5.148,5.148,0,0,1-7.811-4.153Zm6.311,0H43.925l.708.708-9.426,3.755a1.131,1.131,0,0,1-1.224-.259ZM8.808,77.04h7.968a.956.956,0,1,0,0-1.911H8.808c-.174,0-.346.007-.517.017,0-.062,0-.126,0-.186A24.6,24.6,0,0,1,12.943,60.5a.325.325,0,0,1,.241-.137.306.306,0,0,1,.249.092L28.1,75.129H21.237a.956.956,0,1,0,0,1.911h8.779L37.1,84.123s-34.744,0-34.915,0A.18.18,0,0,1,2,83.946v-.1a6.811,6.811,0,0,1,6.806-6.8ZM3.552,97.266a6.8,6.8,0,0,1-1.5-3.535,5.24,5.24,0,0,0,1.887,1.548,5.4,5.4,0,0,0,4.7-.072,5.483,5.483,0,0,0,.941-.578,5.454,5.454,0,0,0,4,1.861,4.8,4.8,0,0,0,.8-.067,5.26,5.26,0,0,0,2.9-1.6,5.232,5.232,0,0,0,4.574,1.552,4.9,4.9,0,0,0,1.725-.647,7.055,7.055,0,0,0,9.01.742l.044.043A3.077,3.077,0,0,0,34.8,97.4a3.007,3.007,0,0,0,1.117-.214l10.19-4.06,1.465,1.465a.308.308,0,0,1,.092.249.326.326,0,0,1-.137.241c-4.188,3.015-7.734,4.648-14.468,4.648H8.816a7.238,7.238,0,0,1-5.264-2.466Z" transform="translate(0 -39.272)" fill="#fff"/>
        <path id="Trazado_997181" data-name="Trazado 997181" d="M176.377,23.793a2.471,2.471,0,0,0,.276-1.134v-2.9a2.492,2.492,0,0,0-2.489-2.489h-.182v-1.4a2.491,2.491,0,0,0-2.488-2.488h-1.832a32.186,32.186,0,0,0-37.838-6.344.956.956,0,0,0,.872,1.7A29.93,29.93,0,0,1,146.48,5.428a30.4,30.4,0,0,1,20.447,7.958h-5.785a26.69,26.69,0,0,0-30.236.626,2.233,2.233,0,0,0-.28,3.392l34.138,34.138a2.223,2.223,0,0,0,1.574.652c.06,0,.119,0,.179-.007a2.238,2.238,0,0,0,1.638-.923,26.5,26.5,0,0,0,5.074-15.557l.585-10.559,1.032-.016a29.672,29.672,0,0,1,1.894,10.555,30.342,30.342,0,0,1-17.748,27.56.956.956,0,1,0,.791,1.74,32.2,32.2,0,0,0,16.6-41.194Zm-4.307-7.919v1.4H145.85v-1.4a.577.577,0,0,1,.577-.577h25.067A.577.577,0,0,1,172.071,15.874Zm-40.185-.07a.326.326,0,0,1,.137-.241,24.769,24.769,0,0,1,25.25-2.177H146.427a2.491,2.491,0,0,0-2.488,2.488v1.4h-.182a2.492,2.492,0,0,0-2.489,2.489v2.9a2.492,2.492,0,0,0,2.489,2.489h.351l.178,3.213L131.978,16.053A.308.308,0,0,1,131.886,15.8ZM160.544,44.62l-6.851-6.851h.041a6.838,6.838,0,0,1,6.81,6.8v.051Zm12.365-21.382h-5.182a.956.956,0,1,0,0,1.911H171.9l-.58,10.474c0,.009,0,.017,0,.026s0,.018,0,.027a24.6,24.6,0,0,1-4.713,14.47.325.325,0,0,1-.241.137.306.306,0,0,1-.249-.091l-4.161-4.161a2.058,2.058,0,0,0,.5-1.355v-.11a8.75,8.75,0,0,0-8.717-8.707h-1.957l-5.469-5.469-.291-5.24h17.245a.956.956,0,1,0,0-1.911H143.757a.578.578,0,0,1-.578-.578v-2.9a.578.578,0,0,1,.578-.578h30.408a.578.578,0,0,1,.578.578v2.9a.578.578,0,0,1-.578.578h-1.255Z" transform="translate(-113.413)" fill="#fff"/>
      </g>
    </g>
  </g>
</svg>
