<svg xmlns="http://www.w3.org/2000/svg" width="154" height="154" viewBox="0 0 154 154">
  <g id="Grupo_1179422" data-name="Grupo 1179422" transform="translate(-1128.352 -6983.191)">
    <g id="Grupo_1177913" data-name="Grupo 1177913" transform="translate(818.293 -387.809)">
      <circle id="Elipse_13624" data-name="Elipse 13624" cx="77" cy="77" r="77" transform="translate(310.059 7371)" fill="#fff"/>
    </g>
    <g id="Grupo_1178887" data-name="Grupo 1178887" transform="translate(1127.976 7000.034)">
      <g id="Grupo_1178886" data-name="Grupo 1178886" transform="translate(21.543 1.641)">
        <g id="Grupo_1178862" data-name="Grupo 1178862" transform="translate(20.706 30.231)">
          <g id="Grupo_1178860" data-name="Grupo 1178860" transform="translate(44.48)">
            <path id="Trazado_996380" data-name="Trazado 996380" d="M356.614,145.452c-6.22.119-29.245,1.916-31.745,21.921a1.211,1.211,0,0,0,1.178,1.246c25.382,2.344,30.87-16.624,31.9-21.852a1.22,1.22,0,0,0-1.329-1.315Z" transform="translate(-324.862 -145.452)" fill="#b5e245"/>
          </g>
          <g id="Grupo_1178861" data-name="Grupo 1178861">
            <path id="Trazado_996381" data-name="Trazado 996381" d="M123.231,145.452c6.22.119,29.245,1.916,31.745,21.921a1.211,1.211,0,0,1-1.178,1.246c-25.382,2.344-30.87-16.624-31.9-21.852a1.22,1.22,0,0,1,1.329-1.315Z" transform="translate(-121.884 -145.452)" fill="#b5e245"/>
          </g>
        </g>
        <g id="Grupo_1178885" data-name="Grupo 1178885" transform="translate(0)">
          <path id="Trazado_996382" data-name="Trazado 996382" d="M270.076,7.912a.876.876,0,0,0-1.489,0c-3.252,5.123-15.346,26.614.718,40.52h.053c16.064-13.906,3.97-35.4.718-40.52Z" transform="translate(-209.933 -7.499)" fill="#c6e873"/>
          <g id="Grupo_1178884" data-name="Grupo 1178884" transform="translate(0 64.494)">
            <g id="Grupo_1178883" data-name="Grupo 1178883">
              <path id="Trazado_996383" data-name="Trazado 996383" d="M150.371,310.376,140.312,318.4l34.654,16.592L209.62,318.4l-10.059-8.022A39.575,39.575,0,0,0,150.371,310.376Z" transform="translate(-115.568 -301.806)" fill="#ce9875"/>
              <g id="Grupo_1178863" data-name="Grupo 1178863" transform="translate(37.858 0.001)">
                <path id="Trazado_996384" data-name="Trazado 996384" d="M232.759,315.935l10.059,8.022.767.557L256.35,318.4l-10.059-8.022a39.593,39.593,0,0,0-46.134-2.2A39.539,39.539,0,0,1,232.759,315.935Z" transform="translate(-200.156 -301.812)" fill="#c6865c"/>
              </g>
              <g id="Grupo_1178882" data-name="Grupo 1178882" transform="translate(0 4.125)">
                <g id="Grupo_1178881" data-name="Grupo 1178881" transform="translate(4.239)">
                  <g id="Grupo_1178880" data-name="Grupo 1178880">
                    <g id="Grupo_1178878" data-name="Grupo 1178878" transform="translate(0)">
                      <g id="Grupo_1178877" data-name="Grupo 1178877">
                        <g id="Grupo_1178876" data-name="Grupo 1178876">
                          <g id="Grupo_1178875" data-name="Grupo 1178875">
                            <g id="Grupo_1178874" data-name="Grupo 1178874">
                              <g id="Grupo_1178873" data-name="Grupo 1178873">
                                <g id="Grupo_1178872" data-name="Grupo 1178872">
                                  <g id="Grupo_1178871" data-name="Grupo 1178871">
                                    <g id="Grupo_1178870" data-name="Grupo 1178870">
                                      <g id="Grupo_1178869" data-name="Grupo 1178869">
                                        <g id="Grupo_1178868" data-name="Grupo 1178868">
                                          <g id="Grupo_1178867" data-name="Grupo 1178867">
                                            <g id="Grupo_1178866" data-name="Grupo 1178866">
                                              <g id="Grupo_1178865" data-name="Grupo 1178865">
                                                <g id="Grupo_1178864" data-name="Grupo 1178864">
                                                  <path id="Trazado_996385" data-name="Trazado 996385" d="M136.6,330l-11.823,6.214a23.218,23.218,0,0,1-10,2.667l.153-2.522a6.5,6.5,0,0,0-5.387-5.919l-13.214-1.6c-3.048-.455-4.571-1.531-7.228-3.17a52.582,52.582,0,0,0-10.026-4.326,17.712,17.712,0,0,0-13.714,1.613L46.738,333.4l14.593,23.273,7.961-7.061a4.821,4.821,0,0,1,4.675-.983L87.3,352.91a9.819,9.819,0,0,0,4.6.634l26.536-2.723a9.966,9.966,0,0,0,4.634-1.715l18.317-12.6a4.284,4.284,0,0,0,.637-5.4A3.789,3.789,0,0,0,136.6,330Z" transform="translate(-46.738 -320.628)" fill="#ffddce"/>
                                                </g>
                                              </g>
                                            </g>
                                          </g>
                                        </g>
                                      </g>
                                    </g>
                                  </g>
                                </g>
                              </g>
                            </g>
                          </g>
                        </g>
                      </g>
                    </g>
                    <g id="Grupo_1178879" data-name="Grupo 1178879" transform="translate(0 8.671)">
                      <path id="Trazado_996386" data-name="Trazado 996386" d="M46.806,378.729l-.068.038.138.22Z" transform="translate(-46.738 -374.668)" fill="#ffcbbe"/>
                      <path id="Trazado_996387" data-name="Trazado 996387" d="M183.715,362a3.788,3.788,0,0,0-5.416-1.1l-8.384,4.407s-.83,1.88-1.752,3.875c-1.715,3.71-5.348,6.224-7.167,6.411l-27.508,2.823a10.176,10.176,0,0,1-4.768-.657L114.9,373.315a5,5,0,0,0-4.846,1.019l-9.922,8.622,2.892,4.613,7.961-7.061a4.821,4.821,0,0,1,4.675-.983l13.329,4.284a9.819,9.819,0,0,0,4.6.634l26.536-2.723A9.966,9.966,0,0,0,164.76,380l18.317-12.6A4.284,4.284,0,0,0,183.715,362Z" transform="translate(-88.433 -360.197)" fill="#ffcbbe"/>
                    </g>
                  </g>
                </g>
                <path id="Trazado_996388" data-name="Trazado 996388" d="M49.795,385.921l-3.829,2.21a3.068,3.068,0,0,1-4.191-1.123L27.807,362.815a3.068,3.068,0,0,1,1.123-4.191l3.829-2.21a3.068,3.068,0,0,1,4.191,1.123l13.968,24.193A3.068,3.068,0,0,1,49.795,385.921Z" transform="translate(-27.396 -348.251)" fill="#dd636e"/>
              </g>
            </g>
          </g>
        </g>
      </g>
      <path id="Trazado_996389" data-name="Trazado 996389" d="M122.444,79.843a5.429,5.429,0,0,0-7.649-1.62l-1.333.7-6.9-5.5A41.059,41.059,0,0,0,82.9,64.545a15.066,15.066,0,0,1,4.33-7.97,33.437,33.437,0,0,0,4.87.306,32.177,32.177,0,0,0,14.858-3.28,1.644,1.644,0,1,0-1.5-2.924,29.8,29.8,0,0,1-14.8,2.888,187.743,187.743,0,0,1,26.958-18.3,26.866,26.866,0,0,1-6.381,11.167,1.643,1.643,0,1,0,2.345,2.3A30.91,30.91,0,0,0,121.422,33.5a2.858,2.858,0,0,0-2.973-3.275c-16.113.307-31.325,7.2-33.344,23.36a2.57,2.57,0,0,0-.013.475,20.379,20.379,0,0,0-2.509,2.944V43.334c7.116-6.478,9.362-15.028,7.6-24.609a52.484,52.484,0,0,0-7.114-17.55h0a2.521,2.521,0,0,0-4.264,0,52.486,52.486,0,0,0-7.114,17.551c-1.753,9.558.472,18.115,7.6,24.606v13.4a20.52,20.52,0,0,0-2.311-2.666,2.57,2.57,0,0,0-.013-.475C74.954,37.45,59.733,30.536,43.626,30.228A2.857,2.857,0,0,0,40.653,33.5c2.563,13.059,12.44,23.381,29.261,23.381a34.415,34.415,0,0,0,4.935-.31,15.035,15.035,0,0,1,4.337,7.959,41.038,41.038,0,0,0-18.828,5.45c-.663-.236-1.265-.435-1.768-.586A19.434,19.434,0,0,0,43.6,71.153l-11.81,6.622A4.7,4.7,0,0,0,26.083,77l-3.829,2.21a4.717,4.717,0,0,0-1.724,6.436L34.5,109.839a4.709,4.709,0,0,0,6.436,1.724l3.829-2.21a4.714,4.714,0,0,0,1.78-6.326l2.882-2.557a3.19,3.19,0,0,1,3.081-.648l13.282,4.269a11.524,11.524,0,0,0,5.318.719l26.536-2.723a11.655,11.655,0,0,0,5.4-2c19.509-13.428,18.338-12.6,18.509-12.755a5.957,5.957,0,0,0,.895-7.494Zm-9.032-45.965A188.812,188.812,0,0,0,89.044,50.624c3.445-12.236,16.233-15.76,24.367-16.746ZM73.037,50.629a188.763,188.763,0,0,0-24.35-16.737C59.647,35.251,70.041,39.945,73.037,50.629ZM44.465,35.263a187.723,187.723,0,0,1,26.965,18.3c-18.914.66-25.05-11.738-26.965-18.3ZM86.953,19.318C88.362,27,86.89,33.467,82.582,38.606V6.946a45.922,45.922,0,0,1,4.371,12.372Zm-12.025,0A45.915,45.915,0,0,1,79.3,6.953V38.6C74.99,33.463,73.52,27,74.928,19.318ZM104.51,75.991l5.773,4.6-7.224,3.8a21.472,21.472,0,0,1-7.483,2.341l.039-.641a1.632,1.632,0,0,0,0-.254,8.121,8.121,0,0,0-6.781-7.39l-.044-.006-13.19-1.6c-4.178-.63-4.747-2.461-11.217-5.267A37.99,37.99,0,0,1,104.51,75.991Zm14.87,8.872-18.2,12.522a8.358,8.358,0,0,1-3.87,1.434l-26.536,2.723a8.459,8.459,0,0,1-3.929-.563l-13.33-4.285a6.493,6.493,0,0,0-6.268,1.319l-2.374,2.106-5.318-9.211a1.643,1.643,0,1,0-2.847,1.644l6.935,12.011a1.426,1.426,0,0,1-.521,1.945l-3.829,2.21a1.423,1.423,0,0,1-1.945-.521L23.377,84a1.426,1.426,0,0,1,.521-1.945l3.829-2.21a1.423,1.423,0,0,1,1.945.521l3.183,5.513A1.643,1.643,0,1,0,35.7,84.238l-2.132-3.692L45.209,74.02a16.133,16.133,0,0,1,12.439-1.473c10.2,3.055,11.43,6.644,17.483,7.547l.044.006,13.189,1.6a4.835,4.835,0,0,1,3.961,4.327l-.057.94L75.5,88.063a1.644,1.644,0,0,0,.105,3.284c.036,0,.072,0,.109,0,17.745-1.6,21.673-.258,28.872-4.042,12.548-6.6,11.842-6.21,12.008-6.328a2.146,2.146,0,0,1,3.085.653,2.637,2.637,0,0,1-.3,3.237Z" transform="translate(0 0)"/>
    </g>
  </g>
</svg>
