<svg xmlns="http://www.w3.org/2000/svg" width="87.544" height="102.567" viewBox="0 0 87.544 102.567">
  <path id="Trazado_996390" data-name="Trazado 996390" d="M85.549,8.734C57.779-.278,31.676,4.924,18.6,8.826A14.552,14.552,0,0,0,8.119,22.821c.1.475-.232,39.107.256,37.973,1.3,6.539,7.822,29.033,37,43.962a14.341,14.341,0,0,0,13.006,0c30.649-16.6,35.954-36.876,37.259-46.692V22.637a14.565,14.565,0,0,0-10.093-13.9ZM57.119,94.022a11.49,11.49,0,0,1-10.478,0C22.622,80.994,18.5,65.148,17.479,57.387V30.02a11.689,11.689,0,0,1,8.445-11.265c10.2-3.059,30.554-7.107,52.243-.073a11.735,11.735,0,0,1,8.115,11.192V57.386a12.1,12.1,0,0,1-.2,2.2c-1.026,5.13-6.118,22.752-28.961,34.439ZM77.031,22.161c-15.545-5.6-37.5-4.061-50.063.092a8.077,8.077,0,0,0-5.825,7.766V57.386a9.33,9.33,0,0,0,.128,1.484c.953,4.708,5.66,20.956,27.037,31.891a7.859,7.859,0,0,0,7.144,0C77.717,78.771,81.629,64.049,82.618,57.387V29.873a8.072,8.072,0,0,0-5.587-7.712ZM57.266,79.551a7.822,7.822,0,1,1,1.629-8.441,7.779,7.779,0,0,1-1.629,8.441ZM57.98,57.2a6.194,6.194,0,0,1-12.31-.037L43.692,37.273c-.6-11.969,17.082-11.931,16.394.055Zm-1.539-20.26L54.335,56.818a2.528,2.528,0,0,1-5.019-.018L47.338,36.925a4.576,4.576,0,1,1,9.1.018ZM51.771,78.159a4.112,4.112,0,1,1,4.122-4.1,4.112,4.112,0,0,1-4.122,4.1Z" transform="translate(-8.099 -3.748)" fill="#0f1031"/>
</svg>
