<svg xmlns="http://www.w3.org/2000/svg" width="154" height="154" viewBox="0 0 154 154">
  <g id="Grupo_1179419" data-name="Grupo 1179419" transform="translate(-713.449 -3285.992)">
    <g id="Grupo_1177312" data-name="Grupo 1177312" transform="translate(403.391 -4085.008)">
      <circle id="Elipse_13624" data-name="Elipse 13624" cx="77" cy="77" r="77" transform="translate(310.059 7371)" fill="#fff"/>
    </g>
    <g id="peligroso" transform="translate(747.449 3318.011)">
      <g id="Grupo_1178994" data-name="Grupo 1178994" transform="translate(10.478 1.478)">
        <path id="Trazado_996487" data-name="Trazado 996487" d="M48.609,6l2.957,11.826H22L24.957,6Z" transform="translate(-4.261 1.391)" fill="gray"/>
        <path id="Trazado_996488" data-name="Trazado 996488" d="M66.07,6.765l3.1,13.452H55.87L52.913,8.391H29.261L26.3,20.217H13L16.1,6.765A7.446,7.446,0,0,1,23.348,1H58.826A7.446,7.446,0,0,1,66.07,6.765Z" transform="translate(-8.565 -1)" fill="#bfc0dc"/>
        <path id="Trazado_996489" data-name="Trazado 996489" d="M75.043,14v8.87H10V14H75.043Z" transform="translate(-10 5.217)" fill="#bfc0dc"/>
        <path id="Trazado_996490" data-name="Trazado 996490" d="M69.174,20,65.153,77.667a6.345,6.345,0,0,1-6.327,5.9H23.348a6.345,6.345,0,0,1-6.327-5.9L13,20ZM51.435,59.795a15.868,15.868,0,0,0,7.391-13.186c0-8.988-7.938-16.261-17.739-16.261S23.348,37.621,23.348,46.609a15.868,15.868,0,0,0,7.391,13.186V67.3h20.7Z" transform="translate(-8.565 8.087)" fill="#bfc0dc"/>
        <circle id="Elipse_13679" data-name="Elipse 13679" cx="4.5" cy="4.5" r="4.5" transform="translate(35.522 49.826)" fill="gray"/>
        <circle id="Elipse_13680" data-name="Elipse 13680" cx="4.5" cy="4.5" r="4.5" transform="translate(20.522 49.826)" fill="gray"/>
        <path id="Trazado_996491" data-name="Trazado 996491" d="M27.391,63.957v-7.51A15.868,15.868,0,0,1,20,43.261C20,34.273,27.938,27,37.739,27s17.739,7.273,17.739,16.261a15.868,15.868,0,0,1-7.391,13.186v7.51Zm22.174-20.7A4.435,4.435,0,1,0,45.13,47.7,4.429,4.429,0,0,0,49.565,43.261Zm-14.783,0A4.435,4.435,0,1,0,30.348,47.7,4.429,4.429,0,0,0,34.783,43.261Z" transform="translate(-5.217 11.435)" fill="#b3b3b3"/>
      </g>
      <g id="Grupo_1178995" data-name="Grupo 1178995" transform="translate(9 0)">
        <path id="Trazado_996492" data-name="Trazado 996492" d="M75.522,19.217H72.264L69.422,6.908A8.885,8.885,0,0,0,60.739,0H25.261a8.887,8.887,0,0,0-8.685,6.911l-2.84,12.307H10.478A1.478,1.478,0,0,0,9,20.7v8.87a1.478,1.478,0,0,0,1.478,1.478h3.056L17.46,87.337a7.851,7.851,0,0,0,7.8,7.272H60.739a7.853,7.853,0,0,0,7.8-7.275l3.925-56.291h3.056A1.478,1.478,0,0,0,77,29.565V20.7A1.478,1.478,0,0,0,75.522,19.217ZM19.456,7.578a5.941,5.941,0,0,1,5.805-4.621H60.739a5.94,5.94,0,0,1,5.8,4.62l2.686,11.641H58.937L56.26,8.51a1.477,1.477,0,0,0-1.434-1.119H31.174A1.478,1.478,0,0,0,29.74,8.51L27.063,19.217H16.77l2.685-11.64Zm36.433,11.64H30.111l2.219-8.87H53.673l2.219,8.87Zm18.155,8.87H34.13a1.478,1.478,0,1,0,0,2.957H69.5L65.592,87.127a4.886,4.886,0,0,1-4.853,4.525H25.261a4.883,4.883,0,0,1-4.852-4.523L16.5,31.043H22.3a1.478,1.478,0,0,0,0-2.957H11.957V22.174H74.043Z" transform="translate(-9 0)" fill="#252525"/>
        <path id="Trazado_996493" data-name="Trazado 996493" d="M19,43.739A17.338,17.338,0,0,0,26.391,57.7v6.736a1.478,1.478,0,0,0,1.478,1.478h20.7a1.478,1.478,0,0,0,1.478-1.478V57.7a17.34,17.34,0,0,0,7.391-13.959C57.435,33.957,48.814,26,38.217,26S19,33.957,19,43.739ZM38.217,28.957c8.966,0,16.261,6.631,16.261,14.783a14.479,14.479,0,0,1-6.729,11.953,1.476,1.476,0,0,0-.662,1.231v6.031h-3.7V58.52a1.478,1.478,0,1,0-2.957,0v4.435H36V58.52a1.478,1.478,0,1,0-2.957,0v4.435h-3.7V56.924a1.476,1.476,0,0,0-.662-1.231,14.479,14.479,0,0,1-6.729-11.953c0-8.151,7.3-14.783,16.261-14.783Z" transform="translate(-4.217 12.435)" fill="#252525"/>
        <path id="Trazado_996494" data-name="Trazado 996494" d="M28.913,45.826A5.913,5.913,0,1,0,23,39.913,5.919,5.919,0,0,0,28.913,45.826Zm0-8.87a2.957,2.957,0,1,1-2.957,2.957A2.959,2.959,0,0,1,28.913,36.957Z" transform="translate(-2.304 16.261)" fill="#252525"/>
        <path id="Trazado_996495" data-name="Trazado 996495" d="M38.913,45.826A5.913,5.913,0,1,0,33,39.913,5.919,5.919,0,0,0,38.913,45.826Zm0-8.87a2.957,2.957,0,1,1-2.957,2.957A2.96,2.96,0,0,1,38.913,36.957Z" transform="translate(2.478 16.261)" fill="#252525"/>
        <circle id="Elipse_13681" data-name="Elipse 13681" cx="1.5" cy="1.5" r="1.5" transform="translate(18 28.304)" fill="#252525"/>
      </g>
    </g>
  </g>
</svg>
