<svg xmlns="http://www.w3.org/2000/svg" xmlns:xlink="http://www.w3.org/1999/xlink" width="69" height="69" viewBox="0 0 69 69">
  <defs>
    <clipPath id="clip-path">
      <path id="Trazado_996465" data-name="Trazado 996465" d="M17.629,30.415c-.1.256.557.59.65.585a1.117,1.117,0,0,0,.422-.684c0-.076-.133-.105-.3-.105-.3,0-.728.1-.772.2m-8.8-.811a5.571,5.571,0,0,0-1.109.7c0,.463,1.005,1.042,1.251,1.042a3.6,3.6,0,0,0,1.251-1.39c0-.184-.759-.368-1.192-.368a.825.825,0,0,0-.2.02m6.893,2.057,4,.389-7.545-3.117Zm14.456.389L25.731,30.1,15.14,28.383ZM10.158,27.991c.622.324.721-.9.155-.9-.619,0-.776.578-.155.9m.821-1.381,21.271,2.61-4.659-2.61Zm-4.245.544c.149.418,1.3.106,1.4,0a1.793,1.793,0,0,0-.231-1.269.11.11,0,0,0-.08-.03c-.332,0-1.181,1.054-1.093,1.3m-2.615-1.4a.4.4,0,0,1-.05.326.459.459,0,0,1-.8-.407A1.839,1.839,0,0,1,2.2,24.716,3.853,3.853,0,1,0,5.947,31.43a1.054,1.054,0,0,1-.374-1.088.572.572,0,0,1,.032-.627.6.6,0,0,1,.48-.285.406.406,0,0,1,.053-.138.44.44,0,0,1,.614-.1.47.47,0,0,1,.156.179.5.5,0,0,1,.086.1.914.914,0,0,1,.255.1.948.948,0,0,1,.153.155,3.848,3.848,0,0,0,.32-1.532c-.927.3-1.836.057-2.059-.561S6,26.223,6.932,25.869a3.866,3.866,0,0,0-1.409-1.153,1.835,1.835,0,0,1-1.4,1.034m9.574-1.407c-.23.207.463.955.882.976s.555-.849.226-1.212a.381.381,0,0,0-.294-.115,1.449,1.449,0,0,0-.813.351m2.96.541L29.26,24.2,25.08,23.8s-8.32.971-8.428,1.079m2.8-1.953c-.105.256.556.59.65.585a1.119,1.119,0,0,0,.422-.684c0-.076-.132-.105-.3-.105-.3,0-.728.1-.772.2M7.643,24.569c.322.322,2.231-.786,1.96-1.057-.143-.143-.389-.08-.621-.017-.21.056-.407.112-.5.017-.2-.2-.036-1.109-.461-1.109-.63,0-.7,1.844-.376,2.167M4.211,22.035c.551.278.638-.772.138-.772-.549,0-.688.495-.138.772m2.59-.856c0,.309,1.019.3,1.315,0s-.257-.98-.748-.98c-.386,0-.568.671-.568.98m5.107,3.043,15.683-3.74-4.231-.818Zm-8.64-.291L3,19.367l-.643-1.232Zm12.339-5.641c.186.293,1.33-.067,1.429-.157s-.074-.762-.338-.913a.127.127,0,0,0-.063-.015c-.325,0-1.14.91-1.028,1.086m-4.456,4.762,13.48-7.2-3.129-.55Zm-.907-7.5a5.581,5.581,0,0,0-.514,1.2c.264.382,1.421.283,1.622.144a3.61,3.61,0,0,0,.235-1.856A.147.147,0,0,0,11.461,15a2.453,2.453,0,0,0-1.217.551M6.927,15.14c.621.325.72-.9.154-.9-.619,0-.776.578-.154.9m-1.484-.8.221,6.784.4-8.635Zm13-.882-5.433,5.433,7.978-6.4ZM9.7,21.406,17.618,10.4l.541-4.529ZM8.2,10.467l.329,10.015L11.068,4.257ZM14.708,0l-3.64,14.757L14.708,2.2Z" transform="translate(0 -0.001)"/>
    </clipPath>
  </defs>
  <g id="Grupo_1178965" data-name="Grupo 1178965" transform="translate(-240.945 -2810.438)">
    <g id="Rectángulo_455408" data-name="Rectángulo 455408" transform="translate(275.445 2810.438) rotate(45)" fill="#fff" stroke="#f21616" stroke-width="4">
      <rect width="48.79" height="48.79" stroke="none"/>
      <rect x="2" y="2" width="44.79" height="44.79" fill="none"/>
    </g>
    <g id="Grupo_1178967" data-name="Grupo 1178967" transform="translate(260.945 2824.824)">
      <g id="Grupo_1178966" data-name="Grupo 1178966" transform="translate(0 0.001)" clip-path="url(#clip-path)">
        <rect id="Rectángulo_455409" data-name="Rectángulo 455409" width="32.25" height="32.049" transform="translate(0 0)"/>
      </g>
    </g>
  </g>
</svg>
