<svg xmlns="http://www.w3.org/2000/svg" xmlns:xlink="http://www.w3.org/1999/xlink" width="69" height="69" viewBox="0 0 69 69">
  <defs>
    <clipPath id="clip-path">
      <rect id="Rectángulo_455413" data-name="Rectángulo 455413" width="32.309" height="24.215" fill="none"/>
    </clipPath>
  </defs>
  <g id="Grupo_1178979" data-name="Grupo 1178979" transform="translate(-240.945 -2810.438)">
    <g id="Rectángulo_455408" data-name="Rectángulo 455408" transform="translate(275.445 2810.438) rotate(45)" fill="#fff" stroke="#f21616" stroke-width="4">
      <rect width="48.79" height="48.79" stroke="none"/>
      <rect x="2" y="2" width="44.79" height="44.79" fill="none"/>
    </g>
    <g id="Grupo_1178981" data-name="Grupo 1178981" transform="translate(258.637 2831.305)">
      <g id="Grupo_1178980" data-name="Grupo 1178980" transform="translate(0 0)" clip-path="url(#clip-path)">
        <path id="Trazado_996469" data-name="Trazado 996469" d="M9.517,83.791a2.3,2.3,0,0,0-1.312.81,2.141,2.141,0,0,0-1.646.887H4.836A2.141,2.141,0,0,0,3.19,84.6a2.3,2.3,0,0,0-1.312-.81l-.155-.875H0v3.37H11.395v-3.37H9.672Z" transform="translate(0 -62.114)"/>
        <path id="Trazado_996470" data-name="Trazado 996470" d="M52.174,5.43A2.046,2.046,0,0,0,54,6.825a2.959,2.959,0,0,0,1.148-.1l6.751-1.9L64.841,4,63.714,0,54.02,2.733a2.966,2.966,0,0,0-1.04.526,2.582,2.582,0,0,0-.486.508,1.883,1.883,0,0,0-.331,1.628ZM54.18,3.3,63.308.724l.808,2.867-2.458.693-7.7-.91A2.247,2.247,0,0,1,54.18,3.3" transform="translate(-39.028 0)"/>
        <path id="Trazado_996471" data-name="Trazado 996471" d="M99.612,20.1a.785.785,0,0,0,.856.909h0a.785.785,0,0,0,.856-.909,1.646,1.646,0,0,0-.114-.556l-.742-1.89v-.012l0,.006,0-.006v.012l-.742,1.89a1.646,1.646,0,0,0-.114.556" transform="translate(-74.621 -13.217)"/>
        <path id="Trazado_996472" data-name="Trazado 996472" d="M100.34,47h0a.785.785,0,0,0,.856-.909,1.632,1.632,0,0,0-.114-.556l-.742-1.89v-.012l0,.006,0-.006v.012l-.742,1.89a1.644,1.644,0,0,0-.114.556.785.785,0,0,0,.857.909h0" transform="translate(-74.523 -32.689)"/>
        <path id="Trazado_996473" data-name="Trazado 996473" d="M76.486,62.925l-1.072-.038a.081.081,0,0,1-.044-.016,10.111,10.111,0,0,0-2.443-1.422l-.014,0a2.124,2.124,0,0,0-.439-.04c-.148,0-.261.011-.262.011-.243.054-.194.528-.162.73a.079.079,0,0,1-.031.075,1.068,1.068,0,0,0-.394.676.08.08,0,0,1-.076.065.662.662,0,0,0-.587.3.079.079,0,0,1-.086.036,1.152,1.152,0,0,0-.258-.028,1.994,1.994,0,0,0-.629.118.079.079,0,0,1-.1-.042.9.9,0,0,0-.721-.521.079.079,0,0,1-.066-.076.564.564,0,0,0-.135-.358.482.482,0,0,0-.209-.133.08.08,0,0,1-.053-.086.705.705,0,0,0-.129-.526.86.86,0,0,0-.586-.283l-3.442-.027,0-.022h-.036l-.1.011a.314.314,0,0,0-.05.01.418.418,0,0,0-.253.351V61.7a1.387,1.387,0,0,0,1.352,1.352l1.621.018a.067.067,0,0,1,.067.054.063.063,0,0,1-.015.053.071.071,0,0,1-.054.025l-6.18-.041h0a.926.926,0,0,0-.685.883.774.774,0,0,0,.68.861H60.9l6.123-.012a.074.074,0,0,1,.064.033.107.107,0,0,1,.016.044.175.175,0,0,1-.017.091.078.078,0,0,1-.072.046l-7.332.029h0a.749.749,0,0,0-.559.771.718.718,0,0,0,.285.649.587.587,0,0,0,.291.1l7.149-.017a.076.076,0,0,1,.076.057.2.2,0,0,1-.02.116.077.077,0,0,1-.071.046l-6.215.038h0a.855.855,0,0,0-.474.812c-.019.666.417.753.467.76h.016l6.451.043a.075.075,0,0,1,.059.027.073.073,0,0,1,.016.037.09.09,0,0,1-.005.04.078.078,0,0,1-.074.052l-4.5.017,0,0a.741.741,0,0,0-.492.788.6.6,0,0,0,.476.664l.017,0L72,70.15h0a12.186,12.186,0,0,0,3.271-1.374.076.076,0,0,1,.036-.01l1.176-.047A.117.117,0,0,0,76.6,68.6v-5.56a.117.117,0,0,0-.113-.117" transform="translate(-44.291 -45.935)"/>
        <path id="Trazado_996474" data-name="Trazado 996474" d="M20.621,55.079h0a.785.785,0,0,0,.856-.909,1.645,1.645,0,0,0-.114-.556l-.742-1.89v-.012l0,.006,0-.006v.012l-.742,1.89a1.645,1.645,0,0,0-.114.556.785.785,0,0,0,.856.909" transform="translate(-14.805 -38.738)"/>
        <path id="Trazado_996475" data-name="Trazado 996475" d="M20.621,75.315h0a.785.785,0,0,0,.856-.909,1.645,1.645,0,0,0-.114-.556l-.742-1.89v-.012l0,.006,0-.006v.012l-.742,1.89a1.645,1.645,0,0,0-.114.556.785.785,0,0,0,.856.909" transform="translate(-14.805 -53.898)"/>
        <path id="Trazado_996476" data-name="Trazado 996476" d="M26.082,37.756l6.952.5a2.98,2.98,0,0,0,1.144-.14,2.13,2.13,0,0,0,1.449-1.4,1.772,1.772,0,0,0,.056-.331l0-.037a1.883,1.883,0,0,0-.654-1.527,2.566,2.566,0,0,0-.578-.4,2.972,2.972,0,0,0-1.125-.305L23.281,33.4l-.294,4.141,3.05.216Zm-2.256-3.734,9.461.672a2.37,2.37,0,0,1,.238.03,2.15,2.15,0,0,1,1.111.52A1.312,1.312,0,0,1,35.1,36.3l0,.035a1.13,1.13,0,0,1-.1.4c-2.333.092-7.4.321-9.319.408h0l-2.056-.145Z" transform="translate(-17.22 -25.018)"/>
      </g>
    </g>
  </g>
</svg>
