<svg xmlns="http://www.w3.org/2000/svg" width="84" height="84" viewBox="0 0 84 84">
  <g id="Grupo_1179418" data-name="Grupo 1179418" transform="translate(-699.999 -5197.396)">
    <g id="Grupo_1177862" data-name="Grupo 1177862" transform="translate(-6.001 3518.476)">
      <g id="Grupo_1119665" data-name="Grupo 1119665" transform="translate(534.111 -3840.08)">
        <rect id="Rectángulo_402006" data-name="Rectángulo 402006" width="84" height="84" rx="5" transform="translate(171.889 5519)" fill="#cdbfdc"/>
      </g>
    </g>
    <g id="Grupo_1178843" data-name="Grupo 1178843" transform="translate(710.517 5209.427)">
      <path id="Trazado_996331" data-name="Trazado 996331" d="M13.04,13.04A23.832,23.832,0,0,0,6.01,29.02a1.012,1.012,0,0,1-1,.98h-3A1,1,0,0,1,1,28.98,28.866,28.866,0,0,1,9.49,9.49L12,11Z" fill="#9dcf65"/>
      <path id="Trazado_996332" data-name="Trazado 996332" d="M30,1l2,2L30,6a23.888,23.888,0,0,0-16.96,7.04L9.49,9.49A28.907,28.907,0,0,1,30,1Z" fill="#fcd576"/>
      <path id="Trazado_996333" data-name="Trazado 996333" d="M50.51,9.49,50,12l-3.04,1.04A23.888,23.888,0,0,0,30,6V1A28.907,28.907,0,0,1,50.51,9.49Z" fill="#f88a72"/>
      <path id="Trazado_996334" data-name="Trazado 996334" d="M59,28.98A1,1,0,0,1,57.99,30h-3a1.012,1.012,0,0,1-1-.98,23.832,23.832,0,0,0-7.03-15.98l3.55-3.55A28.866,28.866,0,0,1,59,28.98Z" fill="#d94c57"/>
      <path id="Trazado_996335" data-name="Trazado 996335" d="M27.707,25.627,8.09,20.03a.8.8,0,0,0-.6,1.47l17.671,9.509Z" fill="#cfd2da"/>
      <path id="Trazado_996336" data-name="Trazado 996336" d="M32.15,34.51a5,5,0,1,0-4.3,0Z" fill="#bdc2cc"/>
      <path id="Trazado_996337" data-name="Trazado 996337" d="M47.848,57.646,30.7,32.375a.846.846,0,0,0-1.406,0L12.152,57.646a.865.865,0,0,0,.7,1.354h34.29a.865.865,0,0,0,.706-1.354Z" fill="#f2a332"/>
      <g id="Grupo_1178842" data-name="Grupo 1178842">
        <path id="Trazado_996338" data-name="Trazado 996338" d="M0,28.943a1.953,1.953,0,0,0,.552,1.441A2.036,2.036,0,0,0,2.011,31h3a2.023,2.023,0,0,0,2-1.942,22.294,22.294,0,0,1,1.1-6.089l16.126,8.676a6.022,6.022,0,0,0,2.2,3.163L11.323,57.085a1.873,1.873,0,0,0-.1,1.929A1.848,1.848,0,0,0,12.854,60H47.146a1.848,1.848,0,0,0,1.634-.986,1.873,1.873,0,0,0-.1-1.929L33.562,34.808a5.992,5.992,0,1,0-9.514-5.534L9.605,21.5l13.121,3.743a1,1,0,0,0,.548-1.924l-13.688-3.9a23,23,0,0,1,43.4,9.656,2.019,2.019,0,0,0,2,1.926h3a2.036,2.036,0,0,0,1.457-.616A1.951,1.951,0,0,0,60,28.945a30.017,30.017,0,0,0-60,0ZM13.119,58,30,33.12,46.881,58ZM30,26a3.99,3.99,0,0,1,2.44,7.154l-.909-1.34a1.846,1.846,0,0,0-3.061,0l-.91,1.341A3.99,3.99,0,0,1,30,26ZM5.011,29,2,29.016A27.9,27.9,0,0,1,9.471,10.885l2.175,2.175a24.932,24.932,0,0,0-4.1,5.969A1.793,1.793,0,0,0,6.39,21.814,24.319,24.319,0,0,0,5.011,29Zm8.051-17.352L10.889,9.475A27.925,27.925,0,0,1,29,2.024V5.037a25.049,25.049,0,0,0-15.938,6.611ZM31,5.024v-3A27.919,27.919,0,0,1,49.111,9.475l-2.134,2.134A24.929,24.929,0,0,0,31,5.024ZM54.988,28.979a24.882,24.882,0,0,0-6.6-15.958l2.136-2.136A27.843,27.843,0,0,1,57.989,29Z" fill="#373737"/>
        <path id="Trazado_996339" data-name="Trazado 996339" d="M29,39V50a1,1,0,0,0,2,0V39a1,1,0,0,0-2,0Z" fill="#373737"/>
        <path id="Trazado_996340" data-name="Trazado 996340" d="M30,53a1,1,0,0,0-1,1v1a1,1,0,0,0,2,0V54A1,1,0,0,0,30,53Z" fill="#373737"/>
      </g>
    </g>
  </g>
</svg>
