<svg xmlns="http://www.w3.org/2000/svg" width="84" height="84" viewBox="0 0 84 84">
  <g id="Grupo_1179412" data-name="Grupo 1179412" transform="translate(-186 -4105.625)">
    <g id="Grupo_1178911" data-name="Grupo 1178911" transform="translate(-520 2426.705)">
      <g id="Grupo_1119665" data-name="Grupo 1119665" transform="translate(534.111 -3840.08)">
        <rect id="Rectángulo_402006" data-name="Rectángulo 402006" width="84" height="84" rx="5" transform="translate(171.889 5519)" fill="#cdbfdc"/>
      </g>
    </g>
    <g id="Grupo_1178910" data-name="Grupo 1178910">
      <g id="Grupo_1178912" data-name="Grupo 1178912">
        <g id="Grupo_1178906" data-name="Grupo 1178906" transform="translate(-144 -26.571)">
          <g id="Grupo_1178403" data-name="Grupo 1178403" transform="translate(343.002 4150.303)">
            <path id="Trazado_995839" data-name="Trazado 995839" d="M43.483,40.071a1.787,1.787,0,0,0-.654-.654L27.445,30.535a1.788,1.788,0,0,0-1.788,0L10.274,39.416a1.787,1.787,0,0,0-.654.654l16.931,9.775Z" transform="translate(-8.533 -29.449)" fill="#daf1f4"/>
            <path id="Trazado_995840" data-name="Trazado 995840" d="M7.74,116.8a1.787,1.787,0,0,0-.24.894v17.763a1.788,1.788,0,0,0,.894,1.548l15.383,8.881a1.787,1.787,0,0,0,.894.24V126.576Z" transform="translate(-6.652 -106.179)" fill="#b9e4ef"/>
            <path id="Trazado_995841" data-name="Trazado 995841" d="M159.451,126.576v19.551a1.787,1.787,0,0,0,.894-.24l8.669-5v-7.211a1.532,1.532,0,0,1,.766-1.327l6.842-3.95v-10.7a1.787,1.787,0,0,0-.24-.894Z" transform="translate(-141.433 -106.179)" fill="#93d8e4"/>
            <path id="Trazado_995842" data-name="Trazado 995842" d="M244.281,259.315a1.532,1.532,0,0,0-.205.766V275.3a1.532,1.532,0,0,0,.766,1.327l13.182,7.611a1.531,1.531,0,0,0,.766.205V267.692Z" transform="translate(-216.495 -232.589)" fill="#b9e4ef"/>
            <path id="Trazado_995843" data-name="Trazado 995843" d="M274.91,193.562a1.531,1.531,0,0,0-.561-.561l-13.182-7.611a1.532,1.532,0,0,0-1.532,0L246.453,193a1.532,1.532,0,0,0-.561.561l14.509,8.377Z" transform="translate(-218.106 -166.836)" fill="#daf1f4"/>
            <path id="Trazado_995844" data-name="Trazado 995844" d="M374.288,267.692v16.754a1.531,1.531,0,0,0,.766-.205l13.182-7.611A1.532,1.532,0,0,0,389,275.3V260.081a1.531,1.531,0,0,0-.205-.766Z" transform="translate(-331.993 -232.589)" fill="#93d8e4"/>
            <path id="Trazado_995845" data-name="Trazado 995845" d="M152.8,305.658a.848.848,0,0,0-.848.848v2.222a.848.848,0,1,0,1.7,0v-2.222A.848.848,0,0,0,152.8,305.658Z" transform="translate(-134.78 -273.695)"/>
            <path id="Trazado_995846" data-name="Trazado 995846" d="M54.155,139.7l12.251-7.073a.847.847,0,1,0-.848-1.468l-12.251,7.073-12.251-7.073a.847.847,0,1,0-.848,1.468L52.46,139.7v7.969a.848.848,0,0,0,1.7,0Z" transform="translate(-35.289 -118.814)"/>
            <path id="Trazado_995847" data-name="Trazado 995847" d="M325.167,208.835l4.847-2.8a.848.848,0,0,0-.848-1.468l-4.847,2.8a.847.847,0,1,0,.848,1.468Z" transform="translate(-287.295 -183.928)"/>
            <path id="Trazado_995848" data-name="Trazado 995848" d="M282.377,290.957a.847.847,0,0,0,.848-.848V278.057l10.438-6.026a.847.847,0,0,0-.848-1.468l-10.438,6.026-10.438-6.026a.848.848,0,0,0-.848,1.468l10.438,6.026v12.053A.848.848,0,0,0,282.377,290.957Z" transform="translate(-240.082 -242.464)"/>
            <path id="Trazado_995849" data-name="Trazado 995849" d="M1.318,54.366,16.7,63.248a2.643,2.643,0,0,0,2.635,0l7.4-4.271v6.543a2.386,2.386,0,0,0,1.19,2.061l13.182,7.611a2.386,2.386,0,0,0,2.38,0L56.667,67.58a2.386,2.386,0,0,0,1.19-2.061V59.8a.848.848,0,1,0-1.7,0v5.721a.686.686,0,0,1-.342.593L42.638,73.723a.687.687,0,0,1-.685,0L28.771,66.112a.687.687,0,0,1-.342-.593V50.3a.687.687,0,0,1,.342-.593l13.182-7.611a.686.686,0,0,1,.684,0L55.82,49.705a.686.686,0,0,1,.342.593v5.545a.848.848,0,0,0,1.7,0V50.3a2.386,2.386,0,0,0-1.19-2.061L43.485,40.626a2.386,2.386,0,0,0-2.38,0l-5.069,2.927V34.321a2.643,2.643,0,0,0-1.318-2.282L19.336,23.158a2.643,2.643,0,0,0-2.635,0L13.5,25.008a.847.847,0,0,0,.848,1.468l3.205-1.851a.943.943,0,0,1,.94,0l15.383,8.881a.943.943,0,0,1,.47.814v10.21l-6.418,3.706a2.386,2.386,0,0,0-1.19,2.061v6.722l-8.245,4.76a.943.943,0,0,1-.94,0L2.165,52.9a.943.943,0,0,1-.47-.814V34.321a.943.943,0,0,1,.47-.814l8.726-5.038A.847.847,0,1,0,10.044,27L1.318,32.039A2.643,2.643,0,0,0,0,34.321V52.084a2.643,2.643,0,0,0,1.318,2.282Z" transform="translate(0 -22.806)"/>
            <path id="Trazado_995850" data-name="Trazado 995850" d="M56.627,82.846a.847.847,0,0,0,1.158.31l5.018-2.9a.848.848,0,0,0-.848-1.468l-5.018,2.9A.847.847,0,0,0,56.627,82.846Z" transform="translate(-50.127 -72.364)"/>
          </g>
          <rect id="Rectángulo_455373" data-name="Rectángulo 455373" width="72" height="63" transform="translate(335.711 4144.571)" fill="none"/>
        </g>
      </g>
    </g>
  </g>
</svg>
