<svg xmlns="http://www.w3.org/2000/svg" width="84" height="84" viewBox="0 0 84 84">
  <g id="Grupo_1179413" data-name="Grupo 1179413" transform="translate(-186 -4310.625)">
    <g id="Grupo_1178915" data-name="Grupo 1178915">
      <g id="Grupo_1178914" data-name="Grupo 1178914" transform="translate(-520 2631.705)">
        <g id="Grupo_1119665" data-name="Grupo 1119665" transform="translate(534.111 -3840.08)">
          <rect id="Rectángulo_402006" data-name="Rectángulo 402006" width="84" height="84" rx="5" transform="translate(171.889 5519)" fill="#cdbfdc"/>
        </g>
      </g>
      <g id="Grupo_1178907" data-name="Grupo 1178907" transform="translate(-544.736 175.08)">
        <g id="Grupo_1178404" data-name="Grupo 1178404" transform="translate(740.521 4144.994)">
          <path id="Trazado_995851" data-name="Trazado 995851" d="M49.138,308.419c8.682,0,12.416,1.15,12.416,2.875,0,3.335-6.348,1.15-6.348,4.37,0,3.114,14.937,1.035,15.124,4.485.115,2.116-3.915,2.6-9.242,2.76-5.928.174-12.79-.69-12.883,2.07-.1,2.872,5.975,1.091,5.975,4.426,0,5.119-30.525,5-30.525,0,0-3.335,6.072-1.553,5.975-4.426-.093-2.76-6.955-1.9-12.883-2.07-5.327-.157-9.357-.644-9.242-2.76.187-3.45,15.124-1.372,15.124-4.485,0-3.22-6.348-1.035-6.348-4.37,0-1.725,3.734-2.875,12.416-2.875Z" transform="translate(-6.553 -269.429)" fill="#baeefc"/>
          <path id="Trazado_995852" data-name="Trazado 995852" d="M251.766,425.115c.053-1.575,2.311-1.97,5.342-2.051-4.886-.041-9.438-.194-9.514,2.051-.1,2.873,5.975,1.091,5.975,4.426,0,2.311-6.222,3.555-13.047,3.765,8.224.251,17.219-.986,17.219-3.765C257.74,426.205,251.668,427.987,251.766,425.115Z" transform="translate(-210.114 -369.564)" fill="#a2e1f8"/>
          <path id="Trazado_995853" data-name="Trazado 995853" d="M314.091,315.664c0-3.22,6.348-1.035,6.348-4.37,0-1.725-3.734-2.875-12.416-2.875h-4.172c8.682,0,12.416,1.15,12.416,2.875,0,3.335-6.348,1.15-6.348,4.37,0,3.114,14.937,1.035,15.124,4.485.115,2.116-3.915,2.6-9.242,2.76l-.34.009c1.482.013,3.026.035,4.512-.009,5.327-.157,9.357-.644,9.242-2.76C329.028,316.7,314.091,318.778,314.091,315.664Z" transform="translate(-265.438 -269.429)" fill="#a2e1f8"/>
          <path id="Trazado_995854" data-name="Trazado 995854" transform="translate(0)" fill="none" stroke="#000" stroke-linecap="round" stroke-linejoin="round" stroke-miterlimit="10" stroke-width="15"/>
          <path id="Trazado_995855" data-name="Trazado 995855" d="M184.43,120.473l-8.956,15.513a10.342,10.342,0,1,0,17.913,0Z" transform="translate(-152.066 -105.243)" fill="#82d5f2"/>
          <path id="Trazado_995856" data-name="Trazado 995856" d="M310.067,42.453l-4,6.921a4.614,4.614,0,1,0,7.992,0Z" transform="translate(-266.831 -37.086)" fill="#baeefc"/>
          <path id="Trazado_995857" data-name="Trazado 995857" d="M181.69,7.453,178.9,12.289a3.224,3.224,0,1,0,5.584,0Z" transform="translate(-155.9 -6.511)" fill="#82d5f2"/>
          <path id="Trazado_995858" data-name="Trazado 995858" d="M64.723,149.445c-.14-2.6-4.337-2.93-8.78-3.285-1.654-.132-3.216-.256-4.455-.487-.526-.1-2.111-.2-1.815-1.062.241-.7,1.692-.7,2.273-.8,1.58-.272,3.543-.689,3.941-2.515.485-2.227-1.848-3.22-3.609-3.659a40.507,40.507,0,0,0-8.815-.814,11.181,11.181,0,0,0-1.322-7.777l-8.956-15.513a.961.961,0,0,0-1.642,0l-2.225,3.853a.949.949,0,0,0,1.642.948l1.4-2.431L40.5,129.993a9.394,9.394,0,1,1-16.27,0l4.1-7.108a.949.949,0,0,0-1.642-.948l-4.1,7.108a11.18,11.18,0,0,0-1.322,7.777,40.5,40.5,0,0,0-8.815.814c-1.763.439-4.091,1.431-3.609,3.659.4,1.826,2.362,2.244,3.941,2.515.5.087,2.261.195,2.321.984.049.652-1.427.8-1.863.878-1.24.231-2.8.356-4.455.487-4.443.355-8.64.689-8.78,3.285a2.363,2.363,0,0,0,.64,1.761c1.352,1.47,4.646,1.854,9.521,2,1.349.04,2.738.026,4.081.013a41.337,41.337,0,0,1,5.971.2c.531.083,2.133.3,1.889,1.151-.173.6-1.581.742-2.023.838-1.565.341-3.93.857-3.93,3.348,0,1.713,1.82,2.946,5.563,3.768a52.78,52.78,0,0,0,10.778.977,51.419,51.419,0,0,0,10.618-.967c3.676-.818,5.463-2.054,5.463-3.778,0-2.49-2.365-3.006-3.93-3.348-.462-.1-1.859-.233-2.019-.855-.218-.846,1.364-1.053,1.885-1.134a41.373,41.373,0,0,1,5.971-.2c1.343.013,2.733.026,4.081-.013a.949.949,0,0,0-.056-1.9c-1.312.039-2.682.025-4.007.013a42.276,42.276,0,0,0-6.28.22c-1.453.226-3.258.817-3.495,2.5-.3,2.147,1.833,2.85,3.516,3.217,1.982.432,2.438.712,2.438,1.495,0,.36-.832,1.227-3.979,1.927a49.513,49.513,0,0,1-10.206.921,51.614,51.614,0,0,1-10.371-.932c-3.222-.708-4.074-1.563-4.074-1.916,0-.783.456-1.062,2.438-1.495,1.683-.367,3.818-1.07,3.516-3.217-.237-1.681-2.041-2.273-3.495-2.5a42.344,42.344,0,0,0-6.28-.22c-1.325.013-2.7.026-4.007-.013-1.941-.057-7.1-.208-8.182-1.386a.464.464,0,0,1-.142-.375c.009-.172.4-.548,1.812-.87a40.606,40.606,0,0,1,5.226-.627,40.609,40.609,0,0,0,5.11-.607c1.187-.262,2.731-.764,2.958-2.149.379-2.313-2.139-3.051-3.9-3.353-.6-.1-2.5-.231-2.424-1.222.061-.79,1.677-1.106,2.229-1.243a40.428,40.428,0,0,1,8.9-.761,11.6,11.6,0,0,0,.774,1.619,11.29,11.29,0,0,0,19.555,0,11.6,11.6,0,0,0,.774-1.619,40.428,40.428,0,0,1,8.9.761c.557.139,2.181.455,2.229,1.243.061.995-1.827,1.119-2.424,1.222-1.6.275-3.573.713-3.894,2.615-.309,1.823,1.494,2.566,2.953,2.888a40.609,40.609,0,0,0,5.11.607,40.607,40.607,0,0,1,5.226.627c1.41.321,1.8.7,1.812.87.034.621-1.255,1.146-3.534,1.442a.949.949,0,0,0,.244,1.88c1.458-.189,5.332-.691,5.184-3.424Z" transform="translate(0 -98.776)"/>
          <path id="Trazado_995859" data-name="Trazado 995859" d="M255.941,303.907a.948.948,0,0,0-1.642-.948,5.544,5.544,0,0,1-4.851,2.8.948.948,0,0,0,0,1.9A7.421,7.421,0,0,0,255.941,303.907Z" transform="translate(-217.085 -264.245)"/>
          <path id="Trazado_995860" data-name="Trazado 995860" d="M303.5,50.777a5.562,5.562,0,0,0,4.817-8.344l-4-6.921a.961.961,0,0,0-1.642,0l-4,6.921a5.562,5.562,0,0,0,4.817,8.344Zm-3.175-7.4,3.175-5.5,3.175,5.5a3.666,3.666,0,1,1-6.35,0Z" transform="translate(-260.265 -30.619)"/>
          <path id="Trazado_995861" data-name="Trazado 995861" d="M175.128,11.606a4.172,4.172,0,0,0,3.613-6.258L175.949.512a.961.961,0,0,0-1.642,0l-2.792,4.836a4.172,4.172,0,0,0,3.613,6.258ZM173.157,6.3l1.971-3.413L177.1,6.3a2.276,2.276,0,1,1-3.941,0Z" transform="translate(-149.338 -0.044)"/>
        </g>
        <rect id="Rectángulo_455374" data-name="Rectángulo 455374" width="73" height="65" transform="translate(736.448 4144.92)" fill="none"/>
      </g>
    </g>
  </g>
</svg>
