<svg xmlns="http://www.w3.org/2000/svg" xmlns:xlink="http://www.w3.org/1999/xlink" width="69" height="69" viewBox="0 0 69 69">
  <defs>
    <clipPath id="clip-path">
      <path id="Trazado_996466" data-name="Trazado 996466" d="M1.255,31.791H22.52V30.41H1.255ZM14.46,9.09c-1.385,2.941.319,3.53.856,6.686a7.532,7.532,0,0,0,.5-3.929,7.029,7.029,0,0,1,2.523,6.8,3.753,3.753,0,0,0,.509-2.258c2.836,2.625,2.4,8.861-2.087,11.541a5.682,5.682,0,0,0,.381-4.205,3.773,3.773,0,0,1-1.876,1.659c1.016-1.441.846-2.979-.051-5.116A6.224,6.224,0,0,1,13.7,23.628c.408-3.283-.814-3.518-1.041-6.033-1.941,1.513-1.039,3.609-2.365,5.85a7.412,7.412,0,0,0-1.065-2.733,5.816,5.816,0,0,0-.938,4.742,4.615,4.615,0,0,1-1.219-2.639,5.964,5.964,0,0,0-.05,5.344c-4.93-4.127-5.446-8.943-1.088-13.043A5.729,5.729,0,0,0,6,17.941c.386-2.54,1.71-1.879,1.074-5.086A5.888,5.888,0,0,1,9.84,15.929c0-4.326,1.412-5.72,4.621-6.84M9.014,10.343a8.649,8.649,0,0,0-3.865-4.65c.892,4.849-.961,3.851-1.5,7.691a9.343,9.343,0,0,1-.1-4.27A12,12,0,0,0,7.682,28.834a6.566,6.566,0,0,1-.619-4.954,3.025,3.025,0,0,0,1.565,2.2c-.406-2.267.153-4.209.682-4.739a8.27,8.27,0,0,1,.943,2.82c1.812-2.294.719-4.39,2.188-5.809.311,2.443,1.371,2.106.955,5.948a5.114,5.114,0,0,0,1.85-3.057c.83,2.138.179,3.464-.761,4.905a4.59,4.59,0,0,0,2.361-1.48A7.548,7.548,0,0,1,16.1,28.6c8.14-1.808,9.492-13.6,5.523-17.568a6.047,6.047,0,0,1-.712,3.415,11.049,11.049,0,0,0-3.53-10.282,12.234,12.234,0,0,1-.7,5.94C15.926,5.338,13.543,4.446,15.481,0,10.99,1.693,9.014,3.8,9.014,10.343" transform="translate(0)"/>
    </clipPath>
  </defs>
  <g id="Grupo_1178968" data-name="Grupo 1178968" transform="translate(-240.945 -2810.438)">
    <g id="Rectángulo_455408" data-name="Rectángulo 455408" transform="translate(275.445 2810.438) rotate(45)" fill="#fff" stroke="#f21616" stroke-width="4">
      <rect width="48.79" height="48.79" stroke="none"/>
      <rect x="2" y="2" width="44.79" height="44.79" fill="none"/>
    </g>
    <g id="Grupo_1178970" data-name="Grupo 1178970" transform="translate(264.663 2825.829)">
      <g id="Grupo_1178969" data-name="Grupo 1178969" transform="translate(0)" clip-path="url(#clip-path)">
        <rect id="Rectángulo_455410" data-name="Rectángulo 455410" width="28.144" height="31.791" transform="translate(-2.55 0)"/>
      </g>
    </g>
  </g>
</svg>
