<svg xmlns="http://www.w3.org/2000/svg" width="154" height="154" viewBox="0 0 154 154">
  <g id="Grupo_1179418" data-name="Grupo 1179418" transform="translate(-313.391 -3285.992)">
    <g id="Grupo_1179417" data-name="Grupo 1179417">
      <g id="Grupo_1177313" data-name="Grupo 1177313" transform="translate(3.332 -4085.008)">
        <circle id="Elipse_13624" data-name="Elipse 13624" cx="77" cy="77" r="77" transform="translate(310.059 7371)" fill="#fff"/>
      </g>
    </g>
    <g id="alarma" transform="translate(339.615 3291.033)">
      <path id="Trazado_996496" data-name="Trazado 996496" d="M62.42,432.185h76.04v8.9H62.42Z" transform="translate(-50.16 -325.623)" fill="#595959"/>
      <path id="Trazado_996497" data-name="Trazado 996497" d="M417.754,432.185H424v8.9h-6.251Z" transform="translate(-335.705 -325.623)" fill="#454545"/>
      <path id="Trazado_996498" data-name="Trazado 996498" d="M94.832,385.633h63.309v9.143H94.832Z" transform="translate(-76.206 -288.214)" fill="#bebebe"/>
      <path id="Trazado_996499" data-name="Trazado 996499" d="M385.343,385.633h6.251v9.143h-6.251Z" transform="translate(-309.66 -288.214)" fill="#aaa"/>
      <path id="Trazado_996500" data-name="Trazado 996500" d="M172.9,118.6H119.144V80.219a26.879,26.879,0,1,1,53.758,0V118.6Z" transform="translate(-95.743 -21.185)" fill="#bfc0dc"/>
      <path id="Trazado_996502" data-name="Trazado 996502" d="M230.425,139.892a3.433,3.433,0,0,1-3.413-3.061L224.185,110.9a1.782,1.782,0,0,1,1.772-1.975h8.937a1.782,1.782,0,0,1,1.772,1.975l-2.827,25.932A3.433,3.433,0,0,1,230.425,139.892Z" transform="translate(-180.145 -65.852)" fill="#f6f6f6"/>
      <circle id="Elipse_13682" data-name="Elipse 13682" cx="3.516" cy="3.516" r="3.516" transform="translate(46.764 79.47)" fill="#f6f6f6"/>
      <path id="Trazado_996503" data-name="Trazado 996503" d="M235.587,286.745a4.989,4.989,0,1,0,4.989,4.989A4.995,4.995,0,0,0,235.587,286.745Zm0,7.032a2.043,2.043,0,1,1,2.043-2.043A2.045,2.045,0,0,1,235.587,293.777Z" transform="translate(-185.307 -208.748)"/>
      <path id="Trazado_996504" data-name="Trazado 996504" d="M18.624,213.459a1.473,1.473,0,0,0-1.473-1.473H1.473a1.473,1.473,0,0,0,0,2.946H17.151A1.473,1.473,0,0,0,18.624,213.459Z" transform="translate(0 -148.672)"/>
      <path id="Trazado_996505" data-name="Trazado 996505" d="M61.868,40.578a1.473,1.473,0,0,0,2.083-2.083L52.866,27.409a1.473,1.473,0,0,0-2.083,2.083Z" transform="translate(-40.462)"/>
      <path id="Trazado_996506" data-name="Trazado 996506" d="M434.327,211.986H418.649a1.473,1.473,0,0,0,0,2.946h15.678a1.473,1.473,0,0,0,0-2.946Z" transform="translate(-335.24 -148.672)"/>
      <path id="Trazado_996507" data-name="Trazado 996507" d="M391.678,41.01a1.468,1.468,0,0,0,1.042-.431l11.086-11.086a1.473,1.473,0,0,0-2.083-2.083L390.637,38.5a1.473,1.473,0,0,0,1.041,2.515Z" transform="translate(-313.567 -0.001)"/>
      <path id="Trazado_996508" data-name="Trazado 996508" d="M132.433,120.247H127.54v-7.67a1.473,1.473,0,0,0-1.473-1.473h-3.3V92.128a1.473,1.473,0,1,0-2.946,0V111.1H69.007V74.192a25.406,25.406,0,1,1,50.812,0V87.407a1.473,1.473,0,1,0,2.946,0V74.192a28.352,28.352,0,1,0-56.7,0V111.1h-3.3a1.473,1.473,0,0,0-1.473,1.473v7.67H56.393a1.473,1.473,0,0,0-1.473,1.473v8.9a1.473,1.473,0,0,0,1.473,1.473h7.531a1.473,1.473,0,1,0,0-2.946H57.866v-5.958H130.96v5.958h-61.7a1.473,1.473,0,0,0,0,2.946h63.169a1.473,1.473,0,0,0,1.473-1.473v-8.9A1.473,1.473,0,0,0,132.433,120.247Zm-68.2,0v-6.2h60.362v6.2Z" transform="translate(-44.133 -15.158)"/>
      <path id="Trazado_996509" data-name="Trazado 996509" d="M231.291,102.506a3.26,3.26,0,0,0-2.423-1.082h-8.937a3.255,3.255,0,0,0-3.236,3.608l1.207,11.074a1.473,1.473,0,1,0,2.929-.319l-1.207-11.074a.309.309,0,0,1,.307-.342h8.937a.309.309,0,0,1,.307.342l-2.827,25.932a1.96,1.96,0,0,1-3.9,0L221.323,120.3a1.473,1.473,0,1,0-2.929.319l1.128,10.348a4.906,4.906,0,0,0,9.754,0l2.827-25.932a3.26,3.26,0,0,0-.813-2.526Z" transform="translate(-174.12 -59.825)"/>
    </g>
  </g>
</svg>
