<svg xmlns="http://www.w3.org/2000/svg" xmlns:xlink="http://www.w3.org/1999/xlink" width="69" height="69" viewBox="0 0 69 69">
  <defs>
    <clipPath id="clip-path">
      <rect id="Rectángulo_455406" data-name="Rectángulo 455406" width="29.6" height="29.224" transform="translate(0 0)" fill="none"/>
    </clipPath>
  </defs>
  <g id="Grupo_1178971" data-name="Grupo 1178971" transform="translate(-240.945 -2810.438)">
    <g id="Rectángulo_455408" data-name="Rectángulo 455408" transform="translate(275.445 2810.438) rotate(45)" fill="#fff" stroke="#f21616" stroke-width="4">
      <rect width="48.79" height="48.79" stroke="none"/>
      <rect x="2" y="2" width="44.79" height="44.79" fill="none"/>
    </g>
    <g id="Grupo_1178972" data-name="Grupo 1178972" transform="translate(261.271 2827.308)">
      <g id="Grupo_1178956" data-name="Grupo 1178956" transform="translate(0 0)" clip-path="url(#clip-path)">
        <path id="Trazado_996460" data-name="Trazado 996460" d="M8.742,14.125v7.751l-3.559,2H9.408l1.273,1.071,1.07-1.389,4.572-.839L12.764,20.92l-.027-5.38a1.129,1.129,0,0,1,.289-.759l2.735-3.043a.988.988,0,0,1,.453-.286l1.034-.307a.488.488,0,0,0,.257-.183l2.463-3.438v-.55h-.188L17.1,9.533a.787.787,0,0,1-.545.218H14.906l-1.011.835a.269.269,0,0,1-.173.062h-.234a.124.124,0,0,1-.117-.165l.325-.93a.731.731,0,0,0,.041-.218l.074-2.329a.954.954,0,0,1,.181-.53l2.881-3.987-.044-.68h-.188L13.762,4.978h-.232L12.749,1.4h-.376l.339,6.36a1.251,1.251,0,0,1-.219.777l-1.318,1.917a.107.107,0,0,1-.088.046h-.475a.083.083,0,0,1-.08-.06L9.061,5.506a3.448,3.448,0,0,1-.145-.992V.984h-.26L7.7,2.5H7.382L5.675,0l-.492.4L7.324,4.168v2.2l-.434.058L3.447,4.312l-.275.477L7.3,8.4a1.117,1.117,0,0,1,.237.292l.587,1.047a.9.9,0,0,1,.115.438v.431L5.642,9.533a.916.916,0,0,0-.353-.07H4.524a.658.658,0,0,0-.357.105L2.333,10.75v.3H3.871a.786.786,0,0,1,.4.108L8.439,13.6a.612.612,0,0,1,.3.528" transform="translate(-1.538 -0.001)"/>
        <path id="Trazado_996461" data-name="Trazado 996461" d="M0,71.158V71.5H29.6V69.943l-1.91-.376.55-1.158-3.067-.463,2.112-1.389-2.228-1.591-.116-.724-.029-.087a21.253,21.253,0,0,1-6.655,2.758l-1.717,2.372-4.649-1.774-5.283,2.56a1.435,1.435,0,0,1-.648.142A24.331,24.331,0,0,0,0,71.158" transform="translate(0 -42.281)"/>
        <path id="Trazado_996462" data-name="Trazado 996462" d="M36.6,55.12l-6.2-2.346.572-.021a8.194,8.194,0,0,0,6.663-3.975l.006-.011c3.825-5.634,7.074-6.242,8.293-6.242a2.4,2.4,0,0,1,.521.046l.137.034L45.6,44.687l3.376-1.125-.009.169a7.152,7.152,0,0,1-1.82,4.415,12.02,12.02,0,0,1-3.639,2.731,20.836,20.836,0,0,1-5.122,1.778Zm-5.089-2.172,5.006,1.893,1.741-2.4.046-.008a20.463,20.463,0,0,0,5.108-1.767c2.3-1.178,5.062-3.305,5.318-6.78l-3.567,1.189,1.091-2.3a2.86,2.86,0,0,0-.323-.017c-1.182,0-4.336.6-8.1,6.136a8.1,8.1,0,0,1-1.641,1.979,8.206,8.206,0,0,1-4.682,2.076" transform="translate(-20.03 -28.025)"/>
        <path id="Trazado_996463" data-name="Trazado 996463" d="M76,54.017a.449.449,0,1,1-.448-.448.448.448,0,0,1,.448.448" transform="translate(-49.495 -35.304)"/>
        <rect id="Rectángulo_455405" data-name="Rectángulo 455405" width="21.157" height="0.463" transform="translate(0 16.324)"/>
      </g>
    </g>
  </g>
</svg>
