<svg xmlns="http://www.w3.org/2000/svg" width="84" height="84" viewBox="0 0 84 84">
  <g id="Grupo_1179419" data-name="Grupo 1179419" transform="translate(-186 -6163.791)">
    <g id="Grupo_1177904" data-name="Grupo 1177904" transform="translate(-520 4484.871)" style="isolation: isolate">
      <g id="Grupo_1119665" data-name="Grupo 1119665" transform="translate(534.111 -3840.08)">
        <rect id="Rectángulo_402006" data-name="Rectángulo 402006" width="84" height="84" rx="5" transform="translate(171.889 5519)" fill="#2c2e8c"/>
      </g>
    </g>
    <path id="Trazado_996341" data-name="Trazado 996341" d="M22.252,51.345l9.427,5.442,9.427-5.442L31.678,45.9Zm30.42-11.082a5.479,5.479,0,1,1-5.479,5.479,5.479,5.479,0,0,1,5.479-5.479ZM45.091,74.009a.932.932,0,0,1-1.637.891l-2.409-4.414a.933.933,0,0,1,.333-1.242l4.293-2.618a.933.933,0,1,1,.972,1.593l-2.706,1.65A25.675,25.675,0,0,0,63.1,69.191a.932.932,0,1,1,.76,1.7,27.559,27.559,0,0,1-19.958.941l1.187,2.175ZM31.983,25.043a.932.932,0,1,1,.044-1.863l5.027.12a.932.932,0,0,1,.909.909l.12,5.027a.932.932,0,1,1-1.863.044l-.076-3.17A25.62,25.62,0,0,0,27.15,43.048a.933.933,0,1,1-1.856-.19A27.465,27.465,0,0,1,34.462,25.1Zm48.958,13.13a.933.933,0,1,1,1.593.972l-2.618,4.293a.933.933,0,0,1-1.282.31L74.26,41.361a.932.932,0,0,1,.891-1.636l2.783,1.518a25.585,25.585,0,0,0-10.17-16.257.934.934,0,1,1,1.1-1.512A27.5,27.5,0,0,1,79.653,40.286l1.288-2.113ZM84.023,52.96,74.6,58.4V69.286l9.42-5.439V52.96ZM72.732,58.4l-9.42-5.439V63.847l9.42,5.439Zm-8.493-7.054L73.667,45.9,83.1,51.345l-9.428,5.444ZM63.028,16.595l-9.42,5.439V32.92l9.42-5.439V16.594ZM51.737,22.033l-9.42-5.439V27.482l9.42,5.438ZM43.244,14.98l9.428-5.444L62.1,14.98l-9.428,5.443L43.244,14.98ZM42.032,52.96V63.847l-9.42,5.439V58.4l9.42-5.439ZM30.741,58.4V69.283l-9.42-5.439V52.962Z" transform="translate(175.328 6162.335)" fill="#bfc0dc" fill-rule="evenodd"/>
  </g>
</svg>
