<svg xmlns="http://www.w3.org/2000/svg" width="154" height="154" viewBox="0 0 154 154">
  <g id="Grupo_1179420" data-name="Grupo 1179420" transform="translate(-1128.801 -3285.992)">
    <g id="Grupo_1177314" data-name="Grupo 1177314" transform="translate(818.742 -4085.008)">
      <circle id="Elipse_13624" data-name="Elipse 13624" cx="77" cy="77" r="77" transform="translate(310.059 7371)" fill="#fff"/>
    </g>
    <g id="bomba-nuclear" transform="translate(1158.043 3312.457)">
      <g id="Grupo_1178992" data-name="Grupo 1178992" transform="translate(1.541 1.541)">
        <g id="Grupo_1178982" data-name="Grupo 1178982" transform="translate(52.38 35.433)">
          <path id="Trazado_996477" data-name="Trazado 996477" d="M75.055,24V81H53.487V57.893H47.325l2.681-5.377a3.679,3.679,0,0,0,.4-1.664,3.735,3.735,0,0,0-3.744-3.744h-.216a3.727,3.727,0,0,0-3.266,1.926L37.45,59.341A3.18,3.18,0,0,1,35,60.958V43.75c7.179-.616,12.325-2.326,12.325-4.344a1.484,1.484,0,0,0-.493-1.048l3.574-3.574h7.7l3.081-6.162h6.162L70.433,24Z" transform="translate(-35 -24)" fill="#bfc0dc"/>
        </g>
        <g id="Grupo_1178983" data-name="Grupo 1178983" transform="translate(0 38.514)">
          <path id="Trazado_996478" data-name="Trazado 996478" d="M41.055,42.669V58.26a3.07,3.07,0,0,1-.755.092h-.37A3.166,3.166,0,0,1,37.1,56.6L32.813,48.03a3.61,3.61,0,0,0-3.235-2H29.27a3.616,3.616,0,0,0-3.62,3.62,3.762,3.762,0,0,0,.508,1.864l4.113,6.84H25.418a4.62,4.62,0,0,1-4.129-2.557l-1.8-3.6H14.865V79.92H1V26H7.162l3.081,10.784h6.162l3.081-4.622h6.162l3.959,4.745a1.894,1.894,0,0,0-.878,1.417C28.73,40.343,33.876,42.053,41.055,42.669Z" transform="translate(-1 -26)" fill="#bfc0dc"/>
        </g>
        <g id="Grupo_1178984" data-name="Grupo 1178984" transform="translate(13.865 64.704)">
          <path id="Trazado_996479" data-name="Trazado 996479" d="M67,47.622V70.73H60.839V61.487H51.6V70.73H42.352V64.568h-7.7V70.73H25.406V61.487H16.162V70.73H10V43h4.622l1.8,3.6a4.62,4.62,0,0,0,4.129,2.557h4.853l7.7,9.243H46.974l10.784-4.622,3.081-6.162Z" transform="translate(-10 -43)" fill="#bfc0dc"/>
        </g>
        <g id="Grupo_1178985" data-name="Grupo 1178985" transform="translate(24.649 58.542)">
          <path id="Trazado_996480" data-name="Trazado 996480" d="M44.73,52.85a3.18,3.18,0,0,0,2.45-1.618l5.731-10.306A3.727,3.727,0,0,1,56.177,39h.216a3.735,3.735,0,0,1,3.744,3.744,3.679,3.679,0,0,1-.4,1.664l-2.681,5.377-3.081,6.162L43.19,60.568H29.325l-7.7-9.243-4.113-6.84A3.762,3.762,0,0,1,17,42.62,3.616,3.616,0,0,1,20.62,39h.308a3.61,3.61,0,0,1,3.235,2l4.283,8.566a3.166,3.166,0,0,0,2.835,1.756h.37a3.07,3.07,0,0,0,.755-.092v-.015a3.154,3.154,0,0,0,2.265-2.064l1.91-5.746a1.958,1.958,0,0,1,1.849-1.325,1.926,1.926,0,0,1,1.91,1.664l.924,6.393a3.158,3.158,0,0,0,3.143,2.727A2.277,2.277,0,0,0,44.73,52.85Z" transform="translate(-17 -39)" fill="#aab2bd"/>
        </g>
        <g id="Grupo_1178986" data-name="Grupo 1178986" transform="translate(7.703)">
          <path id="Trazado_996481" data-name="Trazado 996481" d="M75.326,13.325a7.636,7.636,0,0,0-3.5.878,6.172,6.172,0,0,0-5.746-3.959,6.1,6.1,0,0,0-3.112.878A10.766,10.766,0,0,0,44.514,4.251a10.766,10.766,0,0,0-18.456,6.871,6.1,6.1,0,0,0-3.112-.878A6.172,6.172,0,0,0,17.2,14.2,7.688,7.688,0,1,0,13.7,28.73c.092,0,.185-.031.277-.031a5.433,5.433,0,0,0-.277,1.571c0,3.4,3.451,6.162,7.7,6.162a10.265,10.265,0,0,0,1.556-.123c0,.046-.015.077-.015.123,0,3.4,3.451,6.162,7.7,6.162s7.7-2.758,7.7-6.162V71.759a3.154,3.154,0,0,0,2.265-2.064l1.91-5.746a1.958,1.958,0,0,1,1.849-1.325,1.926,1.926,0,0,1,1.91,1.664l.924,6.393a3.158,3.158,0,0,0,3.143,2.727,2.275,2.275,0,0,0,.324-.015V36.433c0,3.4,3.451,6.162,7.7,6.162s7.7-2.758,7.7-6.162c0-.046-.015-.077-.015-.123a10.265,10.265,0,0,0,1.556.123c4.252,0,7.7-2.758,7.7-6.162a5.433,5.433,0,0,0-.277-1.571c.092,0,.185.031.277.031a7.7,7.7,0,0,0,0-15.406Z" transform="translate(-6 -1)" fill="#ccd1d9"/>
        </g>
        <g id="Grupo_1178987" data-name="Grupo 1178987" transform="translate(55.461 83.191)">
          <rect id="Rectángulo_455414" data-name="Rectángulo 455414" width="9" height="9" transform="translate(-0.001 -0.216)" fill="#fff"/>
        </g>
        <g id="Grupo_1178988" data-name="Grupo 1178988" transform="translate(38.514 86.272)">
          <rect id="Rectángulo_455415" data-name="Rectángulo 455415" width="8" height="6" transform="translate(-0.055 -0.297)" fill="#fff"/>
        </g>
        <g id="Grupo_1178989" data-name="Grupo 1178989" transform="translate(20.027 83.191)">
          <rect id="Rectángulo_455416" data-name="Rectángulo 455416" width="9" height="9" transform="translate(0.432 -0.216)" fill="#fff"/>
        </g>
        <g id="Grupo_1178990" data-name="Grupo 1178990" transform="translate(77.029 67.785)">
          <rect id="Rectángulo_455417" data-name="Rectángulo 455417" width="9" height="9" transform="translate(0.431 0.189)" fill="#fff"/>
        </g>
        <g id="Grupo_1178991" data-name="Grupo 1178991" transform="translate(77.029 52.38)">
          <rect id="Rectángulo_455418" data-name="Rectángulo 455418" width="9" height="10" transform="translate(0.431 -0.404)" fill="#fff"/>
        </g>
      </g>
      <g id="Grupo_1178993" data-name="Grupo 1178993">
        <path id="Trazado_996482" data-name="Trazado 996482" d="M88.529,35.433l-3.081,4.622h-6.29l-3.081,6.162H68.688l-3.072,3.072c-2.525-1.53-6.774-2.286-10.155-2.661V42.7a10.293,10.293,0,0,0,6.162,1.978c4.465,0,8.2-2.651,9.059-6.164.062,0,.123,0,.185,0,5.1,0,9.243-3.456,9.243-7.7,0-.043,0-.086,0-.128a9.244,9.244,0,0,0-1.539-18.359,8.874,8.874,0,0,0-2.781.45,7.627,7.627,0,0,0-6.463-3.531,7.437,7.437,0,0,0-1.883.245A12.34,12.34,0,0,0,55.461,0a12.208,12.208,0,0,0-7.7,2.707A12.208,12.208,0,0,0,40.055,0,12.34,12.34,0,0,0,28.072,9.488a7.437,7.437,0,0,0-1.883-.245,7.627,7.627,0,0,0-6.463,3.531,8.874,8.874,0,0,0-2.781-.45,9.244,9.244,0,0,0-1.539,18.359c0,.042,0,.085,0,.128,0,4.3,4.229,7.738,9.428,7.7.858,3.513,4.594,6.164,9.059,6.164A10.293,10.293,0,0,0,40.055,42.7v3.93c-3.134.347-7,1.026-9.565,2.342l-3.577-4.294H19.2L16.122,49.3H11.946L8.864,38.514H0v57H95.516V35.433ZM64.653,52.383c-.621.821-3.845,2.017-9.193,2.648v-5.3C61.361,50.426,64.126,51.739,64.653,52.383ZM33.893,41.6c-3.352,0-6.087-2.018-6.161-4.519l.08-2.054-1.855.305a8.23,8.23,0,0,1-1.308.1c-3.4,0-6.162-2.074-6.162-4.622a3.463,3.463,0,0,1,.206-1.089l.692-2.106L17.17,27.7l-.223.028a6.162,6.162,0,0,1,0-12.325,6.075,6.075,0,0,1,2.8.709l1.527.789.616-1.605a4.586,4.586,0,0,1,4.3-2.973,4.54,4.54,0,0,1,2.331.659l2.166,1.279.156-2.511a9.229,9.229,0,0,1,15.814-5.89l1.1,1.125,1.1-1.125a9.228,9.228,0,0,1,15.814,5.89l.156,2.511,2.166-1.279A4.555,4.555,0,0,1,73.627,15.3l.616,1.605,1.527-.789a6.086,6.086,0,0,1,2.8-.709,6.163,6.163,0,0,1,.068,12.326l-2.507-.116.692,2.106a3.463,3.463,0,0,1,.206,1.089c0,2.548-2.764,4.622-6.162,4.622a8.055,8.055,0,0,1-1.308-.106L67.7,35.022l.08,2.063c-.08,2.5-2.813,4.511-6.161,4.511-3.4,0-6.162-2.074-6.162-4.622H52.38V55.31c-1.433.094-2.969.151-4.622.151s-3.189-.057-4.622-.151V36.974H40.055C40.055,39.522,37.291,41.6,33.893,41.6ZM70.866,92.434H67.785V83.191H55.461v9.243H49.3V86.272H38.514v6.162H32.352V83.191H20.027v9.243H16.946V67.785h2.129l1.379,2.756a6.125,6.125,0,0,0,5.511,3.406h4.124l7.7,9.243H52.7l11.593-4.968L67.2,72.407h3.67Zm-6.162,0H58.542V86.272H64.7Zm-18.487,0H41.6V89.353h4.622Zm-16.946,0H23.109V86.272h6.162ZM67.554,64.8l-2.262,4.522h0l-.3.6-.125.248h0l-2.828,5.657L52.064,80.11H39.237l-7.167-8.6-4.044-6.74a2.079,2.079,0,0,1,1.784-3.147h.305a2.067,2.067,0,0,1,1.859,1.149l4.284,8.569a4.687,4.687,0,0,0,4.217,2.607h.371a4.705,4.705,0,0,0,4.472-3.224l1.915-5.745a.415.415,0,0,1,.775.068l.914,6.392a4.717,4.717,0,0,0,8.792,1.625l5.728-10.31a2.2,2.2,0,0,1,1.921-1.131h.225A2.2,2.2,0,0,1,67.554,64.8ZM52.38,71.828A1.6,1.6,0,0,1,51.974,71l-.914-6.393A3.481,3.481,0,0,0,44.313,64l-1.177,3.531V58.389c1.644.106,3.224.153,4.622.153s2.978-.046,4.622-.153Zm-12.325-16.8c-5.347-.632-8.572-1.827-9.193-2.648.527-.644,3.291-1.957,9.193-2.651ZM3.081,41.6h3.46L9.622,52.38h8.148l3.081-4.622h4.616l2.661,3.192a2.8,2.8,0,0,0-.4,1.43c0,3.388,6.105,5.042,12.325,5.737V70.808a1.622,1.622,0,0,1-1.04-.844l-4.284-8.57a5.135,5.135,0,0,0-4.616-2.852H29.81a5.159,5.159,0,0,0-4.425,7.815l2.705,4.509H25.966a3.063,3.063,0,0,1-2.756-1.7L20.98,64.7H13.865v27.73H3.081ZM92.434,92.434H73.948V69.326h-5.21L70.31,66.18a5.338,5.338,0,0,0,.555-2.359,5.284,5.284,0,0,0-5.278-5.28h-.225a5.28,5.28,0,0,0-4.614,2.716l-5.287,9.518V58.117c6.219-.695,12.325-2.349,12.325-5.737a2.733,2.733,0,0,0-.119-.783l2.3-2.3h8.017l3.081-6.162H87.1l3.081-4.622h2.257Z"/>
        <path id="Trazado_996483" data-name="Trazado 996483" d="M50,46.325H62.325V34H50Zm3.081-9.243h6.162v6.162H53.081Z" transform="translate(27.029 18.38)"/>
        <path id="Trazado_996484" data-name="Trazado 996484" d="M50,56.325H62.325V44H50Zm3.081-9.243h6.162v6.162H53.081Z" transform="translate(27.029 23.785)"/>
        <path id="Trazado_996485" data-name="Trazado 996485" d="M37.487,13.7h3.081a7.7,7.7,0,0,0-15.276-1.411A7.7,7.7,0,0,0,26.7,27.568V24.487a4.622,4.622,0,0,1,0-9.243h1.541V13.7a4.622,4.622,0,0,1,9.243,0Z" transform="translate(10.271 3.243)"/>
        <path id="Trazado_996486" data-name="Trazado 996486" d="M40.162,27.946a6.174,6.174,0,0,0,6.005-4.779,6.162,6.162,0,1,0-7.546-6.005H41.7a3.081,3.081,0,1,1,3.081,3.081H43.243v1.541a3.081,3.081,0,0,1-6.162,0H34A6.168,6.168,0,0,0,40.162,27.946Z" transform="translate(18.38 5.946)"/>
      </g>
    </g>
  </g>
</svg>
