<svg xmlns="http://www.w3.org/2000/svg" width="84" height="84" viewBox="0 0 84 84">
  <g id="Grupo_1179414" data-name="Grupo 1179414" transform="translate(-186 -4515.625)">
    <g id="Grupo_1178918" data-name="Grupo 1178918">
      <g id="Grupo_1178917" data-name="Grupo 1178917" transform="translate(0 205)">
        <g id="Grupo_1178914" data-name="Grupo 1178914" transform="translate(-520 2631.705)">
          <g id="Grupo_1119665" data-name="Grupo 1119665" transform="translate(534.111 -3840.08)">
            <rect id="Rectángulo_402006" data-name="Rectángulo 402006" width="84" height="84" rx="5" transform="translate(171.889 5519)" fill="#cdbfdc"/>
          </g>
        </g>
      </g>
      <g id="Grupo_1178908" data-name="Grupo 1178908" transform="translate(-965.564 378.373)">
        <g id="Grupo_1178408" data-name="Grupo 1178408" transform="translate(1164.711 4149)">
          <g id="Grupo_1178406" data-name="Grupo 1178406" transform="translate(0.886 0.886)">
            <path id="Trazado_995862" data-name="Trazado 995862" d="M87.105,70.611H83.376a.932.932,0,0,0-.932.932v8.39h5.593v-8.39A.932.932,0,0,0,87.105,70.611Z" transform="translate(-74.986 -63.153)" fill="#dbd8db"/>
            <path id="Trazado_995863" data-name="Trazado 995863" d="M85.241,73.408v-2.8H83.376a.932.932,0,0,0-.932.932v8.39h5.593V75.272h-.932A1.864,1.864,0,0,1,85.241,73.408Z" transform="translate(-74.986 -63.153)" fill="#c9c5c9"/>
            <path id="Trazado_995864" data-name="Trazado 995864" d="M35.111,139.316l8.39,3.729,8.39-3.729a5.593,5.593,0,0,0-5.593-5.593H40.7a5.593,5.593,0,0,0-5.593,5.593Z" transform="translate(-33.247 -118.807)" fill="#eceaec"/>
            <path id="Trazado_995865" data-name="Trazado 995865" d="M35.111,139.315l8.39,3.729,8.39-3.729a5.559,5.559,0,0,0-.755-2.8H42.569a1.867,1.867,0,0,1-1.864-1.864v-.932a5.593,5.593,0,0,0-5.593,5.593Z" transform="translate(-33.247 -118.806)" fill="#dbd8db"/>
            <path id="Trazado_995866" data-name="Trazado 995866" d="M38.91,181.056H20.265a.932.932,0,0,0-.932.932v36.357a.932.932,0,0,0,.932.932H38.91a.932.932,0,0,0,.932-.932V181.988A.932.932,0,0,0,38.91,181.056Z" transform="translate(-19.333 -160.547)" fill="#6cac25"/>
            <path id="Trazado_995867" data-name="Trazado 995867" d="M283.005,11.5a7.23,7.23,0,0,0-.848.054,7.11,7.11,0,0,0-11.939-1.419,5.586,5.586,0,0,0-7.153,4.742V22.5a5.586,5.586,0,0,0,7.153,4.742,7.11,7.11,0,0,0,11.939-1.419,7.189,7.189,0,1,0,.848-14.328Z" transform="translate(-234.263 -7.5)" fill="#d2e1f1"/>
            <path id="Trazado_995868" data-name="Trazado 995868" d="M90.333,248.4a12.119,12.119,0,0,0,12.119,12.119V236.278A12.119,12.119,0,0,0,90.333,248.4Z" transform="translate(-81.943 -209.243)" fill="#ffc263"/>
            <path id="Trazado_995869" data-name="Trazado 995869" d="M121.889,276.223a8.39,8.39,0,0,0,8.39,8.39v-16.78A8.39,8.39,0,0,0,121.889,276.223Z" transform="translate(-109.77 -237.07)" fill="#ffe077"/>
            <path id="Trazado_995870" data-name="Trazado 995870" d="M26.791,216.48a3.729,3.729,0,0,1-3.729-3.729v-31.7h-2.8a.932.932,0,0,0-.932.932v36.357a.932.932,0,0,0,.932.932H38.91a.932.932,0,0,0,.932-.932v-1.864H26.791Z" transform="translate(-19.333 -160.547)" fill="#d2e6bd"/>
            <path id="Trazado_995871" data-name="Trazado 995871" d="M203.993,28.009a7.432,7.432,0,0,1-5.847-2.838,2.385,2.385,0,0,0-2.084-.914,4.524,4.524,0,0,1-.459.023,4.662,4.662,0,0,1-.981-9.221l.126-.024a2.53,2.53,0,0,0,2.016-1.905A7.429,7.429,0,0,1,202.317,7.7a6.987,6.987,0,0,0-7.116,2.433,5.586,5.586,0,0,0-7.153,4.742l-9.457,3a.853.853,0,0,0,0,1.627l9.457,3a5.586,5.586,0,0,0,7.153,4.742,7.079,7.079,0,0,0,10.513.557A7.405,7.405,0,0,1,203.993,28.009Z" transform="translate(-159.246 -7.5)" fill="#b0c0d2"/>
          </g>
          <g id="Grupo_1178407" data-name="Grupo 1178407" transform="translate(0)">
            <path id="Trazado_995872" data-name="Trazado 995872" d="M32.3,76.162h-.108a6.492,6.492,0,0,0-5.531-5.531v-5.7a1.821,1.821,0,0,0-1.819-1.819H21.109a1.82,1.82,0,0,0-1.819,1.819v5.7a6.492,6.492,0,0,0-5.531,5.531h-.108a1.821,1.821,0,0,0-1.819,1.818v36.357a1.821,1.821,0,0,0,1.819,1.819H32.3a1.821,1.821,0,0,0,1.819-1.819V77.981A1.821,1.821,0,0,0,32.3,76.162ZM30.169,87.828a.886.886,0,0,0-1.194-.38,9.277,9.277,0,0,0,3.368,17.478v1.965a11.233,11.233,0,0,1,0-22.4v18.647a7.5,7.5,0,0,1-2.554-14.12A.886.886,0,0,0,30.169,87.828ZM21.109,64.884h3.729a.046.046,0,0,1,.046.046v1.91h-.978a.886.886,0,1,0,0,1.773h.978v1.956H21.063V64.93A.046.046,0,0,1,21.109,64.884Zm11.187,49.5H13.652a.046.046,0,0,1-.046-.046V77.981a.046.046,0,0,1,.046-.046h2.8a.886.886,0,1,0,0-1.773h-.893a4.714,4.714,0,0,1,4.622-3.821H25.77a4.714,4.714,0,0,1,4.622,3.821H20.177a.886.886,0,1,0,0,1.773H32.3a.046.046,0,0,1,.046.046v4.738a13,13,0,0,0,0,25.949v5.67a.046.046,0,0,1-.046.046Z" transform="translate(-11.833 -55.653)"/>
            <path id="Trazado_995873" data-name="Trazado 995873" d="M186.681,4c-.111,0-.223,0-.339.008a7.994,7.994,0,0,0-12.759-1.477,6.471,6.471,0,0,0-7.723,5.636.886.886,0,1,0,1.762.194,4.7,4.7,0,0,1,6.019-3.989.886.886,0,0,0,.94-.29,6.223,6.223,0,0,1,10.453,1.242.887.887,0,0,0,.9.5,6.305,6.305,0,1,1,0,12.514.885.885,0,0,0-.9.5,6.223,6.223,0,0,1-10.452,1.242.886.886,0,0,0-.94-.29,4.7,4.7,0,0,1-6.019-3.989.886.886,0,0,0-.613-.748l-9.359-2.969,5.727-1.817a.886.886,0,1,0-.536-1.69l-8.39,2.662a.886.886,0,0,0,0,1.69l11.5,3.648a6.472,6.472,0,0,0,7.632,5.053,7.994,7.994,0,0,0,12.759-1.477c.116.006.229.008.339.008a8.078,8.078,0,0,0,0-16.156Z" transform="translate(-137.053 0)"/>
          </g>
        </g>
      </g>
    </g>
  </g>
</svg>
