<svg xmlns="http://www.w3.org/2000/svg" xmlns:xlink="http://www.w3.org/1999/xlink" width="261.059" height="156" viewBox="0 0 261.059 156">
  <defs>
    <clipPath id="clip-path">
      <rect id="Rectángulo_455750" data-name="Rectángulo 455750" width="132.67" height="134.927" fill="none"/>
    </clipPath>
    <clipPath id="clip-path-3">
      <path id="Trazado_997704" data-name="Trazado 997704" d="M14.156,12.533l7.572,9.124L23.881,19.5l-9.123-7.572Z" transform="translate(-14.156 -11.932)" fill="none"/>
    </clipPath>
    <linearGradient id="linear-gradient" x1="-0.635" y1="9.765" x2="-0.581" y2="9.765" gradientUnits="objectBoundingBox">
      <stop offset="0" stop-color="#d4f4ff"/>
      <stop offset="1" stop-color="#a1d4e6"/>
    </linearGradient>
    <clipPath id="clip-path-4">
      <path id="Trazado_997705" data-name="Trazado 997705" d="M23.149,28.1a7.2,7.2,0,1,0,5.088-2.108A7.2,7.2,0,0,0,23.149,28.1" transform="translate(-21.041 -25.992)" fill="none"/>
    </clipPath>
    <linearGradient id="linear-gradient-2" x1="-0.518" y1="5.497" x2="-0.486" y2="5.497" xlink:href="#linear-gradient"/>
    <clipPath id="clip-path-5">
      <path id="Trazado_997706" data-name="Trazado 997706" d="M23.573,21.349A3.6,3.6,0,1,0,26.116,20.3a3.6,3.6,0,0,0-2.544,1.054" transform="translate(-22.519 -20.295)" fill="none"/>
    </clipPath>
    <linearGradient id="linear-gradient-3" x1="-1.351" y1="11.687" x2="-1.284" y2="11.687" xlink:href="#linear-gradient"/>
    <clipPath id="clip-path-6">
      <path id="Trazado_997707" data-name="Trazado 997707" d="M31.539,22.264A8.079,8.079,0,1,0,37.252,19.9a8.079,8.079,0,0,0-5.713,2.367" transform="translate(-29.173 -19.897)" fill="none"/>
    </clipPath>
    <linearGradient id="linear-gradient-4" x1="-0.673" y1="5.081" x2="-0.644" y2="5.081" xlink:href="#linear-gradient"/>
    <clipPath id="clip-path-7">
      <path id="Trazado_997708" data-name="Trazado 997708" d="M42.411,31.172a16.166,16.166,0,1,0,11.433-4.737,16.167,16.167,0,0,0-11.433,4.737" transform="translate(-37.674 -26.435)" fill="none"/>
    </clipPath>
    <linearGradient id="linear-gradient-5" x1="-0.381" y1="2.552" x2="-0.366" y2="2.552" gradientUnits="objectBoundingBox">
      <stop offset="0" stop-color="#d4f4ff"/>
      <stop offset="0.419" stop-color="#c1e8f5"/>
      <stop offset="1" stop-color="#a1d4e6"/>
    </linearGradient>
    <clipPath id="clip-path-8">
      <path id="Trazado_997709" data-name="Trazado 997709" d="M64.9,58.388a8.614,8.614,0,1,0,6.091-2.523A8.615,8.615,0,0,0,64.9,58.388" transform="translate(-62.381 -55.865)" fill="none"/>
    </clipPath>
    <linearGradient id="linear-gradient-6" x1="-2.084" y1="4.88" x2="-2.049" y2="4.88" xlink:href="#linear-gradient"/>
    <clipPath id="clip-path-9">
      <path id="Trazado_997710" data-name="Trazado 997710" d="M64.887,75.447A5.526,5.526,0,1,0,68.8,73.828a5.528,5.528,0,0,0-3.908,1.619" transform="translate(-63.268 -73.828)" fill="none"/>
    </clipPath>
    <linearGradient id="linear-gradient-7" x1="-3.316" y1="6.12" x2="-3.262" y2="6.12" xlink:href="#linear-gradient"/>
    <clipPath id="clip-path-10">
      <path id="Trazado_997711" data-name="Trazado 997711" d="M51.26,66.08A7.406,7.406,0,1,0,56.5,63.91a7.407,7.407,0,0,0-5.237,2.17" transform="translate(-49.09 -63.91)" fill="none"/>
    </clipPath>
    <linearGradient id="linear-gradient-8" x1="-1.385" y1="4.174" x2="-1.353" y2="4.174" xlink:href="#linear-gradient"/>
    <clipPath id="clip-path-11">
      <path id="Trazado_997712" data-name="Trazado 997712" d="M29.159,38.613a15.5,15.5,0,1,0,10.96-4.539,15.5,15.5,0,0,0-10.96,4.539" transform="translate(-24.62 -34.074)" fill="none"/>
    </clipPath>
    <linearGradient id="linear-gradient-9" x1="-0.201" y1="2.514" x2="-0.186" y2="2.514" xlink:href="#linear-gradient"/>
    <clipPath id="clip-path-13">
      <path id="Trazado_997713" data-name="Trazado 997713" d="M159.207,19.5l2.154,2.154,7.571-9.124-.6-.6Z" transform="translate(-159.207 -11.932)" fill="none"/>
    </clipPath>
    <linearGradient id="linear-gradient-10" x1="-8.468" y1="9.764" x2="-8.414" y2="9.764" xlink:href="#linear-gradient"/>
    <clipPath id="clip-path-14">
      <path id="Trazado_997714" data-name="Trazado 997714" d="M147.85,28.1a7.2,7.2,0,1,0,5.088-2.108A7.2,7.2,0,0,0,147.85,28.1" transform="translate(-145.743 -25.992)" fill="none"/>
    </clipPath>
    <linearGradient id="linear-gradient-11" x1="-4.57" y1="5.517" x2="-4.538" y2="5.517" xlink:href="#linear-gradient"/>
    <clipPath id="clip-path-15">
      <path id="Trazado_997715" data-name="Trazado 997715" d="M155.466,21.349a3.6,3.6,0,1,0,2.544-1.054,3.6,3.6,0,0,0-2.544,1.054" transform="translate(-154.412 -20.295)" fill="none"/>
    </clipPath>
    <linearGradient id="linear-gradient-12" x1="-10.338" y1="11.542" x2="-10.27" y2="11.542" xlink:href="#linear-gradient"/>
    <clipPath id="clip-path-16">
      <path id="Trazado_997716" data-name="Trazado 997716" d="M137.484,22.264A8.08,8.08,0,1,0,143.2,19.9a8.079,8.079,0,0,0-5.713,2.367" transform="translate(-135.118 -19.897)" fill="none"/>
    </clipPath>
    <linearGradient id="linear-gradient-13" x1="-3.737" y1="5.079" x2="-3.708" y2="5.079" xlink:href="#linear-gradient"/>
    <clipPath id="clip-path-17">
      <path id="Trazado_997717" data-name="Trazado 997717" d="M108.539,31.172a16.167,16.167,0,1,0,11.433-4.737,16.168,16.168,0,0,0-11.433,4.737" transform="translate(-103.803 -26.435)" fill="none"/>
    </clipPath>
    <linearGradient id="linear-gradient-14" x1="-1.357" y1="2.538" x2="-1.343" y2="2.538" xlink:href="#linear-gradient-5"/>
    <clipPath id="clip-path-18">
      <path id="Trazado_997718" data-name="Trazado 997718" d="M102.927,58.388a8.613,8.613,0,1,0,6.091-2.523,8.614,8.614,0,0,0-6.091,2.523" transform="translate(-100.404 -55.865)" fill="none"/>
    </clipPath>
    <linearGradient id="linear-gradient-15" x1="-3.553" y1="4.717" x2="-3.517" y2="4.717" xlink:href="#linear-gradient"/>
    <clipPath id="clip-path-19">
      <path id="Trazado_997719" data-name="Trazado 997719" d="M109.842,75.447a5.526,5.526,0,1,0,3.908-1.619,5.528,5.528,0,0,0-3.908,1.619" transform="translate(-108.223 -73.828)" fill="none"/>
    </clipPath>
    <linearGradient id="linear-gradient-16" x1="-5.522" y1="6.314" x2="-5.47" y2="6.314" xlink:href="#linear-gradient"/>
    <clipPath id="clip-path-20">
      <path id="Trazado_997720" data-name="Trazado 997720" d="M119.266,66.08a7.407,7.407,0,1,0,5.238-2.17,7.408,7.408,0,0,0-5.238,2.17" transform="translate(-117.097 -63.91)" fill="none"/>
    </clipPath>
    <linearGradient id="linear-gradient-17" x1="-3.56" y1="4.155" x2="-3.528" y2="4.155" xlink:href="#linear-gradient"/>
    <clipPath id="clip-path-21">
      <path id="Trazado_997721" data-name="Trazado 997721" d="M123.287,38.613a15.5,15.5,0,1,0,10.959-4.539,15.5,15.5,0,0,0-10.959,4.539" transform="translate(-118.748 -34.074)" fill="none"/>
    </clipPath>
    <linearGradient id="linear-gradient-18" x1="-1.625" y1="2.51" x2="-1.61" y2="2.51" xlink:href="#linear-gradient"/>
    <clipPath id="clip-path-23">
      <path id="Trazado_997722" data-name="Trazado 997722" d="M36.4,158.684a7.2,7.2,0,1,0,5.088-2.108,7.2,7.2,0,0,0-5.088,2.108" transform="translate(-34.292 -156.576)" fill="none"/>
    </clipPath>
    <linearGradient id="linear-gradient-19" x1="-1.06" y1="1.325" x2="-1.025" y2="1.325" xlink:href="#linear-gradient"/>
    <clipPath id="clip-path-24">
      <path id="Trazado_997723" data-name="Trazado 997723" d="M19.284,157.024a7.853,7.853,0,1,0,5.553-2.3,7.853,7.853,0,0,0-5.553,2.3" transform="translate(-16.984 -154.724)" fill="none"/>
    </clipPath>
    <linearGradient id="linear-gradient-20" x1="-0.362" y1="1.245" x2="-0.332" y2="1.245" gradientUnits="objectBoundingBox">
      <stop offset="0" stop-color="#a1d4e6"/>
      <stop offset="0.068" stop-color="#addcec"/>
      <stop offset="0.209" stop-color="#c3e9f6"/>
      <stop offset="0.348" stop-color="#cff1fc"/>
      <stop offset="0.478" stop-color="#d4f4ff"/>
      <stop offset="0.614" stop-color="#cef0fc"/>
      <stop offset="0.782" stop-color="#bfe7f4"/>
      <stop offset="0.967" stop-color="#a6d7e8"/>
      <stop offset="1" stop-color="#a1d4e6"/>
    </linearGradient>
    <clipPath id="clip-path-25">
      <path id="Trazado_997724" data-name="Trazado 997724" d="M27.569,149.446a5.7,5.7,0,1,0,4.032-1.67,5.7,5.7,0,0,0-4.032,1.67" transform="translate(-25.9 -147.776)" fill="none"/>
    </clipPath>
    <linearGradient id="linear-gradient-21" x1="-1.192" y1="2.147" x2="-1.143" y2="2.147" xlink:href="#linear-gradient"/>
    <clipPath id="clip-path-26">
      <path id="Trazado_997725" data-name="Trazado 997725" d="M36.589,138.151A8.7,8.7,0,1,0,42.74,135.6a8.7,8.7,0,0,0-6.151,2.548" transform="translate(-34.042 -135.603)" fill="none"/>
    </clipPath>
    <linearGradient id="linear-gradient-22" x1="-1.106" y1="2.007" x2="-1.071" y2="2.007" xlink:href="#linear-gradient"/>
    <clipPath id="clip-path-27">
      <path id="Trazado_997726" data-name="Trazado 997726" d="M44.5,125.892a2.116,2.116,0,1,0,1.5-.62,2.115,2.115,0,0,0-1.5.62" transform="translate(-43.879 -125.272)" fill="none"/>
    </clipPath>
    <linearGradient id="linear-gradient-23" x1="-4.739" y1="7.369" x2="-4.627" y2="7.369" xlink:href="#linear-gradient"/>
    <clipPath id="clip-path-28">
      <path id="Trazado_997727" data-name="Trazado 997727" d="M159.409,130.67a2.34,2.34,0,1,0,1.655-.686,2.341,2.341,0,0,0-1.655.686" transform="translate(-158.723 -129.984)" fill="none"/>
    </clipPath>
    <linearGradient id="linear-gradient-24" x1="-17.413" y1="6.652" x2="-17.303" y2="6.652" xlink:href="#linear-gradient"/>
    <clipPath id="clip-path-29">
      <path id="Trazado_997728" data-name="Trazado 997728" d="M22.156,134.02a3.175,3.175,0,1,0,2.245-.93,3.175,3.175,0,0,0-2.245.93" transform="translate(-21.226 -133.09)" fill="none"/>
    </clipPath>
    <linearGradient id="linear-gradient-25" x1="-1.43" y1="4.41" x2="-1.355" y2="4.41" xlink:href="#linear-gradient"/>
    <clipPath id="clip-path-30">
      <path id="Trazado_997729" data-name="Trazado 997729" d="M121.536,132.371a9.121,9.121,0,1,0,6.449-2.671,9.12,9.12,0,0,0-6.449,2.671" transform="translate(-118.865 -129.7)" fill="none"/>
    </clipPath>
    <linearGradient id="linear-gradient-26" x1="-2.925" y1="1.715" x2="-2.899" y2="1.715" xlink:href="#linear-gradient"/>
    <clipPath id="clip-path-31">
      <path id="Trazado_997730" data-name="Trazado 997730" d="M139.721,141.312a7.2,7.2,0,1,0,5.089-2.108,7.2,7.2,0,0,0-5.089,2.108" transform="translate(-137.614 -139.204)" fill="none"/>
    </clipPath>
    <linearGradient id="linear-gradient-27" x1="-4.399" y1="1.828" x2="-4.366" y2="1.828" xlink:href="#linear-gradient"/>
    <clipPath id="clip-path-32">
      <path id="Trazado_997731" data-name="Trazado 997731" d="M112.176,142.931a6.107,6.107,0,1,0,4.318-1.789,6.107,6.107,0,0,0-4.318,1.789" transform="translate(-110.388 -141.142)" fill="none"/>
    </clipPath>
    <linearGradient id="linear-gradient-28" x1="-4.136" y1="2.051" x2="-4.097" y2="2.051" xlink:href="#linear-gradient"/>
    <clipPath id="clip-path-33">
      <path id="Trazado_997732" data-name="Trazado 997732" d="M53.3,131.567a7.2,7.2,0,1,0,5.088-2.107,7.2,7.2,0,0,0-5.088,2.107" transform="translate(-51.195 -129.46)" fill="none"/>
    </clipPath>
    <linearGradient id="linear-gradient-29" x1="-1.693" y1="2.258" x2="-1.658" y2="2.258" xlink:href="#linear-gradient"/>
    <clipPath id="clip-path-34">
      <path id="Trazado_997733" data-name="Trazado 997733" d="M47.681,145.968a12.229,12.229,0,1,0,8.646-3.581,12.227,12.227,0,0,0-8.646,3.581" transform="translate(-44.1 -142.387)" fill="none"/>
    </clipPath>
    <linearGradient id="linear-gradient-30" x1="-0.674" y1="1.072" x2="-0.655" y2="1.072" xlink:href="#linear-gradient"/>
    <clipPath id="clip-path-35">
      <path id="Trazado_997734" data-name="Trazado 997734" d="M94.514,137.436a7.2,7.2,0,1,0,5.088-2.108,7.2,7.2,0,0,0-5.088,2.108" transform="translate(-92.406 -135.328)" fill="none"/>
    </clipPath>
    <linearGradient id="linear-gradient-31" x1="-2.88" y1="1.974" x2="-2.847" y2="1.974" xlink:href="#linear-gradient"/>
    <clipPath id="clip-path-36">
      <path id="Trazado_997735" data-name="Trazado 997735" d="M60.494,137.769a15.471,15.471,0,1,0,10.94-4.532,15.471,15.471,0,0,0-10.94,4.532" transform="translate(-55.962 -133.237)" fill="none"/>
    </clipPath>
    <linearGradient id="linear-gradient-32" x1="-0.763" y1="1.065" x2="-0.747" y2="1.065" xlink:href="#linear-gradient"/>
    <clipPath id="clip-path-37">
      <path id="Trazado_997736" data-name="Trazado 997736" d="M118.7,146.781a11.906,11.906,0,1,0,8.419-3.487,11.906,11.906,0,0,0-8.419,3.487" transform="translate(-115.21 -143.294)" fill="none"/>
    </clipPath>
    <linearGradient id="linear-gradient-33" x1="-2.323" y1="1.141" x2="-2.301" y2="1.141" xlink:href="#linear-gradient"/>
    <clipPath id="clip-path-38">
      <path id="Trazado_997737" data-name="Trazado 997737" d="M100.964,151.7a9.959,9.959,0,1,0,7.043-2.918,9.961,9.961,0,0,0-7.043,2.918" transform="translate(-98.046 -148.78)" fill="none"/>
    </clipPath>
    <linearGradient id="linear-gradient-34" x1="-2.259" y1="1.168" x2="-2.234" y2="1.168" xlink:href="#linear-gradient"/>
    <clipPath id="clip-path-39">
      <path id="Trazado_997738" data-name="Trazado 997738" d="M83.326,152.015a9.836,9.836,0,1,0,6.954-2.88,9.834,9.834,0,0,0-6.954,2.88" transform="translate(-80.445 -149.135)" fill="none"/>
    </clipPath>
    <linearGradient id="linear-gradient-35" x1="-1.78" y1="1.148" x2="-1.756" y2="1.148" xlink:href="#linear-gradient"/>
    <clipPath id="clip-path-40">
      <path id="Trazado_997739" data-name="Trazado 997739" d="M143.9,152.015a9.836,9.836,0,1,0,6.954-2.88,9.834,9.834,0,0,0-6.954,2.88" transform="translate(-141.021 -149.135)" fill="none"/>
    </clipPath>
    <linearGradient id="linear-gradient-36" x1="-3.447" y1="1.19" x2="-3.422" y2="1.19" xlink:href="#linear-gradient"/>
    <clipPath id="clip-path-41">
      <path id="Trazado_997740" data-name="Trazado 997740" d="M121.648,116.043a2.953,2.953,0,1,0,2.089-.865,2.953,2.953,0,0,0-2.089.865" transform="translate(-120.783 -115.178)" fill="none"/>
    </clipPath>
    <linearGradient id="linear-gradient-37" x1="-9.431" y1="6.102" x2="-9.351" y2="6.102" xlink:href="#linear-gradient"/>
    <clipPath id="clip-path-42">
      <path id="Trazado_997741" data-name="Trazado 997741" d="M56.977,95.281a2.572,2.572,0,1,0,1.819-.754,2.571,2.571,0,0,0-1.819.754" transform="translate(-56.223 -94.527)" fill="none"/>
    </clipPath>
    <linearGradient id="linear-gradient-38" x1="-5.088" y1="8.995" x2="-4.995" y2="8.995" xlink:href="#linear-gradient"/>
    <clipPath id="clip-path-43">
      <path id="Trazado_997742" data-name="Trazado 997742" d="M140.572,98.62a1.588,1.588,0,1,0,1.122-.465,1.587,1.587,0,0,0-1.122.465" transform="translate(-140.108 -98.155)" fill="none"/>
    </clipPath>
    <linearGradient id="linear-gradient-39" x1="-21.448" y1="14.549" x2="-21.293" y2="14.549" xlink:href="#linear-gradient"/>
    <clipPath id="clip-path-45">
      <rect id="Rectángulo_455748" data-name="Rectángulo 455748" width="8.956" height="6.685" fill="none"/>
    </clipPath>
  </defs>
  <g id="Grupo_1177287" data-name="Grupo 1177287" transform="translate(-1018 -5183)">
    <rect id="Rectángulo_454804" data-name="Rectángulo 454804" width="261" height="145" rx="25" transform="translate(1018.059 5183)" fill="#cdbfdc"/>
    <g id="Grupo_1177285" data-name="Grupo 1177285" transform="translate(1018 5262.053)" opacity="0.37">
      <g id="Grupo_1177267" data-name="Grupo 1177267" transform="translate(51.756 0)">
        <path id="Polígono_14" data-name="Polígono 14" d="M24.733,0l8.244,15.115L24.733,30.229H8.244L0,15.115,8.244,0Z" transform="translate(0 46.718)" fill="#2c2e8c" opacity="0.36"/>
        <path id="Polígono_15" data-name="Polígono 15" d="M24.733,0l8.244,15.115L24.733,30.229H8.244L0,15.115,8.244,0Z" transform="translate(0 15.573)" fill="#2c2e8c" opacity="0.36"/>
        <g id="Grupo_1177266" data-name="Grupo 1177266" transform="translate(26.107)" opacity="0.36">
          <path id="Polígono_16" data-name="Polígono 16" d="M24.733,0l8.244,15.115L24.733,30.229H8.244L0,15.115,8.244,0Z" transform="translate(0 31.145)" fill="#2c2e8c" opacity="0.56"/>
          <path id="Polígono_17" data-name="Polígono 17" d="M24.733,0l8.244,15.115L24.733,30.229H8.244L0,15.115,8.244,0Z" transform="translate(0)" fill="#2c2e8c" opacity="0.56"/>
        </g>
      </g>
      <g id="Grupo_1177268" data-name="Grupo 1177268" transform="translate(0 0)">
        <path id="Polígono_14-2" data-name="Polígono 14" d="M24.733,0l8.244,15.115L24.733,30.229H8.244L0,15.115,8.244,0Z" transform="translate(0 46.718)" fill="#2c2e8c" opacity="0.36"/>
        <path id="Polígono_15-2" data-name="Polígono 15" d="M24.733,0l8.244,15.115L24.733,30.229H8.244L0,15.115,8.244,0Z" transform="translate(0 15.573)" fill="#2c2e8c" opacity="0.36"/>
        <g id="Grupo_1177266-2" data-name="Grupo 1177266" transform="translate(26.107)" opacity="0.36">
          <path id="Polígono_16-2" data-name="Polígono 16" d="M24.733,0l8.244,15.115L24.733,30.229H8.244L0,15.115,8.244,0Z" transform="translate(0 31.145)" fill="#2c2e8c" opacity="0.56"/>
          <path id="Polígono_17-2" data-name="Polígono 17" d="M24.733,0l8.244,15.115L24.733,30.229H8.244L0,15.115,8.244,0Z" transform="translate(0)" fill="#2c2e8c" opacity="0.56"/>
        </g>
      </g>
    </g>
    <g id="Grupo_1179394" data-name="Grupo 1179394" transform="translate(1086.117 5188.622)">
      <g id="Grupo_1179393" data-name="Grupo 1179393" clip-path="url(#clip-path)">
        <g id="Grupo_1179305" data-name="Grupo 1179305">
          <g id="Grupo_1179304" data-name="Grupo 1179304" clip-path="url(#clip-path)">
            <path id="Trazado_997672" data-name="Trazado 997672" d="M123.586,21.854H121.21a.237.237,0,1,1,0-.474h2.148a3.148,3.148,0,0,1,3.134-2.905.237.237,0,1,1,0,.474,2.672,2.672,0,0,0-2.669,2.669.237.237,0,0,1-.237.237" transform="translate(-35.182 -5.373)" fill="#fff"/>
            <path id="Trazado_997673" data-name="Trazado 997673" d="M141.931,22.091a.237.237,0,0,1-.237-.237,2.091,2.091,0,0,0-4.183,0,.237.237,0,0,1-.474,0,2.565,2.565,0,0,1,5.13,0,.237.237,0,0,1-.237.237" transform="translate(-39.855 -5.61)" fill="#fff"/>
            <path id="Trazado_997674" data-name="Trazado 997674" d="M128.3,19.232a.237.237,0,0,1-.237-.237,4.584,4.584,0,0,1,9.072-.933.237.237,0,1,1-.464.1,4.11,4.11,0,0,0-8.134.838.237.237,0,0,1-.237.237" transform="translate(-37.244 -4.191)" fill="#fff"/>
            <path id="Trazado_997675" data-name="Trazado 997675" d="M136.3,23.046h-2.381a.237.237,0,1,1,0-.474H136.3a.237.237,0,1,1,0,.474" transform="translate(-38.878 -6.565)" fill="#fff"/>
            <path id="Trazado_997676" data-name="Trazado 997676" d="M146.745,23.046h-2.9a.237.237,0,1,1,0-.474h2.9a.237.237,0,1,1,0,.474" transform="translate(-41.764 -6.565)" fill="#fff"/>
            <path id="Trazado_997677" data-name="Trazado 997677" d="M47.675,12.263H44.111a.237.237,0,1,1,0-.474h3.333a4.6,4.6,0,0,1,4.59-4.359.237.237,0,0,1,0,.474,4.126,4.126,0,0,0-4.122,4.122.237.237,0,0,1-.237.237" transform="translate(-12.76 -2.161)" fill="#fff"/>
            <path id="Trazado_997678" data-name="Trazado 997678" d="M75.193,12.619a.237.237,0,0,1-.237-.237,3.255,3.255,0,1,0-6.51,0,.237.237,0,0,1-.474,0,3.729,3.729,0,0,1,7.458,0,.237.237,0,0,1-.237.237" transform="translate(-19.768 -2.517)" fill="#fff"/>
            <path id="Trazado_997679" data-name="Trazado 997679" d="M54.746,8.33a.237.237,0,0,1-.237-.237A6.758,6.758,0,0,1,67.883,6.717a.237.237,0,1,1-.465.1,6.284,6.284,0,0,0-12.435,1.28.237.237,0,0,1-.237.237" transform="translate(-15.853 -0.389)" fill="#fff"/>
            <path id="Trazado_997680" data-name="Trazado 997680" d="M66.744,14.051H63.171a.237.237,0,1,1,0-.474h3.573a.237.237,0,0,1,0,.474" transform="translate(-18.303 -3.949)" fill="#fff"/>
            <path id="Trazado_997681" data-name="Trazado 997681" d="M82.413,14.051H78.057a.237.237,0,1,1,0-.474h4.356a.237.237,0,0,1,0,.474" transform="translate(-22.632 -3.949)" fill="#fff"/>
            <path id="Trazado_997682" data-name="Trazado 997682" d="M30.952,153.151a52.06,52.06,0,0,1-10.633-30.1c-.016-.547-.025-1.093-.025-1.622h.474c0,.524.009,1.065.025,1.608A51.588,51.588,0,0,0,31.33,152.864Z" transform="translate(-5.902 -35.315)" fill="#fff"/>
            <path id="Trazado_997683" data-name="Trazado 997683" d="M151.6,153.151l-.377-.287a51.588,51.588,0,0,0,10.536-29.828c.016-.542.025-1.083.025-1.608h.474c0,.53-.009,1.076-.025,1.622a52.06,52.06,0,0,1-10.633,30.1" transform="translate(-43.98 -35.315)" fill="#fff"/>
            <path id="Trazado_997684" data-name="Trazado 997684" d="M112.058,135.225l-.382-.281a46.531,46.531,0,1,0-74.828,0l-.382.281a47.4,47.4,0,0,1,19.5-71.706A46.776,46.776,0,0,1,107.5,73.656a47.529,47.529,0,0,1,4.558,61.57" transform="translate(-7.928 -17.392)" fill="#fff"/>
            <path id="Trazado_997685" data-name="Trazado 997685" d="M110.7,138.437l-.386-.274a42.011,42.011,0,1,0-68.4,0l-.386.274a42.842,42.842,0,0,1,18.048-64.22,42.277,42.277,0,0,1,46.579,9.162,42.958,42.958,0,0,1,4.544,55.059" transform="translate(-9.781 -20.607)" fill="#fff"/>
            <path id="Trazado_997686" data-name="Trazado 997686" d="M109.363,141.571l-.392-.267a37.6,37.6,0,1,0-62.09,0l-.391.267A38.393,38.393,0,0,1,63.107,84.658a37.883,37.883,0,0,1,41.74,8.211,38.5,38.5,0,0,1,4.516,48.7" transform="translate(-11.591 -23.746)" fill="#fff"/>
            <path id="Trazado_997687" data-name="Trazado 997687" d="M108.045,144.6l-.4-.257a33.326,33.326,0,1,0-55.939,0l-.4.257a34.125,34.125,0,0,1,4.467-42.549,33.82,33.82,0,0,1,57.7,24.049,34.037,34.037,0,0,1-5.432,18.5" transform="translate(-13.343 -26.783)" fill="#fff"/>
            <path id="Trazado_997688" data-name="Trazado 997688" d="M106.727,147.566l-.406-.245a29.153,29.153,0,1,0-49.865,0l-.406.245a29.964,29.964,0,0,1,4.388-36.534,29.5,29.5,0,0,1,41.9,0,29.964,29.964,0,0,1,4.388,36.534" transform="translate(-15.054 -29.752)" fill="#fff"/>
            <path id="Trazado_997689" data-name="Trazado 997689" d="M105.391,150.486l-.415-.229a25.037,25.037,0,1,0-43.8,0l-.415.229a25.806,25.806,0,0,1,4.274-30.6,25.4,25.4,0,0,1,36.08,0,25.806,25.806,0,0,1,4.274,30.6" transform="translate(-16.742 -32.679)" fill="#fff"/>
            <path id="Trazado_997690" data-name="Trazado 997690" d="M104.112,153.165l-.425-.209a21.256,21.256,0,1,0-38.119,0l-.425.209a21.986,21.986,0,0,1,4.12-25.149,21.635,21.635,0,0,1,30.731,0,21.988,21.988,0,0,1,4.119,25.149" transform="translate(-18.293 -35.368)" fill="#fff"/>
            <path id="Trazado_997691" data-name="Trazado 997691" d="M165.689,122.521a1.853,1.853,0,1,1,1.853-1.853,1.855,1.855,0,0,1-1.853,1.853m0-3.232a1.379,1.379,0,1,0,1.379,1.379,1.381,1.381,0,0,0-1.379-1.379" transform="translate(-47.648 -34.555)" fill="#fff"/>
            <rect id="Rectángulo_455683" data-name="Rectángulo 455683" width="1.413" height="0.474" transform="translate(119.657 85.876)" fill="#fff"/>
            <rect id="Rectángulo_455684" data-name="Rectángulo 455684" width="1.414" height="0.474" transform="matrix(0.707, -0.707, 0.707, 0.707, 119.016, 84.803)" fill="#fff"/>
            <rect id="Rectángulo_455685" data-name="Rectángulo 455685" width="0.474" height="1.413" transform="translate(117.804 83.084)" fill="#fff"/>
            <rect id="Rectángulo_455686" data-name="Rectángulo 455686" width="0.474" height="1.414" transform="matrix(0.707, -0.707, 0.707, 0.707, 115.731, 84.138)" fill="#fff"/>
            <rect id="Rectángulo_455687" data-name="Rectángulo 455687" width="1.413" height="0.474" transform="translate(115.011 85.876)" fill="#fff"/>
            <rect id="Rectángulo_455688" data-name="Rectángulo 455688" width="1.414" height="0.474" transform="matrix(0.707, -0.707, 0.707, 0.707, 115.731, 88.088)" fill="#fff"/>
            <rect id="Rectángulo_455689" data-name="Rectángulo 455689" width="0.474" height="1.414" transform="matrix(0.707, -0.707, 0.707, 0.707, 119.016, 87.423)" fill="#fff"/>
            <path id="Trazado_997692" data-name="Trazado 997692" d="M19.869,122.521a1.853,1.853,0,1,1,1.853-1.853,1.855,1.855,0,0,1-1.853,1.853m0-3.232a1.379,1.379,0,1,0,1.379,1.379,1.381,1.381,0,0,0-1.379-1.379" transform="translate(-5.24 -34.555)" fill="#fff"/>
            <rect id="Rectángulo_455690" data-name="Rectángulo 455690" width="1.413" height="0.474" transform="translate(11.6 85.876)" fill="#fff"/>
            <rect id="Rectángulo_455691" data-name="Rectángulo 455691" width="0.474" height="1.414" transform="translate(12.319 84.138) rotate(-45)" fill="#fff"/>
            <rect id="Rectángulo_455692" data-name="Rectángulo 455692" width="0.474" height="1.413" transform="translate(14.393 83.084)" fill="#fff"/>
            <rect id="Rectángulo_455693" data-name="Rectángulo 455693" width="1.414" height="0.474" transform="matrix(0.707, -0.707, 0.707, 0.707, 15.605, 84.803)" fill="#fff"/>
            <rect id="Rectángulo_455694" data-name="Rectángulo 455694" width="1.413" height="0.474" transform="translate(16.246 85.876)" fill="#fff"/>
            <rect id="Rectángulo_455695" data-name="Rectángulo 455695" width="0.474" height="1.414" transform="translate(15.604 87.423) rotate(-45)" fill="#fff"/>
            <rect id="Rectángulo_455696" data-name="Rectángulo 455696" width="1.414" height="0.474" transform="matrix(0.707, -0.707, 0.707, 0.707, 12.319, 88.088)" fill="#fff"/>
            <path id="Trazado_997693" data-name="Trazado 997693" d="M2.69,110.1a1.185,1.185,0,1,1,1.184-1.185A1.186,1.186,0,0,1,2.69,110.1m0-1.9a.711.711,0,1,0,.711.711.711.711,0,0,0-.711-.711" transform="translate(-0.438 -31.332)" fill="#fff"/>
            <path id="Trazado_997694" data-name="Trazado 997694" d="M116.2,2.369a1.185,1.185,0,1,1,1.184-1.185A1.186,1.186,0,0,1,116.2,2.369m0-1.9a.711.711,0,1,0,.711.711A.711.711,0,0,0,116.2.474" transform="translate(-33.451)" fill="#fff"/>
            <path id="Trazado_997695" data-name="Trazado 997695" d="M178.327,74.345a1.185,1.185,0,1,1,1.184-1.185,1.186,1.186,0,0,1-1.184,1.185m0-1.9a.711.711,0,1,0,.71.711.712.712,0,0,0-.71-.711" transform="translate(-51.518 -20.933)" fill="#fff"/>
            <path id="Trazado_997696" data-name="Trazado 997696" d="M120.093,85.211q0,1.523-.1,3.022a46.7,46.7,0,0,0-89.824,0q-.1-1.5-.1-3.022a45.013,45.013,0,1,1,90.026,0" transform="translate(-8.744 -11.691)" fill="#a2e5e5"/>
            <path id="Trazado_997697" data-name="Trazado 997697" d="M120.033,94.032h0a44.745,44.745,0,0,1-2.81,12.934,42.227,42.227,0,0,0-84.206,0,44.746,44.746,0,0,1-2.81-12.934h0a46.7,46.7,0,0,1,89.825,0" transform="translate(-8.785 -17.489)" fill="#85dcdc"/>
            <path id="Trazado_997698" data-name="Trazado 997698" d="M114.066,118.686q.04-.88.04-1.769a37.834,37.834,0,1,0-75.667,0q0,.89.041,1.769a44.859,44.859,0,0,1-4.31-8.5,42.227,42.227,0,0,1,84.206,0,44.9,44.9,0,0,1-4.31,8.5" transform="translate(-9.938 -20.704)" fill="#70d6d6"/>
            <path id="Trazado_997699" data-name="Trazado 997699" d="M115.857,120.055q0,.89-.04,1.769a45.083,45.083,0,0,1-4.53,5.866,34.142,34.142,0,0,0,.3-4.526,33.563,33.563,0,1,0-67.125,0,34.142,34.142,0,0,0,.3,4.526,45.14,45.14,0,0,1-4.529-5.866q-.041-.88-.04-1.769a37.834,37.834,0,1,1,75.667,0" transform="translate(-11.688 -23.843)" fill="#4dcdcd"/>
            <path id="Trazado_997700" data-name="Trazado 997700" d="M113.337,126.2a34.141,34.141,0,0,1-.3,4.526,44.969,44.969,0,0,1-4.425,4.235,29.829,29.829,0,0,0,.55-5.723,29.39,29.39,0,1,0-58.778,0,29.831,29.831,0,0,0,.55,5.723,44.97,44.97,0,0,1-4.425-4.235,34.141,34.141,0,0,1-.3-4.526,33.563,33.563,0,1,1,67.125,0" transform="translate(-13.44 -26.88)" fill="#2bc5c5"/>
            <path id="Trazado_997701" data-name="Trazado 997701" d="M110.875,132.209a29.83,29.83,0,0,1-.55,5.723,44.749,44.749,0,0,1-4.241,3.141,25.635,25.635,0,0,0,.677-5.868,25.275,25.275,0,1,0-50.549,0,25.636,25.636,0,0,0,.677,5.868,44.749,44.749,0,0,1-4.241-3.141,29.831,29.831,0,0,1-.55-5.723,29.39,29.39,0,1,1,58.778,0" transform="translate(-15.151 -29.849)" fill="#00baba"/>
            <path id="Trazado_997702" data-name="Trazado 997702" d="M108.448,138.131a25.646,25.646,0,0,1-.677,5.869q-1.821,1.19-3.761,2.206a21.785,21.785,0,0,0,.656-5.322,21.493,21.493,0,1,0-42.985,0,21.785,21.785,0,0,0,.656,5.322Q60.4,145.194,58.576,144a25.647,25.647,0,0,1-.677-5.869,25.275,25.275,0,1,1,50.549,0" transform="translate(-16.839 -32.776)" fill="#00b3b3"/>
            <path id="Trazado_997703" data-name="Trazado 997703" d="M106.217,143.573a21.8,21.8,0,0,1-.656,5.322,45.084,45.084,0,0,1-41.673,0,21.8,21.8,0,0,1-.656-5.322,21.493,21.493,0,1,1,42.985,0" transform="translate(-18.39 -35.465)" fill="#00acac"/>
          </g>
        </g>
        <g id="Grupo_1179307" data-name="Grupo 1179307" transform="translate(10.039 8.462)">
          <g id="Grupo_1179306" data-name="Grupo 1179306" clip-path="url(#clip-path-3)">
            <rect id="Rectángulo_455698" data-name="Rectángulo 455698" width="13.131" height="13.131" transform="translate(-4.003 7.624) rotate(-62.301)" fill="url(#linear-gradient)"/>
          </g>
        </g>
        <g id="Grupo_1179309" data-name="Grupo 1179309" transform="translate(14.922 18.433)">
          <g id="Grupo_1179308" data-name="Grupo 1179308" clip-path="url(#clip-path-4)">
            <rect id="Rectángulo_455699" data-name="Rectángulo 455699" width="21.718" height="21.804" transform="matrix(0.643, -0.766, 0.766, 0.643, -8.136, 8.852)" fill="url(#linear-gradient-2)"/>
          </g>
        </g>
        <g id="Grupo_1179311" data-name="Grupo 1179311" transform="translate(15.969 14.393)">
          <g id="Grupo_1179310" data-name="Grupo 1179310" clip-path="url(#clip-path-5)">
            <rect id="Rectángulo_455700" data-name="Rectángulo 455700" width="10.572" height="10.436" transform="translate(-3.558 1.784) rotate(-29.085)" fill="url(#linear-gradient-3)"/>
          </g>
        </g>
        <g id="Grupo_1179313" data-name="Grupo 1179313" transform="translate(20.688 14.11)">
          <g id="Grupo_1179312" data-name="Grupo 1179312" clip-path="url(#clip-path-6)">
            <rect id="Rectángulo_455701" data-name="Rectángulo 455701" width="24.531" height="24.522" transform="translate(-9.262 8.342) rotate(-44.554)" fill="url(#linear-gradient-4)"/>
          </g>
        </g>
        <g id="Grupo_1179315" data-name="Grupo 1179315" transform="translate(26.718 18.747)">
          <g id="Grupo_1179314" data-name="Grupo 1179314" clip-path="url(#clip-path-7)">
            <rect id="Rectángulo_455702" data-name="Rectángulo 455702" width="48.683" height="48.344" transform="matrix(0.806, -0.592, 0.592, 0.806, -17.756, 11.868)" fill="url(#linear-gradient-5)"/>
          </g>
        </g>
        <g id="Grupo_1179317" data-name="Grupo 1179317" transform="translate(44.239 39.618)">
          <g id="Grupo_1179316" data-name="Grupo 1179316" clip-path="url(#clip-path-8)">
            <rect id="Rectángulo_455703" data-name="Rectángulo 455703" width="20.456" height="19.695" transform="matrix(0.996, -0.09, 0.09, 0.996, -2.457, 0.146)" fill="url(#linear-gradient-6)"/>
          </g>
        </g>
        <g id="Grupo_1179319" data-name="Grupo 1179319" transform="translate(44.868 52.357)">
          <g id="Grupo_1179318" data-name="Grupo 1179318" clip-path="url(#clip-path-9)">
            <rect id="Rectángulo_455704" data-name="Rectángulo 455704" width="13.206" height="13.663" transform="translate(-2.176 11.358) rotate(-81.802)" fill="url(#linear-gradient-7)"/>
          </g>
        </g>
        <g id="Grupo_1179321" data-name="Grupo 1179321" transform="translate(34.813 45.323)">
          <g id="Grupo_1179320" data-name="Grupo 1179320" clip-path="url(#clip-path-10)">
            <rect id="Rectángulo_455705" data-name="Rectángulo 455705" width="22.397" height="22.28" transform="matrix(0.783, -0.622, 0.622, 0.783, -8.29, 6.006)" fill="url(#linear-gradient-8)"/>
          </g>
        </g>
        <g id="Grupo_1179323" data-name="Grupo 1179323" transform="translate(17.46 24.164)">
          <g id="Grupo_1179322" data-name="Grupo 1179322" clip-path="url(#clip-path-11)">
            <rect id="Rectángulo_455706" data-name="Rectángulo 455706" width="47.04" height="46.929" transform="matrix(0.743, -0.67, 0.67, 0.743, -17.681, 14.576)" fill="url(#linear-gradient-9)"/>
          </g>
        </g>
        <g id="Grupo_1179325" data-name="Grupo 1179325">
          <g id="Grupo_1179324" data-name="Grupo 1179324" clip-path="url(#clip-path)">
            <rect id="Rectángulo_455707" data-name="Rectángulo 455707" width="0.569" height="3.108" transform="translate(10.966 13.661) rotate(-33.904)" fill="#d4f4ff"/>
            <rect id="Rectángulo_455708" data-name="Rectángulo 455708" width="0.569" height="2.442" transform="matrix(0.605, -0.796, 0.796, 0.605, 17.758, 9.679)" fill="#d4f4ff"/>
            <rect id="Rectángulo_455709" data-name="Rectángulo 455709" width="0.569" height="2.489" transform="translate(12.359 19.074) rotate(-27.12)" fill="#d4f4ff"/>
            <rect id="Rectángulo_455710" data-name="Rectángulo 455710" width="0.569" height="1.924" transform="matrix(0.618, -0.786, 0.786, 0.618, 13.818, 8.931)" fill="#d4f4ff"/>
          </g>
        </g>
        <g id="Grupo_1179327" data-name="Grupo 1179327" transform="translate(112.905 8.462)">
          <g id="Grupo_1179326" data-name="Grupo 1179326" clip-path="url(#clip-path-13)">
            <rect id="Rectángulo_455712" data-name="Rectángulo 455712" width="13.132" height="13.132" transform="translate(-4.003 2.101) rotate(-27.7)" fill="url(#linear-gradient-10)"/>
          </g>
        </g>
        <g id="Grupo_1179329" data-name="Grupo 1179329" transform="translate(103.356 18.433)">
          <g id="Grupo_1179328" data-name="Grupo 1179328" clip-path="url(#clip-path-14)">
            <rect id="Rectángulo_455713" data-name="Rectángulo 455713" width="21.804" height="21.718" transform="matrix(0.766, -0.643, 0.643, 0.766, -8.136, 6.243)" fill="url(#linear-gradient-11)"/>
          </g>
        </g>
        <g id="Grupo_1179331" data-name="Grupo 1179331" transform="translate(109.504 14.393)">
          <g id="Grupo_1179330" data-name="Grupo 1179330" clip-path="url(#clip-path-15)">
            <rect id="Rectángulo_455714" data-name="Rectángulo 455714" width="10.436" height="10.572" transform="translate(-3.558 5.764) rotate(-60.915)" fill="url(#linear-gradient-12)"/>
          </g>
        </g>
        <g id="Grupo_1179333" data-name="Grupo 1179333" transform="translate(95.822 14.11)">
          <g id="Grupo_1179332" data-name="Grupo 1179332" clip-path="url(#clip-path-16)">
            <rect id="Rectángulo_455715" data-name="Rectángulo 455715" width="24.522" height="24.531" transform="translate(-9.262 8.606) rotate(-45.446)" fill="url(#linear-gradient-13)"/>
          </g>
        </g>
        <g id="Grupo_1179335" data-name="Grupo 1179335" transform="translate(73.614 18.747)">
          <g id="Grupo_1179334" data-name="Grupo 1179334" clip-path="url(#clip-path-17)">
            <rect id="Rectángulo_455716" data-name="Rectángulo 455716" width="48.344" height="48.683" transform="matrix(0.592, -0.806, 0.806, 0.592, -17.755, 22.049)" fill="url(#linear-gradient-14)"/>
          </g>
        </g>
        <g id="Grupo_1179337" data-name="Grupo 1179337" transform="translate(71.204 39.618)">
          <g id="Grupo_1179336" data-name="Grupo 1179336" clip-path="url(#clip-path-18)">
            <rect id="Rectángulo_455717" data-name="Rectángulo 455717" width="19.695" height="20.456" transform="translate(-2.457 17.924) rotate(-84.849)" fill="url(#linear-gradient-15)"/>
          </g>
        </g>
        <g id="Grupo_1179339" data-name="Grupo 1179339" transform="translate(76.749 52.357)">
          <g id="Grupo_1179338" data-name="Grupo 1179338" clip-path="url(#clip-path-19)">
            <rect id="Rectángulo_455718" data-name="Rectángulo 455718" width="13.663" height="13.206" transform="matrix(0.99, -0.143, 0.143, 0.99, -2.176, 0.236)" fill="url(#linear-gradient-16)"/>
          </g>
        </g>
        <g id="Grupo_1179341" data-name="Grupo 1179341" transform="translate(83.042 45.323)">
          <g id="Grupo_1179340" data-name="Grupo 1179340" clip-path="url(#clip-path-20)">
            <rect id="Rectángulo_455719" data-name="Rectángulo 455719" width="22.28" height="22.397" transform="matrix(0.622, -0.783, 0.783, 0.622, -8.29, 9.532)" fill="url(#linear-gradient-17)"/>
          </g>
        </g>
        <g id="Grupo_1179343" data-name="Grupo 1179343" transform="translate(84.213 24.164)">
          <g id="Grupo_1179342" data-name="Grupo 1179342" clip-path="url(#clip-path-21)">
            <rect id="Rectángulo_455720" data-name="Rectángulo 455720" width="46.929" height="47.039" transform="matrix(0.67, -0.743, 0.743, 0.67, -17.682, 17.935)" fill="url(#linear-gradient-18)"/>
          </g>
        </g>
        <g id="Grupo_1179345" data-name="Grupo 1179345">
          <g id="Grupo_1179344" data-name="Grupo 1179344" clip-path="url(#clip-path)">
            <rect id="Rectángulo_455721" data-name="Rectángulo 455721" width="3.108" height="0.569" transform="translate(119.499 15.924) rotate(-56.132)" fill="#d4f4ff"/>
            <rect id="Rectángulo_455722" data-name="Rectángulo 455722" width="2.442" height="0.569" transform="translate(112.623 10.703) rotate(-37.199)" fill="#d4f4ff"/>
            <rect id="Rectángulo_455723" data-name="Rectángulo 455723" width="2.489" height="0.569" transform="translate(118.67 21.03) rotate(-62.86)" fill="#d4f4ff"/>
            <rect id="Rectángulo_455724" data-name="Rectángulo 455724" width="1.924" height="0.568" transform="matrix(0.786, -0.618, 0.618, 0.786, 116.987, 9.673)" fill="#d4f4ff"/>
          </g>
        </g>
        <g id="Grupo_1179347" data-name="Grupo 1179347" transform="translate(24.319 111.039)">
          <g id="Grupo_1179346" data-name="Grupo 1179346" clip-path="url(#clip-path-23)">
            <rect id="Rectángulo_455726" data-name="Rectángulo 455726" width="20.196" height="19.797" transform="translate(-5.805 1.986) rotate(-21.267)" fill="url(#linear-gradient-19)"/>
          </g>
        </g>
        <g id="Grupo_1179349" data-name="Grupo 1179349" transform="translate(12.045 109.726)">
          <g id="Grupo_1179348" data-name="Grupo 1179348" clip-path="url(#clip-path-24)">
            <rect id="Rectángulo_455727" data-name="Rectángulo 455727" width="23.075" height="22.778" transform="matrix(0.874, -0.486, 0.486, 0.874, -7.767, 3.898)" fill="url(#linear-gradient-20)"/>
          </g>
        </g>
        <g id="Grupo_1179351" data-name="Grupo 1179351" transform="translate(18.367 104.799)">
          <g id="Grupo_1179350" data-name="Grupo 1179350" clip-path="url(#clip-path-25)">
            <rect id="Rectángulo_455728" data-name="Rectángulo 455728" width="14.222" height="14.656" transform="translate(-2.9 11.483) rotate(-78.465)" fill="url(#linear-gradient-21)"/>
          </g>
        </g>
        <g id="Grupo_1179353" data-name="Grupo 1179353" transform="translate(24.142 96.166)">
          <g id="Grupo_1179352" data-name="Grupo 1179352" clip-path="url(#clip-path-26)">
            <rect id="Rectángulo_455729" data-name="Rectángulo 455729" width="20.447" height="19.667" transform="translate(-2.255 0.109) rotate(-4.433)" fill="url(#linear-gradient-22)"/>
          </g>
        </g>
        <g id="Grupo_1179355" data-name="Grupo 1179355" transform="translate(31.117 88.839)">
          <g id="Grupo_1179354" data-name="Grupo 1179354" clip-path="url(#clip-path-27)">
            <rect id="Rectángulo_455730" data-name="Rectángulo 455730" width="6.344" height="6.384" transform="matrix(0.604, -0.797, 0.797, 0.604, -2.343, 2.82)" fill="url(#linear-gradient-23)"/>
          </g>
        </g>
        <g id="Grupo_1179357" data-name="Grupo 1179357" transform="translate(112.562 92.181)">
          <g id="Grupo_1179356" data-name="Grupo 1179356" clip-path="url(#clip-path-28)">
            <rect id="Rectángulo_455731" data-name="Rectángulo 455731" width="6.414" height="6.547" transform="matrix(0.355, -0.935, 0.935, 0.355, -1.857, 4.292)" fill="url(#linear-gradient-24)"/>
          </g>
        </g>
        <g id="Grupo_1179359" data-name="Grupo 1179359" transform="translate(15.053 94.384)">
          <g id="Grupo_1179358" data-name="Grupo 1179358" clip-path="url(#clip-path-29)">
            <rect id="Rectángulo_455732" data-name="Rectángulo 455732" width="9.442" height="9.52" transform="translate(-3.426 4.502) rotate(-55.305)" fill="url(#linear-gradient-25)"/>
          </g>
        </g>
        <g id="Grupo_1179361" data-name="Grupo 1179361" transform="translate(84.295 91.98)">
          <g id="Grupo_1179360" data-name="Grupo 1179360" clip-path="url(#clip-path-30)">
            <rect id="Rectángulo_455733" data-name="Rectángulo 455733" width="27.273" height="27.463" transform="matrix(0.593, -0.806, 0.806, 0.593, -10.022, 12.413)" fill="url(#linear-gradient-26)"/>
          </g>
        </g>
        <g id="Grupo_1179363" data-name="Grupo 1179363" transform="translate(97.592 98.72)">
          <g id="Grupo_1179362" data-name="Grupo 1179362" clip-path="url(#clip-path-31)">
            <rect id="Rectángulo_455734" data-name="Rectángulo 455734" width="21.39" height="21.571" transform="translate(-7.752 10.242) rotate(-55.46)" fill="url(#linear-gradient-27)"/>
          </g>
        </g>
        <g id="Grupo_1179365" data-name="Grupo 1179365" transform="translate(78.284 100.094)">
          <g id="Grupo_1179364" data-name="Grupo 1179364" clip-path="url(#clip-path-32)">
            <rect id="Rectángulo_455735" data-name="Rectángulo 455735" width="18.205" height="18.346" transform="translate(-6.641 8.522) rotate(-54.652)" fill="url(#linear-gradient-28)"/>
          </g>
        </g>
        <g id="Grupo_1179367" data-name="Grupo 1179367" transform="translate(36.306 91.809)">
          <g id="Grupo_1179366" data-name="Grupo 1179366" clip-path="url(#clip-path-33)">
            <rect id="Rectángulo_455736" data-name="Rectángulo 455736" width="19.832" height="20.228" transform="translate(-5.848 13.069) rotate(-68.51)" fill="url(#linear-gradient-29)"/>
          </g>
        </g>
        <g id="Grupo_1179369" data-name="Grupo 1179369" transform="translate(31.274 100.977)">
          <g id="Grupo_1179368" data-name="Grupo 1179368" clip-path="url(#clip-path-34)">
            <rect id="Rectángulo_455737" data-name="Rectángulo 455737" width="37.054" height="36.91" transform="matrix(0.765, -0.644, 0.644, 0.765, -13.832, 10.647)" fill="url(#linear-gradient-30)"/>
          </g>
        </g>
        <g id="Grupo_1179371" data-name="Grupo 1179371" transform="translate(65.532 95.971)">
          <g id="Grupo_1179370" data-name="Grupo 1179370" clip-path="url(#clip-path-35)">
            <rect id="Rectángulo_455738" data-name="Rectángulo 455738" width="21.517" height="21.322" transform="translate(-7.669 4.645) rotate(-33.69)" fill="url(#linear-gradient-31)"/>
          </g>
        </g>
        <g id="Grupo_1179373" data-name="Grupo 1179373" transform="translate(39.687 94.488)">
          <g id="Grupo_1179372" data-name="Grupo 1179372" clip-path="url(#clip-path-36)">
            <rect id="Rectángulo_455739" data-name="Rectángulo 455739" width="43.664" height="42.831" transform="translate(-12.804 4.574) rotate(-22.051)" fill="url(#linear-gradient-32)"/>
          </g>
        </g>
        <g id="Grupo_1179375" data-name="Grupo 1179375" transform="translate(81.704 101.62)">
          <g id="Grupo_1179374" data-name="Grupo 1179374" clip-path="url(#clip-path-37)">
            <rect id="Rectángulo_455740" data-name="Rectángulo 455740" width="33.161" height="32.473" transform="translate(-9.269 2.989) rotate(-20.242)" fill="url(#linear-gradient-33)"/>
          </g>
        </g>
        <g id="Grupo_1179377" data-name="Grupo 1179377" transform="translate(69.532 105.511)">
          <g id="Grupo_1179376" data-name="Grupo 1179376" clip-path="url(#clip-path-38)">
            <rect id="Rectángulo_455741" data-name="Rectángulo 455741" width="28.814" height="28.367" transform="translate(-9.208 4.02) rotate(-26.017)" fill="url(#linear-gradient-34)"/>
          </g>
        </g>
        <g id="Grupo_1179379" data-name="Grupo 1179379" transform="translate(57.049 105.762)">
          <g id="Grupo_1179378" data-name="Grupo 1179378" clip-path="url(#clip-path-39)">
            <rect id="Rectángulo_455742" data-name="Rectángulo 455742" width="29.337" height="29.054" transform="matrix(0.839, -0.544, 0.544, 0.839, -10.376, 6.103)" fill="url(#linear-gradient-35)"/>
          </g>
        </g>
        <g id="Grupo_1179381" data-name="Grupo 1179381" transform="translate(100.008 105.762)">
          <g id="Grupo_1179380" data-name="Grupo 1179380" clip-path="url(#clip-path-40)">
            <rect id="Rectángulo_455743" data-name="Rectángulo 455743" width="27.827" height="27.305" transform="matrix(0.924, -0.381, 0.381, 0.924, -8.235, 3.002)" fill="url(#linear-gradient-36)"/>
          </g>
        </g>
        <g id="Grupo_1179383" data-name="Grupo 1179383" transform="translate(85.656 81.681)">
          <g id="Grupo_1179382" data-name="Grupo 1179382" clip-path="url(#clip-path-41)">
            <rect id="Rectángulo_455744" data-name="Rectángulo 455744" width="8.923" height="8.955" transform="matrix(0.649, -0.761, 0.761, 0.649, -3.348, 3.584)" fill="url(#linear-gradient-37)"/>
          </g>
        </g>
        <g id="Grupo_1179385" data-name="Grupo 1179385" transform="translate(39.871 67.036)">
          <g id="Grupo_1179384" data-name="Grupo 1179384" clip-path="url(#clip-path-42)">
            <rect id="Rectángulo_455745" data-name="Rectángulo 455745" width="7.596" height="7.671" transform="translate(-2.708 3.813) rotate(-57.2)" fill="url(#linear-gradient-38)"/>
          </g>
        </g>
        <g id="Grupo_1179387" data-name="Grupo 1179387" transform="translate(99.36 69.609)">
          <g id="Grupo_1179386" data-name="Grupo 1179386" clip-path="url(#clip-path-43)">
            <rect id="Rectángulo_455746" data-name="Rectángulo 455746" width="4.599" height="4.529" transform="matrix(0.896, -0.444, 0.444, 0.896, -1.479, 0.655)" fill="url(#linear-gradient-39)"/>
          </g>
        </g>
        <g id="Grupo_1179392" data-name="Grupo 1179392">
          <g id="Grupo_1179391" data-name="Grupo 1179391" clip-path="url(#clip-path)">
            <path id="Trazado_997743" data-name="Trazado 997743" d="M108.586,184.139c0,1.227,0,2.988-9.871,2.988-4.372,0-9.787-2.127-15.637-2.127s-10.606,2.127-15.637,2.127c-9.87,0-9.87-1.762-9.87-2.988,0-2.045,10.9-4.651,25.508-4.651s25.507,2.606,25.507,4.651" transform="translate(-16.743 -52.2)" fill="#baebf7"/>
            <path id="Trazado_997744" data-name="Trazado 997744" d="M18.451,54.51a15.1,15.1,0,0,0-1.9-.454,6.187,6.187,0,0,0-1.639.03,6.188,6.188,0,0,0-1.769.857c-.528.323-2.766.982-3.091,1.148a12.256,12.256,0,0,1-2.711,1c-1.035.118-1.647-1.16-.387-1.769a12.043,12.043,0,0,0,1.814-.9c.229-.233.157-.427-.324-.545s-3.162-.245-3.777-.277-3.66.183-4.12.165a.52.52,0,0,1-.469-.787.565.565,0,0,1,.316-.229s.045-.294.721-.362c.511-.05,4.151-.962,4.372-1,.172-.033,1.642-.243,1.807-.258s.685-.174.938-.221,6.609-.591,6.609-.591a22.35,22.35,0,0,0,3.417-.524,3.081,3.081,0,0,0-.76,2.485c.1,1.716.9,2.2.96,2.234" transform="translate(0 -14.481)" fill="#66d8d8"/>
            <path id="Trazado_997745" data-name="Trazado 997745" d="M178.991,50.056c-.457.06-3.509.116-4.119.2s-3.269.452-3.737.613-.523.254-.273.465a13.64,13.64,0,0,0,1.991.626c1.31.494.795,1.9-.333,1.8a14.177,14.177,0,0,1-2.578-.649c-.695-.263-2-.416-2.928-.833-.2-.09-.475-.253-.766-.422a8.508,8.508,0,0,0-.866-.462,9.062,9.062,0,0,0-1.638.2c-.647.108-2.726.6-2.726.6s.831-.5.845-2.282a3.078,3.078,0,0,0-.89-2.442s2.386.258,4.285.3c1.606.035,4.425.176,5.115.1a13.05,13.05,0,0,1,2.817.209c.225.022,1.668.141,1.919.182.2.034.707.166.911.189.671.075,1.792.2,2.306.185s.613.041.7.184a.3.3,0,0,1,.031.206.565.565,0,0,1,.335.2.52.52,0,0,1-.4.826" transform="translate(-46.815 -13.806)" fill="#66d8d8"/>
            <path id="Trazado_997746" data-name="Trazado 997746" d="M122.216,37.888c-.013,1.783-.845,2.283-.845,2.283a1.576,1.576,0,0,1-.675.257c-.307,0-.3.321-.7.423-.532.135-4.6.306-4.6.306l-2.092.5-5.511-.144a13.836,13.836,0,0,1-1.693.972c-.613.252-8.192-.072-8.192-.072a24.816,24.816,0,0,1-2.931.793c-.468,0-6.1.5-6.1.5l-1.742,6.758a10.553,10.553,0,0,1,.647,1.55c.073.4-1.152,7.048-1.152,7.048a10.78,10.78,0,0,1,.252,2.522c-.072,1.08-.542,4-.542,4l.184.649-.072,2.543a11.991,11.991,0,0,1,.829,2.32c-.036.4,1.376,8.033,1.376,8.033s-.158,10.582.058,10.835a7.584,7.584,0,0,1,.613,1.117,21.025,21.025,0,0,0-.108,2.954c.05.331.877,3.3.877,3.3s-.067,10.142-.073,10.4c-.013.579-.108,1.585-.108,1.585l.617,2.557s-.4,6.931-.545,7.9a46.844,46.844,0,0,1-1.544,4.67l.016,1.081-.612,2.762-4.808.085-.752-2.738a7.33,7.33,0,0,0-.185-1.064c-.072-.109-1.44-1.3-1.512-1.478s-.73-3.678-.73-3.678-1.189-3.274-1.3-3.616-.906-6.413-.906-6.413-1.135-2.107-1.135-2.286-.955-14.347-.955-14.347a29.325,29.325,0,0,1-1.207-2.684c-.054-.361-.972-9.826-.972-9.826l-.274-1.406-.5,11.518-1.159,4.882s.216,1.242.216,1.406c0,.081-1.191,10.626-1.191,10.626l-1.15,3.9s-.176,3.488-.176,3.667-2.9,9.128-2.9,9.128l-.143,1.016-1.121,3.035-5.168-.162.116-2.982-.091-1.136s-1.278-2.83-1.289-2.883c-.018-.09-.993-7.246-1.029-7.66s.056-6.134.056-6.134-.695-9.6-.641-10.091.811-4.566.864-5-.54-4.54-.513-5.107,1.052-7.952,1.052-7.952.3-5.944.3-6.43.9-3.708.9-3.708l-.567-5.34.2-4.569s-.941-4.923-1.049-5.544a31.6,31.6,0,0,1,.366-3.957l-.779-5.864-7.572-.585-1.275.475s-7.1-.345-7.809-.51A17.366,17.366,0,0,1,39,42.148s-2.391.586-2.765.583c-.326,0-6.283-.215-6.283-.215s-2.378.009-2.915-.1c-.408-.082-.421-.4-.726-.386a1.559,1.559,0,0,1-.688-.221h0c-.057-.033-.857-.518-.96-2.234a3.083,3.083,0,0,1,.761-2.485,2.141,2.141,0,0,1,.74-.34c.235-.048.443-.482,1.064-.5a28.793,28.793,0,0,0,5.654-.879h0c1.113-.457,2.175-.89,2.32-.939a26.094,26.094,0,0,1,2.752.211c.423,0,8.51-2.345,8.721-2.345a13.844,13.844,0,0,1,1.376.317s7.257-1.993,7.68-1.993h2.54s4.762-1.693,5.4-1.8a16.069,16.069,0,0,1,1.9-.106l1.337-1.748.247-1.456h0a7.157,7.157,0,0,1-1.491-3,20.686,20.686,0,0,1-.446-5.836c.072-1.188.163-2.006.251-2.636h0c.057-.413.113-.744.162-1.045l-.355.06a3.805,3.805,0,0,1,.716-2.749c.4-.465,2.357-2.581,2.577-2.7a6.85,6.85,0,0,1,1.069-.189,21.114,21.114,0,0,1,2.391-.955,9.654,9.654,0,0,1,1.513.082,18.477,18.477,0,0,1,2.374-.419c.635.118,2.1,1.877,2.264,1.986a11.8,11.8,0,0,1,1.7.5,5.815,5.815,0,0,1,.774,1.829,23.619,23.619,0,0,0,1.27,2.386c.18.289.054,2.659-.527,2.913l-.193,1.706a.719.719,0,0,1,.179.362,5.3,5.3,0,0,1-.108,1.7,34,34,0,0,1-1.716,3.742,3.7,3.7,0,0,0,.121,1.337h0a2.8,2.8,0,0,1,.46,1.284,5.184,5.184,0,0,0,.514,2.31,5.338,5.338,0,0,0,1,.9c.028.026.261.369.261.369s3.684.657,4.315.64a6.04,6.04,0,0,1,1.963.469c.072.072,1.1.7,1.1.7s2.432-.378,2.9-.378,4.894.739,4.984.739,1.477-.162,1.855-.126a6.579,6.579,0,0,1,1.567.991s3.526-.09,4.372-.036A17.7,17.7,0,0,1,108.2,33.5s4.9.257,5.631.445c.516.135,1.272.834,5.65.752.621-.011.852.4,1.089.441a2.08,2.08,0,0,1,.757.306,3.08,3.08,0,0,1,.89,2.441" transform="translate(-7.169 -1.781)" fill="#ffd255"/>
            <path id="Trazado_997747" data-name="Trazado 997747" d="M90.286,13.67s-2.61-.372-2.848-.768c-.4-.662,2.162-.469,2.162-.469-2.378-1.584-4.982.065-5.322-.684-.45-.991,1-1.152,1-1.152s.7-.043,1.333-.027c.721.018,2.017.153,2.017.153s-.288-.469-2.035-.829c-.872-.179-1.125-.188-1.1-.458.026-.286,1.347-.238,1.489-.253-.645-.142-2.332-.223-1.788-.963l0,0L84.98,8.4l-.007.006c-.379.363-1.136,1.167-1.7,1.786l-.116.126c-.242.265-.438.483-.538.6-.036.042-.07.085-.1.129l-.028.039c-.023.031-.045.064-.067.1l-.028.043c-.027.043-.052.084-.077.128l-.013.025c-.022.039-.042.078-.062.118l-.009.017h0a4.125,4.125,0,0,0-.329,2.154l.355-.06c-.05.3-.106.633-.163,1.046h0c-.088.63-.179,1.447-.251,2.636a20.657,20.657,0,0,0,.445,5.836,7.162,7.162,0,0,0,1.491,3h0l.8-.518Z" transform="translate(-23.789 -2.39)" fill="#f2ba3d"/>
            <path id="Trazado_997748" data-name="Trazado 997748" d="M101.415,10.929c.2-.594-.216-1.137-.216-1.279,0-.157.16-.414.639-.216a11.724,11.724,0,0,0-1.7-.5,8.593,8.593,0,0,1,1.279,2" transform="translate(-29.122 -2.597)" fill="#f2ba3d"/>
            <path id="Trazado_997749" data-name="Trazado 997749" d="M102.392,21.37l-4.932.045-.176,2.014a1.619,1.619,0,0,0,.669-.662c.126-.285.217-.365.427-.413a.7.7,0,0,1,.544.067c.174.139.185.527.185.527a.839.839,0,0,1,.422-.538,1.244,1.244,0,0,1,.777-.023c.216.068.287.406.287.406a1.378,1.378,0,0,1,.383-.439.641.641,0,0,1,.529-.063c.267.052.324.479.344.467s.14-.464.262-.481c.327-.045.411.356.424.655.007-.127.011-.247.009-.352,0-.019,0-.038,0-.057s0-.044,0-.065h0l0-.039a.471.471,0,0,0,0-.048c0-.02,0-.039-.007-.057a.206.206,0,0,0,0-.029.258.258,0,0,0-.008-.037.714.714,0,0,0-.179-.362l.039-.352Z" transform="translate(-28.293 -6.215)" fill="#f2ba3d"/>
            <path id="Trazado_997750" data-name="Trazado 997750" d="M101.913,35.215a5.184,5.184,0,0,1-.514-2.31,2.806,2.806,0,0,0-.46-1.284h0a3.7,3.7,0,0,1-.121-1.337,12.406,12.406,0,0,1-3.089,3.137c.1-.05,1.972-.947,2.589-.682,1.3.558.709,2.174.451,2.837a23.4,23.4,0,0,1-2.144,3.205l3.086-2.595a.382.382,0,0,1,.628.163c.1.223-.4,1.288-.4,1.288s.858-.881,1.146-.9a24.743,24.743,0,0,1,2.978.544c.683.077,2.257,0,2.71.455.365.365-1.838,1.2-1.838,1.2l1.843-.33,3.588-.426a9.114,9.114,0,0,1,1.459-.108c.5.036,4.395.63,4.395.63l1,.017a2.305,2.305,0,0,1,1.076.312c.257.27-1.211.752-1.211.752l2.81-.072s4.056.014,4.251.118c.607.325-.5.8-.5.8s1.823-.037,3.206.076a22.353,22.353,0,0,1,4.235.552c.7.487-1.135,1.567-1.135,1.567a15.933,15.933,0,0,0,3.62-1,8.711,8.711,0,0,1,2.492,0,25.828,25.828,0,0,0,2.671-.109c-4.378.082-5.133-.618-5.649-.752-.729-.188-5.631-.445-5.631-.445a17.759,17.759,0,0,0-3.225-1.045c-.847-.054-4.372.036-4.372.036l0,0-.006,0c-.038-.031-.189-.15-.386-.3l-.119-.088c-.178-.129-.38-.267-.564-.38l-.059-.033c-.06-.035-.116-.067-.17-.094L120.5,38.6c-.021-.011-.043-.019-.062-.028l-.033-.011-.043-.014h0l-.034-.009-.03-.006c-.06,0-.143-.006-.243,0l-.149.006a.546.546,0,0,1-.059,0l-.248.017-.253.02h-.006l-.129.011h0l-.208.02-.189.018-.11.011-.021,0-.019,0-.153.015-.034,0h-.033c-.09,0-4.517-.738-4.984-.738s-2.9.377-2.9.377-1.027-.63-1.1-.7a6.064,6.064,0,0,0-1.963-.469c-.631.018-4.315-.639-4.315-.639s-.234-.343-.261-.369a5.314,5.314,0,0,1-1-.9" transform="translate(-28.422 -8.807)" fill="#f2ba3d"/>
            <path id="Trazado_997751" data-name="Trazado 997751" d="M61.041,129.444l1.185.171c-.991-1.316-1.369-4.2-1.423-5.934a3.27,3.27,0,0,0,2.342,1.008c-1.579-1.793-2.55-4.89-3.125-6.888l1.513.3a32.092,32.092,0,0,1-.927-10.009,5.064,5.064,0,0,0,2.846,1.549,56.667,56.667,0,0,1-2.306-5.907,32.239,32.239,0,0,1-1.181-7.124,8.055,8.055,0,0,0,3.73,1.7,18.76,18.76,0,0,1-3.881-10.25c-.06-3.693,1.052-4.007,1.945-3.6-.587-1.116-1.142-4.988-.568-5.836.538-.791,1.582-.408,2.925-.435a10.341,10.341,0,0,1-1.654-1.77,9.974,9.974,0,0,1-1.146-6.449,7.67,7.67,0,0,0,1.828,1.062,7.4,7.4,0,0,0,2.382.64c-3.813-3.5-4.843-7.409-5.751-12.167a6.959,6.959,0,0,0,2.921,1.684,31.175,31.175,0,0,1-3.047-5.251,8.563,8.563,0,0,1-.472-3.915A4.821,4.821,0,0,1,60.8,49.86a5.4,5.4,0,0,0-2.111.557A8.718,8.718,0,0,0,60.213,47.2,12.27,12.27,0,0,1,56.2,49.623a21.93,21.93,0,0,1-6.519.243c-1.653-.306-6.45-1.972-6.45-1.972a6.186,6.186,0,0,0,1.542,1.783A10.339,10.339,0,0,1,40.909,49s-.54.838-2.344.472a21.072,21.072,0,0,1-4.333-1.395,3.354,3.354,0,0,0,.917,1.215,31.834,31.834,0,0,1-3.386-.509,10.284,10.284,0,0,1-3.674-1.323,2.471,2.471,0,0,0,.411,1.067c-.986-.1-2.758-.644-2.458-2.242a1.837,1.837,0,0,1,.979-1.5,12.628,12.628,0,0,1,2.358-.48c.85-.169,2.607-.467,3.52-.736s1.525-.506,1.525-.506a2.444,2.444,0,0,0-.486.948,8.351,8.351,0,0,1,3.642-1.155l1.41.011,5.863-1.621-1.23,1.486s2.594-1.3,3.891-1.743c1.194-.409,4.387-1.259,4.387-1.259l3.715-.834-1.158.959,3.188-.85c1.567-.487,3.937-1.252,5.775-1.865a8.179,8.179,0,0,1-1.772,1.919,10.066,10.066,0,0,0,3.683-2.036l.081,1.162a11.642,11.642,0,0,1,1.45-2.548,6.322,6.322,0,0,0,.774,1.666,19.217,19.217,0,0,1-.482-3.832l-.249,1.455-1.336,1.748a16.063,16.063,0,0,0-1.9.106c-.635.106-5.4,1.8-5.4,1.8H55.7l-.028,0-.041.007-.086.016-.032.006c-.045.009-.093.018-.148.031l-.041.01-.09.02-.092.021-.06.015-.1.024-.359.088-.1.026-.381.1-.064.016-.009,0-.074.019c-.965.248-2.181.572-3.261.862l-.4.109c-.034.009-.067.019-.1.027l-.551.15-.143.039-.91.248-.083.023-.135.037-.069.019-.1.027-.054.015-.1.027-.023.006-.008,0h0l-.184-.05c-.043-.01-.09-.023-.142-.037h-.006l-.084-.023-.017,0-.015,0-.03-.009c-.252-.065-.546-.136-.735-.17l-.041-.008a.872.872,0,0,0-.121-.013c-.212,0-8.3,2.345-8.721,2.345a26.1,26.1,0,0,0-2.752-.212c-.145.049-1.207.482-2.32.939h0a28.664,28.664,0,0,1-5.653.879c-.621.015-.83.449-1.065.5a2.126,2.126,0,0,0-.74.34,3.079,3.079,0,0,0-.76,2.484c.1,1.716.9,2.2.96,2.234h0a1.569,1.569,0,0,0,.688.221c.306-.016.318.3.726.386.538.107,2.915.1,2.915.1s5.956.213,6.283.215C36.61,50.688,39,50.1,39,50.1a17.419,17.419,0,0,0,2.053.738c.709.165,7.81.51,7.81.51l1.275-.475,7.571.586.779,5.863a31.617,31.617,0,0,0-.366,3.957c.108.621,1.049,5.544,1.049,5.544l-.2,4.569.567,5.34s-.9,3.221-.9,3.708v.116a.219.219,0,0,1,0,.03v.019c0,.051,0,.11-.006.178s0,.144-.009.226c0,.034,0,.07,0,.107s0,.106-.006.162c0,.1-.009.2-.013.306,0,.072-.006.146-.01.221,0,.038,0,.077,0,.116-.006.115-.011.234-.017.357v.006c0,.082-.008.167-.012.252,0,.05,0,.1-.007.152-.013.3-.028.6-.043.913l-.006.135-.006.135c0,.013,0,.026,0,.038,0,.1-.01.194-.014.289-.011.239-.022.474-.033.7,0,.052-.006.1-.008.153s0,.075-.006.112c0,.13-.011.257-.018.376,0,.033,0,.065,0,.1s0,.073,0,.108,0,.055,0,.082c-.008.148-.014.284-.021.406,0,.03,0,.06,0,.089,0,.086-.009.163-.011.231,0,.021,0,.041,0,.061,0,.084-.007.148-.009.193,0,.023,0,.04,0,.052v.015s-1.026,7.385-1.052,7.952.567,4.674.513,5.107-.811,4.511-.864,5,.642,10.092.642,10.092-.092,5.719-.056,6.133,1.011,7.57,1.028,7.66c.011.054,1.289,2.883,1.289,2.883l.091,1.136-.116,2.982,5.167.162,1.122-3.035.143-1.016-1.923.573a4.265,4.265,0,0,1-3.285-3.056" transform="translate(-7.169 -9.734)" fill="#f2ba3d"/>
            <path id="Trazado_997752" data-name="Trazado 997752" d="M139.268,50.423a.094.094,0,0,1,0-.019V50.38a5.617,5.617,0,0,1-.361,1.832c-.217.423-.46.469-.567.343a.654.654,0,0,1-.1-.377,4.479,4.479,0,0,1-1.434,1,6.634,6.634,0,0,1-3.418-.014s.29.567-1.108.525a10.266,10.266,0,0,1-1.479-.252h0l-2.86-.823s1.065.727,1.045,1.01c-.036.486-1.328.372-1.8.323-.7-.072-1.981-.36-1.981-.36s.143.468-.608.406c-.778-.064-2.6-.928-4.112-1.126,0,0,1.629,1.032.962,1.433s-4.816.085-6.024-.118a15.671,15.671,0,0,1-2.912-.921c.011.023.39.787-.379.863-1.649.162-2.549-.8-4.932-2.255,0,0,1.062,1.1,1.081,1.873s-2.053.234-2.053.234a10.284,10.284,0,0,1-3.81-2.215,9.682,9.682,0,0,0,2.434,3.9l-1.918-.18s1.74,1.216,1.737,2.35a6.225,6.225,0,0,1-.5,2.423,37.914,37.914,0,0,1-4.293,6.624,9.909,9.909,0,0,0,3.523-2.4,13.27,13.27,0,0,1-2.025,4.458,5.935,5.935,0,0,0,2.147-1.135,15.319,15.319,0,0,1-.918,4.783l.626-.1a20.207,20.207,0,0,1-2.016,5.261l1.352,1.135a4.977,4.977,0,0,1-.432,2.215,4.669,4.669,0,0,1-1.793,1.816c.972-.006,2.6-.348,2.9.173.309.543-.148,2.242-.284,2.756l.91-.245A11,11,0,0,1,104,88.908a30.033,30.033,0,0,1-1.174,6.278,10.143,10.143,0,0,0,2.133-2.36,16.667,16.667,0,0,1-.828,3.7s.918-.235,1,.621c.14,1.491.08,6.233.08,6.233l-1.242,5.277,1.368-1.357.721,1.663.721,1.734c-.061,2.251-.765,7.01-.765,7.01s.666.908.406,3.963a10.113,10.113,0,0,1-.721,2.574,2.107,2.107,0,0,0,.945-.9l.513,1.58L107.008,127l-.432,5.783-1.234,4.607a5.1,5.1,0,0,1-2.325.7l-.484-.574a3.371,3.371,0,0,1-1.739-1.217,2.516,2.516,0,0,1-.585-2.486,3.043,3.043,0,0,1,.909-.7,12.534,12.534,0,0,1-2.54-2.081,5.993,5.993,0,0,1-1.216-2.27l1.052-.054a10.24,10.24,0,0,1-1.366-4.268,7.291,7.291,0,0,0,3.295.7,19.731,19.731,0,0,1-3.782-5.261l.847-.027a11.343,11.343,0,0,1-2.053-5.512c-.109-1.189-.145-2.655-.145-2.655a9.477,9.477,0,0,0,2.054,1.189,3.769,3.769,0,0,0,2.242.282,29.293,29.293,0,0,1-3.179-3.605,11.6,11.6,0,0,1-1.765-3.363L96,105.7a17.849,17.849,0,0,1-2.881-6.926,7.209,7.209,0,0,0,3.546.9S95.08,98.2,93.81,96.824a14.163,14.163,0,0,1-1.932-2.765,5.306,5.306,0,0,1-.684-2.233,4.724,4.724,0,0,1,.5-1.72,2.854,2.854,0,0,0-.974.75,5.353,5.353,0,0,1-.795-2.513,6.013,6.013,0,0,0-.409,2.557,2.107,2.107,0,0,0-1.383-.369,1.916,1.916,0,0,1,1.22,2.01c.069,4.161-1.278,6.231-1.278,6.231l.9.765a12.232,12.232,0,0,1-.072,3.612,29.357,29.357,0,0,1-1.7,5.808l.864-.323a19.3,19.3,0,0,1-1.53,3.864l1.144-.352-1.225,6.351.559,1.639s-.731,2.983-1.028,3.962a24.827,24.827,0,0,1-1.891,4.827l1.216-.352s-.477,1.3-.747,2.3c-.454,1.681-1.223,5.815-1.25,5.958l.006-.017a.669.669,0,0,1,.021-.065.268.268,0,0,1,.008-.027c.008-.025.017-.055.028-.087,0-.011.008-.023.012-.036l.07-.215c.006-.016.011-.033.016-.05.05-.152.108-.335.177-.543l.022-.07q.081-.249.174-.536c.016-.05.033-.1.048-.152s.04-.123.062-.188.036-.111.054-.168l0-.008c.018-.058.038-.119.057-.178s.04-.126.062-.189.04-.126.061-.189c.011-.034.023-.069.033-.1.021-.063.04-.126.062-.188l.1-.323c.01-.032.021-.065.031-.1l.338-1.048c.022-.07.045-.141.067-.212.114-.352.226-.7.337-1.046.01-.035.021-.069.033-.1.14-.443.277-.868.4-1.256l.1-.333c.01-.033.021-.065.031-.1l.026-.082c.065-.2.124-.394.177-.564.011-.033.021-.064.03-.094.04-.129.077-.247.108-.35,0-.017.01-.033.015-.05.079-.262.125-.422.125-.445,0-.179.176-3.667.176-3.667l1.15-3.9s1.191-10.545,1.191-10.626c0-.163-.216-1.406-.216-1.406l1.159-4.882.5-11.518.274,1.406s.918,9.465.972,9.826,1.208,2.683,1.208,2.683.955,14.166.955,14.347,1.134,2.286,1.134,2.286.8,6.07.906,6.413,1.3,3.616,1.3,3.616.657,3.5.73,3.678,1.44,1.369,1.513,1.478a7.428,7.428,0,0,1,.185,1.064l.155.565h0l.115.419.041.15.064.234.377,1.371,4.809-.085.611-2.762-.016-1.081.116-.309c.028-.073.059-.157.093-.25,0-.011.008-.023.012-.033.042-.113.089-.239.138-.374.009-.026.02-.055.029-.082s.012-.033.018-.049c.08-.219.166-.46.255-.709l.045-.127c.153-.435.311-.894.447-1.317.02-.063.04-.126.06-.187.029-.092.058-.182.084-.27l.051-.17c0-.009,0-.019.009-.028.013-.045.026-.09.038-.133.008-.026.015-.052.021-.077.015-.05.028-.1.039-.145.018-.07.034-.135.048-.2,0-.02.009-.04.012-.06s.013-.062.018-.091.007-.043.011-.062c.145-.972.545-7.9.545-7.9l-.617-2.557s0-.028.008-.077c0-.016,0-.033,0-.052l0-.037v-.006c.027-.306.082-.946.091-1.352,0-.021,0-.041,0-.061s0-.175,0-.414c0-.118,0-.261,0-.423s0-.344,0-.542c0-.425.006-.925.011-1.469,0-.036,0-.073,0-.11,0-.806.011-1.7.018-2.58,0-.121,0-.24,0-.36,0-.04,0-.081,0-.12,0-.12,0-.237,0-.355,0-.04,0-.078,0-.117,0-.235,0-.465,0-.689,0-.038,0-.075,0-.112,0-.335,0-.654.006-.954,0-.1,0-.2,0-.291,0-.064,0-.125,0-.187,0-.091,0-.18,0-.265,0-.057,0-.113,0-.167s0-.107,0-.159,0-.1,0-.15c0-.581.006-.938.006-.938s-.826-2.965-.876-3.3a21.052,21.052,0,0,1,.108-2.954,7.583,7.583,0,0,0-.613-1.117c-.216-.252-.058-10.835-.058-10.835l0-.011,0-.021,0-.012a.181.181,0,0,0-.006-.033l-.007-.044a.123.123,0,0,1,0-.024c-.023-.121-.057-.311-.1-.553,0-.034-.011-.068-.018-.1s-.008-.04-.012-.062c-.006-.038-.013-.077-.021-.116-.033-.186-.072-.392-.112-.613,0-.026-.009-.05-.013-.075-.009-.05-.018-.1-.028-.152s-.019-.1-.028-.157c-.023-.132-.049-.269-.074-.408,0-.028-.009-.056-.015-.084,0-.009,0-.017,0-.026-.009-.048-.018-.1-.026-.145-.033-.181-.065-.366-.1-.553-.008-.049-.018-.1-.026-.148-.021-.115-.042-.232-.062-.348-.01-.057-.021-.115-.031-.174-.006-.038-.013-.075-.02-.112-.013-.079-.028-.159-.043-.239-.009-.058-.02-.116-.03-.175s-.02-.116-.031-.174l-.031-.173c-.07-.4-.138-.8-.2-1.164-.006-.028-.01-.056-.015-.084-.07-.413-.133-.789-.182-1.1-.018-.116-.033-.221-.05-.318v-.01c-.012-.084-.023-.158-.033-.227h0c-.009-.069-.016-.129-.023-.181v-.006c0-.029-.006-.056-.009-.079v-.006a.033.033,0,0,0,0-.012v-.013a.561.561,0,0,1,0-.091,12,12,0,0,0-.828-2.32h.007l.065-2.543-.184-.649s.469-2.918.542-4a10.823,10.823,0,0,0-.252-2.522s1.225-6.651,1.152-7.048a10.619,10.619,0,0,0-.648-1.55l1.742-6.758L106,56.58l.069-.006h.013l.049,0h.011l.043,0,.035,0,.094-.009.324-.029.093-.009,1.365-.119.254-.023.26-.022,1.043-.089.253-.021h0l.248-.021h.01l.232-.019.379-.03.223-.018.058,0,.1-.007.272-.021.113-.008.065,0,.1-.007.232-.014h.1a24.833,24.833,0,0,0,2.932-.793s7.579.324,8.192.072l.059-.025.062-.028c.2-.09.426-.216.647-.344l.02-.011.064-.038.023-.013.059-.035.009-.006h0l.065-.04h0l.129-.079c.114-.069.218-.135.3-.191l.049-.03c.123-.079.2-.13.2-.13l2.74.072,2.771.072.721-.174,1.371-.331h.033l.052,0h.023l.067,0,.05,0,.072,0,.046,0,.161-.007h.011L133.1,54h.025l.111-.006h.016c.109,0,.227-.011.35-.017l.169-.009.189-.01.048,0,.118-.006.038,0q.244-.012.494-.026l.2-.011.426-.026h0l.26-.016.108-.008.152-.011.035,0,.091-.006.379-.029c.04,0,.079-.006.116-.01l.154-.014.177-.019.124-.016.067-.01a.919.919,0,0,0,.1-.02.664.664,0,0,0,.133-.048l.033-.017a.11.11,0,0,0,.026-.015.252.252,0,0,0,.034-.022c.022-.016.043-.032.062-.049.06-.052.106-.108.155-.155.008-.007.016-.015.023-.022a.315.315,0,0,1,.03-.024l.03-.023a.319.319,0,0,1,.07-.033l.019,0,.032-.008.016,0,.043,0a1.576,1.576,0,0,0,.675-.257s.83-.5.844-2.283c0-.116,0-.228-.009-.335" transform="translate(-24.231 -14.652)" fill="#f2ba3d"/>
            <path id="Trazado_997753" data-name="Trazado 997753" d="M102.233,20.018l.111-.982a.285.285,0,0,0,.043-.023.252.252,0,0,0,.052-.041.2.2,0,0,0,.028-.028l0,0c.011-.011.021-.024.032-.037a.3.3,0,0,0,.024-.035.428.428,0,0,0,.028-.042,1.118,1.118,0,0,0,.088-.172c0-.012.009-.024.015-.035s.011-.028.017-.043c.021-.055.04-.115.059-.177.006-.023.014-.049.021-.073s.007-.025.011-.038.012-.05.018-.077c.021-.084.04-.172.055-.262-.2.779-.387.76-.539.76-.257,0-.216-.713-.216-.713s-.16.734-.673.734a.851.851,0,0,1-.806-.757c0,.044-.016.715-.362.833a.792.792,0,0,1-.741-.121c-.252-.212-.279-.888-.279-.888s-.044.733-.3.926a.7.7,0,0,1-.5.1c-.169-.014-.338-.2-.413-.516a1.491,1.491,0,0,0-.5-.872l-.856,2.44Z" transform="translate(-28.11 -5.072)" fill="#f2ba3d"/>
            <path id="Trazado_997754" data-name="Trazado 997754" d="M93.051,8.079a3.92,3.92,0,0,0-1.989-1.038c-.082-.015-.8-.109-.845-.3-.03-.122.221-.243.852-.216a7.687,7.687,0,0,1,1.791.338A11.37,11.37,0,0,1,94.03,7.3a2.478,2.478,0,0,0-.413-.544c-.208-.194-.1-.371.077-.459a1.712,1.712,0,0,1,.675-.172.448.448,0,0,0-.1,0,.147.147,0,0,0-.03,0h-.013l-.04,0c-.036,0-.075.007-.119.013l-.062.009-.08.011-.041.006c-.033,0-.066.01-.1.016l-.121.02-.189.034-.123.023-.075.014-.146.03-.082.016-.067.013-.049.01-.1.02-.109.023-.113.023-.357.077h0l-.012,0-.014,0-.133.03-.025,0-.013,0-.04.009-.01,0h-.007l-.011,0a9.654,9.654,0,0,0-1.513-.082c-.017,0-.036.006-.057.011l-.016,0-.031.007a.338.338,0,0,0-.033.01l-.008,0-.009,0-.04.013-.043.013h0c-.043.013-.087.028-.135.045h0l-.071.026-.013,0-.045.017-.045.017-.045.017-.176.069-.067.026-.05.021-.069.028-.137.056-.052.021L89.27,6.9l-.035.015-.054.023-.2.084-.147.064-.2.087q-.037.018-.072.032c-.2.087-.348.155-.422.189l-.014.006-.009,0-.009,0-.017.008a14.41,14.41,0,0,1,4.96.66" transform="translate(-25.619 -1.781)" fill="#f2ba3d"/>
            <path id="Trazado_997755" data-name="Trazado 997755" d="M97.872,29.484a8.447,8.447,0,0,0,2.871-2.27,4.624,4.624,0,0,0,1.02-2.4,16.156,16.156,0,0,1-3.891,4.674" transform="translate(-28.464 -7.215)" fill="#f2ba3d"/>
            <path id="Trazado_997756" data-name="Trazado 997756" d="M91.691,84.085c0-.091-.3-9.2-.617-10.948-.242-1.33-.355-4.82-.465-8.194-.039-1.2-.076-2.329-.118-3.361-.017-.408-.048-1.077-.087-1.932-.177-3.852-.545-11.867-.54-16.229.006-3.847.212-9.094.214-9.147l.284.011c0,.052-.208,5.295-.213,9.136-.006,4.356.362,12.367.539,16.216.039.856.07,1.527.087,1.935.043,1.033.079,2.164.118,3.363.109,3.364.223,6.843.46,8.152.323,1.773.61,10.615.622,10.99Z" transform="translate(-26.135 -9.968)" fill="#282828"/>
            <path id="Trazado_997757" data-name="Trazado 997757" d="M103.858,96.367a.142.142,0,0,1-.023-.282,16.993,16.993,0,0,0,5.539-1.788.142.142,0,0,1,.148.243,16.945,16.945,0,0,1-5.639,1.825l-.024,0" transform="translate(-30.164 -27.418)" fill="#282828"/>
            <path id="Trazado_997758" data-name="Trazado 997758" d="M80.058,96.367a.11.11,0,0,1-.026,0,25.238,25.238,0,0,1-6.3-1.82.142.142,0,0,1,.13-.252,25.566,25.566,0,0,0,6.226,1.794.142.142,0,0,1-.026.282" transform="translate(-21.42 -27.418)" fill="#282828"/>
            <path id="Trazado_997759" data-name="Trazado 997759" d="M84.491,96.188h-.009a16.171,16.171,0,0,1-3.928-.66.142.142,0,0,1,.094-.269A16.18,16.18,0,0,0,84.5,95.9a.142.142,0,0,1-.009.284" transform="translate(-23.4 -27.702)" fill="#282828"/>
            <path id="Trazado_997760" data-name="Trazado 997760" d="M98.9,96.277a.142.142,0,0,1,0-.284,24.019,24.019,0,0,0,4.01-.429.142.142,0,0,1,.077.274,23.774,23.774,0,0,1-4.078.44h0" transform="translate(-28.722 -27.791)" fill="#282828"/>
            <path id="Trazado_997761" data-name="Trazado 997761" d="M26.7,54.571a.137.137,0,0,1-.085-.028,3.4,3.4,0,0,1-.948-2.864,4.278,4.278,0,0,1,.868-2.437.142.142,0,0,1,.219.182,4.064,4.064,0,0,0-.8,2.264,3.212,3.212,0,0,0,.835,2.63.142.142,0,0,1-.087.255" transform="translate(-7.465 -14.306)" fill="#282828"/>
            <path id="Trazado_997762" data-name="Trazado 997762" d="M159.8,52.381a.142.142,0,0,1-.086-.255,3.212,3.212,0,0,0,.835-2.63,4.049,4.049,0,0,0-.8-2.264.142.142,0,1,1,.218-.182,4.275,4.275,0,0,1,.868,2.437,3.4,3.4,0,0,1-.947,2.864.145.145,0,0,1-.086.028" transform="translate(-46.433 -13.669)" fill="#282828"/>
            <path id="Trazado_997763" data-name="Trazado 997763" d="M77.253,173a5.469,5.469,0,0,1-2.972-.963.142.142,0,0,1,.169-.229,5.278,5.278,0,0,0,2.8.908,7.2,7.2,0,0,0,3.242-.7.142.142,0,0,1,.14.247,7.328,7.328,0,0,1-3.381.739" transform="translate(-21.586 -49.958)" fill="#282828"/>
            <path id="Trazado_997764" data-name="Trazado 997764" d="M109.041,173.846a9.229,9.229,0,0,1-3.344-.667.142.142,0,1,1,.113-.26,9.13,9.13,0,0,0,3.231.643,4.992,4.992,0,0,0,2.757-.754.142.142,0,0,1,.169.229,5.18,5.18,0,0,1-2.926.809" transform="translate(-30.715 -50.249)" fill="#282828"/>
            <path id="Trazado_997765" data-name="Trazado 997765" d="M89.606,34.8l-.289,1.081a.23.23,0,0,0,.163.282l.2.054a.231.231,0,0,0,.282-.163l.29-1.081a.118.118,0,0,0-.084-.145l-.418-.112a.118.118,0,0,0-.145.084m.26,1.216a.138.138,0,0,1-.169.1l-.178-.048a.138.138,0,0,1-.1-.169l.087-.325a.12.12,0,0,1,.077-.082l.126-.044a.121.121,0,0,1,.13.035l.087.1a.121.121,0,0,1,.026.11Z" transform="translate(-25.973 -10.096)" fill="gray"/>
            <rect id="Rectángulo_455747" data-name="Rectángulo 455747" width="0.77" height="0.231" transform="translate(63.776 25.022) rotate(-75.023)" fill="#4d4d4d"/>
            <path id="Trazado_997766" data-name="Trazado 997766" d="M78,179.217a1.268,1.268,0,0,1-.011,1.011s-5.007,2.386-8.107,2.71-3.984-.138-4.443-.4c-.422-.244-.384-1.144-.384-1.144a2.387,2.387,0,0,1,.02-1.516c.456-1.394,1.2-1.586,3.427-2.418s3.149-3.875,3.149-3.875.57.86,2.662.943a5.513,5.513,0,0,0,3.51-.834s.2,1.953.316,3.115A7.459,7.459,0,0,1,78,179.217" transform="translate(-18.888 -50.483)" fill="#4d4d4d"/>
            <path id="Trazado_997767" data-name="Trazado 997767" d="M71.654,173.582s-.92,3.044-3.149,3.875-2.971,1.024-3.427,2.418a2.386,2.386,0,0,0-.02,1.516s1.878.923,5.676.285A33.274,33.274,0,0,0,78,179.217a7.446,7.446,0,0,0,.14-2.411c-.116-1.162-.316-3.115-.316-3.115a5.509,5.509,0,0,1-3.51.833c-2.093-.083-2.662-.942-2.662-.942" transform="translate(-18.888 -50.483)" fill="#282828"/>
            <path id="Trazado_997768" data-name="Trazado 997768" d="M118.546,182.314s.037.9-.384,1.144c-.46.265-1.344.728-4.444.4s-8.106-2.71-8.106-2.71a1.261,1.261,0,0,1-.011-1.011,7.457,7.457,0,0,1-.14-2.411c.116-1.162.317-3.115.317-3.115a5.511,5.511,0,0,0,3.509.834c2.093-.084,2.662-.943,2.662-.943s.921,3.044,3.149,3.875,2.971,1.024,3.427,2.418a2.383,2.383,0,0,1,.019,1.516" transform="translate(-30.66 -50.751)" fill="#4d4d4d"/>
            <path id="Trazado_997769" data-name="Trazado 997769" d="M111.951,174.506s.92,3.044,3.149,3.875,2.971,1.024,3.427,2.418a2.386,2.386,0,0,1,.02,1.516s-1.878.923-5.675.285a33.276,33.276,0,0,1-7.269-2.459,7.446,7.446,0,0,1-.14-2.411c.116-1.162.316-3.115.316-3.115a5.509,5.509,0,0,0,3.51.833c2.093-.083,2.662-.943,2.662-.943" transform="translate(-30.66 -50.751)" fill="#282828"/>
            <path id="Trazado_997770" data-name="Trazado 997770" d="M120.959,182c0,.347-.611.628-1.364.628s-1.364-.281-1.364-.628.611-.628,1.364-.628,1.364.281,1.364.628" transform="translate(-34.385 -52.749)" fill="#4d4d4d"/>
            <path id="Trazado_997771" data-name="Trazado 997771" d="M70.977,181.536c.065.312-.433.679-1.111.82s-1.281,0-1.345-.311.433-.679,1.111-.82,1.281,0,1.345.311" transform="translate(-19.926 -52.69)" fill="#4d4d4d"/>
            <path id="Trazado_997772" data-name="Trazado 997772" d="M116.761,181.527c0,.191-.337.346-.752.346s-.752-.155-.752-.346.337-.346.752-.346.752.155.752.346" transform="translate(-33.52 -52.693)" fill="#4d4d4d"/>
            <path id="Trazado_997773" data-name="Trazado 997773" d="M93.456,19.729a3.181,3.181,0,0,1-.9,2.146l-.139.56A15.569,15.569,0,0,1,90.749,26.7a5.452,5.452,0,0,1-4.5,2.674,3.575,3.575,0,0,1-2.425-1.13h0a7.157,7.157,0,0,1-1.491-3,24.4,24.4,0,0,1-.342-5.539,27.34,27.34,0,0,1,.435-4,29.257,29.257,0,0,1,3.8-.2,20.225,20.225,0,0,1,5.044.516h0a6.24,6.24,0,0,1,1.744.788c.532.447.585,1.863.441,2.927" transform="translate(-23.838 -4.507)" fill="#f8cbca"/>
            <path id="Trazado_997774" data-name="Trazado 997774" d="M84.881,20.686c0,.379-.184.686-.411.686s-.411-.307-.411-.686.184-.686.411-.686.411.307.411.686" transform="translate(-24.446 -5.817)" fill="#282828"/>
            <path id="Trazado_997775" data-name="Trazado 997775" d="M91.566,20.686c0,.379-.184.686-.411.686s-.411-.307-.411-.686.184-.686.411-.686.411.307.411.686" transform="translate(-26.391 -5.817)" fill="#282828"/>
            <path id="Trazado_997776" data-name="Trazado 997776" d="M85.044,18.485a.217.217,0,0,1-.111-.03,1.939,1.939,0,0,0-1.937-.1.212.212,0,0,1-.218-.364,2.353,2.353,0,0,1,2.376.106.212.212,0,0,1-.111.392" transform="translate(-24.044 -5.152)" fill="#282828"/>
            <path id="Trazado_997777" data-name="Trazado 997777" d="M89.7,18.483a.211.211,0,0,1-.108-.394,2.507,2.507,0,0,1,2.474-.1.212.212,0,0,1-.213.365,2.083,2.083,0,0,0-2.045.1.2.2,0,0,1-.108.03" transform="translate(-26.025 -5.15)" fill="#282828"/>
            <path id="Trazado_997778" data-name="Trazado 997778" d="M82.024,24.866A4.065,4.065,0,0,0,83.1,24.8c1.4-.234,2.01-1.027,2.859-1.013s1.106.689,2.828,1.085a10.531,10.531,0,0,0,3.649-.022,15.572,15.572,0,0,1-1.668,4.264,5.455,5.455,0,0,1-4.5,2.675,3.466,3.466,0,0,1-2.425-1.131,7.055,7.055,0,0,1-1.492-2.814,10.782,10.782,0,0,1-.324-2.973" transform="translate(-23.853 -6.916)" fill="#d2f5ff"/>
            <path id="Trazado_997779" data-name="Trazado 997779" d="M86.4,32.279h-.039a3.141,3.141,0,0,1-2-.806c-.1-.083-.191-.171-.28-.262a5.035,5.035,0,0,1-.59-.785,7.693,7.693,0,0,1-.531-1.012,6.4,6.4,0,0,1-.318-.921c0-.017-.009-.035-.013-.053-.074-.289-.135-.6-.183-.906a11.172,11.172,0,0,1-.123-1.317l.211-.007a11.066,11.066,0,0,0,.121,1.292c.046.3.107.6.18.891,0,.018.008.033.011.046a6.13,6.13,0,0,0,.307.891,7.524,7.524,0,0,0,.516.984,4.9,4.9,0,0,0,.562.75c.084.086.174.169.266.248a2.936,2.936,0,0,0,1.862.756H86.4a4.707,4.707,0,0,0,2.359-.725l.026-.015a5.109,5.109,0,0,0,1.145-.962l.033-.036a4.922,4.922,0,0,0,.528-.73c.032-.055.064-.108.094-.162.163-.286.321-.591.469-.91.14-.3.269-.6.384-.9l.027-.068c.167-.433.316-.879.446-1.328l.2.059c-.138.478-.3.954-.478,1.413l-.028.067c-.111.281-.233.564-.364.844-.15.323-.311.634-.476.924-.03.055-.063.109-.1.165a5.066,5.066,0,0,1-.582.8l-.033.035a5.308,5.308,0,0,1-1.187.982l-.026.016a4.915,4.915,0,0,1-2.445.74" transform="translate(-23.942 -7.623)" fill="#f3feff"/>
            <path id="Trazado_997780" data-name="Trazado 997780" d="M86.639,28.989l-.262,0a7.915,7.915,0,0,1-3.807-.878l.106-.183a7.7,7.7,0,0,0,3.7.849,18.844,18.844,0,0,0,5.2-.709l.029,0v.107l.028.1a19.266,19.266,0,0,1-5,.72" transform="translate(-24.014 -8.122)" fill="#f3feff"/>
            <path id="Trazado_997781" data-name="Trazado 997781" d="M86.714,30.158l-.262,0a8.176,8.176,0,0,1-3.62-.776l.1-.188a7.982,7.982,0,0,0,3.527.752,18.731,18.731,0,0,0,4.812-.606l.053.2a19.153,19.153,0,0,1-4.607.615" transform="translate(-24.09 -8.49)" fill="#f3feff"/>
            <path id="Trazado_997782" data-name="Trazado 997782" d="M86.851,31.349l-.262,0a8.754,8.754,0,0,1-3.29-.621l.084-.194a8.531,8.531,0,0,0,3.21.6,18.259,18.259,0,0,0,4.343-.491l.048.206a18.735,18.735,0,0,1-4.132.5" transform="translate(-24.226 -8.88)" fill="#f3feff"/>
            <path id="Trazado_997783" data-name="Trazado 997783" d="M87.077,32.559l-.27,0a9.522,9.522,0,0,1-2.757-.421l.065-.2a9.277,9.277,0,0,0,2.7.411A17.578,17.578,0,0,0,90.49,32l.021,0V32.1l.019.1a18.09,18.09,0,0,1-3.454.355" transform="translate(-24.444 -9.287)" fill="#f3feff"/>
            <path id="Trazado_997784" data-name="Trazado 997784" d="M87.423,33.777l-.262,0a10.653,10.653,0,0,1-1.9-.2l.042-.207a10.43,10.43,0,0,0,1.858.192,16.581,16.581,0,0,0,2.49-.152h.014v.11l.013.1a17.064,17.064,0,0,1-2.259.157" transform="translate(-24.797 -9.705)" fill="#f3feff"/>
            <path id="Trazado_997785" data-name="Trazado 997785" d="M90.382,25.984a7.361,7.361,0,0,1-1.622-.162,6.022,6.022,0,0,1-1.828-.732,1.9,1.9,0,0,0-.977-.35,2.412,2.412,0,0,0-1.143.386,5.192,5.192,0,0,1-2.792.7l.009-.211a4.974,4.974,0,0,0,2.685-.68,2.629,2.629,0,0,1,1.245-.41,2.088,2.088,0,0,1,1.079.378,5.841,5.841,0,0,0,1.771.709,10.172,10.172,0,0,0,3.443,0l.033.209a12.56,12.56,0,0,1-1.9.154" transform="translate(-23.853 -7.134)" fill="#f3feff"/>
            <g id="Grupo_1179390" data-name="Grupo 1179390" transform="translate(59.034 11.001)" opacity="0.5">
              <g id="Grupo_1179389" data-name="Grupo 1179389">
                <g id="Grupo_1179388" data-name="Grupo 1179388" clip-path="url(#clip-path-45)">
                  <path id="Trazado_997786" data-name="Trazado 997786" d="M87.1,15.513,83.243,22.2a3.827,3.827,0,0,0,1.33-.4h0l.008,0,.006,0,.157-.1c.026-.017.052-.035.076-.054.789-.6.845-1.6,1.509-1.614a.572.572,0,0,1,.146.013.441.441,0,0,1,.055.015.594.594,0,0,1,.2.116.578.578,0,0,1,.044.04.624.624,0,0,1,.046.05l.037.043a2.315,2.315,0,0,1,.206.326l2.857-4.944c-.909-.1-1.929-.146-2.823-.167m4.549.51-.009,0h0a6.308,6.308,0,0,0-.933-.228l-3.213,5.566-.055.094.033.021c.189.121.34.213.374.235l0,0h0a3.219,3.219,0,0,0,1.077.456L92.2,16.5a1.062,1.062,0,0,0-.547-.48" transform="translate(-83.243 -15.513)" fill="#fff"/>
                </g>
              </g>
            </g>
            <path id="Trazado_997787" data-name="Trazado 997787" d="M93.364,22.614h-.026l-.011-.317a1.568,1.568,0,0,0,1.351-.822,5.274,5.274,0,0,0,.633-2.348c.06-.925.039-2.523-.789-2.812l.1-.3a6.38,6.38,0,0,1,1.8.818c.646.543.616,2.185.5,3.069-.174,1.277-.56,2.06-1.18,2.4a9.168,9.168,0,0,1-2.373.316m1.9-6.041a4.915,4.915,0,0,1,.359,2.576,5.578,5.578,0,0,1-.674,2.486,1.98,1.98,0,0,1-.506.592,4.785,4.785,0,0,0,1.139-.208c.525-.285.858-.991,1.016-2.16.149-1.1.064-2.406-.386-2.784a3.764,3.764,0,0,0-.948-.5" transform="translate(-27.142 -4.657)" fill="#66d8d8"/>
            <path id="Trazado_997788" data-name="Trazado 997788" d="M89.012,22.407A4.6,4.6,0,0,1,86.6,21.77l-.057-.042a2.627,2.627,0,0,1-.685-.929c-.227-.431-.38-.693-.682-.688-.265.006-.407.226-.635.612a3.068,3.068,0,0,1-.782.969c-.081.062-.246.16-.265.171a4.623,4.623,0,0,1-2.238.467c-1.3-.043-2.009-1.258-2.009-3.421,0-1.669.363-2.711,1.078-3.1.916-.5,4.266-.548,5.113-.535a20.609,20.609,0,0,1,5.067.515h.011l.026.013c.968.347,1.074,1.893.993,3.13a5.578,5.578,0,0,1-.674,2.486,1.881,1.881,0,0,1-1.6.979c-.068.006-.151.009-.245.009m-3.825-2.614c.5,0,.728.436.95.858a2.359,2.359,0,0,0,.595.823l.05.037a4.426,4.426,0,0,0,2.449.571,1.568,1.568,0,0,0,1.351-.822,5.265,5.265,0,0,0,.633-2.348c.06-.916.04-2.491-.764-2.8h-.009l-.025-.012a20.278,20.278,0,0,0-4.987-.5c-1.23-.018-4.186.079-4.956.5-.754.409-.912,1.76-.912,2.821,0,1.138.221,3.054,1.7,3.1a4.37,4.37,0,0,0,2.07-.426c.042-.026.174-.106.23-.148a2.82,2.82,0,0,0,.7-.878c.23-.389.447-.757.9-.769h.021" transform="translate(-23.046 -4.442)" fill="#66d8d8"/>
            <path id="Trazado_997789" data-name="Trazado 997789" d="M85.167,23.719l-.152-.279a1.787,1.787,0,0,0,.227-.147,2.814,2.814,0,0,0,.7-.879c.23-.389.447-.757.9-.767.514-.015.746.43.971.857a2.375,2.375,0,0,0,.595.823c.016.011.031.023.048.034l-.174.266c-.02-.012-.178-.11-.382-.24a1.537,1.537,0,0,0-2.042-.035l-.15.08-.471.248-.071.037m1.7-1.755h-.012c-.265.007-.407.226-.635.613-.065.11-.133.225-.209.34a1.919,1.919,0,0,1,.821-.252,2.048,2.048,0,0,1,.835.228c-.045-.082-.088-.162-.129-.241-.224-.425-.377-.688-.67-.688" transform="translate(-24.725 -6.296)" fill="#66d8d8"/>
            <path id="Trazado_997790" data-name="Trazado 997790" d="M102.366,21.4a19.891,19.891,0,0,1-2.392.174,20.74,20.74,0,0,1-2.581-.117,6.935,6.935,0,0,0,.165-1.742s1.272.115,2.542.1c1.445-.013,2.458-.124,2.458-.124Z" transform="translate(-28.325 -5.727)" fill="#282828"/>
            <path id="Trazado_997791" data-name="Trazado 997791" d="M97.349,21.526a.1.1,0,0,1-.024,0,.106.106,0,0,1-.079-.127,6.85,6.85,0,0,0,.162-1.715.106.106,0,0,1,.212-.008,7.093,7.093,0,0,1-.167,1.77.106.106,0,0,1-.1.082" transform="translate(-28.281 -5.692)" fill="#66d8d8"/>
            <path id="Trazado_997792" data-name="Trazado 997792" d="M98.327,51.075c-.067.056-.1.086-.163.145l.143.152c-.037.035-.056.053-.092.09l-.374-.374a3.739,3.739,0,0,1,.294-.269c.023.028.035.043.059.07-.075.064-.113.1-.185.165l.093.1c.066-.061.1-.091.167-.148l.059.07M98.779,51a.324.324,0,0,1-.214.069.267.267,0,0,1-.186-.111.241.241,0,0,1-.061-.208.341.341,0,0,1,.152-.2.329.329,0,0,1,.237-.071.249.249,0,0,1,.172.133.27.27,0,0,1,.039.212.32.32,0,0,1-.139.175m-.02-.314a.15.15,0,0,0-.235-.058.162.162,0,0,0-.077.111.185.185,0,0,0,.046.132.2.2,0,0,0,.111.084.155.155,0,0,0,.122-.031c.085-.06.1-.136.033-.237m.361.094c-.1-.186-.152-.278-.255-.464.068-.038.1-.055.172-.09a.368.368,0,0,1,.2-.049.136.136,0,0,1,.11.172.211.211,0,0,1-.055.087c.135.069.216.119.254.141-.051.021-.076.032-.126.054-.084-.051-.128-.076-.216-.123l-.062.031.092.181-.111.059m-.023-.321.038-.02a.2.2,0,0,0,.077-.057.059.059,0,0,0,0-.063.056.056,0,0,0-.051-.035.215.215,0,0,0-.1.028l-.038.019.065.128m.832-.016c-.026-.088-.039-.131-.065-.219.094-.027.14-.04.235-.061.021.089.031.133.052.222.048-.011.071-.016.119-.026l-.1-.518c-.054.011-.081.016-.135.029.018.081.028.121.047.2-.1.023-.145.035-.24.063l-.058-.2-.133.041.165.5c.047-.015.07-.023.118-.036m.535-.163a.277.277,0,0,0,.179.03.339.339,0,0,0,.125-.035.192.192,0,0,0,.079-.073.181.181,0,0,0,.025-.1c-.006-.137-.009-.206-.016-.342-.055,0-.082,0-.138.008l.025.322a.127.127,0,0,1-.021.092.122.122,0,0,1-.086.037.1.1,0,0,1-.133-.1l-.043-.321-.136.02.055.337a.181.181,0,0,0,.085.131m.665,0c0-.1,0-.148,0-.245,0-.028,0-.085-.006-.169h0c.058.167.084.251.132.42l.111.007c.072-.161.111-.24.2-.4h0c-.011.066-.018.106-.02.122s0,.028-.006.04l-.028.248.113.015c.03-.21.045-.314.075-.523-.074-.011-.112-.016-.187-.023-.082.154-.119.232-.189.39h0c-.046-.165-.072-.247-.128-.411-.074,0-.112,0-.187,0,0,.212,0,.318,0,.529h.109m.576.051a5.149,5.149,0,0,1,.311-.482c.067.014.1.021.165.038a4.9,4.9,0,0,1,.067.57c-.05-.016-.076-.023-.127-.037,0-.053,0-.079-.009-.133-.084-.022-.127-.032-.212-.05-.027.046-.04.069-.067.116-.052-.011-.077-.015-.13-.023m.247-.177c.062.013.093.021.155.036-.011-.121-.021-.189-.023-.2s0-.028,0-.037c-.016.028-.061.1-.129.206m.555.128c.01-.028.025-.077.043-.145h0a3.728,3.728,0,0,1,.1.469c.058.025.087.038.144.065l.228-.477c-.046-.022-.069-.032-.116-.052l-.1.228q-.017.039-.053.136h0a3.917,3.917,0,0,0-.1-.47c-.066-.025-.1-.036-.166-.058-.066.2-.1.3-.165.5l.1.035c.034-.094.051-.14.084-.234m.535.517.26-.46c-.05-.028-.074-.042-.124-.068-.1.187-.148.281-.245.469.044.023.066.035.11.06m.772-.123a3.687,3.687,0,0,0-.423-.285l-.048.08c.061.036.091.055.152.094l-.238.365.106.071.248-.357c.06.041.089.062.147.106l.056-.074m.355.3c-.1.024-.152.038-.251.067.016-.1.023-.152.035-.256-.049-.04-.074-.06-.123-.1-.008.159-.014.238-.034.392l-.13.154.1.085.138-.152a3.686,3.686,0,0,1,.384-.08c-.045-.045-.069-.067-.115-.111m-2.506.752h-1.27v1.587H98.807v1.27h1.587v1.587h1.27V54.587h1.587v-1.27h-1.587Z" transform="translate(-28.455 -14.47)" fill="#fff"/>
            <path id="Trazado_997793" data-name="Trazado 997793" d="M122.07,44.005c0,.3-.77.541-1.72.541s-1.72-.243-1.72-.541.77-.54,1.72-.54,1.72.243,1.72.54" transform="translate(-34.501 -12.641)" fill="#ffe692"/>
            <path id="Trazado_997794" data-name="Trazado 997794" d="M99.044,11.125c-.156.191-.654.045-1.11-.326s-.7-.829-.543-1.02.653-.046,1.109.326.7.829.544,1.02" transform="translate(-28.31 -2.819)" fill="#ffe692"/>
            <path id="Trazado_997795" data-name="Trazado 997795" d="M100.518,13.792a.435.435,0,1,1-.133-.486.367.367,0,0,1,.133.486" transform="translate(-29.034 -3.835)" fill="#ffe692"/>
            <path id="Trazado_997796" data-name="Trazado 997796" d="M62.169,53.494c-.011.3-.789.512-1.739.477s-1.71-.3-1.7-.6.789-.512,1.739-.478,1.71.3,1.7.6" transform="translate(-17.081 -15.381)" fill="#ffe692"/>
            <path id="Trazado_997797" data-name="Trazado 997797" d="M66.422,51.769c0,.179-.294.324-.655.324s-.655-.145-.655-.324.294-.324.655-.324.655.145.655.324" transform="translate(-18.936 -14.962)" fill="#ffe692"/>
            <path id="Trazado_997798" data-name="Trazado 997798" d="M108.269,104.782c-.2.955-.766,1.645-1.272,1.54s-.756-.962-.56-1.918.767-1.645,1.272-1.54.755.963.559,1.918" transform="translate(-30.936 -29.913)" fill="#ffe692"/>
            <path id="Trazado_997799" data-name="Trazado 997799" d="M105.77,109.713c0,.348-.2.63-.45.63s-.45-.282-.45-.63.2-.63.45-.63.45.282.45.63" transform="translate(-30.499 -31.724)" fill="#ffe692"/>
          </g>
        </g>
      </g>
    </g>
  </g>
</svg>
