<svg xmlns="http://www.w3.org/2000/svg" xmlns:xlink="http://www.w3.org/1999/xlink" width="261.059" height="156" viewBox="0 0 261.059 156">
  <defs>
    <clipPath id="clip-path">
      <rect id="Rectángulo_455682" data-name="Rectángulo 455682" width="152.727" height="124.251" fill="none"/>
    </clipPath>
    <clipPath id="clip-path-3">
      <rect id="Rectángulo_455657" data-name="Rectángulo 455657" width="2.757" height="6.41" fill="none"/>
    </clipPath>
    <clipPath id="clip-path-4">
      <rect id="Rectángulo_455658" data-name="Rectángulo 455658" width="2.365" height="1.426" fill="none"/>
    </clipPath>
    <clipPath id="clip-path-5">
      <rect id="Rectángulo_455659" data-name="Rectángulo 455659" width="0.608" height="39.346" fill="none"/>
    </clipPath>
    <clipPath id="clip-path-6">
      <rect id="Rectángulo_455660" data-name="Rectángulo 455660" width="1.686" height="3.021" fill="none"/>
    </clipPath>
    <clipPath id="clip-path-7">
      <rect id="Rectángulo_455661" data-name="Rectángulo 455661" width="4.532" height="10.969" fill="none"/>
    </clipPath>
    <clipPath id="clip-path-8">
      <rect id="Rectángulo_455662" data-name="Rectángulo 455662" width="8.345" height="4.299" fill="none"/>
    </clipPath>
    <clipPath id="clip-path-9">
      <rect id="Rectángulo_455664" data-name="Rectángulo 455664" width="13.809" height="10.067" fill="none"/>
    </clipPath>
    <clipPath id="clip-path-11">
      <rect id="Rectángulo_455665" data-name="Rectángulo 455665" width="3.5" height="1.089" fill="none"/>
    </clipPath>
    <clipPath id="clip-path-12">
      <rect id="Rectángulo_455666" data-name="Rectángulo 455666" width="2.404" height="5.59" fill="none"/>
    </clipPath>
    <clipPath id="clip-path-13">
      <rect id="Rectángulo_455667" data-name="Rectángulo 455667" width="2.062" height="1.243" fill="none"/>
    </clipPath>
    <clipPath id="clip-path-14">
      <rect id="Rectángulo_455668" data-name="Rectángulo 455668" width="10.366" height="37.906" fill="none"/>
    </clipPath>
    <clipPath id="clip-path-15">
      <rect id="Rectángulo_455669" data-name="Rectángulo 455669" width="0.53" height="34.312" fill="none"/>
    </clipPath>
    <clipPath id="clip-path-16">
      <rect id="Rectángulo_455670" data-name="Rectángulo 455670" width="2.238" height="3.151" fill="none"/>
    </clipPath>
    <clipPath id="clip-path-17">
      <rect id="Rectángulo_455671" data-name="Rectángulo 455671" width="1.09" height="2.539" fill="none"/>
    </clipPath>
    <clipPath id="clip-path-18">
      <rect id="Rectángulo_455672" data-name="Rectángulo 455672" width="1.471" height="2.634" fill="none"/>
    </clipPath>
    <clipPath id="clip-path-19">
      <rect id="Rectángulo_455674" data-name="Rectángulo 455674" width="3.065" height="14.044" fill="none"/>
    </clipPath>
    <clipPath id="clip-path-21">
      <rect id="Rectángulo_455675" data-name="Rectángulo 455675" width="7.277" height="3.749" fill="none"/>
    </clipPath>
    <clipPath id="clip-path-22">
      <rect id="Rectángulo_455676" data-name="Rectángulo 455676" width="3.953" height="9.566" fill="none"/>
    </clipPath>
    <clipPath id="clip-path-23">
      <rect id="Rectángulo_455677" data-name="Rectángulo 455677" width="3.437" height="1.035" fill="none"/>
    </clipPath>
    <clipPath id="clip-path-24">
      <rect id="Rectángulo_455678" data-name="Rectángulo 455678" width="7.82" height="7.884" fill="none"/>
    </clipPath>
    <clipPath id="clip-path-25">
      <rect id="Rectángulo_455679" data-name="Rectángulo 455679" width="7.87" height="7.722" fill="none"/>
    </clipPath>
  </defs>
  <g id="Grupo_1179136" data-name="Grupo 1179136" transform="translate(-1018 -5183)">
    <rect id="Rectángulo_454804" data-name="Rectángulo 454804" width="261" height="145" rx="25" transform="translate(1018.059 5183)" fill="#cdbfdc"/>
    <g id="Grupo_1177285" data-name="Grupo 1177285" transform="translate(1018 5262.053)" opacity="0.37">
      <g id="Grupo_1177267" data-name="Grupo 1177267" transform="translate(51.756 0)">
        <path id="Polígono_14" data-name="Polígono 14" d="M24.733,0l8.244,15.115L24.733,30.229H8.244L0,15.115,8.244,0Z" transform="translate(0 46.718)" fill="#2c2e8c" opacity="0.36"/>
        <path id="Polígono_15" data-name="Polígono 15" d="M24.733,0l8.244,15.115L24.733,30.229H8.244L0,15.115,8.244,0Z" transform="translate(0 15.573)" fill="#2c2e8c" opacity="0.36"/>
        <g id="Grupo_1177266" data-name="Grupo 1177266" transform="translate(26.107)" opacity="0.36">
          <path id="Polígono_16" data-name="Polígono 16" d="M24.733,0l8.244,15.115L24.733,30.229H8.244L0,15.115,8.244,0Z" transform="translate(0 31.145)" fill="#2c2e8c" opacity="0.56"/>
          <path id="Polígono_17" data-name="Polígono 17" d="M24.733,0l8.244,15.115L24.733,30.229H8.244L0,15.115,8.244,0Z" transform="translate(0)" fill="#2c2e8c" opacity="0.56"/>
        </g>
      </g>
      <g id="Grupo_1177268" data-name="Grupo 1177268" transform="translate(0 0)">
        <path id="Polígono_14-2" data-name="Polígono 14" d="M24.733,0l8.244,15.115L24.733,30.229H8.244L0,15.115,8.244,0Z" transform="translate(0 46.718)" fill="#2c2e8c" opacity="0.36"/>
        <path id="Polígono_15-2" data-name="Polígono 15" d="M24.733,0l8.244,15.115L24.733,30.229H8.244L0,15.115,8.244,0Z" transform="translate(0 15.573)" fill="#2c2e8c" opacity="0.36"/>
        <g id="Grupo_1177266-2" data-name="Grupo 1177266" transform="translate(26.107)" opacity="0.36">
          <path id="Polígono_16-2" data-name="Polígono 16" d="M24.733,0l8.244,15.115L24.733,30.229H8.244L0,15.115,8.244,0Z" transform="translate(0 31.145)" fill="#2c2e8c" opacity="0.56"/>
          <path id="Polígono_17-2" data-name="Polígono 17" d="M24.733,0l8.244,15.115L24.733,30.229H8.244L0,15.115,8.244,0Z" transform="translate(0)" fill="#2c2e8c" opacity="0.56"/>
        </g>
      </g>
    </g>
    <g id="Grupo_1179232" data-name="Grupo 1179232" transform="translate(1072.195 5191.353)">
      <g id="Grupo_1179303" data-name="Grupo 1179303" clip-path="url(#clip-path)">
        <path id="Trazado_997414" data-name="Trazado 997414" d="M507.051.817h38.584v122.3H507.051Zm-.77,123.115h40.125V0H506.281Z" transform="translate(-462.36)" fill="#b3c0cc"/>
        <path id="Trazado_997415" data-name="Trazado 997415" d="M678.757,21.912l-.245-.164L651.434,3.616l.137-.231,27.323,18.3Z" transform="translate(-594.92 -3.092)" fill="#b3c0cc"/>
        <path id="Trazado_997416" data-name="Trazado 997416" d="M792.414,14.683l-.245-.163-16.282-10.9.137-.23L792.55,14.452Z" transform="translate(-708.577 -3.092)" fill="#b3c0cc"/>
        <path id="Trazado_997417" data-name="Trazado 997417" d="M549.53,278.741l-39.6-26.516.137-.23,39.6,26.516Z" transform="translate(-465.693 -230.134)" fill="#b3c0cc"/>
        <path id="Trazado_997418" data-name="Trazado 997418" d="M549.53,364.581l-39.6-26.516.137-.23,39.6,26.516Z" transform="translate(-465.693 -308.527)" fill="#b3c0cc"/>
        <path id="Trazado_997419" data-name="Trazado 997419" d="M549.53,450.422l-39.6-26.516.137-.23,39.6,26.516Z" transform="translate(-465.693 -386.921)" fill="#b3c0cc"/>
        <path id="Trazado_997420" data-name="Trazado 997420" d="M549.53,536.261l-39.6-26.516.137-.23,39.6,26.516Z" transform="translate(-465.693 -465.314)" fill="#b3c0cc"/>
        <path id="Trazado_997421" data-name="Trazado 997421" d="M561.686,29.358l-3.27-2.189L523.242,3.616l.137-.23L530,7.818l31.826,21.31Z" transform="translate(-477.849 -3.092)" fill="#b3c0cc"/>
        <path id="Trazado_997422" data-name="Trazado 997422" d="M549.53,107.06l-39.6-26.516.137-.23,39.6,26.516Z" transform="translate(-465.693 -73.347)" fill="#b3c0cc"/>
        <path id="Trazado_997423" data-name="Trazado 997423" d="M549.53,192.9l-39.6-26.516.137-.23,39.6,26.516Z" transform="translate(-465.693 -151.74)" fill="#b3c0cc"/>
        <path id="Trazado_997424" data-name="Trazado 997424" d="M549.53,622.1l-39.6-26.516.137-.23,39.6,26.516Z" transform="translate(-465.693 -543.708)" fill="#b3c0cc"/>
        <path id="Trazado_997425" data-name="Trazado 997425" d="M549.53,707.943l-39.6-26.516.137-.23,39.6,26.516Z" transform="translate(-465.693 -622.101)" fill="#b3c0cc"/>
        <path id="Trazado_997426" data-name="Trazado 997426" d="M549.53,793.783l-39.6-26.516.137-.23,39.6,26.516Z" transform="translate(-465.693 -700.495)" fill="#b3c0cc"/>
        <path id="Trazado_997427" data-name="Trazado 997427" d="M549.53,879.623l-39.6-26.516.137-.231,39.6,26.516Z" transform="translate(-465.693 -778.888)" fill="#b3c0cc"/>
        <path id="Trazado_997428" data-name="Trazado 997428" d="M549.53,965.463l-39.6-26.516.137-.231,39.6,26.516Z" transform="translate(-465.693 -857.281)" fill="#b3c0cc"/>
        <path id="Trazado_997429" data-name="Trazado 997429" d="M549.53,1051.3l-39.6-26.516.137-.231,39.6,26.516Z" transform="translate(-465.693 -935.675)" fill="#b3c0cc"/>
        <path id="Trazado_997430" data-name="Trazado 997430" d="M549.53,1137.144l-39.6-26.516.137-.23,39.6,26.516Z" transform="translate(-465.693 -1014.069)" fill="#b3c0cc"/>
        <path id="Trazado_997431" data-name="Trazado 997431" d="M539.251,1216.1l-9.672-6.477-19.648-13.156.137-.23,29.32,19.633Z" transform="translate(-465.694 -1092.458)" fill="#b3c0cc"/>
        <path id="Trazado_997432" data-name="Trazado 997432" d="M506.561,278.741l-.137-.23,39.6-26.516.137.23Z" transform="translate(-462.491 -230.134)" fill="#b3c0cc"/>
        <path id="Trazado_997433" data-name="Trazado 997433" d="M506.561,364.581l-.137-.23,39.6-26.516.137.23Z" transform="translate(-462.491 -308.527)" fill="#b3c0cc"/>
        <path id="Trazado_997434" data-name="Trazado 997434" d="M506.561,450.422l-.137-.23,39.6-26.516.137.23Z" transform="translate(-462.491 -386.921)" fill="#b3c0cc"/>
        <path id="Trazado_997435" data-name="Trazado 997435" d="M506.561,536.261l-.137-.23,39.6-26.516.137.23Z" transform="translate(-462.491 -465.314)" fill="#b3c0cc"/>
        <path id="Trazado_997436" data-name="Trazado 997436" d="M506.555,29.359l-.137-.23,3.27-2.189L544.864,3.386l.137.23Z" transform="translate(-462.485 -3.092)" fill="#b3c0cc"/>
        <path id="Trazado_997437" data-name="Trazado 997437" d="M506.555,20.956l-.137-.23,2.556-1.711L532.313,3.386l.137.23Z" transform="translate(-462.485 -3.092)" fill="#b3c0cc"/>
        <path id="Trazado_997438" data-name="Trazado 997438" d="M506.555,13.457l-.137-.23,2.518-1.686,12.18-8.156.137.23Z" transform="translate(-462.485 -3.091)" fill="#b3c0cc"/>
        <path id="Trazado_997439" data-name="Trazado 997439" d="M506.561,107.06l-.137-.23,39.6-26.516.137.23Z" transform="translate(-462.491 -73.347)" fill="#b3c0cc"/>
        <path id="Trazado_997440" data-name="Trazado 997440" d="M506.561,192.9l-.137-.23,39.6-26.516.137.23Z" transform="translate(-462.491 -151.74)" fill="#b3c0cc"/>
        <path id="Trazado_997441" data-name="Trazado 997441" d="M506.561,622.1l-.137-.23,39.6-26.516.137.23Z" transform="translate(-462.491 -543.708)" fill="#b3c0cc"/>
        <path id="Trazado_997442" data-name="Trazado 997442" d="M506.561,707.943l-.137-.23,39.6-26.516.137.23Z" transform="translate(-462.491 -622.101)" fill="#b3c0cc"/>
        <path id="Trazado_997443" data-name="Trazado 997443" d="M506.561,793.783l-.137-.23,39.6-26.516.137.23Z" transform="translate(-462.491 -700.495)" fill="#b3c0cc"/>
        <path id="Trazado_997444" data-name="Trazado 997444" d="M506.561,879.623l-.137-.23,39.6-26.516.137.231Z" transform="translate(-462.491 -778.888)" fill="#b3c0cc"/>
        <path id="Trazado_997445" data-name="Trazado 997445" d="M506.561,965.463l-.137-.23,39.6-26.516.137.231Z" transform="translate(-462.491 -857.281)" fill="#b3c0cc"/>
        <path id="Trazado_997446" data-name="Trazado 997446" d="M506.561,1051.3l-.137-.23,39.6-26.516.137.231Z" transform="translate(-462.491 -935.675)" fill="#b3c0cc"/>
        <path id="Trazado_997447" data-name="Trazado 997447" d="M506.561,1137.144l-.137-.23,39.6-26.516.137.23Z" transform="translate(-462.491 -1014.069)" fill="#b3c0cc"/>
        <path id="Trazado_997448" data-name="Trazado 997448" d="M625.05,1216.1l-.137-.23,29.32-19.633.137.23Z" transform="translate(-570.701 -1092.458)" fill="#b3c0cc"/>
        <path id="Trazado_997449" data-name="Trazado 997449" d="M1451.048,1419.085v.616h2.886l.332-1.192Z" transform="translate(-1325.167 -1295.45)" fill="#29274f"/>
        <g id="Grupo_1179302" data-name="Grupo 1179302">
          <g id="Grupo_1179301" data-name="Grupo 1179301" clip-path="url(#clip-path)">
            <path id="Trazado_997450" data-name="Trazado 997450" d="M1360.868,1346.36s-1.077,3.274-2.713,4.247c-1.319.785-3.841.9-4.513,2.462a.526.526,0,0,0,.455.742h6.771a12.236,12.236,0,0,1,3.626-.55c1.163.177,1.107-2.808.775-3.911a8.9,8.9,0,0,1-.055-2.991Z" transform="translate(-1236.17 -1229.56)" fill="#44bca2"/>
            <path id="Trazado_997451" data-name="Trazado 997451" d="M1571.885,1419.085v.616h2.886l.332-1.192Z" transform="translate(-1435.521 -1295.45)" fill="#29274f"/>
            <path id="Trazado_997452" data-name="Trazado 997452" d="M1481.705,1346.36s-1.077,3.274-2.713,4.247c-1.32.785-3.841.9-4.513,2.462a.526.526,0,0,0,.455.742h6.771a12.237,12.237,0,0,1,3.626-.55c1.163.177,1.107-2.808.775-3.911a8.894,8.894,0,0,1-.055-2.991Z" transform="translate(-1346.524 -1229.56)" fill="#52ceb5"/>
            <path id="Trazado_997453" data-name="Trazado 997453" d="M1372.429,693.422s-2.34,4.706-1.684,12.673c.4,4.9,1.121,14.131,2.044,23.736,1.13,11.753.909,21.444,1.208,21.819.525.657,7.537-.227,7.537-.227a109.366,109.366,0,0,0,.7-12.975c0-4.214-.718-26.794-.225-27.844,0,0,9.767-14.156,8.654-16.883Z" transform="translate(-1251.724 -633.266)" fill="#bfdeff"/>
            <path id="Trazado_997454" data-name="Trazado 997454" d="M1499.053,689.093s-2.34,4.706-1.684,12.673c.4,4.9,1.121,14.131,2.044,23.736,1.13,11.753.909,21.444,1.208,21.819.525.657,7.537-.227,7.537-.227a109.348,109.348,0,0,0,.7-12.975c0-4.214-.27-26.682-.225-27.844.32-8.3-.31-14.865-1.423-17.593Z" transform="translate(-1367.363 -628.937)" fill="#bfdeff"/>
            <path id="Trazado_997455" data-name="Trazado 997455" d="M1330.779,336.324s18.5-7.974,18.281-10.74a30.229,30.229,0,0,0,.588-3.244c.007-.129.014-.264.018-.4.036-1.276-.222-5.831-.278-7.757-.007-.239-.011-.439-.011-.586,0-.057,0-.108,0-.149.02-.543.038-1.078.054-1.6.1-3.161,1.821-6.44,1.151-8.052-1.289-3.108-3.26-4.486-7.811-5.293a25.966,25.966,0,0,0-12.254,1.591,7.907,7.907,0,0,0-5.044,6.15l1.795,1.8s2.958,19.2,3.075,20.513c.161,1.789.913,5.3.434,7.767" transform="translate(-1210.487 -272.429)" fill="#bfdeff"/>
            <g id="Grupo_1179234" data-name="Grupo 1179234" transform="translate(127.78 71.732)" opacity="0.6">
              <g id="Grupo_1179233" data-name="Grupo 1179233">
                <g id="Grupo_1179232-2" data-name="Grupo 1179232" clip-path="url(#clip-path-3)">
                  <path id="Trazado_997456" data-name="Trazado 997456" d="M1472.938,826.951a22.291,22.291,0,0,1,2.634,6.282.058.058,0,0,0,.111-.031,22.4,22.4,0,0,0-2.646-6.31.058.058,0,0,0-.1.059" transform="translate(-1472.929 -826.865)" fill="#4b83db"/>
                </g>
              </g>
            </g>
            <g id="Grupo_1179237" data-name="Grupo 1179237" transform="translate(125.861 73.174)" opacity="0.6">
              <g id="Grupo_1179236" data-name="Grupo 1179236">
                <g id="Grupo_1179235" data-name="Grupo 1179235" clip-path="url(#clip-path-4)">
                  <path id="Trazado_997457" data-name="Trazado 997457" d="M1451.871,843.585a2.163,2.163,0,0,1,1.188,1.278l.085-.066a6.032,6.032,0,0,0-2.279-.582c-.074,0-.074.113,0,.117a5.862,5.862,0,0,1,2.221.566c.041.019.1-.014.085-.066a2.281,2.281,0,0,0-1.241-1.349c-.067-.03-.126.071-.058.1" transform="translate(-1450.808 -843.479)" fill="#4b83db"/>
                </g>
              </g>
            </g>
            <g id="Grupo_1179240" data-name="Grupo 1179240" transform="translate(127.91 77.196)" opacity="0.6">
              <g id="Grupo_1179239" data-name="Grupo 1179239">
                <g id="Grupo_1179238" data-name="Grupo 1179238" clip-path="url(#clip-path-5)">
                  <path id="Trazado_997458" data-name="Trazado 997458" d="M1474.927,889.9c-.766,10.188-.45,20.423-.293,30.628q.066,4.3.132,8.605a.058.058,0,0,0,.115,0c-.157-10.184-.5-20.389-.255-30.574.069-2.889.2-5.777.415-8.659.006-.075-.11-.075-.115,0" transform="translate(-1474.434 -889.845)" fill="#4b83db"/>
                </g>
              </g>
            </g>
            <g id="Grupo_1179243" data-name="Grupo 1179243" transform="translate(124.696 102.275)" opacity="0.6">
              <g id="Grupo_1179242" data-name="Grupo 1179242">
                <g id="Grupo_1179241" data-name="Grupo 1179241" clip-path="url(#clip-path-6)">
                  <path id="Trazado_997459" data-name="Trazado 997459" d="M1438.961,1178.967l-1.572,2.9c-.036.066.064.125.1.059l1.572-2.9c.036-.066-.064-.125-.1-.059" transform="translate(-1437.382 -1178.938)" fill="#4b83db"/>
                </g>
              </g>
            </g>
            <path id="Trazado_997460" data-name="Trazado 997460" d="M1355.208,451.843a18.382,18.382,0,0,0,9.859-1.431l1.128-.162s6.013,9.576,9.146,10.449a17.436,17.436,0,0,1,.322,3.985c-.184,5.445,1.722,14.434,1.722,14.434h-22.249a117.7,117.7,0,0,0,.1-12.333c-.381-3.571-1.653-14.678-1.653-14.678Z" transform="translate(-1236.162 -411.19)" fill="#bfdeff"/>
            <path id="Trazado_997461" data-name="Trazado 997461" d="M1576.982,469.1a8.1,8.1,0,0,1,2.173,1.06c.06.041,0,.141-.057.1a7.993,7.993,0,0,0-2.146-1.049c-.069-.022-.04-.133.03-.111" transform="translate(-1440.112 -428.401)" fill="#63a3f4"/>
            <path id="Trazado_997462" data-name="Trazado 997462" d="M1418.551,224.626a29.092,29.092,0,0,1-.753-4.006,10.232,10.232,0,0,1,.28-1.978c-.045.015-6.134,2.121-5.3,4.013.037.085.072.174.1.267a7.982,7.982,0,0,1,.34,2.159c.01.244.292,1.756.288,1.987-.006.353,5.179-1.987,5.037-2.441" transform="translate(-1290.148 -199.674)" fill="#fabba5"/>
            <path id="Trazado_997463" data-name="Trazado 997463" d="M1419.828,239.145c-.025.287.005.886.018,1.215-1.265,2.943-4.639,3.421-4.689,3.443a7.977,7.977,0,0,0-.34-2.159c1.355-.767,4.219-2.585,5.011-2.5" transform="translate(-1292.079 -218.396)" fill="#ed938b"/>
            <path id="Trazado_997464" data-name="Trazado 997464" d="M1417.564,268.818s-1.619-1.644-1.565-2.816c0,0-1.567,1.9-2.672,2.194s-.9,1.61-.9,1.61-.179-1.366-.683-1.366-.887-.478-1.128-.854c0,0-.072,1.805-.648,2.22s3.107,1.586,3.107,1.586l4.335-1.488Z" transform="translate(-1287.593 -242.925)" fill="#bfdeff"/>
            <path id="Trazado_997465" data-name="Trazado 997465" d="M1435.705,303.823a25.788,25.788,0,0,0,.213,8.319c.283,1.47.778,2.861,1.164,4.3a8.318,8.318,0,0,1-.026,4.273c-.555,2.257-1.628,4.6-.87,6.944a18.262,18.262,0,0,1,1.245,4.1,35.134,35.134,0,0,1-.058,4.1,11.8,11.8,0,0,0,.547,4.287,7.426,7.426,0,0,1,.289,5.091c-.038.112.136.16.174.049a6.63,6.63,0,0,0,.212-3.628,25.01,25.01,0,0,1-1.025-4.133c-.167-2.662.522-5.429-.433-8a9.56,9.56,0,0,1-1.029-3.927,17.06,17.06,0,0,1,.846-3.814,11.7,11.7,0,0,0,.6-3.57,15.923,15.923,0,0,0-.922-3.876,25.44,25.44,0,0,1-.754-10.471c.015-.115-.158-.165-.174-.049" transform="translate(-1310.937 -277.405)" fill="#63a3f4"/>
            <path id="Trazado_997466" data-name="Trazado 997466" d="M1487.7,320.262s-10.132,3.128-8.823,1.772c.929-.963-6.475-9.578-7.9-9.8-2.275-.361-4.631-4.951-6.225-8.792a35.33,35.33,0,0,0-2.949-4.324,22.118,22.118,0,0,1,4.849-.208c5.615.464,10.73,2.968,12.4,6.778,2.145,4.894,7.665,9.306,8.651,14.579" transform="translate(-1334.987 -272.923)" fill="#bfdeff"/>
            <path id="Trazado_997467" data-name="Trazado 997467" d="M1546.6,447.432a12.254,12.254,0,0,0-5.228-3.24c-.067-.027-.038-.138.03-.111a12.377,12.377,0,0,1,5.278,3.269c.047.056-.033.138-.08.081" transform="translate(-1407.618 -405.553)" fill="#63a3f4"/>
            <g id="Grupo_1179246" data-name="Grupo 1179246" transform="translate(134.651 38.942)" opacity="0.3">
              <g id="Grupo_1179245" data-name="Grupo 1179245">
                <g id="Grupo_1179244" data-name="Grupo 1179244" clip-path="url(#clip-path-7)">
                  <path id="Trazado_997468" data-name="Trazado 997468" d="M1552.567,456.515c-.188,1.232,3,2.837,4.07,3.338.007-.129.014-.264.018-.4.036-1.276-.222-5.831-.278-7.757a9.7,9.7,0,0,0-4.251-2.81,3.063,3.063,0,0,0,1.231,2.338c1.246.908-.968,1.175-.615,2.708s.052,1.108-.174,2.584" transform="translate(-1552.126 -448.884)" fill="#4b83db"/>
                </g>
              </g>
            </g>
            <path id="Trazado_997469" data-name="Trazado 997469" d="M1378.472,83.107a2.533,2.533,0,0,1-.22-2.73,2.428,2.428,0,0,1,2.444-1.195c1.539.232,3.125,1.977,4.725.975.054-.034,0-.12-.05-.086-1.08.677-2.291-.014-3.291-.5a3.259,3.259,0,0,0-2.508-.388,2.569,2.569,0,0,0-1.184,3.979c.038.05.123,0,.085-.051" transform="translate(-1258.332 -72.201)" fill="#6d2f3b"/>
            <path id="Trazado_997470" data-name="Trazado 997470" d="M1450.91,129.347a1.806,1.806,0,0,1,1.445-.05,1.927,1.927,0,0,0-1.057.308c-.5.335-.388-.258-.388-.258" transform="translate(-1325.031 -117.958)" fill="#2d2b4e"/>
            <path id="Trazado_997471" data-name="Trazado 997471" d="M1474.858,214.1c-.091.024-.558.149-1.189.352.03-.339,1.047-.334,1.189-.352" transform="translate(-1345.825 -195.528)" fill="#fabba5"/>
            <path id="Trazado_997472" data-name="Trazado 997472" d="M1386.745,133.886c-.262.77-3.019,1.338-4.12,1.434a3.991,3.991,0,0,1-2.446-.236c-.516-.377-1.921-3.543-1.543-5.151a10.084,10.084,0,0,0,.077-2.512,9.784,9.784,0,0,1,.877-3.883c4.243-2.911,7.808,1.4,8.081,3.038a15.7,15.7,0,0,1-.926,7.309" transform="translate(-1258.978 -111.922)" fill="#fabba5"/>
            <path id="Trazado_997473" data-name="Trazado 997473" d="M1420.275,166.662c.21.039.236-.133.058-.253a2.367,2.367,0,0,0-2.247-.232c-1.218.321-1.136,1.015-.44.925.609-.079,1.233-.7,2.63-.44" transform="translate(-1294.201 -151.619)" fill="#752d4b"/>
            <path id="Trazado_997474" data-name="Trazado 997474" d="M1379.824,166.795c-.113.019-.121-.36-.027-.456.223-.229.6-.394,1.209-.031.663.4.591.836.214.7a2.138,2.138,0,0,0-1.4-.209" transform="translate(-1260.038 -151.686)" fill="#752d4b"/>
            <path id="Trazado_997475" data-name="Trazado 997475" d="M1435.3,183.16a.507.507,0,1,1-.942-.277,1.758,1.758,0,0,1,.722-.079c.1.073.18.107.207.233a.508.508,0,0,1,.012.123" transform="translate(-1309.856 -166.942)" fill="#752d4b"/>
            <path id="Trazado_997476" data-name="Trazado 997476" d="M1426.171,182.138c.075.216-.416-.539-1.591-.333a2.019,2.019,0,0,0-.814.4c-.084.064-.089-.039-.012-.112a1.561,1.561,0,0,1,1.018-.5,1.741,1.741,0,0,1,1.4.549" transform="translate(-1300.19 -165.831)" fill="#752d4b"/>
            <path id="Trazado_997477" data-name="Trazado 997477" d="M1400.168,180.329a1.031,1.031,0,0,1,.505.968,2.084,2.084,0,0,1-.494,1.159c-.171.228-.59.577-.446.909a.672.672,0,0,0,.36.285,2.714,2.714,0,0,0,.587.2c.06.013.087-.08.027-.093a2.58,2.58,0,0,1-.655-.235c-.174-.092-.3-.215-.217-.432a1.154,1.154,0,0,1,.2-.3,3.722,3.722,0,0,0,.618-.954,1.252,1.252,0,0,0-.434-1.593c-.055-.028-.1.055-.05.083" transform="translate(-1278.276 -164.604)" fill="#cf8171"/>
            <path id="Trazado_997478" data-name="Trazado 997478" d="M1402.643,248.113a1.445,1.445,0,0,1,.968,0c.117.04.171-.146.055-.186a1.621,1.621,0,0,0-1.07,0c-.115.04-.07.229.047.188" transform="translate(-1280.856 -226.335)" fill="#ef9f8a"/>
            <path id="Trazado_997479" data-name="Trazado 997479" d="M1391.147,94.108a5.793,5.793,0,0,1-2.88,3.132c.235-1.305.392-4.013.08-4.014s-1.184.956-1.092.476a2.472,2.472,0,0,0-.022-2.227,2.863,2.863,0,0,1-.041-2.312l-.014,0-.009,0a2.536,2.536,0,0,1-.378.119h0a6.441,6.441,0,0,1-1.3.15,12.815,12.815,0,0,1-1.32-.036c-.475-.037-.942-.1-1.361-.169a7.691,7.691,0,0,1-1.028-.245,3.079,3.079,0,0,0-.454-.115,1.854,1.854,0,0,0-.286-.028c-.6-.008-.681.359-.681.359a2.907,2.907,0,0,1-.452-2.9,2.665,2.665,0,0,1,3.451-1.956c1.773.513,1.448.573,3.185.458,4.025-.267,3.9,2.513,3.9,2.513,1.938,1.186,1.333,4.7.708,6.784" transform="translate(-1260.01 -76.913)" fill="#6d2f3b"/>
            <path id="Trazado_997480" data-name="Trazado 997480" d="M1399.953,226.072a1.259,1.259,0,0,1-.44.64,1.634,1.634,0,0,1-1.146.456,1.515,1.515,0,0,1-.726-.239,1.189,1.189,0,0,1-.558-.748.369.369,0,0,1,0-.107.04.04,0,0,1,.009-.023c.019-.032.074-.04.122-.048.188-.03.529.067,1.082.1.367.022.989-.106,1.36-.127.051,0,.1,0,.142,0,.09,0,.153.015.159.055a.1.1,0,0,1,0,.043" transform="translate(-1275.878 -206.37)" fill="#e33b58"/>
            <path id="Trazado_997481" data-name="Trazado 997481" d="M1399.91,225.977a2.222,2.222,0,0,1-2.706.1.116.116,0,0,1,0-.018c.02-.032.074-.04.123-.048.187-.03.529.068,1.081.1.367.022.989-.106,1.36-.127.051,0,.1,0,.142,0" transform="translate(-1275.992 -206.373)" fill="#fff"/>
            <path id="Trazado_997482" data-name="Trazado 997482" d="M1405.446,232.962a1.636,1.636,0,0,1-1.146.456,1.517,1.517,0,0,1-.726-.239,2.841,2.841,0,0,1,1.336-.357,1.378,1.378,0,0,1,.536.14" transform="translate(-1281.811 -212.619)" fill="#ff6576"/>
            <path id="Trazado_997483" data-name="Trazado 997483" d="M1382.857,84.973a2.978,2.978,0,0,0-2.709.556,2.138,2.138,0,0,0-.576,2.434c.025.059.11.008.085-.051a2.051,2.051,0,0,1,.7-2.422,2.917,2.917,0,0,1,2.477-.421c.062.014.088-.082.026-.1" transform="translate(-1259.741 -77.507)" fill="#6d2f3b"/>
            <path id="Trazado_997484" data-name="Trazado 997484" d="M1500.4,104.144a2.415,2.415,0,0,1-.352,1.709c-.035.054.051.1.085.05a2.521,2.521,0,0,0,.361-1.786c-.01-.063-.1-.036-.095.027" transform="translate(-1369.911 -95.052)" fill="#6d2f3b"/>
            <path id="Trazado_997485" data-name="Trazado 997485" d="M1500.1,118.4a4.7,4.7,0,0,1,1.323.663c.052.037.1-.05.049-.087a4.787,4.787,0,0,0-1.346-.673c-.061-.019-.086.077-.026.1" transform="translate(-1369.931 -108.041)" fill="#6d2f3b"/>
            <path id="Trazado_997486" data-name="Trazado 997486" d="M1409.747,104.157c-.913-.213-1.018-1.508-.857-2.275.2-.955,1.1-1.17,1.937-1.2.063,0,.063-.1,0-.1-.951.034-1.892.33-2.055,1.409-.12.8.014,2.045.95,2.263.062.014.088-.082.026-.1" transform="translate(-1286.523 -91.856)" fill="#7a3a49"/>
            <path id="Trazado_997487" data-name="Trazado 997487" d="M1419.8,115.04a2.214,2.214,0,0,0-1.132,1.017,1.77,1.77,0,0,0-.042,1.327c.021.06.116.034.095-.027A1.674,1.674,0,0,1,1418.8,116a2.223,2.223,0,0,1,1.047-.878c.057-.029.007-.115-.05-.086" transform="translate(-1295.457 -105.055)" fill="#7a3a49"/>
            <path id="Trazado_997488" data-name="Trazado 997488" d="M1465.968,125.378a8.635,8.635,0,0,0,1.98-1.361c.047-.043-.023-.113-.07-.071a8.553,8.553,0,0,1-1.96,1.346c-.057.028-.007.115.05.086" transform="translate(-1338.724 -113.181)" fill="#7a3a49"/>
            <path id="Trazado_997489" data-name="Trazado 997489" d="M1384.48,182.22a1.172,1.172,0,0,0-.726-.472.514.514,0,0,0-.209.028,3.3,3.3,0,0,0-.446.3c-.06.039.7-1.059,1.323-.053.021.034.043.071.064.111s.046.09.068.14c.055.122.021.064-.075-.05" transform="translate(-1263.11 -165.839)" fill="#752d4b"/>
            <path id="Trazado_997490" data-name="Trazado 997490" d="M1389.856,183.328a.557.557,0,0,1-.006.09.327.327,0,0,1-.122.218.486.486,0,0,1-.4.068.536.536,0,0,1-.29-.2.429.429,0,0,1,0-.455c.03-.038.059-.075.081-.1l.032-.041.348.067.2.131.078.1.012.011c.021.034.043.071.064.111" transform="translate(-1268.48 -167.038)" fill="#752d4b"/>
            <path id="Trazado_997491" data-name="Trazado 997491" d="M1387.717,187.668c3.407-.559-1.214,5.711-3.049,6.551s-3.587,1.011-4.451.23-1.284-3.963-1.191-4.178,1.784-1.741,2.375-1.5c.495.206,1.18,1.594,3.267.615,1.111-.521,2.1-1.566,3.049-1.722" transform="translate(-1259.381 -171.355)" fill="#52ceb5"/>
            <g id="Grupo_1179249" data-name="Grupo 1179249" transform="translate(118.288 14.616)" opacity="0.5">
              <g id="Grupo_1179248" data-name="Grupo 1179248">
                <g id="Grupo_1179247" data-name="Grupo 1179247" clip-path="url(#clip-path-8)">
                  <path id="Trazado_997492" data-name="Trazado 997492" d="M1363.571,169.612c.075-.485,2.809-1.895,7.629-.59a.915.915,0,0,1,.666.922,13.5,13.5,0,0,1-.235,2.445c-.2.484-2.736.386-3.333-.282s-.854-1.844-1.319-1.685-.473,1.7-.9,2.059a2.851,2.851,0,0,1-1.471.3.578.578,0,0,1-.532-.336,4.751,4.751,0,0,1-.508-2.834" transform="translate(-1363.521 -168.482)" fill="#fff"/>
                </g>
              </g>
            </g>
            <path id="Trazado_997493" data-name="Trazado 997493" d="M1362.736,171.236a4.865,4.865,0,0,1-.518-2.9c.021-.135.148-.28.379-.433.9-.595,3.467-1.318,7.4-.254a1.039,1.039,0,0,1,.753,1.042,12.959,12.959,0,0,1-.244,2.485c-.064.158-.262.265-.6.326a4.076,4.076,0,0,1-2.924-.573,4.772,4.772,0,0,1-.6-.95c-.208-.393-.4-.765-.59-.7s-.3.536-.408.952a2.249,2.249,0,0,1-.449,1.084,2.85,2.85,0,0,1-1.545.329h-.009a.7.7,0,0,1-.631-.4m3.839-1.374a4.616,4.616,0,0,0,.572.9,3.92,3.92,0,0,0,2.709.5c.282-.05.407-.129.428-.182a12.324,12.324,0,0,0,.227-2.4.8.8,0,0,0-.579-.8c-4.821-1.3-7.112.16-7.207.223-.205.136-.27.236-.275.27a4.642,4.642,0,0,0,.5,2.764.454.454,0,0,0,.425.268,2.6,2.6,0,0,0,1.4-.273,2.275,2.275,0,0,0,.373-.961c.13-.522.253-1.015.561-1.12a.394.394,0,0,1,.127-.022c.3,0,.509.392.744.837" transform="translate(-1243.996 -152.606)" fill="#383463"/>
            <path id="Trazado_997494" data-name="Trazado 997494" d="M1467.227,187.652s.994-1.482,1.882-.782-.062,1.938-.42,2.413c-.383.509-.6.508-1.251.328s-.211-1.958-.211-1.958" transform="translate(-1339.809 -170.487)" fill="#fabba5"/>
            <path id="Trazado_997495" data-name="Trazado 997495" d="M1470.648,189.442a.693.693,0,0,0,1.029.14,1.974,1.974,0,0,0,.472-.555,4.94,4.94,0,0,0,.421-.772,1.22,1.22,0,0,0-.145-1.426.989.989,0,0,0-1.343.169c-.046.048.025.123.071.075a.882.882,0,0,1,1.251-.125c.375.361.211.975.019,1.388a3.834,3.834,0,0,1-.655,1.028c-.263.272-.8.449-1.03.027a.051.051,0,0,0-.09.051" transform="translate(-1343.06 -170.444)" fill="#ef9f8a"/>
            <path id="Trazado_997496" data-name="Trazado 997496" d="M1473.61,192.1a.761.761,0,0,0-.394.29.542.542,0,0,0-.023.483c.089.337-.247.4-.417.606a.352.352,0,0,0-.052.4.051.051,0,0,0,.09-.051c-.175-.32.441-.488.5-.778.025-.12-.038-.2-.064-.316-.063-.268.167-.451.384-.536.061-.024.037-.125-.025-.1" transform="translate(-1344.923 -175.428)" fill="#ef9f8a"/>
            <path id="Trazado_997497" data-name="Trazado 997497" d="M1085.94,318.625a2.87,2.87,0,0,0,.531-2.495c-.5-1.137-1.826-3.929-2.33-3.857s.259,1.508-.18,1.877c0,0-1.339-1.285-2.387-1.007a3,3,0,0,0-1.855,2.733c.265,2.786,6.013,5.248,6.013,5.248Z" transform="translate(-986.046 -285.181)" fill="#3cb198"/>
            <path id="Trazado_997498" data-name="Trazado 997498" d="M1149.648,309.8s-5.274,10.634-6.267,11.631a35.52,35.52,0,0,1-4.782,6.366,28.061,28.061,0,0,1-5.849,4.807c-3.4,2.052-6.537,2.027-8.183,1.412l-.041-.015c-5.822-2.3-7.409-15.782-7.271-16.481a5.674,5.674,0,0,1,3.517-4.511c2.892,4.488,6.2,10.534,6.641,10.523.856-.022,6.906-8.789,9.659-11.8,2.994-3.266,8.908-2.738,12.578-1.936" transform="translate(-1020.323 -282.373)" fill="#bfdeff"/>
            <path id="Trazado_997499" data-name="Trazado 997499" d="M1234.162,472.736a6.644,6.644,0,0,1,1.439,1.364,2.638,2.638,0,0,1,.7,1.365c0,.073-.111.07-.113,0a3.015,3.015,0,0,0-.882-1.539,6.624,6.624,0,0,0-1.208-1.089c-.059-.042,0-.139.06-.1" transform="translate(-1127.019 -431.716)" fill="#63a3f4"/>
            <g id="Grupo_1179255" data-name="Grupo 1179255" transform="translate(104.244 41.944)" opacity="0.5">
              <g id="Grupo_1179254" data-name="Grupo 1179254">
                <g id="Grupo_1179253" data-name="Grupo 1179253" clip-path="url(#clip-path-9)">
                  <g id="Grupo_1179252" data-name="Grupo 1179252" opacity="0.3">
                    <g id="Grupo_1179251" data-name="Grupo 1179251">
                      <g id="Grupo_1179250" data-name="Grupo 1179250" clip-path="url(#clip-path-9)">
                        <path id="Trazado_997500" data-name="Trazado 997500" d="M1214.887,483.552a33.736,33.736,0,0,1,.552,3.655,25.817,25.817,0,0,1-5.626,4.573c-3.4,2.052-6.537,2.027-8.183,1.412.681-.762,2.514-.9,5.479-1.734,4.993-1.4,7.582-8.7,7.778-7.907" transform="translate(-1201.63 -483.492)" fill="#4b83db"/>
                      </g>
                    </g>
                  </g>
                </g>
              </g>
            </g>
            <path id="Trazado_997501" data-name="Trazado 997501" d="M1235.446,473.606a16.393,16.393,0,0,1,.907,2.189c.027.081-.1.14-.123.057a16.393,16.393,0,0,0-.907-2.189c-.039-.077.084-.135.123-.057" transform="translate(-1128.15 -432.487)" fill="#63a3f4"/>
            <path id="Trazado_997502" data-name="Trazado 997502" d="M1106.527,279.894s1.81-2.6,1.6-3.256-.93.374-1.355-.081-.816-1.065-1.315-.619-.517.263-.9-.184-.96,1.044-.535,2.291,2.511,1.85,2.511,1.85" transform="translate(-1008.104 -251.757)" fill="#66619e"/>
            <path id="Trazado_997503" data-name="Trazado 997503" d="M959.087,357.158a12.6,12.6,0,0,0,1.391,1.733c6.5,6.753,18.009,2.775,20.876-2.4q.169-.3.313-.612c5.155-10.9-11.292-24.756-11.292-24.756l-.639,1.718c-5.938,6.807-14.454,18.635-10.649,24.313" transform="translate(-875.021 -302.401)" fill="#66619e"/>
            <path id="Trazado_997504" data-name="Trazado 997504" d="M1075.488,365.346s1.6,2.885,1.426,3.235-1.99-2.346-2.5-2.441-.126,1.236-.562,1.184-.655-2.056-.982-1.186-.762,4.957-1.389,3.913.549-4.116.382-4.106-1.164,1.219-1.725,1.652.185-1.461.81-2.391,4.537.14,4.537.14" transform="translate(-977.124 -333.176)" fill="#514f8c"/>
            <path id="Trazado_997505" data-name="Trazado 997505" d="M985.077,597.52c6.5,6.753,18.008,2.775,20.876-2.4q.169-.3.314-.612a5.393,5.393,0,0,0-.118-1.685.537.537,0,0,0-.978-.145,20.8,20.8,0,0,0-1.328,3.1,2.682,2.682,0,0,1-.55.932,1.021,1.021,0,0,1-.993.3.692.692,0,0,1-.4-.357.409.409,0,0,0-.655-.126,4.947,4.947,0,0,0-.668.9c-.339.532-.811,1.1-1.442,1.09-.832-.007-1.274-.945-1.673-1.676a6.464,6.464,0,0,0-1.559-1.887,1.4,1.4,0,0,0-1.015-.334c-.894.085-1.089.994-.956,1.716a4.984,4.984,0,0,1,.318,2.207,1.034,1.034,0,0,1-.648.742c-.522.177-.924-.2-1.348-.432-.353-.2-.875-.266-1.1.073-.081.125-.1.28-.177.409a.854.854,0,0,1-1.066.2,4.116,4.116,0,0,1-1.581-1.669c-.484-.707-1.161-1.428-2.056-1.307a1.57,1.57,0,0,0-1.206.951h0" transform="translate(-899.619 -541.03)" fill="#514f8c"/>
            <path id="Trazado_997506" data-name="Trazado 997506" d="M1097.611,297.045c-1.071-.882-1.613-.991-2.044-.473s-.262.808.809,1.689,2.31,1.751,2.741,1.233-.435-1.567-1.507-2.449" transform="translate(-1000.323 -270.559)" fill="#52ceb5"/>
            <path id="Trazado_997507" data-name="Trazado 997507" d="M1084.351,309.823c-1.311-1.079-1.937-1.258-2.368-.74s-.207.853,1.1,1.932,2.811,2.163,3.242,1.645-.667-1.758-1.978-2.837" transform="translate(-987.936 -282.014)" fill="#52ceb5"/>
            <path id="Trazado_997508" data-name="Trazado 997508" d="M1076.693,324.143c-1.244-1.024-1.846-1.184-2.278-.665s-.223.84,1.022,1.864,2.671,2.048,3.1,1.53-.6-1.7-1.846-2.729" transform="translate(-981.02 -295.153)" fill="#52ceb5"/>
            <path id="Trazado_997509" data-name="Trazado 997509" d="M1072.357,339.139c-.894-.736-1.349-.824-1.717-.382s-.228.685.666,1.421,1.929,1.46,2.3,1.018-.352-1.321-1.247-2.057" transform="translate(-977.587 -309.124)" fill="#52ceb5"/>
            <path id="Trazado_997510" data-name="Trazado 997510" d="M1099.937,313.135l-2.238-1.684c-.071-.053.016-.157.086-.1l2.238,1.684c.071.053-.016.157-.086.1" transform="translate(-1002.447 -284.324)" fill="#3cb198"/>
            <path id="Trazado_997511" data-name="Trazado 997511" d="M1087.074,325a26.9,26.9,0,0,1-3.106-2.437c-.065-.059.021-.164.086-.1a26.866,26.866,0,0,0,3.106,2.437c.073.049-.013.153-.086.1" transform="translate(-989.91 -294.465)" fill="#3cb198"/>
            <path id="Trazado_997512" data-name="Trazado 997512" d="M1080.2,340.163a19.385,19.385,0,0,1-2.489-2.012c-.063-.06.022-.165.086-.1a19.391,19.391,0,0,0,2.489,2.011c.073.05-.014.153-.086.1" transform="translate(-984.197 -308.704)" fill="#3cb198"/>
            <path id="Trazado_997513" data-name="Trazado 997513" d="M1083.7,497.679v-.27a2.093,2.093,0,0,1-.783-.186,3.053,3.053,0,0,0-.328.54,2.106,2.106,0,0,1,.536.448l.346-.225h0a.448.448,0,0,1,.228-.307m-.073,1.89a2.082,2.082,0,0,1-.624,1.488,3.092,3.092,0,0,0,4.9-.175,2.088,2.088,0,0,1-3.712-1.313c0-.055,0-.109.006-.163a2.069,2.069,0,0,1,.267-.87l-.241-.139a.448.448,0,0,1-.652-.031l-.228.149a2.069,2.069,0,0,1,.28.91c0,.047,0,.1,0,.144m4.74,0a2.08,2.08,0,0,1-.1.649,3.093,3.093,0,0,0-2.511-4.205,2.077,2.077,0,0,1-.924,1.115l-.006,0a2.081,2.081,0,0,1-.75.258v.265a.449.449,0,0,1,.286.389l.319.184a2.1,2.1,0,0,1,.552-.466,2.075,2.075,0,0,1,1.05-.282,2.086,2.086,0,0,1,2.087,2.089" transform="translate(-988.67 -452.984)" fill="#252346"/>
            <path id="Trazado_997514" data-name="Trazado 997514" d="M1045.344,500.605a2.088,2.088,0,0,1,3.035-2.454,2.108,2.108,0,0,1,.536.448l.346-.225h0a.447.447,0,0,1,.229-.307v-.27a2.09,2.09,0,0,1-1.874-1.358,3.095,3.095,0,0,0-2.272,4.165m.36.662a3.091,3.091,0,0,0,4.9.178,2.08,2.08,0,0,1-.623-1.488c0-.055,0-.109.006-.163a2.068,2.068,0,0,1,.267-.87l-.241-.139a.449.449,0,0,1-.652-.031l-.228.149a2.071,2.071,0,0,1,.28.91c0,.047,0,.1,0,.144a2.088,2.088,0,0,1-3.713,1.31m5.316-3.115a3.086,3.086,0,0,0-.4-.634l-.006,0a2.084,2.084,0,0,1-.75.258v.265a.449.449,0,0,1,.286.389l.319.184a2.1,2.1,0,0,1,.552-.466" transform="translate(-954.463 -453.373)" fill="#252346"/>
            <path id="Trazado_997515" data-name="Trazado 997515" d="M1060.982,467.522a3.057,3.057,0,0,0,.247,1.051,2.087,2.087,0,0,1,2.16.651l.346-.225h0a.448.448,0,0,1,.228-.307v-.27a2.088,2.088,0,0,1-.342-4.131,3.095,3.095,0,0,0-2.638,3.231m2.851,1.857-.228.149a2.071,2.071,0,0,1,.28.91,3.067,3.067,0,0,0,.575-.019,2.069,2.069,0,0,1,.267-.87l-.241-.139a.449.449,0,0,1-.652-.031m.788-.321.319.184a2.084,2.084,0,0,1,1.6-.748,2.118,2.118,0,0,1,.386.036,3.092,3.092,0,0,0-2.555-4.257,2.088,2.088,0,0,1,.718,3.869l-.006,0a2.084,2.084,0,0,1-.75.258v.265a.449.449,0,0,1,.286.389" transform="translate(-968.935 -423.996)" fill="#252346"/>
            <path id="Trazado_997516" data-name="Trazado 997516" d="M1078.843,491.681a1.868,1.868,0,0,0,.583.527,1.711,1.711,0,0,1,1.959-.051,1.865,1.865,0,0,0,.555-.556,2.487,2.487,0,0,0-3.1.081" transform="translate(-985.251 -448.495)" fill="#252346"/>
            <path id="Trazado_997517" data-name="Trazado 997517" d="M1069.926,518.221a1.866,1.866,0,0,0,.147-.772,1.712,1.712,0,0,1-1.062-1.647,1.864,1.864,0,0,0-.764-.185,2.487,2.487,0,0,0,1.678,2.6" transform="translate(-975.563 -470.886)" fill="#252346"/>
            <path id="Trazado_997518" data-name="Trazado 997518" d="M1106.487,515.2a1.867,1.867,0,0,0-.754.22,1.712,1.712,0,0,1-.984,1.694,1.862,1.862,0,0,0,.183.765,2.487,2.487,0,0,0,1.556-2.679" transform="translate(-1008.91 -470.503)" fill="#252346"/>
            <path id="Trazado_997519" data-name="Trazado 997519" d="M1349.214,466.256c-.309-2.544-.512-5.1-.79-7.649a39.843,39.843,0,0,0-1.151-7.084c-.025-.083.1-.11.13-.028a39.843,39.843,0,0,1,1.151,7.084c.278,2.548.481,5.1.79,7.649.01.085-.119.114-.13.028" transform="translate(-1230.391 -412.282)" fill="#63a3f4"/>
            <path id="Trazado_997520" data-name="Trazado 997520" d="M1339.8,458.429a4.614,4.614,0,0,0-1.153-1.2c-.069-.05,0-.162.074-.112a4.8,4.8,0,0,1,1.2,1.25c.047.072-.071.132-.118.061" transform="translate(-1222.489 -417.451)" fill="#63a3f4"/>
            <path id="Trazado_997521" data-name="Trazado 997521" d="M1504.738,629.1s-.01-2.8-.5-3.169-.483.744-1.022.63-1.132-.356-1.267.22-.241.453-.748.326-.164,1.244.777,1.93,2.757.063,2.757.063" transform="translate(-1370.757 -571.561)" fill="#66619e"/>
            <path id="Trazado_997522" data-name="Trazado 997522" d="M1465.2,694.618a11.161,11.161,0,0,0,1.5,1.272c6.772,4.779,16.1-.6,17.729-5.568q.1-.292.17-.584c2.656-10.33-13.942-19.613-13.942-19.613l-.268,1.6c-4.02,6.9-9.44,18.6-5.188,22.893" transform="translate(-1336.679 -611.991)" fill="#66619e"/>
            <path id="Trazado_997523" data-name="Trazado 997523" d="M1534.227,698.393s1.867,2.239,1.779,2.571-2.12-1.7-2.577-1.7.1,1.094-.29,1.122-.912-1.676-1.05-.866.166,4.432-.553,3.63-.21-3.666-.354-3.63-.807,1.253-1.222,1.723-.083-1.3.3-2.212,3.963-.636,3.963-.636" transform="translate(-1397.058 -637.77)" fill="#514f8c"/>
            <path id="Trazado_997524" data-name="Trazado 997524" d="M1498.784,884.3c6.772,4.779,16.1-.6,17.729-5.568q.1-.292.17-.584a4.764,4.764,0,0,0-.384-1.444.475.475,0,0,0-.874.037,18.405,18.405,0,0,0-.635,2.918,2.366,2.366,0,0,1-.322.9.9.9,0,0,1-.813.423.612.612,0,0,1-.4-.244.362.362,0,0,0-.59,0,4.386,4.386,0,0,0-.43.894c-.206.518-.521,1.088-1.07,1.188-.724.133-1.264-.608-1.732-1.176a5.714,5.714,0,0,0-1.669-1.378,1.24,1.24,0,0,0-.937-.12c-.762.223-.78,1.045-.544,1.65a4.408,4.408,0,0,1,.645,1.864.914.914,0,0,1-.439.752c-.424.24-.835-.017-1.243-.15-.339-.112-.8-.085-.94.246-.05.122-.042.26-.085.385a.755.755,0,0,1-.892.355,3.642,3.642,0,0,1-1.652-1.185,2.054,2.054,0,0,0-2-.792,1.389,1.389,0,0,0-.888,1.027h0" transform="translate(-1368.761 -800.403)" fill="#514f8c"/>
            <path id="Trazado_997525" data-name="Trazado 997525" d="M1578.236,721.882a33.818,33.818,0,0,1,2.72,4.97c.027.061-.063.113-.09.052a33.808,33.808,0,0,0-2.72-4.97c-.037-.056.053-.108.089-.052" transform="translate(-1441.231 -659.235)" fill="#514f8c"/>
            <path id="Trazado_997526" data-name="Trazado 997526" d="M1572.654,724.377l.6,1.829c.021.064-.079.091-.1.028l-.6-1.829c-.021-.064.079-.091.1-.028" transform="translate(-1436.129 -661.503)" fill="#514f8c"/>
            <path id="Trazado_997527" data-name="Trazado 997527" d="M1527.453,737.147l-.889,3.04a.052.052,0,0,1-.1-.028l.889-3.04a.052.052,0,0,1,.1.028" transform="translate(-1394.038 -673.139)" fill="#514f8c"/>
            <path id="Trazado_997528" data-name="Trazado 997528" d="M1520.511,737.234a4.692,4.692,0,0,1-.863,1.562c-.043.051-.116-.022-.073-.073a4.543,4.543,0,0,0,.837-1.516c.021-.063.121-.036.1.028" transform="translate(-1387.736 -673.219)" fill="#514f8c"/>
            <path id="Trazado_997529" data-name="Trazado 997529" d="M1504.968,639.951a5.73,5.73,0,0,0-2.689-1.1c-.855-.013-1.326-.474-1.668,0a1.643,1.643,0,0,0-.28,1.1c-.164.288-2.162.705-2.989.939-.437.123-1.283.919-.574,1.482a2.045,2.045,0,0,1,.691.958c.2.553,1.283.55,1.361.891.18.785,1.294.46,2.618.284a6.211,6.211,0,0,0,3.283-1.229c.659-.645.247-3.323.247-3.323" transform="translate(-1366.672 -583.23)" fill="#52ceb5"/>
            <path id="Trazado_997530" data-name="Trazado 997530" d="M1580.36,545.426s5.069-2.83,9.067-5.515a9.681,9.681,0,0,0,4.424-6.973.8.8,0,0,0-.524-.83c-1.248-.447-4.5-1.345-6.562.515-2.6,2.34-3.323,3.767-5.387,5.439-1.243,1.007-3.189,2.455-3.307,3.006a15.2,15.2,0,0,0-.011,1.933c-.036.688,1.844,2.573,2.3,2.425" transform="translate(-1441.127 -485.387)" fill="#bfdeff"/>
            <g id="Grupo_1179258" data-name="Grupo 1179258" transform="translate(144.252 47.343)" opacity="0.3">
              <g id="Grupo_1179257" data-name="Grupo 1179257">
                <g id="Grupo_1179256" data-name="Grupo 1179256" clip-path="url(#clip-path-11)">
                  <path id="Trazado_997531" data-name="Trazado 997531" d="M1662.97,546.817a5.082,5.082,0,0,1,3.339-.747,5.355,5.355,0,0,0-3.5-.058,1.146,1.146,0,0,1,.16.805" transform="translate(-1662.81 -545.729)" fill="#4b83db"/>
                </g>
              </g>
            </g>
            <path id="Trazado_997532" data-name="Trazado 997532" d="M1664.038,549.327a5.461,5.461,0,0,1,4.057-.672c.064.014.037.113-.027.1a5.345,5.345,0,0,0-3.979.662c-.056.034-.107-.055-.051-.089" transform="translate(-1519.657 -500.936)" fill="#63a3f4"/>
            <path id="Trazado_997533" data-name="Trazado 997533" d="M1664.156,555.826a5.617,5.617,0,0,1,1.972-.155c.064.006.065.109,0,.1a5.546,5.546,0,0,0-1.945.151.051.051,0,0,1-.027-.1" transform="translate(-1519.754 -507.44)" fill="#63a3f4"/>
            <path id="Trazado_997534" data-name="Trazado 997534" d="M1579.928,607.968a6.1,6.1,0,0,1-1.776,1.011c-.256.09-.352.153-.569.069a2.983,2.983,0,0,1-.715-.559,3.88,3.88,0,0,1-1.44-3.305c.153-1.03.825-1.491,1.571-2.071.839-.652,1.657-1.339,2.458-2.038.078-.068.193.047.114.116-.595.519-1.2,1.023-1.814,1.522a15.817,15.817,0,0,0-1.579,1.239,2.853,2.853,0,0,0,.036,3.556c.316.46.965,1.291,1.527,1.364.664.087,1.576-.622,2.074-1.019.081-.065.2.051.114.116" transform="translate(-1438.728 -548.911)" fill="#63a3f4"/>
            <path id="Trazado_997535" data-name="Trazado 997535" d="M1568.186,821.837l-.048-.234a1.852,1.852,0,0,1-.711-.021,2.7,2.7,0,0,0-.187.527,1.863,1.863,0,0,1,.545.292l.259-.257h0a.4.4,0,0,1,.143-.307m.275,1.65a1.841,1.841,0,0,1-.274,1.4,2.735,2.735,0,0,0,4.212-1.029,1.847,1.847,0,0,1-3.45-.472c-.01-.047-.018-.095-.023-.142a1.829,1.829,0,0,1,.075-.8l-.234-.077a.4.4,0,0,1-.571.09l-.171.169a1.831,1.831,0,0,1,.406.738c.011.04.021.082.03.124m4.1-.847a1.837,1.837,0,0,1,.027.581,2.735,2.735,0,0,0-2.927-3.193,1.837,1.837,0,0,1-.6,1.131l0,0a1.841,1.841,0,0,1-.6.357l.048.23a.4.4,0,0,1,.317.286l.309.1a1.843,1.843,0,0,1,1.253-.935,1.873,1.873,0,0,1,.341-.038,1.847,1.847,0,0,1,1.841,1.473" transform="translate(-1431.278 -748.879)" fill="#252346"/>
            <path id="Trazado_997536" data-name="Trazado 997536" d="M1537.311,832.623a1.847,1.847,0,0,1,2.189-2.669,1.864,1.864,0,0,1,.545.292l.259-.256h0a.4.4,0,0,1,.143-.307l-.048-.234a1.849,1.849,0,0,1-1.867-.84,2.737,2.737,0,0,0-1.221,4.014m.43.509a2.734,2.734,0,0,0,4.275-.723,1.84,1.84,0,0,1-.806-1.177c-.01-.047-.018-.095-.024-.142a1.83,1.83,0,0,1,.075-.8l-.234-.077a.4.4,0,0,1-.571.09l-.171.169a1.832,1.832,0,0,1,.406.738q.017.061.03.124a1.846,1.846,0,0,1-2.981,1.8m4.046-3.649a2.732,2.732,0,0,0-.461-.478l0,0a1.841,1.841,0,0,1-.6.357l.047.23a.4.4,0,0,1,.318.286l.309.1a1.858,1.858,0,0,1,.395-.5" transform="translate(-1403.539 -756.725)" fill="#252346"/>
            <path id="Trazado_997537" data-name="Trazado 997537" d="M1545.023,799.3a2.708,2.708,0,0,0,.4.866,1.85,1.85,0,0,1,1.442-.114,1.861,1.861,0,0,1,.545.292l.259-.256h0a.4.4,0,0,1,.143-.307l-.048-.234a1.847,1.847,0,0,1-1.036-3.516,2.737,2.737,0,0,0-1.706,3.271m2.8,1.1-.171.17a1.83,1.83,0,0,1,.406.738,2.7,2.7,0,0,0,.494-.119,1.829,1.829,0,0,1,.075-.8l-.234-.077a.4.4,0,0,1-.571.09m.625-.419.309.1a1.849,1.849,0,0,1,1.594-.973,2.735,2.735,0,0,0-2.975-3.229,1.847,1.847,0,0,1,1.314,3.222l0,0a1.839,1.839,0,0,1-.6.357l.048.23a.4.4,0,0,1,.318.286" transform="translate(-1410.906 -726.818)" fill="#252346"/>
            <path id="Trazado_997538" data-name="Trazado 997538" d="M1560.708,820.083a1.651,1.651,0,0,0,.6.352,1.514,1.514,0,0,1,1.687-.4,1.647,1.647,0,0,0,.381-.581,2.2,2.2,0,0,0-2.667.625" transform="translate(-1425.313 -748.175)" fill="#252346"/>
            <path id="Trazado_997539" data-name="Trazado 997539" d="M1556.756,847.864a1.649,1.649,0,0,0-.011-.695,1.513,1.513,0,0,1-1.214-1.236,1.645,1.645,0,0,0-.695-.024,2.2,2.2,0,0,0,1.92,1.955" transform="translate(-1419.951 -772.501)" fill="#252346"/>
            <path id="Trazado_997540" data-name="Trazado 997540" d="M1591.371,835.722a1.65,1.65,0,0,0-.614.326,1.513,1.513,0,0,1-.549,1.644,1.646,1.646,0,0,0,.295.629,2.2,2.2,0,0,0,.868-2.6" transform="translate(-1452.255 -763.221)" fill="#252346"/>
            <path id="Trazado_997541" data-name="Trazado 997541" d="M863.374,1348.316h-1.651a1.075,1.075,0,0,1-1.075-1.075v-5.824a1.075,1.075,0,0,1,1.075-1.075h1.651a1.075,1.075,0,0,1,1.075,1.075v5.824a1.075,1.075,0,0,1-1.075,1.075" transform="translate(-785.985 -1224.065)" fill="#39364b"/>
            <path id="Trazado_997542" data-name="Trazado 997542" d="M1246.354,1348.316H1244.7a1.075,1.075,0,0,1-1.075-1.075v-5.824a1.075,1.075,0,0,1,1.075-1.075h1.651a1.075,1.075,0,0,1,1.075,1.075v5.824a1.075,1.075,0,0,1-1.075,1.075" transform="translate(-1135.741 -1224.065)" fill="#39364b"/>
            <path id="Trazado_997543" data-name="Trazado 997543" d="M864.919,793.6h-27.1a2.5,2.5,0,0,1-2.487-2.266l-5.189-55.671a2.5,2.5,0,0,1,2.487-2.73h36.116a2.5,2.5,0,0,1,2.492,2.67l-3.828,55.671a2.5,2.5,0,0,1-2.492,2.327" transform="translate(-758.117 -669.35)" fill="#ff6576"/>
            <path id="Trazado_997544" data-name="Trazado 997544" d="M851.9,716.6H810.179a1.137,1.137,0,0,1-1.137-1.138v-3.111a1.137,1.137,0,0,1,1.137-1.138H851.9a1.138,1.138,0,0,1,1.138,1.138v3.111A1.138,1.138,0,0,1,851.9,716.6" transform="translate(-738.856 -649.511)" fill="#ff6576"/>
            <path id="Trazado_997545" data-name="Trazado 997545" d="M845.447,773.291s22.916,3.43,36.515.17Z" transform="translate(-772.103 -706.206)" fill="#ff4f67"/>
            <path id="Trazado_997546" data-name="Trazado 997546" d="M1215.965,861.662a20.17,20.17,0,0,0-1.71,4.734c-.037.163.214.233.251.069a19.894,19.894,0,0,1,1.683-4.672c.076-.149-.149-.281-.225-.131" transform="translate(-1108.913 -786.851)" fill="#ff4f67"/>
            <path id="Trazado_997547" data-name="Trazado 997547" d="M1219.921,906.259a13,13,0,0,0-1.264,3.535c-.033.164.218.234.251.069a12.745,12.745,0,0,1,1.238-3.473c.078-.148-.146-.28-.225-.131" transform="translate(-1112.933 -827.579)" fill="#ff4f67"/>
            <path id="Trazado_997548" data-name="Trazado 997548" d="M941.424,1284.782q2.1-3.911,4.529-7.631c.092-.141-.133-.271-.225-.131q-2.427,3.717-4.529,7.63c-.079.148.145.279.225.131" transform="translate(-859.533 -1166.181)" fill="#ff4f67"/>
            <path id="Trazado_997549" data-name="Trazado 997549" d="M979.613,1315.74l.908-1.27c.1-.137-.128-.267-.225-.131l-.908,1.27c-.1.136.128.267.225.131" transform="translate(-894.403 -1200.264)" fill="#ff4f67"/>
            <path id="Trazado_997550" data-name="Trazado 997550" d="M1009.708,1003.144h0l.476.31a2.9,2.9,0,0,1,.74-.617,4.231,4.231,0,0,0-.452-.745,2.888,2.888,0,0,1-1.079.256v.372a.618.618,0,0,1,.315.424m-.208,1.983a2.856,2.856,0,0,1,.386-1.255l-.314-.2a.618.618,0,0,1-.9.042l-.332.192a2.852,2.852,0,0,1,.368,1.2c.006.074.009.149.009.224a2.878,2.878,0,0,1-5.118,1.808,4.26,4.26,0,0,0,6.754.243,2.869,2.869,0,0,1-.859-2.051c0-.067,0-.133.007-.2m-4.195-2.631a2.92,2.92,0,0,1,.533-.049,2.872,2.872,0,0,1,2.207,1.032l.44-.254a.619.619,0,0,1,.395-.536v-.366a2.869,2.869,0,0,1-1.033-.355l-.008,0a2.864,2.864,0,0,1-1.273-1.538,4.266,4.266,0,0,0-3.463,5.8,2.88,2.88,0,0,1,2.2-3.724" transform="translate(-915.81 -913.636)" fill="#fff"/>
            <path id="Trazado_997551" data-name="Trazado 997551" d="M1062.552,1005.212a4.264,4.264,0,0,0-3.425-4.18,2.918,2.918,0,0,1-.2.429,2.877,2.877,0,0,1-2.383,1.442v.372a.617.617,0,0,1,.315.424h0l.476.31a2.9,2.9,0,0,1,.74-.617,2.879,2.879,0,0,1,4.183,3.384,4.255,4.255,0,0,0,.3-1.563m-3.032,3.546a2.879,2.879,0,0,1-2.878-2.878c0-.067,0-.133.007-.2a2.854,2.854,0,0,1,.386-1.255l-.314-.205a.618.618,0,0,1-.9.042l-.333.192a2.848,2.848,0,0,1,.368,1.2c.006.074.009.149.009.224a2.867,2.867,0,0,1-.859,2.051,4.263,4.263,0,0,0,6.754-.243,2.872,2.872,0,0,1-2.24,1.071m-4.326-4.725.44-.254a.619.619,0,0,1,.395-.536v-.366a2.869,2.869,0,0,1-1.033-.355l-.008,0a4.263,4.263,0,0,0-.553.875,2.886,2.886,0,0,1,.76.642" transform="translate(-962.96 -914.19)" fill="#fff"/>
            <path id="Trazado_997552" data-name="Trazado 997552" d="M1034.283,957.224a4.242,4.242,0,0,0-1.5-.522,2.88,2.88,0,0,1,2.11,3.824,2.9,2.9,0,0,1-.2.429,2.877,2.877,0,0,1-2.383,1.442v.372a.618.618,0,0,1,.315.424h0l.476.31a2.9,2.9,0,0,1,.74-.617,2.884,2.884,0,0,1,2.238-.28,4.261,4.261,0,0,0-1.792-5.382m-2.268,6.708a.616.616,0,0,1-.429-.174l-.333.192a2.852,2.852,0,0,1,.367,1.2,4.216,4.216,0,0,0,.792.026,2.858,2.858,0,0,1,.387-1.255l-.314-.2a.618.618,0,0,1-.47.216m-.222-1.2v-.366a2.869,2.869,0,0,1-1.033-.355l-.009,0a2.878,2.878,0,0,1,.991-5.333,4.262,4.262,0,0,0-3.524,5.867,2.917,2.917,0,0,1,.533-.049,2.873,2.873,0,0,1,2.207,1.032l.44-.254a.619.619,0,0,1,.395-.536" transform="translate(-938.724 -873.684)" fill="#fff"/>
            <path id="Trazado_997553" data-name="Trazado 997553" d="M1056.616,994.463a2.574,2.574,0,0,1-.8.726,2.359,2.359,0,0,0-2.7-.072,2.569,2.569,0,0,1-.765-.767,3.428,3.428,0,0,1,4.269.113" transform="translate(-961.054 -907.457)" fill="#fff"/>
            <path id="Trazado_997554" data-name="Trazado 997554" d="M1087.147,1031.06a2.573,2.573,0,0,1-.2-1.064,2.359,2.359,0,0,0,1.464-2.27,2.57,2.57,0,0,1,1.053-.255,3.429,3.429,0,0,1-2.315,3.589" transform="translate(-992.649 -938.336)" fill="#fff"/>
            <path id="Trazado_997555" data-name="Trazado 997555" d="M1037.824,1026.866a2.577,2.577,0,0,1,1.04.3,2.359,2.359,0,0,0,1.355,2.336,2.566,2.566,0,0,1-.252,1.054,3.428,3.428,0,0,1-2.143-3.694" transform="translate(-947.756 -937.783)" fill="#fff"/>
            <path id="Trazado_997556" data-name="Trazado 997556" d="M959.941,899.535H944.816a4.12,4.12,0,0,1-3.658-6.016l7.452-14.383a4.057,4.057,0,0,1,3.634-2.225h.026a4.056,4.056,0,0,1,3.634,2.181l7.673,14.383a4.12,4.12,0,0,1-3.635,6.06m-7.672-21.312h-.018a2.765,2.765,0,0,0-2.477,1.517l-7.452,14.383a2.809,2.809,0,0,0,2.494,4.1h15.125a2.809,2.809,0,0,0,2.478-4.131l-7.673-14.383a2.765,2.765,0,0,0-2.477-1.487" transform="translate(-859.085 -800.838)" fill="#fff"/>
            <path id="Trazado_997557" data-name="Trazado 997557" d="M497.929,597.6s-.059-1.47.86-2.022,3.232-1.866,3.552-1.566-.929.935-.8,1.412c0,0,1.58-.243,2.181.472a2.58,2.58,0,0,1-.045,2.845c-1.566,1.833-6.837.723-6.837.723Z" transform="translate(-453.736 -542.438)" fill="#3cb198"/>
            <path id="Trazado_997558" data-name="Trazado 997558" d="M337.033,475.645c-.249.561-8.042,9.279-13.283,8.018l-.037-.01c-1.464-.38-2.567-2.346-3.065-3.5-.112-.26-.194-.478-.242-.628q-.019-.065-.031-.128c-.207-1.195-1.078-21.893-1.078-21.893,2.983,1.251,5.43,2.2,5.924,5.983.452,3.482,1.086,10.925,1.678,11.365.3.225,5.63-2.4,9.891-4.131a4.887,4.887,0,0,1,.246,4.921" transform="translate(-291.595 -417.817)" fill="#bfdeff"/>
            <path id="Trazado_997559" data-name="Trazado 997559" d="M377.052,656.026a5.73,5.73,0,0,0-1.69.249,2.272,2.272,0,0,0-1.172.613c-.038.051.044.1.081.054a2.6,2.6,0,0,1,1.384-.648,5.694,5.694,0,0,1,1.391-.169c.062,0,.069-.1.006-.1" transform="translate(-341.719 -599.114)" fill="#63a3f4"/>
            <path id="Trazado_997560" data-name="Trazado 997560" d="M241.972,1420.768v.537h-2.517l-.29-1.04Z" transform="translate(-218.417 -1297.055)" fill="#29274f"/>
            <path id="Trazado_997561" data-name="Trazado 997561" d="M241.1,1357.348s.939,2.855,2.366,3.7c1.151.684,3.35.787,3.936,2.147a.459.459,0,0,1-.4.647h-5.9a10.669,10.669,0,0,0-3.162-.479c-1.014.154-.966-2.449-.676-3.411a7.758,7.758,0,0,0,.048-2.608Z" transform="translate(-216.513 -1239.595)" fill="#52ceb5"/>
            <path id="Trazado_997562" data-name="Trazado 997562" d="M14.033,1400.278l-.078.531-2.489-.378-.135-1.072Z" transform="translate(-10.348 -1277.962)" fill="#29274f"/>
            <path id="Trazado_997563" data-name="Trazado 997563" d="M15.42,1337.786s.513,2.965,1.8,4.019c1.038.85,3.2,1.282,3.58,2.715a.457.457,0,0,1-.487.581l-5.84-.888a10.707,10.707,0,0,0-3.058-.95c-1.025,0-.6-2.567-.172-3.475a7.749,7.749,0,0,0,.427-2.572Z" transform="translate(-9.847 -1221.21)" fill="#52ceb5"/>
            <path id="Trazado_997564" data-name="Trazado 997564" d="M30.86,787.941s2.04,4.1,1.468,11.052c-.352,4.275-.977,12.323-1.782,20.7-.985,10.25-.793,18.7-1.054,19.027-.458.573-6.573-.2-6.573-.2a95.364,95.364,0,0,1-.614-11.315c0-3.675.626-23.366.2-24.282,0,0-1.439,7.034-4.4,17.015-1.117,3.767-8.777,17.4-9.027,18.315a7.49,7.49,0,0,1-3.251-.637A11.864,11.864,0,0,1,3.1,835.972c-.682-.7,6.637-11.975,7.819-26.643,1.07-13.272,3.065-18.749,4.035-21.128Z" transform="translate(-2.791 -719.585)" fill="#bfdeff"/>
            <path id="Trazado_997565" data-name="Trazado 997565" d="M145.571,476.2s-17.24-6.627-17.05-9.039a26.369,26.369,0,0,1-.513-2.829c-.006-.112-.012-.231-.016-.351-.032-1.113.193-5.085.243-6.765.006-.208.01-.383.01-.511,0-.05,0-.094,0-.13-.018-.473-.033-.94-.047-1.4-.091-2.757-1.588-5.616-1-7.022,1.124-2.711,2.843-3.912,6.812-4.616a22.645,22.645,0,0,1,10.686,1.388,6.9,6.9,0,0,1,4.4,5.363l.353,2.117s-4.5,16.2-4.6,17.344a28.655,28.655,0,0,0,.73,6.446" transform="translate(-116.034 -404.911)" fill="#bfdeff"/>
            <g id="Grupo_1179261" data-name="Grupo 1179261" transform="translate(19.495 78.451)" opacity="0.6">
              <g id="Grupo_1179260" data-name="Grupo 1179260">
                <g id="Grupo_1179259" data-name="Grupo 1179259" clip-path="url(#clip-path-12)">
                  <path id="Trazado_997566" data-name="Trazado 997566" d="M227.117,904.389a19.442,19.442,0,0,0-2.3,5.478.05.05,0,0,1-.1-.027,19.53,19.53,0,0,1,2.308-5.5.051.051,0,0,1,.087.052" transform="translate(-224.721 -904.313)" fill="#4b83db"/>
                </g>
              </g>
            </g>
            <g id="Grupo_1179264" data-name="Grupo 1179264" transform="translate(21.51 79.708)" opacity="0.6">
              <g id="Grupo_1179263" data-name="Grupo 1179263">
                <g id="Grupo_1179262" data-name="Grupo 1179262" clip-path="url(#clip-path-13)">
                  <path id="Trazado_997567" data-name="Trazado 997567" d="M249.086,918.894a1.886,1.886,0,0,0-1.036,1.115l-.074-.058a5.263,5.263,0,0,1,1.988-.507c.065,0,.064.1,0,.1a5.114,5.114,0,0,0-1.937.493c-.036.017-.09-.012-.074-.058a1.989,1.989,0,0,1,1.082-1.176c.059-.026.11.062.051.088" transform="translate(-247.95 -918.801)" fill="#4b83db"/>
                </g>
              </g>
            </g>
            <g id="Grupo_1179267" data-name="Grupo 1179267" transform="translate(0.604 78.1)" opacity="0.6">
              <g id="Grupo_1179266" data-name="Grupo 1179266">
                <g id="Grupo_1179265" data-name="Grupo 1179265" clip-path="url(#clip-path-14)">
                  <path id="Trazado_997568" data-name="Trazado 997568" d="M17.326,900.328a23.16,23.16,0,0,0-.875,7.666c-.006,1.27-.017,2.542-.141,3.806a22.7,22.7,0,0,1-.75,3.682,9.151,9.151,0,0,0-.363,2.024c-.022.592.168,1.176.123,1.764a1.625,1.625,0,0,1-.56,1.012.887.887,0,0,0-.245,1.016,1.69,1.69,0,0,1,.168.755A5.193,5.193,0,0,1,14,923.728l-.917,1.9-1.868,3.879-4.16,8.636c-.028.059-.115.007-.087-.052,2.444-5.073,4.949-10.12,7.333-15.223a1.715,1.715,0,0,0,.213-1.3,1.929,1.929,0,0,1-.191-.708c.028-.386.36-.628.59-.9.48-.557.251-1.221.195-1.877a6.162,6.162,0,0,1,.142-1.769c.261-1.259.686-2.465.866-3.744a30.174,30.174,0,0,0,.229-3.926c.025-2.806-.062-5.674.883-8.355.022-.062.119-.035.1.027" transform="translate(-6.963 -900.266)" fill="#4b83db"/>
                </g>
              </g>
            </g>
            <g id="Grupo_1179270" data-name="Grupo 1179270" transform="translate(21.255 83.216)" opacity="0.6">
              <g id="Grupo_1179269" data-name="Grupo 1179269">
                <g id="Grupo_1179268" data-name="Grupo 1179268" clip-path="url(#clip-path-15)">
                  <path id="Trazado_997569" data-name="Trazado 997569" d="M245.112,959.286c.667,8.885.392,17.811.255,26.71q-.058,3.752-.115,7.5a.05.05,0,0,1-.1,0c.137-8.882.433-17.78.222-26.662-.06-2.52-.173-5.038-.362-7.552,0-.066.1-.065.1,0" transform="translate(-245.011 -959.237)" fill="#4b83db"/>
                </g>
              </g>
            </g>
            <g id="Grupo_1179273" data-name="Grupo 1179273" transform="translate(9.474 100.495)" opacity="0.6">
              <g id="Grupo_1179272" data-name="Grupo 1179272">
                <g id="Grupo_1179271" data-name="Grupo 1179271" clip-path="url(#clip-path-16)">
                  <path id="Trazado_997570" data-name="Trazado 997570" d="M109.3,1158.438a8.519,8.519,0,0,0,2.131,3.038c.048.044-.023.116-.071.072a8.577,8.577,0,0,1-2.147-3.059c-.025-.06.062-.112.087-.052" transform="translate(-109.204 -1158.411)" fill="#4b83db"/>
                </g>
              </g>
            </g>
            <g id="Grupo_1179276" data-name="Grupo 1179276" transform="translate(9.269 101.089)" opacity="0.6">
              <g id="Grupo_1179275" data-name="Grupo 1179275">
                <g id="Grupo_1179274" data-name="Grupo 1179274" clip-path="url(#clip-path-17)">
                  <path id="Trazado_997571" data-name="Trazado 997571" d="M106.943,1165.292l.985,2.444c.025.061-.073.087-.1.027l-.985-2.444c-.025-.061.073-.087.1-.027" transform="translate(-106.842 -1165.258)" fill="#4b83db"/>
                </g>
              </g>
            </g>
            <g id="Grupo_1179279" data-name="Grupo 1179279" transform="translate(23.118 105.087)" opacity="0.6">
              <g id="Grupo_1179278" data-name="Grupo 1179278">
                <g id="Grupo_1179277" data-name="Grupo 1179277" clip-path="url(#clip-path-18)">
                  <path id="Trazado_997572" data-name="Trazado 997572" d="M266.574,1211.37l1.371,2.532c.031.057-.056.109-.087.052l-1.371-2.532c-.031-.058.056-.109.087-.052" transform="translate(-266.48 -1211.344)" fill="#4b83db"/>
                </g>
              </g>
            </g>
            <g id="Grupo_1179285" data-name="Grupo 1179285" transform="translate(29.052 51.793)" opacity="0.5">
              <g id="Grupo_1179284" data-name="Grupo 1179284">
                <g id="Grupo_1179283" data-name="Grupo 1179283" clip-path="url(#clip-path-19)">
                  <g id="Grupo_1179282" data-name="Grupo 1179282" opacity="0.3">
                    <g id="Grupo_1179281" data-name="Grupo 1179281">
                      <g id="Grupo_1179280" data-name="Grupo 1179280" clip-path="url(#clip-path-19)">
                        <path id="Trazado_997573" data-name="Trazado 997573" d="M337.947,611.06c-1.465-.38-2.567-2.346-3.065-3.5.214-1.283.471-2.7.471-2.7a57.629,57.629,0,0,1,1.609-7.811c.252-.66-1.12,7.586-.418,9.405a20.45,20.45,0,0,1,1.4,4.6" transform="translate(-334.882 -597.017)" fill="#4b83db"/>
                      </g>
                    </g>
                  </g>
                </g>
              </g>
            </g>
            <path id="Trazado_997574" data-name="Trazado 997574" d="M387.067,655.882a14.14,14.14,0,0,0-1.723,1.094c-.059.044,0,.146.058.1a14.127,14.127,0,0,1,1.723-1.094c.066-.035.007-.137-.058-.1" transform="translate(-351.892 -598.977)" fill="#63a3f4"/>
            <path id="Trazado_997575" data-name="Trazado 997575" d="M355.72,582.841a4.025,4.025,0,0,1,.991-1.059c.06-.044-.005-.141-.065-.1a4.18,4.18,0,0,0-1.029,1.1c-.041.063.064.114.1.052" transform="translate(-324.757 -531.212)" fill="#63a3f4"/>
            <path id="Trazado_997576" data-name="Trazado 997576" d="M136.63,577.269a16.031,16.031,0,0,1-8.6-1.248l-.984-.142s-5.244,8.351-7.976,9.112a15.2,15.2,0,0,0-.281,3.475c.16,4.748-1.5,12.588-1.5,12.588h19.4s-.3-7.192.034-10.305.866-13.225.866-13.225Z" transform="translate(-107.114 -525.92)" fill="#bfdeff"/>
            <path id="Trazado_997577" data-name="Trazado 997577" d="M140.867,592.316a7.067,7.067,0,0,0-1.9.925c-.052.036,0,.123.05.087a6.976,6.976,0,0,1,1.872-.915c.06-.019.035-.116-.026-.1" transform="translate(-126.895 -540.929)" fill="#63a3f4"/>
            <path id="Trazado_997578" data-name="Trazado 997578" d="M226.938,289.417a1.46,1.46,0,0,0-1.212.148,1.55,1.55,0,0,1,.919.129c.455.227.293-.277.293-.277" transform="translate(-206.144 -264.245)" fill="#421c26"/>
            <path id="Trazado_997579" data-name="Trazado 997579" d="M234.18,284.631a1.547,1.547,0,0,1-.945-.816,1.6,1.6,0,0,0,.84.415c.5.069.106.4.106.4" transform="translate(-213.001 -259.193)" fill="#421c26"/>
            <path id="Trazado_997580" data-name="Trazado 997580" d="M329.971,305.946a9.87,9.87,0,0,1,.005,2.639c-.229.587-.777-2.419-.777-2.419Z" transform="translate(-300.64 -279.405)" fill="#421c26"/>
            <path id="Trazado_997581" data-name="Trazado 997581" d="M246.143,379.119a25.357,25.357,0,0,0,.657-3.494,8.918,8.918,0,0,0-.244-1.725c.039.013,5.349,1.85,4.618,3.5-.033.074-.063.152-.091.233a6.962,6.962,0,0,0-.3,1.883c-.009.213-.255,1.532-.251,1.733.006.308-4.516-1.733-4.393-2.129" transform="translate(-224.787 -341.464)" fill="#fabba5"/>
            <path id="Trazado_997582" data-name="Trazado 997582" d="M251.343,391.781c.022.251-.121,1.175-.132,1.462,1.1,2.567,4.163,2.581,4.206,2.6a6.962,6.962,0,0,1,.3-1.883c-1.182-.669-3.679-2.254-4.37-2.179" transform="translate(-229.418 -357.791)" fill="#ed938b"/>
            <path id="Trazado_997583" data-name="Trazado 997583" d="M249.666,306.124c.178.694,2.465,1.352,3.385,1.5a3.218,3.218,0,0,0,2.071-.068,7.344,7.344,0,0,0,1.587-4.454,9.33,9.33,0,0,1,.076-2.22,9.009,9.009,0,0,0-.52-3.474c-3.406-2.809-6.646.789-6.968,2.219a14.512,14.512,0,0,0,.369,6.5" transform="translate(-227.473 -270.654)" fill="#fabba5"/>
            <path id="Trazado_997584" data-name="Trazado 997584" d="M275.2,334.325c-.179.022-.191-.131-.034-.226a1.918,1.918,0,0,1,1.9-.077c1.007.352.9.96.319.84-.508-.1-1-.686-2.187-.537" transform="translate(-251.199 -304.861)" fill="#752d4b"/>
            <path id="Trazado_997585" data-name="Trazado 997585" d="M322.693,337.593c.094.023.122-.311.048-.4-.175-.214-.487-.382-1.015-.1-.58.315-.544.7-.219.6a1.729,1.729,0,0,1,1.186-.1" transform="translate(-293.402 -307.713)" fill="#752d4b"/>
            <path id="Trazado_997586" data-name="Trazado 997586" d="M309.7,348.464a.92.92,0,0,0-.479.825,1.9,1.9,0,0,0,.35,1.05c.131.211.464.543.325.827a.569.569,0,0,1-.319.231,2.21,2.21,0,0,1-.505.143c-.051.008-.069-.075-.018-.084a2.1,2.1,0,0,0,.564-.17c.152-.072.266-.172.207-.368a1.028,1.028,0,0,0-.151-.273,3.326,3.326,0,0,1-.466-.877,1.135,1.135,0,0,1,.454-1.38c.048-.022.085.054.037.076" transform="translate(-282.215 -318.161)" fill="#cf8171"/>
            <path id="Trazado_997587" data-name="Trazado 997587" d="M304.357,408.006a1.166,1.166,0,0,0-.814-.054c-.1.029-.135-.138-.035-.167a1.307,1.307,0,0,1,.9.058c.1.042.046.206-.05.163" transform="translate(-277.123 -372.359)" fill="#ef9f8a"/>
            <path id="Trazado_997588" data-name="Trazado 997588" d="M222.844,268.838a5.037,5.037,0,0,0,2.247,2.926c-.125-1.164-.105-3.561.158-3.545s.942.91.892.482a2.279,2.279,0,0,1,.144-1.962,2.642,2.642,0,0,0,.164-2.036l.011.005.007,0a2.069,2.069,0,0,0,.311.126h0a5.2,5.2,0,0,0,1.087.206,10.333,10.333,0,0,0,1.112.044c.4-.006.8-.031,1.154-.072a6.23,6.23,0,0,0,.878-.158,2.486,2.486,0,0,1,.388-.076,1.487,1.487,0,0,1,.243-.008c.505.027.553.355.553.355a2.666,2.666,0,0,0,.543-2.529,3.331,3.331,0,0,0-1.214-1.9,1.1,1.1,0,0,1-.771.477,1.317,1.317,0,0,0,.074-.289,1.074,1.074,0,0,0-.054-.533v0s-1.069.956-3.532.551c-3.358-.552-3.423,1.994-3.423,1.994-1.7.935-1.384,4.065-.976,5.942" transform="translate(-203.218 -237.765)" fill="#421c26"/>
            <path id="Trazado_997589" data-name="Trazado 997589" d="M237.484,265.248c.478,1.206,2.629,1.807,2.629,1.807l.011.005.007,0c.041.017.151.064.311.126h0a5.2,5.2,0,0,0,1.087.206,10.337,10.337,0,0,0,1.112.044c.4-.006.8-.031,1.154-.072.337-.039.635-.122.878-.158,1.118-.161.095-1.946.095-1.946a1.4,1.4,0,0,1-.966.648c.417-.625-.152-1.413-.152-1.413a1.152,1.152,0,0,1-1.707.364,1.617,1.617,0,0,0,.91-.565,1.348,1.348,0,0,0,.178-1.372s-.583.669-2.129.328c-3.3-.73-3.423,1.994-3.423,1.994" transform="translate(-216.882 -240.118)" fill="#6d2f3b"/>
            <path id="Trazado_997590" data-name="Trazado 997590" d="M282.224,263.672a1.675,1.675,0,0,1-1.479.666l-.038-.225a2.707,2.707,0,0,0,1.517-.441" transform="translate(-256.355 -240.798)" fill="#6d2f3b"/>
            <path id="Trazado_997591" data-name="Trazado 997591" d="M316.784,263.26s-.095.707-.545.842l.01-.22a1.135,1.135,0,0,0,.535-.623" transform="translate(-288.805 -240.422)" fill="#421c26"/>
            <path id="Trazado_997592" data-name="Trazado 997592" d="M323.78,290.4s.4,1.721-.489,1.835l.109-.613a1.485,1.485,0,0,0,.38-1.222" transform="translate(-295.245 -265.211)" fill="#6d2f3b"/>
            <path id="Trazado_997593" data-name="Trazado 997593" d="M306.863,283.073s.108,1.048-.312,1.318-.336-.193-.336-.193a1.435,1.435,0,0,0,.648-1.126" transform="translate(-279.644 -258.516)" fill="#6d2f3b"/>
            <path id="Trazado_997594" data-name="Trazado 997594" d="M320.167,354.282a1.048,1.048,0,0,1,.665-.4.461.461,0,0,1,.186.032,2.951,2.951,0,0,1,.39.28c.052.037-.593-.972-1.183-.092-.02.03-.04.062-.06.1s-.044.079-.066.124c-.053.107-.021.056.068-.042" transform="translate(-292.306 -323.055)" fill="#752d4b"/>
            <path id="Trazado_997595" data-name="Trazado 997595" d="M323.094,355.23a.515.515,0,0,0-.026.175.354.354,0,0,0,.082.212.436.436,0,0,0,.34.124.477.477,0,0,0,.287-.13.384.384,0,0,0,.07-.4c-.02-.038-.04-.076-.056-.1l-.022-.041-.317,0-.2.083a.6.6,0,0,0-.162.079" transform="translate(-295.039 -324.262)" fill="#752d4b"/>
            <path id="Trazado_997596" data-name="Trazado 997596" d="M287.9,353.689a.424.424,0,1,0,.846.034.47.47,0,0,0-.048-.227.438.438,0,0,0-.136-.163c-.16-.008-.317-.01-.464-.008a.451.451,0,0,0-.182.258.471.471,0,0,0-.016.107" transform="translate(-262.927 -322.672)" fill="#752d4b"/>
            <path id="Trazado_997597" data-name="Trazado 997597" d="M279.658,352.376c-.073.184.374-.45,1.343-.208a1.662,1.662,0,0,1,.658.388c.067.06.076-.029.016-.1a1.288,1.288,0,0,0-.823-.49,1.419,1.419,0,0,0-1.193.407" transform="translate(-255.39 -321.423)" fill="#752d4b"/>
            <path id="Trazado_997598" data-name="Trazado 997598" d="M230.406,417.657s1.411-1.434,1.365-2.456a7.034,7.034,0,0,0,2.33,1.914c.963.255.786,1.4.786,1.4s.156-1.191.6-1.191.774-.417.984-.745c0,0,.063,1.574.565,1.936s-2.709,1.383-2.709,1.383l-3.78-1.3Z" transform="translate(-210.418 -379.181)" fill="#bfdeff"/>
            <path id="Trazado_997599" data-name="Trazado 997599" d="M254.625,448.227a22.2,22.2,0,0,1-.385,8.1c-.3,1.25-.818,2.456-1.011,3.729a7.45,7.45,0,0,0,.218,2.9c.268,1.092.658,2.152.862,3.26a6.038,6.038,0,0,1-.488,3.678,8.6,8.6,0,0,0-.735,3.093c-.053,1.2.077,2.391.087,3.587a10.21,10.21,0,0,1-.175,2.188c-.137.651-.4,1.259-.6,1.891a5.861,5.861,0,0,0,.038,3.693c.033.1.184.055.151-.042a5.883,5.883,0,0,1,.068-3.921,10.525,10.525,0,0,0,.666-3.25c.032-1.235-.106-2.467-.094-3.7a9.495,9.495,0,0,1,.851-3.75,5.65,5.65,0,0,0,.468-2.9,18,18,0,0,0-.712-2.977,8.8,8.8,0,0,1-.46-3.712c.183-1.235.69-2.4.984-3.614a22.44,22.44,0,0,0,.413-8.3c-.014-.1-.165-.058-.151.042" transform="translate(-230.252 -409.251)" fill="#63a3f4"/>
            <path id="Trazado_997600" data-name="Trazado 997600" d="M.3,462.792s9.206,2.13,8.065.947c-.81-.84,5.351-8.027,6.595-8.224,1.984-.315,4.038-4.318,5.429-7.667a30.811,30.811,0,0,1,2.572-3.77,19.287,19.287,0,0,0-4.229-.182c-4.9.4-9.358,2.588-10.814,5.911-1.832,4.179-6.668,8.248-7.673,12.732a.517.517,0,0,0,.056.254" transform="translate(-0.218 -405.342)" fill="#bfdeff"/>
            <path id="Trazado_997601" data-name="Trazado 997601" d="M248.173,350.924c-1.593-.309.629,5.461,2.229,6.193s3.128.881,3.882.2,1.12-3.456,1.039-3.644-1.556-1.518-2.071-1.3c-.431.179-1.029,1.39-2.849.536-.969-.455-1.4-1.823-2.229-1.982" transform="translate(-226.141 -320.47)" fill="#52ceb5"/>
            <g id="Grupo_1179288" data-name="Grupo 1179288" transform="translate(23.087 29.455)" opacity="0.5">
              <g id="Grupo_1179287" data-name="Grupo 1179287">
                <g id="Grupo_1179286" data-name="Grupo 1179286" clip-path="url(#clip-path-21)">
                  <path id="Trazado_997602" data-name="Trazado 997602" d="M273.359,340.519c-.065-.423-2.45-1.652-6.653-.515a.8.8,0,0,0-.581.8,11.749,11.749,0,0,0,.205,2.132c.172.423,2.386.337,2.907-.246s.745-1.608,1.15-1.47.412,1.478.781,1.8a2.487,2.487,0,0,0,1.283.263.5.5,0,0,0,.464-.293,4.144,4.144,0,0,0,.443-2.471" transform="translate(-266.125 -339.533)" fill="#fff"/>
                </g>
              </g>
            </g>
            <path id="Trazado_997603" data-name="Trazado 997603" d="M271.379,342.287h-.008a2.485,2.485,0,0,1-1.348-.287,1.962,1.962,0,0,1-.392-.946c-.091-.363-.194-.775-.356-.83s-.333.269-.515.612a4.165,4.165,0,0,1-.527.829,3.555,3.555,0,0,1-2.55.5c-.3-.053-.471-.146-.527-.284a11.291,11.291,0,0,1-.213-2.167.906.906,0,0,1,.657-.909c3.426-.927,5.667-.3,6.45.222.2.133.312.26.33.378a4.241,4.241,0,0,1-.452,2.532.61.61,0,0,1-.55.352m-2.149-2.28a.343.343,0,0,1,.111.019c.268.091.376.521.489.977a1.983,1.983,0,0,0,.325.838,2.27,2.27,0,0,0,1.218.238.4.4,0,0,0,.37-.234,4.049,4.049,0,0,0,.434-2.41c0-.03-.061-.117-.24-.235-.083-.055-2.082-1.333-6.285-.195a.7.7,0,0,0-.5.7,10.751,10.751,0,0,0,.2,2.1c.019.046.127.115.373.158a3.419,3.419,0,0,0,2.363-.434,4.02,4.02,0,0,0,.5-.787c.206-.388.387-.73.649-.73" transform="translate(-241.959 -308.979)" fill="#383463"/>
            <path id="Trazado_997604" data-name="Trazado 997604" d="M249.412,375.309s1.306,3.4,2.623,3.718l-1.486-4.124Z" transform="translate(-227.775 -342.379)" fill="#52ceb5"/>
            <path id="Trazado_997605" data-name="Trazado 997605" d="M242.272,350.434s-.648-1.341-1.434-.774-.056,1.712.218,2.152c.293.47.7,1.01,1.176.7.683-.447.04-2.073.04-2.073" transform="translate(-219.622 -319.199)" fill="#fabba5"/>
            <path id="Trazado_997606" data-name="Trazado 997606" d="M242.17,352.023a.567.567,0,0,1-.873.065,1.737,1.737,0,0,1-.366-.516,4.451,4.451,0,0,1-.31-.7,1.117,1.117,0,0,1,.2-1.249.808.808,0,0,1,1.12.225c.036.045-.028.107-.064.062a.721.721,0,0,0-1.045-.182c-.336.3-.233.848-.094,1.223a3.429,3.429,0,0,0,.493.944c.206.255.651.442.865.082.03-.05.1,0,.073.05" transform="translate(-219.659 -319.158)" fill="#ef9f8a"/>
            <path id="Trazado_997607" data-name="Trazado 997607" d="M249.769,354.387a.648.648,0,0,1,.315.278.5.5,0,0,1-.007.427c-.094.292.186.364.317.558a.323.323,0,0,1,.021.358c-.03.05-.1,0-.072-.05.165-.272-.343-.456-.379-.715-.015-.108.043-.177.072-.275a.438.438,0,0,0-.293-.494c-.05-.024-.024-.112.027-.088" transform="translate(-228.052 -323.639)" fill="#ef9f8a"/>
            <path id="Trazado_997608" data-name="Trazado 997608" d="M210.468,741.235s.009-2.725.486-3.087.47.724,1,.614,1.1-.347,1.234.215.235.441.728.318.16,1.211-.757,1.88-2.686.061-2.686.061" transform="translate(-192.209 -674.045)" fill="#413f74"/>
            <path id="Trazado_997609" data-name="Trazado 997609" d="M551.645,567.826s.009-2.725.486-3.087.47.724.995.614,1.1-.347,1.234.215.235.441.728.318.16,1.211-.757,1.88-2.686.061-2.686.061" transform="translate(-503.789 -515.68)" fill="#514f8c"/>
            <path id="Trazado_997610" data-name="Trazado 997610" d="M138.978,573.421a10.688,10.688,0,0,1,4.559-2.825c.058-.023.033-.12-.026-.1a10.8,10.8,0,0,0-4.6,2.851c-.041.049.029.12.07.071" transform="translate(-126.847 -521.004)" fill="#63a3f4"/>
            <g id="Grupo_1179291" data-name="Grupo 1179291" transform="translate(11.955 49.855)" opacity="0.3">
              <g id="Grupo_1179290" data-name="Grupo 1179290">
                <g id="Grupo_1179289" data-name="Grupo 1179289" clip-path="url(#clip-path-22)">
                  <path id="Trazado_997611" data-name="Trazado 997611" d="M141.375,581.343c.164,1.075-2.618,2.474-3.549,2.911-.006-.112-.012-.231-.016-.351-.032-1.113.193-5.085.243-6.765a8.46,8.46,0,0,1,3.707-2.45,2.671,2.671,0,0,1-1.073,2.039c-1.087.792.844,1.025.537,2.362s-.045.966.152,2.254" transform="translate(-137.807 -574.688)" fill="#4b83db"/>
                </g>
              </g>
            </g>
            <path id="Trazado_997612" data-name="Trazado 997612" d="M69.887,805.048a10.877,10.877,0,0,1-1.459,1.239c-6.6,4.655-15.684-.583-17.268-5.423q-.093-.285-.166-.569c-2.587-10.061,13.579-19.1,13.579-19.1l.261,1.557c3.915,6.724,9.194,18.114,5.053,22.3" transform="translate(-46.314 -713.423)" fill="#66619e"/>
            <path id="Trazado_997613" data-name="Trazado 997613" d="M156.4,808.724s-1.819,2.181-1.732,2.5,2.065-1.661,2.51-1.658-.094,1.066.283,1.093.889-1.632,1.023-.843-.162,4.317.538,3.536.2-3.571.345-3.536.786,1.22,1.19,1.678.081-1.266-.3-2.154-3.86-.619-3.86-.619" transform="translate(-141.246 -738.531)" fill="#514f8c"/>
            <path id="Trazado_997614" data-name="Trazado 997614" d="M71.379,989.8c-6.6,4.655-15.684-.582-17.268-5.423q-.093-.285-.166-.569a4.64,4.64,0,0,1,.374-1.406.463.463,0,0,1,.851.036,17.894,17.894,0,0,1,.618,2.842,2.306,2.306,0,0,0,.314.878.879.879,0,0,0,.792.412.6.6,0,0,0,.393-.238.352.352,0,0,1,.574,0,4.269,4.269,0,0,1,.418.871c.2.5.507,1.06,1.042,1.157.705.129,1.231-.592,1.687-1.145a5.568,5.568,0,0,1,1.625-1.342,1.207,1.207,0,0,1,.913-.117c.742.217.759,1.018.53,1.607a4.294,4.294,0,0,0-.628,1.815.891.891,0,0,0,.427.733c.413.234.813-.016,1.21-.146.33-.109.784-.082.915.24.048.119.04.254.083.375a.735.735,0,0,0,.868.346,3.546,3.546,0,0,0,1.609-1.154,2,2,0,0,1,1.952-.771,1.353,1.353,0,0,1,.865,1h0" transform="translate(-49.265 -896.932)" fill="#514f8c"/>
            <path id="Trazado_997615" data-name="Trazado 997615" d="M148.572,831.6a32.929,32.929,0,0,0-2.65,4.841c-.026.059.061.11.087.051a32.923,32.923,0,0,1,2.649-4.841c.036-.054-.051-.105-.087-.051" transform="translate(-133.259 -759.438)" fill="#514f8c"/>
            <path id="Trazado_997616" data-name="Trazado 997616" d="M175.769,834.033l-.58,1.781c-.02.062.077.089.1.027l.58-1.781c.02-.062-.077-.088-.1-.027" transform="translate(-159.989 -761.647)" fill="#514f8c"/>
            <path id="Trazado_997617" data-name="Trazado 997617" d="M216.8,846.47l.866,2.961a.051.051,0,0,0,.1-.027l-.866-2.961a.051.051,0,0,0-.1.027" transform="translate(-197.986 -772.98)" fill="#514f8c"/>
            <path id="Trazado_997618" data-name="Trazado 997618" d="M223.981,846.554a4.566,4.566,0,0,0,.841,1.521c.042.05.113-.022.071-.071a4.421,4.421,0,0,1-.815-1.477c-.02-.062-.118-.035-.1.027" transform="translate(-204.548 -773.057)" fill="#514f8c"/>
            <path id="Trazado_997619" data-name="Trazado 997619" d="M461.859,633.915a10.869,10.869,0,0,1-1.244,1.455c-5.774,5.642-15.578,1.912-17.91-2.615q-.137-.266-.254-.535c-4.15-9.523,10.377-21.014,10.377-21.014l.5,1.5c4.932,6.018,11.951,16.427,8.525,21.214" transform="translate(-403.387 -558.182)" fill="#66619e"/>
            <path id="Trazado_997620" data-name="Trazado 997620" d="M525.08,640.633s-1.45,2.442-1.313,2.747,1.776-1.967,2.215-2.035.076,1.067.453,1.034.618-1.752.877-.995.525,4.287,1.092,3.406-.364-3.558-.22-3.546.97,1.08,1.441,1.468-.121-1.262-.634-2.08-3.91,0-3.91,0" transform="translate(-478.321 -584.724)" fill="#514f8c"/>
            <path id="Trazado_997621" data-name="Trazado 997621" d="M468.407,837.847c-5.774,5.642-15.578,1.912-17.91-2.615q-.137-.266-.254-.535a4.642,4.642,0,0,1,.146-1.448.463.463,0,0,1,.846-.1,17.908,17.908,0,0,1,1.061,2.708,2.307,2.307,0,0,0,.449.817.88.88,0,0,0,.847.281.6.6,0,0,0,.351-.3.352.352,0,0,1,.567-.091,4.26,4.26,0,0,1,.551.793c.278.467.669.966,1.212.977.717.016,1.122-.78,1.485-1.4a5.567,5.567,0,0,1,1.392-1.583,1.208,1.208,0,0,1,.883-.26c.767.1.911.885.778,1.5a4.293,4.293,0,0,0-.333,1.892.891.891,0,0,0,.538.656c.445.166.8-.145,1.172-.336.309-.16.761-.206.942.092.067.11.08.244.142.357a.735.735,0,0,0,.912.2,3.545,3.545,0,0,0,1.406-1.395,2,2,0,0,1,1.8-1.071,1.352,1.352,0,0,1,1.013.851h0" transform="translate(-411.179 -760.659)" fill="#514f8c"/>
            <path id="Trazado_997622" data-name="Trazado 997622" d="M88.575,974.349a6.778,6.778,0,0,0,.356,2.54c.021.061.118.035.1-.027a6.7,6.7,0,0,1-.352-2.513c0-.065-.1-.065-.1,0" transform="translate(-80.883 -889.777)" fill="#514f8c"/>
            <path id="Trazado_997623" data-name="Trazado 997623" d="M160.711,751.8a5.58,5.58,0,0,1,2.619-1.076c.832-.012,1.291-.462,1.624,0a1.6,1.6,0,0,1,.273,1.074c.16.281,2.106.687,2.911.914.425.12,1.249.895.559,1.444a1.992,1.992,0,0,0-.673.933c-.193.539-1.249.536-1.325.868-.175.765-1.261.448-2.55.276a6.05,6.05,0,0,1-3.2-1.2c-.641-.628-.241-3.237-.241-3.237" transform="translate(-146.656 -685.411)" fill="#52ceb5"/>
            <path id="Trazado_997624" data-name="Trazado 997624" d="M13.143,659.738s-4.937-2.757-8.831-5.371A9.429,9.429,0,0,1,0,647.575a.783.783,0,0,1,.511-.808c1.216-.436,4.382-1.31,6.392.5,2.529,2.279,3.237,3.669,5.247,5.3,1.211.981,3.106,2.391,3.22,2.927a14.767,14.767,0,0,1,.011,1.883c.035.67-1.8,2.506-2.24,2.362" transform="translate(0 -590.113)" fill="#bfdeff"/>
            <g id="Grupo_1179294" data-name="Grupo 1179294" transform="translate(4.826 57.241)" opacity="0.3">
              <g id="Grupo_1179293" data-name="Grupo 1179293">
                <g id="Grupo_1179292" data-name="Grupo 1179292" clip-path="url(#clip-path-23)">
                  <path id="Trazado_997625" data-name="Trazado 997625" d="M59.072,660.1a5.428,5.428,0,0,0-3.437.045,4.991,4.991,0,0,1,3.256.716v0a1.364,1.364,0,0,1,.18-.76" transform="translate(-55.635 -659.824)" fill="#4b83db"/>
                </g>
              </g>
            </g>
            <path id="Trazado_997626" data-name="Trazado 997626" d="M50.941,663.027a5.319,5.319,0,0,0-3.952-.655c-.062.013-.036.11.026.1a5.206,5.206,0,0,1,3.876.645c.055.033.1-.054.05-.087" transform="translate(-42.88 -604.792)" fill="#63a3f4"/>
            <path id="Trazado_997627" data-name="Trazado 997627" d="M72.06,669.356a5.473,5.473,0,0,0-1.921-.151c-.063.006-.063.106,0,.1a5.4,5.4,0,0,1,1.895.147.05.05,0,0,0,.026-.1" transform="translate(-64.011 -611.126)" fill="#63a3f4"/>
            <path id="Trazado_997628" data-name="Trazado 997628" d="M129.135,720.653a5.947,5.947,0,0,0,1.73.985c.249.088.343.149.554.067a2.909,2.909,0,0,0,.7-.544,3.779,3.779,0,0,0,1.4-3.219c-.149-1-.8-1.452-1.531-2.017-.817-.635-1.614-1.3-2.394-1.985-.076-.067-.188.046-.111.113.579.506,1.172,1,1.767,1.482a15.4,15.4,0,0,1,1.538,1.207,2.779,2.779,0,0,1-.034,3.463c-.308.448-.94,1.257-1.487,1.329-.647.084-1.535-.606-2.02-.993-.079-.063-.191.049-.111.113" transform="translate(-117.907 -651.985)" fill="#63a3f4"/>
            <path id="Trazado_997629" data-name="Trazado 997629" d="M546.341,593.932c1.192-.091,1.628.1,1.675.678s-.215.7-1.407.79-2.495.091-2.543-.488,1.083-.889,2.274-.981" transform="translate(-496.866 -542.387)" fill="#52ceb5"/>
            <path id="Trazado_997630" data-name="Trazado 997630" d="M540.368,609.564c1.459-.112,1.988.072,2.036.651s-.276.7-1.735.815-3.052.134-3.1-.445,1.34-.909,2.8-1.021" transform="translate(-490.933 -556.655)" fill="#52ceb5"/>
            <path id="Trazado_997631" data-name="Trazado 997631" d="M541.194,623.431c1.384-.106,1.887.08,1.935.659s-.259.7-1.643.808-2.9.122-2.944-.457,1.268-.9,2.652-1.01" transform="translate(-491.821 -569.321)" fill="#52ceb5"/>
            <path id="Trazado_997632" data-name="Trazado 997632" d="M550.63,637.014c.995-.076,1.359.087,1.4.581s-.179.6-1.173.672-2.083.074-2.123-.42.9-.757,1.9-.833" transform="translate(-501.128 -581.735)" fill="#52ceb5"/>
            <path id="Trazado_997633" data-name="Trazado 997633" d="M554.739,609.852l2.411-.079c.076,0,.067-.119-.009-.116l-2.411.079c-.076,0-.067.119.009.116" transform="translate(-506.558 -556.768)" fill="#3cb198"/>
            <path id="Trazado_997634" data-name="Trazado 997634" d="M547.573,624.613a23.137,23.137,0,0,0,3.4-.18c.075-.01.066-.126-.009-.116a23.163,23.163,0,0,1-3.4.18c-.076,0-.066.115.009.116" transform="translate(-500.013 -570.156)" fill="#3cb198"/>
            <path id="Trazado_997635" data-name="Trazado 997635" d="M551.708,638.715a16.7,16.7,0,0,0,2.75-.186c.075-.011.066-.127-.009-.116a16.718,16.718,0,0,1-2.75.186c-.076,0-.066.115.009.116" transform="translate(-503.789 -583.029)" fill="#3cb198"/>
            <g id="Grupo_1179297" data-name="Grupo 1179297" transform="translate(11.076 78.394)" opacity="0.8">
              <g id="Grupo_1179296" data-name="Grupo 1179296">
                <g id="Grupo_1179295" data-name="Grupo 1179295" clip-path="url(#clip-path-24)">
                  <path id="Trazado_997636" data-name="Trazado 997636" d="M132.147,929.256h0l.252.25a1.814,1.814,0,0,1,.531-.284,2.635,2.635,0,0,0-.182-.513,1.8,1.8,0,0,1-.693.02l-.047.228a.385.385,0,0,1,.139.3m-.378,1.188a1.783,1.783,0,0,1,.395-.719L132,929.56a.386.386,0,0,1-.556-.088l-.228.075a1.78,1.78,0,0,1,.073.78c-.006.046-.013.092-.023.138a1.8,1.8,0,0,1-3.36.46,2.662,2.662,0,0,0,4.1,1,1.793,1.793,0,0,1-.267-1.364c.008-.041.018-.081.029-.12m-2.235-2.14a1.815,1.815,0,0,1,.332.037,1.795,1.795,0,0,1,1.221.91l.3-.1a.387.387,0,0,1,.309-.278l.046-.224a1.792,1.792,0,0,1-.587-.348l0,0a1.789,1.789,0,0,1-.585-1.1,2.665,2.665,0,0,0-2.851,3.109,1.8,1.8,0,0,1,1.819-2" transform="translate(-127.677 -925.144)" fill="#252346"/>
                  <path id="Trazado_997637" data-name="Trazado 997637" d="M164.947,938.544a2.664,2.664,0,0,0-1.568-2.991,1.8,1.8,0,0,1-1.818.818l-.047.228a.386.386,0,0,1,.139.3h0l.252.25a1.811,1.811,0,0,1,.531-.284,1.8,1.8,0,0,1,2.132,2.6,2.656,2.656,0,0,0,.378-.919m-2.3,1.787a1.8,1.8,0,0,1-1.4-2.125c.008-.041.018-.081.029-.12a1.784,1.784,0,0,1,.4-.719l-.167-.165a.386.386,0,0,1-.556-.088l-.228.076a1.78,1.78,0,0,1,.073.78c-.006.046-.013.092-.023.138a1.791,1.791,0,0,1-.785,1.147,2.664,2.664,0,0,0,4.164.7,1.794,1.794,0,0,1-1.506.372m-2.051-3.438.3-.1a.386.386,0,0,1,.309-.279l.046-.224a1.793,1.793,0,0,1-.587-.348l0,0a2.665,2.665,0,0,0-.449.465,1.805,1.805,0,0,1,.384.489" transform="translate(-157.183 -932.786)" fill="#252346"/>
                  <path id="Trazado_997638" data-name="Trazado 997638" d="M152.983,904.326a2.649,2.649,0,0,0-.853-.509,1.8,1.8,0,0,1,.809,2.606,1.809,1.809,0,0,1-.178.237,1.8,1.8,0,0,1-1.64.582l-.047.228a.386.386,0,0,1,.139.3h0l.252.25a1.809,1.809,0,0,1,.531-.284,1.8,1.8,0,0,1,1.4.111,2.663,2.663,0,0,0-.417-3.52m-2.235,3.819a.385.385,0,0,1-.241-.161l-.228.075a1.782,1.782,0,0,1,.073.78,2.642,2.642,0,0,0,.481.116,1.784,1.784,0,0,1,.395-.719l-.167-.165a.386.386,0,0,1-.315.073m.015-.76.046-.224a1.794,1.794,0,0,1-.587-.348l0,0a1.8,1.8,0,0,1,1.28-3.138,2.663,2.663,0,0,0-2.9,3.145,1.82,1.82,0,0,1,.332.037,1.795,1.795,0,0,1,1.221.91l.3-.1a.387.387,0,0,1,.309-.278" transform="translate(-146.742 -903.656)" fill="#252346"/>
                  <path id="Trazado_997639" data-name="Trazado 997639" d="M167.243,927.249a1.607,1.607,0,0,1-.584.343,1.474,1.474,0,0,0-1.643-.385,1.606,1.606,0,0,1-.371-.566,2.142,2.142,0,0,1,2.6.608" transform="translate(-161.438 -924.458)" fill="#252346"/>
                  <path id="Trazado_997640" data-name="Trazado 997640" d="M178.435,954.306a1.608,1.608,0,0,1,.01-.677,1.474,1.474,0,0,0,1.183-1.2,1.608,1.608,0,0,1,.677-.023,2.142,2.142,0,0,1-1.87,1.9" transform="translate(-174.003 -948.15)" fill="#252346"/>
                  <path id="Trazado_997641" data-name="Trazado 997641" d="M151.435,942.48a1.61,1.61,0,0,1,.6.317,1.474,1.474,0,0,0,.534,1.6,1.6,1.6,0,0,1-.287.613,2.142,2.142,0,0,1-.845-2.531" transform="translate(-149.255 -939.112)" fill="#252346"/>
                </g>
              </g>
            </g>
            <g id="Grupo_1179300" data-name="Grupo 1179300" transform="translate(45.149 62.966)" opacity="0.6">
              <g id="Grupo_1179299" data-name="Grupo 1179299">
                <g id="Grupo_1179298" data-name="Grupo 1179298" clip-path="url(#clip-path-25)">
                  <path id="Trazado_997642" data-name="Trazado 997642" d="M524.774,754.4h0l.292.2a1.811,1.811,0,0,1,.474-.371,2.642,2.642,0,0,0-.268-.474,1.8,1.8,0,0,1-.679.14l-.007.232a.386.386,0,0,1,.189.271m-.168,1.235a1.785,1.785,0,0,1,.265-.776l-.193-.134a.386.386,0,0,1-.563.009l-.211.113a1.784,1.784,0,0,1,.207.756c0,.046,0,.093,0,.14a1.8,1.8,0,0,1-3.231,1.032,2.662,2.662,0,0,0,4.214.28,1.793,1.793,0,0,1-.5-1.3c0-.042,0-.083.008-.124m-2.57-1.723a1.818,1.818,0,0,1,.334-.021,1.795,1.795,0,0,1,1.359.686l.279-.15a.387.387,0,0,1,.257-.327l.007-.228a1.791,1.791,0,0,1-.639-.242l-.005,0a1.79,1.79,0,0,1-.766-.985,2.665,2.665,0,0,0-2.273,3.554,1.8,1.8,0,0,1,1.447-2.284" transform="translate(-520.434 -750.312)" fill="#252346"/>
                  <path id="Trazado_997643" data-name="Trazado 997643" d="M558.127,756.88a2.665,2.665,0,0,0-2.06-2.676,1.8,1.8,0,0,1-1.65,1.119l-.007.232a.386.386,0,0,1,.188.271h0l.292.2a1.811,1.811,0,0,1,.474-.371,1.8,1.8,0,0,1,2.548,2.193,2.657,2.657,0,0,0,.214-.97m-1.961,2.157a1.8,1.8,0,0,1-1.743-1.852c0-.042,0-.083.008-.124a1.784,1.784,0,0,1,.265-.776l-.192-.134a.386.386,0,0,1-.563.009l-.211.114a1.782,1.782,0,0,1,.207.756c0,.046,0,.093,0,.14a1.792,1.792,0,0,1-.576,1.265,2.664,2.664,0,0,0,4.223-.024,1.8,1.8,0,0,1-1.419.626M553.554,756l.279-.15a.387.387,0,0,1,.257-.328l.007-.228a1.794,1.794,0,0,1-.639-.242l-.005,0a2.667,2.667,0,0,0-.362.536,1.8,1.8,0,0,1,.463.415" transform="translate(-550.258 -751.741)" fill="#252346"/>
                  <path id="Trazado_997644" data-name="Trazado 997644" d="M540.994,726.2a2.653,2.653,0,0,0-.928-.354,1.8,1.8,0,0,1-.4,3.547l-.007.232a.386.386,0,0,1,.189.271h0l.292.2a1.811,1.811,0,0,1,.474-.371,1.8,1.8,0,0,1,1.4-.132,2.663,2.663,0,0,0-1.017-3.4m-1.544,4.147a.386.386,0,0,1-.265-.117l-.211.113a1.78,1.78,0,0,1,.207.756,2.635,2.635,0,0,0,.494.031,1.784,1.784,0,0,1,.265-.776l-.193-.134a.387.387,0,0,1-.3.126m-.116-.751.007-.228a1.8,1.8,0,0,1-.639-.242l-.005,0a1.8,1.8,0,0,1,.72-3.312,2.663,2.663,0,0,0-2.312,3.6,1.829,1.829,0,0,1,.334-.021,1.795,1.795,0,0,1,1.359.686l.279-.15a.386.386,0,0,1,.257-.328" transform="translate(-535.503 -725.812)" fill="#252346"/>
                  <path id="Trazado_997645" data-name="Trazado 997645" d="M554.958,749.516a1.609,1.609,0,0,1-.516.438,1.474,1.474,0,0,0-1.685-.1,1.606,1.606,0,0,1-.463-.494,2.142,2.142,0,0,1,2.664.152" transform="translate(-549.53 -746.962)" fill="#252346"/>
                  <path id="Trazado_997646" data-name="Trazado 997646" d="M572.944,773.055a1.607,1.607,0,0,1-.106-.668A1.474,1.474,0,0,0,573.8,771a1.6,1.6,0,0,1,.663-.139,2.142,2.142,0,0,1-1.514,2.2" transform="translate(-568.29 -766.95)" fill="#252346"/>
                  <path id="Trazado_997647" data-name="Trazado 997647" d="M542.633,769a1.608,1.608,0,0,1,.644.209,1.474,1.474,0,0,0,.8,1.485,1.607,1.607,0,0,1-.177.653A2.142,2.142,0,0,1,542.633,769" transform="translate(-540.676 -765.256)" fill="#252346"/>
                </g>
              </g>
            </g>
            <path id="Trazado_997648" data-name="Trazado 997648" d="M342.314,589.78c.239-2.222.385-4.454.6-6.679a34.753,34.753,0,0,1,.917-6.191c.021-.073-.093-.095-.113-.023a34.753,34.753,0,0,0-.917,6.191c-.211,2.225-.357,4.457-.6,6.679-.008.075.105.1.113.023" transform="translate(-312.514 -526.8)" fill="#63a3f4"/>
            <path id="Trazado_997649" data-name="Trazado 997649" d="M412.2,1363.293h-1.356a.883.883,0,0,1-.883-.883v-4.785a.883.883,0,0,1,.883-.883H412.2a.883.883,0,0,1,.883.883v4.785a.883.883,0,0,1-.883.883" transform="translate(-374.394 -1239.043)" fill="#39364b"/>
            <path id="Trazado_997650" data-name="Trazado 997650" d="M726.835,1363.293h-1.356a.883.883,0,0,1-.883-.883v-4.785a.883.883,0,0,1,.883-.883h1.356a.883.883,0,0,1,.883.883v4.785a.883.883,0,0,1-.883.883" transform="translate(-661.736 -1239.043)" fill="#39364b"/>
            <path id="Trazado_997651" data-name="Trazado 997651" d="M413.467,907.568H391.2a2.052,2.052,0,0,1-2.044-1.862L384.9,859.97a2.052,2.052,0,0,1,2.044-2.243h29.671a2.052,2.052,0,0,1,2.048,2.193l-3.145,45.736a2.052,2.052,0,0,1-2.048,1.912" transform="translate(-351.499 -783.317)" fill="#ff6576"/>
            <path id="Trazado_997652" data-name="Trazado 997652" d="M402.774,844.3H368.5a.934.934,0,0,1-.934-.935v-2.556a.934.934,0,0,1,.934-.934h34.277a.935.935,0,0,1,.935.934v2.556a.935.935,0,0,1-.935.935" transform="translate(-335.675 -767.018)" fill="#ff6576"/>
            <path id="Trazado_997653" data-name="Trazado 997653" d="M397.47,890.882s18.827,2.818,30,.139Z" transform="translate(-362.989 -813.596)" fill="#ff4f67"/>
            <path id="Trazado_997654" data-name="Trazado 997654" d="M701.869,963.483a16.575,16.575,0,0,0-1.4,3.89c-.03.134.176.191.206.057a16.349,16.349,0,0,1,1.383-3.839c.062-.122-.122-.231-.185-.108" transform="translate(-639.695 -879.85)" fill="#ff4f67"/>
            <path id="Trazado_997655" data-name="Trazado 997655" d="M705.119,1000.122a10.68,10.68,0,0,0-1.038,2.9c-.027.134.179.192.206.057a10.483,10.483,0,0,1,1.017-2.853c.064-.122-.12-.23-.185-.108" transform="translate(-642.998 -913.31)" fill="#ff4f67"/>
            <path id="Trazado_997656" data-name="Trazado 997656" d="M476.32,1311.1q1.725-3.213,3.721-6.269c.075-.116-.11-.223-.185-.108q-1.994,3.054-3.72,6.269c-.065.121.119.229.185.108" transform="translate(-434.817 -1191.488)" fill="#ff4f67"/>
            <path id="Trazado_997657" data-name="Trazado 997657" d="M507.7,1336.531l.746-1.043c.08-.112-.105-.219-.185-.108l-.746,1.043c-.08.112.105.219.185.108" transform="translate(-463.465 -1219.49)" fill="#ff4f67"/>
            <path id="Trazado_997658" data-name="Trazado 997658" d="M531.251,1081.215h0l.4.26a2.437,2.437,0,0,1,.621-.518,3.53,3.53,0,0,0-.379-.625,2.423,2.423,0,0,1-.906.215v.313a.518.518,0,0,1,.264.356m-.175,1.665a2.4,2.4,0,0,1,.324-1.053l-.264-.172a.519.519,0,0,1-.755.036l-.279.161a2.392,2.392,0,0,1,.308,1.006c0,.062.007.125.007.188a2.416,2.416,0,0,1-4.3,1.517,3.576,3.576,0,0,0,5.669.2,2.409,2.409,0,0,1-.721-1.722q0-.084.005-.166m-3.521-2.208a2.444,2.444,0,0,1,.447-.041,2.41,2.41,0,0,1,1.853.866l.369-.213a.519.519,0,0,1,.331-.45v-.307a2.412,2.412,0,0,1-.867-.3l-.007,0a2.4,2.4,0,0,1-1.069-1.291,3.58,3.58,0,0,0-2.907,4.865,2.418,2.418,0,0,1,1.849-3.126" transform="translate(-479.873 -985.333)" fill="#fff"/>
            <path id="Trazado_997659" data-name="Trazado 997659" d="M575.6,1082.953a3.579,3.579,0,0,0-2.875-3.509,2.415,2.415,0,0,1-2.169,1.57v.312a.519.519,0,0,1,.264.356h0l.4.26a2.435,2.435,0,0,1,.621-.518,2.417,2.417,0,0,1,3.511,2.84,3.567,3.567,0,0,0,.248-1.312m-2.545,2.976a2.416,2.416,0,0,1-2.416-2.416c0-.056,0-.111.005-.166a2.4,2.4,0,0,1,.324-1.053l-.264-.172a.519.519,0,0,1-.755.036l-.279.161a2.394,2.394,0,0,1,.308,1.006c0,.062.007.125.007.188a2.407,2.407,0,0,1-.721,1.722,3.578,3.578,0,0,0,5.669-.2,2.411,2.411,0,0,1-1.88.9m-3.631-3.966.369-.213a.519.519,0,0,1,.331-.45v-.307a2.409,2.409,0,0,1-.867-.3l-.007,0a3.579,3.579,0,0,0-.464.734,2.424,2.424,0,0,1,.638.539" transform="translate(-519.446 -985.8)" fill="#fff"/>
            <path id="Trazado_997660" data-name="Trazado 997660" d="M551.878,1042.674a3.564,3.564,0,0,0-1.261-.438,2.417,2.417,0,0,1,1.771,3.209,2.429,2.429,0,0,1-.169.36,2.414,2.414,0,0,1-2,1.21v.313a.518.518,0,0,1,.264.355h0l.4.26a2.44,2.44,0,0,1,.621-.518,2.421,2.421,0,0,1,1.878-.235,3.577,3.577,0,0,0-1.5-4.517m-1.9,5.63a.518.518,0,0,1-.361-.146l-.279.161a2.393,2.393,0,0,1,.308,1.006,3.537,3.537,0,0,0,.665.022,2.4,2.4,0,0,1,.324-1.053l-.264-.172a.519.519,0,0,1-.394.181m-.186-1v-.307a2.409,2.409,0,0,1-.867-.3l-.007,0a2.416,2.416,0,0,1,.832-4.476,3.577,3.577,0,0,0-2.958,4.924,2.444,2.444,0,0,1,.447-.041,2.41,2.41,0,0,1,1.853.866l.369-.213a.519.519,0,0,1,.331-.45" transform="translate(-499.106 -951.801)" fill="#fff"/>
            <path id="Trazado_997661" data-name="Trazado 997661" d="M570.622,1073.929a2.158,2.158,0,0,1-.675.609,1.98,1.98,0,0,0-2.266-.06,2.157,2.157,0,0,1-.642-.644,2.877,2.877,0,0,1,3.583.095" transform="translate(-517.847 -980.147)" fill="#fff"/>
            <path id="Trazado_997662" data-name="Trazado 997662" d="M596.247,1104.646a2.162,2.162,0,0,1-.17-.893,1.98,1.98,0,0,0,1.229-1.905,2.156,2.156,0,0,1,.884-.214,2.877,2.877,0,0,1-1.943,3.012" transform="translate(-544.365 -1006.065)" fill="#fff"/>
            <path id="Trazado_997663" data-name="Trazado 997663" d="M554.849,1101.126a2.165,2.165,0,0,1,.873.255,1.98,1.98,0,0,0,1.137,1.961,2.157,2.157,0,0,1-.211.885,2.877,2.877,0,0,1-1.8-3.1" transform="translate(-506.687 -1005.601)" fill="#fff"/>
            <path id="Trazado_997664" data-name="Trazado 997664" d="M489.479,994.255H476.785a3.458,3.458,0,0,1-3.071-5.049l6.254-12.072a3.405,3.405,0,0,1,3.05-1.867h.022a3.4,3.4,0,0,1,3.05,1.831l6.44,12.072a3.458,3.458,0,0,1-3.051,5.086m-6.439-17.888h-.015a2.321,2.321,0,0,0-2.079,1.273l-6.255,12.072a2.357,2.357,0,0,0,2.093,3.442h12.695a2.357,2.357,0,0,0,2.08-3.467l-6.44-12.072a2.321,2.321,0,0,0-2.079-1.248" transform="translate(-432.261 -890.66)" fill="#fff"/>
            <rect id="Rectángulo_455680" data-name="Rectángulo 455680" width="27.02" height="27.02" transform="translate(50.911 12.369)" fill="#ff6576"/>
            <path id="Trazado_997665" data-name="Trazado 997665" d="M626.352,180.612h-24.4v-24.4h24.4Zm-23.312-1.09h22.222V157.3H603.04Z" transform="translate(-549.73 -142.658)" fill="#fff"/>
            <path id="Trazado_997666" data-name="Trazado 997666" d="M676.367,252.86h0l.465.3a2.83,2.83,0,0,1,.722-.6,4.127,4.127,0,0,0-.44-.727,2.815,2.815,0,0,1-1.053.25v.363a.6.6,0,0,1,.307.413m-.2,1.935a2.785,2.785,0,0,1,.377-1.224l-.307-.2a.6.6,0,0,1-.877.041l-.324.187a2.783,2.783,0,0,1,.359,1.17c.006.072.009.145.009.219a2.808,2.808,0,0,1-4.993,1.763,4.156,4.156,0,0,0,6.589.237,2.8,2.8,0,0,1-.838-2c0-.065,0-.13.006-.193m-4.092-2.567a2.843,2.843,0,0,1,.52-.048,2.8,2.8,0,0,1,2.153,1.007l.429-.248a.6.6,0,0,1,.385-.523v-.357a2.8,2.8,0,0,1-1.008-.347l-.008,0a2.8,2.8,0,0,1-1.242-1.5,4.161,4.161,0,0,0-3.378,5.654,2.81,2.81,0,0,1,2.149-3.633" transform="translate(-611.542 -228.501)" fill="#fff"/>
            <path id="Trazado_997667" data-name="Trazado 997667" d="M727.92,254.879a4.16,4.16,0,0,0-3.342-4.078,2.833,2.833,0,0,1-.2.418,2.806,2.806,0,0,1-2.325,1.407v.363a.6.6,0,0,1,.307.413h0l.465.3a2.828,2.828,0,0,1,.722-.6,2.809,2.809,0,0,1,4.081,3.3,4.147,4.147,0,0,0,.289-1.525m-2.958,3.459a2.808,2.808,0,0,1-2.808-2.808c0-.065,0-.13.006-.193a2.783,2.783,0,0,1,.377-1.224l-.307-.2a.6.6,0,0,1-.878.041l-.324.187a2.782,2.782,0,0,1,.359,1.17c.006.072.009.145.009.219a2.8,2.8,0,0,1-.838,2,4.159,4.159,0,0,0,6.589-.237,2.8,2.8,0,0,1-2.185,1.044m-4.22-4.609.429-.248a.6.6,0,0,1,.385-.523V252.6a2.8,2.8,0,0,1-1.008-.347l-.008,0a4.16,4.16,0,0,0-.54.853,2.817,2.817,0,0,1,.742.626" transform="translate(-657.538 -229.043)" fill="#fff"/>
            <path id="Trazado_997668" data-name="Trazado 997668" d="M700.342,208.063a4.14,4.14,0,0,0-1.466-.509,2.808,2.808,0,0,1-.463,5.555v.363a.6.6,0,0,1,.307.413h0l.465.3a2.83,2.83,0,0,1,.722-.6,2.814,2.814,0,0,1,2.183-.273,4.157,4.157,0,0,0-1.748-5.25m-2.213,6.544a.6.6,0,0,1-.419-.17l-.324.187a2.78,2.78,0,0,1,.359,1.17,4.114,4.114,0,0,0,.773.026,2.784,2.784,0,0,1,.377-1.224l-.307-.2a.6.6,0,0,1-.458.211m-.216-1.166v-.357a2.8,2.8,0,0,1-1.008-.347l-.008,0a2.808,2.808,0,0,1,.967-5.2,4.157,4.157,0,0,0-3.438,5.723,2.843,2.843,0,0,1,.52-.048,2.8,2.8,0,0,1,2.153,1.007l.429-.248a.6.6,0,0,1,.385-.523" transform="translate(-633.896 -189.526)" fill="#fff"/>
            <path id="Trazado_997669" data-name="Trazado 997669" d="M722.129,244.39a2.511,2.511,0,0,1-.784.708,2.3,2.3,0,0,0-2.634-.07,2.509,2.509,0,0,1-.746-.749,3.344,3.344,0,0,1,4.165.11" transform="translate(-655.679 -222.473)" fill="#fff"/>
            <path id="Trazado_997670" data-name="Trazado 997670" d="M751.913,280.094a2.511,2.511,0,0,1-.2-1.038,2.3,2.3,0,0,0,1.428-2.214,2.507,2.507,0,0,1,1.027-.249,3.344,3.344,0,0,1-2.258,3.5" transform="translate(-686.502 -252.598)" fill="#fff"/>
            <path id="Trazado_997671" data-name="Trazado 997671" d="M703.8,276a2.511,2.511,0,0,1,1.014.3,2.3,2.3,0,0,0,1.322,2.279,2.506,2.506,0,0,1-.246,1.028A3.344,3.344,0,0,1,703.8,276" transform="translate(-642.707 -252.058)" fill="#fff"/>
          </g>
        </g>
      </g>
    </g>
  </g>
</svg>
