<svg xmlns="http://www.w3.org/2000/svg" xmlns:xlink="http://www.w3.org/1999/xlink" width="261.059" height="156" viewBox="0 0 261.059 156">
  <defs>
    <clipPath id="clip-path">
      <rect id="Rectángulo_455616" data-name="Rectángulo 455616" width="15.039" height="0.511" fill="none"/>
    </clipPath>
    <clipPath id="clip-path-3">
      <rect id="Rectángulo_455618" data-name="Rectángulo 455618" width="36.052" height="0.511" fill="none"/>
    </clipPath>
    <clipPath id="clip-path-4">
      <rect id="Rectángulo_455619" data-name="Rectángulo 455619" width="5.33" height="0.511" fill="none"/>
    </clipPath>
    <clipPath id="clip-path-5">
      <rect id="Rectángulo_455620" data-name="Rectángulo 455620" width="9.861" height="0.511" fill="#6cac25"/>
    </clipPath>
    <clipPath id="clip-path-6">
      <rect id="Rectángulo_455621" data-name="Rectángulo 455621" width="9.861" height="0.511" fill="none"/>
    </clipPath>
    <clipPath id="clip-path-7">
      <rect id="Rectángulo_455623" data-name="Rectángulo 455623" width="38.65" height="52.856" fill="none"/>
    </clipPath>
    <clipPath id="clip-path-8">
      <rect id="Rectángulo_455625" data-name="Rectángulo 455625" width="38.65" height="0.536" fill="none"/>
    </clipPath>
    <clipPath id="clip-path-10">
      <rect id="Rectángulo_455631" data-name="Rectángulo 455631" width="1.776" height="49.748" fill="none"/>
    </clipPath>
    <clipPath id="clip-path-11">
      <rect id="Rectángulo_455628" data-name="Rectángulo 455628" width="1.776" height="13.527" fill="none"/>
    </clipPath>
    <clipPath id="clip-path-13">
      <rect id="Rectángulo_455630" data-name="Rectángulo 455630" width="1.776" height="13.528" fill="none"/>
    </clipPath>
    <clipPath id="clip-path-14">
      <rect id="Rectángulo_455633" data-name="Rectángulo 455633" width="50.62" height="37.014" fill="none"/>
    </clipPath>
    <clipPath id="clip-path-15">
      <rect id="Rectángulo_455635" data-name="Rectángulo 455635" width="0.513" height="37.014" fill="none"/>
    </clipPath>
    <clipPath id="clip-path-17">
      <rect id="Rectángulo_455641" data-name="Rectángulo 455641" width="47.643" height="1.701" fill="none"/>
    </clipPath>
    <clipPath id="clip-path-18">
      <rect id="Rectángulo_455638" data-name="Rectángulo 455638" width="12.955" height="1.701" fill="none"/>
    </clipPath>
    <clipPath id="clip-path-22">
      <rect id="Rectángulo_455645" data-name="Rectángulo 455645" width="38.65" height="0.535" fill="none"/>
    </clipPath>
    <clipPath id="clip-path-28">
      <rect id="Rectángulo_455652" data-name="Rectángulo 455652" width="0.489" height="7.171" fill="none"/>
    </clipPath>
    <clipPath id="clip-path-29">
      <rect id="Rectángulo_455653" data-name="Rectángulo 455653" width="0.489" height="3.157" fill="none"/>
    </clipPath>
    <clipPath id="clip-path-30">
      <rect id="Rectángulo_455654" data-name="Rectángulo 455654" width="0.489" height="4.137" fill="#6cac25"/>
    </clipPath>
    <clipPath id="clip-path-31">
      <rect id="Rectángulo_455655" data-name="Rectángulo 455655" width="0.489" height="3.218" fill="none"/>
    </clipPath>
    <clipPath id="clip-path-32">
      <rect id="Rectángulo_455656" data-name="Rectángulo 455656" width="0.489" height="1.316" fill="#6cac25"/>
    </clipPath>
  </defs>
  <g id="Grupo_1177286" data-name="Grupo 1177286" transform="translate(-1018 -5183)">
    <rect id="Rectángulo_454804" data-name="Rectángulo 454804" width="261" height="145" rx="25" transform="translate(1018.059 5183)" fill="#cdbfdc"/>
    <g id="Grupo_1177285" data-name="Grupo 1177285" transform="translate(1018 5262.053)" opacity="0.37">
      <g id="Grupo_1177267" data-name="Grupo 1177267" transform="translate(51.756 0)">
        <path id="Polígono_14" data-name="Polígono 14" d="M24.733,0l8.244,15.115L24.733,30.229H8.244L0,15.115,8.244,0Z" transform="translate(0 46.718)" fill="#2c2e8c" opacity="0.36"/>
        <path id="Polígono_15" data-name="Polígono 15" d="M24.733,0l8.244,15.115L24.733,30.229H8.244L0,15.115,8.244,0Z" transform="translate(0 15.573)" fill="#2c2e8c" opacity="0.36"/>
        <g id="Grupo_1177266" data-name="Grupo 1177266" transform="translate(26.107)" opacity="0.36">
          <path id="Polígono_16" data-name="Polígono 16" d="M24.733,0l8.244,15.115L24.733,30.229H8.244L0,15.115,8.244,0Z" transform="translate(0 31.145)" fill="#2c2e8c" opacity="0.56"/>
          <path id="Polígono_17" data-name="Polígono 17" d="M24.733,0l8.244,15.115L24.733,30.229H8.244L0,15.115,8.244,0Z" transform="translate(0)" fill="#2c2e8c" opacity="0.56"/>
        </g>
      </g>
      <g id="Grupo_1177268" data-name="Grupo 1177268" transform="translate(0 0)">
        <path id="Polígono_14-2" data-name="Polígono 14" d="M24.733,0l8.244,15.115L24.733,30.229H8.244L0,15.115,8.244,0Z" transform="translate(0 46.718)" fill="#2c2e8c" opacity="0.36"/>
        <path id="Polígono_15-2" data-name="Polígono 15" d="M24.733,0l8.244,15.115L24.733,30.229H8.244L0,15.115,8.244,0Z" transform="translate(0 15.573)" fill="#2c2e8c" opacity="0.36"/>
        <g id="Grupo_1177266-2" data-name="Grupo 1177266" transform="translate(26.107)" opacity="0.36">
          <path id="Polígono_16-2" data-name="Polígono 16" d="M24.733,0l8.244,15.115L24.733,30.229H8.244L0,15.115,8.244,0Z" transform="translate(0 31.145)" fill="#2c2e8c" opacity="0.56"/>
          <path id="Polígono_17-2" data-name="Polígono 17" d="M24.733,0l8.244,15.115L24.733,30.229H8.244L0,15.115,8.244,0Z" transform="translate(0)" fill="#2c2e8c" opacity="0.56"/>
        </g>
      </g>
    </g>
    <g id="Grupo_1179137" data-name="Grupo 1179137" transform="translate(28.059 14750)">
      <path id="Trazado_997330" data-name="Trazado 997330" d="M857.855,1580.576H793.974a1.306,1.306,0,0,1,0-2.612h63.881a1.306,1.306,0,0,1,0,2.612" transform="translate(295.817 -11045.519)" fill="#6cac25"/>
      <path id="Trazado_997331" data-name="Trazado 997331" d="M732.869,1655.014H673.223a1.306,1.306,0,1,1,0-2.611h59.646a1.306,1.306,0,1,1,0,2.611" transform="translate(408.652 -11115.077)" fill="#6cac25"/>
      <path id="Trazado_997332" data-name="Trazado 997332" d="M524.225,1616.03H460.048a1.306,1.306,0,0,1,0-2.612h64.177a1.306,1.306,0,1,1,0,2.612" transform="translate(607.85 -11078.647)" fill="#00ffda"/>
      <g id="Grupo_1179138" data-name="Grupo 1179138" transform="translate(1138.987 -9467.096)">
        <g id="Grupo_1179137-2" data-name="Grupo 1179137" clip-path="url(#clip-path)">
          <path id="Trazado_997333" data-name="Trazado 997333" d="M1577.735,1585.463h-14.528a.255.255,0,1,1,0-.511h14.528a.255.255,0,1,1,0,.511" transform="translate(-1562.952 -1584.952)" fill="#8fffec"/>
        </g>
      </g>
      <path id="Trazado_997334" data-name="Trazado 997334" d="M1225.38,1544.625H1161.5a1.306,1.306,0,1,1,0-2.612h63.881a1.306,1.306,0,0,1,0,2.612" transform="translate(-47.612 -11011.924)" fill="#6cac25"/>
      <g id="Grupo_1179141" data-name="Grupo 1179141" transform="translate(1163.083 -9469.453)">
        <g id="Grupo_1179140" data-name="Grupo 1179140" clip-path="url(#clip-path)">
          <path id="Trazado_997335" data-name="Trazado 997335" d="M1945.26,1549.511h-14.528a.255.255,0,1,1,0-.511h14.528a.255.255,0,1,1,0,.511" transform="translate(-1930.477 -1549)" fill="#8fffec"/>
        </g>
      </g>
      <g id="Grupo_1179144" data-name="Grupo 1179144" transform="translate(1096.529 -9462.125)">
        <g id="Grupo_1179143" data-name="Grupo 1179143" clip-path="url(#clip-path-3)">
          <path id="Trazado_997336" data-name="Trazado 997336" d="M951.154,1661.287H915.613a.255.255,0,0,1,0-.511h35.541a.255.255,0,1,1,0,.511" transform="translate(-915.357 -1660.776)" fill="#8fffec"/>
        </g>
      </g>
      <g id="Grupo_1179147" data-name="Grupo 1179147" transform="translate(1135.75 -9462.125)">
        <g id="Grupo_1179146" data-name="Grupo 1179146" clip-path="url(#clip-path-4)">
          <path id="Trazado_997337" data-name="Trazado 997337" d="M1518.659,1661.287h-4.819a.255.255,0,1,1,0-.511h4.819a.255.255,0,1,1,0,.511" transform="translate(-1513.585 -1660.776)" fill="#8fffec"/>
        </g>
      </g>
      <g id="Grupo_1179150" data-name="Grupo 1179150" transform="translate(1069.558 -9464.379)">
        <g id="Grupo_1179149" data-name="Grupo 1179149" clip-path="url(#clip-path-5)">
          <path id="Trazado_997338" data-name="Trazado 997338" d="M513.581,1626.9h-9.35a.255.255,0,1,1,0-.511h9.35a.255.255,0,1,1,0,.511" transform="translate(-503.976 -1626.388)" fill="#6cac25"/>
        </g>
      </g>
      <path id="Trazado_997339" data-name="Trazado 997339" d="M330.1,1584.457H265.926a1.306,1.306,0,1,1,0-2.611H330.1a1.306,1.306,0,1,1,0,2.611" transform="translate(789.245 -11049.145)" fill="#6cac25"/>
      <g id="Grupo_1179153" data-name="Grupo 1179153" transform="translate(1056.831 -9466.449)">
        <g id="Grupo_1179152" data-name="Grupo 1179152" clip-path="url(#clip-path-6)">
          <path id="Trazado_997340" data-name="Trazado 997340" d="M319.46,1595.325h-9.35a.255.255,0,1,1,0-.511h9.35a.255.255,0,1,1,0,.511" transform="translate(-309.854 -1594.814)" fill="#8fffec"/>
        </g>
      </g>
      <rect id="Rectángulo_455622" data-name="Rectángulo 455622" width="38.65" height="52.856" transform="translate(1066.483 -9523.725)" fill="#272e49"/>
      <g id="Grupo_1179156" data-name="Grupo 1179156" transform="translate(1066.483 -9523.725)">
        <g id="Grupo_1179155" data-name="Grupo 1179155" clip-path="url(#clip-path-7)">
          <path id="Trazado_997341" data-name="Trazado 997341" d="M457.075,721.206v52.856h36.76c-.039-.6-15.121-.561-23.9-1.423-4.285-.421-6.686-5.489-5.371-9.588.933-2.907,2.4-5.468,4.666-5.424,4.035.078,3.963-.023,4.623-.265-1.274-.645-6.738-1.645-9.01-3.721-3.525-3.221-2.249-9.125.783-12.378a9.663,9.663,0,0,1,4.655-2.749c-4.1-.744-7.05-2.831-7.893-5.5-.781-2.475.229-5.521,2.089-7.521,3.2-3.447,7.718-2.49,23.921-3.134,3.351-.133,5.786-.233,7.321-.371v-.778Z" transform="translate(-457.075 -721.206)" fill="#272e49"/>
        </g>
      </g>
      <path id="Trazado_997342" data-name="Trazado 997342" d="M475.766,973.29h-39.3a1.1,1.1,0,1,1,0-2.194h39.3a1.1,1.1,0,0,1,0,2.194" transform="translate(629.694 -10478.438)" fill="#384260"/>
      <path id="Trazado_997343" data-name="Trazado 997343" d="M475.766,1254.107h-39.3a1.1,1.1,0,1,1,0-2.194h39.3a1.1,1.1,0,1,1,0,2.194" transform="translate(629.694 -10740.844)" fill="#384260"/>
      <g id="Grupo_1179159" data-name="Grupo 1179159" transform="translate(1066.483 -9505.148)">
        <g id="Grupo_1179158" data-name="Grupo 1179158" clip-path="url(#clip-path-8)">
          <rect id="Rectángulo_455624" data-name="Rectángulo 455624" width="38.65" height="0.535" transform="translate(0 0)" fill="#272e49"/>
        </g>
      </g>
      <g id="Grupo_1179162" data-name="Grupo 1179162" transform="translate(1066.483 -9486.737)">
        <g id="Grupo_1179161" data-name="Grupo 1179161" clip-path="url(#clip-path-8)">
          <rect id="Rectángulo_455626" data-name="Rectángulo 455626" width="38.65" height="0.535" transform="translate(0 0)" fill="#272e49"/>
        </g>
      </g>
      <path id="Trazado_997344" data-name="Trazado 997344" d="M467.783,664.63h-38.6a1.985,1.985,0,0,1,0-3.969h38.6a1.985,1.985,0,1,1,0,3.969" transform="translate(637.324 -10188.355)" fill="#384260"/>
      <path id="Trazado_997345" data-name="Trazado 997345" d="M467.783,1531.381h-38.6a1.985,1.985,0,0,1-1.985-1.985h0a1.985,1.985,0,0,1,1.985-1.985h38.6a1.985,1.985,0,0,1,1.985,1.985h0a1.985,1.985,0,0,1-1.985,1.985" transform="translate(637.324 -10998.279)" fill="#384260"/>
      <g id="Grupo_1179174" data-name="Grupo 1179174" transform="translate(1101.154 -9521.74)">
        <g id="Grupo_1179173" data-name="Grupo 1179173" clip-path="url(#clip-path-10)">
          <g id="Grupo_1179166" data-name="Grupo 1179166" opacity="0.6" style="mix-blend-mode: screen;isolation: isolate">
            <g id="Grupo_1179165" data-name="Grupo 1179165">
              <g id="Grupo_1179164" data-name="Grupo 1179164" clip-path="url(#clip-path-11)">
                <path id="Trazado_997346" data-name="Trazado 997346" d="M986.865,765.006h-.143a.817.817,0,0,1-.817-.816V752.3a.817.817,0,0,1,.817-.816h.143a.816.816,0,0,1,.816.816V764.19a.816.816,0,0,1-.816.816" transform="translate(-985.906 -751.479)" fill="#272e49"/>
              </g>
            </g>
          </g>
          <g id="Grupo_1179169" data-name="Grupo 1179169" transform="translate(0 18.045)" opacity="0.6" style="mix-blend-mode: screen;isolation: isolate">
            <g id="Grupo_1179168" data-name="Grupo 1179168">
              <g id="Grupo_1179167" data-name="Grupo 1179167" clip-path="url(#clip-path-11)">
                <path id="Trazado_997347" data-name="Trazado 997347" d="M986.794,1040.237h0a.888.888,0,0,1-.888-.888V1027.6a.888.888,0,1,1,1.776,0v11.752a.888.888,0,0,1-.888.888" transform="translate(-985.906 -1026.71)" fill="#272e49"/>
              </g>
            </g>
          </g>
          <g id="Grupo_1179172" data-name="Grupo 1179172" transform="translate(0 36.22)" opacity="0.6" style="mix-blend-mode: screen;isolation: isolate">
            <g id="Grupo_1179171" data-name="Grupo 1179171">
              <g id="Grupo_1179170" data-name="Grupo 1179170" clip-path="url(#clip-path-13)">
                <path id="Trazado_997348" data-name="Trazado 997348" d="M986.794,1317.47h0a.888.888,0,0,1-.888-.888V1304.83a.888.888,0,0,1,1.776,0v11.752a.888.888,0,0,1-.888.888" transform="translate(-985.906 -1303.942)" fill="#272e49"/>
              </g>
            </g>
          </g>
        </g>
      </g>
      <path id="Trazado_997349" data-name="Trazado 997349" d="M660.137,1031.261a6.919,6.919,0,1,1-6.919-6.919,6.919,6.919,0,0,1,6.919,6.919" transform="translate(432.59 -10528.192)" fill="#ffcd00"/>
      <path id="Trazado_997350" data-name="Trazado 997350" d="M700.174,1050.3a5.4,5.4,0,0,0,.269.476l.055-.02a2.712,2.712,0,0,0-.1-.91,3.923,3.923,0,0,1,.313,1.689,1.9,1.9,0,0,0,0,.547c.041.378.309.541.64.646a2.176,2.176,0,0,1,.478.217.827.827,0,0,1,.439,1.012c-.07.246.079.368.468.4,0-.133-.012-.264,0-.393,0-.048.057-.093.088-.139a.409.409,0,0,1,.072.13c.017.139.021.28.03.428l.426.038a3.787,3.787,0,0,1,0-.387.471.471,0,0,1,.084-.175.466.466,0,0,1,.089.173,3.811,3.811,0,0,1,.009.387l.425-.049c.006-.149.006-.289.019-.429a.411.411,0,0,1,.069-.132c.032.045.086.088.091.136.014.129.008.26.009.393.388-.046.534-.172.458-.416a.826.826,0,0,1,.413-1.023,2.171,2.171,0,0,1,.472-.229c.328-.113.592-.283.624-.662a1.9,1.9,0,0,0-.018-.547,3.918,3.918,0,0,1,.271-1.7,2.714,2.714,0,0,0-.075.912l.055.019a5.428,5.428,0,0,0,.257-.482,2.461,2.461,0,0,0-.021-1.959,2.263,2.263,0,0,0-1.293-1.307,5.235,5.235,0,0,0-3.879.048,2.263,2.263,0,0,0-1.26,1.339,2.462,2.462,0,0,0,.028,1.959m3.764.821a.622.622,0,0,1,.087-.7,1.085,1.085,0,0,1,.3-.132c.357.043.653.066.945.116a.537.537,0,0,1,.433.76,2.461,2.461,0,0,1-.371.674.557.557,0,0,1-.874,0,4.827,4.827,0,0,1-.522-.717m-.732.658a.294.294,0,0,1,.4,0,1.314,1.314,0,0,1,.443,1.334c-.063.2-.191.233-.353.1a.787.787,0,0,1-.11-.1.175.175,0,0,0-.325,0,.781.781,0,0,1-.108.1c-.159.134-.288.1-.356-.094a1.314,1.314,0,0,1,.41-1.345m-1.7-1.333c.291-.057.587-.088.942-.139a1.088,1.088,0,0,1,.3.125.622.622,0,0,1,.1.7,4.837,4.837,0,0,1-.5.73.558.558,0,0,1-.874.017,2.462,2.462,0,0,1-.388-.665.537.537,0,0,1,.414-.77" transform="translate(382.451 -10548.996)" fill="#272e49"/>
      <path id="Trazado_997351" data-name="Trazado 997351" d="M699.363,1156.59a.529.529,0,0,1-.065-.115.39.39,0,1,1,.713-.291.5.5,0,0,1,.019.33l5.293,1.35a.5.5,0,0,1,.175-.281.39.39,0,1,1,.487.6.1.1,0,0,0-.047.185.39.39,0,1,1-.713.291.514.514,0,0,1-.039-.209l-5.314-1.356a.514.514,0,0,1-.134.165.39.39,0,1,1-.487-.6.531.531,0,0,1,.112-.07" transform="translate(383.282 -10651.111)" fill="#272e49"/>
      <path id="Trazado_997352" data-name="Trazado 997352" d="M706,1155.451a.532.532,0,0,0,.062-.117.39.39,0,1,0-.72-.273.5.5,0,0,0-.011.331l-5.258,1.481a.5.5,0,0,0-.182-.276.39.39,0,1,0-.472.609.52.52,0,0,0,.114.067.532.532,0,0,0-.062.117.39.39,0,1,0,.72.273.516.516,0,0,0,.033-.21l5.279-1.487a.516.516,0,0,0,.138.162.39.39,0,1,0,.472-.609.525.525,0,0,0-.114-.067" transform="translate(383.128 -10650.053)" fill="#272e49"/>
      <path id="Trazado_997353" data-name="Trazado 997353" d="M646.612,668.115h0a1.589,1.589,0,0,1-1.589-1.589v-5.865H648.2v5.865a1.589,1.589,0,0,1-1.589,1.589" transform="translate(433.782 -10188.355)" fill="#6cac25"/>
      <rect id="Rectángulo_455632" data-name="Rectángulo 455632" width="50.62" height="37.014" transform="translate(1115.718 -9506.982)" fill="#272e49"/>
      <g id="Grupo_1179177" data-name="Grupo 1179177" transform="translate(1115.717 -9506.982)">
        <g id="Grupo_1179176" data-name="Grupo 1179176" clip-path="url(#clip-path-14)">
          <path id="Trazado_997354" data-name="Trazado 997354" d="M1258.655,976.57h-50.62v35.2c.575-.037.538-14.481,1.363-22.884.4-4.1,5.257-6.4,9.183-5.144,2.784.893,5.236,2.3,5.194,4.468-.075,3.864.022,3.8.254,4.427.618-1.22,1.576-6.453,3.564-8.628,3.085-3.376,8.739-2.154,11.855.75a9.255,9.255,0,0,1,2.632,4.458c.713-3.922,2.712-6.752,5.271-7.559a7.758,7.758,0,0,1,7.2,2c3.3,3.069,2.385,7.392,3,22.909.127,3.209.223,5.541.355,7.012h.745Z" transform="translate(-1208.035 -976.57)" fill="#272e49"/>
        </g>
      </g>
      <path id="Trazado_997355" data-name="Trazado 997355" d="M1708.763,994.47V956.83a1.05,1.05,0,1,1,2.1,0v37.64a1.05,1.05,0,1,1-2.1,0" transform="translate(-560.216 -10464.126)" fill="#384260"/>
      <path id="Trazado_997356" data-name="Trazado 997356" d="M1439.83,994.47V956.83a1.05,1.05,0,1,1,2.1,0v37.64a1.05,1.05,0,1,1-2.1,0" transform="translate(-308.916 -10464.126)" fill="#384260"/>
      <g id="Grupo_1179180" data-name="Grupo 1179180" transform="translate(1148.034 -9506.982)">
        <g id="Grupo_1179179" data-name="Grupo 1179179" clip-path="url(#clip-path-15)">
          <rect id="Rectángulo_455634" data-name="Rectángulo 455634" width="0.513" height="37.014" transform="translate(0)" fill="#272e49"/>
        </g>
      </g>
      <g id="Grupo_1179183" data-name="Grupo 1179183" transform="translate(1130.402 -9506.982)">
        <g id="Grupo_1179182" data-name="Grupo 1179182" clip-path="url(#clip-path-15)">
          <rect id="Rectángulo_455636" data-name="Rectángulo 455636" width="0.513" height="37.014" fill="#272e49"/>
        </g>
      </g>
      <path id="Trazado_997357" data-name="Trazado 997357" d="M1980.12,986.825V949.861a1.9,1.9,0,0,1,3.8,0v36.964a1.9,1.9,0,0,1-3.8,0" transform="translate(-813.783 -10456.818)" fill="#384260"/>
      <path id="Trazado_997358" data-name="Trazado 997358" d="M1150.052,986.979v-37.27a1.748,1.748,0,0,1,1.748-1.748h.306a1.748,1.748,0,0,1,1.748,1.748v37.27a1.748,1.748,0,0,1-1.748,1.748h-.306a1.748,1.748,0,0,1-1.748-1.748" transform="translate(-38.136 -10456.819)" fill="#384260"/>
      <path id="Trazado_997359" data-name="Trazado 997359" d="M1492.611,1167.814a6.87,6.87,0,1,1,6.87-6.87,6.87,6.87,0,0,1-6.87,6.87" transform="translate(-351.816 -10649.42)" fill="#ffcd00"/>
      <path id="Trazado_997360" data-name="Trazado 997360" d="M1589.472,1184.793l3.416-1.972a5.151,5.151,0,0,0-4.45-2.569v3.942a1.194,1.194,0,0,1,1.034.6" transform="translate(-447.78 -10673.881)" fill="#272727"/>
      <path id="Trazado_997361" data-name="Trazado 997361" d="M1588.438,1268.41v3.978a5.152,5.152,0,0,0,4.459-2.584l-3.432-1.981a1.194,1.194,0,0,1-1.027.587" transform="translate(-447.78 -10755.711)" fill="#272727"/>
      <path id="Trazado_997362" data-name="Trazado 997362" d="M1513.666,1222a1.183,1.183,0,0,1,.155-.587l-3.429-1.98a5.16,5.16,0,0,0-.009,5.154l3.445-1.989a1.187,1.187,0,0,1-.161-.6" transform="translate(-374.202 -10710.489)" fill="#272727"/>
      <path id="Trazado_997363" data-name="Trazado 997363" d="M1575.751,1246.724a.832.832,0,1,1,.832.832.833.833,0,0,1-.832-.832" transform="translate(-435.925 -10735.218)" fill="#272727"/>
      <g id="Grupo_1179195" data-name="Grupo 1179195" transform="translate(1116.794 -9473.779)">
        <g id="Grupo_1179194" data-name="Grupo 1179194" clip-path="url(#clip-path-17)">
          <g id="Grupo_1179187" data-name="Grupo 1179187" transform="translate(34.688)" opacity="0.6" style="mix-blend-mode: screen;isolation: isolate">
            <g id="Grupo_1179186" data-name="Grupo 1179186">
              <g id="Grupo_1179185" data-name="Grupo 1179185" clip-path="url(#clip-path-18)">
                <path id="Trazado_997364" data-name="Trazado 997364" d="M1753.53,1483.871h0a.85.85,0,0,1,.85-.85h11.254a.85.85,0,1,1,0,1.7H1754.38a.85.85,0,0,1-.85-.85" transform="translate(-1753.53 -1483.021)" fill="#272e49"/>
              </g>
            </g>
          </g>
          <g id="Grupo_1179190" data-name="Grupo 1179190" transform="translate(17.407)" opacity="0.6" style="mix-blend-mode: screen;isolation: isolate">
            <g id="Grupo_1179189" data-name="Grupo 1179189">
              <g id="Grupo_1179188" data-name="Grupo 1179188" clip-path="url(#clip-path-18)">
                <path id="Trazado_997365" data-name="Trazado 997365" d="M1489.947,1483.871h0a.85.85,0,0,1,.85-.85h11.254a.85.85,0,1,1,0,1.7H1490.8a.85.85,0,0,1-.85-.85" transform="translate(-1489.947 -1483.021)" fill="#272e49"/>
              </g>
            </g>
          </g>
          <g id="Grupo_1179193" data-name="Grupo 1179193" opacity="0.6" style="mix-blend-mode: screen;isolation: isolate">
            <g id="Grupo_1179192" data-name="Grupo 1179192">
              <g id="Grupo_1179191" data-name="Grupo 1179191" clip-path="url(#clip-path-18)">
                <path id="Trazado_997366" data-name="Trazado 997366" d="M1224.447,1483.871h0a.85.85,0,0,1,.85-.85h11.254a.85.85,0,1,1,0,1.7H1225.3a.85.85,0,0,1-.85-.85" transform="translate(-1224.447 -1483.021)" fill="#272e49"/>
              </g>
            </g>
          </g>
        </g>
      </g>
      <rect id="Rectángulo_455642" data-name="Rectángulo 455642" width="38.65" height="52.856" transform="translate(1091.11 -9521.769)" fill="#272e49"/>
      <g id="Grupo_1179198" data-name="Grupo 1179198" transform="translate(1091.11 -9521.769)">
        <g id="Grupo_1179197" data-name="Grupo 1179197" clip-path="url(#clip-path-7)">
          <path id="Trazado_997367" data-name="Trazado 997367" d="M832.709,751.047V803.9h36.76c-.039-.6-15.121-.561-23.9-1.423-4.285-.421-6.686-5.489-5.371-9.589.932-2.907,2.4-5.468,4.666-5.424,4.035.078,3.963-.023,4.623-.265-1.274-.645-6.738-1.645-9.01-3.721-3.525-3.221-2.249-9.125.784-12.378a9.664,9.664,0,0,1,4.655-2.749c-4.1-.744-7.05-2.831-7.893-5.5-.781-2.475.229-5.52,2.089-7.521,3.2-3.447,7.718-2.49,23.921-3.134,3.351-.133,5.786-.233,7.321-.371v-.778Z" transform="translate(-832.709 -751.047)" fill="#272e49"/>
        </g>
      </g>
      <path id="Trazado_997368" data-name="Trazado 997368" d="M851.4,1003.131H812.1a1.1,1.1,0,1,1,0-2.194h39.3a1.1,1.1,0,1,1,0,2.194" transform="translate(278.687 -10506.322)" fill="#384260"/>
      <path id="Trazado_997369" data-name="Trazado 997369" d="M851.4,1283.948H812.1a1.1,1.1,0,1,1,0-2.194h39.3a1.1,1.1,0,1,1,0,2.194" transform="translate(278.687 -10768.729)" fill="#384260"/>
      <g id="Grupo_1179201" data-name="Grupo 1179201" transform="translate(1091.11 -9503.191)">
        <g id="Grupo_1179200" data-name="Grupo 1179200" clip-path="url(#clip-path-22)">
          <rect id="Rectángulo_455644" data-name="Rectángulo 455644" width="38.65" height="0.535" transform="translate(0 0)" fill="#272e49"/>
        </g>
      </g>
      <g id="Grupo_1179204" data-name="Grupo 1179204" transform="translate(1091.11 -9484.781)">
        <g id="Grupo_1179203" data-name="Grupo 1179203" clip-path="url(#clip-path-8)">
          <rect id="Rectángulo_455646" data-name="Rectángulo 455646" width="38.65" height="0.535" transform="translate(0 0)" fill="#272e49"/>
        </g>
      </g>
      <path id="Trazado_997370" data-name="Trazado 997370" d="M843.417,694.471h-38.6a1.985,1.985,0,0,1,0-3.969h38.6a1.985,1.985,0,0,1,0,3.969" transform="translate(286.317 -10216.24)" fill="#384260"/>
      <path id="Trazado_997371" data-name="Trazado 997371" d="M843.417,1561.222h-38.6a1.985,1.985,0,0,1,0-3.969h38.6a1.985,1.985,0,0,1,0,3.969" transform="translate(286.317 -11026.164)" fill="#384260"/>
      <g id="Grupo_1179216" data-name="Grupo 1179216" transform="translate(1125.782 -9519.784)">
        <g id="Grupo_1179215" data-name="Grupo 1179215" clip-path="url(#clip-path-10)">
          <g id="Grupo_1179208" data-name="Grupo 1179208" opacity="0.6" style="mix-blend-mode: screen;isolation: isolate">
            <g id="Grupo_1179207" data-name="Grupo 1179207">
              <g id="Grupo_1179206" data-name="Grupo 1179206" clip-path="url(#clip-path-11)">
                <path id="Trazado_997372" data-name="Trazado 997372" d="M1362.5,794.848h-.143a.816.816,0,0,1-.817-.817V782.137a.816.816,0,0,1,.817-.817h.143a.816.816,0,0,1,.816.817v11.894a.817.817,0,0,1-.816.817" transform="translate(-1361.54 -781.32)" fill="#272e49"/>
              </g>
            </g>
          </g>
          <g id="Grupo_1179211" data-name="Grupo 1179211" transform="translate(0 18.045)" opacity="0.6" style="mix-blend-mode: screen;isolation: isolate">
            <g id="Grupo_1179210" data-name="Grupo 1179210">
              <g id="Grupo_1179209" data-name="Grupo 1179209" clip-path="url(#clip-path-11)">
                <path id="Trazado_997373" data-name="Trazado 997373" d="M1362.428,1070.078h0a.888.888,0,0,1-.888-.888v-11.752a.888.888,0,1,1,1.776,0v11.752a.888.888,0,0,1-.888.888" transform="translate(-1361.54 -1056.551)" fill="#272e49"/>
              </g>
            </g>
          </g>
          <g id="Grupo_1179214" data-name="Grupo 1179214" transform="translate(0 36.22)" opacity="0.6" style="mix-blend-mode: screen;isolation: isolate">
            <g id="Grupo_1179213" data-name="Grupo 1179213">
              <g id="Grupo_1179212" data-name="Grupo 1179212" clip-path="url(#clip-path-13)">
                <path id="Trazado_997374" data-name="Trazado 997374" d="M1362.428,1347.311h0a.888.888,0,0,1-.888-.888v-11.752a.888.888,0,0,1,1.776,0v11.752a.888.888,0,0,1-.888.888" transform="translate(-1361.54 -1333.783)" fill="#272e49"/>
              </g>
            </g>
          </g>
        </g>
      </g>
      <path id="Trazado_997375" data-name="Trazado 997375" d="M903.9,711.952h0a1.589,1.589,0,0,1-1.589-1.589V690.5h3.178v19.861a1.589,1.589,0,0,1-1.589,1.589" transform="translate(193.367 -10216.24)" fill="#6cac25"/>
      <path id="Trazado_997376" data-name="Trazado 997376" d="M1289.775,699.668h0a1.589,1.589,0,0,1-1.589-1.589V690.5h3.178v7.576a1.589,1.589,0,0,1-1.589,1.589" transform="translate(-167.214 -10216.241)" fill="#00ffda"/>
      <path id="Trazado_997377" data-name="Trazado 997377" d="M952.079,695.222h0a1.3,1.3,0,0,1-1.3-1.3V690.5h2.607v3.416a1.3,1.3,0,0,1-1.3,1.3" transform="translate(148.076 -10216.241)" fill="#00ffda"/>
      <g id="Grupo_1179219" data-name="Grupo 1179219" transform="translate(1097.654 -9524.028)">
        <g id="Grupo_1179218" data-name="Grupo 1179218" clip-path="url(#clip-path-28)">
          <path id="Trazado_997378" data-name="Trazado 997378" d="M932.753,723.756h0a.244.244,0,0,1-.244-.244v-6.682a.244.244,0,1,1,.489,0v6.682a.244.244,0,0,1-.244.244" transform="translate(-932.509 -716.585)" fill="#8fffec"/>
        </g>
      </g>
      <g id="Grupo_1179222" data-name="Grupo 1179222" transform="translate(1100.34 -9524.925)">
        <g id="Grupo_1179221" data-name="Grupo 1179221" clip-path="url(#clip-path-29)">
          <path id="Trazado_997379" data-name="Trazado 997379" d="M973.726,706.056h0a.244.244,0,0,1-.244-.244v-2.668a.244.244,0,1,1,.489,0v2.668a.244.244,0,0,1-.244.244" transform="translate(-973.482 -702.899)" fill="#8fffec"/>
        </g>
      </g>
      <g id="Grupo_1179225" data-name="Grupo 1179225" transform="translate(1122.999 -9525.048)">
        <g id="Grupo_1179224" data-name="Grupo 1179224" clip-path="url(#clip-path-30)">
          <path id="Trazado_997380" data-name="Trazado 997380" d="M1319.344,705.171h0a.245.245,0,0,1-.245-.244v-3.648a.244.244,0,1,1,.489,0v3.648a.244.244,0,0,1-.244.244" transform="translate(-1319.1 -701.034)" fill="#6cac25"/>
        </g>
      </g>
      <g id="Grupo_1179228" data-name="Grupo 1179228" transform="translate(1097.654 -9509.217)">
        <g id="Grupo_1179227" data-name="Grupo 1179227" clip-path="url(#clip-path-31)">
          <path id="Trazado_997381" data-name="Trazado 997381" d="M932.753,945.713h0a.244.244,0,0,1-.244-.244V942.74a.244.244,0,1,1,.489,0v2.729a.244.244,0,0,1-.244.244" transform="translate(-932.509 -942.495)" fill="#8fffec"/>
        </g>
      </g>
      <g id="Grupo_1179231" data-name="Grupo 1179231" transform="translate(1122.999 -9519.784)">
        <g id="Grupo_1179230" data-name="Grupo 1179230" clip-path="url(#clip-path-32)">
          <path id="Trazado_997382" data-name="Trazado 997382" d="M1319.344,782.636h0a.245.245,0,0,1-.245-.244v-.827a.244.244,0,1,1,.489,0v.827a.245.245,0,0,1-.244.244" transform="translate(-1319.1 -781.32)" fill="#6cac25"/>
        </g>
      </g>
      <path id="Trazado_997383" data-name="Trazado 997383" d="M1049.352,1069.756a6.418,6.418,0,1,1-6.418-6.418,6.418,6.418,0,0,1,6.418,6.418" transform="translate(67.957 -10564.632)" fill="#ffcd00" fill-rule="evenodd"/>
      <path id="Trazado_997384" data-name="Trazado 997384" d="M1091.1,1150.5a2.847,2.847,0,0,0,2,3.462,2.425,2.425,0,0,0,.219-.785,2.032,2.032,0,0,1-1.428-2.474,2.429,2.429,0,0,0-.79-.2" transform="translate(17.038 -10646.076)" fill="#272e49" fill-rule="evenodd"/>
      <path id="Trazado_997385" data-name="Trazado 997385" d="M1104.513,1119.463a2.03,2.03,0,0,1,2.858,0,2.429,2.429,0,0,0,.57-.582,2.844,2.844,0,0,0-4,0,2.427,2.427,0,0,0,.569.583" transform="translate(4.949 -10615.768)" fill="#272e49" fill-rule="evenodd"/>
      <path id="Trazado_997386" data-name="Trazado 997386" d="M1142.584,1153.212a2.424,2.424,0,0,0,.218.785,2.848,2.848,0,0,0,2-3.459,2.423,2.423,0,0,0-.79.2,2.031,2.031,0,0,1-1.428,2.471" transform="translate(-31.157 -10646.115)" fill="#272e49" fill-rule="evenodd"/>
      <path id="Trazado_997387" data-name="Trazado 997387" d="M1050.372,1078.642a2.562,2.562,0,0,1,3.447.85l.158-.091a.672.672,0,0,1-.046-.246.68.68,0,0,1,.573-.67v-.182a2.562,2.562,0,0,1-.885-4.922,3.545,3.545,0,0,0-2.552,3.4q0,.169.015.334-.153.07-.3.156a3.545,3.545,0,0,0-1.67,3.911,2.563,2.563,0,0,1,1.261-2.541" transform="translate(56.282 -10574.016)" fill="#272e49" fill-rule="evenodd"/>
      <path id="Trazado_997388" data-name="Trazado 997388" d="M1139.73,1077.275q-.146-.085-.3-.154.016-.167.016-.339a3.544,3.544,0,0,0-2.552-3.4,2.562,2.562,0,0,1-.89,4.923v.182a.68.68,0,0,1,.573.67.67.67,0,0,1-.045.243l.161.093a2.562,2.562,0,0,1,4.7,1.7,3.544,3.544,0,0,0-1.67-3.911" transform="translate(-25.012 -10574.016)" fill="#272e49" fill-rule="evenodd"/>
      <path id="Trazado_997389" data-name="Trazado 997389" d="M1071.867,1171.441a2.562,2.562,0,0,1-.987-3.41l-.161-.093a.676.676,0,0,1-1.053,0l-.159.092a2.562,2.562,0,0,1-3.821,3.227,3.545,3.545,0,0,0,4.222.509q.146-.085.282-.181c.091.065.187.126.286.183a3.545,3.545,0,0,0,4.222-.509,2.562,2.562,0,0,1-2.831.178" transform="translate(40.698 -10662.374)" fill="#272e49" fill-rule="evenodd"/>
      <path id="Trazado_997390" data-name="Trazado 997390" d="M1764.727,274.356h0a1.323,1.323,0,0,0,1.433-1.2l7.8-89.561a1.179,1.179,0,0,0-1.072-1.277l-.286-.025a1.179,1.179,0,0,0-1.277,1.072l-7.8,89.561a1.323,1.323,0,0,0,1.2,1.433" transform="translate(-611.382 -9741.344)" fill="#333"/>
      <path id="Trazado_997391" data-name="Trazado 997391" d="M1656.962,270.23l23.4,2.039a2.277,2.277,0,0,0,2.315-3.107l-9.89-21.793a2.277,2.277,0,0,0-4.059-.354l-13.51,19.755a2.277,2.277,0,0,0,1.743,3.46" transform="translate(-509.865 -9800.814)" fill="#ffcd00"/>
      <path id="Trazado_997392" data-name="Trazado 997392" d="M1673.963,286.149a1.017,1.017,0,0,1,.016-.961l.011-.021,13.509-19.753.016-.026a1.034,1.034,0,0,1,1.843.16l.011.028,9.88,21.769.018.044a1.034,1.034,0,0,1-1.069,1.361l-23.4-2.039a1.015,1.015,0,0,1-.834-.565m14.495-20.172-.025-.062a.131.131,0,0,0-.009-.019.074.074,0,0,0-.024-.005.159.159,0,0,0-.022,0s0,0-.014.018l-.029.047-13.489,19.724h0a.06.06,0,0,0,.007.021.054.054,0,0,0,.013.018.062.062,0,0,0,.019,0l23.4,2.039a.063.063,0,0,0,.019,0,.056.056,0,0,0,.016-.015.057.057,0,0,0,.01-.019h0Z" transform="translate(-527.593 -9818.537)" fill="#333"/>
      <path id="Trazado_997393" data-name="Trazado 997393" d="M1865.239,381.2l-.792,5.5a.953.953,0,0,1-1.029.814l-.1-.009a.953.953,0,0,1-.868-.983l.194-5.55a.954.954,0,0,1,1.038-.916l.7.062a.954.954,0,0,1,.859,1.086m-1.054,7.8-.006.074a.953.953,0,0,1-1.9-.17l.007-.074a.953.953,0,1,1,1.9.17" transform="translate(-703.664 -9926.144)" fill="#2a292f"/>
      <path id="Trazado_997394" data-name="Trazado 997394" d="M.149,1565.817l163.905-31.789v-13.067L.149,1552.75Z" transform="translate(1036.377 -10992.252)" fill="#f2bc11"/>
      <path id="Trazado_997395" data-name="Trazado 997395" d="M0,1733.024l163.905,15.648v-10.85L0,1722.174Z" transform="translate(1036.516 -11180.273)" fill="#ffd01e"/>
      <path id="Trazado_997396" data-name="Trazado 997396" d="M82.77,1737.667l-1.4,9.82,3.5.233,1.632-9.791Z" transform="translate(960.48 -11194.75)" fill="#1d1d1b"/>
      <path id="Trazado_997397" data-name="Trazado 997397" d="M214.326,1748.333l-1.4,9.82,3.5.233,1.632-9.791Z" transform="translate(837.549 -11204.718)" fill="#1d1d1b"/>
      <path id="Trazado_997398" data-name="Trazado 997398" d="M331.659,1759l-1.4,9.82,3.5.233,1.632-9.791Z" transform="translate(727.908 -11214.685)" fill="#1d1d1b"/>
      <path id="Trazado_997399" data-name="Trazado 997399" d="M463.215,1769.667l-1.4,9.82,3.5.233,1.632-9.79Z" transform="translate(604.978 -11224.652)" fill="#1d1d1b"/>
      <path id="Trazado_997400" data-name="Trazado 997400" d="M601.881,1787.445l-1.4,9.82,3.5.233,1.632-9.791Z" transform="translate(475.403 -11241.265)" fill="#1d1d1b"/>
      <path id="Trazado_997401" data-name="Trazado 997401" d="M747.659,1798.111l-1.4,9.82,3.5.233,1.632-9.791Z" transform="translate(339.182 -11251.232)" fill="#1d1d1b"/>
      <path id="Trazado_997402" data-name="Trazado 997402" d="M879.215,1809.778l-1.4,9.82,3.5.233,1.632-9.791Z" transform="translate(216.252 -11262.134)" fill="#1d1d1b"/>
      <path id="Trazado_997403" data-name="Trazado 997403" d="M996.548,1822.445l-1.4,9.82,3.5.233,1.632-9.79Z" transform="translate(106.611 -11273.97)" fill="#1d1d1b"/>
      <path id="Trazado_997404" data-name="Trazado 997404" d="M1128.1,1834.111l-1.4,9.82,3.5.233,1.632-9.791Z" transform="translate(-16.319 -11284.872)" fill="#1d1d1b"/>
      <path id="Trazado_997405" data-name="Trazado 997405" d="M1266.77,1847.889l-1.4,9.82,3.5.233,1.632-9.791Z" transform="translate(-145.895 -11297.746)" fill="#1d1d1b"/>
      <path id="Trazado_997406" data-name="Trazado 997406" d="M1405.437,1866.667l-1.4,9.82,3.5.233,1.632-9.791Z" transform="translate(-275.47 -11315.293)" fill="#1d1d1b"/>
      <path id="Trazado_997407" data-name="Trazado 997407" d="M1522.77,1879.333l-1.4,9.82,3.5.233,1.632-9.791Z" transform="translate(-385.111 -11327.129)" fill="#1d1d1b"/>
      <path id="Trazado_997408" data-name="Trazado 997408" d="M1654.326,1891l-1.4,9.82,3.5.233,1.632-9.791Z" transform="translate(-508.041 -11338.031)" fill="#1d1d1b"/>
      <path id="Trazado_997409" data-name="Trazado 997409" d="M1792.992,1904.778l-1.4,9.82,3.5.233,1.632-9.791Z" transform="translate(-637.617 -11350.905)" fill="#1d1d1b"/>
      <path id="Trazado_997410" data-name="Trazado 997410" d="M1952.993,1916.445l-1.4,9.82,3.5.233,1.632-9.791Z" transform="translate(-787.127 -11361.808)" fill="#1d1d1b"/>
      <path id="Trazado_997411" data-name="Trazado 997411" d="M2070.326,1929.111l-1.4,9.82,3.5.233,1.632-9.791Z" transform="translate(-896.768 -11373.644)" fill="#1d1d1b"/>
      <path id="Trazado_997412" data-name="Trazado 997412" d="M2201.881,1940.778l-1.4,9.82,3.5.233,1.632-9.791Z" transform="translate(-1019.698 -11384.545)" fill="#1d1d1b"/>
      <path id="Trazado_997413" data-name="Trazado 997413" d="M2340.548,1954.556l-1.4,9.82,3.5.233,1.632-9.791Z" transform="translate(-1149.273 -11397.42)" fill="#1d1d1b"/>
    </g>
  </g>
</svg>
